G04 #@! TF.FileFunction,Copper,L1,Top,Signal*
%FSLAX46Y46*%
G04 Gerber Fmt 4.6, Leading zero omitted, Abs format (unit mm)*
G04 Created by KiCad (PCBNEW 4.0.7) date Mon Feb 26 15:09:19 2018*
%MOMM*%
%LPD*%
G01*
G04 APERTURE LIST*
%ADD10C,0.100000*%
%ADD11C,1.600000*%
%ADD12R,1.600000X1.600000*%
%ADD13R,1.800000X1.800000*%
%ADD14C,1.800000*%
%ADD15R,3.500000X3.500000*%
%ADD16R,1.750000X1.750000*%
%ADD17C,1.750000*%
%ADD18R,1.200000X1.700000*%
%ADD19O,1.200000X1.700000*%
%ADD20R,1.700000X1.700000*%
%ADD21O,1.700000X1.700000*%
%ADD22R,1.905000X1.905000*%
%ADD23C,1.905000*%
%ADD24C,2.499360*%
%ADD25O,1.800000X1.800000*%
%ADD26C,1.400000*%
%ADD27O,1.400000X1.400000*%
%ADD28C,1.524000*%
%ADD29O,1.524000X2.524000*%
%ADD30O,1.600000X1.600000*%
%ADD31C,2.000000*%
%ADD32C,0.600000*%
%ADD33C,0.250000*%
%ADD34C,0.500000*%
%ADD35C,0.600000*%
%ADD36C,0.254000*%
G04 APERTURE END LIST*
D10*
D11*
X104775000Y-112395000D03*
X102275000Y-112395000D03*
X108585000Y-112395000D03*
X111085000Y-112395000D03*
X122555000Y-112395000D03*
X125055000Y-112395000D03*
D12*
X93980000Y-106045000D03*
D11*
X93980000Y-108545000D03*
X163830000Y-99060000D03*
X166330000Y-99060000D03*
D12*
X97155000Y-122555000D03*
D11*
X97155000Y-125055000D03*
X142240000Y-83185000D03*
X144740000Y-83185000D03*
X166370000Y-92710000D03*
X163870000Y-92710000D03*
X142240000Y-67945000D03*
X144740000Y-67945000D03*
X144780000Y-70485000D03*
X142280000Y-70485000D03*
X163830000Y-95250000D03*
X166330000Y-95250000D03*
D13*
X97790000Y-114935000D03*
D14*
X95250000Y-114935000D03*
D13*
X87630000Y-108585000D03*
D14*
X87630000Y-106045000D03*
D13*
X168275000Y-109855000D03*
D14*
X168275000Y-112395000D03*
D13*
X151765000Y-67945000D03*
D14*
X154305000Y-67945000D03*
D15*
X91440000Y-116205000D03*
X85440000Y-116205000D03*
X88440000Y-120905000D03*
D16*
X84455000Y-73660000D03*
D17*
X84455000Y-76160000D03*
D18*
X112395000Y-123825000D03*
D19*
X114395000Y-123825000D03*
X116395000Y-123825000D03*
X118395000Y-123825000D03*
X120395000Y-123825000D03*
X122395000Y-123825000D03*
D20*
X99568000Y-108712000D03*
D21*
X99568000Y-106172000D03*
X102108000Y-108712000D03*
X102108000Y-106172000D03*
X104648000Y-108712000D03*
X104648000Y-106172000D03*
X107188000Y-108712000D03*
X107188000Y-106172000D03*
X109728000Y-108712000D03*
X109728000Y-106172000D03*
X112268000Y-108712000D03*
X112268000Y-106172000D03*
X114808000Y-108712000D03*
X114808000Y-106172000D03*
X117348000Y-108712000D03*
X117348000Y-106172000D03*
X119888000Y-108712000D03*
X119888000Y-106172000D03*
X122428000Y-108712000D03*
X122428000Y-106172000D03*
X124968000Y-108712000D03*
X124968000Y-106172000D03*
X127508000Y-108712000D03*
X127508000Y-106172000D03*
X130048000Y-108712000D03*
X130048000Y-106172000D03*
D20*
X130048000Y-80772000D03*
D21*
X130048000Y-83312000D03*
X127508000Y-80772000D03*
X127508000Y-83312000D03*
X124968000Y-80772000D03*
X124968000Y-83312000D03*
X122428000Y-80772000D03*
X122428000Y-83312000D03*
X119888000Y-80772000D03*
X119888000Y-83312000D03*
X117348000Y-80772000D03*
X117348000Y-83312000D03*
X114808000Y-80772000D03*
X114808000Y-83312000D03*
X112268000Y-80772000D03*
X112268000Y-83312000D03*
X109728000Y-80772000D03*
X109728000Y-83312000D03*
X107188000Y-80772000D03*
X107188000Y-83312000D03*
X104648000Y-80772000D03*
X104648000Y-83312000D03*
X102108000Y-80772000D03*
X102108000Y-83312000D03*
X99568000Y-80772000D03*
X99568000Y-83312000D03*
D22*
X91440000Y-86995000D03*
D23*
X91440000Y-81915000D03*
D24*
X144780000Y-113665000D03*
X144780000Y-123825000D03*
D13*
X99060000Y-70485000D03*
D25*
X99060000Y-73025000D03*
X99060000Y-75565000D03*
D13*
X93345000Y-98425000D03*
D25*
X93345000Y-95885000D03*
X93345000Y-93345000D03*
D26*
X97790000Y-86360000D03*
D27*
X102870000Y-86360000D03*
D26*
X102870000Y-88900000D03*
D27*
X97790000Y-88900000D03*
D26*
X102235000Y-122555000D03*
D27*
X107315000Y-122555000D03*
D26*
X107315000Y-125095000D03*
D27*
X102235000Y-125095000D03*
D26*
X110490000Y-71755000D03*
D27*
X110490000Y-66675000D03*
D26*
X120015000Y-112395000D03*
D27*
X114935000Y-112395000D03*
D26*
X103505000Y-97790000D03*
D27*
X98425000Y-97790000D03*
D26*
X103505000Y-101600000D03*
D27*
X98425000Y-101600000D03*
D26*
X113665000Y-71755000D03*
D27*
X113665000Y-66675000D03*
D26*
X159385000Y-112395000D03*
D27*
X164465000Y-112395000D03*
D26*
X159385000Y-109855000D03*
D27*
X164465000Y-109855000D03*
D26*
X146050000Y-80645000D03*
D27*
X140970000Y-80645000D03*
D26*
X146050000Y-78105000D03*
D27*
X140970000Y-78105000D03*
D26*
X162560000Y-88900000D03*
D27*
X167640000Y-88900000D03*
D26*
X140716000Y-104140000D03*
D27*
X135636000Y-104140000D03*
D26*
X140716000Y-101600000D03*
D27*
X135636000Y-101600000D03*
D26*
X140716000Y-99060000D03*
D27*
X135636000Y-99060000D03*
D26*
X140716000Y-96520000D03*
D27*
X135636000Y-96520000D03*
D26*
X140716000Y-93980000D03*
D27*
X135636000Y-93980000D03*
D26*
X140716000Y-91440000D03*
D27*
X135636000Y-91440000D03*
D26*
X140716000Y-88900000D03*
D27*
X135636000Y-88900000D03*
D26*
X140716000Y-86360000D03*
D27*
X135636000Y-86360000D03*
D26*
X97790000Y-92075000D03*
D27*
X102870000Y-92075000D03*
D26*
X146050000Y-75565000D03*
D27*
X140970000Y-75565000D03*
D26*
X167005000Y-72390000D03*
D27*
X161925000Y-72390000D03*
D26*
X146050000Y-73025000D03*
D27*
X140970000Y-73025000D03*
D20*
X94615000Y-73660000D03*
D21*
X92075000Y-73660000D03*
X89535000Y-73660000D03*
D20*
X104775000Y-70485000D03*
D21*
X104775000Y-73025000D03*
X104775000Y-75565000D03*
D28*
X130175000Y-115570000D03*
X128905000Y-119380000D03*
X127635000Y-115570000D03*
X126365000Y-119380000D03*
X125095000Y-115570000D03*
X123825000Y-119380000D03*
X122555000Y-115570000D03*
X121285000Y-119380000D03*
X120015000Y-115570000D03*
X118745000Y-119380000D03*
X117475000Y-115570000D03*
X116205000Y-119380000D03*
X114935000Y-115570000D03*
X113665000Y-119380000D03*
X112395000Y-115570000D03*
X111125000Y-119380000D03*
X109855000Y-115570000D03*
X108585000Y-119380000D03*
X107315000Y-115570000D03*
X106045000Y-119380000D03*
X104775000Y-115570000D03*
X103505000Y-119380000D03*
X102235000Y-115570000D03*
D29*
X147320000Y-102870000D03*
X149860000Y-102870000D03*
X152400000Y-102870000D03*
X154940000Y-102870000D03*
X157480000Y-102870000D03*
X157480000Y-87630000D03*
X154940000Y-87630000D03*
X152400000Y-87630000D03*
X149860000Y-87630000D03*
X147320000Y-87630000D03*
D12*
X160655000Y-75565000D03*
D30*
X168275000Y-83185000D03*
X160655000Y-78105000D03*
X168275000Y-80645000D03*
X160655000Y-80645000D03*
X168275000Y-78105000D03*
X160655000Y-83185000D03*
X168275000Y-75565000D03*
D12*
X148590000Y-75565000D03*
D30*
X156210000Y-83185000D03*
X148590000Y-78105000D03*
X156210000Y-80645000D03*
X148590000Y-80645000D03*
X156210000Y-78105000D03*
X148590000Y-83185000D03*
X156210000Y-75565000D03*
D20*
X85725000Y-98425000D03*
D21*
X85725000Y-95885000D03*
X85725000Y-93345000D03*
D31*
X93980000Y-67945000D03*
X88900000Y-67935000D03*
D20*
X171450000Y-90170000D03*
D21*
X171450000Y-92710000D03*
X171450000Y-95250000D03*
X171450000Y-97790000D03*
X171450000Y-100330000D03*
D20*
X131445000Y-75565000D03*
D21*
X128905000Y-75565000D03*
X126365000Y-75565000D03*
D20*
X110490000Y-75565000D03*
D21*
X113030000Y-75565000D03*
X115570000Y-75565000D03*
X118110000Y-75565000D03*
X120650000Y-75565000D03*
D13*
X160655000Y-67945000D03*
D14*
X163195000Y-67945000D03*
D31*
X164520000Y-122555000D03*
X160020000Y-122555000D03*
X164520000Y-116055000D03*
X160020000Y-116055000D03*
D32*
X105402900Y-87943400D03*
X125481800Y-91998500D03*
X123997200Y-92863600D03*
X119895100Y-88568700D03*
X115525000Y-87311000D03*
X118043900Y-114289600D03*
X96499000Y-79324200D03*
X128749100Y-91281000D03*
D33*
X126332700Y-81139400D02*
X126332700Y-80772000D01*
X125524800Y-81947300D02*
X126332700Y-81139400D01*
X111953100Y-81947300D02*
X125524800Y-81947300D01*
X111040500Y-82859900D02*
X111953100Y-81947300D01*
X111040500Y-83699900D02*
X111040500Y-82859900D01*
X108380400Y-86360000D02*
X111040500Y-83699900D01*
X102870000Y-86360000D02*
X108380400Y-86360000D01*
X127508000Y-80772000D02*
X126332700Y-80772000D01*
D34*
X98185000Y-66435000D02*
X88253998Y-66435000D01*
X88253998Y-66435000D02*
X83080000Y-71608998D01*
X83080000Y-74785000D02*
X83080000Y-71608998D01*
X83580000Y-93740000D02*
X85725000Y-95885000D01*
X83580000Y-77035000D02*
X83580000Y-93740000D01*
X84455000Y-76160000D02*
X83580000Y-77035000D01*
D35*
X86090000Y-120905000D02*
X88440000Y-120905000D01*
X85440000Y-120255000D02*
X86090000Y-120905000D01*
X85440000Y-116205000D02*
X85440000Y-120255000D01*
X83080000Y-74785000D02*
X84455000Y-76160000D01*
X104775000Y-73025000D02*
X98185000Y-66435000D01*
X92710000Y-88900000D02*
X85725000Y-95885000D01*
X97790000Y-88900000D02*
X92710000Y-88900000D01*
X86130000Y-108585000D02*
X87630000Y-108585000D01*
X85440000Y-109275000D02*
X86130000Y-108585000D01*
X85440000Y-116205000D02*
X85440000Y-109275000D01*
D34*
X99568000Y-108712000D02*
X98267700Y-108712000D01*
X93980000Y-108565000D02*
X93980000Y-108545000D01*
X93960000Y-108585000D02*
X93980000Y-108565000D01*
X87630000Y-108585000D02*
X93960000Y-108585000D01*
X98120700Y-108565000D02*
X98267700Y-108712000D01*
X93980000Y-108565000D02*
X98120700Y-108565000D01*
X161905300Y-84315600D02*
X166489700Y-88900000D01*
X161905300Y-83185000D02*
X161905300Y-84315600D01*
X167640000Y-88900000D02*
X166489700Y-88900000D01*
X120650000Y-75565000D02*
X126365000Y-75565000D01*
X140970000Y-75565000D02*
X139819700Y-75565000D01*
X138519300Y-74264600D02*
X139819700Y-75565000D01*
X127665400Y-74264600D02*
X138519300Y-74264600D01*
X126365000Y-75565000D02*
X127665400Y-74264600D01*
X101044700Y-125055000D02*
X101084700Y-125095000D01*
X97155000Y-125055000D02*
X101044700Y-125055000D01*
X102235000Y-125095000D02*
X101084700Y-125095000D01*
X114935000Y-112395000D02*
X113784700Y-112395000D01*
X109811000Y-111121000D02*
X111085000Y-112395000D01*
X103549000Y-111121000D02*
X109811000Y-111121000D01*
X102275000Y-112395000D02*
X103549000Y-111121000D01*
X111085000Y-112395000D02*
X113784700Y-112395000D01*
X158134700Y-81915000D02*
X159404700Y-83185000D01*
X151110300Y-81915000D02*
X158134700Y-81915000D01*
X149840300Y-83185000D02*
X151110300Y-81915000D01*
X148590000Y-83185000D02*
X149840300Y-83185000D01*
X160655000Y-83185000D02*
X159404700Y-83185000D01*
X160655000Y-83185000D02*
X161730200Y-83185000D01*
X161730200Y-83185000D02*
X161905300Y-83185000D01*
X161925000Y-83165300D02*
X161925000Y-72390000D01*
X161905300Y-83185000D02*
X161925000Y-83165300D01*
D33*
X110350800Y-114160800D02*
X108585000Y-112395000D01*
X113525800Y-114160800D02*
X110350800Y-114160800D01*
X114935000Y-115570000D02*
X113525800Y-114160800D01*
D34*
X98140700Y-106045000D02*
X98267700Y-106172000D01*
X93980000Y-106045000D02*
X98140700Y-106045000D01*
X99568000Y-106172000D02*
X98267700Y-106172000D01*
X108196100Y-117228900D02*
X109855000Y-115570000D01*
X103870200Y-117228900D02*
X108196100Y-117228900D01*
X102235000Y-118864100D02*
X103870200Y-117228900D01*
X102235000Y-122555000D02*
X102235000Y-118864100D01*
X105579400Y-79175300D02*
X109189700Y-75565000D01*
X101164700Y-79175300D02*
X105579400Y-79175300D01*
X99568000Y-80772000D02*
X101164700Y-79175300D01*
X110490000Y-75565000D02*
X109189700Y-75565000D01*
X130048000Y-83312000D02*
X131348300Y-83312000D01*
X132495800Y-84459500D02*
X131348300Y-83312000D01*
X148904000Y-84459500D02*
X132495800Y-84459500D01*
X152400000Y-87955500D02*
X148904000Y-84459500D01*
X152400000Y-87997900D02*
X152400000Y-87955500D01*
X152400000Y-87630000D02*
X152400000Y-87997900D01*
X154572100Y-90170000D02*
X171450000Y-90170000D01*
X152400000Y-87997900D02*
X154572100Y-90170000D01*
X144965900Y-124010900D02*
X144780000Y-123825000D01*
X163064100Y-124010900D02*
X144965900Y-124010900D01*
X164520000Y-122555000D02*
X163064100Y-124010900D01*
X121285000Y-119380000D02*
X120065600Y-118160600D01*
X114884400Y-118160600D02*
X113665000Y-119380000D01*
X120065600Y-118160600D02*
X114884400Y-118160600D01*
X138297300Y-117342300D02*
X144780000Y-123825000D01*
X124226100Y-117342300D02*
X138297300Y-117342300D01*
X122555000Y-115671200D02*
X124226100Y-117342300D01*
X120065600Y-118160600D02*
X122555000Y-115671200D01*
X122555000Y-115671200D02*
X122555000Y-115570000D01*
D33*
X123929400Y-113520600D02*
X125055000Y-112395000D01*
X121140600Y-113520600D02*
X123929400Y-113520600D01*
X120015000Y-112395000D02*
X121140600Y-113520600D01*
X119053000Y-112395000D02*
X120015000Y-112395000D01*
X116255400Y-115192600D02*
X119053000Y-112395000D01*
X116255400Y-115787500D02*
X116255400Y-115192600D01*
X115353200Y-116689700D02*
X116255400Y-115787500D01*
X113514700Y-116689700D02*
X115353200Y-116689700D01*
X112395000Y-115570000D02*
X113514700Y-116689700D01*
D34*
X94050000Y-90100000D02*
X98292002Y-90100000D01*
X98292002Y-90100000D02*
X98940001Y-89452001D01*
X98940001Y-89452001D02*
X98940001Y-87510001D01*
X98940001Y-87510001D02*
X98489999Y-87059999D01*
X98489999Y-87059999D02*
X97790000Y-86360000D01*
X114395000Y-123825000D02*
X114395000Y-124075000D01*
X114395000Y-124075000D02*
X113344999Y-125125001D01*
X113344999Y-125125001D02*
X109047003Y-125125001D01*
X99844999Y-123944999D02*
X98455000Y-122555000D01*
X109047003Y-125125001D02*
X107867001Y-123944999D01*
X107867001Y-123944999D02*
X99844999Y-123944999D01*
X98455000Y-122555000D02*
X97155000Y-122555000D01*
X82296000Y-119161000D02*
X82385998Y-119161000D01*
X86379998Y-123155000D02*
X95155000Y-123155000D01*
X82385998Y-119161000D02*
X86379998Y-123155000D01*
D35*
X119888000Y-124332000D02*
X120395000Y-123825000D01*
X119888000Y-124582000D02*
X119888000Y-124332000D01*
X119195000Y-125275000D02*
X119888000Y-124582000D01*
X115595000Y-125275000D02*
X119195000Y-125275000D01*
X114395000Y-124075000D02*
X115595000Y-125275000D01*
X114395000Y-123475000D02*
X114395000Y-123825000D01*
X95755000Y-122555000D02*
X97155000Y-122555000D01*
X95155000Y-123155000D02*
X95755000Y-122555000D01*
X82296000Y-103304000D02*
X82296000Y-119161000D01*
X85725000Y-99875000D02*
X82296000Y-103304000D01*
X85725000Y-98425000D02*
X85725000Y-99875000D01*
X85725000Y-98425000D02*
X94050000Y-90100000D01*
D34*
X168275000Y-75565000D02*
X167024700Y-75565000D01*
D35*
X97790000Y-77233500D02*
X97790000Y-86360000D01*
X97790000Y-76835000D02*
X97790000Y-77233500D01*
X99060000Y-75565000D02*
X97790000Y-76835000D01*
D34*
X157193200Y-70833200D02*
X154305000Y-67945000D01*
X162292900Y-70833200D02*
X157193200Y-70833200D01*
X167024700Y-75565000D02*
X162292900Y-70833200D01*
X98239800Y-77683300D02*
X97790000Y-77233500D01*
X106011800Y-77683300D02*
X98239800Y-77683300D01*
X110180000Y-73515100D02*
X106011800Y-77683300D01*
X139833300Y-73515100D02*
X110180000Y-73515100D01*
X140521000Y-74202800D02*
X139833300Y-73515100D01*
X148047200Y-74202800D02*
X140521000Y-74202800D01*
X154305000Y-67945000D02*
X148047200Y-74202800D01*
X148590000Y-80645000D02*
X147418700Y-80645000D01*
X147418700Y-80352200D02*
X146033600Y-78967000D01*
X147418700Y-80645000D02*
X147418700Y-80352200D01*
X146050000Y-78950600D02*
X146033600Y-78967000D01*
X146050000Y-78105000D02*
X146050000Y-78950600D01*
X140970000Y-80645000D02*
X142120300Y-80645000D01*
X143238000Y-81762600D02*
X142120300Y-80645000D01*
X146033600Y-78967000D02*
X143238000Y-81762600D01*
X142240000Y-82760600D02*
X142240000Y-83185000D01*
X143238000Y-81762600D02*
X142240000Y-82760600D01*
D33*
X145965400Y-66719600D02*
X144740000Y-67945000D01*
X161969600Y-66719600D02*
X145965400Y-66719600D01*
X163195000Y-67945000D02*
X161969600Y-66719600D01*
X163195000Y-68580000D02*
X163195000Y-67945000D01*
X167005000Y-72390000D02*
X163195000Y-68580000D01*
X92075000Y-101600000D02*
X87630000Y-106045000D01*
X98425000Y-101600000D02*
X92075000Y-101600000D01*
X164465000Y-112395000D02*
X168275000Y-112395000D01*
D34*
X102950000Y-76915000D02*
X105330000Y-76915000D01*
X105330000Y-76915000D02*
X110490000Y-71755000D01*
D35*
X109790000Y-72455000D02*
X110490000Y-71755000D01*
X109790000Y-72548000D02*
X109790000Y-72455000D01*
X99060000Y-73025000D02*
X102950000Y-76915000D01*
X93980000Y-67945000D02*
X99060000Y-73025000D01*
X88900000Y-70485000D02*
X92075000Y-73660000D01*
X88900000Y-67935000D02*
X88900000Y-70485000D01*
D34*
X89535000Y-73660000D02*
X84455000Y-73660000D01*
D33*
X121063300Y-108344600D02*
X121063300Y-108712000D01*
X121871200Y-107536700D02*
X121063300Y-108344600D01*
X166549000Y-107536700D02*
X121871200Y-107536700D01*
X173087000Y-100998700D02*
X166549000Y-107536700D01*
X173087000Y-95155000D02*
X173087000Y-100998700D01*
X171817300Y-93885300D02*
X173087000Y-95155000D01*
X171450000Y-93885300D02*
X171817300Y-93885300D01*
X171450000Y-92710000D02*
X171450000Y-93885300D01*
X119888000Y-108712000D02*
X121063300Y-108712000D01*
X171450000Y-97790000D02*
X171450000Y-98965300D01*
X117348000Y-106172000D02*
X118523300Y-106172000D01*
X118523300Y-105804600D02*
X118523300Y-106172000D01*
X119331200Y-104996700D02*
X118523300Y-105804600D01*
X134610700Y-104996700D02*
X119331200Y-104996700D01*
X134800900Y-105186900D02*
X134610700Y-104996700D01*
X168261900Y-105186900D02*
X134800900Y-105186900D01*
X172635900Y-100812900D02*
X168261900Y-105186900D01*
X172635900Y-99783900D02*
X172635900Y-100812900D01*
X171817300Y-98965300D02*
X172635900Y-99783900D01*
X171450000Y-98965300D02*
X171817300Y-98965300D01*
X128699300Y-87943400D02*
X105402900Y-87943400D01*
X133226200Y-92470300D02*
X128699300Y-87943400D01*
X151536600Y-92470300D02*
X133226200Y-92470300D01*
X153190900Y-94124600D02*
X151536600Y-92470300D01*
X164308100Y-94124600D02*
X153190900Y-94124600D01*
X165204600Y-95021100D02*
X164308100Y-94124600D01*
X165204600Y-95802600D02*
X165204600Y-95021100D01*
X169732000Y-100330000D02*
X165204600Y-95802600D01*
X171450000Y-100330000D02*
X169732000Y-100330000D01*
X118821500Y-91998500D02*
X104648000Y-106172000D01*
X125481800Y-91998500D02*
X118821500Y-91998500D01*
X104648000Y-108712000D02*
X104648000Y-107536700D01*
X118830000Y-92863600D02*
X123997200Y-92863600D01*
X105823300Y-105870300D02*
X118830000Y-92863600D01*
X105823300Y-106728800D02*
X105823300Y-105870300D01*
X105015400Y-107536700D02*
X105823300Y-106728800D01*
X104648000Y-107536700D02*
X105015400Y-107536700D01*
X115469700Y-123319000D02*
X115469700Y-123825000D01*
X113456800Y-121306100D02*
X115469700Y-123319000D01*
X105431100Y-121306100D02*
X113456800Y-121306100D01*
X103505000Y-119380000D02*
X105431100Y-121306100D01*
X116395000Y-123825000D02*
X115469700Y-123825000D01*
X119320300Y-123319000D02*
X119320300Y-123825000D01*
X120045300Y-122594000D02*
X119320300Y-123319000D01*
X125691000Y-122594000D02*
X120045300Y-122594000D01*
X128905000Y-119380000D02*
X125691000Y-122594000D01*
X118395000Y-123825000D02*
X119320300Y-123825000D01*
X124968000Y-108712000D02*
X126143300Y-108712000D01*
X159352700Y-112362700D02*
X159352700Y-109887300D01*
X159385000Y-112395000D02*
X159352700Y-112362700D01*
X159385000Y-109855000D02*
X159352700Y-109887300D01*
X126143300Y-109079400D02*
X126143300Y-108712000D01*
X126951200Y-109887300D02*
X126143300Y-109079400D01*
X159352700Y-109887300D02*
X126951200Y-109887300D01*
X121063300Y-80404600D02*
X121063300Y-80772000D01*
X121871200Y-79596700D02*
X121063300Y-80404600D01*
X142818400Y-79596700D02*
X121871200Y-79596700D01*
X145379600Y-77035500D02*
X142818400Y-79596700D01*
X146460100Y-77035500D02*
X145379600Y-77035500D01*
X147132000Y-77707400D02*
X146460100Y-77035500D01*
X147132000Y-78259900D02*
X147132000Y-77707400D01*
X148391800Y-79519700D02*
X147132000Y-78259900D01*
X158404400Y-79519700D02*
X148391800Y-79519700D01*
X159529700Y-80645000D02*
X158404400Y-79519700D01*
X160655000Y-80645000D02*
X159529700Y-80645000D01*
X119888000Y-80772000D02*
X121063300Y-80772000D01*
X128352900Y-88568700D02*
X119895100Y-88568700D01*
X133764200Y-93980000D02*
X128352900Y-88568700D01*
X135636000Y-93980000D02*
X133764200Y-93980000D01*
X115983300Y-83679300D02*
X115983300Y-83312000D01*
X117582200Y-85278200D02*
X115983300Y-83679300D01*
X136066700Y-85278200D02*
X117582200Y-85278200D01*
X136700500Y-85912000D02*
X136066700Y-85278200D01*
X136700500Y-89350200D02*
X136700500Y-85912000D01*
X135636000Y-90414700D02*
X136700500Y-89350200D01*
X135636000Y-91440000D02*
X135636000Y-90414700D01*
X114808000Y-83312000D02*
X115983300Y-83312000D01*
X133021700Y-87311000D02*
X115525000Y-87311000D01*
X134610700Y-88900000D02*
X133021700Y-87311000D01*
X135636000Y-88900000D02*
X134610700Y-88900000D01*
X113443300Y-83679300D02*
X113443300Y-83312000D01*
X116124000Y-86360000D02*
X113443300Y-83679300D01*
X135636000Y-86360000D02*
X116124000Y-86360000D01*
X112268000Y-83312000D02*
X113443300Y-83312000D01*
X119324300Y-115570000D02*
X118043900Y-114289600D01*
X120015000Y-115570000D02*
X119324300Y-115570000D01*
X94030800Y-79324200D02*
X91440000Y-81915000D01*
X96499000Y-79324200D02*
X94030800Y-79324200D01*
X93804500Y-97199700D02*
X93345000Y-97199700D01*
X97790000Y-93214200D02*
X93804500Y-97199700D01*
X97790000Y-92075000D02*
X97790000Y-93214200D01*
X93345000Y-98425000D02*
X93345000Y-97199700D01*
X93345000Y-93345000D02*
X94570300Y-93345000D01*
X97187100Y-90728200D02*
X94570300Y-93345000D01*
X98631200Y-90728200D02*
X97187100Y-90728200D01*
X99677100Y-89682300D02*
X98631200Y-90728200D01*
X99677100Y-88069700D02*
X99677100Y-89682300D01*
X103259400Y-84487400D02*
X99677100Y-88069700D01*
X107755300Y-84487400D02*
X103259400Y-84487400D01*
X108458000Y-83784700D02*
X107755300Y-84487400D01*
X108458000Y-82881000D02*
X108458000Y-83784700D01*
X109202400Y-82136600D02*
X108458000Y-82881000D01*
X110113600Y-82136600D02*
X109202400Y-82136600D01*
X110980100Y-81270100D02*
X110113600Y-82136600D01*
X110980100Y-80387900D02*
X110980100Y-81270100D01*
X114533000Y-76835000D02*
X110980100Y-80387900D01*
X144780000Y-76835000D02*
X114533000Y-76835000D01*
X146050000Y-75565000D02*
X144780000Y-76835000D01*
X147464700Y-76979700D02*
X146050000Y-75565000D01*
X158404400Y-76979700D02*
X147464700Y-76979700D01*
X159529700Y-78105000D02*
X158404400Y-76979700D01*
X160655000Y-78105000D02*
X159529700Y-78105000D01*
X146113300Y-104457300D02*
X140716000Y-99060000D01*
X154940000Y-104457300D02*
X146113300Y-104457300D01*
X154940000Y-102870000D02*
X154940000Y-104457300D01*
X145478700Y-101282700D02*
X140716000Y-96520000D01*
X149860000Y-101282700D02*
X145478700Y-101282700D01*
X149860000Y-102870000D02*
X149860000Y-101282700D01*
X139690300Y-95005700D02*
X140716000Y-93980000D01*
X139690300Y-96975100D02*
X139690300Y-95005700D01*
X140505200Y-97790000D02*
X139690300Y-96975100D01*
X141348000Y-97790000D02*
X140505200Y-97790000D01*
X146428000Y-102870000D02*
X141348000Y-97790000D01*
X147320000Y-102870000D02*
X146428000Y-102870000D01*
X142938700Y-89217300D02*
X140716000Y-91440000D01*
X149860000Y-89217300D02*
X142938700Y-89217300D01*
X149860000Y-87630000D02*
X149860000Y-89217300D01*
X141986000Y-87630000D02*
X147320000Y-87630000D01*
X140716000Y-88900000D02*
X141986000Y-87630000D01*
X104689300Y-91281000D02*
X103895300Y-92075000D01*
X128749100Y-91281000D02*
X104689300Y-91281000D01*
X102870000Y-92075000D02*
X103895300Y-92075000D01*
D36*
G36*
X173280000Y-94273198D02*
X172624360Y-93617558D01*
X172851054Y-93278285D01*
X172964093Y-92710000D01*
X172851054Y-92141715D01*
X172529147Y-91659946D01*
X172487548Y-91632150D01*
X172535317Y-91623162D01*
X172751441Y-91484090D01*
X172896431Y-91271890D01*
X172947440Y-91020000D01*
X172947440Y-89320000D01*
X172903162Y-89084683D01*
X172764090Y-88868559D01*
X172551890Y-88723569D01*
X172300000Y-88672560D01*
X170600000Y-88672560D01*
X170364683Y-88716838D01*
X170148559Y-88855910D01*
X170003569Y-89068110D01*
X169959648Y-89285000D01*
X168911315Y-89285000D01*
X168932716Y-89233329D01*
X168809374Y-89027000D01*
X167767000Y-89027000D01*
X167767000Y-89047000D01*
X167513000Y-89047000D01*
X167513000Y-89027000D01*
X166470626Y-89027000D01*
X166347284Y-89233329D01*
X166368685Y-89285000D01*
X163845651Y-89285000D01*
X163894768Y-89166713D01*
X163895231Y-88635617D01*
X163866744Y-88566671D01*
X166347284Y-88566671D01*
X166470626Y-88773000D01*
X167513000Y-88773000D01*
X167513000Y-87729794D01*
X167767000Y-87729794D01*
X167767000Y-88773000D01*
X168809374Y-88773000D01*
X168932716Y-88566671D01*
X168789797Y-88221604D01*
X168442663Y-87833236D01*
X167973331Y-87607273D01*
X167767000Y-87729794D01*
X167513000Y-87729794D01*
X167306669Y-87607273D01*
X166837337Y-87833236D01*
X166490203Y-88221604D01*
X166347284Y-88566671D01*
X163866744Y-88566671D01*
X163692418Y-88144771D01*
X163317204Y-87768902D01*
X162826713Y-87565232D01*
X162295617Y-87564769D01*
X161804771Y-87767582D01*
X161428902Y-88142796D01*
X161225232Y-88633287D01*
X161224769Y-89164383D01*
X161274607Y-89285000D01*
X158273258Y-89285000D01*
X158467828Y-89154992D01*
X158770660Y-88701773D01*
X158877000Y-88167164D01*
X158877000Y-87092836D01*
X158770660Y-86558227D01*
X158467828Y-86105008D01*
X158014609Y-85802176D01*
X157480000Y-85695836D01*
X156945391Y-85802176D01*
X156492172Y-86105008D01*
X156210000Y-86527307D01*
X155927828Y-86105008D01*
X155474609Y-85802176D01*
X154940000Y-85695836D01*
X154405391Y-85802176D01*
X153952172Y-86105008D01*
X153670000Y-86527307D01*
X153387828Y-86105008D01*
X152934609Y-85802176D01*
X152400000Y-85695836D01*
X151865391Y-85802176D01*
X151645310Y-85949230D01*
X149724773Y-84028693D01*
X149821041Y-83922423D01*
X149981904Y-83534039D01*
X149859915Y-83312000D01*
X148717000Y-83312000D01*
X148717000Y-83332000D01*
X148463000Y-83332000D01*
X148463000Y-83312000D01*
X147320085Y-83312000D01*
X147198096Y-83534039D01*
X147214854Y-83574500D01*
X146124882Y-83574500D01*
X146186965Y-83401777D01*
X146159778Y-82831546D01*
X145993864Y-82430995D01*
X145747745Y-82356861D01*
X144919605Y-83185000D01*
X144933748Y-83199143D01*
X144754143Y-83378748D01*
X144740000Y-83364605D01*
X144725858Y-83378748D01*
X144546253Y-83199143D01*
X144560395Y-83185000D01*
X144546253Y-83170858D01*
X144725858Y-82991252D01*
X144740000Y-83005395D01*
X145568139Y-82177255D01*
X145494005Y-81931136D01*
X144956777Y-81738035D01*
X144491985Y-81760195D01*
X144898393Y-81353787D01*
X144917582Y-81400229D01*
X145292796Y-81776098D01*
X145783287Y-81979768D01*
X146314383Y-81980231D01*
X146805229Y-81777418D01*
X147113828Y-81469357D01*
X147418700Y-81530000D01*
X147460527Y-81530000D01*
X147547189Y-81659698D01*
X147951703Y-81929986D01*
X147734866Y-82032611D01*
X147358959Y-82447577D01*
X147198096Y-82835961D01*
X147320085Y-83058000D01*
X148463000Y-83058000D01*
X148463000Y-83038000D01*
X148717000Y-83038000D01*
X148717000Y-83058000D01*
X149859915Y-83058000D01*
X149981904Y-82835961D01*
X149821041Y-82447577D01*
X149445134Y-82032611D01*
X149228297Y-81929986D01*
X149632811Y-81659698D01*
X149943880Y-81194151D01*
X150053113Y-80645000D01*
X149980450Y-80279700D01*
X154819550Y-80279700D01*
X154746887Y-80645000D01*
X154856120Y-81194151D01*
X155167189Y-81659698D01*
X155549275Y-81915000D01*
X155167189Y-82170302D01*
X154856120Y-82635849D01*
X154746887Y-83185000D01*
X154856120Y-83734151D01*
X155167189Y-84199698D01*
X155632736Y-84510767D01*
X156181887Y-84620000D01*
X156238113Y-84620000D01*
X156787264Y-84510767D01*
X157252811Y-84199698D01*
X157563880Y-83734151D01*
X157603684Y-83534039D01*
X159263096Y-83534039D01*
X159423959Y-83922423D01*
X159799866Y-84337389D01*
X160305959Y-84576914D01*
X160528000Y-84455629D01*
X160528000Y-83312000D01*
X160782000Y-83312000D01*
X160782000Y-84455629D01*
X161004041Y-84576914D01*
X161510134Y-84337389D01*
X161886041Y-83922423D01*
X162046904Y-83534039D01*
X161924915Y-83312000D01*
X160782000Y-83312000D01*
X160528000Y-83312000D01*
X159385085Y-83312000D01*
X159263096Y-83534039D01*
X157603684Y-83534039D01*
X157673113Y-83185000D01*
X157563880Y-82635849D01*
X157252811Y-82170302D01*
X156870725Y-81915000D01*
X157252811Y-81659698D01*
X157563880Y-81194151D01*
X157673113Y-80645000D01*
X157600450Y-80279700D01*
X158089598Y-80279700D01*
X158992299Y-81182401D01*
X159238861Y-81347148D01*
X159428563Y-81384882D01*
X159612189Y-81659698D01*
X160016703Y-81929986D01*
X159799866Y-82032611D01*
X159423959Y-82447577D01*
X159263096Y-82835961D01*
X159385085Y-83058000D01*
X160528000Y-83058000D01*
X160528000Y-83038000D01*
X160782000Y-83038000D01*
X160782000Y-83058000D01*
X161924915Y-83058000D01*
X162046904Y-82835961D01*
X161886041Y-82447577D01*
X161510134Y-82032611D01*
X161293297Y-81929986D01*
X161697811Y-81659698D01*
X162008880Y-81194151D01*
X162118113Y-80645000D01*
X162008880Y-80095849D01*
X161697811Y-79630302D01*
X161315725Y-79375000D01*
X161697811Y-79119698D01*
X162008880Y-78654151D01*
X162118113Y-78105000D01*
X162008880Y-77555849D01*
X161697811Y-77090302D01*
X161553535Y-76993899D01*
X161690317Y-76968162D01*
X161906441Y-76829090D01*
X162051431Y-76616890D01*
X162102440Y-76365000D01*
X162102440Y-74765000D01*
X162058162Y-74529683D01*
X161919090Y-74313559D01*
X161706890Y-74168569D01*
X161455000Y-74117560D01*
X159855000Y-74117560D01*
X159619683Y-74161838D01*
X159403559Y-74300910D01*
X159258569Y-74513110D01*
X159207560Y-74765000D01*
X159207560Y-76365000D01*
X159251838Y-76600317D01*
X159390910Y-76816441D01*
X159603110Y-76961431D01*
X159758089Y-76992815D01*
X159612189Y-77090302D01*
X159603223Y-77103721D01*
X158941801Y-76442299D01*
X158695239Y-76277552D01*
X158404400Y-76219700D01*
X157493354Y-76219700D01*
X157563880Y-76114151D01*
X157673113Y-75565000D01*
X157563880Y-75015849D01*
X157252811Y-74550302D01*
X156787264Y-74239233D01*
X156238113Y-74130000D01*
X156181887Y-74130000D01*
X155632736Y-74239233D01*
X155167189Y-74550302D01*
X154856120Y-75015849D01*
X154746887Y-75565000D01*
X154856120Y-76114151D01*
X154926646Y-76219700D01*
X150037440Y-76219700D01*
X150037440Y-74765000D01*
X149993162Y-74529683D01*
X149854090Y-74313559D01*
X149641890Y-74168569D01*
X149390000Y-74117560D01*
X149384020Y-74117560D01*
X150778250Y-72723329D01*
X160632284Y-72723329D01*
X160775203Y-73068396D01*
X161122337Y-73456764D01*
X161591669Y-73682727D01*
X161798000Y-73560206D01*
X161798000Y-72517000D01*
X160755626Y-72517000D01*
X160632284Y-72723329D01*
X150778250Y-72723329D01*
X154021826Y-69479753D01*
X154588668Y-69480247D01*
X156567408Y-71458987D01*
X156567410Y-71458990D01*
X156734024Y-71570317D01*
X156854526Y-71650834D01*
X157193200Y-71718201D01*
X157193205Y-71718200D01*
X160772471Y-71718200D01*
X160632284Y-72056671D01*
X160755626Y-72263000D01*
X161798000Y-72263000D01*
X161798000Y-72243000D01*
X162052000Y-72243000D01*
X162052000Y-72263000D01*
X162072000Y-72263000D01*
X162072000Y-72517000D01*
X162052000Y-72517000D01*
X162052000Y-73560206D01*
X162258331Y-73682727D01*
X162727663Y-73456764D01*
X163074797Y-73068396D01*
X163133876Y-72925755D01*
X166398908Y-76190787D01*
X166398910Y-76190790D01*
X166686025Y-76382633D01*
X166742216Y-76393810D01*
X167024700Y-76450001D01*
X167024705Y-76450000D01*
X167145527Y-76450000D01*
X167232189Y-76579698D01*
X167614275Y-76835000D01*
X167232189Y-77090302D01*
X166921120Y-77555849D01*
X166811887Y-78105000D01*
X166921120Y-78654151D01*
X167232189Y-79119698D01*
X167614275Y-79375000D01*
X167232189Y-79630302D01*
X166921120Y-80095849D01*
X166811887Y-80645000D01*
X166921120Y-81194151D01*
X167232189Y-81659698D01*
X167614275Y-81915000D01*
X167232189Y-82170302D01*
X166921120Y-82635849D01*
X166811887Y-83185000D01*
X166921120Y-83734151D01*
X167232189Y-84199698D01*
X167697736Y-84510767D01*
X168246887Y-84620000D01*
X168303113Y-84620000D01*
X168852264Y-84510767D01*
X169317811Y-84199698D01*
X169628880Y-83734151D01*
X169738113Y-83185000D01*
X169628880Y-82635849D01*
X169317811Y-82170302D01*
X168935725Y-81915000D01*
X169317811Y-81659698D01*
X169628880Y-81194151D01*
X169738113Y-80645000D01*
X169628880Y-80095849D01*
X169317811Y-79630302D01*
X168935725Y-79375000D01*
X169317811Y-79119698D01*
X169628880Y-78654151D01*
X169738113Y-78105000D01*
X169628880Y-77555849D01*
X169317811Y-77090302D01*
X168935725Y-76835000D01*
X169317811Y-76579698D01*
X169628880Y-76114151D01*
X169738113Y-75565000D01*
X169628880Y-75015849D01*
X169317811Y-74550302D01*
X168852264Y-74239233D01*
X168303113Y-74130000D01*
X168246887Y-74130000D01*
X167697736Y-74239233D01*
X167249808Y-74538529D01*
X162918690Y-70207410D01*
X162798633Y-70127191D01*
X162631575Y-70015567D01*
X162575384Y-70004390D01*
X162292900Y-69948199D01*
X162292895Y-69948200D01*
X157559779Y-69948200D01*
X155839753Y-68228174D01*
X155840265Y-67641009D01*
X155773572Y-67479600D01*
X159107560Y-67479600D01*
X159107560Y-68845000D01*
X159151838Y-69080317D01*
X159290910Y-69296441D01*
X159503110Y-69441431D01*
X159755000Y-69492440D01*
X161555000Y-69492440D01*
X161790317Y-69448162D01*
X162006441Y-69309090D01*
X162151431Y-69096890D01*
X162155567Y-69076466D01*
X162324357Y-69245551D01*
X162888330Y-69479733D01*
X163020046Y-69479848D01*
X165670226Y-72130028D01*
X165669769Y-72654383D01*
X165872582Y-73145229D01*
X166247796Y-73521098D01*
X166738287Y-73724768D01*
X167269383Y-73725231D01*
X167760229Y-73522418D01*
X168136098Y-73147204D01*
X168339768Y-72656713D01*
X168340231Y-72125617D01*
X168137418Y-71634771D01*
X167762204Y-71258902D01*
X167271713Y-71055232D01*
X166744574Y-71054772D01*
X164498454Y-68808652D01*
X164729733Y-68251670D01*
X164730265Y-67641009D01*
X164497068Y-67076629D01*
X164065643Y-66644449D01*
X163501670Y-66410267D01*
X162891009Y-66409735D01*
X162780287Y-66455485D01*
X162507001Y-66182199D01*
X162260439Y-66017452D01*
X161969600Y-65959600D01*
X145965400Y-65959600D01*
X145674560Y-66017452D01*
X145427999Y-66182199D01*
X145078454Y-66531744D01*
X145026691Y-66510250D01*
X144455813Y-66509752D01*
X143928200Y-66727757D01*
X143524176Y-67131077D01*
X143490187Y-67212931D01*
X143457243Y-67133200D01*
X143053923Y-66729176D01*
X142526691Y-66510250D01*
X141955813Y-66509752D01*
X141428200Y-66727757D01*
X141024176Y-67131077D01*
X140805250Y-67658309D01*
X140804752Y-68229187D01*
X141022757Y-68756800D01*
X141426077Y-69160824D01*
X141576166Y-69223146D01*
X141468200Y-69267757D01*
X141064176Y-69671077D01*
X140845250Y-70198309D01*
X140844752Y-70769187D01*
X141062757Y-71296800D01*
X141466077Y-71700824D01*
X141993309Y-71919750D01*
X142564187Y-71920248D01*
X143091800Y-71702243D01*
X143495824Y-71298923D01*
X143529813Y-71217069D01*
X143562757Y-71296800D01*
X143966077Y-71700824D01*
X144493309Y-71919750D01*
X145064187Y-71920248D01*
X145591800Y-71702243D01*
X145995824Y-71298923D01*
X146214750Y-70771691D01*
X146215248Y-70200813D01*
X145997243Y-69673200D01*
X145593923Y-69269176D01*
X145443834Y-69206854D01*
X145551800Y-69162243D01*
X145955824Y-68758923D01*
X146174750Y-68231691D01*
X146175248Y-67660813D01*
X146152951Y-67606851D01*
X146280202Y-67479600D01*
X150217560Y-67479600D01*
X150217560Y-68845000D01*
X150261838Y-69080317D01*
X150400910Y-69296441D01*
X150613110Y-69441431D01*
X150865000Y-69492440D01*
X151505981Y-69492440D01*
X147680620Y-73317800D01*
X147373936Y-73317800D01*
X147384768Y-73291713D01*
X147385231Y-72760617D01*
X147182418Y-72269771D01*
X146807204Y-71893902D01*
X146316713Y-71690232D01*
X145785617Y-71689769D01*
X145294771Y-71892582D01*
X144918902Y-72267796D01*
X144715232Y-72758287D01*
X144714769Y-73289383D01*
X144726511Y-73317800D01*
X142272912Y-73317800D01*
X142331154Y-73025000D01*
X142229533Y-72514118D01*
X141940142Y-72081012D01*
X141507036Y-71791621D01*
X140996154Y-71690000D01*
X140943846Y-71690000D01*
X140432964Y-71791621D01*
X139999858Y-72081012D01*
X139710467Y-72514118D01*
X139687397Y-72630100D01*
X114677996Y-72630100D01*
X114796098Y-72512204D01*
X114999768Y-72021713D01*
X115000231Y-71490617D01*
X114797418Y-70999771D01*
X114422204Y-70623902D01*
X113931713Y-70420232D01*
X113400617Y-70419769D01*
X112909771Y-70622582D01*
X112533902Y-70997796D01*
X112330232Y-71488287D01*
X112329769Y-72019383D01*
X112532582Y-72510229D01*
X112652244Y-72630100D01*
X111502996Y-72630100D01*
X111621098Y-72512204D01*
X111824768Y-72021713D01*
X111825231Y-71490617D01*
X111622418Y-70999771D01*
X111247204Y-70623902D01*
X110756713Y-70420232D01*
X110225617Y-70419769D01*
X109734771Y-70622582D01*
X109358902Y-70997796D01*
X109155232Y-71488287D01*
X109154988Y-71767722D01*
X109128855Y-71793855D01*
X108986468Y-72006953D01*
X106104217Y-74889203D01*
X105854147Y-74514946D01*
X105513447Y-74287298D01*
X105656358Y-74220183D01*
X106046645Y-73791924D01*
X106216476Y-73381890D01*
X106095155Y-73152000D01*
X104902000Y-73152000D01*
X104902000Y-73172000D01*
X104648000Y-73172000D01*
X104648000Y-73152000D01*
X103454845Y-73152000D01*
X103333524Y-73381890D01*
X103503355Y-73791924D01*
X103893642Y-74220183D01*
X104036553Y-74287298D01*
X103695853Y-74514946D01*
X103373946Y-74996715D01*
X103260907Y-75565000D01*
X103344987Y-75987697D01*
X100564698Y-73207408D01*
X100595000Y-73055072D01*
X100595000Y-72994928D01*
X100478155Y-72407509D01*
X100197163Y-71986974D01*
X100411441Y-71849090D01*
X100556431Y-71636890D01*
X100607440Y-71385000D01*
X100607440Y-69635000D01*
X103277560Y-69635000D01*
X103277560Y-71335000D01*
X103321838Y-71570317D01*
X103460910Y-71786441D01*
X103673110Y-71931431D01*
X103781107Y-71953301D01*
X103503355Y-72258076D01*
X103333524Y-72668110D01*
X103454845Y-72898000D01*
X104648000Y-72898000D01*
X104648000Y-72878000D01*
X104902000Y-72878000D01*
X104902000Y-72898000D01*
X106095155Y-72898000D01*
X106216476Y-72668110D01*
X106046645Y-72258076D01*
X105770499Y-71955063D01*
X105860317Y-71938162D01*
X106076441Y-71799090D01*
X106221431Y-71586890D01*
X106272440Y-71335000D01*
X106272440Y-69635000D01*
X106228162Y-69399683D01*
X106089090Y-69183559D01*
X105876890Y-69038569D01*
X105625000Y-68987560D01*
X103925000Y-68987560D01*
X103689683Y-69031838D01*
X103473559Y-69170910D01*
X103328569Y-69383110D01*
X103277560Y-69635000D01*
X100607440Y-69635000D01*
X100607440Y-69585000D01*
X100563162Y-69349683D01*
X100424090Y-69133559D01*
X100211890Y-68988569D01*
X99960000Y-68937560D01*
X98160000Y-68937560D01*
X97924683Y-68981838D01*
X97708559Y-69120910D01*
X97563569Y-69333110D01*
X97512560Y-69585000D01*
X97512560Y-70155270D01*
X95614728Y-68257438D01*
X95615284Y-67621205D01*
X95366894Y-67020057D01*
X94996332Y-66648846D01*
X109155000Y-66648846D01*
X109155000Y-66701154D01*
X109256621Y-67212036D01*
X109546012Y-67645142D01*
X109979118Y-67934533D01*
X110490000Y-68036154D01*
X111000882Y-67934533D01*
X111433988Y-67645142D01*
X111723379Y-67212036D01*
X111825000Y-66701154D01*
X111825000Y-66648846D01*
X112330000Y-66648846D01*
X112330000Y-66701154D01*
X112431621Y-67212036D01*
X112721012Y-67645142D01*
X113154118Y-67934533D01*
X113665000Y-68036154D01*
X114175882Y-67934533D01*
X114608988Y-67645142D01*
X114898379Y-67212036D01*
X115000000Y-66701154D01*
X115000000Y-66648846D01*
X114898379Y-66137964D01*
X114608988Y-65704858D01*
X114175882Y-65415467D01*
X113665000Y-65313846D01*
X113154118Y-65415467D01*
X112721012Y-65704858D01*
X112431621Y-66137964D01*
X112330000Y-66648846D01*
X111825000Y-66648846D01*
X111723379Y-66137964D01*
X111433988Y-65704858D01*
X111000882Y-65415467D01*
X110490000Y-65313846D01*
X109979118Y-65415467D01*
X109546012Y-65704858D01*
X109256621Y-66137964D01*
X109155000Y-66648846D01*
X94996332Y-66648846D01*
X94907363Y-66559722D01*
X94306648Y-66310284D01*
X93656205Y-66309716D01*
X93055057Y-66558106D01*
X92594722Y-67017637D01*
X92345284Y-67618352D01*
X92344716Y-68268795D01*
X92593106Y-68869943D01*
X93052637Y-69330278D01*
X93653352Y-69579716D01*
X94292985Y-69580275D01*
X97555302Y-72842592D01*
X97525000Y-72994928D01*
X97525000Y-73055072D01*
X97641845Y-73642491D01*
X97974591Y-74140481D01*
X98205845Y-74295000D01*
X97974591Y-74449519D01*
X97641845Y-74947509D01*
X97525000Y-75534928D01*
X97525000Y-75595072D01*
X97555302Y-75747408D01*
X97128855Y-76173855D01*
X96926173Y-76477191D01*
X96855000Y-76835000D01*
X96855000Y-78459621D01*
X96685799Y-78389362D01*
X96313833Y-78389038D01*
X95970057Y-78531083D01*
X95936882Y-78564200D01*
X94030800Y-78564200D01*
X93739961Y-78622052D01*
X93658145Y-78676720D01*
X93493398Y-78786799D01*
X91895131Y-80385067D01*
X91757159Y-80327776D01*
X91125612Y-80327225D01*
X90541928Y-80568398D01*
X90094968Y-81014579D01*
X89852776Y-81597841D01*
X89852225Y-82229388D01*
X90093398Y-82813072D01*
X90539579Y-83260032D01*
X91122841Y-83502224D01*
X91754388Y-83502775D01*
X92338072Y-83261602D01*
X92785032Y-82815421D01*
X93027224Y-82232159D01*
X93027775Y-81600612D01*
X92969713Y-81460090D01*
X94345603Y-80084200D01*
X95936537Y-80084200D01*
X95968673Y-80116392D01*
X96312201Y-80259038D01*
X96684167Y-80259362D01*
X96855000Y-80188775D01*
X96855000Y-85407040D01*
X96658902Y-85602796D01*
X96455232Y-86093287D01*
X96454769Y-86624383D01*
X96657582Y-87115229D01*
X97032796Y-87491098D01*
X97389943Y-87639399D01*
X96987337Y-87833236D01*
X96640203Y-88221604D01*
X96497284Y-88566671D01*
X96620626Y-88773000D01*
X97663000Y-88773000D01*
X97663000Y-88753000D01*
X97917000Y-88753000D01*
X97917000Y-88773000D01*
X97937000Y-88773000D01*
X97937000Y-89027000D01*
X97917000Y-89027000D01*
X97917000Y-89047000D01*
X97663000Y-89047000D01*
X97663000Y-89027000D01*
X96620626Y-89027000D01*
X96508241Y-89215000D01*
X94301366Y-89215000D01*
X94050000Y-89165000D01*
X93692191Y-89236173D01*
X93388855Y-89438855D01*
X87069712Y-95757998D01*
X87045156Y-95757998D01*
X87166476Y-95528110D01*
X86996645Y-95118076D01*
X86606358Y-94689817D01*
X86463447Y-94622702D01*
X86804147Y-94395054D01*
X87126054Y-93913285D01*
X87239093Y-93345000D01*
X87126054Y-92776715D01*
X86804147Y-92294946D01*
X86322378Y-91973039D01*
X85754093Y-91860000D01*
X85695907Y-91860000D01*
X85127622Y-91973039D01*
X84645853Y-92294946D01*
X84323946Y-92776715D01*
X84210907Y-93345000D01*
X84323946Y-93913285D01*
X84645853Y-94395054D01*
X84986553Y-94622702D01*
X84843642Y-94689817D01*
X84453355Y-95118076D01*
X84283524Y-95528110D01*
X84404845Y-95758000D01*
X85598000Y-95758000D01*
X85598000Y-95738000D01*
X85852000Y-95738000D01*
X85852000Y-95758000D01*
X85872000Y-95758000D01*
X85872000Y-96012000D01*
X85852000Y-96012000D01*
X85852000Y-96032000D01*
X85598000Y-96032000D01*
X85598000Y-96012000D01*
X84404845Y-96012000D01*
X84283524Y-96241890D01*
X84453355Y-96651924D01*
X84729501Y-96954937D01*
X84639683Y-96971838D01*
X84423559Y-97110910D01*
X84278569Y-97323110D01*
X84227560Y-97575000D01*
X84227560Y-99275000D01*
X84271838Y-99510317D01*
X84410910Y-99726441D01*
X84494295Y-99783415D01*
X81634855Y-102642855D01*
X81432173Y-102946191D01*
X81361000Y-103304000D01*
X81361000Y-119161000D01*
X81432173Y-119518809D01*
X81634855Y-119822145D01*
X81938191Y-120024827D01*
X82013157Y-120039739D01*
X85754206Y-123780787D01*
X85754208Y-123780790D01*
X86041323Y-123972633D01*
X86049156Y-123974191D01*
X86379998Y-124040001D01*
X86380003Y-124040000D01*
X94903634Y-124040000D01*
X95155000Y-124090000D01*
X95512809Y-124018827D01*
X95816145Y-123816145D01*
X95865436Y-123766854D01*
X95890910Y-123806441D01*
X96103110Y-123951431D01*
X96341201Y-123999646D01*
X96326861Y-124047255D01*
X97155000Y-124875395D01*
X97983139Y-124047255D01*
X97968855Y-123999833D01*
X98190317Y-123958162D01*
X98406441Y-123819090D01*
X98431230Y-123782810D01*
X99219207Y-124570786D01*
X99219209Y-124570789D01*
X99506324Y-124762632D01*
X99844999Y-124829999D01*
X100983130Y-124829999D01*
X101065626Y-124968000D01*
X102108000Y-124968000D01*
X102108000Y-124948000D01*
X102362000Y-124948000D01*
X102362000Y-124968000D01*
X103404374Y-124968000D01*
X103486870Y-124829999D01*
X105980231Y-124829999D01*
X105979769Y-125359383D01*
X106182582Y-125850229D01*
X106557796Y-126226098D01*
X106711689Y-126290000D01*
X102771313Y-126290000D01*
X103037663Y-126161764D01*
X103384797Y-125773396D01*
X103527716Y-125428329D01*
X103404374Y-125222000D01*
X102362000Y-125222000D01*
X102362000Y-125242000D01*
X102108000Y-125242000D01*
X102108000Y-125222000D01*
X101065626Y-125222000D01*
X100942284Y-125428329D01*
X101085203Y-125773396D01*
X101432337Y-126161764D01*
X101698687Y-126290000D01*
X97914687Y-126290000D01*
X97983139Y-126062745D01*
X97155000Y-125234605D01*
X96326861Y-126062745D01*
X96395313Y-126290000D01*
X78180000Y-126290000D01*
X78180000Y-124838223D01*
X95708035Y-124838223D01*
X95735222Y-125408454D01*
X95901136Y-125809005D01*
X96147255Y-125883139D01*
X96975395Y-125055000D01*
X97334605Y-125055000D01*
X98162745Y-125883139D01*
X98408864Y-125809005D01*
X98601965Y-125271777D01*
X98574778Y-124701546D01*
X98408864Y-124300995D01*
X98162745Y-124226861D01*
X97334605Y-125055000D01*
X96975395Y-125055000D01*
X96147255Y-124226861D01*
X95901136Y-124300995D01*
X95708035Y-124838223D01*
X78180000Y-124838223D01*
X78180000Y-86042500D01*
X89840060Y-86042500D01*
X89840060Y-87947500D01*
X89884338Y-88182817D01*
X90023410Y-88398941D01*
X90235610Y-88543931D01*
X90487500Y-88594940D01*
X92392500Y-88594940D01*
X92627817Y-88550662D01*
X92843941Y-88411590D01*
X92988931Y-88199390D01*
X93039940Y-87947500D01*
X93039940Y-86042500D01*
X92995662Y-85807183D01*
X92856590Y-85591059D01*
X92644390Y-85446069D01*
X92392500Y-85395060D01*
X90487500Y-85395060D01*
X90252183Y-85439338D01*
X90036059Y-85578410D01*
X89891069Y-85790610D01*
X89840060Y-86042500D01*
X78180000Y-86042500D01*
X78180000Y-77222060D01*
X83572545Y-77222060D01*
X83655884Y-77475953D01*
X84220306Y-77681590D01*
X84820458Y-77655579D01*
X85254116Y-77475953D01*
X85337455Y-77222060D01*
X84455000Y-76339605D01*
X83572545Y-77222060D01*
X78180000Y-77222060D01*
X78180000Y-72785000D01*
X82932560Y-72785000D01*
X82932560Y-74535000D01*
X82976838Y-74770317D01*
X83115910Y-74986441D01*
X83317226Y-75123994D01*
X83278306Y-75162914D01*
X83392938Y-75277546D01*
X83139047Y-75360884D01*
X82933410Y-75925306D01*
X82959421Y-76525458D01*
X83139047Y-76959116D01*
X83392940Y-77042455D01*
X84275395Y-76160000D01*
X84261253Y-76145858D01*
X84440858Y-75966253D01*
X84455000Y-75980395D01*
X84469143Y-75966253D01*
X84648748Y-76145858D01*
X84634605Y-76160000D01*
X85517060Y-77042455D01*
X85770953Y-76959116D01*
X85976590Y-76394694D01*
X85950579Y-75794542D01*
X85770953Y-75360884D01*
X85517062Y-75277546D01*
X85631694Y-75162914D01*
X85590644Y-75121864D01*
X85781441Y-74999090D01*
X85926431Y-74786890D01*
X85975415Y-74545000D01*
X88355221Y-74545000D01*
X88484946Y-74739147D01*
X88966715Y-75061054D01*
X89535000Y-75174093D01*
X90103285Y-75061054D01*
X90585054Y-74739147D01*
X90805000Y-74409974D01*
X91024946Y-74739147D01*
X91506715Y-75061054D01*
X92075000Y-75174093D01*
X92643285Y-75061054D01*
X93125054Y-74739147D01*
X93152850Y-74697548D01*
X93161838Y-74745317D01*
X93300910Y-74961441D01*
X93513110Y-75106431D01*
X93765000Y-75157440D01*
X95465000Y-75157440D01*
X95700317Y-75113162D01*
X95916441Y-74974090D01*
X96061431Y-74761890D01*
X96112440Y-74510000D01*
X96112440Y-72810000D01*
X96068162Y-72574683D01*
X95929090Y-72358559D01*
X95716890Y-72213569D01*
X95465000Y-72162560D01*
X93765000Y-72162560D01*
X93529683Y-72206838D01*
X93313559Y-72345910D01*
X93168569Y-72558110D01*
X93154914Y-72625541D01*
X93125054Y-72580853D01*
X92643285Y-72258946D01*
X92075000Y-72145907D01*
X91915019Y-72177729D01*
X89835000Y-70097710D01*
X89835000Y-69311855D01*
X90285278Y-68862363D01*
X90534716Y-68261648D01*
X90535284Y-67611205D01*
X90286894Y-67010057D01*
X89827363Y-66549722D01*
X89226648Y-66300284D01*
X88576205Y-66299716D01*
X87975057Y-66548106D01*
X87514722Y-67007637D01*
X87265284Y-67608352D01*
X87264716Y-68258795D01*
X87513106Y-68859943D01*
X87965000Y-69312628D01*
X87965000Y-70485000D01*
X88036173Y-70842809D01*
X88238855Y-71146145D01*
X89287790Y-72195080D01*
X88966715Y-72258946D01*
X88484946Y-72580853D01*
X88355221Y-72775000D01*
X85975558Y-72775000D01*
X85933162Y-72549683D01*
X85794090Y-72333559D01*
X85581890Y-72188569D01*
X85330000Y-72137560D01*
X83580000Y-72137560D01*
X83344683Y-72181838D01*
X83128559Y-72320910D01*
X82983569Y-72533110D01*
X82932560Y-72785000D01*
X78180000Y-72785000D01*
X78180000Y-64210000D01*
X173280000Y-64210000D01*
X173280000Y-94273198D01*
X173280000Y-94273198D01*
G37*
X173280000Y-94273198D02*
X172624360Y-93617558D01*
X172851054Y-93278285D01*
X172964093Y-92710000D01*
X172851054Y-92141715D01*
X172529147Y-91659946D01*
X172487548Y-91632150D01*
X172535317Y-91623162D01*
X172751441Y-91484090D01*
X172896431Y-91271890D01*
X172947440Y-91020000D01*
X172947440Y-89320000D01*
X172903162Y-89084683D01*
X172764090Y-88868559D01*
X172551890Y-88723569D01*
X172300000Y-88672560D01*
X170600000Y-88672560D01*
X170364683Y-88716838D01*
X170148559Y-88855910D01*
X170003569Y-89068110D01*
X169959648Y-89285000D01*
X168911315Y-89285000D01*
X168932716Y-89233329D01*
X168809374Y-89027000D01*
X167767000Y-89027000D01*
X167767000Y-89047000D01*
X167513000Y-89047000D01*
X167513000Y-89027000D01*
X166470626Y-89027000D01*
X166347284Y-89233329D01*
X166368685Y-89285000D01*
X163845651Y-89285000D01*
X163894768Y-89166713D01*
X163895231Y-88635617D01*
X163866744Y-88566671D01*
X166347284Y-88566671D01*
X166470626Y-88773000D01*
X167513000Y-88773000D01*
X167513000Y-87729794D01*
X167767000Y-87729794D01*
X167767000Y-88773000D01*
X168809374Y-88773000D01*
X168932716Y-88566671D01*
X168789797Y-88221604D01*
X168442663Y-87833236D01*
X167973331Y-87607273D01*
X167767000Y-87729794D01*
X167513000Y-87729794D01*
X167306669Y-87607273D01*
X166837337Y-87833236D01*
X166490203Y-88221604D01*
X166347284Y-88566671D01*
X163866744Y-88566671D01*
X163692418Y-88144771D01*
X163317204Y-87768902D01*
X162826713Y-87565232D01*
X162295617Y-87564769D01*
X161804771Y-87767582D01*
X161428902Y-88142796D01*
X161225232Y-88633287D01*
X161224769Y-89164383D01*
X161274607Y-89285000D01*
X158273258Y-89285000D01*
X158467828Y-89154992D01*
X158770660Y-88701773D01*
X158877000Y-88167164D01*
X158877000Y-87092836D01*
X158770660Y-86558227D01*
X158467828Y-86105008D01*
X158014609Y-85802176D01*
X157480000Y-85695836D01*
X156945391Y-85802176D01*
X156492172Y-86105008D01*
X156210000Y-86527307D01*
X155927828Y-86105008D01*
X155474609Y-85802176D01*
X154940000Y-85695836D01*
X154405391Y-85802176D01*
X153952172Y-86105008D01*
X153670000Y-86527307D01*
X153387828Y-86105008D01*
X152934609Y-85802176D01*
X152400000Y-85695836D01*
X151865391Y-85802176D01*
X151645310Y-85949230D01*
X149724773Y-84028693D01*
X149821041Y-83922423D01*
X149981904Y-83534039D01*
X149859915Y-83312000D01*
X148717000Y-83312000D01*
X148717000Y-83332000D01*
X148463000Y-83332000D01*
X148463000Y-83312000D01*
X147320085Y-83312000D01*
X147198096Y-83534039D01*
X147214854Y-83574500D01*
X146124882Y-83574500D01*
X146186965Y-83401777D01*
X146159778Y-82831546D01*
X145993864Y-82430995D01*
X145747745Y-82356861D01*
X144919605Y-83185000D01*
X144933748Y-83199143D01*
X144754143Y-83378748D01*
X144740000Y-83364605D01*
X144725858Y-83378748D01*
X144546253Y-83199143D01*
X144560395Y-83185000D01*
X144546253Y-83170858D01*
X144725858Y-82991252D01*
X144740000Y-83005395D01*
X145568139Y-82177255D01*
X145494005Y-81931136D01*
X144956777Y-81738035D01*
X144491985Y-81760195D01*
X144898393Y-81353787D01*
X144917582Y-81400229D01*
X145292796Y-81776098D01*
X145783287Y-81979768D01*
X146314383Y-81980231D01*
X146805229Y-81777418D01*
X147113828Y-81469357D01*
X147418700Y-81530000D01*
X147460527Y-81530000D01*
X147547189Y-81659698D01*
X147951703Y-81929986D01*
X147734866Y-82032611D01*
X147358959Y-82447577D01*
X147198096Y-82835961D01*
X147320085Y-83058000D01*
X148463000Y-83058000D01*
X148463000Y-83038000D01*
X148717000Y-83038000D01*
X148717000Y-83058000D01*
X149859915Y-83058000D01*
X149981904Y-82835961D01*
X149821041Y-82447577D01*
X149445134Y-82032611D01*
X149228297Y-81929986D01*
X149632811Y-81659698D01*
X149943880Y-81194151D01*
X150053113Y-80645000D01*
X149980450Y-80279700D01*
X154819550Y-80279700D01*
X154746887Y-80645000D01*
X154856120Y-81194151D01*
X155167189Y-81659698D01*
X155549275Y-81915000D01*
X155167189Y-82170302D01*
X154856120Y-82635849D01*
X154746887Y-83185000D01*
X154856120Y-83734151D01*
X155167189Y-84199698D01*
X155632736Y-84510767D01*
X156181887Y-84620000D01*
X156238113Y-84620000D01*
X156787264Y-84510767D01*
X157252811Y-84199698D01*
X157563880Y-83734151D01*
X157603684Y-83534039D01*
X159263096Y-83534039D01*
X159423959Y-83922423D01*
X159799866Y-84337389D01*
X160305959Y-84576914D01*
X160528000Y-84455629D01*
X160528000Y-83312000D01*
X160782000Y-83312000D01*
X160782000Y-84455629D01*
X161004041Y-84576914D01*
X161510134Y-84337389D01*
X161886041Y-83922423D01*
X162046904Y-83534039D01*
X161924915Y-83312000D01*
X160782000Y-83312000D01*
X160528000Y-83312000D01*
X159385085Y-83312000D01*
X159263096Y-83534039D01*
X157603684Y-83534039D01*
X157673113Y-83185000D01*
X157563880Y-82635849D01*
X157252811Y-82170302D01*
X156870725Y-81915000D01*
X157252811Y-81659698D01*
X157563880Y-81194151D01*
X157673113Y-80645000D01*
X157600450Y-80279700D01*
X158089598Y-80279700D01*
X158992299Y-81182401D01*
X159238861Y-81347148D01*
X159428563Y-81384882D01*
X159612189Y-81659698D01*
X160016703Y-81929986D01*
X159799866Y-82032611D01*
X159423959Y-82447577D01*
X159263096Y-82835961D01*
X159385085Y-83058000D01*
X160528000Y-83058000D01*
X160528000Y-83038000D01*
X160782000Y-83038000D01*
X160782000Y-83058000D01*
X161924915Y-83058000D01*
X162046904Y-82835961D01*
X161886041Y-82447577D01*
X161510134Y-82032611D01*
X161293297Y-81929986D01*
X161697811Y-81659698D01*
X162008880Y-81194151D01*
X162118113Y-80645000D01*
X162008880Y-80095849D01*
X161697811Y-79630302D01*
X161315725Y-79375000D01*
X161697811Y-79119698D01*
X162008880Y-78654151D01*
X162118113Y-78105000D01*
X162008880Y-77555849D01*
X161697811Y-77090302D01*
X161553535Y-76993899D01*
X161690317Y-76968162D01*
X161906441Y-76829090D01*
X162051431Y-76616890D01*
X162102440Y-76365000D01*
X162102440Y-74765000D01*
X162058162Y-74529683D01*
X161919090Y-74313559D01*
X161706890Y-74168569D01*
X161455000Y-74117560D01*
X159855000Y-74117560D01*
X159619683Y-74161838D01*
X159403559Y-74300910D01*
X159258569Y-74513110D01*
X159207560Y-74765000D01*
X159207560Y-76365000D01*
X159251838Y-76600317D01*
X159390910Y-76816441D01*
X159603110Y-76961431D01*
X159758089Y-76992815D01*
X159612189Y-77090302D01*
X159603223Y-77103721D01*
X158941801Y-76442299D01*
X158695239Y-76277552D01*
X158404400Y-76219700D01*
X157493354Y-76219700D01*
X157563880Y-76114151D01*
X157673113Y-75565000D01*
X157563880Y-75015849D01*
X157252811Y-74550302D01*
X156787264Y-74239233D01*
X156238113Y-74130000D01*
X156181887Y-74130000D01*
X155632736Y-74239233D01*
X155167189Y-74550302D01*
X154856120Y-75015849D01*
X154746887Y-75565000D01*
X154856120Y-76114151D01*
X154926646Y-76219700D01*
X150037440Y-76219700D01*
X150037440Y-74765000D01*
X149993162Y-74529683D01*
X149854090Y-74313559D01*
X149641890Y-74168569D01*
X149390000Y-74117560D01*
X149384020Y-74117560D01*
X150778250Y-72723329D01*
X160632284Y-72723329D01*
X160775203Y-73068396D01*
X161122337Y-73456764D01*
X161591669Y-73682727D01*
X161798000Y-73560206D01*
X161798000Y-72517000D01*
X160755626Y-72517000D01*
X160632284Y-72723329D01*
X150778250Y-72723329D01*
X154021826Y-69479753D01*
X154588668Y-69480247D01*
X156567408Y-71458987D01*
X156567410Y-71458990D01*
X156734024Y-71570317D01*
X156854526Y-71650834D01*
X157193200Y-71718201D01*
X157193205Y-71718200D01*
X160772471Y-71718200D01*
X160632284Y-72056671D01*
X160755626Y-72263000D01*
X161798000Y-72263000D01*
X161798000Y-72243000D01*
X162052000Y-72243000D01*
X162052000Y-72263000D01*
X162072000Y-72263000D01*
X162072000Y-72517000D01*
X162052000Y-72517000D01*
X162052000Y-73560206D01*
X162258331Y-73682727D01*
X162727663Y-73456764D01*
X163074797Y-73068396D01*
X163133876Y-72925755D01*
X166398908Y-76190787D01*
X166398910Y-76190790D01*
X166686025Y-76382633D01*
X166742216Y-76393810D01*
X167024700Y-76450001D01*
X167024705Y-76450000D01*
X167145527Y-76450000D01*
X167232189Y-76579698D01*
X167614275Y-76835000D01*
X167232189Y-77090302D01*
X166921120Y-77555849D01*
X166811887Y-78105000D01*
X166921120Y-78654151D01*
X167232189Y-79119698D01*
X167614275Y-79375000D01*
X167232189Y-79630302D01*
X166921120Y-80095849D01*
X166811887Y-80645000D01*
X166921120Y-81194151D01*
X167232189Y-81659698D01*
X167614275Y-81915000D01*
X167232189Y-82170302D01*
X166921120Y-82635849D01*
X166811887Y-83185000D01*
X166921120Y-83734151D01*
X167232189Y-84199698D01*
X167697736Y-84510767D01*
X168246887Y-84620000D01*
X168303113Y-84620000D01*
X168852264Y-84510767D01*
X169317811Y-84199698D01*
X169628880Y-83734151D01*
X169738113Y-83185000D01*
X169628880Y-82635849D01*
X169317811Y-82170302D01*
X168935725Y-81915000D01*
X169317811Y-81659698D01*
X169628880Y-81194151D01*
X169738113Y-80645000D01*
X169628880Y-80095849D01*
X169317811Y-79630302D01*
X168935725Y-79375000D01*
X169317811Y-79119698D01*
X169628880Y-78654151D01*
X169738113Y-78105000D01*
X169628880Y-77555849D01*
X169317811Y-77090302D01*
X168935725Y-76835000D01*
X169317811Y-76579698D01*
X169628880Y-76114151D01*
X169738113Y-75565000D01*
X169628880Y-75015849D01*
X169317811Y-74550302D01*
X168852264Y-74239233D01*
X168303113Y-74130000D01*
X168246887Y-74130000D01*
X167697736Y-74239233D01*
X167249808Y-74538529D01*
X162918690Y-70207410D01*
X162798633Y-70127191D01*
X162631575Y-70015567D01*
X162575384Y-70004390D01*
X162292900Y-69948199D01*
X162292895Y-69948200D01*
X157559779Y-69948200D01*
X155839753Y-68228174D01*
X155840265Y-67641009D01*
X155773572Y-67479600D01*
X159107560Y-67479600D01*
X159107560Y-68845000D01*
X159151838Y-69080317D01*
X159290910Y-69296441D01*
X159503110Y-69441431D01*
X159755000Y-69492440D01*
X161555000Y-69492440D01*
X161790317Y-69448162D01*
X162006441Y-69309090D01*
X162151431Y-69096890D01*
X162155567Y-69076466D01*
X162324357Y-69245551D01*
X162888330Y-69479733D01*
X163020046Y-69479848D01*
X165670226Y-72130028D01*
X165669769Y-72654383D01*
X165872582Y-73145229D01*
X166247796Y-73521098D01*
X166738287Y-73724768D01*
X167269383Y-73725231D01*
X167760229Y-73522418D01*
X168136098Y-73147204D01*
X168339768Y-72656713D01*
X168340231Y-72125617D01*
X168137418Y-71634771D01*
X167762204Y-71258902D01*
X167271713Y-71055232D01*
X166744574Y-71054772D01*
X164498454Y-68808652D01*
X164729733Y-68251670D01*
X164730265Y-67641009D01*
X164497068Y-67076629D01*
X164065643Y-66644449D01*
X163501670Y-66410267D01*
X162891009Y-66409735D01*
X162780287Y-66455485D01*
X162507001Y-66182199D01*
X162260439Y-66017452D01*
X161969600Y-65959600D01*
X145965400Y-65959600D01*
X145674560Y-66017452D01*
X145427999Y-66182199D01*
X145078454Y-66531744D01*
X145026691Y-66510250D01*
X144455813Y-66509752D01*
X143928200Y-66727757D01*
X143524176Y-67131077D01*
X143490187Y-67212931D01*
X143457243Y-67133200D01*
X143053923Y-66729176D01*
X142526691Y-66510250D01*
X141955813Y-66509752D01*
X141428200Y-66727757D01*
X141024176Y-67131077D01*
X140805250Y-67658309D01*
X140804752Y-68229187D01*
X141022757Y-68756800D01*
X141426077Y-69160824D01*
X141576166Y-69223146D01*
X141468200Y-69267757D01*
X141064176Y-69671077D01*
X140845250Y-70198309D01*
X140844752Y-70769187D01*
X141062757Y-71296800D01*
X141466077Y-71700824D01*
X141993309Y-71919750D01*
X142564187Y-71920248D01*
X143091800Y-71702243D01*
X143495824Y-71298923D01*
X143529813Y-71217069D01*
X143562757Y-71296800D01*
X143966077Y-71700824D01*
X144493309Y-71919750D01*
X145064187Y-71920248D01*
X145591800Y-71702243D01*
X145995824Y-71298923D01*
X146214750Y-70771691D01*
X146215248Y-70200813D01*
X145997243Y-69673200D01*
X145593923Y-69269176D01*
X145443834Y-69206854D01*
X145551800Y-69162243D01*
X145955824Y-68758923D01*
X146174750Y-68231691D01*
X146175248Y-67660813D01*
X146152951Y-67606851D01*
X146280202Y-67479600D01*
X150217560Y-67479600D01*
X150217560Y-68845000D01*
X150261838Y-69080317D01*
X150400910Y-69296441D01*
X150613110Y-69441431D01*
X150865000Y-69492440D01*
X151505981Y-69492440D01*
X147680620Y-73317800D01*
X147373936Y-73317800D01*
X147384768Y-73291713D01*
X147385231Y-72760617D01*
X147182418Y-72269771D01*
X146807204Y-71893902D01*
X146316713Y-71690232D01*
X145785617Y-71689769D01*
X145294771Y-71892582D01*
X144918902Y-72267796D01*
X144715232Y-72758287D01*
X144714769Y-73289383D01*
X144726511Y-73317800D01*
X142272912Y-73317800D01*
X142331154Y-73025000D01*
X142229533Y-72514118D01*
X141940142Y-72081012D01*
X141507036Y-71791621D01*
X140996154Y-71690000D01*
X140943846Y-71690000D01*
X140432964Y-71791621D01*
X139999858Y-72081012D01*
X139710467Y-72514118D01*
X139687397Y-72630100D01*
X114677996Y-72630100D01*
X114796098Y-72512204D01*
X114999768Y-72021713D01*
X115000231Y-71490617D01*
X114797418Y-70999771D01*
X114422204Y-70623902D01*
X113931713Y-70420232D01*
X113400617Y-70419769D01*
X112909771Y-70622582D01*
X112533902Y-70997796D01*
X112330232Y-71488287D01*
X112329769Y-72019383D01*
X112532582Y-72510229D01*
X112652244Y-72630100D01*
X111502996Y-72630100D01*
X111621098Y-72512204D01*
X111824768Y-72021713D01*
X111825231Y-71490617D01*
X111622418Y-70999771D01*
X111247204Y-70623902D01*
X110756713Y-70420232D01*
X110225617Y-70419769D01*
X109734771Y-70622582D01*
X109358902Y-70997796D01*
X109155232Y-71488287D01*
X109154988Y-71767722D01*
X109128855Y-71793855D01*
X108986468Y-72006953D01*
X106104217Y-74889203D01*
X105854147Y-74514946D01*
X105513447Y-74287298D01*
X105656358Y-74220183D01*
X106046645Y-73791924D01*
X106216476Y-73381890D01*
X106095155Y-73152000D01*
X104902000Y-73152000D01*
X104902000Y-73172000D01*
X104648000Y-73172000D01*
X104648000Y-73152000D01*
X103454845Y-73152000D01*
X103333524Y-73381890D01*
X103503355Y-73791924D01*
X103893642Y-74220183D01*
X104036553Y-74287298D01*
X103695853Y-74514946D01*
X103373946Y-74996715D01*
X103260907Y-75565000D01*
X103344987Y-75987697D01*
X100564698Y-73207408D01*
X100595000Y-73055072D01*
X100595000Y-72994928D01*
X100478155Y-72407509D01*
X100197163Y-71986974D01*
X100411441Y-71849090D01*
X100556431Y-71636890D01*
X100607440Y-71385000D01*
X100607440Y-69635000D01*
X103277560Y-69635000D01*
X103277560Y-71335000D01*
X103321838Y-71570317D01*
X103460910Y-71786441D01*
X103673110Y-71931431D01*
X103781107Y-71953301D01*
X103503355Y-72258076D01*
X103333524Y-72668110D01*
X103454845Y-72898000D01*
X104648000Y-72898000D01*
X104648000Y-72878000D01*
X104902000Y-72878000D01*
X104902000Y-72898000D01*
X106095155Y-72898000D01*
X106216476Y-72668110D01*
X106046645Y-72258076D01*
X105770499Y-71955063D01*
X105860317Y-71938162D01*
X106076441Y-71799090D01*
X106221431Y-71586890D01*
X106272440Y-71335000D01*
X106272440Y-69635000D01*
X106228162Y-69399683D01*
X106089090Y-69183559D01*
X105876890Y-69038569D01*
X105625000Y-68987560D01*
X103925000Y-68987560D01*
X103689683Y-69031838D01*
X103473559Y-69170910D01*
X103328569Y-69383110D01*
X103277560Y-69635000D01*
X100607440Y-69635000D01*
X100607440Y-69585000D01*
X100563162Y-69349683D01*
X100424090Y-69133559D01*
X100211890Y-68988569D01*
X99960000Y-68937560D01*
X98160000Y-68937560D01*
X97924683Y-68981838D01*
X97708559Y-69120910D01*
X97563569Y-69333110D01*
X97512560Y-69585000D01*
X97512560Y-70155270D01*
X95614728Y-68257438D01*
X95615284Y-67621205D01*
X95366894Y-67020057D01*
X94996332Y-66648846D01*
X109155000Y-66648846D01*
X109155000Y-66701154D01*
X109256621Y-67212036D01*
X109546012Y-67645142D01*
X109979118Y-67934533D01*
X110490000Y-68036154D01*
X111000882Y-67934533D01*
X111433988Y-67645142D01*
X111723379Y-67212036D01*
X111825000Y-66701154D01*
X111825000Y-66648846D01*
X112330000Y-66648846D01*
X112330000Y-66701154D01*
X112431621Y-67212036D01*
X112721012Y-67645142D01*
X113154118Y-67934533D01*
X113665000Y-68036154D01*
X114175882Y-67934533D01*
X114608988Y-67645142D01*
X114898379Y-67212036D01*
X115000000Y-66701154D01*
X115000000Y-66648846D01*
X114898379Y-66137964D01*
X114608988Y-65704858D01*
X114175882Y-65415467D01*
X113665000Y-65313846D01*
X113154118Y-65415467D01*
X112721012Y-65704858D01*
X112431621Y-66137964D01*
X112330000Y-66648846D01*
X111825000Y-66648846D01*
X111723379Y-66137964D01*
X111433988Y-65704858D01*
X111000882Y-65415467D01*
X110490000Y-65313846D01*
X109979118Y-65415467D01*
X109546012Y-65704858D01*
X109256621Y-66137964D01*
X109155000Y-66648846D01*
X94996332Y-66648846D01*
X94907363Y-66559722D01*
X94306648Y-66310284D01*
X93656205Y-66309716D01*
X93055057Y-66558106D01*
X92594722Y-67017637D01*
X92345284Y-67618352D01*
X92344716Y-68268795D01*
X92593106Y-68869943D01*
X93052637Y-69330278D01*
X93653352Y-69579716D01*
X94292985Y-69580275D01*
X97555302Y-72842592D01*
X97525000Y-72994928D01*
X97525000Y-73055072D01*
X97641845Y-73642491D01*
X97974591Y-74140481D01*
X98205845Y-74295000D01*
X97974591Y-74449519D01*
X97641845Y-74947509D01*
X97525000Y-75534928D01*
X97525000Y-75595072D01*
X97555302Y-75747408D01*
X97128855Y-76173855D01*
X96926173Y-76477191D01*
X96855000Y-76835000D01*
X96855000Y-78459621D01*
X96685799Y-78389362D01*
X96313833Y-78389038D01*
X95970057Y-78531083D01*
X95936882Y-78564200D01*
X94030800Y-78564200D01*
X93739961Y-78622052D01*
X93658145Y-78676720D01*
X93493398Y-78786799D01*
X91895131Y-80385067D01*
X91757159Y-80327776D01*
X91125612Y-80327225D01*
X90541928Y-80568398D01*
X90094968Y-81014579D01*
X89852776Y-81597841D01*
X89852225Y-82229388D01*
X90093398Y-82813072D01*
X90539579Y-83260032D01*
X91122841Y-83502224D01*
X91754388Y-83502775D01*
X92338072Y-83261602D01*
X92785032Y-82815421D01*
X93027224Y-82232159D01*
X93027775Y-81600612D01*
X92969713Y-81460090D01*
X94345603Y-80084200D01*
X95936537Y-80084200D01*
X95968673Y-80116392D01*
X96312201Y-80259038D01*
X96684167Y-80259362D01*
X96855000Y-80188775D01*
X96855000Y-85407040D01*
X96658902Y-85602796D01*
X96455232Y-86093287D01*
X96454769Y-86624383D01*
X96657582Y-87115229D01*
X97032796Y-87491098D01*
X97389943Y-87639399D01*
X96987337Y-87833236D01*
X96640203Y-88221604D01*
X96497284Y-88566671D01*
X96620626Y-88773000D01*
X97663000Y-88773000D01*
X97663000Y-88753000D01*
X97917000Y-88753000D01*
X97917000Y-88773000D01*
X97937000Y-88773000D01*
X97937000Y-89027000D01*
X97917000Y-89027000D01*
X97917000Y-89047000D01*
X97663000Y-89047000D01*
X97663000Y-89027000D01*
X96620626Y-89027000D01*
X96508241Y-89215000D01*
X94301366Y-89215000D01*
X94050000Y-89165000D01*
X93692191Y-89236173D01*
X93388855Y-89438855D01*
X87069712Y-95757998D01*
X87045156Y-95757998D01*
X87166476Y-95528110D01*
X86996645Y-95118076D01*
X86606358Y-94689817D01*
X86463447Y-94622702D01*
X86804147Y-94395054D01*
X87126054Y-93913285D01*
X87239093Y-93345000D01*
X87126054Y-92776715D01*
X86804147Y-92294946D01*
X86322378Y-91973039D01*
X85754093Y-91860000D01*
X85695907Y-91860000D01*
X85127622Y-91973039D01*
X84645853Y-92294946D01*
X84323946Y-92776715D01*
X84210907Y-93345000D01*
X84323946Y-93913285D01*
X84645853Y-94395054D01*
X84986553Y-94622702D01*
X84843642Y-94689817D01*
X84453355Y-95118076D01*
X84283524Y-95528110D01*
X84404845Y-95758000D01*
X85598000Y-95758000D01*
X85598000Y-95738000D01*
X85852000Y-95738000D01*
X85852000Y-95758000D01*
X85872000Y-95758000D01*
X85872000Y-96012000D01*
X85852000Y-96012000D01*
X85852000Y-96032000D01*
X85598000Y-96032000D01*
X85598000Y-96012000D01*
X84404845Y-96012000D01*
X84283524Y-96241890D01*
X84453355Y-96651924D01*
X84729501Y-96954937D01*
X84639683Y-96971838D01*
X84423559Y-97110910D01*
X84278569Y-97323110D01*
X84227560Y-97575000D01*
X84227560Y-99275000D01*
X84271838Y-99510317D01*
X84410910Y-99726441D01*
X84494295Y-99783415D01*
X81634855Y-102642855D01*
X81432173Y-102946191D01*
X81361000Y-103304000D01*
X81361000Y-119161000D01*
X81432173Y-119518809D01*
X81634855Y-119822145D01*
X81938191Y-120024827D01*
X82013157Y-120039739D01*
X85754206Y-123780787D01*
X85754208Y-123780790D01*
X86041323Y-123972633D01*
X86049156Y-123974191D01*
X86379998Y-124040001D01*
X86380003Y-124040000D01*
X94903634Y-124040000D01*
X95155000Y-124090000D01*
X95512809Y-124018827D01*
X95816145Y-123816145D01*
X95865436Y-123766854D01*
X95890910Y-123806441D01*
X96103110Y-123951431D01*
X96341201Y-123999646D01*
X96326861Y-124047255D01*
X97155000Y-124875395D01*
X97983139Y-124047255D01*
X97968855Y-123999833D01*
X98190317Y-123958162D01*
X98406441Y-123819090D01*
X98431230Y-123782810D01*
X99219207Y-124570786D01*
X99219209Y-124570789D01*
X99506324Y-124762632D01*
X99844999Y-124829999D01*
X100983130Y-124829999D01*
X101065626Y-124968000D01*
X102108000Y-124968000D01*
X102108000Y-124948000D01*
X102362000Y-124948000D01*
X102362000Y-124968000D01*
X103404374Y-124968000D01*
X103486870Y-124829999D01*
X105980231Y-124829999D01*
X105979769Y-125359383D01*
X106182582Y-125850229D01*
X106557796Y-126226098D01*
X106711689Y-126290000D01*
X102771313Y-126290000D01*
X103037663Y-126161764D01*
X103384797Y-125773396D01*
X103527716Y-125428329D01*
X103404374Y-125222000D01*
X102362000Y-125222000D01*
X102362000Y-125242000D01*
X102108000Y-125242000D01*
X102108000Y-125222000D01*
X101065626Y-125222000D01*
X100942284Y-125428329D01*
X101085203Y-125773396D01*
X101432337Y-126161764D01*
X101698687Y-126290000D01*
X97914687Y-126290000D01*
X97983139Y-126062745D01*
X97155000Y-125234605D01*
X96326861Y-126062745D01*
X96395313Y-126290000D01*
X78180000Y-126290000D01*
X78180000Y-124838223D01*
X95708035Y-124838223D01*
X95735222Y-125408454D01*
X95901136Y-125809005D01*
X96147255Y-125883139D01*
X96975395Y-125055000D01*
X97334605Y-125055000D01*
X98162745Y-125883139D01*
X98408864Y-125809005D01*
X98601965Y-125271777D01*
X98574778Y-124701546D01*
X98408864Y-124300995D01*
X98162745Y-124226861D01*
X97334605Y-125055000D01*
X96975395Y-125055000D01*
X96147255Y-124226861D01*
X95901136Y-124300995D01*
X95708035Y-124838223D01*
X78180000Y-124838223D01*
X78180000Y-86042500D01*
X89840060Y-86042500D01*
X89840060Y-87947500D01*
X89884338Y-88182817D01*
X90023410Y-88398941D01*
X90235610Y-88543931D01*
X90487500Y-88594940D01*
X92392500Y-88594940D01*
X92627817Y-88550662D01*
X92843941Y-88411590D01*
X92988931Y-88199390D01*
X93039940Y-87947500D01*
X93039940Y-86042500D01*
X92995662Y-85807183D01*
X92856590Y-85591059D01*
X92644390Y-85446069D01*
X92392500Y-85395060D01*
X90487500Y-85395060D01*
X90252183Y-85439338D01*
X90036059Y-85578410D01*
X89891069Y-85790610D01*
X89840060Y-86042500D01*
X78180000Y-86042500D01*
X78180000Y-77222060D01*
X83572545Y-77222060D01*
X83655884Y-77475953D01*
X84220306Y-77681590D01*
X84820458Y-77655579D01*
X85254116Y-77475953D01*
X85337455Y-77222060D01*
X84455000Y-76339605D01*
X83572545Y-77222060D01*
X78180000Y-77222060D01*
X78180000Y-72785000D01*
X82932560Y-72785000D01*
X82932560Y-74535000D01*
X82976838Y-74770317D01*
X83115910Y-74986441D01*
X83317226Y-75123994D01*
X83278306Y-75162914D01*
X83392938Y-75277546D01*
X83139047Y-75360884D01*
X82933410Y-75925306D01*
X82959421Y-76525458D01*
X83139047Y-76959116D01*
X83392940Y-77042455D01*
X84275395Y-76160000D01*
X84261253Y-76145858D01*
X84440858Y-75966253D01*
X84455000Y-75980395D01*
X84469143Y-75966253D01*
X84648748Y-76145858D01*
X84634605Y-76160000D01*
X85517060Y-77042455D01*
X85770953Y-76959116D01*
X85976590Y-76394694D01*
X85950579Y-75794542D01*
X85770953Y-75360884D01*
X85517062Y-75277546D01*
X85631694Y-75162914D01*
X85590644Y-75121864D01*
X85781441Y-74999090D01*
X85926431Y-74786890D01*
X85975415Y-74545000D01*
X88355221Y-74545000D01*
X88484946Y-74739147D01*
X88966715Y-75061054D01*
X89535000Y-75174093D01*
X90103285Y-75061054D01*
X90585054Y-74739147D01*
X90805000Y-74409974D01*
X91024946Y-74739147D01*
X91506715Y-75061054D01*
X92075000Y-75174093D01*
X92643285Y-75061054D01*
X93125054Y-74739147D01*
X93152850Y-74697548D01*
X93161838Y-74745317D01*
X93300910Y-74961441D01*
X93513110Y-75106431D01*
X93765000Y-75157440D01*
X95465000Y-75157440D01*
X95700317Y-75113162D01*
X95916441Y-74974090D01*
X96061431Y-74761890D01*
X96112440Y-74510000D01*
X96112440Y-72810000D01*
X96068162Y-72574683D01*
X95929090Y-72358559D01*
X95716890Y-72213569D01*
X95465000Y-72162560D01*
X93765000Y-72162560D01*
X93529683Y-72206838D01*
X93313559Y-72345910D01*
X93168569Y-72558110D01*
X93154914Y-72625541D01*
X93125054Y-72580853D01*
X92643285Y-72258946D01*
X92075000Y-72145907D01*
X91915019Y-72177729D01*
X89835000Y-70097710D01*
X89835000Y-69311855D01*
X90285278Y-68862363D01*
X90534716Y-68261648D01*
X90535284Y-67611205D01*
X90286894Y-67010057D01*
X89827363Y-66549722D01*
X89226648Y-66300284D01*
X88576205Y-66299716D01*
X87975057Y-66548106D01*
X87514722Y-67007637D01*
X87265284Y-67608352D01*
X87264716Y-68258795D01*
X87513106Y-68859943D01*
X87965000Y-69312628D01*
X87965000Y-70485000D01*
X88036173Y-70842809D01*
X88238855Y-71146145D01*
X89287790Y-72195080D01*
X88966715Y-72258946D01*
X88484946Y-72580853D01*
X88355221Y-72775000D01*
X85975558Y-72775000D01*
X85933162Y-72549683D01*
X85794090Y-72333559D01*
X85581890Y-72188569D01*
X85330000Y-72137560D01*
X83580000Y-72137560D01*
X83344683Y-72181838D01*
X83128559Y-72320910D01*
X82983569Y-72533110D01*
X82932560Y-72785000D01*
X78180000Y-72785000D01*
X78180000Y-64210000D01*
X173280000Y-64210000D01*
X173280000Y-94273198D01*
G36*
X101899858Y-87303988D02*
X102332964Y-87593379D01*
X102470274Y-87620692D01*
X102114771Y-87767582D01*
X101738902Y-88142796D01*
X101535232Y-88633287D01*
X101534769Y-89164383D01*
X101737582Y-89655229D01*
X102112796Y-90031098D01*
X102603287Y-90234768D01*
X103134383Y-90235231D01*
X103625229Y-90032418D01*
X104001098Y-89657204D01*
X104204768Y-89166713D01*
X104205231Y-88635617D01*
X104002418Y-88144771D01*
X103627204Y-87768902D01*
X103270097Y-87620618D01*
X103407036Y-87593379D01*
X103840142Y-87303988D01*
X103963078Y-87120000D01*
X104947248Y-87120000D01*
X104873957Y-87150283D01*
X104610708Y-87413073D01*
X104468062Y-87756601D01*
X104467738Y-88128567D01*
X104609783Y-88472343D01*
X104872573Y-88735592D01*
X105216101Y-88878238D01*
X105588067Y-88878562D01*
X105931843Y-88736517D01*
X105965018Y-88703400D01*
X118959982Y-88703400D01*
X118959938Y-88753867D01*
X119101983Y-89097643D01*
X119364773Y-89360892D01*
X119708301Y-89503538D01*
X120080267Y-89503862D01*
X120424043Y-89361817D01*
X120457218Y-89328700D01*
X128038098Y-89328700D01*
X129140531Y-90431133D01*
X128935899Y-90346162D01*
X128563933Y-90345838D01*
X128220157Y-90487883D01*
X128186982Y-90521000D01*
X104689300Y-90521000D01*
X104398461Y-90578852D01*
X104151899Y-90743599D01*
X103794789Y-91100709D01*
X103407036Y-90841621D01*
X102896154Y-90740000D01*
X102843846Y-90740000D01*
X102332964Y-90841621D01*
X101899858Y-91131012D01*
X101610467Y-91564118D01*
X101508846Y-92075000D01*
X101610467Y-92585882D01*
X101899858Y-93018988D01*
X102332964Y-93308379D01*
X102843846Y-93410000D01*
X102896154Y-93410000D01*
X103407036Y-93308379D01*
X103840142Y-93018988D01*
X103973468Y-92819451D01*
X104186139Y-92777148D01*
X104432701Y-92612401D01*
X105004102Y-92041000D01*
X117704198Y-92041000D01*
X105014408Y-104730790D01*
X104648000Y-104657907D01*
X104079715Y-104770946D01*
X103597946Y-105092853D01*
X103378000Y-105422026D01*
X103158054Y-105092853D01*
X102676285Y-104770946D01*
X102108000Y-104657907D01*
X101539715Y-104770946D01*
X101057946Y-105092853D01*
X100838000Y-105422026D01*
X100618054Y-105092853D01*
X100136285Y-104770946D01*
X99568000Y-104657907D01*
X98999715Y-104770946D01*
X98517946Y-105092853D01*
X98434086Y-105218358D01*
X98423184Y-105216190D01*
X98140700Y-105159999D01*
X98140695Y-105160000D01*
X95411446Y-105160000D01*
X95383162Y-105009683D01*
X95244090Y-104793559D01*
X95031890Y-104648569D01*
X94780000Y-104597560D01*
X93180000Y-104597560D01*
X92944683Y-104641838D01*
X92728559Y-104780910D01*
X92583569Y-104993110D01*
X92532560Y-105245000D01*
X92532560Y-106845000D01*
X92576838Y-107080317D01*
X92715910Y-107296441D01*
X92928110Y-107441431D01*
X93166201Y-107489646D01*
X93151861Y-107537255D01*
X93980000Y-108365395D01*
X94808139Y-107537255D01*
X94793855Y-107489833D01*
X95015317Y-107448162D01*
X95231441Y-107309090D01*
X95376431Y-107096890D01*
X95410227Y-106930000D01*
X97839777Y-106930000D01*
X97842771Y-106932000D01*
X97929025Y-106989633D01*
X98267700Y-107057001D01*
X98267705Y-107057000D01*
X98388221Y-107057000D01*
X98517946Y-107251147D01*
X98523858Y-107255097D01*
X98358301Y-107323673D01*
X98179673Y-107502302D01*
X98083000Y-107735691D01*
X98083000Y-108426250D01*
X98241750Y-108585000D01*
X99441000Y-108585000D01*
X99441000Y-108565000D01*
X99695000Y-108565000D01*
X99695000Y-108585000D01*
X99715000Y-108585000D01*
X99715000Y-108839000D01*
X99695000Y-108839000D01*
X99695000Y-110038250D01*
X99853750Y-110197000D01*
X100544310Y-110197000D01*
X100777699Y-110100327D01*
X100956327Y-109921698D01*
X101028597Y-109747223D01*
X101057946Y-109791147D01*
X101539715Y-110113054D01*
X102108000Y-110226093D01*
X102676285Y-110113054D01*
X103158054Y-109791147D01*
X103378000Y-109461974D01*
X103597946Y-109791147D01*
X104079715Y-110113054D01*
X104648000Y-110226093D01*
X105216285Y-110113054D01*
X105698054Y-109791147D01*
X105918000Y-109461974D01*
X106137946Y-109791147D01*
X106619715Y-110113054D01*
X107188000Y-110226093D01*
X107756285Y-110113054D01*
X108238054Y-109791147D01*
X108458000Y-109461974D01*
X108677946Y-109791147D01*
X109159715Y-110113054D01*
X109728000Y-110226093D01*
X110296285Y-110113054D01*
X110778054Y-109791147D01*
X110998000Y-109461974D01*
X111217946Y-109791147D01*
X111699715Y-110113054D01*
X112268000Y-110226093D01*
X112836285Y-110113054D01*
X113318054Y-109791147D01*
X113538000Y-109461974D01*
X113757946Y-109791147D01*
X114239715Y-110113054D01*
X114808000Y-110226093D01*
X115376285Y-110113054D01*
X115858054Y-109791147D01*
X116078000Y-109461974D01*
X116297946Y-109791147D01*
X116779715Y-110113054D01*
X117348000Y-110226093D01*
X117916285Y-110113054D01*
X118398054Y-109791147D01*
X118618000Y-109461974D01*
X118837946Y-109791147D01*
X119319715Y-110113054D01*
X119888000Y-110226093D01*
X120456285Y-110113054D01*
X120938054Y-109791147D01*
X121158000Y-109461974D01*
X121377946Y-109791147D01*
X121859715Y-110113054D01*
X122428000Y-110226093D01*
X122996285Y-110113054D01*
X123478054Y-109791147D01*
X123698000Y-109461974D01*
X123917946Y-109791147D01*
X124399715Y-110113054D01*
X124968000Y-110226093D01*
X125536285Y-110113054D01*
X125875498Y-109886400D01*
X126413799Y-110424701D01*
X126660361Y-110589448D01*
X126951200Y-110647300D01*
X158289588Y-110647300D01*
X158592700Y-110950941D01*
X158592700Y-111299588D01*
X158253902Y-111637796D01*
X158050232Y-112128287D01*
X158049769Y-112659383D01*
X158252582Y-113150229D01*
X158627796Y-113526098D01*
X159118287Y-113729768D01*
X159649383Y-113730231D01*
X160140229Y-113527418D01*
X160516098Y-113152204D01*
X160719768Y-112661713D01*
X160720000Y-112395000D01*
X163103846Y-112395000D01*
X163205467Y-112905882D01*
X163494858Y-113338988D01*
X163927964Y-113628379D01*
X164438846Y-113730000D01*
X164491154Y-113730000D01*
X165002036Y-113628379D01*
X165435142Y-113338988D01*
X165558078Y-113155000D01*
X166928154Y-113155000D01*
X166972932Y-113263371D01*
X167404357Y-113695551D01*
X167968330Y-113929733D01*
X168578991Y-113930265D01*
X169143371Y-113697068D01*
X169575551Y-113265643D01*
X169809733Y-112701670D01*
X169810265Y-112091009D01*
X169577068Y-111526629D01*
X169399908Y-111349159D01*
X169534699Y-111293327D01*
X169713327Y-111114698D01*
X169810000Y-110881309D01*
X169810000Y-110140750D01*
X169651250Y-109982000D01*
X168402000Y-109982000D01*
X168402000Y-110002000D01*
X168148000Y-110002000D01*
X168148000Y-109982000D01*
X166898750Y-109982000D01*
X166740000Y-110140750D01*
X166740000Y-110881309D01*
X166836673Y-111114698D01*
X167015301Y-111293327D01*
X167149994Y-111349119D01*
X166974449Y-111524357D01*
X166928506Y-111635000D01*
X165558078Y-111635000D01*
X165435142Y-111451012D01*
X165002036Y-111161621D01*
X164837465Y-111128886D01*
X165267663Y-110921764D01*
X165614797Y-110533396D01*
X165757716Y-110188329D01*
X165634374Y-109982000D01*
X164592000Y-109982000D01*
X164592000Y-110002000D01*
X164338000Y-110002000D01*
X164338000Y-109982000D01*
X163295626Y-109982000D01*
X163172284Y-110188329D01*
X163315203Y-110533396D01*
X163662337Y-110921764D01*
X164092535Y-111128886D01*
X163927964Y-111161621D01*
X163494858Y-111451012D01*
X163205467Y-111884118D01*
X163103846Y-112395000D01*
X160720000Y-112395000D01*
X160720231Y-112130617D01*
X160517418Y-111639771D01*
X160142204Y-111263902D01*
X160112700Y-111251651D01*
X160112700Y-110998793D01*
X160140229Y-110987418D01*
X160516098Y-110612204D01*
X160719768Y-110121713D01*
X160720231Y-109590617D01*
X160691744Y-109521671D01*
X163172284Y-109521671D01*
X163295626Y-109728000D01*
X164338000Y-109728000D01*
X164338000Y-108684794D01*
X164592000Y-108684794D01*
X164592000Y-109728000D01*
X165634374Y-109728000D01*
X165757716Y-109521671D01*
X165614797Y-109176604D01*
X165303823Y-108828691D01*
X166740000Y-108828691D01*
X166740000Y-109569250D01*
X166898750Y-109728000D01*
X168148000Y-109728000D01*
X168148000Y-108478750D01*
X168402000Y-108478750D01*
X168402000Y-109728000D01*
X169651250Y-109728000D01*
X169810000Y-109569250D01*
X169810000Y-108828691D01*
X169713327Y-108595302D01*
X169534699Y-108416673D01*
X169301310Y-108320000D01*
X168560750Y-108320000D01*
X168402000Y-108478750D01*
X168148000Y-108478750D01*
X167989250Y-108320000D01*
X167248690Y-108320000D01*
X167015301Y-108416673D01*
X166836673Y-108595302D01*
X166740000Y-108828691D01*
X165303823Y-108828691D01*
X165267663Y-108788236D01*
X164798331Y-108562273D01*
X164592000Y-108684794D01*
X164338000Y-108684794D01*
X164131669Y-108562273D01*
X163662337Y-108788236D01*
X163315203Y-109176604D01*
X163172284Y-109521671D01*
X160691744Y-109521671D01*
X160517418Y-109099771D01*
X160142204Y-108723902D01*
X159651713Y-108520232D01*
X159120617Y-108519769D01*
X158629771Y-108722582D01*
X158253902Y-109097796D01*
X158241651Y-109127300D01*
X131456179Y-109127300D01*
X131533000Y-108741093D01*
X131533000Y-108682907D01*
X131456179Y-108296700D01*
X166549000Y-108296700D01*
X166839839Y-108238848D01*
X167086401Y-108074101D01*
X173280000Y-101880502D01*
X173280000Y-126290000D01*
X107918769Y-126290000D01*
X108070229Y-126227418D01*
X108446098Y-125852204D01*
X108473658Y-125785833D01*
X108708328Y-125942634D01*
X108764519Y-125953811D01*
X109047003Y-126010002D01*
X109047008Y-126010001D01*
X113344994Y-126010001D01*
X113344999Y-126010002D01*
X113627483Y-125953811D01*
X113683674Y-125942634D01*
X113970789Y-125750791D01*
X114359645Y-125361935D01*
X114933855Y-125936145D01*
X115237191Y-126138827D01*
X115595000Y-126210000D01*
X119195000Y-126210000D01*
X119552809Y-126138827D01*
X119856145Y-125936145D01*
X120467648Y-125324642D01*
X120867614Y-125245084D01*
X121268277Y-124977370D01*
X121395000Y-124787715D01*
X121521723Y-124977370D01*
X121922386Y-125245084D01*
X122395000Y-125339093D01*
X122867614Y-125245084D01*
X123268277Y-124977370D01*
X123535991Y-124576707D01*
X123630000Y-124104093D01*
X123630000Y-123545907D01*
X123591827Y-123354000D01*
X125691000Y-123354000D01*
X125981839Y-123296148D01*
X126228401Y-123131401D01*
X128595619Y-120764183D01*
X128625900Y-120776757D01*
X129181661Y-120777242D01*
X129695303Y-120565010D01*
X130088629Y-120172370D01*
X130301757Y-119659100D01*
X130302242Y-119103339D01*
X130090010Y-118589697D01*
X129728245Y-118227300D01*
X137930720Y-118227300D01*
X142970831Y-123267410D01*
X142895648Y-123448469D01*
X142894994Y-124198241D01*
X143181314Y-124891191D01*
X143711021Y-125421822D01*
X144403469Y-125709352D01*
X145153241Y-125710006D01*
X145846191Y-125423686D01*
X146374898Y-124895900D01*
X163064095Y-124895900D01*
X163064100Y-124895901D01*
X163354060Y-124838223D01*
X163402775Y-124828533D01*
X163689890Y-124636690D01*
X164153438Y-124173142D01*
X164193352Y-124189716D01*
X164843795Y-124190284D01*
X165444943Y-123941894D01*
X165905278Y-123482363D01*
X166154716Y-122881648D01*
X166155284Y-122231205D01*
X165906894Y-121630057D01*
X165447363Y-121169722D01*
X164846648Y-120920284D01*
X164196205Y-120919716D01*
X163595057Y-121168106D01*
X163134722Y-121627637D01*
X162885284Y-122228352D01*
X162884716Y-122878795D01*
X162902232Y-122921188D01*
X162697520Y-123125900D01*
X161553294Y-123125900D01*
X161654716Y-122881648D01*
X161655284Y-122231205D01*
X161406894Y-121630057D01*
X160947363Y-121169722D01*
X160346648Y-120920284D01*
X159696205Y-120919716D01*
X159095057Y-121168106D01*
X158634722Y-121627637D01*
X158385284Y-122228352D01*
X158384716Y-122878795D01*
X158486818Y-123125900D01*
X146530364Y-123125900D01*
X146378686Y-122758809D01*
X145848979Y-122228178D01*
X145156531Y-121940648D01*
X144406759Y-121939994D01*
X144222647Y-122016067D01*
X138923090Y-116716510D01*
X138753375Y-116603111D01*
X138635975Y-116524667D01*
X138579784Y-116513490D01*
X138297300Y-116457299D01*
X138297295Y-116457300D01*
X131263533Y-116457300D01*
X131342175Y-116378795D01*
X158384716Y-116378795D01*
X158633106Y-116979943D01*
X159092637Y-117440278D01*
X159693352Y-117689716D01*
X160343795Y-117690284D01*
X160944943Y-117441894D01*
X161405278Y-116982363D01*
X161654716Y-116381648D01*
X161654718Y-116378795D01*
X162884716Y-116378795D01*
X163133106Y-116979943D01*
X163592637Y-117440278D01*
X164193352Y-117689716D01*
X164843795Y-117690284D01*
X165444943Y-117441894D01*
X165905278Y-116982363D01*
X166154716Y-116381648D01*
X166155284Y-115731205D01*
X165906894Y-115130057D01*
X165447363Y-114669722D01*
X164846648Y-114420284D01*
X164196205Y-114419716D01*
X163595057Y-114668106D01*
X163134722Y-115127637D01*
X162885284Y-115728352D01*
X162884716Y-116378795D01*
X161654718Y-116378795D01*
X161655284Y-115731205D01*
X161406894Y-115130057D01*
X160947363Y-114669722D01*
X160346648Y-114420284D01*
X159696205Y-114419716D01*
X159095057Y-114668106D01*
X158634722Y-115127637D01*
X158385284Y-115728352D01*
X158384716Y-116378795D01*
X131342175Y-116378795D01*
X131358629Y-116362370D01*
X131571757Y-115849100D01*
X131572242Y-115293339D01*
X131360010Y-114779697D01*
X130967370Y-114386371D01*
X130454100Y-114173243D01*
X129898339Y-114172758D01*
X129384697Y-114384990D01*
X128991371Y-114777630D01*
X128905051Y-114985512D01*
X128820010Y-114779697D01*
X128427370Y-114386371D01*
X127914100Y-114173243D01*
X127358339Y-114172758D01*
X126844697Y-114384990D01*
X126451371Y-114777630D01*
X126365051Y-114985512D01*
X126280010Y-114779697D01*
X125887370Y-114386371D01*
X125374100Y-114173243D01*
X124818339Y-114172758D01*
X124304697Y-114384990D01*
X123911371Y-114777630D01*
X123825051Y-114985512D01*
X123740010Y-114779697D01*
X123347370Y-114386371D01*
X123092645Y-114280600D01*
X123929400Y-114280600D01*
X124220239Y-114222748D01*
X124466801Y-114058001D01*
X124486561Y-114038241D01*
X142894994Y-114038241D01*
X143181314Y-114731191D01*
X143711021Y-115261822D01*
X144403469Y-115549352D01*
X145153241Y-115550006D01*
X145846191Y-115263686D01*
X146376822Y-114733979D01*
X146664352Y-114041531D01*
X146665006Y-113291759D01*
X146378686Y-112598809D01*
X145848979Y-112068178D01*
X145156531Y-111780648D01*
X144406759Y-111779994D01*
X143713809Y-112066314D01*
X143183178Y-112596021D01*
X142895648Y-113288469D01*
X142894994Y-114038241D01*
X124486561Y-114038241D01*
X124716546Y-113808256D01*
X124768309Y-113829750D01*
X125339187Y-113830248D01*
X125866800Y-113612243D01*
X126270824Y-113208923D01*
X126489750Y-112681691D01*
X126490248Y-112110813D01*
X126272243Y-111583200D01*
X125868923Y-111179176D01*
X125341691Y-110960250D01*
X124770813Y-110959752D01*
X124243200Y-111177757D01*
X123839176Y-111581077D01*
X123805187Y-111662931D01*
X123772243Y-111583200D01*
X123368923Y-111179176D01*
X122841691Y-110960250D01*
X122270813Y-110959752D01*
X121743200Y-111177757D01*
X121339176Y-111581077D01*
X121230904Y-111841824D01*
X121147418Y-111639771D01*
X120772204Y-111263902D01*
X120281713Y-111060232D01*
X119750617Y-111059769D01*
X119259771Y-111262582D01*
X118883902Y-111637796D01*
X118869943Y-111671413D01*
X118762161Y-111692852D01*
X118515599Y-111857599D01*
X115856985Y-114516213D01*
X115727370Y-114386371D01*
X115214100Y-114173243D01*
X114658339Y-114172758D01*
X114625945Y-114186143D01*
X114063201Y-113623399D01*
X113816639Y-113458652D01*
X113525800Y-113400800D01*
X112144836Y-113400800D01*
X112207622Y-113338014D01*
X112092747Y-113223139D01*
X112338864Y-113149005D01*
X112490071Y-112728329D01*
X113642284Y-112728329D01*
X113785203Y-113073396D01*
X114132337Y-113461764D01*
X114601669Y-113687727D01*
X114808000Y-113565206D01*
X114808000Y-112522000D01*
X115062000Y-112522000D01*
X115062000Y-113565206D01*
X115268331Y-113687727D01*
X115737663Y-113461764D01*
X116084797Y-113073396D01*
X116227716Y-112728329D01*
X116104374Y-112522000D01*
X115062000Y-112522000D01*
X114808000Y-112522000D01*
X113765626Y-112522000D01*
X113642284Y-112728329D01*
X112490071Y-112728329D01*
X112531965Y-112611777D01*
X112505738Y-112061671D01*
X113642284Y-112061671D01*
X113765626Y-112268000D01*
X114808000Y-112268000D01*
X114808000Y-111224794D01*
X115062000Y-111224794D01*
X115062000Y-112268000D01*
X116104374Y-112268000D01*
X116227716Y-112061671D01*
X116084797Y-111716604D01*
X115737663Y-111328236D01*
X115268331Y-111102273D01*
X115062000Y-111224794D01*
X114808000Y-111224794D01*
X114601669Y-111102273D01*
X114132337Y-111328236D01*
X113785203Y-111716604D01*
X113642284Y-112061671D01*
X112505738Y-112061671D01*
X112504778Y-112041546D01*
X112338864Y-111640995D01*
X112092745Y-111566861D01*
X111264605Y-112395000D01*
X111278748Y-112409142D01*
X111099142Y-112588748D01*
X111085000Y-112574605D01*
X111070858Y-112588748D01*
X110891252Y-112409142D01*
X110905395Y-112395000D01*
X110077255Y-111566861D01*
X109831136Y-111640995D01*
X109828804Y-111647483D01*
X109802243Y-111583200D01*
X109606640Y-111387255D01*
X110256861Y-111387255D01*
X111085000Y-112215395D01*
X111913139Y-111387255D01*
X111839005Y-111141136D01*
X111301777Y-110948035D01*
X110731546Y-110975222D01*
X110330995Y-111141136D01*
X110256861Y-111387255D01*
X109606640Y-111387255D01*
X109398923Y-111179176D01*
X108871691Y-110960250D01*
X108300813Y-110959752D01*
X107773200Y-111177757D01*
X107369176Y-111581077D01*
X107150250Y-112108309D01*
X107149752Y-112679187D01*
X107367757Y-113206800D01*
X107771077Y-113610824D01*
X108298309Y-113829750D01*
X108869187Y-113830248D01*
X108923149Y-113807951D01*
X109372859Y-114257661D01*
X109064697Y-114384990D01*
X108671371Y-114777630D01*
X108585051Y-114985512D01*
X108500010Y-114779697D01*
X108107370Y-114386371D01*
X107594100Y-114173243D01*
X107038339Y-114172758D01*
X106524697Y-114384990D01*
X106131371Y-114777630D01*
X106045051Y-114985512D01*
X105960010Y-114779697D01*
X105567370Y-114386371D01*
X105054100Y-114173243D01*
X104498339Y-114172758D01*
X103984697Y-114384990D01*
X103591371Y-114777630D01*
X103505051Y-114985512D01*
X103420010Y-114779697D01*
X103027370Y-114386371D01*
X102514100Y-114173243D01*
X101958339Y-114172758D01*
X101444697Y-114384990D01*
X101051371Y-114777630D01*
X100838243Y-115290900D01*
X100837758Y-115846661D01*
X101049990Y-116360303D01*
X101442630Y-116753629D01*
X101955900Y-116966757D01*
X102511661Y-116967242D01*
X103025303Y-116755010D01*
X103418629Y-116362370D01*
X103504949Y-116154488D01*
X103589990Y-116360303D01*
X103622751Y-116393121D01*
X103593894Y-116398861D01*
X103531525Y-116411267D01*
X103244410Y-116603110D01*
X103244408Y-116603113D01*
X101609210Y-118238310D01*
X101417367Y-118525425D01*
X101417367Y-118525426D01*
X101349999Y-118864100D01*
X101350000Y-118864105D01*
X101350000Y-121552127D01*
X101103902Y-121797796D01*
X100900232Y-122288287D01*
X100899769Y-122819383D01*
X100999189Y-123059999D01*
X100211578Y-123059999D01*
X99080790Y-121929210D01*
X99024879Y-121891852D01*
X98793675Y-121737367D01*
X98737484Y-121726190D01*
X98591557Y-121697163D01*
X98558162Y-121519683D01*
X98419090Y-121303559D01*
X98206890Y-121158569D01*
X97955000Y-121107560D01*
X96355000Y-121107560D01*
X96119683Y-121151838D01*
X95903559Y-121290910D01*
X95758569Y-121503110D01*
X95734054Y-121624166D01*
X95397191Y-121691173D01*
X95093855Y-121893855D01*
X94717710Y-122270000D01*
X90825000Y-122270000D01*
X90825000Y-121190750D01*
X90666250Y-121032000D01*
X88567000Y-121032000D01*
X88567000Y-121052000D01*
X88313000Y-121052000D01*
X88313000Y-121032000D01*
X86213750Y-121032000D01*
X86055000Y-121190750D01*
X86055000Y-121578423D01*
X83231000Y-118754422D01*
X83231000Y-118394026D01*
X83330302Y-118493327D01*
X83563691Y-118590000D01*
X85154250Y-118590000D01*
X85313000Y-118431250D01*
X85313000Y-116332000D01*
X85567000Y-116332000D01*
X85567000Y-118431250D01*
X85725750Y-118590000D01*
X86394696Y-118590000D01*
X86330302Y-118616673D01*
X86151673Y-118795301D01*
X86055000Y-119028690D01*
X86055000Y-120619250D01*
X86213750Y-120778000D01*
X88313000Y-120778000D01*
X88313000Y-118678750D01*
X88567000Y-118678750D01*
X88567000Y-120778000D01*
X90666250Y-120778000D01*
X90825000Y-120619250D01*
X90825000Y-119028690D01*
X90728327Y-118795301D01*
X90549698Y-118616673D01*
X90515337Y-118602440D01*
X93190000Y-118602440D01*
X93425317Y-118558162D01*
X93641441Y-118419090D01*
X93786431Y-118206890D01*
X93837440Y-117955000D01*
X93837440Y-115535960D01*
X93947932Y-115803371D01*
X94379357Y-116235551D01*
X94943330Y-116469733D01*
X95553991Y-116470265D01*
X96118371Y-116237068D01*
X96286613Y-116069120D01*
X96286838Y-116070317D01*
X96425910Y-116286441D01*
X96638110Y-116431431D01*
X96890000Y-116482440D01*
X98690000Y-116482440D01*
X98925317Y-116438162D01*
X99141441Y-116299090D01*
X99286431Y-116086890D01*
X99337440Y-115835000D01*
X99337440Y-114035000D01*
X99293162Y-113799683D01*
X99154090Y-113583559D01*
X98941890Y-113438569D01*
X98764986Y-113402745D01*
X101446861Y-113402745D01*
X101520995Y-113648864D01*
X102058223Y-113841965D01*
X102628454Y-113814778D01*
X103029005Y-113648864D01*
X103103139Y-113402745D01*
X102275000Y-112574605D01*
X101446861Y-113402745D01*
X98764986Y-113402745D01*
X98690000Y-113387560D01*
X96890000Y-113387560D01*
X96654683Y-113431838D01*
X96438559Y-113570910D01*
X96293569Y-113783110D01*
X96289433Y-113803534D01*
X96120643Y-113634449D01*
X95556670Y-113400267D01*
X94946009Y-113399735D01*
X94381629Y-113632932D01*
X93949449Y-114064357D01*
X93821786Y-114371805D01*
X93793162Y-114219683D01*
X93654090Y-114003559D01*
X93441890Y-113858569D01*
X93190000Y-113807560D01*
X89690000Y-113807560D01*
X89454683Y-113851838D01*
X89238559Y-113990910D01*
X89093569Y-114203110D01*
X89042560Y-114455000D01*
X89042560Y-117955000D01*
X89086838Y-118190317D01*
X89225910Y-118406441D01*
X89392109Y-118520000D01*
X88725750Y-118520000D01*
X88567000Y-118678750D01*
X88313000Y-118678750D01*
X88154250Y-118520000D01*
X87485304Y-118520000D01*
X87549698Y-118493327D01*
X87728327Y-118314699D01*
X87825000Y-118081310D01*
X87825000Y-116490750D01*
X87666250Y-116332000D01*
X85567000Y-116332000D01*
X85313000Y-116332000D01*
X85293000Y-116332000D01*
X85293000Y-116078000D01*
X85313000Y-116078000D01*
X85313000Y-113978750D01*
X85567000Y-113978750D01*
X85567000Y-116078000D01*
X87666250Y-116078000D01*
X87825000Y-115919250D01*
X87825000Y-114328690D01*
X87728327Y-114095301D01*
X87549698Y-113916673D01*
X87316309Y-113820000D01*
X85725750Y-113820000D01*
X85567000Y-113978750D01*
X85313000Y-113978750D01*
X85154250Y-113820000D01*
X83563691Y-113820000D01*
X83330302Y-113916673D01*
X83231000Y-114015974D01*
X83231000Y-112178223D01*
X100828035Y-112178223D01*
X100855222Y-112748454D01*
X101021136Y-113149005D01*
X101267255Y-113223139D01*
X102095395Y-112395000D01*
X102454605Y-112395000D01*
X103282745Y-113223139D01*
X103528864Y-113149005D01*
X103531196Y-113142517D01*
X103557757Y-113206800D01*
X103961077Y-113610824D01*
X104488309Y-113829750D01*
X105059187Y-113830248D01*
X105586800Y-113612243D01*
X105990824Y-113208923D01*
X106209750Y-112681691D01*
X106210248Y-112110813D01*
X105992243Y-111583200D01*
X105588923Y-111179176D01*
X105061691Y-110960250D01*
X104490813Y-110959752D01*
X103963200Y-111177757D01*
X103559176Y-111581077D01*
X103531577Y-111647544D01*
X103528864Y-111640995D01*
X103282745Y-111566861D01*
X102454605Y-112395000D01*
X102095395Y-112395000D01*
X101267255Y-111566861D01*
X101021136Y-111640995D01*
X100828035Y-112178223D01*
X83231000Y-112178223D01*
X83231000Y-111387255D01*
X101446861Y-111387255D01*
X102275000Y-112215395D01*
X103103139Y-111387255D01*
X103029005Y-111141136D01*
X102491777Y-110948035D01*
X101921546Y-110975222D01*
X101520995Y-111141136D01*
X101446861Y-111387255D01*
X83231000Y-111387255D01*
X83231000Y-108870750D01*
X86095000Y-108870750D01*
X86095000Y-109611309D01*
X86191673Y-109844698D01*
X86370301Y-110023327D01*
X86603690Y-110120000D01*
X87344250Y-110120000D01*
X87503000Y-109961250D01*
X87503000Y-108712000D01*
X87757000Y-108712000D01*
X87757000Y-109961250D01*
X87915750Y-110120000D01*
X88656310Y-110120000D01*
X88889699Y-110023327D01*
X89068327Y-109844698D01*
X89165000Y-109611309D01*
X89165000Y-109552745D01*
X93151861Y-109552745D01*
X93225995Y-109798864D01*
X93763223Y-109991965D01*
X94333454Y-109964778D01*
X94734005Y-109798864D01*
X94808139Y-109552745D01*
X93980000Y-108724605D01*
X93151861Y-109552745D01*
X89165000Y-109552745D01*
X89165000Y-108870750D01*
X89006250Y-108712000D01*
X87757000Y-108712000D01*
X87503000Y-108712000D01*
X86253750Y-108712000D01*
X86095000Y-108870750D01*
X83231000Y-108870750D01*
X83231000Y-106348991D01*
X86094735Y-106348991D01*
X86327932Y-106913371D01*
X86505092Y-107090841D01*
X86370301Y-107146673D01*
X86191673Y-107325302D01*
X86095000Y-107558691D01*
X86095000Y-108299250D01*
X86253750Y-108458000D01*
X87503000Y-108458000D01*
X87503000Y-108438000D01*
X87757000Y-108438000D01*
X87757000Y-108458000D01*
X89006250Y-108458000D01*
X89136027Y-108328223D01*
X92533035Y-108328223D01*
X92560222Y-108898454D01*
X92726136Y-109299005D01*
X92972255Y-109373139D01*
X93800395Y-108545000D01*
X94159605Y-108545000D01*
X94987745Y-109373139D01*
X95233864Y-109299005D01*
X95342146Y-108997750D01*
X98083000Y-108997750D01*
X98083000Y-109688309D01*
X98179673Y-109921698D01*
X98358301Y-110100327D01*
X98591690Y-110197000D01*
X99282250Y-110197000D01*
X99441000Y-110038250D01*
X99441000Y-108839000D01*
X98241750Y-108839000D01*
X98083000Y-108997750D01*
X95342146Y-108997750D01*
X95426965Y-108761777D01*
X95399778Y-108191546D01*
X95233864Y-107790995D01*
X94987745Y-107716861D01*
X94159605Y-108545000D01*
X93800395Y-108545000D01*
X92972255Y-107716861D01*
X92726136Y-107790995D01*
X92533035Y-108328223D01*
X89136027Y-108328223D01*
X89165000Y-108299250D01*
X89165000Y-107558691D01*
X89068327Y-107325302D01*
X88889699Y-107146673D01*
X88755006Y-107090881D01*
X88930551Y-106915643D01*
X89164733Y-106351670D01*
X89165265Y-105741009D01*
X89119515Y-105630287D01*
X92389802Y-102360000D01*
X97331922Y-102360000D01*
X97454858Y-102543988D01*
X97887964Y-102833379D01*
X98398846Y-102935000D01*
X98451154Y-102935000D01*
X98962036Y-102833379D01*
X99395142Y-102543988D01*
X99684533Y-102110882D01*
X99733564Y-101864383D01*
X102169769Y-101864383D01*
X102372582Y-102355229D01*
X102747796Y-102731098D01*
X103238287Y-102934768D01*
X103769383Y-102935231D01*
X104260229Y-102732418D01*
X104636098Y-102357204D01*
X104839768Y-101866713D01*
X104840231Y-101335617D01*
X104637418Y-100844771D01*
X104262204Y-100468902D01*
X103771713Y-100265232D01*
X103240617Y-100264769D01*
X102749771Y-100467582D01*
X102373902Y-100842796D01*
X102170232Y-101333287D01*
X102169769Y-101864383D01*
X99733564Y-101864383D01*
X99786154Y-101600000D01*
X99684533Y-101089118D01*
X99395142Y-100656012D01*
X98962036Y-100366621D01*
X98451154Y-100265000D01*
X98398846Y-100265000D01*
X97887964Y-100366621D01*
X97454858Y-100656012D01*
X97331922Y-100840000D01*
X92075000Y-100840000D01*
X91784160Y-100897852D01*
X91537599Y-101062599D01*
X88044964Y-104555234D01*
X87936670Y-104510267D01*
X87326009Y-104509735D01*
X86761629Y-104742932D01*
X86329449Y-105174357D01*
X86095267Y-105738330D01*
X86094735Y-106348991D01*
X83231000Y-106348991D01*
X83231000Y-103691290D01*
X86386145Y-100536145D01*
X86588827Y-100232809D01*
X86653502Y-99907669D01*
X86810317Y-99878162D01*
X87026441Y-99739090D01*
X87171431Y-99526890D01*
X87222440Y-99275000D01*
X87222440Y-98249850D01*
X91857653Y-93614637D01*
X91926845Y-93962491D01*
X92259591Y-94460481D01*
X92490845Y-94615000D01*
X92259591Y-94769519D01*
X91926845Y-95267509D01*
X91810000Y-95854928D01*
X91810000Y-95915072D01*
X91926845Y-96502491D01*
X92207837Y-96923026D01*
X91993559Y-97060910D01*
X91848569Y-97273110D01*
X91797560Y-97525000D01*
X91797560Y-99325000D01*
X91841838Y-99560317D01*
X91980910Y-99776441D01*
X92193110Y-99921431D01*
X92445000Y-99972440D01*
X94245000Y-99972440D01*
X94480317Y-99928162D01*
X94696441Y-99789090D01*
X94841431Y-99576890D01*
X94892440Y-99325000D01*
X94892440Y-97790000D01*
X97063846Y-97790000D01*
X97165467Y-98300882D01*
X97454858Y-98733988D01*
X97887964Y-99023379D01*
X98398846Y-99125000D01*
X98451154Y-99125000D01*
X98962036Y-99023379D01*
X99395142Y-98733988D01*
X99684533Y-98300882D01*
X99733564Y-98054383D01*
X102169769Y-98054383D01*
X102372582Y-98545229D01*
X102747796Y-98921098D01*
X103238287Y-99124768D01*
X103769383Y-99125231D01*
X104260229Y-98922418D01*
X104636098Y-98547204D01*
X104839768Y-98056713D01*
X104840231Y-97525617D01*
X104637418Y-97034771D01*
X104262204Y-96658902D01*
X103771713Y-96455232D01*
X103240617Y-96454769D01*
X102749771Y-96657582D01*
X102373902Y-97032796D01*
X102170232Y-97523287D01*
X102169769Y-98054383D01*
X99733564Y-98054383D01*
X99786154Y-97790000D01*
X99684533Y-97279118D01*
X99395142Y-96846012D01*
X98962036Y-96556621D01*
X98451154Y-96455000D01*
X98398846Y-96455000D01*
X97887964Y-96556621D01*
X97454858Y-96846012D01*
X97165467Y-97279118D01*
X97063846Y-97790000D01*
X94892440Y-97790000D01*
X94892440Y-97525000D01*
X94848162Y-97289683D01*
X94825123Y-97253879D01*
X98327401Y-93751601D01*
X98492148Y-93505039D01*
X98550000Y-93214200D01*
X98550000Y-93202655D01*
X98921098Y-92832204D01*
X99124768Y-92341713D01*
X99125231Y-91810617D01*
X98958140Y-91406226D01*
X99168601Y-91265601D01*
X100214501Y-90219701D01*
X100379248Y-89973139D01*
X100437100Y-89682300D01*
X100437100Y-88384502D01*
X101746753Y-87074849D01*
X101899858Y-87303988D01*
X101899858Y-87303988D01*
G37*
X101899858Y-87303988D02*
X102332964Y-87593379D01*
X102470274Y-87620692D01*
X102114771Y-87767582D01*
X101738902Y-88142796D01*
X101535232Y-88633287D01*
X101534769Y-89164383D01*
X101737582Y-89655229D01*
X102112796Y-90031098D01*
X102603287Y-90234768D01*
X103134383Y-90235231D01*
X103625229Y-90032418D01*
X104001098Y-89657204D01*
X104204768Y-89166713D01*
X104205231Y-88635617D01*
X104002418Y-88144771D01*
X103627204Y-87768902D01*
X103270097Y-87620618D01*
X103407036Y-87593379D01*
X103840142Y-87303988D01*
X103963078Y-87120000D01*
X104947248Y-87120000D01*
X104873957Y-87150283D01*
X104610708Y-87413073D01*
X104468062Y-87756601D01*
X104467738Y-88128567D01*
X104609783Y-88472343D01*
X104872573Y-88735592D01*
X105216101Y-88878238D01*
X105588067Y-88878562D01*
X105931843Y-88736517D01*
X105965018Y-88703400D01*
X118959982Y-88703400D01*
X118959938Y-88753867D01*
X119101983Y-89097643D01*
X119364773Y-89360892D01*
X119708301Y-89503538D01*
X120080267Y-89503862D01*
X120424043Y-89361817D01*
X120457218Y-89328700D01*
X128038098Y-89328700D01*
X129140531Y-90431133D01*
X128935899Y-90346162D01*
X128563933Y-90345838D01*
X128220157Y-90487883D01*
X128186982Y-90521000D01*
X104689300Y-90521000D01*
X104398461Y-90578852D01*
X104151899Y-90743599D01*
X103794789Y-91100709D01*
X103407036Y-90841621D01*
X102896154Y-90740000D01*
X102843846Y-90740000D01*
X102332964Y-90841621D01*
X101899858Y-91131012D01*
X101610467Y-91564118D01*
X101508846Y-92075000D01*
X101610467Y-92585882D01*
X101899858Y-93018988D01*
X102332964Y-93308379D01*
X102843846Y-93410000D01*
X102896154Y-93410000D01*
X103407036Y-93308379D01*
X103840142Y-93018988D01*
X103973468Y-92819451D01*
X104186139Y-92777148D01*
X104432701Y-92612401D01*
X105004102Y-92041000D01*
X117704198Y-92041000D01*
X105014408Y-104730790D01*
X104648000Y-104657907D01*
X104079715Y-104770946D01*
X103597946Y-105092853D01*
X103378000Y-105422026D01*
X103158054Y-105092853D01*
X102676285Y-104770946D01*
X102108000Y-104657907D01*
X101539715Y-104770946D01*
X101057946Y-105092853D01*
X100838000Y-105422026D01*
X100618054Y-105092853D01*
X100136285Y-104770946D01*
X99568000Y-104657907D01*
X98999715Y-104770946D01*
X98517946Y-105092853D01*
X98434086Y-105218358D01*
X98423184Y-105216190D01*
X98140700Y-105159999D01*
X98140695Y-105160000D01*
X95411446Y-105160000D01*
X95383162Y-105009683D01*
X95244090Y-104793559D01*
X95031890Y-104648569D01*
X94780000Y-104597560D01*
X93180000Y-104597560D01*
X92944683Y-104641838D01*
X92728559Y-104780910D01*
X92583569Y-104993110D01*
X92532560Y-105245000D01*
X92532560Y-106845000D01*
X92576838Y-107080317D01*
X92715910Y-107296441D01*
X92928110Y-107441431D01*
X93166201Y-107489646D01*
X93151861Y-107537255D01*
X93980000Y-108365395D01*
X94808139Y-107537255D01*
X94793855Y-107489833D01*
X95015317Y-107448162D01*
X95231441Y-107309090D01*
X95376431Y-107096890D01*
X95410227Y-106930000D01*
X97839777Y-106930000D01*
X97842771Y-106932000D01*
X97929025Y-106989633D01*
X98267700Y-107057001D01*
X98267705Y-107057000D01*
X98388221Y-107057000D01*
X98517946Y-107251147D01*
X98523858Y-107255097D01*
X98358301Y-107323673D01*
X98179673Y-107502302D01*
X98083000Y-107735691D01*
X98083000Y-108426250D01*
X98241750Y-108585000D01*
X99441000Y-108585000D01*
X99441000Y-108565000D01*
X99695000Y-108565000D01*
X99695000Y-108585000D01*
X99715000Y-108585000D01*
X99715000Y-108839000D01*
X99695000Y-108839000D01*
X99695000Y-110038250D01*
X99853750Y-110197000D01*
X100544310Y-110197000D01*
X100777699Y-110100327D01*
X100956327Y-109921698D01*
X101028597Y-109747223D01*
X101057946Y-109791147D01*
X101539715Y-110113054D01*
X102108000Y-110226093D01*
X102676285Y-110113054D01*
X103158054Y-109791147D01*
X103378000Y-109461974D01*
X103597946Y-109791147D01*
X104079715Y-110113054D01*
X104648000Y-110226093D01*
X105216285Y-110113054D01*
X105698054Y-109791147D01*
X105918000Y-109461974D01*
X106137946Y-109791147D01*
X106619715Y-110113054D01*
X107188000Y-110226093D01*
X107756285Y-110113054D01*
X108238054Y-109791147D01*
X108458000Y-109461974D01*
X108677946Y-109791147D01*
X109159715Y-110113054D01*
X109728000Y-110226093D01*
X110296285Y-110113054D01*
X110778054Y-109791147D01*
X110998000Y-109461974D01*
X111217946Y-109791147D01*
X111699715Y-110113054D01*
X112268000Y-110226093D01*
X112836285Y-110113054D01*
X113318054Y-109791147D01*
X113538000Y-109461974D01*
X113757946Y-109791147D01*
X114239715Y-110113054D01*
X114808000Y-110226093D01*
X115376285Y-110113054D01*
X115858054Y-109791147D01*
X116078000Y-109461974D01*
X116297946Y-109791147D01*
X116779715Y-110113054D01*
X117348000Y-110226093D01*
X117916285Y-110113054D01*
X118398054Y-109791147D01*
X118618000Y-109461974D01*
X118837946Y-109791147D01*
X119319715Y-110113054D01*
X119888000Y-110226093D01*
X120456285Y-110113054D01*
X120938054Y-109791147D01*
X121158000Y-109461974D01*
X121377946Y-109791147D01*
X121859715Y-110113054D01*
X122428000Y-110226093D01*
X122996285Y-110113054D01*
X123478054Y-109791147D01*
X123698000Y-109461974D01*
X123917946Y-109791147D01*
X124399715Y-110113054D01*
X124968000Y-110226093D01*
X125536285Y-110113054D01*
X125875498Y-109886400D01*
X126413799Y-110424701D01*
X126660361Y-110589448D01*
X126951200Y-110647300D01*
X158289588Y-110647300D01*
X158592700Y-110950941D01*
X158592700Y-111299588D01*
X158253902Y-111637796D01*
X158050232Y-112128287D01*
X158049769Y-112659383D01*
X158252582Y-113150229D01*
X158627796Y-113526098D01*
X159118287Y-113729768D01*
X159649383Y-113730231D01*
X160140229Y-113527418D01*
X160516098Y-113152204D01*
X160719768Y-112661713D01*
X160720000Y-112395000D01*
X163103846Y-112395000D01*
X163205467Y-112905882D01*
X163494858Y-113338988D01*
X163927964Y-113628379D01*
X164438846Y-113730000D01*
X164491154Y-113730000D01*
X165002036Y-113628379D01*
X165435142Y-113338988D01*
X165558078Y-113155000D01*
X166928154Y-113155000D01*
X166972932Y-113263371D01*
X167404357Y-113695551D01*
X167968330Y-113929733D01*
X168578991Y-113930265D01*
X169143371Y-113697068D01*
X169575551Y-113265643D01*
X169809733Y-112701670D01*
X169810265Y-112091009D01*
X169577068Y-111526629D01*
X169399908Y-111349159D01*
X169534699Y-111293327D01*
X169713327Y-111114698D01*
X169810000Y-110881309D01*
X169810000Y-110140750D01*
X169651250Y-109982000D01*
X168402000Y-109982000D01*
X168402000Y-110002000D01*
X168148000Y-110002000D01*
X168148000Y-109982000D01*
X166898750Y-109982000D01*
X166740000Y-110140750D01*
X166740000Y-110881309D01*
X166836673Y-111114698D01*
X167015301Y-111293327D01*
X167149994Y-111349119D01*
X166974449Y-111524357D01*
X166928506Y-111635000D01*
X165558078Y-111635000D01*
X165435142Y-111451012D01*
X165002036Y-111161621D01*
X164837465Y-111128886D01*
X165267663Y-110921764D01*
X165614797Y-110533396D01*
X165757716Y-110188329D01*
X165634374Y-109982000D01*
X164592000Y-109982000D01*
X164592000Y-110002000D01*
X164338000Y-110002000D01*
X164338000Y-109982000D01*
X163295626Y-109982000D01*
X163172284Y-110188329D01*
X163315203Y-110533396D01*
X163662337Y-110921764D01*
X164092535Y-111128886D01*
X163927964Y-111161621D01*
X163494858Y-111451012D01*
X163205467Y-111884118D01*
X163103846Y-112395000D01*
X160720000Y-112395000D01*
X160720231Y-112130617D01*
X160517418Y-111639771D01*
X160142204Y-111263902D01*
X160112700Y-111251651D01*
X160112700Y-110998793D01*
X160140229Y-110987418D01*
X160516098Y-110612204D01*
X160719768Y-110121713D01*
X160720231Y-109590617D01*
X160691744Y-109521671D01*
X163172284Y-109521671D01*
X163295626Y-109728000D01*
X164338000Y-109728000D01*
X164338000Y-108684794D01*
X164592000Y-108684794D01*
X164592000Y-109728000D01*
X165634374Y-109728000D01*
X165757716Y-109521671D01*
X165614797Y-109176604D01*
X165303823Y-108828691D01*
X166740000Y-108828691D01*
X166740000Y-109569250D01*
X166898750Y-109728000D01*
X168148000Y-109728000D01*
X168148000Y-108478750D01*
X168402000Y-108478750D01*
X168402000Y-109728000D01*
X169651250Y-109728000D01*
X169810000Y-109569250D01*
X169810000Y-108828691D01*
X169713327Y-108595302D01*
X169534699Y-108416673D01*
X169301310Y-108320000D01*
X168560750Y-108320000D01*
X168402000Y-108478750D01*
X168148000Y-108478750D01*
X167989250Y-108320000D01*
X167248690Y-108320000D01*
X167015301Y-108416673D01*
X166836673Y-108595302D01*
X166740000Y-108828691D01*
X165303823Y-108828691D01*
X165267663Y-108788236D01*
X164798331Y-108562273D01*
X164592000Y-108684794D01*
X164338000Y-108684794D01*
X164131669Y-108562273D01*
X163662337Y-108788236D01*
X163315203Y-109176604D01*
X163172284Y-109521671D01*
X160691744Y-109521671D01*
X160517418Y-109099771D01*
X160142204Y-108723902D01*
X159651713Y-108520232D01*
X159120617Y-108519769D01*
X158629771Y-108722582D01*
X158253902Y-109097796D01*
X158241651Y-109127300D01*
X131456179Y-109127300D01*
X131533000Y-108741093D01*
X131533000Y-108682907D01*
X131456179Y-108296700D01*
X166549000Y-108296700D01*
X166839839Y-108238848D01*
X167086401Y-108074101D01*
X173280000Y-101880502D01*
X173280000Y-126290000D01*
X107918769Y-126290000D01*
X108070229Y-126227418D01*
X108446098Y-125852204D01*
X108473658Y-125785833D01*
X108708328Y-125942634D01*
X108764519Y-125953811D01*
X109047003Y-126010002D01*
X109047008Y-126010001D01*
X113344994Y-126010001D01*
X113344999Y-126010002D01*
X113627483Y-125953811D01*
X113683674Y-125942634D01*
X113970789Y-125750791D01*
X114359645Y-125361935D01*
X114933855Y-125936145D01*
X115237191Y-126138827D01*
X115595000Y-126210000D01*
X119195000Y-126210000D01*
X119552809Y-126138827D01*
X119856145Y-125936145D01*
X120467648Y-125324642D01*
X120867614Y-125245084D01*
X121268277Y-124977370D01*
X121395000Y-124787715D01*
X121521723Y-124977370D01*
X121922386Y-125245084D01*
X122395000Y-125339093D01*
X122867614Y-125245084D01*
X123268277Y-124977370D01*
X123535991Y-124576707D01*
X123630000Y-124104093D01*
X123630000Y-123545907D01*
X123591827Y-123354000D01*
X125691000Y-123354000D01*
X125981839Y-123296148D01*
X126228401Y-123131401D01*
X128595619Y-120764183D01*
X128625900Y-120776757D01*
X129181661Y-120777242D01*
X129695303Y-120565010D01*
X130088629Y-120172370D01*
X130301757Y-119659100D01*
X130302242Y-119103339D01*
X130090010Y-118589697D01*
X129728245Y-118227300D01*
X137930720Y-118227300D01*
X142970831Y-123267410D01*
X142895648Y-123448469D01*
X142894994Y-124198241D01*
X143181314Y-124891191D01*
X143711021Y-125421822D01*
X144403469Y-125709352D01*
X145153241Y-125710006D01*
X145846191Y-125423686D01*
X146374898Y-124895900D01*
X163064095Y-124895900D01*
X163064100Y-124895901D01*
X163354060Y-124838223D01*
X163402775Y-124828533D01*
X163689890Y-124636690D01*
X164153438Y-124173142D01*
X164193352Y-124189716D01*
X164843795Y-124190284D01*
X165444943Y-123941894D01*
X165905278Y-123482363D01*
X166154716Y-122881648D01*
X166155284Y-122231205D01*
X165906894Y-121630057D01*
X165447363Y-121169722D01*
X164846648Y-120920284D01*
X164196205Y-120919716D01*
X163595057Y-121168106D01*
X163134722Y-121627637D01*
X162885284Y-122228352D01*
X162884716Y-122878795D01*
X162902232Y-122921188D01*
X162697520Y-123125900D01*
X161553294Y-123125900D01*
X161654716Y-122881648D01*
X161655284Y-122231205D01*
X161406894Y-121630057D01*
X160947363Y-121169722D01*
X160346648Y-120920284D01*
X159696205Y-120919716D01*
X159095057Y-121168106D01*
X158634722Y-121627637D01*
X158385284Y-122228352D01*
X158384716Y-122878795D01*
X158486818Y-123125900D01*
X146530364Y-123125900D01*
X146378686Y-122758809D01*
X145848979Y-122228178D01*
X145156531Y-121940648D01*
X144406759Y-121939994D01*
X144222647Y-122016067D01*
X138923090Y-116716510D01*
X138753375Y-116603111D01*
X138635975Y-116524667D01*
X138579784Y-116513490D01*
X138297300Y-116457299D01*
X138297295Y-116457300D01*
X131263533Y-116457300D01*
X131342175Y-116378795D01*
X158384716Y-116378795D01*
X158633106Y-116979943D01*
X159092637Y-117440278D01*
X159693352Y-117689716D01*
X160343795Y-117690284D01*
X160944943Y-117441894D01*
X161405278Y-116982363D01*
X161654716Y-116381648D01*
X161654718Y-116378795D01*
X162884716Y-116378795D01*
X163133106Y-116979943D01*
X163592637Y-117440278D01*
X164193352Y-117689716D01*
X164843795Y-117690284D01*
X165444943Y-117441894D01*
X165905278Y-116982363D01*
X166154716Y-116381648D01*
X166155284Y-115731205D01*
X165906894Y-115130057D01*
X165447363Y-114669722D01*
X164846648Y-114420284D01*
X164196205Y-114419716D01*
X163595057Y-114668106D01*
X163134722Y-115127637D01*
X162885284Y-115728352D01*
X162884716Y-116378795D01*
X161654718Y-116378795D01*
X161655284Y-115731205D01*
X161406894Y-115130057D01*
X160947363Y-114669722D01*
X160346648Y-114420284D01*
X159696205Y-114419716D01*
X159095057Y-114668106D01*
X158634722Y-115127637D01*
X158385284Y-115728352D01*
X158384716Y-116378795D01*
X131342175Y-116378795D01*
X131358629Y-116362370D01*
X131571757Y-115849100D01*
X131572242Y-115293339D01*
X131360010Y-114779697D01*
X130967370Y-114386371D01*
X130454100Y-114173243D01*
X129898339Y-114172758D01*
X129384697Y-114384990D01*
X128991371Y-114777630D01*
X128905051Y-114985512D01*
X128820010Y-114779697D01*
X128427370Y-114386371D01*
X127914100Y-114173243D01*
X127358339Y-114172758D01*
X126844697Y-114384990D01*
X126451371Y-114777630D01*
X126365051Y-114985512D01*
X126280010Y-114779697D01*
X125887370Y-114386371D01*
X125374100Y-114173243D01*
X124818339Y-114172758D01*
X124304697Y-114384990D01*
X123911371Y-114777630D01*
X123825051Y-114985512D01*
X123740010Y-114779697D01*
X123347370Y-114386371D01*
X123092645Y-114280600D01*
X123929400Y-114280600D01*
X124220239Y-114222748D01*
X124466801Y-114058001D01*
X124486561Y-114038241D01*
X142894994Y-114038241D01*
X143181314Y-114731191D01*
X143711021Y-115261822D01*
X144403469Y-115549352D01*
X145153241Y-115550006D01*
X145846191Y-115263686D01*
X146376822Y-114733979D01*
X146664352Y-114041531D01*
X146665006Y-113291759D01*
X146378686Y-112598809D01*
X145848979Y-112068178D01*
X145156531Y-111780648D01*
X144406759Y-111779994D01*
X143713809Y-112066314D01*
X143183178Y-112596021D01*
X142895648Y-113288469D01*
X142894994Y-114038241D01*
X124486561Y-114038241D01*
X124716546Y-113808256D01*
X124768309Y-113829750D01*
X125339187Y-113830248D01*
X125866800Y-113612243D01*
X126270824Y-113208923D01*
X126489750Y-112681691D01*
X126490248Y-112110813D01*
X126272243Y-111583200D01*
X125868923Y-111179176D01*
X125341691Y-110960250D01*
X124770813Y-110959752D01*
X124243200Y-111177757D01*
X123839176Y-111581077D01*
X123805187Y-111662931D01*
X123772243Y-111583200D01*
X123368923Y-111179176D01*
X122841691Y-110960250D01*
X122270813Y-110959752D01*
X121743200Y-111177757D01*
X121339176Y-111581077D01*
X121230904Y-111841824D01*
X121147418Y-111639771D01*
X120772204Y-111263902D01*
X120281713Y-111060232D01*
X119750617Y-111059769D01*
X119259771Y-111262582D01*
X118883902Y-111637796D01*
X118869943Y-111671413D01*
X118762161Y-111692852D01*
X118515599Y-111857599D01*
X115856985Y-114516213D01*
X115727370Y-114386371D01*
X115214100Y-114173243D01*
X114658339Y-114172758D01*
X114625945Y-114186143D01*
X114063201Y-113623399D01*
X113816639Y-113458652D01*
X113525800Y-113400800D01*
X112144836Y-113400800D01*
X112207622Y-113338014D01*
X112092747Y-113223139D01*
X112338864Y-113149005D01*
X112490071Y-112728329D01*
X113642284Y-112728329D01*
X113785203Y-113073396D01*
X114132337Y-113461764D01*
X114601669Y-113687727D01*
X114808000Y-113565206D01*
X114808000Y-112522000D01*
X115062000Y-112522000D01*
X115062000Y-113565206D01*
X115268331Y-113687727D01*
X115737663Y-113461764D01*
X116084797Y-113073396D01*
X116227716Y-112728329D01*
X116104374Y-112522000D01*
X115062000Y-112522000D01*
X114808000Y-112522000D01*
X113765626Y-112522000D01*
X113642284Y-112728329D01*
X112490071Y-112728329D01*
X112531965Y-112611777D01*
X112505738Y-112061671D01*
X113642284Y-112061671D01*
X113765626Y-112268000D01*
X114808000Y-112268000D01*
X114808000Y-111224794D01*
X115062000Y-111224794D01*
X115062000Y-112268000D01*
X116104374Y-112268000D01*
X116227716Y-112061671D01*
X116084797Y-111716604D01*
X115737663Y-111328236D01*
X115268331Y-111102273D01*
X115062000Y-111224794D01*
X114808000Y-111224794D01*
X114601669Y-111102273D01*
X114132337Y-111328236D01*
X113785203Y-111716604D01*
X113642284Y-112061671D01*
X112505738Y-112061671D01*
X112504778Y-112041546D01*
X112338864Y-111640995D01*
X112092745Y-111566861D01*
X111264605Y-112395000D01*
X111278748Y-112409142D01*
X111099142Y-112588748D01*
X111085000Y-112574605D01*
X111070858Y-112588748D01*
X110891252Y-112409142D01*
X110905395Y-112395000D01*
X110077255Y-111566861D01*
X109831136Y-111640995D01*
X109828804Y-111647483D01*
X109802243Y-111583200D01*
X109606640Y-111387255D01*
X110256861Y-111387255D01*
X111085000Y-112215395D01*
X111913139Y-111387255D01*
X111839005Y-111141136D01*
X111301777Y-110948035D01*
X110731546Y-110975222D01*
X110330995Y-111141136D01*
X110256861Y-111387255D01*
X109606640Y-111387255D01*
X109398923Y-111179176D01*
X108871691Y-110960250D01*
X108300813Y-110959752D01*
X107773200Y-111177757D01*
X107369176Y-111581077D01*
X107150250Y-112108309D01*
X107149752Y-112679187D01*
X107367757Y-113206800D01*
X107771077Y-113610824D01*
X108298309Y-113829750D01*
X108869187Y-113830248D01*
X108923149Y-113807951D01*
X109372859Y-114257661D01*
X109064697Y-114384990D01*
X108671371Y-114777630D01*
X108585051Y-114985512D01*
X108500010Y-114779697D01*
X108107370Y-114386371D01*
X107594100Y-114173243D01*
X107038339Y-114172758D01*
X106524697Y-114384990D01*
X106131371Y-114777630D01*
X106045051Y-114985512D01*
X105960010Y-114779697D01*
X105567370Y-114386371D01*
X105054100Y-114173243D01*
X104498339Y-114172758D01*
X103984697Y-114384990D01*
X103591371Y-114777630D01*
X103505051Y-114985512D01*
X103420010Y-114779697D01*
X103027370Y-114386371D01*
X102514100Y-114173243D01*
X101958339Y-114172758D01*
X101444697Y-114384990D01*
X101051371Y-114777630D01*
X100838243Y-115290900D01*
X100837758Y-115846661D01*
X101049990Y-116360303D01*
X101442630Y-116753629D01*
X101955900Y-116966757D01*
X102511661Y-116967242D01*
X103025303Y-116755010D01*
X103418629Y-116362370D01*
X103504949Y-116154488D01*
X103589990Y-116360303D01*
X103622751Y-116393121D01*
X103593894Y-116398861D01*
X103531525Y-116411267D01*
X103244410Y-116603110D01*
X103244408Y-116603113D01*
X101609210Y-118238310D01*
X101417367Y-118525425D01*
X101417367Y-118525426D01*
X101349999Y-118864100D01*
X101350000Y-118864105D01*
X101350000Y-121552127D01*
X101103902Y-121797796D01*
X100900232Y-122288287D01*
X100899769Y-122819383D01*
X100999189Y-123059999D01*
X100211578Y-123059999D01*
X99080790Y-121929210D01*
X99024879Y-121891852D01*
X98793675Y-121737367D01*
X98737484Y-121726190D01*
X98591557Y-121697163D01*
X98558162Y-121519683D01*
X98419090Y-121303559D01*
X98206890Y-121158569D01*
X97955000Y-121107560D01*
X96355000Y-121107560D01*
X96119683Y-121151838D01*
X95903559Y-121290910D01*
X95758569Y-121503110D01*
X95734054Y-121624166D01*
X95397191Y-121691173D01*
X95093855Y-121893855D01*
X94717710Y-122270000D01*
X90825000Y-122270000D01*
X90825000Y-121190750D01*
X90666250Y-121032000D01*
X88567000Y-121032000D01*
X88567000Y-121052000D01*
X88313000Y-121052000D01*
X88313000Y-121032000D01*
X86213750Y-121032000D01*
X86055000Y-121190750D01*
X86055000Y-121578423D01*
X83231000Y-118754422D01*
X83231000Y-118394026D01*
X83330302Y-118493327D01*
X83563691Y-118590000D01*
X85154250Y-118590000D01*
X85313000Y-118431250D01*
X85313000Y-116332000D01*
X85567000Y-116332000D01*
X85567000Y-118431250D01*
X85725750Y-118590000D01*
X86394696Y-118590000D01*
X86330302Y-118616673D01*
X86151673Y-118795301D01*
X86055000Y-119028690D01*
X86055000Y-120619250D01*
X86213750Y-120778000D01*
X88313000Y-120778000D01*
X88313000Y-118678750D01*
X88567000Y-118678750D01*
X88567000Y-120778000D01*
X90666250Y-120778000D01*
X90825000Y-120619250D01*
X90825000Y-119028690D01*
X90728327Y-118795301D01*
X90549698Y-118616673D01*
X90515337Y-118602440D01*
X93190000Y-118602440D01*
X93425317Y-118558162D01*
X93641441Y-118419090D01*
X93786431Y-118206890D01*
X93837440Y-117955000D01*
X93837440Y-115535960D01*
X93947932Y-115803371D01*
X94379357Y-116235551D01*
X94943330Y-116469733D01*
X95553991Y-116470265D01*
X96118371Y-116237068D01*
X96286613Y-116069120D01*
X96286838Y-116070317D01*
X96425910Y-116286441D01*
X96638110Y-116431431D01*
X96890000Y-116482440D01*
X98690000Y-116482440D01*
X98925317Y-116438162D01*
X99141441Y-116299090D01*
X99286431Y-116086890D01*
X99337440Y-115835000D01*
X99337440Y-114035000D01*
X99293162Y-113799683D01*
X99154090Y-113583559D01*
X98941890Y-113438569D01*
X98764986Y-113402745D01*
X101446861Y-113402745D01*
X101520995Y-113648864D01*
X102058223Y-113841965D01*
X102628454Y-113814778D01*
X103029005Y-113648864D01*
X103103139Y-113402745D01*
X102275000Y-112574605D01*
X101446861Y-113402745D01*
X98764986Y-113402745D01*
X98690000Y-113387560D01*
X96890000Y-113387560D01*
X96654683Y-113431838D01*
X96438559Y-113570910D01*
X96293569Y-113783110D01*
X96289433Y-113803534D01*
X96120643Y-113634449D01*
X95556670Y-113400267D01*
X94946009Y-113399735D01*
X94381629Y-113632932D01*
X93949449Y-114064357D01*
X93821786Y-114371805D01*
X93793162Y-114219683D01*
X93654090Y-114003559D01*
X93441890Y-113858569D01*
X93190000Y-113807560D01*
X89690000Y-113807560D01*
X89454683Y-113851838D01*
X89238559Y-113990910D01*
X89093569Y-114203110D01*
X89042560Y-114455000D01*
X89042560Y-117955000D01*
X89086838Y-118190317D01*
X89225910Y-118406441D01*
X89392109Y-118520000D01*
X88725750Y-118520000D01*
X88567000Y-118678750D01*
X88313000Y-118678750D01*
X88154250Y-118520000D01*
X87485304Y-118520000D01*
X87549698Y-118493327D01*
X87728327Y-118314699D01*
X87825000Y-118081310D01*
X87825000Y-116490750D01*
X87666250Y-116332000D01*
X85567000Y-116332000D01*
X85313000Y-116332000D01*
X85293000Y-116332000D01*
X85293000Y-116078000D01*
X85313000Y-116078000D01*
X85313000Y-113978750D01*
X85567000Y-113978750D01*
X85567000Y-116078000D01*
X87666250Y-116078000D01*
X87825000Y-115919250D01*
X87825000Y-114328690D01*
X87728327Y-114095301D01*
X87549698Y-113916673D01*
X87316309Y-113820000D01*
X85725750Y-113820000D01*
X85567000Y-113978750D01*
X85313000Y-113978750D01*
X85154250Y-113820000D01*
X83563691Y-113820000D01*
X83330302Y-113916673D01*
X83231000Y-114015974D01*
X83231000Y-112178223D01*
X100828035Y-112178223D01*
X100855222Y-112748454D01*
X101021136Y-113149005D01*
X101267255Y-113223139D01*
X102095395Y-112395000D01*
X102454605Y-112395000D01*
X103282745Y-113223139D01*
X103528864Y-113149005D01*
X103531196Y-113142517D01*
X103557757Y-113206800D01*
X103961077Y-113610824D01*
X104488309Y-113829750D01*
X105059187Y-113830248D01*
X105586800Y-113612243D01*
X105990824Y-113208923D01*
X106209750Y-112681691D01*
X106210248Y-112110813D01*
X105992243Y-111583200D01*
X105588923Y-111179176D01*
X105061691Y-110960250D01*
X104490813Y-110959752D01*
X103963200Y-111177757D01*
X103559176Y-111581077D01*
X103531577Y-111647544D01*
X103528864Y-111640995D01*
X103282745Y-111566861D01*
X102454605Y-112395000D01*
X102095395Y-112395000D01*
X101267255Y-111566861D01*
X101021136Y-111640995D01*
X100828035Y-112178223D01*
X83231000Y-112178223D01*
X83231000Y-111387255D01*
X101446861Y-111387255D01*
X102275000Y-112215395D01*
X103103139Y-111387255D01*
X103029005Y-111141136D01*
X102491777Y-110948035D01*
X101921546Y-110975222D01*
X101520995Y-111141136D01*
X101446861Y-111387255D01*
X83231000Y-111387255D01*
X83231000Y-108870750D01*
X86095000Y-108870750D01*
X86095000Y-109611309D01*
X86191673Y-109844698D01*
X86370301Y-110023327D01*
X86603690Y-110120000D01*
X87344250Y-110120000D01*
X87503000Y-109961250D01*
X87503000Y-108712000D01*
X87757000Y-108712000D01*
X87757000Y-109961250D01*
X87915750Y-110120000D01*
X88656310Y-110120000D01*
X88889699Y-110023327D01*
X89068327Y-109844698D01*
X89165000Y-109611309D01*
X89165000Y-109552745D01*
X93151861Y-109552745D01*
X93225995Y-109798864D01*
X93763223Y-109991965D01*
X94333454Y-109964778D01*
X94734005Y-109798864D01*
X94808139Y-109552745D01*
X93980000Y-108724605D01*
X93151861Y-109552745D01*
X89165000Y-109552745D01*
X89165000Y-108870750D01*
X89006250Y-108712000D01*
X87757000Y-108712000D01*
X87503000Y-108712000D01*
X86253750Y-108712000D01*
X86095000Y-108870750D01*
X83231000Y-108870750D01*
X83231000Y-106348991D01*
X86094735Y-106348991D01*
X86327932Y-106913371D01*
X86505092Y-107090841D01*
X86370301Y-107146673D01*
X86191673Y-107325302D01*
X86095000Y-107558691D01*
X86095000Y-108299250D01*
X86253750Y-108458000D01*
X87503000Y-108458000D01*
X87503000Y-108438000D01*
X87757000Y-108438000D01*
X87757000Y-108458000D01*
X89006250Y-108458000D01*
X89136027Y-108328223D01*
X92533035Y-108328223D01*
X92560222Y-108898454D01*
X92726136Y-109299005D01*
X92972255Y-109373139D01*
X93800395Y-108545000D01*
X94159605Y-108545000D01*
X94987745Y-109373139D01*
X95233864Y-109299005D01*
X95342146Y-108997750D01*
X98083000Y-108997750D01*
X98083000Y-109688309D01*
X98179673Y-109921698D01*
X98358301Y-110100327D01*
X98591690Y-110197000D01*
X99282250Y-110197000D01*
X99441000Y-110038250D01*
X99441000Y-108839000D01*
X98241750Y-108839000D01*
X98083000Y-108997750D01*
X95342146Y-108997750D01*
X95426965Y-108761777D01*
X95399778Y-108191546D01*
X95233864Y-107790995D01*
X94987745Y-107716861D01*
X94159605Y-108545000D01*
X93800395Y-108545000D01*
X92972255Y-107716861D01*
X92726136Y-107790995D01*
X92533035Y-108328223D01*
X89136027Y-108328223D01*
X89165000Y-108299250D01*
X89165000Y-107558691D01*
X89068327Y-107325302D01*
X88889699Y-107146673D01*
X88755006Y-107090881D01*
X88930551Y-106915643D01*
X89164733Y-106351670D01*
X89165265Y-105741009D01*
X89119515Y-105630287D01*
X92389802Y-102360000D01*
X97331922Y-102360000D01*
X97454858Y-102543988D01*
X97887964Y-102833379D01*
X98398846Y-102935000D01*
X98451154Y-102935000D01*
X98962036Y-102833379D01*
X99395142Y-102543988D01*
X99684533Y-102110882D01*
X99733564Y-101864383D01*
X102169769Y-101864383D01*
X102372582Y-102355229D01*
X102747796Y-102731098D01*
X103238287Y-102934768D01*
X103769383Y-102935231D01*
X104260229Y-102732418D01*
X104636098Y-102357204D01*
X104839768Y-101866713D01*
X104840231Y-101335617D01*
X104637418Y-100844771D01*
X104262204Y-100468902D01*
X103771713Y-100265232D01*
X103240617Y-100264769D01*
X102749771Y-100467582D01*
X102373902Y-100842796D01*
X102170232Y-101333287D01*
X102169769Y-101864383D01*
X99733564Y-101864383D01*
X99786154Y-101600000D01*
X99684533Y-101089118D01*
X99395142Y-100656012D01*
X98962036Y-100366621D01*
X98451154Y-100265000D01*
X98398846Y-100265000D01*
X97887964Y-100366621D01*
X97454858Y-100656012D01*
X97331922Y-100840000D01*
X92075000Y-100840000D01*
X91784160Y-100897852D01*
X91537599Y-101062599D01*
X88044964Y-104555234D01*
X87936670Y-104510267D01*
X87326009Y-104509735D01*
X86761629Y-104742932D01*
X86329449Y-105174357D01*
X86095267Y-105738330D01*
X86094735Y-106348991D01*
X83231000Y-106348991D01*
X83231000Y-103691290D01*
X86386145Y-100536145D01*
X86588827Y-100232809D01*
X86653502Y-99907669D01*
X86810317Y-99878162D01*
X87026441Y-99739090D01*
X87171431Y-99526890D01*
X87222440Y-99275000D01*
X87222440Y-98249850D01*
X91857653Y-93614637D01*
X91926845Y-93962491D01*
X92259591Y-94460481D01*
X92490845Y-94615000D01*
X92259591Y-94769519D01*
X91926845Y-95267509D01*
X91810000Y-95854928D01*
X91810000Y-95915072D01*
X91926845Y-96502491D01*
X92207837Y-96923026D01*
X91993559Y-97060910D01*
X91848569Y-97273110D01*
X91797560Y-97525000D01*
X91797560Y-99325000D01*
X91841838Y-99560317D01*
X91980910Y-99776441D01*
X92193110Y-99921431D01*
X92445000Y-99972440D01*
X94245000Y-99972440D01*
X94480317Y-99928162D01*
X94696441Y-99789090D01*
X94841431Y-99576890D01*
X94892440Y-99325000D01*
X94892440Y-97790000D01*
X97063846Y-97790000D01*
X97165467Y-98300882D01*
X97454858Y-98733988D01*
X97887964Y-99023379D01*
X98398846Y-99125000D01*
X98451154Y-99125000D01*
X98962036Y-99023379D01*
X99395142Y-98733988D01*
X99684533Y-98300882D01*
X99733564Y-98054383D01*
X102169769Y-98054383D01*
X102372582Y-98545229D01*
X102747796Y-98921098D01*
X103238287Y-99124768D01*
X103769383Y-99125231D01*
X104260229Y-98922418D01*
X104636098Y-98547204D01*
X104839768Y-98056713D01*
X104840231Y-97525617D01*
X104637418Y-97034771D01*
X104262204Y-96658902D01*
X103771713Y-96455232D01*
X103240617Y-96454769D01*
X102749771Y-96657582D01*
X102373902Y-97032796D01*
X102170232Y-97523287D01*
X102169769Y-98054383D01*
X99733564Y-98054383D01*
X99786154Y-97790000D01*
X99684533Y-97279118D01*
X99395142Y-96846012D01*
X98962036Y-96556621D01*
X98451154Y-96455000D01*
X98398846Y-96455000D01*
X97887964Y-96556621D01*
X97454858Y-96846012D01*
X97165467Y-97279118D01*
X97063846Y-97790000D01*
X94892440Y-97790000D01*
X94892440Y-97525000D01*
X94848162Y-97289683D01*
X94825123Y-97253879D01*
X98327401Y-93751601D01*
X98492148Y-93505039D01*
X98550000Y-93214200D01*
X98550000Y-93202655D01*
X98921098Y-92832204D01*
X99124768Y-92341713D01*
X99125231Y-91810617D01*
X98958140Y-91406226D01*
X99168601Y-91265601D01*
X100214501Y-90219701D01*
X100379248Y-89973139D01*
X100437100Y-89682300D01*
X100437100Y-88384502D01*
X101746753Y-87074849D01*
X101899858Y-87303988D01*
G36*
X116398748Y-119365858D02*
X116384605Y-119380000D01*
X117185213Y-120180608D01*
X117427397Y-120111143D01*
X117477509Y-119970682D01*
X117559990Y-120170303D01*
X117952630Y-120563629D01*
X118465900Y-120776757D01*
X119021661Y-120777242D01*
X119535303Y-120565010D01*
X119928629Y-120172370D01*
X120014949Y-119964488D01*
X120099990Y-120170303D01*
X120492630Y-120563629D01*
X121005900Y-120776757D01*
X121561661Y-120777242D01*
X122075303Y-120565010D01*
X122468629Y-120172370D01*
X122554949Y-119964488D01*
X122639990Y-120170303D01*
X123032630Y-120563629D01*
X123545900Y-120776757D01*
X124101661Y-120777242D01*
X124615303Y-120565010D01*
X125008629Y-120172370D01*
X125094949Y-119964488D01*
X125179990Y-120170303D01*
X125572630Y-120563629D01*
X126085900Y-120776757D01*
X126433138Y-120777060D01*
X125376198Y-121834000D01*
X120045300Y-121834000D01*
X119754461Y-121891852D01*
X119507899Y-122056599D01*
X119042636Y-122521862D01*
X118867614Y-122404916D01*
X118395000Y-122310907D01*
X117922386Y-122404916D01*
X117521723Y-122672630D01*
X117395000Y-122862285D01*
X117268277Y-122672630D01*
X116867614Y-122404916D01*
X116395000Y-122310907D01*
X115922386Y-122404916D01*
X115747364Y-122521862D01*
X113994201Y-120768699D01*
X113982026Y-120760564D01*
X114455303Y-120565010D01*
X114660457Y-120360213D01*
X115404392Y-120360213D01*
X115473857Y-120602397D01*
X115997302Y-120789144D01*
X116552368Y-120761362D01*
X116936143Y-120602397D01*
X117005608Y-120360213D01*
X116205000Y-119559605D01*
X115404392Y-120360213D01*
X114660457Y-120360213D01*
X114848629Y-120172370D01*
X114928395Y-119980273D01*
X114982603Y-120111143D01*
X115224787Y-120180608D01*
X116025395Y-119380000D01*
X116011253Y-119365858D01*
X116190858Y-119186253D01*
X116205000Y-119200395D01*
X116219143Y-119186253D01*
X116398748Y-119365858D01*
X116398748Y-119365858D01*
G37*
X116398748Y-119365858D02*
X116384605Y-119380000D01*
X117185213Y-120180608D01*
X117427397Y-120111143D01*
X117477509Y-119970682D01*
X117559990Y-120170303D01*
X117952630Y-120563629D01*
X118465900Y-120776757D01*
X119021661Y-120777242D01*
X119535303Y-120565010D01*
X119928629Y-120172370D01*
X120014949Y-119964488D01*
X120099990Y-120170303D01*
X120492630Y-120563629D01*
X121005900Y-120776757D01*
X121561661Y-120777242D01*
X122075303Y-120565010D01*
X122468629Y-120172370D01*
X122554949Y-119964488D01*
X122639990Y-120170303D01*
X123032630Y-120563629D01*
X123545900Y-120776757D01*
X124101661Y-120777242D01*
X124615303Y-120565010D01*
X125008629Y-120172370D01*
X125094949Y-119964488D01*
X125179990Y-120170303D01*
X125572630Y-120563629D01*
X126085900Y-120776757D01*
X126433138Y-120777060D01*
X125376198Y-121834000D01*
X120045300Y-121834000D01*
X119754461Y-121891852D01*
X119507899Y-122056599D01*
X119042636Y-122521862D01*
X118867614Y-122404916D01*
X118395000Y-122310907D01*
X117922386Y-122404916D01*
X117521723Y-122672630D01*
X117395000Y-122862285D01*
X117268277Y-122672630D01*
X116867614Y-122404916D01*
X116395000Y-122310907D01*
X115922386Y-122404916D01*
X115747364Y-122521862D01*
X113994201Y-120768699D01*
X113982026Y-120760564D01*
X114455303Y-120565010D01*
X114660457Y-120360213D01*
X115404392Y-120360213D01*
X115473857Y-120602397D01*
X115997302Y-120789144D01*
X116552368Y-120761362D01*
X116936143Y-120602397D01*
X117005608Y-120360213D01*
X116205000Y-119559605D01*
X115404392Y-120360213D01*
X114660457Y-120360213D01*
X114848629Y-120172370D01*
X114928395Y-119980273D01*
X114982603Y-120111143D01*
X115224787Y-120180608D01*
X116025395Y-119380000D01*
X116011253Y-119365858D01*
X116190858Y-119186253D01*
X116205000Y-119200395D01*
X116219143Y-119186253D01*
X116398748Y-119365858D01*
G36*
X152653498Y-94662001D02*
X152818245Y-94772080D01*
X152900061Y-94826748D01*
X153190900Y-94884600D01*
X162427933Y-94884600D01*
X162395250Y-94963309D01*
X162394752Y-95534187D01*
X162612757Y-96061800D01*
X163016077Y-96465824D01*
X163543309Y-96684750D01*
X164114187Y-96685248D01*
X164641800Y-96467243D01*
X164718187Y-96390989D01*
X165970093Y-97642895D01*
X165575995Y-97806136D01*
X165501861Y-98052255D01*
X166330000Y-98880395D01*
X166344142Y-98866252D01*
X166523748Y-99045858D01*
X166509605Y-99060000D01*
X167337745Y-99888139D01*
X167583864Y-99814005D01*
X167731226Y-99404028D01*
X169194599Y-100867401D01*
X169441160Y-101032148D01*
X169489414Y-101041746D01*
X169732000Y-101090000D01*
X170177046Y-101090000D01*
X170370853Y-101380054D01*
X170744369Y-101629629D01*
X167947098Y-104426900D01*
X158420074Y-104426900D01*
X158467828Y-104394992D01*
X158770660Y-103941773D01*
X158877000Y-103407164D01*
X158877000Y-102332836D01*
X158770660Y-101798227D01*
X158467828Y-101345008D01*
X158014609Y-101042176D01*
X157480000Y-100935836D01*
X156945391Y-101042176D01*
X156492172Y-101345008D01*
X156210000Y-101767307D01*
X155927828Y-101345008D01*
X155474609Y-101042176D01*
X154940000Y-100935836D01*
X154405391Y-101042176D01*
X153952172Y-101345008D01*
X153670000Y-101767307D01*
X153387828Y-101345008D01*
X152934609Y-101042176D01*
X152400000Y-100935836D01*
X151865391Y-101042176D01*
X151412172Y-101345008D01*
X151130000Y-101767307D01*
X150847828Y-101345008D01*
X150599371Y-101178994D01*
X150562148Y-100991861D01*
X150397401Y-100745299D01*
X150150839Y-100580552D01*
X149860000Y-100522700D01*
X145793502Y-100522700D01*
X144614989Y-99344187D01*
X162394752Y-99344187D01*
X162612757Y-99871800D01*
X163016077Y-100275824D01*
X163543309Y-100494750D01*
X164114187Y-100495248D01*
X164641800Y-100277243D01*
X164851663Y-100067745D01*
X165501861Y-100067745D01*
X165575995Y-100313864D01*
X166113223Y-100506965D01*
X166683454Y-100479778D01*
X167084005Y-100313864D01*
X167158139Y-100067745D01*
X166330000Y-99239605D01*
X165501861Y-100067745D01*
X164851663Y-100067745D01*
X165045824Y-99873923D01*
X165073423Y-99807456D01*
X165076136Y-99814005D01*
X165322255Y-99888139D01*
X166150395Y-99060000D01*
X165322255Y-98231861D01*
X165076136Y-98305995D01*
X165073804Y-98312483D01*
X165047243Y-98248200D01*
X164643923Y-97844176D01*
X164116691Y-97625250D01*
X163545813Y-97624752D01*
X163018200Y-97842757D01*
X162614176Y-98246077D01*
X162395250Y-98773309D01*
X162394752Y-99344187D01*
X144614989Y-99344187D01*
X142050774Y-96779972D01*
X142051231Y-96255617D01*
X141848418Y-95764771D01*
X141473204Y-95388902D01*
X141138473Y-95249909D01*
X141471229Y-95112418D01*
X141847098Y-94737204D01*
X142050768Y-94246713D01*
X142051231Y-93715617D01*
X141850703Y-93230300D01*
X151221798Y-93230300D01*
X152653498Y-94662001D01*
X152653498Y-94662001D01*
G37*
X152653498Y-94662001D02*
X152818245Y-94772080D01*
X152900061Y-94826748D01*
X153190900Y-94884600D01*
X162427933Y-94884600D01*
X162395250Y-94963309D01*
X162394752Y-95534187D01*
X162612757Y-96061800D01*
X163016077Y-96465824D01*
X163543309Y-96684750D01*
X164114187Y-96685248D01*
X164641800Y-96467243D01*
X164718187Y-96390989D01*
X165970093Y-97642895D01*
X165575995Y-97806136D01*
X165501861Y-98052255D01*
X166330000Y-98880395D01*
X166344142Y-98866252D01*
X166523748Y-99045858D01*
X166509605Y-99060000D01*
X167337745Y-99888139D01*
X167583864Y-99814005D01*
X167731226Y-99404028D01*
X169194599Y-100867401D01*
X169441160Y-101032148D01*
X169489414Y-101041746D01*
X169732000Y-101090000D01*
X170177046Y-101090000D01*
X170370853Y-101380054D01*
X170744369Y-101629629D01*
X167947098Y-104426900D01*
X158420074Y-104426900D01*
X158467828Y-104394992D01*
X158770660Y-103941773D01*
X158877000Y-103407164D01*
X158877000Y-102332836D01*
X158770660Y-101798227D01*
X158467828Y-101345008D01*
X158014609Y-101042176D01*
X157480000Y-100935836D01*
X156945391Y-101042176D01*
X156492172Y-101345008D01*
X156210000Y-101767307D01*
X155927828Y-101345008D01*
X155474609Y-101042176D01*
X154940000Y-100935836D01*
X154405391Y-101042176D01*
X153952172Y-101345008D01*
X153670000Y-101767307D01*
X153387828Y-101345008D01*
X152934609Y-101042176D01*
X152400000Y-100935836D01*
X151865391Y-101042176D01*
X151412172Y-101345008D01*
X151130000Y-101767307D01*
X150847828Y-101345008D01*
X150599371Y-101178994D01*
X150562148Y-100991861D01*
X150397401Y-100745299D01*
X150150839Y-100580552D01*
X149860000Y-100522700D01*
X145793502Y-100522700D01*
X144614989Y-99344187D01*
X162394752Y-99344187D01*
X162612757Y-99871800D01*
X163016077Y-100275824D01*
X163543309Y-100494750D01*
X164114187Y-100495248D01*
X164641800Y-100277243D01*
X164851663Y-100067745D01*
X165501861Y-100067745D01*
X165575995Y-100313864D01*
X166113223Y-100506965D01*
X166683454Y-100479778D01*
X167084005Y-100313864D01*
X167158139Y-100067745D01*
X166330000Y-99239605D01*
X165501861Y-100067745D01*
X164851663Y-100067745D01*
X165045824Y-99873923D01*
X165073423Y-99807456D01*
X165076136Y-99814005D01*
X165322255Y-99888139D01*
X166150395Y-99060000D01*
X165322255Y-98231861D01*
X165076136Y-98305995D01*
X165073804Y-98312483D01*
X165047243Y-98248200D01*
X164643923Y-97844176D01*
X164116691Y-97625250D01*
X163545813Y-97624752D01*
X163018200Y-97842757D01*
X162614176Y-98246077D01*
X162395250Y-98773309D01*
X162394752Y-99344187D01*
X144614989Y-99344187D01*
X142050774Y-96779972D01*
X142051231Y-96255617D01*
X141848418Y-95764771D01*
X141473204Y-95388902D01*
X141138473Y-95249909D01*
X141471229Y-95112418D01*
X141847098Y-94737204D01*
X142050768Y-94246713D01*
X142051231Y-93715617D01*
X141850703Y-93230300D01*
X151221798Y-93230300D01*
X152653498Y-94662001D01*
G36*
X151412172Y-89154992D02*
X151865391Y-89457824D01*
X152400000Y-89564164D01*
X152662475Y-89511955D01*
X153946308Y-90795787D01*
X153946310Y-90795790D01*
X154229484Y-90985000D01*
X154233425Y-90987633D01*
X154572100Y-91055001D01*
X154572105Y-91055000D01*
X169959146Y-91055000D01*
X169996838Y-91255317D01*
X170135910Y-91471441D01*
X170348110Y-91616431D01*
X170415541Y-91630086D01*
X170370853Y-91659946D01*
X170048946Y-92141715D01*
X169935907Y-92710000D01*
X170048946Y-93278285D01*
X170370853Y-93760054D01*
X170710188Y-93986790D01*
X170710470Y-93988211D01*
X170568642Y-94054817D01*
X170178355Y-94483076D01*
X170008524Y-94893110D01*
X170129845Y-95123000D01*
X171323000Y-95123000D01*
X171323000Y-95103000D01*
X171577000Y-95103000D01*
X171577000Y-95123000D01*
X171597000Y-95123000D01*
X171597000Y-95377000D01*
X171577000Y-95377000D01*
X171577000Y-95397000D01*
X171323000Y-95397000D01*
X171323000Y-95377000D01*
X170129845Y-95377000D01*
X170008524Y-95606890D01*
X170178355Y-96016924D01*
X170568642Y-96445183D01*
X170711553Y-96512298D01*
X170370853Y-96739946D01*
X170048946Y-97221715D01*
X169935907Y-97790000D01*
X170048946Y-98358285D01*
X170370853Y-98840054D01*
X170700026Y-99060000D01*
X170370853Y-99279946D01*
X170177046Y-99570000D01*
X170046802Y-99570000D01*
X167010933Y-96534131D01*
X167084005Y-96503864D01*
X167158139Y-96257745D01*
X166330000Y-95429605D01*
X166315858Y-95443748D01*
X166136253Y-95264143D01*
X166150395Y-95250000D01*
X166509605Y-95250000D01*
X167337745Y-96078139D01*
X167583864Y-96004005D01*
X167776965Y-95466777D01*
X167749778Y-94896546D01*
X167583864Y-94495995D01*
X167337745Y-94421861D01*
X166509605Y-95250000D01*
X166150395Y-95250000D01*
X166136253Y-95235858D01*
X166315858Y-95056252D01*
X166330000Y-95070395D01*
X167158139Y-94242255D01*
X167084005Y-93996136D01*
X167063707Y-93988840D01*
X167124005Y-93963864D01*
X167198139Y-93717745D01*
X166370000Y-92889605D01*
X165541861Y-93717745D01*
X165615995Y-93963864D01*
X165636293Y-93971160D01*
X165575995Y-93996136D01*
X165501861Y-94242253D01*
X165386986Y-94127378D01*
X165386333Y-94128031D01*
X164933892Y-93675590D01*
X165085824Y-93523923D01*
X165113423Y-93457456D01*
X165116136Y-93464005D01*
X165362255Y-93538139D01*
X166190395Y-92710000D01*
X166549605Y-92710000D01*
X167377745Y-93538139D01*
X167623864Y-93464005D01*
X167816965Y-92926777D01*
X167789778Y-92356546D01*
X167623864Y-91955995D01*
X167377745Y-91881861D01*
X166549605Y-92710000D01*
X166190395Y-92710000D01*
X165362255Y-91881861D01*
X165116136Y-91955995D01*
X165113804Y-91962483D01*
X165087243Y-91898200D01*
X164891640Y-91702255D01*
X165541861Y-91702255D01*
X166370000Y-92530395D01*
X167198139Y-91702255D01*
X167124005Y-91456136D01*
X166586777Y-91263035D01*
X166016546Y-91290222D01*
X165615995Y-91456136D01*
X165541861Y-91702255D01*
X164891640Y-91702255D01*
X164683923Y-91494176D01*
X164156691Y-91275250D01*
X163585813Y-91274752D01*
X163058200Y-91492757D01*
X162654176Y-91896077D01*
X162435250Y-92423309D01*
X162434752Y-92994187D01*
X162587803Y-93364600D01*
X153505703Y-93364600D01*
X152074001Y-91932899D01*
X151827439Y-91768152D01*
X151536600Y-91710300D01*
X142049279Y-91710300D01*
X142050768Y-91706713D01*
X142051228Y-91179574D01*
X143253502Y-89977300D01*
X149860000Y-89977300D01*
X150150839Y-89919448D01*
X150397401Y-89754701D01*
X150562148Y-89508139D01*
X150599371Y-89321006D01*
X150847828Y-89154992D01*
X151130000Y-88732693D01*
X151412172Y-89154992D01*
X151412172Y-89154992D01*
G37*
X151412172Y-89154992D02*
X151865391Y-89457824D01*
X152400000Y-89564164D01*
X152662475Y-89511955D01*
X153946308Y-90795787D01*
X153946310Y-90795790D01*
X154229484Y-90985000D01*
X154233425Y-90987633D01*
X154572100Y-91055001D01*
X154572105Y-91055000D01*
X169959146Y-91055000D01*
X169996838Y-91255317D01*
X170135910Y-91471441D01*
X170348110Y-91616431D01*
X170415541Y-91630086D01*
X170370853Y-91659946D01*
X170048946Y-92141715D01*
X169935907Y-92710000D01*
X170048946Y-93278285D01*
X170370853Y-93760054D01*
X170710188Y-93986790D01*
X170710470Y-93988211D01*
X170568642Y-94054817D01*
X170178355Y-94483076D01*
X170008524Y-94893110D01*
X170129845Y-95123000D01*
X171323000Y-95123000D01*
X171323000Y-95103000D01*
X171577000Y-95103000D01*
X171577000Y-95123000D01*
X171597000Y-95123000D01*
X171597000Y-95377000D01*
X171577000Y-95377000D01*
X171577000Y-95397000D01*
X171323000Y-95397000D01*
X171323000Y-95377000D01*
X170129845Y-95377000D01*
X170008524Y-95606890D01*
X170178355Y-96016924D01*
X170568642Y-96445183D01*
X170711553Y-96512298D01*
X170370853Y-96739946D01*
X170048946Y-97221715D01*
X169935907Y-97790000D01*
X170048946Y-98358285D01*
X170370853Y-98840054D01*
X170700026Y-99060000D01*
X170370853Y-99279946D01*
X170177046Y-99570000D01*
X170046802Y-99570000D01*
X167010933Y-96534131D01*
X167084005Y-96503864D01*
X167158139Y-96257745D01*
X166330000Y-95429605D01*
X166315858Y-95443748D01*
X166136253Y-95264143D01*
X166150395Y-95250000D01*
X166509605Y-95250000D01*
X167337745Y-96078139D01*
X167583864Y-96004005D01*
X167776965Y-95466777D01*
X167749778Y-94896546D01*
X167583864Y-94495995D01*
X167337745Y-94421861D01*
X166509605Y-95250000D01*
X166150395Y-95250000D01*
X166136253Y-95235858D01*
X166315858Y-95056252D01*
X166330000Y-95070395D01*
X167158139Y-94242255D01*
X167084005Y-93996136D01*
X167063707Y-93988840D01*
X167124005Y-93963864D01*
X167198139Y-93717745D01*
X166370000Y-92889605D01*
X165541861Y-93717745D01*
X165615995Y-93963864D01*
X165636293Y-93971160D01*
X165575995Y-93996136D01*
X165501861Y-94242253D01*
X165386986Y-94127378D01*
X165386333Y-94128031D01*
X164933892Y-93675590D01*
X165085824Y-93523923D01*
X165113423Y-93457456D01*
X165116136Y-93464005D01*
X165362255Y-93538139D01*
X166190395Y-92710000D01*
X166549605Y-92710000D01*
X167377745Y-93538139D01*
X167623864Y-93464005D01*
X167816965Y-92926777D01*
X167789778Y-92356546D01*
X167623864Y-91955995D01*
X167377745Y-91881861D01*
X166549605Y-92710000D01*
X166190395Y-92710000D01*
X165362255Y-91881861D01*
X165116136Y-91955995D01*
X165113804Y-91962483D01*
X165087243Y-91898200D01*
X164891640Y-91702255D01*
X165541861Y-91702255D01*
X166370000Y-92530395D01*
X167198139Y-91702255D01*
X167124005Y-91456136D01*
X166586777Y-91263035D01*
X166016546Y-91290222D01*
X165615995Y-91456136D01*
X165541861Y-91702255D01*
X164891640Y-91702255D01*
X164683923Y-91494176D01*
X164156691Y-91275250D01*
X163585813Y-91274752D01*
X163058200Y-91492757D01*
X162654176Y-91896077D01*
X162435250Y-92423309D01*
X162434752Y-92994187D01*
X162587803Y-93364600D01*
X153505703Y-93364600D01*
X152074001Y-91932899D01*
X151827439Y-91768152D01*
X151536600Y-91710300D01*
X142049279Y-91710300D01*
X142050768Y-91706713D01*
X142051228Y-91179574D01*
X143253502Y-89977300D01*
X149860000Y-89977300D01*
X150150839Y-89919448D01*
X150397401Y-89754701D01*
X150562148Y-89508139D01*
X150599371Y-89321006D01*
X150847828Y-89154992D01*
X151130000Y-88732693D01*
X151412172Y-89154992D01*
G36*
X139608846Y-80645000D02*
X139710467Y-81155882D01*
X139999858Y-81588988D01*
X140432964Y-81878379D01*
X140943846Y-81980000D01*
X140996154Y-81980000D01*
X141507036Y-81878379D01*
X141863771Y-81640017D01*
X141973531Y-81749767D01*
X141955813Y-81749752D01*
X141428200Y-81967757D01*
X141024176Y-82371077D01*
X140805250Y-82898309D01*
X140804752Y-83469187D01*
X140848266Y-83574500D01*
X132862379Y-83574500D01*
X131974090Y-82686210D01*
X131898719Y-82635849D01*
X131686975Y-82494367D01*
X131630784Y-82483190D01*
X131348300Y-82426999D01*
X131348295Y-82427000D01*
X131227779Y-82427000D01*
X131098054Y-82232853D01*
X131092142Y-82228903D01*
X131257699Y-82160327D01*
X131436327Y-81981698D01*
X131533000Y-81748309D01*
X131533000Y-81057750D01*
X131374250Y-80899000D01*
X130175000Y-80899000D01*
X130175000Y-80919000D01*
X129921000Y-80919000D01*
X129921000Y-80899000D01*
X129901000Y-80899000D01*
X129901000Y-80645000D01*
X129921000Y-80645000D01*
X129921000Y-80625000D01*
X130175000Y-80625000D01*
X130175000Y-80645000D01*
X131374250Y-80645000D01*
X131533000Y-80486250D01*
X131533000Y-80356700D01*
X139666193Y-80356700D01*
X139608846Y-80645000D01*
X139608846Y-80645000D01*
G37*
X139608846Y-80645000D02*
X139710467Y-81155882D01*
X139999858Y-81588988D01*
X140432964Y-81878379D01*
X140943846Y-81980000D01*
X140996154Y-81980000D01*
X141507036Y-81878379D01*
X141863771Y-81640017D01*
X141973531Y-81749767D01*
X141955813Y-81749752D01*
X141428200Y-81967757D01*
X141024176Y-82371077D01*
X140805250Y-82898309D01*
X140804752Y-83469187D01*
X140848266Y-83574500D01*
X132862379Y-83574500D01*
X131974090Y-82686210D01*
X131898719Y-82635849D01*
X131686975Y-82494367D01*
X131630784Y-82483190D01*
X131348300Y-82426999D01*
X131348295Y-82427000D01*
X131227779Y-82427000D01*
X131098054Y-82232853D01*
X131092142Y-82228903D01*
X131257699Y-82160327D01*
X131436327Y-81981698D01*
X131533000Y-81748309D01*
X131533000Y-81057750D01*
X131374250Y-80899000D01*
X130175000Y-80899000D01*
X130175000Y-80919000D01*
X129921000Y-80919000D01*
X129921000Y-80899000D01*
X129901000Y-80899000D01*
X129901000Y-80645000D01*
X129921000Y-80645000D01*
X129921000Y-80625000D01*
X130175000Y-80625000D01*
X130175000Y-80645000D01*
X131374250Y-80645000D01*
X131533000Y-80486250D01*
X131533000Y-80356700D01*
X139666193Y-80356700D01*
X139608846Y-80645000D01*
G36*
X139677284Y-77771671D02*
X139800626Y-77978000D01*
X140843000Y-77978000D01*
X140843000Y-77958000D01*
X141097000Y-77958000D01*
X141097000Y-77978000D01*
X142139374Y-77978000D01*
X142262716Y-77771671D01*
X142189543Y-77595000D01*
X143745298Y-77595000D01*
X142503598Y-78836700D01*
X142072152Y-78836700D01*
X142119797Y-78783396D01*
X142262716Y-78438329D01*
X142139374Y-78232000D01*
X141097000Y-78232000D01*
X141097000Y-78252000D01*
X140843000Y-78252000D01*
X140843000Y-78232000D01*
X139800626Y-78232000D01*
X139677284Y-78438329D01*
X139820203Y-78783396D01*
X139867848Y-78836700D01*
X121871200Y-78836700D01*
X121580361Y-78894552D01*
X121333799Y-79059299D01*
X120795498Y-79597600D01*
X120456285Y-79370946D01*
X119888000Y-79257907D01*
X119319715Y-79370946D01*
X118837946Y-79692853D01*
X118618000Y-80022026D01*
X118398054Y-79692853D01*
X117916285Y-79370946D01*
X117348000Y-79257907D01*
X116779715Y-79370946D01*
X116297946Y-79692853D01*
X116078000Y-80022026D01*
X115858054Y-79692853D01*
X115376285Y-79370946D01*
X114808000Y-79257907D01*
X114239715Y-79370946D01*
X113757946Y-79692853D01*
X113538000Y-80022026D01*
X113318054Y-79692853D01*
X112977500Y-79465302D01*
X114847802Y-77595000D01*
X139750457Y-77595000D01*
X139677284Y-77771671D01*
X139677284Y-77771671D01*
G37*
X139677284Y-77771671D02*
X139800626Y-77978000D01*
X140843000Y-77978000D01*
X140843000Y-77958000D01*
X141097000Y-77958000D01*
X141097000Y-77978000D01*
X142139374Y-77978000D01*
X142262716Y-77771671D01*
X142189543Y-77595000D01*
X143745298Y-77595000D01*
X142503598Y-78836700D01*
X142072152Y-78836700D01*
X142119797Y-78783396D01*
X142262716Y-78438329D01*
X142139374Y-78232000D01*
X141097000Y-78232000D01*
X141097000Y-78252000D01*
X140843000Y-78252000D01*
X140843000Y-78232000D01*
X139800626Y-78232000D01*
X139677284Y-78438329D01*
X139820203Y-78783396D01*
X139867848Y-78836700D01*
X121871200Y-78836700D01*
X121580361Y-78894552D01*
X121333799Y-79059299D01*
X120795498Y-79597600D01*
X120456285Y-79370946D01*
X119888000Y-79257907D01*
X119319715Y-79370946D01*
X118837946Y-79692853D01*
X118618000Y-80022026D01*
X118398054Y-79692853D01*
X117916285Y-79370946D01*
X117348000Y-79257907D01*
X116779715Y-79370946D01*
X116297946Y-79692853D01*
X116078000Y-80022026D01*
X115858054Y-79692853D01*
X115376285Y-79370946D01*
X114808000Y-79257907D01*
X114239715Y-79370946D01*
X113757946Y-79692853D01*
X113538000Y-80022026D01*
X113318054Y-79692853D01*
X112977500Y-79465302D01*
X114847802Y-77595000D01*
X139750457Y-77595000D01*
X139677284Y-77771671D01*
G36*
X125169817Y-74683642D02*
X124923514Y-75208108D01*
X125044181Y-75438000D01*
X126238000Y-75438000D01*
X126238000Y-75418000D01*
X126492000Y-75418000D01*
X126492000Y-75438000D01*
X126512000Y-75438000D01*
X126512000Y-75692000D01*
X126492000Y-75692000D01*
X126492000Y-75712000D01*
X126238000Y-75712000D01*
X126238000Y-75692000D01*
X125044181Y-75692000D01*
X124923514Y-75921892D01*
X124995418Y-76075000D01*
X122019582Y-76075000D01*
X122091486Y-75921892D01*
X121970819Y-75692000D01*
X120777000Y-75692000D01*
X120777000Y-75712000D01*
X120523000Y-75712000D01*
X120523000Y-75692000D01*
X120503000Y-75692000D01*
X120503000Y-75438000D01*
X120523000Y-75438000D01*
X120523000Y-75418000D01*
X120777000Y-75418000D01*
X120777000Y-75438000D01*
X121970819Y-75438000D01*
X122091486Y-75208108D01*
X121845183Y-74683642D01*
X121534054Y-74400100D01*
X125480946Y-74400100D01*
X125169817Y-74683642D01*
X125169817Y-74683642D01*
G37*
X125169817Y-74683642D02*
X124923514Y-75208108D01*
X125044181Y-75438000D01*
X126238000Y-75438000D01*
X126238000Y-75418000D01*
X126492000Y-75418000D01*
X126492000Y-75438000D01*
X126512000Y-75438000D01*
X126512000Y-75692000D01*
X126492000Y-75692000D01*
X126492000Y-75712000D01*
X126238000Y-75712000D01*
X126238000Y-75692000D01*
X125044181Y-75692000D01*
X124923514Y-75921892D01*
X124995418Y-76075000D01*
X122019582Y-76075000D01*
X122091486Y-75921892D01*
X121970819Y-75692000D01*
X120777000Y-75692000D01*
X120777000Y-75712000D01*
X120523000Y-75712000D01*
X120523000Y-75692000D01*
X120503000Y-75692000D01*
X120503000Y-75438000D01*
X120523000Y-75438000D01*
X120523000Y-75418000D01*
X120777000Y-75418000D01*
X120777000Y-75438000D01*
X121970819Y-75438000D01*
X122091486Y-75208108D01*
X121845183Y-74683642D01*
X121534054Y-74400100D01*
X125480946Y-74400100D01*
X125169817Y-74683642D01*
G36*
X139882985Y-74816364D02*
X139820203Y-74886604D01*
X139677284Y-75231671D01*
X139800626Y-75438000D01*
X140843000Y-75438000D01*
X140843000Y-75418000D01*
X141097000Y-75418000D01*
X141097000Y-75438000D01*
X142139374Y-75438000D01*
X142262716Y-75231671D01*
X142203128Y-75087800D01*
X144802634Y-75087800D01*
X144715232Y-75298287D01*
X144714772Y-75825426D01*
X144465198Y-76075000D01*
X142189543Y-76075000D01*
X142262716Y-75898329D01*
X142139374Y-75692000D01*
X141097000Y-75692000D01*
X141097000Y-75712000D01*
X140843000Y-75712000D01*
X140843000Y-75692000D01*
X139800626Y-75692000D01*
X139677284Y-75898329D01*
X139750457Y-76075000D01*
X132942440Y-76075000D01*
X132942440Y-74715000D01*
X132898162Y-74479683D01*
X132846952Y-74400100D01*
X139466720Y-74400100D01*
X139882985Y-74816364D01*
X139882985Y-74816364D01*
G37*
X139882985Y-74816364D02*
X139820203Y-74886604D01*
X139677284Y-75231671D01*
X139800626Y-75438000D01*
X140843000Y-75438000D01*
X140843000Y-75418000D01*
X141097000Y-75418000D01*
X141097000Y-75438000D01*
X142139374Y-75438000D01*
X142262716Y-75231671D01*
X142203128Y-75087800D01*
X144802634Y-75087800D01*
X144715232Y-75298287D01*
X144714772Y-75825426D01*
X144465198Y-76075000D01*
X142189543Y-76075000D01*
X142262716Y-75898329D01*
X142139374Y-75692000D01*
X141097000Y-75692000D01*
X141097000Y-75712000D01*
X140843000Y-75712000D01*
X140843000Y-75692000D01*
X139800626Y-75692000D01*
X139677284Y-75898329D01*
X139750457Y-76075000D01*
X132942440Y-76075000D01*
X132942440Y-74715000D01*
X132898162Y-74479683D01*
X132846952Y-74400100D01*
X139466720Y-74400100D01*
X139882985Y-74816364D01*
M02*
