%FSLAX45Y45*%
G04 Gerber Fmt 4.5, Leading zero omitted, Abs format (unit mm)*
G04 Created by KiCad (PCBNEW 5.0.0) date Wed Oct 17 23:37:29 2018*
%MOMM*%
%LPD*%
G01*
G04 APERTURE LIST*
%ADD10C,0.150000*%
%ADD11C,0.200000*%
%ADD12C,0.300000*%
G04 APERTURE END LIST*
D10*
X7747000Y-6350000D02*
X17399000Y-6350000D01*
X7747000Y-12700000D02*
X7747000Y-6350000D01*
X17399000Y-12700000D02*
X7747000Y-12700000D01*
X17399000Y-12700000D02*
X17399000Y-6350000D01*
D11*
X9073200Y-8463600D02*
X9113200Y-8503600D01*
X9113200Y-8463600D02*
X9073200Y-8503600D01*
X9073200Y-10038400D02*
X9113200Y-10078400D01*
X9113200Y-10038400D02*
X9073200Y-10078400D01*
X9073200Y-10140000D02*
X9113200Y-10180000D01*
X9113200Y-10140000D02*
X9073200Y-10180000D01*
X9073200Y-10241600D02*
X9113200Y-10281600D01*
X9113200Y-10241600D02*
X9073200Y-10281600D01*
X9174800Y-8463600D02*
X9214800Y-8503600D01*
X9214800Y-8463600D02*
X9174800Y-8503600D01*
X9276400Y-8412800D02*
X9316400Y-8452800D01*
X9316400Y-8412800D02*
X9276400Y-8452800D01*
X9581200Y-6736400D02*
X9621200Y-6776400D01*
X9621200Y-6736400D02*
X9581200Y-6776400D01*
X9581200Y-6838000D02*
X9621200Y-6878000D01*
X9621200Y-6838000D02*
X9581200Y-6878000D01*
X9682800Y-6736400D02*
X9722800Y-6776400D01*
X9722800Y-6736400D02*
X9682800Y-6776400D01*
X9682800Y-6939600D02*
X9722800Y-6979600D01*
X9722800Y-6939600D02*
X9682800Y-6979600D01*
X9835200Y-6736400D02*
X9875200Y-6776400D01*
X9875200Y-6736400D02*
X9835200Y-6776400D01*
X10140000Y-9886000D02*
X10180000Y-9926000D01*
X10180000Y-9886000D02*
X10140000Y-9926000D01*
X10140000Y-9987600D02*
X10180000Y-10027600D01*
X10180000Y-9987600D02*
X10140000Y-10027600D01*
X10140000Y-10089200D02*
X10180000Y-10129200D01*
X10180000Y-10089200D02*
X10140000Y-10129200D01*
X10190800Y-10343200D02*
X10230800Y-10383200D01*
X10230800Y-10343200D02*
X10190800Y-10383200D01*
X10241600Y-9886000D02*
X10281600Y-9926000D01*
X10281600Y-9886000D02*
X10241600Y-9926000D01*
X10241600Y-9987600D02*
X10281600Y-10027600D01*
X10281600Y-9987600D02*
X10241600Y-10027600D01*
X10415650Y-8962050D02*
X10455650Y-9002050D01*
X10455650Y-8962050D02*
X10415650Y-9002050D01*
X10706460Y-9070620D02*
X10746460Y-9110620D01*
X10746460Y-9070620D02*
X10706460Y-9110620D01*
X11054400Y-10394000D02*
X11094400Y-10434000D01*
X11094400Y-10394000D02*
X11054400Y-10434000D01*
X11206800Y-10394000D02*
X11246800Y-10434000D01*
X11246800Y-10394000D02*
X11206800Y-10434000D01*
X11714800Y-12172000D02*
X11754800Y-12212000D01*
X11754800Y-12172000D02*
X11714800Y-12212000D01*
X11918000Y-12172000D02*
X11958000Y-12212000D01*
X11958000Y-12172000D02*
X11918000Y-12212000D01*
X12680000Y-11206800D02*
X12720000Y-11246800D01*
X12720000Y-11206800D02*
X12680000Y-11246800D01*
X12680000Y-12375200D02*
X12720000Y-12415200D01*
X12720000Y-12375200D02*
X12680000Y-12415200D01*
X12781600Y-11206800D02*
X12821600Y-11246800D01*
X12821600Y-11206800D02*
X12781600Y-11246800D01*
X12781600Y-12375200D02*
X12821600Y-12415200D01*
X12821600Y-12375200D02*
X12781600Y-12415200D01*
X12876100Y-8544250D02*
X12916100Y-8584250D01*
X12916100Y-8544250D02*
X12876100Y-8584250D01*
X12883200Y-12375200D02*
X12923200Y-12415200D01*
X12923200Y-12375200D02*
X12883200Y-12415200D01*
X12984800Y-12375200D02*
X13024800Y-12415200D01*
X13024800Y-12375200D02*
X12984800Y-12415200D01*
X13086400Y-12375200D02*
X13126400Y-12415200D01*
X13126400Y-12375200D02*
X13086400Y-12415200D01*
X13188000Y-11613200D02*
X13228000Y-11653200D01*
X13228000Y-11613200D02*
X13188000Y-11653200D01*
X13188000Y-11613200D02*
X13228000Y-11653200D01*
X13228000Y-11613200D02*
X13188000Y-11653200D01*
X13188000Y-11613200D02*
X13228000Y-11653200D01*
X13228000Y-11613200D02*
X13188000Y-11653200D01*
X13188000Y-12375200D02*
X13228000Y-12415200D01*
X13228000Y-12375200D02*
X13188000Y-12415200D01*
X13289600Y-11613200D02*
X13329600Y-11653200D01*
X13329600Y-11613200D02*
X13289600Y-11653200D01*
X13289600Y-12375200D02*
X13329600Y-12415200D01*
X13329600Y-12375200D02*
X13289600Y-12415200D01*
X13391200Y-12375200D02*
X13431200Y-12415200D01*
X13431200Y-12375200D02*
X13391200Y-12415200D01*
X13492800Y-8108000D02*
X13532800Y-8148000D01*
X13532800Y-8108000D02*
X13492800Y-8148000D01*
X13594400Y-8209600D02*
X13634400Y-8249600D01*
X13634400Y-8209600D02*
X13594400Y-8249600D01*
X13621970Y-8694800D02*
X13661970Y-8734800D01*
X13661970Y-8694800D02*
X13621970Y-8734800D01*
X13696000Y-8311200D02*
X13736000Y-8351200D01*
X13736000Y-8311200D02*
X13696000Y-8351200D01*
X13696000Y-10394000D02*
X13736000Y-10434000D01*
X13736000Y-10394000D02*
X13696000Y-10434000D01*
X13696000Y-10648000D02*
X13736000Y-10688000D01*
X13736000Y-10648000D02*
X13696000Y-10688000D01*
X14254800Y-8768400D02*
X14294800Y-8808400D01*
X14294800Y-8768400D02*
X14254800Y-8808400D01*
X14254800Y-9581200D02*
X14294800Y-9621200D01*
X14294800Y-9581200D02*
X14254800Y-9621200D01*
X14254800Y-9682800D02*
X14294800Y-9722800D01*
X14294800Y-9682800D02*
X14254800Y-9722800D01*
X14356400Y-8870000D02*
X14396400Y-8910000D01*
X14396400Y-8870000D02*
X14356400Y-8910000D01*
X14458000Y-8971600D02*
X14498000Y-9011600D01*
X14498000Y-8971600D02*
X14458000Y-9011600D01*
X14458000Y-9936800D02*
X14498000Y-9976800D01*
X14498000Y-9936800D02*
X14458000Y-9976800D01*
X14458000Y-11206800D02*
X14498000Y-11246800D01*
X14498000Y-11206800D02*
X14458000Y-11246800D01*
X14458000Y-11308400D02*
X14498000Y-11348400D01*
X14498000Y-11308400D02*
X14458000Y-11348400D01*
X14458000Y-11410000D02*
X14498000Y-11450000D01*
X14498000Y-11410000D02*
X14458000Y-11450000D01*
X14559600Y-9073200D02*
X14599600Y-9113200D01*
X14599600Y-9073200D02*
X14559600Y-9113200D01*
X14559600Y-10038400D02*
X14599600Y-10078400D01*
X14599600Y-10038400D02*
X14559600Y-10078400D01*
X14661200Y-9174800D02*
X14701200Y-9214800D01*
X14701200Y-9174800D02*
X14661200Y-9214800D01*
X14762800Y-9276400D02*
X14802800Y-9316400D01*
X14802800Y-9276400D02*
X14762800Y-9316400D01*
X14813600Y-11765600D02*
X14853600Y-11805600D01*
X14853600Y-11765600D02*
X14813600Y-11805600D01*
X14915200Y-11206800D02*
X14955200Y-11246800D01*
X14955200Y-11206800D02*
X14915200Y-11246800D01*
X14915200Y-11308400D02*
X14955200Y-11348400D01*
X14955200Y-11308400D02*
X14915200Y-11348400D01*
X14915200Y-11410000D02*
X14955200Y-11450000D01*
X14955200Y-11410000D02*
X14915200Y-11450000D01*
X14915200Y-11867200D02*
X14955200Y-11907200D01*
X14955200Y-11867200D02*
X14915200Y-11907200D01*
X15016800Y-11968800D02*
X15056800Y-12008800D01*
X15056800Y-11968800D02*
X15016800Y-12008800D01*
X15118400Y-12070400D02*
X15158400Y-12110400D01*
X15158400Y-12070400D02*
X15118400Y-12110400D01*
X15220000Y-12172000D02*
X15260000Y-12212000D01*
X15260000Y-12172000D02*
X15220000Y-12212000D01*
X15524800Y-10343200D02*
X15564800Y-10383200D01*
X15564800Y-10343200D02*
X15524800Y-10383200D01*
X15626400Y-10343200D02*
X15666400Y-10383200D01*
X15666400Y-10343200D02*
X15626400Y-10383200D01*
X13344600Y-8636000D02*
G75*
G03X13344600Y-8636000I-35000J0D01*
G01*
X14106600Y-8636000D02*
G75*
G03X14106600Y-8636000I-35000J0D01*
G01*
X13344600Y-9652000D02*
G75*
G03X13344600Y-9652000I-35000J0D01*
G01*
X14106600Y-9652000D02*
G75*
G03X14106600Y-9652000I-35000J0D01*
G01*
X9839400Y-9906000D02*
G75*
G03X9839400Y-9906000I-35000J0D01*
G01*
X10601400Y-9906000D02*
G75*
G03X10601400Y-9906000I-35000J0D01*
G01*
X9839400Y-9601200D02*
G75*
G03X9839400Y-9601200I-35000J0D01*
G01*
X10601400Y-9601200D02*
G75*
G03X10601400Y-9601200I-35000J0D01*
G01*
X16087800Y-7264400D02*
G75*
G03X16087800Y-7264400I-35000J0D01*
G01*
X16849800Y-7264400D02*
G75*
G03X16849800Y-7264400I-35000J0D01*
G01*
X11274500Y-11239500D02*
G75*
G03X11274500Y-11239500I-35000J0D01*
G01*
X12036500Y-11239500D02*
G75*
G03X12036500Y-11239500I-35000J0D01*
G01*
X13344600Y-9906000D02*
G75*
G03X13344600Y-9906000I-35000J0D01*
G01*
X14106600Y-9906000D02*
G75*
G03X14106600Y-9906000I-35000J0D01*
G01*
X13344600Y-9144000D02*
G75*
G03X13344600Y-9144000I-35000J0D01*
G01*
X14106600Y-9144000D02*
G75*
G03X14106600Y-9144000I-35000J0D01*
G01*
X13878000Y-7810500D02*
G75*
G03X13878000Y-7810500I-35000J0D01*
G01*
X14640000Y-7810500D02*
G75*
G03X14640000Y-7810500I-35000J0D01*
G01*
X13370000Y-10668000D02*
G75*
G03X13370000Y-10668000I-35000J0D01*
G01*
X14132000Y-10668000D02*
G75*
G03X14132000Y-10668000I-35000J0D01*
G01*
X13344600Y-10414000D02*
G75*
G03X13344600Y-10414000I-35000J0D01*
G01*
X14106600Y-10414000D02*
G75*
G03X14106600Y-10414000I-35000J0D01*
G01*
X11058600Y-7162800D02*
G75*
G03X11058600Y-7162800I-35000J0D01*
G01*
X11820600Y-7162800D02*
G75*
G03X11820600Y-7162800I-35000J0D01*
G01*
X10093400Y-12293600D02*
G75*
G03X10093400Y-12293600I-35000J0D01*
G01*
X10855400Y-12293600D02*
G75*
G03X10855400Y-12293600I-35000J0D01*
G01*
X9839400Y-8940800D02*
G75*
G03X9839400Y-8940800I-35000J0D01*
G01*
X10601400Y-8940800D02*
G75*
G03X10601400Y-8940800I-35000J0D01*
G01*
X16291000Y-8890000D02*
G75*
G03X16291000Y-8890000I-35000J0D01*
G01*
X17053000Y-8890000D02*
G75*
G03X17053000Y-8890000I-35000J0D01*
G01*
X9839400Y-9296400D02*
G75*
G03X9839400Y-9296400I-35000J0D01*
G01*
X10601400Y-9296400D02*
G75*
G03X10601400Y-9296400I-35000J0D01*
G01*
X11058600Y-6858000D02*
G75*
G03X11058600Y-6858000I-35000J0D01*
G01*
X11820600Y-6858000D02*
G75*
G03X11820600Y-6858000I-35000J0D01*
G01*
X10093400Y-12547600D02*
G75*
G03X10093400Y-12547600I-35000J0D01*
G01*
X10855400Y-12547600D02*
G75*
G03X10855400Y-12547600I-35000J0D01*
G01*
X13344600Y-10160000D02*
G75*
G03X13344600Y-10160000I-35000J0D01*
G01*
X14106600Y-10160000D02*
G75*
G03X14106600Y-10160000I-35000J0D01*
G01*
X13344600Y-9398000D02*
G75*
G03X13344600Y-9398000I-35000J0D01*
G01*
X14106600Y-9398000D02*
G75*
G03X14106600Y-9398000I-35000J0D01*
G01*
X13344600Y-8890000D02*
G75*
G03X13344600Y-8890000I-35000J0D01*
G01*
X14106600Y-8890000D02*
G75*
G03X14106600Y-8890000I-35000J0D01*
G01*
X9814000Y-8656320D02*
G75*
G03X9814000Y-8656320I-35000J0D01*
G01*
X10576000Y-8656320D02*
G75*
G03X10576000Y-8656320I-35000J0D01*
G01*
X13878000Y-8064500D02*
G75*
G03X13878000Y-8064500I-35000J0D01*
G01*
X14640000Y-8064500D02*
G75*
G03X14640000Y-8064500I-35000J0D01*
G01*
X13370000Y-10922000D02*
G75*
G03X13370000Y-10922000I-35000J0D01*
G01*
X14132000Y-10922000D02*
G75*
G03X14132000Y-10922000I-35000J0D01*
G01*
X13878000Y-7302500D02*
G75*
G03X13878000Y-7302500I-35000J0D01*
G01*
X14640000Y-7302500D02*
G75*
G03X14640000Y-7302500I-35000J0D01*
G01*
X10223500Y-11518900D02*
X10223500Y-11595100D01*
X10185400Y-11557000D02*
X10261600Y-11557000D01*
X10350500Y-11899900D02*
X10350500Y-11976100D01*
X10312400Y-11938000D02*
X10388600Y-11938000D01*
X10477500Y-11518900D02*
X10477500Y-11595100D01*
X10439400Y-11557000D02*
X10515600Y-11557000D01*
X10604500Y-11899900D02*
X10604500Y-11976100D01*
X10566400Y-11938000D02*
X10642600Y-11938000D01*
X10731500Y-11518900D02*
X10731500Y-11595100D01*
X10693400Y-11557000D02*
X10769600Y-11557000D01*
X10858500Y-11899900D02*
X10858500Y-11976100D01*
X10820400Y-11938000D02*
X10896600Y-11938000D01*
X10985500Y-11518900D02*
X10985500Y-11595100D01*
X10947400Y-11557000D02*
X11023600Y-11557000D01*
X11112500Y-11899900D02*
X11112500Y-11976100D01*
X11074400Y-11938000D02*
X11150600Y-11938000D01*
X11239500Y-11518900D02*
X11239500Y-11595100D01*
X11201400Y-11557000D02*
X11277600Y-11557000D01*
X11366500Y-11899900D02*
X11366500Y-11976100D01*
X11328400Y-11938000D02*
X11404600Y-11938000D01*
X11493500Y-11518900D02*
X11493500Y-11595100D01*
X11455400Y-11557000D02*
X11531600Y-11557000D01*
X11620500Y-11899900D02*
X11620500Y-11976100D01*
X11582400Y-11938000D02*
X11658600Y-11938000D01*
X11747500Y-11518900D02*
X11747500Y-11595100D01*
X11709400Y-11557000D02*
X11785600Y-11557000D01*
X11874500Y-11899900D02*
X11874500Y-11976100D01*
X11836400Y-11938000D02*
X11912600Y-11938000D01*
X12001500Y-11518900D02*
X12001500Y-11595100D01*
X11963400Y-11557000D02*
X12039600Y-11557000D01*
X12128500Y-11899900D02*
X12128500Y-11976100D01*
X12090400Y-11938000D02*
X12166600Y-11938000D01*
X12255500Y-11518900D02*
X12255500Y-11595100D01*
X12217400Y-11557000D02*
X12293600Y-11557000D01*
X12382500Y-11899900D02*
X12382500Y-11976100D01*
X12344400Y-11938000D02*
X12420600Y-11938000D01*
X12509500Y-11518900D02*
X12509500Y-11595100D01*
X12471400Y-11557000D02*
X12547600Y-11557000D01*
X12636500Y-11899900D02*
X12636500Y-11976100D01*
X12598400Y-11938000D02*
X12674600Y-11938000D01*
X12763500Y-11518900D02*
X12763500Y-11595100D01*
X12725400Y-11557000D02*
X12801600Y-11557000D01*
X12890500Y-11899900D02*
X12890500Y-11976100D01*
X12852400Y-11938000D02*
X12928600Y-11938000D01*
X13017500Y-11518900D02*
X13017500Y-11595100D01*
X12979400Y-11557000D02*
X13055600Y-11557000D01*
X13617284Y-7584784D02*
X13617284Y-7528215D01*
X13560715Y-7528215D01*
X13560715Y-7584784D01*
X13617284Y-7584784D01*
X14633284Y-7584784D02*
X14633284Y-7528215D01*
X14576715Y-7528215D01*
X14576715Y-7584784D01*
X14633284Y-7584784D01*
X16093784Y-7584784D02*
X16093784Y-7528215D01*
X16037215Y-7528215D01*
X16037215Y-7584784D01*
X16093784Y-7584784D01*
X16093784Y-7838784D02*
X16093784Y-7782215D01*
X16037215Y-7782215D01*
X16037215Y-7838784D01*
X16093784Y-7838784D01*
X16093784Y-8092784D02*
X16093784Y-8036215D01*
X16037215Y-8036215D01*
X16037215Y-8092784D01*
X16093784Y-8092784D01*
X16093784Y-8346784D02*
X16093784Y-8290215D01*
X16037215Y-8290215D01*
X16037215Y-8346784D01*
X16093784Y-8346784D01*
X16855785Y-7584784D02*
X16855785Y-7528215D01*
X16799216Y-7528215D01*
X16799216Y-7584784D01*
X16855785Y-7584784D01*
X16855785Y-7838784D02*
X16855785Y-7782215D01*
X16799216Y-7782215D01*
X16799216Y-7838784D01*
X16855785Y-7838784D01*
X16855785Y-8092784D02*
X16855785Y-8036215D01*
X16799216Y-8036215D01*
X16799216Y-8092784D01*
X16855785Y-8092784D01*
X16855785Y-8346784D02*
X16855785Y-8290215D01*
X16799216Y-8290215D01*
X16799216Y-8346784D01*
X16855785Y-8346784D01*
X10747085Y-11255084D02*
X10747085Y-11198515D01*
X10690516Y-11198515D01*
X10690516Y-11255084D01*
X10747085Y-11255084D01*
X10997085Y-11255084D02*
X10997085Y-11198515D01*
X10940516Y-11198515D01*
X10940516Y-11255084D01*
X10997085Y-11255084D01*
X14252284Y-6822784D02*
X14252284Y-6766215D01*
X14195715Y-6766215D01*
X14195715Y-6822784D01*
X14252284Y-6822784D01*
X14502284Y-6822784D02*
X14502284Y-6766215D01*
X14445715Y-6766215D01*
X14445715Y-6822784D01*
X14502284Y-6822784D01*
X14252284Y-8346784D02*
X14252284Y-8290215D01*
X14195715Y-8290215D01*
X14195715Y-8346784D01*
X14252284Y-8346784D01*
X14502284Y-8346784D02*
X14502284Y-8290215D01*
X14445715Y-8290215D01*
X14445715Y-8346784D01*
X14502284Y-8346784D01*
X14887284Y-7584784D02*
X14887284Y-7528215D01*
X14830715Y-7528215D01*
X14830715Y-7584784D01*
X14887284Y-7584784D01*
X14887284Y-7838784D02*
X14887284Y-7782215D01*
X14830715Y-7782215D01*
X14830715Y-7838784D01*
X14887284Y-7838784D01*
X14887284Y-8092784D02*
X14887284Y-8036215D01*
X14830715Y-8036215D01*
X14830715Y-8092784D01*
X14887284Y-8092784D01*
X14887284Y-8346784D02*
X14887284Y-8290215D01*
X14830715Y-8290215D01*
X14830715Y-8346784D01*
X14887284Y-8346784D01*
X15649284Y-7584784D02*
X15649284Y-7528215D01*
X15592715Y-7528215D01*
X15592715Y-7584784D01*
X15649284Y-7584784D01*
X15649284Y-7838784D02*
X15649284Y-7782215D01*
X15592715Y-7782215D01*
X15592715Y-7838784D01*
X15649284Y-7838784D01*
X15649284Y-8092784D02*
X15649284Y-8036215D01*
X15592715Y-8036215D01*
X15592715Y-8092784D01*
X15649284Y-8092784D01*
X15649284Y-8346784D02*
X15649284Y-8290215D01*
X15592715Y-8290215D01*
X15592715Y-8346784D01*
X15649284Y-8346784D01*
X9375485Y-10645485D02*
X9375485Y-10588916D01*
X9318916Y-10588916D01*
X9318916Y-10645485D01*
X9375485Y-10645485D01*
X9375485Y-10895485D02*
X9375485Y-10838916D01*
X9318916Y-10838916D01*
X9318916Y-10895485D01*
X9375485Y-10895485D01*
X15014284Y-10975685D02*
X15014284Y-10919116D01*
X14957715Y-10919116D01*
X14957715Y-10975685D01*
X15014284Y-10975685D01*
X15014284Y-12499684D02*
X15014284Y-12443115D01*
X14957715Y-12443115D01*
X14957715Y-12499684D01*
X15014284Y-12499684D01*
X15268284Y-10975685D02*
X15268284Y-10919116D01*
X15211715Y-10919116D01*
X15211715Y-10975685D01*
X15268284Y-10975685D01*
X15268284Y-12499684D02*
X15268284Y-12443115D01*
X15211715Y-12443115D01*
X15211715Y-12499684D01*
X15268284Y-12499684D01*
X15522284Y-10975685D02*
X15522284Y-10919116D01*
X15465715Y-10919116D01*
X15465715Y-10975685D01*
X15522284Y-10975685D01*
X15522284Y-12499684D02*
X15522284Y-12443115D01*
X15465715Y-12443115D01*
X15465715Y-12499684D01*
X15522284Y-12499684D01*
X15776284Y-10975685D02*
X15776284Y-10919116D01*
X15719715Y-10919116D01*
X15719715Y-10975685D01*
X15776284Y-10975685D01*
X15776284Y-12499684D02*
X15776284Y-12443115D01*
X15719715Y-12443115D01*
X15719715Y-12499684D01*
X15776284Y-12499684D01*
X16030284Y-10975685D02*
X16030284Y-10919116D01*
X15973715Y-10919116D01*
X15973715Y-10975685D01*
X16030284Y-10975685D01*
X16030284Y-12499684D02*
X16030284Y-12443115D01*
X15973715Y-12443115D01*
X15973715Y-12499684D01*
X16030284Y-12499684D01*
X12283784Y-11267784D02*
X12283784Y-11211215D01*
X12227215Y-11211215D01*
X12227215Y-11267784D01*
X12283784Y-11267784D01*
X12533784Y-11267784D02*
X12533784Y-11211215D01*
X12477215Y-11211215D01*
X12477215Y-11267784D01*
X12533784Y-11267784D01*
X10255785Y-11267784D02*
X10255785Y-11211215D01*
X10199216Y-11211215D01*
X10199216Y-11267784D01*
X10255785Y-11267784D01*
X10505785Y-11267784D02*
X10505785Y-11211215D01*
X10449216Y-11211215D01*
X10449216Y-11267784D01*
X10505785Y-11267784D01*
X9665045Y-12255884D02*
X9665045Y-12199315D01*
X9608476Y-12199315D01*
X9608476Y-12255884D01*
X9665045Y-12255884D01*
X9665045Y-12505884D02*
X9665045Y-12449315D01*
X9608476Y-12449315D01*
X9608476Y-12505884D01*
X9665045Y-12505884D01*
X14256284Y-7076784D02*
X14256284Y-7020215D01*
X14199715Y-7020215D01*
X14199715Y-7076784D01*
X14256284Y-7076784D01*
X14506284Y-7076784D02*
X14506284Y-7020215D01*
X14449715Y-7020215D01*
X14449715Y-7076784D01*
X14506284Y-7076784D01*
X16411284Y-9934285D02*
X16411284Y-9877716D01*
X16354715Y-9877716D01*
X16354715Y-9934285D01*
X16411284Y-9934285D01*
X16661284Y-9934285D02*
X16661284Y-9877716D01*
X16604715Y-9877716D01*
X16604715Y-9934285D01*
X16661284Y-9934285D01*
X16411284Y-9553285D02*
X16411284Y-9496716D01*
X16354715Y-9496716D01*
X16354715Y-9553285D01*
X16411284Y-9553285D01*
X16661284Y-9553285D02*
X16661284Y-9496716D01*
X16604715Y-9496716D01*
X16604715Y-9553285D01*
X16661284Y-9553285D01*
X16415284Y-9299285D02*
X16415284Y-9242716D01*
X16358715Y-9242716D01*
X16358715Y-9299285D01*
X16415284Y-9299285D01*
X16665284Y-9299285D02*
X16665284Y-9242716D01*
X16608715Y-9242716D01*
X16608715Y-9299285D01*
X16665284Y-9299285D01*
X9144000Y-8209280D02*
X9184640Y-8168640D01*
X9144000Y-8128000D01*
X9103360Y-8168640D01*
X9144000Y-8209280D01*
X9144000Y-8717280D02*
X9184640Y-8676640D01*
X9144000Y-8636000D01*
X9103360Y-8676640D01*
X9144000Y-8717280D01*
X15131500Y-6749500D02*
X15221500Y-6839500D01*
X15221500Y-6749500D02*
X15131500Y-6839500D01*
X15221500Y-6794500D02*
G75*
G03X15221500Y-6794500I-45000J0D01*
G01*
X15385500Y-6749500D02*
X15475500Y-6839500D01*
X15475500Y-6749500D02*
X15385500Y-6839500D01*
X15475500Y-6794500D02*
G75*
G03X15475500Y-6794500I-45000J0D01*
G01*
X16020500Y-6749500D02*
X16110500Y-6839500D01*
X16110500Y-6749500D02*
X16020500Y-6839500D01*
X16110500Y-6794500D02*
G75*
G03X16110500Y-6794500I-45000J0D01*
G01*
X16274500Y-6749500D02*
X16364500Y-6839500D01*
X16364500Y-6749500D02*
X16274500Y-6839500D01*
X16364500Y-6794500D02*
G75*
G03X16364500Y-6794500I-45000J0D01*
G01*
X16312600Y-10496000D02*
X16402600Y-10586000D01*
X16402600Y-10496000D02*
X16312600Y-10586000D01*
X16402600Y-10541000D02*
G75*
G03X16402600Y-10541000I-45000J0D01*
G01*
X16566600Y-10496000D02*
X16656600Y-10586000D01*
X16656600Y-10496000D02*
X16566600Y-10586000D01*
X16656600Y-10541000D02*
G75*
G03X16656600Y-10541000I-45000J0D01*
G01*
X9480000Y-11448500D02*
X9570000Y-11538500D01*
X9570000Y-11448500D02*
X9480000Y-11538500D01*
X9570000Y-11493500D02*
G75*
G03X9570000Y-11493500I-45000J0D01*
G01*
X9734000Y-11448500D02*
X9824000Y-11538500D01*
X9824000Y-11448500D02*
X9734000Y-11538500D01*
X9824000Y-11493500D02*
G75*
G03X9824000Y-11493500I-45000J0D01*
G01*
X8718000Y-10559500D02*
X8808000Y-10649500D01*
X8808000Y-10559500D02*
X8718000Y-10649500D01*
X8808000Y-10604500D02*
G75*
G03X8808000Y-10604500I-45000J0D01*
G01*
X8718000Y-10813500D02*
X8808000Y-10903500D01*
X8808000Y-10813500D02*
X8718000Y-10903500D01*
X8808000Y-10858500D02*
G75*
G03X8808000Y-10858500I-45000J0D01*
G01*
X8494000Y-11570500D02*
X8594000Y-11670500D01*
X8594000Y-11570500D02*
X8494000Y-11670500D01*
X8544000Y-11570500D02*
X8544000Y-11670500D01*
X8494000Y-11620500D02*
X8594000Y-11620500D01*
X8504000Y-11520500D02*
X8504000Y-11720500D01*
X8584000Y-11520500D02*
X8584000Y-11720500D01*
X8504000Y-11720500D02*
G75*
G03X8584000Y-11720500I40000J0D01*
G01*
X8584000Y-11520500D02*
G75*
G03X8504000Y-11520500I-40000J0D01*
G01*
X8794000Y-12040500D02*
X8894000Y-12140500D01*
X8894000Y-12040500D02*
X8794000Y-12140500D01*
X8844000Y-12040500D02*
X8844000Y-12140500D01*
X8794000Y-12090500D02*
X8894000Y-12090500D01*
X8744000Y-12130500D02*
X8944000Y-12130500D01*
X8744000Y-12050500D02*
X8944000Y-12050500D01*
X8944000Y-12130500D02*
G75*
G03X8944000Y-12050500I0J40000D01*
G01*
X8744000Y-12050500D02*
G75*
G03X8744000Y-12130500I0J-40000D01*
G01*
X9094000Y-11570500D02*
X9194000Y-11670500D01*
X9194000Y-11570500D02*
X9094000Y-11670500D01*
X9144000Y-11570500D02*
X9144000Y-11670500D01*
X9094000Y-11620500D02*
X9194000Y-11620500D01*
X9104000Y-11520500D02*
X9104000Y-11720500D01*
X9184000Y-11520500D02*
X9184000Y-11720500D01*
X9104000Y-11720500D02*
G75*
G03X9184000Y-11720500I40000J0D01*
G01*
X9184000Y-11520500D02*
G75*
G03X9104000Y-11520500I-40000J0D01*
G01*
X9284500Y-9284500D02*
X9384500Y-9384500D01*
X9384500Y-9284500D02*
X9284500Y-9384500D01*
X9334500Y-9284500D02*
X9334500Y-9384500D01*
X9284500Y-9334500D02*
X9384500Y-9334500D01*
X9284500Y-9538500D02*
X9384500Y-9638500D01*
X9384500Y-9538500D02*
X9284500Y-9638500D01*
X9334500Y-9538500D02*
X9334500Y-9638500D01*
X9284500Y-9588500D02*
X9384500Y-9588500D01*
X9284500Y-9792500D02*
X9384500Y-9892500D01*
X9384500Y-9792500D02*
X9284500Y-9892500D01*
X9334500Y-9792500D02*
X9334500Y-9892500D01*
X9284500Y-9842500D02*
X9384500Y-9842500D01*
X11189500Y-12332500D02*
X11289500Y-12432500D01*
X11289500Y-12332500D02*
X11189500Y-12432500D01*
X11239500Y-12332500D02*
X11239500Y-12432500D01*
X11189500Y-12382500D02*
X11289500Y-12382500D01*
X11439500Y-12332500D02*
X11539500Y-12432500D01*
X11539500Y-12332500D02*
X11439500Y-12432500D01*
X11489500Y-12332500D02*
X11489500Y-12432500D01*
X11439500Y-12382500D02*
X11539500Y-12382500D01*
X11689500Y-12332500D02*
X11789500Y-12432500D01*
X11789500Y-12332500D02*
X11689500Y-12432500D01*
X11739500Y-12332500D02*
X11739500Y-12432500D01*
X11689500Y-12382500D02*
X11789500Y-12382500D01*
X11939500Y-12332500D02*
X12039500Y-12432500D01*
X12039500Y-12332500D02*
X11939500Y-12432500D01*
X11989500Y-12332500D02*
X11989500Y-12432500D01*
X11939500Y-12382500D02*
X12039500Y-12382500D01*
X12189500Y-12332500D02*
X12289500Y-12432500D01*
X12289500Y-12332500D02*
X12189500Y-12432500D01*
X12239500Y-12332500D02*
X12239500Y-12432500D01*
X12189500Y-12382500D02*
X12289500Y-12382500D01*
X12439500Y-12332500D02*
X12539500Y-12432500D01*
X12539500Y-12332500D02*
X12439500Y-12432500D01*
X12489500Y-12332500D02*
X12489500Y-12432500D01*
X12439500Y-12382500D02*
X12539500Y-12382500D01*
X9856000Y-6998500D02*
X9956000Y-7098500D01*
X9956000Y-6998500D02*
X9856000Y-7098500D01*
X9906000Y-6998500D02*
X9906000Y-7098500D01*
X9856000Y-7048500D02*
X9956000Y-7048500D01*
X9856000Y-7252500D02*
X9956000Y-7352500D01*
X9956000Y-7252500D02*
X9856000Y-7352500D01*
X9906000Y-7252500D02*
X9906000Y-7352500D01*
X9856000Y-7302500D02*
X9956000Y-7302500D01*
X9856000Y-7506500D02*
X9956000Y-7606500D01*
X9956000Y-7506500D02*
X9856000Y-7606500D01*
X9906000Y-7506500D02*
X9906000Y-7606500D01*
X9856000Y-7556500D02*
X9956000Y-7556500D01*
X9906800Y-10567200D02*
X10006800Y-10667200D01*
X10006800Y-10567200D02*
X9906800Y-10667200D01*
X9956800Y-10567200D02*
X9956800Y-10667200D01*
X9906800Y-10617200D02*
X10006800Y-10617200D01*
X9906800Y-10821200D02*
X10006800Y-10921200D01*
X10006800Y-10821200D02*
X9906800Y-10921200D01*
X9956800Y-10821200D02*
X9956800Y-10921200D01*
X9906800Y-10871200D02*
X10006800Y-10871200D01*
X10160800Y-10567200D02*
X10260800Y-10667200D01*
X10260800Y-10567200D02*
X10160800Y-10667200D01*
X10210800Y-10567200D02*
X10210800Y-10667200D01*
X10160800Y-10617200D02*
X10260800Y-10617200D01*
X10160800Y-10821200D02*
X10260800Y-10921200D01*
X10260800Y-10821200D02*
X10160800Y-10921200D01*
X10210800Y-10821200D02*
X10210800Y-10921200D01*
X10160800Y-10871200D02*
X10260800Y-10871200D01*
X10414800Y-10567200D02*
X10514800Y-10667200D01*
X10514800Y-10567200D02*
X10414800Y-10667200D01*
X10464800Y-10567200D02*
X10464800Y-10667200D01*
X10414800Y-10617200D02*
X10514800Y-10617200D01*
X10414800Y-10821200D02*
X10514800Y-10921200D01*
X10514800Y-10821200D02*
X10414800Y-10921200D01*
X10464800Y-10821200D02*
X10464800Y-10921200D01*
X10414800Y-10871200D02*
X10514800Y-10871200D01*
X10668800Y-10567200D02*
X10768800Y-10667200D01*
X10768800Y-10567200D02*
X10668800Y-10667200D01*
X10718800Y-10567200D02*
X10718800Y-10667200D01*
X10668800Y-10617200D02*
X10768800Y-10617200D01*
X10668800Y-10821200D02*
X10768800Y-10921200D01*
X10768800Y-10821200D02*
X10668800Y-10921200D01*
X10718800Y-10821200D02*
X10718800Y-10921200D01*
X10668800Y-10871200D02*
X10768800Y-10871200D01*
X10922800Y-10567200D02*
X11022800Y-10667200D01*
X11022800Y-10567200D02*
X10922800Y-10667200D01*
X10972800Y-10567200D02*
X10972800Y-10667200D01*
X10922800Y-10617200D02*
X11022800Y-10617200D01*
X10922800Y-10821200D02*
X11022800Y-10921200D01*
X11022800Y-10821200D02*
X10922800Y-10921200D01*
X10972800Y-10821200D02*
X10972800Y-10921200D01*
X10922800Y-10871200D02*
X11022800Y-10871200D01*
X11176800Y-10567200D02*
X11276800Y-10667200D01*
X11276800Y-10567200D02*
X11176800Y-10667200D01*
X11226800Y-10567200D02*
X11226800Y-10667200D01*
X11176800Y-10617200D02*
X11276800Y-10617200D01*
X11176800Y-10821200D02*
X11276800Y-10921200D01*
X11276800Y-10821200D02*
X11176800Y-10921200D01*
X11226800Y-10821200D02*
X11226800Y-10921200D01*
X11176800Y-10871200D02*
X11276800Y-10871200D01*
X11430800Y-10567200D02*
X11530800Y-10667200D01*
X11530800Y-10567200D02*
X11430800Y-10667200D01*
X11480800Y-10567200D02*
X11480800Y-10667200D01*
X11430800Y-10617200D02*
X11530800Y-10617200D01*
X11430800Y-10821200D02*
X11530800Y-10921200D01*
X11530800Y-10821200D02*
X11430800Y-10921200D01*
X11480800Y-10821200D02*
X11480800Y-10921200D01*
X11430800Y-10871200D02*
X11530800Y-10871200D01*
X11684800Y-10567200D02*
X11784800Y-10667200D01*
X11784800Y-10567200D02*
X11684800Y-10667200D01*
X11734800Y-10567200D02*
X11734800Y-10667200D01*
X11684800Y-10617200D02*
X11784800Y-10617200D01*
X11684800Y-10821200D02*
X11784800Y-10921200D01*
X11784800Y-10821200D02*
X11684800Y-10921200D01*
X11734800Y-10821200D02*
X11734800Y-10921200D01*
X11684800Y-10871200D02*
X11784800Y-10871200D01*
X11938800Y-10567200D02*
X12038800Y-10667200D01*
X12038800Y-10567200D02*
X11938800Y-10667200D01*
X11988800Y-10567200D02*
X11988800Y-10667200D01*
X11938800Y-10617200D02*
X12038800Y-10617200D01*
X11938800Y-10821200D02*
X12038800Y-10921200D01*
X12038800Y-10821200D02*
X11938800Y-10921200D01*
X11988800Y-10821200D02*
X11988800Y-10921200D01*
X11938800Y-10871200D02*
X12038800Y-10871200D01*
X12192800Y-10567200D02*
X12292800Y-10667200D01*
X12292800Y-10567200D02*
X12192800Y-10667200D01*
X12242800Y-10567200D02*
X12242800Y-10667200D01*
X12192800Y-10617200D02*
X12292800Y-10617200D01*
X12192800Y-10821200D02*
X12292800Y-10921200D01*
X12292800Y-10821200D02*
X12192800Y-10921200D01*
X12242800Y-10821200D02*
X12242800Y-10921200D01*
X12192800Y-10871200D02*
X12292800Y-10871200D01*
X12446800Y-10567200D02*
X12546800Y-10667200D01*
X12546800Y-10567200D02*
X12446800Y-10667200D01*
X12496800Y-10567200D02*
X12496800Y-10667200D01*
X12446800Y-10617200D02*
X12546800Y-10617200D01*
X12446800Y-10821200D02*
X12546800Y-10921200D01*
X12546800Y-10821200D02*
X12446800Y-10921200D01*
X12496800Y-10821200D02*
X12496800Y-10921200D01*
X12446800Y-10871200D02*
X12546800Y-10871200D01*
X12700800Y-10567200D02*
X12800800Y-10667200D01*
X12800800Y-10567200D02*
X12700800Y-10667200D01*
X12750800Y-10567200D02*
X12750800Y-10667200D01*
X12700800Y-10617200D02*
X12800800Y-10617200D01*
X12700800Y-10821200D02*
X12800800Y-10921200D01*
X12800800Y-10821200D02*
X12700800Y-10921200D01*
X12750800Y-10821200D02*
X12750800Y-10921200D01*
X12700800Y-10871200D02*
X12800800Y-10871200D01*
X12954800Y-10567200D02*
X13054800Y-10667200D01*
X13054800Y-10567200D02*
X12954800Y-10667200D01*
X13004800Y-10567200D02*
X13004800Y-10667200D01*
X12954800Y-10617200D02*
X13054800Y-10617200D01*
X12954800Y-10821200D02*
X13054800Y-10921200D01*
X13054800Y-10821200D02*
X12954800Y-10921200D01*
X13004800Y-10821200D02*
X13004800Y-10921200D01*
X12954800Y-10871200D02*
X13054800Y-10871200D01*
X8522500Y-9284500D02*
X8622500Y-9384500D01*
X8622500Y-9284500D02*
X8522500Y-9384500D01*
X8572500Y-9284500D02*
X8572500Y-9384500D01*
X8522500Y-9334500D02*
X8622500Y-9334500D01*
X8522500Y-9538500D02*
X8622500Y-9638500D01*
X8622500Y-9538500D02*
X8522500Y-9638500D01*
X8572500Y-9538500D02*
X8572500Y-9638500D01*
X8522500Y-9588500D02*
X8622500Y-9588500D01*
X8522500Y-9792500D02*
X8622500Y-9892500D01*
X8622500Y-9792500D02*
X8522500Y-9892500D01*
X8572500Y-9792500D02*
X8572500Y-9892500D01*
X8522500Y-9842500D02*
X8622500Y-9842500D01*
X9906800Y-8027200D02*
X10006800Y-8127200D01*
X10006800Y-8027200D02*
X9906800Y-8127200D01*
X9956800Y-8027200D02*
X9956800Y-8127200D01*
X9906800Y-8077200D02*
X10006800Y-8077200D01*
X9906800Y-8281200D02*
X10006800Y-8381200D01*
X10006800Y-8281200D02*
X9906800Y-8381200D01*
X9956800Y-8281200D02*
X9956800Y-8381200D01*
X9906800Y-8331200D02*
X10006800Y-8331200D01*
X10160800Y-8027200D02*
X10260800Y-8127200D01*
X10260800Y-8027200D02*
X10160800Y-8127200D01*
X10210800Y-8027200D02*
X10210800Y-8127200D01*
X10160800Y-8077200D02*
X10260800Y-8077200D01*
X10160800Y-8281200D02*
X10260800Y-8381200D01*
X10260800Y-8281200D02*
X10160800Y-8381200D01*
X10210800Y-8281200D02*
X10210800Y-8381200D01*
X10160800Y-8331200D02*
X10260800Y-8331200D01*
X10414800Y-8027200D02*
X10514800Y-8127200D01*
X10514800Y-8027200D02*
X10414800Y-8127200D01*
X10464800Y-8027200D02*
X10464800Y-8127200D01*
X10414800Y-8077200D02*
X10514800Y-8077200D01*
X10414800Y-8281200D02*
X10514800Y-8381200D01*
X10514800Y-8281200D02*
X10414800Y-8381200D01*
X10464800Y-8281200D02*
X10464800Y-8381200D01*
X10414800Y-8331200D02*
X10514800Y-8331200D01*
X10668800Y-8027200D02*
X10768800Y-8127200D01*
X10768800Y-8027200D02*
X10668800Y-8127200D01*
X10718800Y-8027200D02*
X10718800Y-8127200D01*
X10668800Y-8077200D02*
X10768800Y-8077200D01*
X10668800Y-8281200D02*
X10768800Y-8381200D01*
X10768800Y-8281200D02*
X10668800Y-8381200D01*
X10718800Y-8281200D02*
X10718800Y-8381200D01*
X10668800Y-8331200D02*
X10768800Y-8331200D01*
X10922800Y-8027200D02*
X11022800Y-8127200D01*
X11022800Y-8027200D02*
X10922800Y-8127200D01*
X10972800Y-8027200D02*
X10972800Y-8127200D01*
X10922800Y-8077200D02*
X11022800Y-8077200D01*
X10922800Y-8281200D02*
X11022800Y-8381200D01*
X11022800Y-8281200D02*
X10922800Y-8381200D01*
X10972800Y-8281200D02*
X10972800Y-8381200D01*
X10922800Y-8331200D02*
X11022800Y-8331200D01*
X11176800Y-8027200D02*
X11276800Y-8127200D01*
X11276800Y-8027200D02*
X11176800Y-8127200D01*
X11226800Y-8027200D02*
X11226800Y-8127200D01*
X11176800Y-8077200D02*
X11276800Y-8077200D01*
X11176800Y-8281200D02*
X11276800Y-8381200D01*
X11276800Y-8281200D02*
X11176800Y-8381200D01*
X11226800Y-8281200D02*
X11226800Y-8381200D01*
X11176800Y-8331200D02*
X11276800Y-8331200D01*
X11430800Y-8027200D02*
X11530800Y-8127200D01*
X11530800Y-8027200D02*
X11430800Y-8127200D01*
X11480800Y-8027200D02*
X11480800Y-8127200D01*
X11430800Y-8077200D02*
X11530800Y-8077200D01*
X11430800Y-8281200D02*
X11530800Y-8381200D01*
X11530800Y-8281200D02*
X11430800Y-8381200D01*
X11480800Y-8281200D02*
X11480800Y-8381200D01*
X11430800Y-8331200D02*
X11530800Y-8331200D01*
X11684800Y-8027200D02*
X11784800Y-8127200D01*
X11784800Y-8027200D02*
X11684800Y-8127200D01*
X11734800Y-8027200D02*
X11734800Y-8127200D01*
X11684800Y-8077200D02*
X11784800Y-8077200D01*
X11684800Y-8281200D02*
X11784800Y-8381200D01*
X11784800Y-8281200D02*
X11684800Y-8381200D01*
X11734800Y-8281200D02*
X11734800Y-8381200D01*
X11684800Y-8331200D02*
X11784800Y-8331200D01*
X11938800Y-8027200D02*
X12038800Y-8127200D01*
X12038800Y-8027200D02*
X11938800Y-8127200D01*
X11988800Y-8027200D02*
X11988800Y-8127200D01*
X11938800Y-8077200D02*
X12038800Y-8077200D01*
X11938800Y-8281200D02*
X12038800Y-8381200D01*
X12038800Y-8281200D02*
X11938800Y-8381200D01*
X11988800Y-8281200D02*
X11988800Y-8381200D01*
X11938800Y-8331200D02*
X12038800Y-8331200D01*
X12192800Y-8027200D02*
X12292800Y-8127200D01*
X12292800Y-8027200D02*
X12192800Y-8127200D01*
X12242800Y-8027200D02*
X12242800Y-8127200D01*
X12192800Y-8077200D02*
X12292800Y-8077200D01*
X12192800Y-8281200D02*
X12292800Y-8381200D01*
X12292800Y-8281200D02*
X12192800Y-8381200D01*
X12242800Y-8281200D02*
X12242800Y-8381200D01*
X12192800Y-8331200D02*
X12292800Y-8331200D01*
X12446800Y-8027200D02*
X12546800Y-8127200D01*
X12546800Y-8027200D02*
X12446800Y-8127200D01*
X12496800Y-8027200D02*
X12496800Y-8127200D01*
X12446800Y-8077200D02*
X12546800Y-8077200D01*
X12446800Y-8281200D02*
X12546800Y-8381200D01*
X12546800Y-8281200D02*
X12446800Y-8381200D01*
X12496800Y-8281200D02*
X12496800Y-8381200D01*
X12446800Y-8331200D02*
X12546800Y-8331200D01*
X12700800Y-8027200D02*
X12800800Y-8127200D01*
X12800800Y-8027200D02*
X12700800Y-8127200D01*
X12750800Y-8027200D02*
X12750800Y-8127200D01*
X12700800Y-8077200D02*
X12800800Y-8077200D01*
X12700800Y-8281200D02*
X12800800Y-8381200D01*
X12800800Y-8281200D02*
X12700800Y-8381200D01*
X12750800Y-8281200D02*
X12750800Y-8381200D01*
X12700800Y-8331200D02*
X12800800Y-8331200D01*
X12954800Y-8027200D02*
X13054800Y-8127200D01*
X13054800Y-8027200D02*
X12954800Y-8127200D01*
X13004800Y-8027200D02*
X13004800Y-8127200D01*
X12954800Y-8077200D02*
X13054800Y-8077200D01*
X12954800Y-8281200D02*
X13054800Y-8381200D01*
X13054800Y-8281200D02*
X12954800Y-8381200D01*
X13004800Y-8281200D02*
X13004800Y-8381200D01*
X12954800Y-8331200D02*
X13054800Y-8331200D01*
X12586500Y-7506500D02*
X12686500Y-7606500D01*
X12686500Y-7506500D02*
X12586500Y-7606500D01*
X12636500Y-7506500D02*
X12636500Y-7606500D01*
X12586500Y-7556500D02*
X12686500Y-7556500D01*
X12840500Y-7506500D02*
X12940500Y-7606500D01*
X12940500Y-7506500D02*
X12840500Y-7606500D01*
X12890500Y-7506500D02*
X12890500Y-7606500D01*
X12840500Y-7556500D02*
X12940500Y-7556500D01*
X13094500Y-7506500D02*
X13194500Y-7606500D01*
X13194500Y-7506500D02*
X13094500Y-7606500D01*
X13144500Y-7506500D02*
X13144500Y-7606500D01*
X13094500Y-7556500D02*
X13194500Y-7556500D01*
X10999000Y-7506500D02*
X11099000Y-7606500D01*
X11099000Y-7506500D02*
X10999000Y-7606500D01*
X11049000Y-7506500D02*
X11049000Y-7606500D01*
X10999000Y-7556500D02*
X11099000Y-7556500D01*
X11253000Y-7506500D02*
X11353000Y-7606500D01*
X11353000Y-7506500D02*
X11253000Y-7606500D01*
X11303000Y-7506500D02*
X11303000Y-7606500D01*
X11253000Y-7556500D02*
X11353000Y-7556500D01*
X11507000Y-7506500D02*
X11607000Y-7606500D01*
X11607000Y-7506500D02*
X11507000Y-7606500D01*
X11557000Y-7506500D02*
X11557000Y-7606500D01*
X11507000Y-7556500D02*
X11607000Y-7556500D01*
X11761000Y-7506500D02*
X11861000Y-7606500D01*
X11861000Y-7506500D02*
X11761000Y-7606500D01*
X11811000Y-7506500D02*
X11811000Y-7606500D01*
X11761000Y-7556500D02*
X11861000Y-7556500D01*
X12015000Y-7506500D02*
X12115000Y-7606500D01*
X12115000Y-7506500D02*
X12015000Y-7606500D01*
X12065000Y-7506500D02*
X12065000Y-7606500D01*
X12015000Y-7556500D02*
X12115000Y-7556500D01*
X8890800Y-7316000D02*
X8990800Y-7416000D01*
X8990800Y-7316000D02*
X8890800Y-7416000D01*
X8940800Y-7316000D02*
X8940800Y-7416000D01*
X8890800Y-7366000D02*
X8990800Y-7366000D01*
X9144800Y-7316000D02*
X9244800Y-7416000D01*
X9244800Y-7316000D02*
X9144800Y-7416000D01*
X9194800Y-7316000D02*
X9194800Y-7416000D01*
X9144800Y-7366000D02*
X9244800Y-7366000D01*
X9398800Y-7316000D02*
X9498800Y-7416000D01*
X9498800Y-7316000D02*
X9398800Y-7416000D01*
X9448800Y-7316000D02*
X9448800Y-7416000D01*
X9398800Y-7366000D02*
X9498800Y-7366000D01*
X16460000Y-11090400D02*
X16560000Y-11190400D01*
X16560000Y-11090400D02*
X16460000Y-11190400D01*
X16510000Y-11090400D02*
X16510000Y-11190400D01*
X16460000Y-11140400D02*
X16560000Y-11140400D01*
X16460000Y-11344400D02*
X16560000Y-11444400D01*
X16560000Y-11344400D02*
X16460000Y-11444400D01*
X16510000Y-11344400D02*
X16510000Y-11444400D01*
X16460000Y-11394400D02*
X16560000Y-11394400D01*
X16460000Y-11598400D02*
X16560000Y-11698400D01*
X16560000Y-11598400D02*
X16460000Y-11698400D01*
X16510000Y-11598400D02*
X16510000Y-11698400D01*
X16460000Y-11648400D02*
X16560000Y-11648400D01*
X16460000Y-11852400D02*
X16560000Y-11952400D01*
X16560000Y-11852400D02*
X16460000Y-11952400D01*
X16510000Y-11852400D02*
X16510000Y-11952400D01*
X16460000Y-11902400D02*
X16560000Y-11902400D01*
X16460000Y-12106400D02*
X16560000Y-12206400D01*
X16560000Y-12106400D02*
X16460000Y-12206400D01*
X16510000Y-12106400D02*
X16510000Y-12206400D01*
X16460000Y-12156400D02*
X16560000Y-12156400D01*
X10427500Y-6998500D02*
X10527500Y-7098500D01*
X10527500Y-6998500D02*
X10427500Y-7098500D01*
X10477500Y-6998500D02*
X10477500Y-7098500D01*
X10427500Y-7048500D02*
X10527500Y-7048500D01*
X10427500Y-7252500D02*
X10527500Y-7352500D01*
X10527500Y-7252500D02*
X10427500Y-7352500D01*
X10477500Y-7252500D02*
X10477500Y-7352500D01*
X10427500Y-7302500D02*
X10527500Y-7302500D01*
X10427500Y-7506500D02*
X10527500Y-7606500D01*
X10527500Y-7506500D02*
X10427500Y-7606500D01*
X10477500Y-7506500D02*
X10477500Y-7606500D01*
X10427500Y-7556500D02*
X10527500Y-7556500D01*
X8840000Y-6743500D02*
X8940000Y-6843500D01*
X8940000Y-6743500D02*
X8840000Y-6843500D01*
X8890000Y-6743500D02*
X8890000Y-6843500D01*
X8840000Y-6793500D02*
X8940000Y-6793500D01*
X9348000Y-6744500D02*
X9448000Y-6844500D01*
X9448000Y-6744500D02*
X9348000Y-6844500D01*
X9398000Y-6744500D02*
X9398000Y-6844500D01*
X9348000Y-6794500D02*
X9448000Y-6794500D01*
X15154362Y-9007602D02*
X15254438Y-9107678D01*
X15254438Y-9007602D02*
X15154362Y-9107678D01*
X15239782Y-9093023D02*
X15239782Y-9022258D01*
X15169017Y-9022258D01*
X15169017Y-9093023D01*
X15239782Y-9093023D01*
X15154362Y-10023602D02*
X15254438Y-10123678D01*
X15254438Y-10023602D02*
X15154362Y-10123678D01*
X15239782Y-10109023D02*
X15239782Y-10038258D01*
X15169017Y-10038258D01*
X15169017Y-10109023D01*
X15239782Y-10109023D01*
X8393000Y-7313500D02*
X8498000Y-7418500D01*
X8498000Y-7313500D02*
X8393000Y-7418500D01*
X8445500Y-7418500D02*
X8498000Y-7366000D01*
X8445500Y-7313500D01*
X8393000Y-7366000D01*
X8445500Y-7418500D01*
X8393000Y-7563500D02*
X8498000Y-7668500D01*
X8498000Y-7563500D02*
X8393000Y-7668500D01*
X8445500Y-7668500D02*
X8498000Y-7616000D01*
X8445500Y-7563500D01*
X8393000Y-7616000D01*
X8445500Y-7668500D01*
X13512800Y-11298800D02*
X13512800Y-11408800D01*
X13457800Y-11353800D02*
X13567800Y-11353800D01*
X13567800Y-11353800D02*
G75*
G03X13567800Y-11353800I-55000J0D01*
G01*
X13512800Y-11748800D02*
X13512800Y-11858800D01*
X13457800Y-11803800D02*
X13567800Y-11803800D01*
X13567800Y-11803800D02*
G75*
G03X13567800Y-11803800I-55000J0D01*
G01*
X14162800Y-11298800D02*
X14162800Y-11408800D01*
X14107800Y-11353800D02*
X14217800Y-11353800D01*
X14217800Y-11353800D02*
G75*
G03X14217800Y-11353800I-55000J0D01*
G01*
X14162800Y-11748800D02*
X14162800Y-11858800D01*
X14107800Y-11803800D02*
X14217800Y-11803800D01*
X14217800Y-11803800D02*
G75*
G03X14217800Y-11803800I-55000J0D01*
G01*
D12*
X8025928Y-13173214D02*
X8025928Y-12873214D01*
X8097357Y-12873214D01*
X8140214Y-12887500D01*
X8168786Y-12916071D01*
X8183071Y-12944643D01*
X8197357Y-13001786D01*
X8197357Y-13044643D01*
X8183071Y-13101786D01*
X8168786Y-13130357D01*
X8140214Y-13158929D01*
X8097357Y-13173214D01*
X8025928Y-13173214D01*
X8325928Y-13173214D02*
X8325928Y-12973214D01*
X8325928Y-13030357D02*
X8340214Y-13001786D01*
X8354500Y-12987500D01*
X8383071Y-12973214D01*
X8411643Y-12973214D01*
X8511643Y-13173214D02*
X8511643Y-12973214D01*
X8511643Y-12873214D02*
X8497357Y-12887500D01*
X8511643Y-12901786D01*
X8525928Y-12887500D01*
X8511643Y-12873214D01*
X8511643Y-12901786D01*
X8697357Y-13173214D02*
X8668786Y-13158929D01*
X8654500Y-13130357D01*
X8654500Y-12873214D01*
X8854500Y-13173214D02*
X8825928Y-13158929D01*
X8811643Y-13130357D01*
X8811643Y-12873214D01*
X9197357Y-13173214D02*
X9197357Y-12873214D01*
X9297357Y-13087500D01*
X9397357Y-12873214D01*
X9397357Y-13173214D01*
X9668786Y-13173214D02*
X9668786Y-13016071D01*
X9654500Y-12987500D01*
X9625928Y-12973214D01*
X9568786Y-12973214D01*
X9540214Y-12987500D01*
X9668786Y-13158929D02*
X9640214Y-13173214D01*
X9568786Y-13173214D01*
X9540214Y-13158929D01*
X9525928Y-13130357D01*
X9525928Y-13101786D01*
X9540214Y-13073214D01*
X9568786Y-13058929D01*
X9640214Y-13058929D01*
X9668786Y-13044643D01*
X9811643Y-12973214D02*
X9811643Y-13273214D01*
X9811643Y-12987500D02*
X9840214Y-12973214D01*
X9897357Y-12973214D01*
X9925928Y-12987500D01*
X9940214Y-13001786D01*
X9954500Y-13030357D01*
X9954500Y-13116071D01*
X9940214Y-13144643D01*
X9925928Y-13158929D01*
X9897357Y-13173214D01*
X9840214Y-13173214D01*
X9811643Y-13158929D01*
X10083071Y-13144643D02*
X10097357Y-13158929D01*
X10083071Y-13173214D01*
X10068786Y-13158929D01*
X10083071Y-13144643D01*
X10083071Y-13173214D01*
X10083071Y-12987500D02*
X10097357Y-13001786D01*
X10083071Y-13016071D01*
X10068786Y-13001786D01*
X10083071Y-12987500D01*
X10083071Y-13016071D01*
X7699500Y-13647500D02*
X7739500Y-13687500D01*
X7739500Y-13647500D02*
X7699500Y-13687500D01*
X8083071Y-13503214D02*
X8111643Y-13503214D01*
X8140214Y-13517500D01*
X8154500Y-13531786D01*
X8168786Y-13560357D01*
X8183071Y-13617500D01*
X8183071Y-13688929D01*
X8168786Y-13746071D01*
X8154500Y-13774643D01*
X8140214Y-13788929D01*
X8111643Y-13803214D01*
X8083071Y-13803214D01*
X8054500Y-13788929D01*
X8040214Y-13774643D01*
X8025928Y-13746071D01*
X8011643Y-13688929D01*
X8011643Y-13617500D01*
X8025928Y-13560357D01*
X8040214Y-13531786D01*
X8054500Y-13517500D01*
X8083071Y-13503214D01*
X8311643Y-13774643D02*
X8325928Y-13788929D01*
X8311643Y-13803214D01*
X8297357Y-13788929D01*
X8311643Y-13774643D01*
X8311643Y-13803214D01*
X8583071Y-13603214D02*
X8583071Y-13803214D01*
X8511643Y-13488929D02*
X8440214Y-13703214D01*
X8625928Y-13703214D01*
X8797357Y-13503214D02*
X8825928Y-13503214D01*
X8854500Y-13517500D01*
X8868786Y-13531786D01*
X8883071Y-13560357D01*
X8897357Y-13617500D01*
X8897357Y-13688929D01*
X8883071Y-13746071D01*
X8868786Y-13774643D01*
X8854500Y-13788929D01*
X8825928Y-13803214D01*
X8797357Y-13803214D01*
X8768786Y-13788929D01*
X8754500Y-13774643D01*
X8740214Y-13746071D01*
X8725928Y-13688929D01*
X8725928Y-13617500D01*
X8740214Y-13560357D01*
X8754500Y-13531786D01*
X8768786Y-13517500D01*
X8797357Y-13503214D01*
X9025928Y-13803214D02*
X9025928Y-13603214D01*
X9025928Y-13631786D02*
X9040214Y-13617500D01*
X9068786Y-13603214D01*
X9111643Y-13603214D01*
X9140214Y-13617500D01*
X9154500Y-13646071D01*
X9154500Y-13803214D01*
X9154500Y-13646071D02*
X9168786Y-13617500D01*
X9197357Y-13603214D01*
X9240214Y-13603214D01*
X9268786Y-13617500D01*
X9283071Y-13646071D01*
X9283071Y-13803214D01*
X9425928Y-13803214D02*
X9425928Y-13603214D01*
X9425928Y-13631786D02*
X9440214Y-13617500D01*
X9468786Y-13603214D01*
X9511643Y-13603214D01*
X9540214Y-13617500D01*
X9554500Y-13646071D01*
X9554500Y-13803214D01*
X9554500Y-13646071D02*
X9568786Y-13617500D01*
X9597357Y-13603214D01*
X9640214Y-13603214D01*
X9668786Y-13617500D01*
X9683071Y-13646071D01*
X9683071Y-13803214D01*
X10268786Y-13488929D02*
X10011643Y-13874643D01*
X10654500Y-13503214D02*
X10683071Y-13503214D01*
X10711643Y-13517500D01*
X10725928Y-13531786D01*
X10740214Y-13560357D01*
X10754500Y-13617500D01*
X10754500Y-13688929D01*
X10740214Y-13746071D01*
X10725928Y-13774643D01*
X10711643Y-13788929D01*
X10683071Y-13803214D01*
X10654500Y-13803214D01*
X10625928Y-13788929D01*
X10611643Y-13774643D01*
X10597357Y-13746071D01*
X10583071Y-13688929D01*
X10583071Y-13617500D01*
X10597357Y-13560357D01*
X10611643Y-13531786D01*
X10625928Y-13517500D01*
X10654500Y-13503214D01*
X10883071Y-13774643D02*
X10897357Y-13788929D01*
X10883071Y-13803214D01*
X10868786Y-13788929D01*
X10883071Y-13774643D01*
X10883071Y-13803214D01*
X11083071Y-13503214D02*
X11111643Y-13503214D01*
X11140214Y-13517500D01*
X11154500Y-13531786D01*
X11168786Y-13560357D01*
X11183071Y-13617500D01*
X11183071Y-13688929D01*
X11168786Y-13746071D01*
X11154500Y-13774643D01*
X11140214Y-13788929D01*
X11111643Y-13803214D01*
X11083071Y-13803214D01*
X11054500Y-13788929D01*
X11040214Y-13774643D01*
X11025928Y-13746071D01*
X11011643Y-13688929D01*
X11011643Y-13617500D01*
X11025928Y-13560357D01*
X11040214Y-13531786D01*
X11054500Y-13517500D01*
X11083071Y-13503214D01*
X11468786Y-13803214D02*
X11297357Y-13803214D01*
X11383071Y-13803214D02*
X11383071Y-13503214D01*
X11354500Y-13546071D01*
X11325928Y-13574643D01*
X11297357Y-13588929D01*
X11725928Y-13503214D02*
X11668786Y-13503214D01*
X11640214Y-13517500D01*
X11625928Y-13531786D01*
X11597357Y-13574643D01*
X11583071Y-13631786D01*
X11583071Y-13746071D01*
X11597357Y-13774643D01*
X11611643Y-13788929D01*
X11640214Y-13803214D01*
X11697357Y-13803214D01*
X11725928Y-13788929D01*
X11740214Y-13774643D01*
X11754500Y-13746071D01*
X11754500Y-13674643D01*
X11740214Y-13646071D01*
X11725928Y-13631786D01*
X11697357Y-13617500D01*
X11640214Y-13617500D01*
X11611643Y-13631786D01*
X11597357Y-13646071D01*
X11583071Y-13674643D01*
X11868786Y-13503214D02*
X11868786Y-13560357D01*
X11983071Y-13503214D02*
X11983071Y-13560357D01*
X12425928Y-13917500D02*
X12411643Y-13903214D01*
X12383071Y-13860357D01*
X12368786Y-13831786D01*
X12354500Y-13788929D01*
X12340214Y-13717500D01*
X12340214Y-13660357D01*
X12354500Y-13588929D01*
X12368786Y-13546071D01*
X12383071Y-13517500D01*
X12411643Y-13474643D01*
X12425928Y-13460357D01*
X12668786Y-13503214D02*
X12611643Y-13503214D01*
X12583071Y-13517500D01*
X12568786Y-13531786D01*
X12540214Y-13574643D01*
X12525928Y-13631786D01*
X12525928Y-13746071D01*
X12540214Y-13774643D01*
X12554500Y-13788929D01*
X12583071Y-13803214D01*
X12640214Y-13803214D01*
X12668786Y-13788929D01*
X12683071Y-13774643D01*
X12697357Y-13746071D01*
X12697357Y-13674643D01*
X12683071Y-13646071D01*
X12668786Y-13631786D01*
X12640214Y-13617500D01*
X12583071Y-13617500D01*
X12554500Y-13631786D01*
X12540214Y-13646071D01*
X12525928Y-13674643D01*
X12797357Y-13503214D02*
X12997357Y-13503214D01*
X12868786Y-13803214D01*
X13340214Y-13803214D02*
X13340214Y-13503214D01*
X13468786Y-13803214D02*
X13468786Y-13646071D01*
X13454500Y-13617500D01*
X13425928Y-13603214D01*
X13383071Y-13603214D01*
X13354500Y-13617500D01*
X13340214Y-13631786D01*
X13654500Y-13803214D02*
X13625928Y-13788929D01*
X13611643Y-13774643D01*
X13597357Y-13746071D01*
X13597357Y-13660357D01*
X13611643Y-13631786D01*
X13625928Y-13617500D01*
X13654500Y-13603214D01*
X13697357Y-13603214D01*
X13725928Y-13617500D01*
X13740214Y-13631786D01*
X13754500Y-13660357D01*
X13754500Y-13746071D01*
X13740214Y-13774643D01*
X13725928Y-13788929D01*
X13697357Y-13803214D01*
X13654500Y-13803214D01*
X13925928Y-13803214D02*
X13897357Y-13788929D01*
X13883071Y-13760357D01*
X13883071Y-13503214D01*
X14154500Y-13788929D02*
X14125928Y-13803214D01*
X14068786Y-13803214D01*
X14040214Y-13788929D01*
X14025928Y-13760357D01*
X14025928Y-13646071D01*
X14040214Y-13617500D01*
X14068786Y-13603214D01*
X14125928Y-13603214D01*
X14154500Y-13617500D01*
X14168786Y-13646071D01*
X14168786Y-13674643D01*
X14025928Y-13703214D01*
X14283071Y-13788929D02*
X14311643Y-13803214D01*
X14368786Y-13803214D01*
X14397357Y-13788929D01*
X14411643Y-13760357D01*
X14411643Y-13746071D01*
X14397357Y-13717500D01*
X14368786Y-13703214D01*
X14325928Y-13703214D01*
X14297357Y-13688929D01*
X14283071Y-13660357D01*
X14283071Y-13646071D01*
X14297357Y-13617500D01*
X14325928Y-13603214D01*
X14368786Y-13603214D01*
X14397357Y-13617500D01*
X14511643Y-13917500D02*
X14525928Y-13903214D01*
X14554500Y-13860357D01*
X14568786Y-13831786D01*
X14583071Y-13788929D01*
X14597357Y-13717500D01*
X14597357Y-13660357D01*
X14583071Y-13588929D01*
X14568786Y-13546071D01*
X14554500Y-13517500D01*
X14525928Y-13474643D01*
X14511643Y-13460357D01*
X7739500Y-14063500D02*
G75*
G03X7739500Y-14063500I-35000J0D01*
G01*
X8083071Y-13899214D02*
X8111643Y-13899214D01*
X8140214Y-13913500D01*
X8154500Y-13927786D01*
X8168786Y-13956357D01*
X8183071Y-14013500D01*
X8183071Y-14084929D01*
X8168786Y-14142071D01*
X8154500Y-14170643D01*
X8140214Y-14184929D01*
X8111643Y-14199214D01*
X8083071Y-14199214D01*
X8054500Y-14184929D01*
X8040214Y-14170643D01*
X8025928Y-14142071D01*
X8011643Y-14084929D01*
X8011643Y-14013500D01*
X8025928Y-13956357D01*
X8040214Y-13927786D01*
X8054500Y-13913500D01*
X8083071Y-13899214D01*
X8311643Y-14170643D02*
X8325928Y-14184929D01*
X8311643Y-14199214D01*
X8297357Y-14184929D01*
X8311643Y-14170643D01*
X8311643Y-14199214D01*
X8425928Y-13899214D02*
X8625928Y-13899214D01*
X8497357Y-14199214D01*
X8797357Y-13899214D02*
X8825928Y-13899214D01*
X8854500Y-13913500D01*
X8868786Y-13927786D01*
X8883071Y-13956357D01*
X8897357Y-14013500D01*
X8897357Y-14084929D01*
X8883071Y-14142071D01*
X8868786Y-14170643D01*
X8854500Y-14184929D01*
X8825928Y-14199214D01*
X8797357Y-14199214D01*
X8768786Y-14184929D01*
X8754500Y-14170643D01*
X8740214Y-14142071D01*
X8725928Y-14084929D01*
X8725928Y-14013500D01*
X8740214Y-13956357D01*
X8754500Y-13927786D01*
X8768786Y-13913500D01*
X8797357Y-13899214D01*
X9025928Y-14199214D02*
X9025928Y-13999214D01*
X9025928Y-14027786D02*
X9040214Y-14013500D01*
X9068786Y-13999214D01*
X9111643Y-13999214D01*
X9140214Y-14013500D01*
X9154500Y-14042071D01*
X9154500Y-14199214D01*
X9154500Y-14042071D02*
X9168786Y-14013500D01*
X9197357Y-13999214D01*
X9240214Y-13999214D01*
X9268786Y-14013500D01*
X9283071Y-14042071D01*
X9283071Y-14199214D01*
X9425928Y-14199214D02*
X9425928Y-13999214D01*
X9425928Y-14027786D02*
X9440214Y-14013500D01*
X9468786Y-13999214D01*
X9511643Y-13999214D01*
X9540214Y-14013500D01*
X9554500Y-14042071D01*
X9554500Y-14199214D01*
X9554500Y-14042071D02*
X9568786Y-14013500D01*
X9597357Y-13999214D01*
X9640214Y-13999214D01*
X9668786Y-14013500D01*
X9683071Y-14042071D01*
X9683071Y-14199214D01*
X10268786Y-13884929D02*
X10011643Y-14270643D01*
X10654500Y-13899214D02*
X10683071Y-13899214D01*
X10711643Y-13913500D01*
X10725928Y-13927786D01*
X10740214Y-13956357D01*
X10754500Y-14013500D01*
X10754500Y-14084929D01*
X10740214Y-14142071D01*
X10725928Y-14170643D01*
X10711643Y-14184929D01*
X10683071Y-14199214D01*
X10654500Y-14199214D01*
X10625928Y-14184929D01*
X10611643Y-14170643D01*
X10597357Y-14142071D01*
X10583071Y-14084929D01*
X10583071Y-14013500D01*
X10597357Y-13956357D01*
X10611643Y-13927786D01*
X10625928Y-13913500D01*
X10654500Y-13899214D01*
X10883071Y-14170643D02*
X10897357Y-14184929D01*
X10883071Y-14199214D01*
X10868786Y-14184929D01*
X10883071Y-14170643D01*
X10883071Y-14199214D01*
X11083071Y-13899214D02*
X11111643Y-13899214D01*
X11140214Y-13913500D01*
X11154500Y-13927786D01*
X11168786Y-13956357D01*
X11183071Y-14013500D01*
X11183071Y-14084929D01*
X11168786Y-14142071D01*
X11154500Y-14170643D01*
X11140214Y-14184929D01*
X11111643Y-14199214D01*
X11083071Y-14199214D01*
X11054500Y-14184929D01*
X11040214Y-14170643D01*
X11025928Y-14142071D01*
X11011643Y-14084929D01*
X11011643Y-14013500D01*
X11025928Y-13956357D01*
X11040214Y-13927786D01*
X11054500Y-13913500D01*
X11083071Y-13899214D01*
X11297357Y-13927786D02*
X11311643Y-13913500D01*
X11340214Y-13899214D01*
X11411643Y-13899214D01*
X11440214Y-13913500D01*
X11454500Y-13927786D01*
X11468786Y-13956357D01*
X11468786Y-13984929D01*
X11454500Y-14027786D01*
X11283071Y-14199214D01*
X11468786Y-14199214D01*
X11640214Y-14027786D02*
X11611643Y-14013500D01*
X11597357Y-13999214D01*
X11583071Y-13970643D01*
X11583071Y-13956357D01*
X11597357Y-13927786D01*
X11611643Y-13913500D01*
X11640214Y-13899214D01*
X11697357Y-13899214D01*
X11725928Y-13913500D01*
X11740214Y-13927786D01*
X11754500Y-13956357D01*
X11754500Y-13970643D01*
X11740214Y-13999214D01*
X11725928Y-14013500D01*
X11697357Y-14027786D01*
X11640214Y-14027786D01*
X11611643Y-14042071D01*
X11597357Y-14056357D01*
X11583071Y-14084929D01*
X11583071Y-14142071D01*
X11597357Y-14170643D01*
X11611643Y-14184929D01*
X11640214Y-14199214D01*
X11697357Y-14199214D01*
X11725928Y-14184929D01*
X11740214Y-14170643D01*
X11754500Y-14142071D01*
X11754500Y-14084929D01*
X11740214Y-14056357D01*
X11725928Y-14042071D01*
X11697357Y-14027786D01*
X11868786Y-13899214D02*
X11868786Y-13956357D01*
X11983071Y-13899214D02*
X11983071Y-13956357D01*
X12425928Y-14313500D02*
X12411643Y-14299214D01*
X12383071Y-14256357D01*
X12368786Y-14227786D01*
X12354500Y-14184929D01*
X12340214Y-14113500D01*
X12340214Y-14056357D01*
X12354500Y-13984929D01*
X12368786Y-13942071D01*
X12383071Y-13913500D01*
X12411643Y-13870643D01*
X12425928Y-13856357D01*
X12683071Y-13899214D02*
X12540214Y-13899214D01*
X12525928Y-14042071D01*
X12540214Y-14027786D01*
X12568786Y-14013500D01*
X12640214Y-14013500D01*
X12668786Y-14027786D01*
X12683071Y-14042071D01*
X12697357Y-14070643D01*
X12697357Y-14142071D01*
X12683071Y-14170643D01*
X12668786Y-14184929D01*
X12640214Y-14199214D01*
X12568786Y-14199214D01*
X12540214Y-14184929D01*
X12525928Y-14170643D01*
X12883071Y-13899214D02*
X12911643Y-13899214D01*
X12940214Y-13913500D01*
X12954500Y-13927786D01*
X12968786Y-13956357D01*
X12983071Y-14013500D01*
X12983071Y-14084929D01*
X12968786Y-14142071D01*
X12954500Y-14170643D01*
X12940214Y-14184929D01*
X12911643Y-14199214D01*
X12883071Y-14199214D01*
X12854500Y-14184929D01*
X12840214Y-14170643D01*
X12825928Y-14142071D01*
X12811643Y-14084929D01*
X12811643Y-14013500D01*
X12825928Y-13956357D01*
X12840214Y-13927786D01*
X12854500Y-13913500D01*
X12883071Y-13899214D01*
X13340214Y-14199214D02*
X13340214Y-13899214D01*
X13468786Y-14199214D02*
X13468786Y-14042071D01*
X13454500Y-14013500D01*
X13425928Y-13999214D01*
X13383071Y-13999214D01*
X13354500Y-14013500D01*
X13340214Y-14027786D01*
X13654500Y-14199214D02*
X13625928Y-14184929D01*
X13611643Y-14170643D01*
X13597357Y-14142071D01*
X13597357Y-14056357D01*
X13611643Y-14027786D01*
X13625928Y-14013500D01*
X13654500Y-13999214D01*
X13697357Y-13999214D01*
X13725928Y-14013500D01*
X13740214Y-14027786D01*
X13754500Y-14056357D01*
X13754500Y-14142071D01*
X13740214Y-14170643D01*
X13725928Y-14184929D01*
X13697357Y-14199214D01*
X13654500Y-14199214D01*
X13925928Y-14199214D02*
X13897357Y-14184929D01*
X13883071Y-14156357D01*
X13883071Y-13899214D01*
X14154500Y-14184929D02*
X14125928Y-14199214D01*
X14068786Y-14199214D01*
X14040214Y-14184929D01*
X14025928Y-14156357D01*
X14025928Y-14042071D01*
X14040214Y-14013500D01*
X14068786Y-13999214D01*
X14125928Y-13999214D01*
X14154500Y-14013500D01*
X14168786Y-14042071D01*
X14168786Y-14070643D01*
X14025928Y-14099214D01*
X14283071Y-14184929D02*
X14311643Y-14199214D01*
X14368786Y-14199214D01*
X14397357Y-14184929D01*
X14411643Y-14156357D01*
X14411643Y-14142071D01*
X14397357Y-14113500D01*
X14368786Y-14099214D01*
X14325928Y-14099214D01*
X14297357Y-14084929D01*
X14283071Y-14056357D01*
X14283071Y-14042071D01*
X14297357Y-14013500D01*
X14325928Y-13999214D01*
X14368786Y-13999214D01*
X14397357Y-14013500D01*
X14511643Y-14313500D02*
X14525928Y-14299214D01*
X14554500Y-14256357D01*
X14568786Y-14227786D01*
X14583071Y-14184929D01*
X14597357Y-14113500D01*
X14597357Y-14056357D01*
X14583071Y-13984929D01*
X14568786Y-13942071D01*
X14554500Y-13913500D01*
X14525928Y-13870643D01*
X14511643Y-13856357D01*
X7701400Y-14421400D02*
X7701400Y-14497600D01*
X7663300Y-14459500D02*
X7739500Y-14459500D01*
X8083071Y-14295214D02*
X8111643Y-14295214D01*
X8140214Y-14309500D01*
X8154500Y-14323786D01*
X8168786Y-14352357D01*
X8183071Y-14409500D01*
X8183071Y-14480929D01*
X8168786Y-14538071D01*
X8154500Y-14566643D01*
X8140214Y-14580929D01*
X8111643Y-14595214D01*
X8083071Y-14595214D01*
X8054500Y-14580929D01*
X8040214Y-14566643D01*
X8025928Y-14538071D01*
X8011643Y-14480929D01*
X8011643Y-14409500D01*
X8025928Y-14352357D01*
X8040214Y-14323786D01*
X8054500Y-14309500D01*
X8083071Y-14295214D01*
X8311643Y-14566643D02*
X8325928Y-14580929D01*
X8311643Y-14595214D01*
X8297357Y-14580929D01*
X8311643Y-14566643D01*
X8311643Y-14595214D01*
X8425928Y-14295214D02*
X8625928Y-14295214D01*
X8497357Y-14595214D01*
X8868786Y-14295214D02*
X8811643Y-14295214D01*
X8783071Y-14309500D01*
X8768786Y-14323786D01*
X8740214Y-14366643D01*
X8725928Y-14423786D01*
X8725928Y-14538071D01*
X8740214Y-14566643D01*
X8754500Y-14580929D01*
X8783071Y-14595214D01*
X8840214Y-14595214D01*
X8868786Y-14580929D01*
X8883071Y-14566643D01*
X8897357Y-14538071D01*
X8897357Y-14466643D01*
X8883071Y-14438071D01*
X8868786Y-14423786D01*
X8840214Y-14409500D01*
X8783071Y-14409500D01*
X8754500Y-14423786D01*
X8740214Y-14438071D01*
X8725928Y-14466643D01*
X9025928Y-14595214D02*
X9025928Y-14395214D01*
X9025928Y-14423786D02*
X9040214Y-14409500D01*
X9068786Y-14395214D01*
X9111643Y-14395214D01*
X9140214Y-14409500D01*
X9154500Y-14438071D01*
X9154500Y-14595214D01*
X9154500Y-14438071D02*
X9168786Y-14409500D01*
X9197357Y-14395214D01*
X9240214Y-14395214D01*
X9268786Y-14409500D01*
X9283071Y-14438071D01*
X9283071Y-14595214D01*
X9425928Y-14595214D02*
X9425928Y-14395214D01*
X9425928Y-14423786D02*
X9440214Y-14409500D01*
X9468786Y-14395214D01*
X9511643Y-14395214D01*
X9540214Y-14409500D01*
X9554500Y-14438071D01*
X9554500Y-14595214D01*
X9554500Y-14438071D02*
X9568786Y-14409500D01*
X9597357Y-14395214D01*
X9640214Y-14395214D01*
X9668786Y-14409500D01*
X9683071Y-14438071D01*
X9683071Y-14595214D01*
X10268786Y-14280929D02*
X10011643Y-14666643D01*
X10654500Y-14295214D02*
X10683071Y-14295214D01*
X10711643Y-14309500D01*
X10725928Y-14323786D01*
X10740214Y-14352357D01*
X10754500Y-14409500D01*
X10754500Y-14480929D01*
X10740214Y-14538071D01*
X10725928Y-14566643D01*
X10711643Y-14580929D01*
X10683071Y-14595214D01*
X10654500Y-14595214D01*
X10625928Y-14580929D01*
X10611643Y-14566643D01*
X10597357Y-14538071D01*
X10583071Y-14480929D01*
X10583071Y-14409500D01*
X10597357Y-14352357D01*
X10611643Y-14323786D01*
X10625928Y-14309500D01*
X10654500Y-14295214D01*
X10883071Y-14566643D02*
X10897357Y-14580929D01*
X10883071Y-14595214D01*
X10868786Y-14580929D01*
X10883071Y-14566643D01*
X10883071Y-14595214D01*
X11083071Y-14295214D02*
X11111643Y-14295214D01*
X11140214Y-14309500D01*
X11154500Y-14323786D01*
X11168786Y-14352357D01*
X11183071Y-14409500D01*
X11183071Y-14480929D01*
X11168786Y-14538071D01*
X11154500Y-14566643D01*
X11140214Y-14580929D01*
X11111643Y-14595214D01*
X11083071Y-14595214D01*
X11054500Y-14580929D01*
X11040214Y-14566643D01*
X11025928Y-14538071D01*
X11011643Y-14480929D01*
X11011643Y-14409500D01*
X11025928Y-14352357D01*
X11040214Y-14323786D01*
X11054500Y-14309500D01*
X11083071Y-14295214D01*
X11283071Y-14295214D02*
X11468786Y-14295214D01*
X11368786Y-14409500D01*
X11411643Y-14409500D01*
X11440214Y-14423786D01*
X11454500Y-14438071D01*
X11468786Y-14466643D01*
X11468786Y-14538071D01*
X11454500Y-14566643D01*
X11440214Y-14580929D01*
X11411643Y-14595214D01*
X11325928Y-14595214D01*
X11297357Y-14580929D01*
X11283071Y-14566643D01*
X11654500Y-14295214D02*
X11683071Y-14295214D01*
X11711643Y-14309500D01*
X11725928Y-14323786D01*
X11740214Y-14352357D01*
X11754500Y-14409500D01*
X11754500Y-14480929D01*
X11740214Y-14538071D01*
X11725928Y-14566643D01*
X11711643Y-14580929D01*
X11683071Y-14595214D01*
X11654500Y-14595214D01*
X11625928Y-14580929D01*
X11611643Y-14566643D01*
X11597357Y-14538071D01*
X11583071Y-14480929D01*
X11583071Y-14409500D01*
X11597357Y-14352357D01*
X11611643Y-14323786D01*
X11625928Y-14309500D01*
X11654500Y-14295214D01*
X11868786Y-14295214D02*
X11868786Y-14352357D01*
X11983071Y-14295214D02*
X11983071Y-14352357D01*
X12425928Y-14709500D02*
X12411643Y-14695214D01*
X12383071Y-14652357D01*
X12368786Y-14623786D01*
X12354500Y-14580929D01*
X12340214Y-14509500D01*
X12340214Y-14452357D01*
X12354500Y-14380929D01*
X12368786Y-14338071D01*
X12383071Y-14309500D01*
X12411643Y-14266643D01*
X12425928Y-14252357D01*
X12525928Y-14323786D02*
X12540214Y-14309500D01*
X12568786Y-14295214D01*
X12640214Y-14295214D01*
X12668786Y-14309500D01*
X12683071Y-14323786D01*
X12697357Y-14352357D01*
X12697357Y-14380929D01*
X12683071Y-14423786D01*
X12511643Y-14595214D01*
X12697357Y-14595214D01*
X12797357Y-14295214D02*
X12983071Y-14295214D01*
X12883071Y-14409500D01*
X12925928Y-14409500D01*
X12954500Y-14423786D01*
X12968786Y-14438071D01*
X12983071Y-14466643D01*
X12983071Y-14538071D01*
X12968786Y-14566643D01*
X12954500Y-14580929D01*
X12925928Y-14595214D01*
X12840214Y-14595214D01*
X12811643Y-14580929D01*
X12797357Y-14566643D01*
X13340214Y-14595214D02*
X13340214Y-14295214D01*
X13468786Y-14595214D02*
X13468786Y-14438071D01*
X13454500Y-14409500D01*
X13425928Y-14395214D01*
X13383071Y-14395214D01*
X13354500Y-14409500D01*
X13340214Y-14423786D01*
X13654500Y-14595214D02*
X13625928Y-14580929D01*
X13611643Y-14566643D01*
X13597357Y-14538071D01*
X13597357Y-14452357D01*
X13611643Y-14423786D01*
X13625928Y-14409500D01*
X13654500Y-14395214D01*
X13697357Y-14395214D01*
X13725928Y-14409500D01*
X13740214Y-14423786D01*
X13754500Y-14452357D01*
X13754500Y-14538071D01*
X13740214Y-14566643D01*
X13725928Y-14580929D01*
X13697357Y-14595214D01*
X13654500Y-14595214D01*
X13925928Y-14595214D02*
X13897357Y-14580929D01*
X13883071Y-14552357D01*
X13883071Y-14295214D01*
X14154500Y-14580929D02*
X14125928Y-14595214D01*
X14068786Y-14595214D01*
X14040214Y-14580929D01*
X14025928Y-14552357D01*
X14025928Y-14438071D01*
X14040214Y-14409500D01*
X14068786Y-14395214D01*
X14125928Y-14395214D01*
X14154500Y-14409500D01*
X14168786Y-14438071D01*
X14168786Y-14466643D01*
X14025928Y-14495214D01*
X14283071Y-14580929D02*
X14311643Y-14595214D01*
X14368786Y-14595214D01*
X14397357Y-14580929D01*
X14411643Y-14552357D01*
X14411643Y-14538071D01*
X14397357Y-14509500D01*
X14368786Y-14495214D01*
X14325928Y-14495214D01*
X14297357Y-14480929D01*
X14283071Y-14452357D01*
X14283071Y-14438071D01*
X14297357Y-14409500D01*
X14325928Y-14395214D01*
X14368786Y-14395214D01*
X14397357Y-14409500D01*
X14511643Y-14709500D02*
X14525928Y-14695214D01*
X14554500Y-14652357D01*
X14568786Y-14623786D01*
X14583071Y-14580929D01*
X14597357Y-14509500D01*
X14597357Y-14452357D01*
X14583071Y-14380929D01*
X14568786Y-14338071D01*
X14554500Y-14309500D01*
X14525928Y-14266643D01*
X14511643Y-14252357D01*
X7727784Y-14883785D02*
X7727784Y-14827216D01*
X7671215Y-14827216D01*
X7671215Y-14883785D01*
X7727784Y-14883785D01*
X8083071Y-14691214D02*
X8111643Y-14691214D01*
X8140214Y-14705500D01*
X8154500Y-14719786D01*
X8168786Y-14748357D01*
X8183071Y-14805500D01*
X8183071Y-14876929D01*
X8168786Y-14934071D01*
X8154500Y-14962643D01*
X8140214Y-14976929D01*
X8111643Y-14991214D01*
X8083071Y-14991214D01*
X8054500Y-14976929D01*
X8040214Y-14962643D01*
X8025928Y-14934071D01*
X8011643Y-14876929D01*
X8011643Y-14805500D01*
X8025928Y-14748357D01*
X8040214Y-14719786D01*
X8054500Y-14705500D01*
X8083071Y-14691214D01*
X8311643Y-14962643D02*
X8325928Y-14976929D01*
X8311643Y-14991214D01*
X8297357Y-14976929D01*
X8311643Y-14962643D01*
X8311643Y-14991214D01*
X8497357Y-14819786D02*
X8468786Y-14805500D01*
X8454500Y-14791214D01*
X8440214Y-14762643D01*
X8440214Y-14748357D01*
X8454500Y-14719786D01*
X8468786Y-14705500D01*
X8497357Y-14691214D01*
X8554500Y-14691214D01*
X8583071Y-14705500D01*
X8597357Y-14719786D01*
X8611643Y-14748357D01*
X8611643Y-14762643D01*
X8597357Y-14791214D01*
X8583071Y-14805500D01*
X8554500Y-14819786D01*
X8497357Y-14819786D01*
X8468786Y-14834071D01*
X8454500Y-14848357D01*
X8440214Y-14876929D01*
X8440214Y-14934071D01*
X8454500Y-14962643D01*
X8468786Y-14976929D01*
X8497357Y-14991214D01*
X8554500Y-14991214D01*
X8583071Y-14976929D01*
X8597357Y-14962643D01*
X8611643Y-14934071D01*
X8611643Y-14876929D01*
X8597357Y-14848357D01*
X8583071Y-14834071D01*
X8554500Y-14819786D01*
X8797357Y-14691214D02*
X8825928Y-14691214D01*
X8854500Y-14705500D01*
X8868786Y-14719786D01*
X8883071Y-14748357D01*
X8897357Y-14805500D01*
X8897357Y-14876929D01*
X8883071Y-14934071D01*
X8868786Y-14962643D01*
X8854500Y-14976929D01*
X8825928Y-14991214D01*
X8797357Y-14991214D01*
X8768786Y-14976929D01*
X8754500Y-14962643D01*
X8740214Y-14934071D01*
X8725928Y-14876929D01*
X8725928Y-14805500D01*
X8740214Y-14748357D01*
X8754500Y-14719786D01*
X8768786Y-14705500D01*
X8797357Y-14691214D01*
X9025928Y-14991214D02*
X9025928Y-14791214D01*
X9025928Y-14819786D02*
X9040214Y-14805500D01*
X9068786Y-14791214D01*
X9111643Y-14791214D01*
X9140214Y-14805500D01*
X9154500Y-14834071D01*
X9154500Y-14991214D01*
X9154500Y-14834071D02*
X9168786Y-14805500D01*
X9197357Y-14791214D01*
X9240214Y-14791214D01*
X9268786Y-14805500D01*
X9283071Y-14834071D01*
X9283071Y-14991214D01*
X9425928Y-14991214D02*
X9425928Y-14791214D01*
X9425928Y-14819786D02*
X9440214Y-14805500D01*
X9468786Y-14791214D01*
X9511643Y-14791214D01*
X9540214Y-14805500D01*
X9554500Y-14834071D01*
X9554500Y-14991214D01*
X9554500Y-14834071D02*
X9568786Y-14805500D01*
X9597357Y-14791214D01*
X9640214Y-14791214D01*
X9668786Y-14805500D01*
X9683071Y-14834071D01*
X9683071Y-14991214D01*
X10268786Y-14676929D02*
X10011643Y-15062643D01*
X10654500Y-14691214D02*
X10683071Y-14691214D01*
X10711643Y-14705500D01*
X10725928Y-14719786D01*
X10740214Y-14748357D01*
X10754500Y-14805500D01*
X10754500Y-14876929D01*
X10740214Y-14934071D01*
X10725928Y-14962643D01*
X10711643Y-14976929D01*
X10683071Y-14991214D01*
X10654500Y-14991214D01*
X10625928Y-14976929D01*
X10611643Y-14962643D01*
X10597357Y-14934071D01*
X10583071Y-14876929D01*
X10583071Y-14805500D01*
X10597357Y-14748357D01*
X10611643Y-14719786D01*
X10625928Y-14705500D01*
X10654500Y-14691214D01*
X10883071Y-14962643D02*
X10897357Y-14976929D01*
X10883071Y-14991214D01*
X10868786Y-14976929D01*
X10883071Y-14962643D01*
X10883071Y-14991214D01*
X11083071Y-14691214D02*
X11111643Y-14691214D01*
X11140214Y-14705500D01*
X11154500Y-14719786D01*
X11168786Y-14748357D01*
X11183071Y-14805500D01*
X11183071Y-14876929D01*
X11168786Y-14934071D01*
X11154500Y-14962643D01*
X11140214Y-14976929D01*
X11111643Y-14991214D01*
X11083071Y-14991214D01*
X11054500Y-14976929D01*
X11040214Y-14962643D01*
X11025928Y-14934071D01*
X11011643Y-14876929D01*
X11011643Y-14805500D01*
X11025928Y-14748357D01*
X11040214Y-14719786D01*
X11054500Y-14705500D01*
X11083071Y-14691214D01*
X11283071Y-14691214D02*
X11468786Y-14691214D01*
X11368786Y-14805500D01*
X11411643Y-14805500D01*
X11440214Y-14819786D01*
X11454500Y-14834071D01*
X11468786Y-14862643D01*
X11468786Y-14934071D01*
X11454500Y-14962643D01*
X11440214Y-14976929D01*
X11411643Y-14991214D01*
X11325928Y-14991214D01*
X11297357Y-14976929D01*
X11283071Y-14962643D01*
X11754500Y-14991214D02*
X11583071Y-14991214D01*
X11668786Y-14991214D02*
X11668786Y-14691214D01*
X11640214Y-14734071D01*
X11611643Y-14762643D01*
X11583071Y-14776929D01*
X11868786Y-14691214D02*
X11868786Y-14748357D01*
X11983071Y-14691214D02*
X11983071Y-14748357D01*
X12425928Y-15105500D02*
X12411643Y-15091214D01*
X12383071Y-15048357D01*
X12368786Y-15019786D01*
X12354500Y-14976929D01*
X12340214Y-14905500D01*
X12340214Y-14848357D01*
X12354500Y-14776929D01*
X12368786Y-14734071D01*
X12383071Y-14705500D01*
X12411643Y-14662643D01*
X12425928Y-14648357D01*
X12683071Y-14691214D02*
X12540214Y-14691214D01*
X12525928Y-14834071D01*
X12540214Y-14819786D01*
X12568786Y-14805500D01*
X12640214Y-14805500D01*
X12668786Y-14819786D01*
X12683071Y-14834071D01*
X12697357Y-14862643D01*
X12697357Y-14934071D01*
X12683071Y-14962643D01*
X12668786Y-14976929D01*
X12640214Y-14991214D01*
X12568786Y-14991214D01*
X12540214Y-14976929D01*
X12525928Y-14962643D01*
X12883071Y-14691214D02*
X12911643Y-14691214D01*
X12940214Y-14705500D01*
X12954500Y-14719786D01*
X12968786Y-14748357D01*
X12983071Y-14805500D01*
X12983071Y-14876929D01*
X12968786Y-14934071D01*
X12954500Y-14962643D01*
X12940214Y-14976929D01*
X12911643Y-14991214D01*
X12883071Y-14991214D01*
X12854500Y-14976929D01*
X12840214Y-14962643D01*
X12825928Y-14934071D01*
X12811643Y-14876929D01*
X12811643Y-14805500D01*
X12825928Y-14748357D01*
X12840214Y-14719786D01*
X12854500Y-14705500D01*
X12883071Y-14691214D01*
X13340214Y-14991214D02*
X13340214Y-14691214D01*
X13468786Y-14991214D02*
X13468786Y-14834071D01*
X13454500Y-14805500D01*
X13425928Y-14791214D01*
X13383071Y-14791214D01*
X13354500Y-14805500D01*
X13340214Y-14819786D01*
X13654500Y-14991214D02*
X13625928Y-14976929D01*
X13611643Y-14962643D01*
X13597357Y-14934071D01*
X13597357Y-14848357D01*
X13611643Y-14819786D01*
X13625928Y-14805500D01*
X13654500Y-14791214D01*
X13697357Y-14791214D01*
X13725928Y-14805500D01*
X13740214Y-14819786D01*
X13754500Y-14848357D01*
X13754500Y-14934071D01*
X13740214Y-14962643D01*
X13725928Y-14976929D01*
X13697357Y-14991214D01*
X13654500Y-14991214D01*
X13925928Y-14991214D02*
X13897357Y-14976929D01*
X13883071Y-14948357D01*
X13883071Y-14691214D01*
X14154500Y-14976929D02*
X14125928Y-14991214D01*
X14068786Y-14991214D01*
X14040214Y-14976929D01*
X14025928Y-14948357D01*
X14025928Y-14834071D01*
X14040214Y-14805500D01*
X14068786Y-14791214D01*
X14125928Y-14791214D01*
X14154500Y-14805500D01*
X14168786Y-14834071D01*
X14168786Y-14862643D01*
X14025928Y-14891214D01*
X14283071Y-14976929D02*
X14311643Y-14991214D01*
X14368786Y-14991214D01*
X14397357Y-14976929D01*
X14411643Y-14948357D01*
X14411643Y-14934071D01*
X14397357Y-14905500D01*
X14368786Y-14891214D01*
X14325928Y-14891214D01*
X14297357Y-14876929D01*
X14283071Y-14848357D01*
X14283071Y-14834071D01*
X14297357Y-14805500D01*
X14325928Y-14791214D01*
X14368786Y-14791214D01*
X14397357Y-14805500D01*
X14511643Y-15105500D02*
X14525928Y-15091214D01*
X14554500Y-15048357D01*
X14568786Y-15019786D01*
X14583071Y-14976929D01*
X14597357Y-14905500D01*
X14597357Y-14848357D01*
X14583071Y-14776929D01*
X14568786Y-14734071D01*
X14554500Y-14705500D01*
X14525928Y-14662643D01*
X14511643Y-14648357D01*
X7698860Y-15292140D02*
X7739500Y-15251500D01*
X7698860Y-15210860D01*
X7658220Y-15251500D01*
X7698860Y-15292140D01*
X8083071Y-15087214D02*
X8111643Y-15087214D01*
X8140214Y-15101500D01*
X8154500Y-15115786D01*
X8168786Y-15144357D01*
X8183071Y-15201500D01*
X8183071Y-15272929D01*
X8168786Y-15330071D01*
X8154500Y-15358643D01*
X8140214Y-15372929D01*
X8111643Y-15387214D01*
X8083071Y-15387214D01*
X8054500Y-15372929D01*
X8040214Y-15358643D01*
X8025928Y-15330071D01*
X8011643Y-15272929D01*
X8011643Y-15201500D01*
X8025928Y-15144357D01*
X8040214Y-15115786D01*
X8054500Y-15101500D01*
X8083071Y-15087214D01*
X8311643Y-15358643D02*
X8325928Y-15372929D01*
X8311643Y-15387214D01*
X8297357Y-15372929D01*
X8311643Y-15358643D01*
X8311643Y-15387214D01*
X8497357Y-15215786D02*
X8468786Y-15201500D01*
X8454500Y-15187214D01*
X8440214Y-15158643D01*
X8440214Y-15144357D01*
X8454500Y-15115786D01*
X8468786Y-15101500D01*
X8497357Y-15087214D01*
X8554500Y-15087214D01*
X8583071Y-15101500D01*
X8597357Y-15115786D01*
X8611643Y-15144357D01*
X8611643Y-15158643D01*
X8597357Y-15187214D01*
X8583071Y-15201500D01*
X8554500Y-15215786D01*
X8497357Y-15215786D01*
X8468786Y-15230071D01*
X8454500Y-15244357D01*
X8440214Y-15272929D01*
X8440214Y-15330071D01*
X8454500Y-15358643D01*
X8468786Y-15372929D01*
X8497357Y-15387214D01*
X8554500Y-15387214D01*
X8583071Y-15372929D01*
X8597357Y-15358643D01*
X8611643Y-15330071D01*
X8611643Y-15272929D01*
X8597357Y-15244357D01*
X8583071Y-15230071D01*
X8554500Y-15215786D01*
X8897357Y-15387214D02*
X8725928Y-15387214D01*
X8811643Y-15387214D02*
X8811643Y-15087214D01*
X8783071Y-15130071D01*
X8754500Y-15158643D01*
X8725928Y-15172929D01*
X9025928Y-15387214D02*
X9025928Y-15187214D01*
X9025928Y-15215786D02*
X9040214Y-15201500D01*
X9068786Y-15187214D01*
X9111643Y-15187214D01*
X9140214Y-15201500D01*
X9154500Y-15230071D01*
X9154500Y-15387214D01*
X9154500Y-15230071D02*
X9168786Y-15201500D01*
X9197357Y-15187214D01*
X9240214Y-15187214D01*
X9268786Y-15201500D01*
X9283071Y-15230071D01*
X9283071Y-15387214D01*
X9425928Y-15387214D02*
X9425928Y-15187214D01*
X9425928Y-15215786D02*
X9440214Y-15201500D01*
X9468786Y-15187214D01*
X9511643Y-15187214D01*
X9540214Y-15201500D01*
X9554500Y-15230071D01*
X9554500Y-15387214D01*
X9554500Y-15230071D02*
X9568786Y-15201500D01*
X9597357Y-15187214D01*
X9640214Y-15187214D01*
X9668786Y-15201500D01*
X9683071Y-15230071D01*
X9683071Y-15387214D01*
X10268786Y-15072929D02*
X10011643Y-15458643D01*
X10654500Y-15087214D02*
X10683071Y-15087214D01*
X10711643Y-15101500D01*
X10725928Y-15115786D01*
X10740214Y-15144357D01*
X10754500Y-15201500D01*
X10754500Y-15272929D01*
X10740214Y-15330071D01*
X10725928Y-15358643D01*
X10711643Y-15372929D01*
X10683071Y-15387214D01*
X10654500Y-15387214D01*
X10625928Y-15372929D01*
X10611643Y-15358643D01*
X10597357Y-15330071D01*
X10583071Y-15272929D01*
X10583071Y-15201500D01*
X10597357Y-15144357D01*
X10611643Y-15115786D01*
X10625928Y-15101500D01*
X10654500Y-15087214D01*
X10883071Y-15358643D02*
X10897357Y-15372929D01*
X10883071Y-15387214D01*
X10868786Y-15372929D01*
X10883071Y-15358643D01*
X10883071Y-15387214D01*
X11083071Y-15087214D02*
X11111643Y-15087214D01*
X11140214Y-15101500D01*
X11154500Y-15115786D01*
X11168786Y-15144357D01*
X11183071Y-15201500D01*
X11183071Y-15272929D01*
X11168786Y-15330071D01*
X11154500Y-15358643D01*
X11140214Y-15372929D01*
X11111643Y-15387214D01*
X11083071Y-15387214D01*
X11054500Y-15372929D01*
X11040214Y-15358643D01*
X11025928Y-15330071D01*
X11011643Y-15272929D01*
X11011643Y-15201500D01*
X11025928Y-15144357D01*
X11040214Y-15115786D01*
X11054500Y-15101500D01*
X11083071Y-15087214D01*
X11283071Y-15087214D02*
X11468786Y-15087214D01*
X11368786Y-15201500D01*
X11411643Y-15201500D01*
X11440214Y-15215786D01*
X11454500Y-15230071D01*
X11468786Y-15258643D01*
X11468786Y-15330071D01*
X11454500Y-15358643D01*
X11440214Y-15372929D01*
X11411643Y-15387214D01*
X11325928Y-15387214D01*
X11297357Y-15372929D01*
X11283071Y-15358643D01*
X11583071Y-15115786D02*
X11597357Y-15101500D01*
X11625928Y-15087214D01*
X11697357Y-15087214D01*
X11725928Y-15101500D01*
X11740214Y-15115786D01*
X11754500Y-15144357D01*
X11754500Y-15172929D01*
X11740214Y-15215786D01*
X11568786Y-15387214D01*
X11754500Y-15387214D01*
X11868786Y-15087214D02*
X11868786Y-15144357D01*
X11983071Y-15087214D02*
X11983071Y-15144357D01*
X12425928Y-15501500D02*
X12411643Y-15487214D01*
X12383071Y-15444357D01*
X12368786Y-15415786D01*
X12354500Y-15372929D01*
X12340214Y-15301500D01*
X12340214Y-15244357D01*
X12354500Y-15172929D01*
X12368786Y-15130071D01*
X12383071Y-15101500D01*
X12411643Y-15058643D01*
X12425928Y-15044357D01*
X12525928Y-15115786D02*
X12540214Y-15101500D01*
X12568786Y-15087214D01*
X12640214Y-15087214D01*
X12668786Y-15101500D01*
X12683071Y-15115786D01*
X12697357Y-15144357D01*
X12697357Y-15172929D01*
X12683071Y-15215786D01*
X12511643Y-15387214D01*
X12697357Y-15387214D01*
X13054500Y-15387214D02*
X13054500Y-15087214D01*
X13183071Y-15387214D02*
X13183071Y-15230071D01*
X13168786Y-15201500D01*
X13140214Y-15187214D01*
X13097357Y-15187214D01*
X13068786Y-15201500D01*
X13054500Y-15215786D01*
X13368786Y-15387214D02*
X13340214Y-15372929D01*
X13325928Y-15358643D01*
X13311643Y-15330071D01*
X13311643Y-15244357D01*
X13325928Y-15215786D01*
X13340214Y-15201500D01*
X13368786Y-15187214D01*
X13411643Y-15187214D01*
X13440214Y-15201500D01*
X13454500Y-15215786D01*
X13468786Y-15244357D01*
X13468786Y-15330071D01*
X13454500Y-15358643D01*
X13440214Y-15372929D01*
X13411643Y-15387214D01*
X13368786Y-15387214D01*
X13640214Y-15387214D02*
X13611643Y-15372929D01*
X13597357Y-15344357D01*
X13597357Y-15087214D01*
X13868786Y-15372929D02*
X13840214Y-15387214D01*
X13783071Y-15387214D01*
X13754500Y-15372929D01*
X13740214Y-15344357D01*
X13740214Y-15230071D01*
X13754500Y-15201500D01*
X13783071Y-15187214D01*
X13840214Y-15187214D01*
X13868786Y-15201500D01*
X13883071Y-15230071D01*
X13883071Y-15258643D01*
X13740214Y-15287214D01*
X13997357Y-15372929D02*
X14025928Y-15387214D01*
X14083071Y-15387214D01*
X14111643Y-15372929D01*
X14125928Y-15344357D01*
X14125928Y-15330071D01*
X14111643Y-15301500D01*
X14083071Y-15287214D01*
X14040214Y-15287214D01*
X14011643Y-15272929D01*
X13997357Y-15244357D01*
X13997357Y-15230071D01*
X14011643Y-15201500D01*
X14040214Y-15187214D01*
X14083071Y-15187214D01*
X14111643Y-15201500D01*
X14225928Y-15501500D02*
X14240214Y-15487214D01*
X14268786Y-15444357D01*
X14283071Y-15415786D01*
X14297357Y-15372929D01*
X14311643Y-15301500D01*
X14311643Y-15244357D01*
X14297357Y-15172929D01*
X14283071Y-15130071D01*
X14268786Y-15101500D01*
X14240214Y-15058643D01*
X14225928Y-15044357D01*
X7649500Y-15602500D02*
X7739500Y-15692500D01*
X7739500Y-15602500D02*
X7649500Y-15692500D01*
X7739500Y-15647500D02*
G75*
G03X7739500Y-15647500I-45000J0D01*
G01*
X8083071Y-15483214D02*
X8111643Y-15483214D01*
X8140214Y-15497500D01*
X8154500Y-15511786D01*
X8168786Y-15540357D01*
X8183071Y-15597500D01*
X8183071Y-15668929D01*
X8168786Y-15726071D01*
X8154500Y-15754643D01*
X8140214Y-15768929D01*
X8111643Y-15783214D01*
X8083071Y-15783214D01*
X8054500Y-15768929D01*
X8040214Y-15754643D01*
X8025928Y-15726071D01*
X8011643Y-15668929D01*
X8011643Y-15597500D01*
X8025928Y-15540357D01*
X8040214Y-15511786D01*
X8054500Y-15497500D01*
X8083071Y-15483214D01*
X8311643Y-15754643D02*
X8325928Y-15768929D01*
X8311643Y-15783214D01*
X8297357Y-15768929D01*
X8311643Y-15754643D01*
X8311643Y-15783214D01*
X8468786Y-15783214D02*
X8525928Y-15783214D01*
X8554500Y-15768929D01*
X8568786Y-15754643D01*
X8597357Y-15711786D01*
X8611643Y-15654643D01*
X8611643Y-15540357D01*
X8597357Y-15511786D01*
X8583071Y-15497500D01*
X8554500Y-15483214D01*
X8497357Y-15483214D01*
X8468786Y-15497500D01*
X8454500Y-15511786D01*
X8440214Y-15540357D01*
X8440214Y-15611786D01*
X8454500Y-15640357D01*
X8468786Y-15654643D01*
X8497357Y-15668929D01*
X8554500Y-15668929D01*
X8583071Y-15654643D01*
X8597357Y-15640357D01*
X8611643Y-15611786D01*
X8797357Y-15483214D02*
X8825928Y-15483214D01*
X8854500Y-15497500D01*
X8868786Y-15511786D01*
X8883071Y-15540357D01*
X8897357Y-15597500D01*
X8897357Y-15668929D01*
X8883071Y-15726071D01*
X8868786Y-15754643D01*
X8854500Y-15768929D01*
X8825928Y-15783214D01*
X8797357Y-15783214D01*
X8768786Y-15768929D01*
X8754500Y-15754643D01*
X8740214Y-15726071D01*
X8725928Y-15668929D01*
X8725928Y-15597500D01*
X8740214Y-15540357D01*
X8754500Y-15511786D01*
X8768786Y-15497500D01*
X8797357Y-15483214D01*
X9025928Y-15783214D02*
X9025928Y-15583214D01*
X9025928Y-15611786D02*
X9040214Y-15597500D01*
X9068786Y-15583214D01*
X9111643Y-15583214D01*
X9140214Y-15597500D01*
X9154500Y-15626071D01*
X9154500Y-15783214D01*
X9154500Y-15626071D02*
X9168786Y-15597500D01*
X9197357Y-15583214D01*
X9240214Y-15583214D01*
X9268786Y-15597500D01*
X9283071Y-15626071D01*
X9283071Y-15783214D01*
X9425928Y-15783214D02*
X9425928Y-15583214D01*
X9425928Y-15611786D02*
X9440214Y-15597500D01*
X9468786Y-15583214D01*
X9511643Y-15583214D01*
X9540214Y-15597500D01*
X9554500Y-15626071D01*
X9554500Y-15783214D01*
X9554500Y-15626071D02*
X9568786Y-15597500D01*
X9597357Y-15583214D01*
X9640214Y-15583214D01*
X9668786Y-15597500D01*
X9683071Y-15626071D01*
X9683071Y-15783214D01*
X10268786Y-15468929D02*
X10011643Y-15854643D01*
X10654500Y-15483214D02*
X10683071Y-15483214D01*
X10711643Y-15497500D01*
X10725928Y-15511786D01*
X10740214Y-15540357D01*
X10754500Y-15597500D01*
X10754500Y-15668929D01*
X10740214Y-15726071D01*
X10725928Y-15754643D01*
X10711643Y-15768929D01*
X10683071Y-15783214D01*
X10654500Y-15783214D01*
X10625928Y-15768929D01*
X10611643Y-15754643D01*
X10597357Y-15726071D01*
X10583071Y-15668929D01*
X10583071Y-15597500D01*
X10597357Y-15540357D01*
X10611643Y-15511786D01*
X10625928Y-15497500D01*
X10654500Y-15483214D01*
X10883071Y-15754643D02*
X10897357Y-15768929D01*
X10883071Y-15783214D01*
X10868786Y-15768929D01*
X10883071Y-15754643D01*
X10883071Y-15783214D01*
X11083071Y-15483214D02*
X11111643Y-15483214D01*
X11140214Y-15497500D01*
X11154500Y-15511786D01*
X11168786Y-15540357D01*
X11183071Y-15597500D01*
X11183071Y-15668929D01*
X11168786Y-15726071D01*
X11154500Y-15754643D01*
X11140214Y-15768929D01*
X11111643Y-15783214D01*
X11083071Y-15783214D01*
X11054500Y-15768929D01*
X11040214Y-15754643D01*
X11025928Y-15726071D01*
X11011643Y-15668929D01*
X11011643Y-15597500D01*
X11025928Y-15540357D01*
X11040214Y-15511786D01*
X11054500Y-15497500D01*
X11083071Y-15483214D01*
X11283071Y-15483214D02*
X11468786Y-15483214D01*
X11368786Y-15597500D01*
X11411643Y-15597500D01*
X11440214Y-15611786D01*
X11454500Y-15626071D01*
X11468786Y-15654643D01*
X11468786Y-15726071D01*
X11454500Y-15754643D01*
X11440214Y-15768929D01*
X11411643Y-15783214D01*
X11325928Y-15783214D01*
X11297357Y-15768929D01*
X11283071Y-15754643D01*
X11740214Y-15483214D02*
X11597357Y-15483214D01*
X11583071Y-15626071D01*
X11597357Y-15611786D01*
X11625928Y-15597500D01*
X11697357Y-15597500D01*
X11725928Y-15611786D01*
X11740214Y-15626071D01*
X11754500Y-15654643D01*
X11754500Y-15726071D01*
X11740214Y-15754643D01*
X11725928Y-15768929D01*
X11697357Y-15783214D01*
X11625928Y-15783214D01*
X11597357Y-15768929D01*
X11583071Y-15754643D01*
X11868786Y-15483214D02*
X11868786Y-15540357D01*
X11983071Y-15483214D02*
X11983071Y-15540357D01*
X12425928Y-15897500D02*
X12411643Y-15883214D01*
X12383071Y-15840357D01*
X12368786Y-15811786D01*
X12354500Y-15768929D01*
X12340214Y-15697500D01*
X12340214Y-15640357D01*
X12354500Y-15568929D01*
X12368786Y-15526071D01*
X12383071Y-15497500D01*
X12411643Y-15454643D01*
X12425928Y-15440357D01*
X12697357Y-15783214D02*
X12525928Y-15783214D01*
X12611643Y-15783214D02*
X12611643Y-15483214D01*
X12583071Y-15526071D01*
X12554500Y-15554643D01*
X12525928Y-15568929D01*
X12883071Y-15483214D02*
X12911643Y-15483214D01*
X12940214Y-15497500D01*
X12954500Y-15511786D01*
X12968786Y-15540357D01*
X12983071Y-15597500D01*
X12983071Y-15668929D01*
X12968786Y-15726071D01*
X12954500Y-15754643D01*
X12940214Y-15768929D01*
X12911643Y-15783214D01*
X12883071Y-15783214D01*
X12854500Y-15768929D01*
X12840214Y-15754643D01*
X12825928Y-15726071D01*
X12811643Y-15668929D01*
X12811643Y-15597500D01*
X12825928Y-15540357D01*
X12840214Y-15511786D01*
X12854500Y-15497500D01*
X12883071Y-15483214D01*
X13340214Y-15783214D02*
X13340214Y-15483214D01*
X13468786Y-15783214D02*
X13468786Y-15626071D01*
X13454500Y-15597500D01*
X13425928Y-15583214D01*
X13383071Y-15583214D01*
X13354500Y-15597500D01*
X13340214Y-15611786D01*
X13654500Y-15783214D02*
X13625928Y-15768929D01*
X13611643Y-15754643D01*
X13597357Y-15726071D01*
X13597357Y-15640357D01*
X13611643Y-15611786D01*
X13625928Y-15597500D01*
X13654500Y-15583214D01*
X13697357Y-15583214D01*
X13725928Y-15597500D01*
X13740214Y-15611786D01*
X13754500Y-15640357D01*
X13754500Y-15726071D01*
X13740214Y-15754643D01*
X13725928Y-15768929D01*
X13697357Y-15783214D01*
X13654500Y-15783214D01*
X13925928Y-15783214D02*
X13897357Y-15768929D01*
X13883071Y-15740357D01*
X13883071Y-15483214D01*
X14154500Y-15768929D02*
X14125928Y-15783214D01*
X14068786Y-15783214D01*
X14040214Y-15768929D01*
X14025928Y-15740357D01*
X14025928Y-15626071D01*
X14040214Y-15597500D01*
X14068786Y-15583214D01*
X14125928Y-15583214D01*
X14154500Y-15597500D01*
X14168786Y-15626071D01*
X14168786Y-15654643D01*
X14025928Y-15683214D01*
X14283071Y-15768929D02*
X14311643Y-15783214D01*
X14368786Y-15783214D01*
X14397357Y-15768929D01*
X14411643Y-15740357D01*
X14411643Y-15726071D01*
X14397357Y-15697500D01*
X14368786Y-15683214D01*
X14325928Y-15683214D01*
X14297357Y-15668929D01*
X14283071Y-15640357D01*
X14283071Y-15626071D01*
X14297357Y-15597500D01*
X14325928Y-15583214D01*
X14368786Y-15583214D01*
X14397357Y-15597500D01*
X14511643Y-15897500D02*
X14525928Y-15883214D01*
X14554500Y-15840357D01*
X14568786Y-15811786D01*
X14583071Y-15768929D01*
X14597357Y-15697500D01*
X14597357Y-15640357D01*
X14583071Y-15568929D01*
X14568786Y-15526071D01*
X14554500Y-15497500D01*
X14525928Y-15454643D01*
X14511643Y-15440357D01*
X7639500Y-15993500D02*
X7739500Y-16093500D01*
X7739500Y-15993500D02*
X7639500Y-16093500D01*
X7689500Y-15993500D02*
X7689500Y-16093500D01*
X7639500Y-16043500D02*
X7739500Y-16043500D01*
X8183071Y-16179214D02*
X8011643Y-16179214D01*
X8097357Y-16179214D02*
X8097357Y-15879214D01*
X8068786Y-15922071D01*
X8040214Y-15950643D01*
X8011643Y-15964929D01*
X8311643Y-16150643D02*
X8325928Y-16164929D01*
X8311643Y-16179214D01*
X8297357Y-16164929D01*
X8311643Y-16150643D01*
X8311643Y-16179214D01*
X8511643Y-15879214D02*
X8540214Y-15879214D01*
X8568786Y-15893500D01*
X8583071Y-15907786D01*
X8597357Y-15936357D01*
X8611643Y-15993500D01*
X8611643Y-16064929D01*
X8597357Y-16122071D01*
X8583071Y-16150643D01*
X8568786Y-16164929D01*
X8540214Y-16179214D01*
X8511643Y-16179214D01*
X8483071Y-16164929D01*
X8468786Y-16150643D01*
X8454500Y-16122071D01*
X8440214Y-16064929D01*
X8440214Y-15993500D01*
X8454500Y-15936357D01*
X8468786Y-15907786D01*
X8483071Y-15893500D01*
X8511643Y-15879214D01*
X8797357Y-15879214D02*
X8825928Y-15879214D01*
X8854500Y-15893500D01*
X8868786Y-15907786D01*
X8883071Y-15936357D01*
X8897357Y-15993500D01*
X8897357Y-16064929D01*
X8883071Y-16122071D01*
X8868786Y-16150643D01*
X8854500Y-16164929D01*
X8825928Y-16179214D01*
X8797357Y-16179214D01*
X8768786Y-16164929D01*
X8754500Y-16150643D01*
X8740214Y-16122071D01*
X8725928Y-16064929D01*
X8725928Y-15993500D01*
X8740214Y-15936357D01*
X8754500Y-15907786D01*
X8768786Y-15893500D01*
X8797357Y-15879214D01*
X9025928Y-16179214D02*
X9025928Y-15979214D01*
X9025928Y-16007786D02*
X9040214Y-15993500D01*
X9068786Y-15979214D01*
X9111643Y-15979214D01*
X9140214Y-15993500D01*
X9154500Y-16022071D01*
X9154500Y-16179214D01*
X9154500Y-16022071D02*
X9168786Y-15993500D01*
X9197357Y-15979214D01*
X9240214Y-15979214D01*
X9268786Y-15993500D01*
X9283071Y-16022071D01*
X9283071Y-16179214D01*
X9425928Y-16179214D02*
X9425928Y-15979214D01*
X9425928Y-16007786D02*
X9440214Y-15993500D01*
X9468786Y-15979214D01*
X9511643Y-15979214D01*
X9540214Y-15993500D01*
X9554500Y-16022071D01*
X9554500Y-16179214D01*
X9554500Y-16022071D02*
X9568786Y-15993500D01*
X9597357Y-15979214D01*
X9640214Y-15979214D01*
X9668786Y-15993500D01*
X9683071Y-16022071D01*
X9683071Y-16179214D01*
X10268786Y-15864929D02*
X10011643Y-16250643D01*
X10654500Y-15879214D02*
X10683071Y-15879214D01*
X10711643Y-15893500D01*
X10725928Y-15907786D01*
X10740214Y-15936357D01*
X10754500Y-15993500D01*
X10754500Y-16064929D01*
X10740214Y-16122071D01*
X10725928Y-16150643D01*
X10711643Y-16164929D01*
X10683071Y-16179214D01*
X10654500Y-16179214D01*
X10625928Y-16164929D01*
X10611643Y-16150643D01*
X10597357Y-16122071D01*
X10583071Y-16064929D01*
X10583071Y-15993500D01*
X10597357Y-15936357D01*
X10611643Y-15907786D01*
X10625928Y-15893500D01*
X10654500Y-15879214D01*
X10883071Y-16150643D02*
X10897357Y-16164929D01*
X10883071Y-16179214D01*
X10868786Y-16164929D01*
X10883071Y-16150643D01*
X10883071Y-16179214D01*
X11083071Y-15879214D02*
X11111643Y-15879214D01*
X11140214Y-15893500D01*
X11154500Y-15907786D01*
X11168786Y-15936357D01*
X11183071Y-15993500D01*
X11183071Y-16064929D01*
X11168786Y-16122071D01*
X11154500Y-16150643D01*
X11140214Y-16164929D01*
X11111643Y-16179214D01*
X11083071Y-16179214D01*
X11054500Y-16164929D01*
X11040214Y-16150643D01*
X11025928Y-16122071D01*
X11011643Y-16064929D01*
X11011643Y-15993500D01*
X11025928Y-15936357D01*
X11040214Y-15907786D01*
X11054500Y-15893500D01*
X11083071Y-15879214D01*
X11283071Y-15879214D02*
X11468786Y-15879214D01*
X11368786Y-15993500D01*
X11411643Y-15993500D01*
X11440214Y-16007786D01*
X11454500Y-16022071D01*
X11468786Y-16050643D01*
X11468786Y-16122071D01*
X11454500Y-16150643D01*
X11440214Y-16164929D01*
X11411643Y-16179214D01*
X11325928Y-16179214D01*
X11297357Y-16164929D01*
X11283071Y-16150643D01*
X11611643Y-16179214D02*
X11668786Y-16179214D01*
X11697357Y-16164929D01*
X11711643Y-16150643D01*
X11740214Y-16107786D01*
X11754500Y-16050643D01*
X11754500Y-15936357D01*
X11740214Y-15907786D01*
X11725928Y-15893500D01*
X11697357Y-15879214D01*
X11640214Y-15879214D01*
X11611643Y-15893500D01*
X11597357Y-15907786D01*
X11583071Y-15936357D01*
X11583071Y-16007786D01*
X11597357Y-16036357D01*
X11611643Y-16050643D01*
X11640214Y-16064929D01*
X11697357Y-16064929D01*
X11725928Y-16050643D01*
X11740214Y-16036357D01*
X11754500Y-16007786D01*
X11868786Y-15879214D02*
X11868786Y-15936357D01*
X11983071Y-15879214D02*
X11983071Y-15936357D01*
X12425928Y-16293500D02*
X12411643Y-16279214D01*
X12383071Y-16236357D01*
X12368786Y-16207786D01*
X12354500Y-16164929D01*
X12340214Y-16093500D01*
X12340214Y-16036357D01*
X12354500Y-15964929D01*
X12368786Y-15922071D01*
X12383071Y-15893500D01*
X12411643Y-15850643D01*
X12425928Y-15836357D01*
X12583071Y-16007786D02*
X12554500Y-15993500D01*
X12540214Y-15979214D01*
X12525928Y-15950643D01*
X12525928Y-15936357D01*
X12540214Y-15907786D01*
X12554500Y-15893500D01*
X12583071Y-15879214D01*
X12640214Y-15879214D01*
X12668786Y-15893500D01*
X12683071Y-15907786D01*
X12697357Y-15936357D01*
X12697357Y-15950643D01*
X12683071Y-15979214D01*
X12668786Y-15993500D01*
X12640214Y-16007786D01*
X12583071Y-16007786D01*
X12554500Y-16022071D01*
X12540214Y-16036357D01*
X12525928Y-16064929D01*
X12525928Y-16122071D01*
X12540214Y-16150643D01*
X12554500Y-16164929D01*
X12583071Y-16179214D01*
X12640214Y-16179214D01*
X12668786Y-16164929D01*
X12683071Y-16150643D01*
X12697357Y-16122071D01*
X12697357Y-16064929D01*
X12683071Y-16036357D01*
X12668786Y-16022071D01*
X12640214Y-16007786D01*
X12868786Y-16007786D02*
X12840214Y-15993500D01*
X12825928Y-15979214D01*
X12811643Y-15950643D01*
X12811643Y-15936357D01*
X12825928Y-15907786D01*
X12840214Y-15893500D01*
X12868786Y-15879214D01*
X12925928Y-15879214D01*
X12954500Y-15893500D01*
X12968786Y-15907786D01*
X12983071Y-15936357D01*
X12983071Y-15950643D01*
X12968786Y-15979214D01*
X12954500Y-15993500D01*
X12925928Y-16007786D01*
X12868786Y-16007786D01*
X12840214Y-16022071D01*
X12825928Y-16036357D01*
X12811643Y-16064929D01*
X12811643Y-16122071D01*
X12825928Y-16150643D01*
X12840214Y-16164929D01*
X12868786Y-16179214D01*
X12925928Y-16179214D01*
X12954500Y-16164929D01*
X12968786Y-16150643D01*
X12983071Y-16122071D01*
X12983071Y-16064929D01*
X12968786Y-16036357D01*
X12954500Y-16022071D01*
X12925928Y-16007786D01*
X13340214Y-16179214D02*
X13340214Y-15879214D01*
X13468786Y-16179214D02*
X13468786Y-16022071D01*
X13454500Y-15993500D01*
X13425928Y-15979214D01*
X13383071Y-15979214D01*
X13354500Y-15993500D01*
X13340214Y-16007786D01*
X13654500Y-16179214D02*
X13625928Y-16164929D01*
X13611643Y-16150643D01*
X13597357Y-16122071D01*
X13597357Y-16036357D01*
X13611643Y-16007786D01*
X13625928Y-15993500D01*
X13654500Y-15979214D01*
X13697357Y-15979214D01*
X13725928Y-15993500D01*
X13740214Y-16007786D01*
X13754500Y-16036357D01*
X13754500Y-16122071D01*
X13740214Y-16150643D01*
X13725928Y-16164929D01*
X13697357Y-16179214D01*
X13654500Y-16179214D01*
X13925928Y-16179214D02*
X13897357Y-16164929D01*
X13883071Y-16136357D01*
X13883071Y-15879214D01*
X14154500Y-16164929D02*
X14125928Y-16179214D01*
X14068786Y-16179214D01*
X14040214Y-16164929D01*
X14025928Y-16136357D01*
X14025928Y-16022071D01*
X14040214Y-15993500D01*
X14068786Y-15979214D01*
X14125928Y-15979214D01*
X14154500Y-15993500D01*
X14168786Y-16022071D01*
X14168786Y-16050643D01*
X14025928Y-16079214D01*
X14283071Y-16164929D02*
X14311643Y-16179214D01*
X14368786Y-16179214D01*
X14397357Y-16164929D01*
X14411643Y-16136357D01*
X14411643Y-16122071D01*
X14397357Y-16093500D01*
X14368786Y-16079214D01*
X14325928Y-16079214D01*
X14297357Y-16064929D01*
X14283071Y-16036357D01*
X14283071Y-16022071D01*
X14297357Y-15993500D01*
X14325928Y-15979214D01*
X14368786Y-15979214D01*
X14397357Y-15993500D01*
X14768786Y-16064929D02*
X14997357Y-16064929D01*
X14883071Y-16179214D02*
X14883071Y-15950643D01*
X15340214Y-15879214D02*
X15525928Y-15879214D01*
X15425928Y-15993500D01*
X15468786Y-15993500D01*
X15497357Y-16007786D01*
X15511643Y-16022071D01*
X15525928Y-16050643D01*
X15525928Y-16122071D01*
X15511643Y-16150643D01*
X15497357Y-16164929D01*
X15468786Y-16179214D01*
X15383071Y-16179214D01*
X15354500Y-16164929D01*
X15340214Y-16150643D01*
X15868786Y-16164929D02*
X15897357Y-16179214D01*
X15954500Y-16179214D01*
X15983071Y-16164929D01*
X15997357Y-16136357D01*
X15997357Y-16122071D01*
X15983071Y-16093500D01*
X15954500Y-16079214D01*
X15911643Y-16079214D01*
X15883071Y-16064929D01*
X15868786Y-16036357D01*
X15868786Y-16022071D01*
X15883071Y-15993500D01*
X15911643Y-15979214D01*
X15954500Y-15979214D01*
X15983071Y-15993500D01*
X16168786Y-16179214D02*
X16140214Y-16164929D01*
X16125928Y-16136357D01*
X16125928Y-15879214D01*
X16325928Y-16179214D02*
X16297357Y-16164929D01*
X16283071Y-16150643D01*
X16268786Y-16122071D01*
X16268786Y-16036357D01*
X16283071Y-16007786D01*
X16297357Y-15993500D01*
X16325928Y-15979214D01*
X16368786Y-15979214D01*
X16397357Y-15993500D01*
X16411643Y-16007786D01*
X16425928Y-16036357D01*
X16425928Y-16122071D01*
X16411643Y-16150643D01*
X16397357Y-16164929D01*
X16368786Y-16179214D01*
X16325928Y-16179214D01*
X16511643Y-15979214D02*
X16625928Y-15979214D01*
X16554500Y-15879214D02*
X16554500Y-16136357D01*
X16568786Y-16164929D01*
X16597357Y-16179214D01*
X16625928Y-16179214D01*
X16711643Y-16164929D02*
X16740214Y-16179214D01*
X16797357Y-16179214D01*
X16825928Y-16164929D01*
X16840214Y-16136357D01*
X16840214Y-16122071D01*
X16825928Y-16093500D01*
X16797357Y-16079214D01*
X16754500Y-16079214D01*
X16725928Y-16064929D01*
X16711643Y-16036357D01*
X16711643Y-16022071D01*
X16725928Y-15993500D01*
X16754500Y-15979214D01*
X16797357Y-15979214D01*
X16825928Y-15993500D01*
X16940214Y-16293500D02*
X16954500Y-16279214D01*
X16983071Y-16236357D01*
X16997357Y-16207786D01*
X17011643Y-16164929D01*
X17025928Y-16093500D01*
X17025928Y-16036357D01*
X17011643Y-15964929D01*
X16997357Y-15922071D01*
X16983071Y-15893500D01*
X16954500Y-15850643D01*
X16940214Y-15836357D01*
X7639424Y-16389462D02*
X7739500Y-16489538D01*
X7739500Y-16389462D02*
X7639424Y-16489538D01*
X7724844Y-16474883D02*
X7724844Y-16404118D01*
X7654079Y-16404118D01*
X7654079Y-16474883D01*
X7724844Y-16474883D01*
X8183071Y-16575214D02*
X8011643Y-16575214D01*
X8097357Y-16575214D02*
X8097357Y-16275214D01*
X8068786Y-16318071D01*
X8040214Y-16346643D01*
X8011643Y-16360929D01*
X8311643Y-16546643D02*
X8325928Y-16560929D01*
X8311643Y-16575214D01*
X8297357Y-16560929D01*
X8311643Y-16546643D01*
X8311643Y-16575214D01*
X8511643Y-16275214D02*
X8540214Y-16275214D01*
X8568786Y-16289500D01*
X8583071Y-16303786D01*
X8597357Y-16332357D01*
X8611643Y-16389500D01*
X8611643Y-16460929D01*
X8597357Y-16518071D01*
X8583071Y-16546643D01*
X8568786Y-16560929D01*
X8540214Y-16575214D01*
X8511643Y-16575214D01*
X8483071Y-16560929D01*
X8468786Y-16546643D01*
X8454500Y-16518071D01*
X8440214Y-16460929D01*
X8440214Y-16389500D01*
X8454500Y-16332357D01*
X8468786Y-16303786D01*
X8483071Y-16289500D01*
X8511643Y-16275214D01*
X8797357Y-16275214D02*
X8825928Y-16275214D01*
X8854500Y-16289500D01*
X8868786Y-16303786D01*
X8883071Y-16332357D01*
X8897357Y-16389500D01*
X8897357Y-16460929D01*
X8883071Y-16518071D01*
X8868786Y-16546643D01*
X8854500Y-16560929D01*
X8825928Y-16575214D01*
X8797357Y-16575214D01*
X8768786Y-16560929D01*
X8754500Y-16546643D01*
X8740214Y-16518071D01*
X8725928Y-16460929D01*
X8725928Y-16389500D01*
X8740214Y-16332357D01*
X8754500Y-16303786D01*
X8768786Y-16289500D01*
X8797357Y-16275214D01*
X9025928Y-16575214D02*
X9025928Y-16375214D01*
X9025928Y-16403786D02*
X9040214Y-16389500D01*
X9068786Y-16375214D01*
X9111643Y-16375214D01*
X9140214Y-16389500D01*
X9154500Y-16418071D01*
X9154500Y-16575214D01*
X9154500Y-16418071D02*
X9168786Y-16389500D01*
X9197357Y-16375214D01*
X9240214Y-16375214D01*
X9268786Y-16389500D01*
X9283071Y-16418071D01*
X9283071Y-16575214D01*
X9425928Y-16575214D02*
X9425928Y-16375214D01*
X9425928Y-16403786D02*
X9440214Y-16389500D01*
X9468786Y-16375214D01*
X9511643Y-16375214D01*
X9540214Y-16389500D01*
X9554500Y-16418071D01*
X9554500Y-16575214D01*
X9554500Y-16418071D02*
X9568786Y-16389500D01*
X9597357Y-16375214D01*
X9640214Y-16375214D01*
X9668786Y-16389500D01*
X9683071Y-16418071D01*
X9683071Y-16575214D01*
X10268786Y-16260929D02*
X10011643Y-16646643D01*
X10654500Y-16275214D02*
X10683071Y-16275214D01*
X10711643Y-16289500D01*
X10725928Y-16303786D01*
X10740214Y-16332357D01*
X10754500Y-16389500D01*
X10754500Y-16460929D01*
X10740214Y-16518071D01*
X10725928Y-16546643D01*
X10711643Y-16560929D01*
X10683071Y-16575214D01*
X10654500Y-16575214D01*
X10625928Y-16560929D01*
X10611643Y-16546643D01*
X10597357Y-16518071D01*
X10583071Y-16460929D01*
X10583071Y-16389500D01*
X10597357Y-16332357D01*
X10611643Y-16303786D01*
X10625928Y-16289500D01*
X10654500Y-16275214D01*
X10883071Y-16546643D02*
X10897357Y-16560929D01*
X10883071Y-16575214D01*
X10868786Y-16560929D01*
X10883071Y-16546643D01*
X10883071Y-16575214D01*
X11083071Y-16275214D02*
X11111643Y-16275214D01*
X11140214Y-16289500D01*
X11154500Y-16303786D01*
X11168786Y-16332357D01*
X11183071Y-16389500D01*
X11183071Y-16460929D01*
X11168786Y-16518071D01*
X11154500Y-16546643D01*
X11140214Y-16560929D01*
X11111643Y-16575214D01*
X11083071Y-16575214D01*
X11054500Y-16560929D01*
X11040214Y-16546643D01*
X11025928Y-16518071D01*
X11011643Y-16460929D01*
X11011643Y-16389500D01*
X11025928Y-16332357D01*
X11040214Y-16303786D01*
X11054500Y-16289500D01*
X11083071Y-16275214D01*
X11283071Y-16275214D02*
X11468786Y-16275214D01*
X11368786Y-16389500D01*
X11411643Y-16389500D01*
X11440214Y-16403786D01*
X11454500Y-16418071D01*
X11468786Y-16446643D01*
X11468786Y-16518071D01*
X11454500Y-16546643D01*
X11440214Y-16560929D01*
X11411643Y-16575214D01*
X11325928Y-16575214D01*
X11297357Y-16560929D01*
X11283071Y-16546643D01*
X11611643Y-16575214D02*
X11668786Y-16575214D01*
X11697357Y-16560929D01*
X11711643Y-16546643D01*
X11740214Y-16503786D01*
X11754500Y-16446643D01*
X11754500Y-16332357D01*
X11740214Y-16303786D01*
X11725928Y-16289500D01*
X11697357Y-16275214D01*
X11640214Y-16275214D01*
X11611643Y-16289500D01*
X11597357Y-16303786D01*
X11583071Y-16332357D01*
X11583071Y-16403786D01*
X11597357Y-16432357D01*
X11611643Y-16446643D01*
X11640214Y-16460929D01*
X11697357Y-16460929D01*
X11725928Y-16446643D01*
X11740214Y-16432357D01*
X11754500Y-16403786D01*
X11868786Y-16275214D02*
X11868786Y-16332357D01*
X11983071Y-16275214D02*
X11983071Y-16332357D01*
X12425928Y-16689500D02*
X12411643Y-16675214D01*
X12383071Y-16632357D01*
X12368786Y-16603786D01*
X12354500Y-16560929D01*
X12340214Y-16489500D01*
X12340214Y-16432357D01*
X12354500Y-16360929D01*
X12368786Y-16318071D01*
X12383071Y-16289500D01*
X12411643Y-16246643D01*
X12425928Y-16232357D01*
X12525928Y-16303786D02*
X12540214Y-16289500D01*
X12568786Y-16275214D01*
X12640214Y-16275214D01*
X12668786Y-16289500D01*
X12683071Y-16303786D01*
X12697357Y-16332357D01*
X12697357Y-16360929D01*
X12683071Y-16403786D01*
X12511643Y-16575214D01*
X12697357Y-16575214D01*
X13054500Y-16575214D02*
X13054500Y-16275214D01*
X13183071Y-16575214D02*
X13183071Y-16418071D01*
X13168786Y-16389500D01*
X13140214Y-16375214D01*
X13097357Y-16375214D01*
X13068786Y-16389500D01*
X13054500Y-16403786D01*
X13368786Y-16575214D02*
X13340214Y-16560929D01*
X13325928Y-16546643D01*
X13311643Y-16518071D01*
X13311643Y-16432357D01*
X13325928Y-16403786D01*
X13340214Y-16389500D01*
X13368786Y-16375214D01*
X13411643Y-16375214D01*
X13440214Y-16389500D01*
X13454500Y-16403786D01*
X13468786Y-16432357D01*
X13468786Y-16518071D01*
X13454500Y-16546643D01*
X13440214Y-16560929D01*
X13411643Y-16575214D01*
X13368786Y-16575214D01*
X13640214Y-16575214D02*
X13611643Y-16560929D01*
X13597357Y-16532357D01*
X13597357Y-16275214D01*
X13868786Y-16560929D02*
X13840214Y-16575214D01*
X13783071Y-16575214D01*
X13754500Y-16560929D01*
X13740214Y-16532357D01*
X13740214Y-16418071D01*
X13754500Y-16389500D01*
X13783071Y-16375214D01*
X13840214Y-16375214D01*
X13868786Y-16389500D01*
X13883071Y-16418071D01*
X13883071Y-16446643D01*
X13740214Y-16475214D01*
X13997357Y-16560929D02*
X14025928Y-16575214D01*
X14083071Y-16575214D01*
X14111643Y-16560929D01*
X14125928Y-16532357D01*
X14125928Y-16518071D01*
X14111643Y-16489500D01*
X14083071Y-16475214D01*
X14040214Y-16475214D01*
X14011643Y-16460929D01*
X13997357Y-16432357D01*
X13997357Y-16418071D01*
X14011643Y-16389500D01*
X14040214Y-16375214D01*
X14083071Y-16375214D01*
X14111643Y-16389500D01*
X14225928Y-16689500D02*
X14240214Y-16675214D01*
X14268786Y-16632357D01*
X14283071Y-16603786D01*
X14297357Y-16560929D01*
X14311643Y-16489500D01*
X14311643Y-16432357D01*
X14297357Y-16360929D01*
X14283071Y-16318071D01*
X14268786Y-16289500D01*
X14240214Y-16246643D01*
X14225928Y-16232357D01*
X7634500Y-16783000D02*
X7739500Y-16888000D01*
X7739500Y-16783000D02*
X7634500Y-16888000D01*
X7687000Y-16888000D02*
X7739500Y-16835500D01*
X7687000Y-16783000D01*
X7634500Y-16835500D01*
X7687000Y-16888000D01*
X8183071Y-16971214D02*
X8011643Y-16971214D01*
X8097357Y-16971214D02*
X8097357Y-16671214D01*
X8068786Y-16714071D01*
X8040214Y-16742643D01*
X8011643Y-16756929D01*
X8311643Y-16942643D02*
X8325928Y-16956929D01*
X8311643Y-16971214D01*
X8297357Y-16956929D01*
X8311643Y-16942643D01*
X8311643Y-16971214D01*
X8511643Y-16671214D02*
X8540214Y-16671214D01*
X8568786Y-16685500D01*
X8583071Y-16699786D01*
X8597357Y-16728357D01*
X8611643Y-16785500D01*
X8611643Y-16856929D01*
X8597357Y-16914072D01*
X8583071Y-16942643D01*
X8568786Y-16956929D01*
X8540214Y-16971214D01*
X8511643Y-16971214D01*
X8483071Y-16956929D01*
X8468786Y-16942643D01*
X8454500Y-16914072D01*
X8440214Y-16856929D01*
X8440214Y-16785500D01*
X8454500Y-16728357D01*
X8468786Y-16699786D01*
X8483071Y-16685500D01*
X8511643Y-16671214D01*
X8883071Y-16671214D02*
X8740214Y-16671214D01*
X8725928Y-16814072D01*
X8740214Y-16799786D01*
X8768786Y-16785500D01*
X8840214Y-16785500D01*
X8868786Y-16799786D01*
X8883071Y-16814072D01*
X8897357Y-16842643D01*
X8897357Y-16914072D01*
X8883071Y-16942643D01*
X8868786Y-16956929D01*
X8840214Y-16971214D01*
X8768786Y-16971214D01*
X8740214Y-16956929D01*
X8725928Y-16942643D01*
X9025928Y-16971214D02*
X9025928Y-16771214D01*
X9025928Y-16799786D02*
X9040214Y-16785500D01*
X9068786Y-16771214D01*
X9111643Y-16771214D01*
X9140214Y-16785500D01*
X9154500Y-16814072D01*
X9154500Y-16971214D01*
X9154500Y-16814072D02*
X9168786Y-16785500D01*
X9197357Y-16771214D01*
X9240214Y-16771214D01*
X9268786Y-16785500D01*
X9283071Y-16814072D01*
X9283071Y-16971214D01*
X9425928Y-16971214D02*
X9425928Y-16771214D01*
X9425928Y-16799786D02*
X9440214Y-16785500D01*
X9468786Y-16771214D01*
X9511643Y-16771214D01*
X9540214Y-16785500D01*
X9554500Y-16814072D01*
X9554500Y-16971214D01*
X9554500Y-16814072D02*
X9568786Y-16785500D01*
X9597357Y-16771214D01*
X9640214Y-16771214D01*
X9668786Y-16785500D01*
X9683071Y-16814072D01*
X9683071Y-16971214D01*
X10268786Y-16656929D02*
X10011643Y-17042643D01*
X10654500Y-16671214D02*
X10683071Y-16671214D01*
X10711643Y-16685500D01*
X10725928Y-16699786D01*
X10740214Y-16728357D01*
X10754500Y-16785500D01*
X10754500Y-16856929D01*
X10740214Y-16914072D01*
X10725928Y-16942643D01*
X10711643Y-16956929D01*
X10683071Y-16971214D01*
X10654500Y-16971214D01*
X10625928Y-16956929D01*
X10611643Y-16942643D01*
X10597357Y-16914072D01*
X10583071Y-16856929D01*
X10583071Y-16785500D01*
X10597357Y-16728357D01*
X10611643Y-16699786D01*
X10625928Y-16685500D01*
X10654500Y-16671214D01*
X10883071Y-16942643D02*
X10897357Y-16956929D01*
X10883071Y-16971214D01*
X10868786Y-16956929D01*
X10883071Y-16942643D01*
X10883071Y-16971214D01*
X11083071Y-16671214D02*
X11111643Y-16671214D01*
X11140214Y-16685500D01*
X11154500Y-16699786D01*
X11168786Y-16728357D01*
X11183071Y-16785500D01*
X11183071Y-16856929D01*
X11168786Y-16914072D01*
X11154500Y-16942643D01*
X11140214Y-16956929D01*
X11111643Y-16971214D01*
X11083071Y-16971214D01*
X11054500Y-16956929D01*
X11040214Y-16942643D01*
X11025928Y-16914072D01*
X11011643Y-16856929D01*
X11011643Y-16785500D01*
X11025928Y-16728357D01*
X11040214Y-16699786D01*
X11054500Y-16685500D01*
X11083071Y-16671214D01*
X11440214Y-16771214D02*
X11440214Y-16971214D01*
X11368786Y-16656929D02*
X11297357Y-16871214D01*
X11483071Y-16871214D01*
X11754500Y-16971214D02*
X11583071Y-16971214D01*
X11668786Y-16971214D02*
X11668786Y-16671214D01*
X11640214Y-16714071D01*
X11611643Y-16742643D01*
X11583071Y-16756929D01*
X11868786Y-16671214D02*
X11868786Y-16728357D01*
X11983071Y-16671214D02*
X11983071Y-16728357D01*
X12425928Y-17085500D02*
X12411643Y-17071214D01*
X12383071Y-17028357D01*
X12368786Y-16999786D01*
X12354500Y-16956929D01*
X12340214Y-16885500D01*
X12340214Y-16828357D01*
X12354500Y-16756929D01*
X12368786Y-16714071D01*
X12383071Y-16685500D01*
X12411643Y-16642643D01*
X12425928Y-16628357D01*
X12525928Y-16699786D02*
X12540214Y-16685500D01*
X12568786Y-16671214D01*
X12640214Y-16671214D01*
X12668786Y-16685500D01*
X12683071Y-16699786D01*
X12697357Y-16728357D01*
X12697357Y-16756929D01*
X12683071Y-16799786D01*
X12511643Y-16971214D01*
X12697357Y-16971214D01*
X13054500Y-16971214D02*
X13054500Y-16671214D01*
X13183071Y-16971214D02*
X13183071Y-16814072D01*
X13168786Y-16785500D01*
X13140214Y-16771214D01*
X13097357Y-16771214D01*
X13068786Y-16785500D01*
X13054500Y-16799786D01*
X13368786Y-16971214D02*
X13340214Y-16956929D01*
X13325928Y-16942643D01*
X13311643Y-16914072D01*
X13311643Y-16828357D01*
X13325928Y-16799786D01*
X13340214Y-16785500D01*
X13368786Y-16771214D01*
X13411643Y-16771214D01*
X13440214Y-16785500D01*
X13454500Y-16799786D01*
X13468786Y-16828357D01*
X13468786Y-16914072D01*
X13454500Y-16942643D01*
X13440214Y-16956929D01*
X13411643Y-16971214D01*
X13368786Y-16971214D01*
X13640214Y-16971214D02*
X13611643Y-16956929D01*
X13597357Y-16928357D01*
X13597357Y-16671214D01*
X13868786Y-16956929D02*
X13840214Y-16971214D01*
X13783071Y-16971214D01*
X13754500Y-16956929D01*
X13740214Y-16928357D01*
X13740214Y-16814072D01*
X13754500Y-16785500D01*
X13783071Y-16771214D01*
X13840214Y-16771214D01*
X13868786Y-16785500D01*
X13883071Y-16814072D01*
X13883071Y-16842643D01*
X13740214Y-16871214D01*
X13997357Y-16956929D02*
X14025928Y-16971214D01*
X14083071Y-16971214D01*
X14111643Y-16956929D01*
X14125928Y-16928357D01*
X14125928Y-16914072D01*
X14111643Y-16885500D01*
X14083071Y-16871214D01*
X14040214Y-16871214D01*
X14011643Y-16856929D01*
X13997357Y-16828357D01*
X13997357Y-16814072D01*
X14011643Y-16785500D01*
X14040214Y-16771214D01*
X14083071Y-16771214D01*
X14111643Y-16785500D01*
X14225928Y-17085500D02*
X14240214Y-17071214D01*
X14268786Y-17028357D01*
X14283071Y-16999786D01*
X14297357Y-16956929D01*
X14311643Y-16885500D01*
X14311643Y-16828357D01*
X14297357Y-16756929D01*
X14283071Y-16714071D01*
X14268786Y-16685500D01*
X14240214Y-16642643D01*
X14225928Y-16628357D01*
X7684500Y-17176500D02*
X7684500Y-17286500D01*
X7629500Y-17231500D02*
X7739500Y-17231500D01*
X7739500Y-17231500D02*
G75*
G03X7739500Y-17231500I-55000J0D01*
G01*
X8183071Y-17367214D02*
X8011643Y-17367214D01*
X8097357Y-17367214D02*
X8097357Y-17067214D01*
X8068786Y-17110072D01*
X8040214Y-17138643D01*
X8011643Y-17152929D01*
X8311643Y-17338643D02*
X8325928Y-17352929D01*
X8311643Y-17367214D01*
X8297357Y-17352929D01*
X8311643Y-17338643D01*
X8311643Y-17367214D01*
X8611643Y-17367214D02*
X8440214Y-17367214D01*
X8525928Y-17367214D02*
X8525928Y-17067214D01*
X8497357Y-17110072D01*
X8468786Y-17138643D01*
X8440214Y-17152929D01*
X8797357Y-17067214D02*
X8825928Y-17067214D01*
X8854500Y-17081500D01*
X8868786Y-17095786D01*
X8883071Y-17124357D01*
X8897357Y-17181500D01*
X8897357Y-17252929D01*
X8883071Y-17310072D01*
X8868786Y-17338643D01*
X8854500Y-17352929D01*
X8825928Y-17367214D01*
X8797357Y-17367214D01*
X8768786Y-17352929D01*
X8754500Y-17338643D01*
X8740214Y-17310072D01*
X8725928Y-17252929D01*
X8725928Y-17181500D01*
X8740214Y-17124357D01*
X8754500Y-17095786D01*
X8768786Y-17081500D01*
X8797357Y-17067214D01*
X9025928Y-17367214D02*
X9025928Y-17167214D01*
X9025928Y-17195786D02*
X9040214Y-17181500D01*
X9068786Y-17167214D01*
X9111643Y-17167214D01*
X9140214Y-17181500D01*
X9154500Y-17210072D01*
X9154500Y-17367214D01*
X9154500Y-17210072D02*
X9168786Y-17181500D01*
X9197357Y-17167214D01*
X9240214Y-17167214D01*
X9268786Y-17181500D01*
X9283071Y-17210072D01*
X9283071Y-17367214D01*
X9425928Y-17367214D02*
X9425928Y-17167214D01*
X9425928Y-17195786D02*
X9440214Y-17181500D01*
X9468786Y-17167214D01*
X9511643Y-17167214D01*
X9540214Y-17181500D01*
X9554500Y-17210072D01*
X9554500Y-17367214D01*
X9554500Y-17210072D02*
X9568786Y-17181500D01*
X9597357Y-17167214D01*
X9640214Y-17167214D01*
X9668786Y-17181500D01*
X9683071Y-17210072D01*
X9683071Y-17367214D01*
X10268786Y-17052929D02*
X10011643Y-17438643D01*
X10654500Y-17067214D02*
X10683071Y-17067214D01*
X10711643Y-17081500D01*
X10725928Y-17095786D01*
X10740214Y-17124357D01*
X10754500Y-17181500D01*
X10754500Y-17252929D01*
X10740214Y-17310072D01*
X10725928Y-17338643D01*
X10711643Y-17352929D01*
X10683071Y-17367214D01*
X10654500Y-17367214D01*
X10625928Y-17352929D01*
X10611643Y-17338643D01*
X10597357Y-17310072D01*
X10583071Y-17252929D01*
X10583071Y-17181500D01*
X10597357Y-17124357D01*
X10611643Y-17095786D01*
X10625928Y-17081500D01*
X10654500Y-17067214D01*
X10883071Y-17338643D02*
X10897357Y-17352929D01*
X10883071Y-17367214D01*
X10868786Y-17352929D01*
X10883071Y-17338643D01*
X10883071Y-17367214D01*
X11083071Y-17067214D02*
X11111643Y-17067214D01*
X11140214Y-17081500D01*
X11154500Y-17095786D01*
X11168786Y-17124357D01*
X11183071Y-17181500D01*
X11183071Y-17252929D01*
X11168786Y-17310072D01*
X11154500Y-17338643D01*
X11140214Y-17352929D01*
X11111643Y-17367214D01*
X11083071Y-17367214D01*
X11054500Y-17352929D01*
X11040214Y-17338643D01*
X11025928Y-17310072D01*
X11011643Y-17252929D01*
X11011643Y-17181500D01*
X11025928Y-17124357D01*
X11040214Y-17095786D01*
X11054500Y-17081500D01*
X11083071Y-17067214D01*
X11440214Y-17167214D02*
X11440214Y-17367214D01*
X11368786Y-17052929D02*
X11297357Y-17267214D01*
X11483071Y-17267214D01*
X11568786Y-17067214D02*
X11754500Y-17067214D01*
X11654500Y-17181500D01*
X11697357Y-17181500D01*
X11725928Y-17195786D01*
X11740214Y-17210072D01*
X11754500Y-17238643D01*
X11754500Y-17310072D01*
X11740214Y-17338643D01*
X11725928Y-17352929D01*
X11697357Y-17367214D01*
X11611643Y-17367214D01*
X11583071Y-17352929D01*
X11568786Y-17338643D01*
X11868786Y-17067214D02*
X11868786Y-17124357D01*
X11983071Y-17067214D02*
X11983071Y-17124357D01*
X12425928Y-17481500D02*
X12411643Y-17467214D01*
X12383071Y-17424357D01*
X12368786Y-17395786D01*
X12354500Y-17352929D01*
X12340214Y-17281500D01*
X12340214Y-17224357D01*
X12354500Y-17152929D01*
X12368786Y-17110072D01*
X12383071Y-17081500D01*
X12411643Y-17038643D01*
X12425928Y-17024357D01*
X12668786Y-17167214D02*
X12668786Y-17367214D01*
X12597357Y-17052929D02*
X12525928Y-17267214D01*
X12711643Y-17267214D01*
X13054500Y-17367214D02*
X13054500Y-17067214D01*
X13183071Y-17367214D02*
X13183071Y-17210072D01*
X13168786Y-17181500D01*
X13140214Y-17167214D01*
X13097357Y-17167214D01*
X13068786Y-17181500D01*
X13054500Y-17195786D01*
X13368786Y-17367214D02*
X13340214Y-17352929D01*
X13325928Y-17338643D01*
X13311643Y-17310072D01*
X13311643Y-17224357D01*
X13325928Y-17195786D01*
X13340214Y-17181500D01*
X13368786Y-17167214D01*
X13411643Y-17167214D01*
X13440214Y-17181500D01*
X13454500Y-17195786D01*
X13468786Y-17224357D01*
X13468786Y-17310072D01*
X13454500Y-17338643D01*
X13440214Y-17352929D01*
X13411643Y-17367214D01*
X13368786Y-17367214D01*
X13640214Y-17367214D02*
X13611643Y-17352929D01*
X13597357Y-17324357D01*
X13597357Y-17067214D01*
X13868786Y-17352929D02*
X13840214Y-17367214D01*
X13783071Y-17367214D01*
X13754500Y-17352929D01*
X13740214Y-17324357D01*
X13740214Y-17210072D01*
X13754500Y-17181500D01*
X13783071Y-17167214D01*
X13840214Y-17167214D01*
X13868786Y-17181500D01*
X13883071Y-17210072D01*
X13883071Y-17238643D01*
X13740214Y-17267214D01*
X13997357Y-17352929D02*
X14025928Y-17367214D01*
X14083071Y-17367214D01*
X14111643Y-17352929D01*
X14125928Y-17324357D01*
X14125928Y-17310072D01*
X14111643Y-17281500D01*
X14083071Y-17267214D01*
X14040214Y-17267214D01*
X14011643Y-17252929D01*
X13997357Y-17224357D01*
X13997357Y-17210072D01*
X14011643Y-17181500D01*
X14040214Y-17167214D01*
X14083071Y-17167214D01*
X14111643Y-17181500D01*
X14225928Y-17481500D02*
X14240214Y-17467214D01*
X14268786Y-17424357D01*
X14283071Y-17395786D01*
X14297357Y-17352929D01*
X14311643Y-17281500D01*
X14311643Y-17224357D01*
X14297357Y-17152929D01*
X14283071Y-17110072D01*
X14268786Y-17081500D01*
X14240214Y-17038643D01*
X14225928Y-17024357D01*
M02*
