M48
;DRILL file {KiCad 5.0.0} date Wed Oct 17 23:37:28 2018
;FORMAT={-:-/ absolute / metric / decimal}
FMAT,2
METRIC,TZ
T1C0.400
T2C0.700
T3C0.762
T4C0.800
T5C0.813
T6C0.900
T7C1.000
T8C1.001
T9C1.050
T10C1.100
%
G90
G05
M71
T1
X90.932Y-84.836
X90.932Y-100.584
X90.932Y-101.6
X90.932Y-102.616
X91.948Y-84.836
X92.964Y-84.328
X96.012Y-67.564
X96.012Y-68.58
X97.028Y-67.564
X97.028Y-69.596
X98.552Y-67.564
X101.6Y-99.06
X101.6Y-100.076
X101.6Y-101.092
X102.108Y-103.632
X102.616Y-99.06
X102.616Y-100.076
X104.356Y-89.82
X107.265Y-90.906
X110.744Y-104.14
X112.268Y-104.14
X117.348Y-121.92
X119.38Y-121.92
X127.Y-112.268
X127.Y-123.952
X128.016Y-112.268
X128.016Y-123.952
X128.961Y-85.642
X129.032Y-123.952
X130.048Y-123.952
X131.064Y-123.952
X132.08Y-116.332
X132.08Y-116.332
X132.08Y-116.332
X132.08Y-123.952
X133.096Y-116.332
X133.096Y-123.952
X134.112Y-123.952
X135.128Y-81.28
X136.144Y-82.296
X136.42Y-87.148
X137.16Y-83.312
X137.16Y-104.14
X137.16Y-106.68
X142.748Y-87.884
X142.748Y-96.012
X142.748Y-97.028
X143.764Y-88.9
X144.78Y-89.916
X144.78Y-99.568
X144.78Y-112.268
X144.78Y-113.284
X144.78Y-114.3
X145.796Y-90.932
X145.796Y-100.584
X146.812Y-91.948
X147.828Y-92.964
X148.336Y-117.856
X149.352Y-112.268
X149.352Y-113.284
X149.352Y-114.3
X149.352Y-118.872
X150.368Y-119.888
X151.384Y-120.904
X152.4Y-121.92
X155.448Y-103.632
X156.464Y-103.632
T2
X133.096Y-86.36
X140.716Y-86.36
X133.096Y-96.52
X140.716Y-96.52
X98.044Y-99.06
X105.664Y-99.06
X98.044Y-96.012
X105.664Y-96.012
X160.528Y-72.644
X168.148Y-72.644
X112.395Y-112.395
X120.015Y-112.395
X133.096Y-99.06
X140.716Y-99.06
X133.096Y-91.44
X140.716Y-91.44
X138.43Y-78.105
X146.05Y-78.105
X133.35Y-106.68
X140.97Y-106.68
X133.096Y-104.14
X140.716Y-104.14
X110.236Y-71.628
X117.856Y-71.628
X100.584Y-122.936
X108.204Y-122.936
X98.044Y-89.408
X105.664Y-89.408
X162.56Y-88.9
X170.18Y-88.9
X98.044Y-92.964
X105.664Y-92.964
X110.236Y-68.58
X117.856Y-68.58
X100.584Y-125.476
X108.204Y-125.476
X133.096Y-101.6
X140.716Y-101.6
X133.096Y-93.98
X140.716Y-93.98
X133.096Y-88.9
X140.716Y-88.9
X97.79Y-86.563
X105.41Y-86.563
X138.43Y-80.645
X146.05Y-80.645
X133.35Y-109.22
X140.97Y-109.22
X138.43Y-73.025
X146.05Y-73.025
T3
X102.235Y-115.57
X103.505Y-119.38
X104.775Y-115.57
X106.045Y-119.38
X107.315Y-115.57
X108.585Y-119.38
X109.855Y-115.57
X111.125Y-119.38
X112.395Y-115.57
X113.665Y-119.38
X114.935Y-115.57
X116.205Y-119.38
X117.475Y-115.57
X118.745Y-119.38
X120.015Y-115.57
X121.285Y-119.38
X122.555Y-115.57
X123.825Y-119.38
X125.095Y-115.57
X126.365Y-119.38
X127.635Y-115.57
X128.905Y-119.38
X130.175Y-115.57
T4
X135.89Y-75.565
X146.05Y-75.565
X160.655Y-75.565
X160.655Y-78.105
X160.655Y-80.645
X160.655Y-83.185
X168.275Y-75.565
X168.275Y-78.105
X168.275Y-80.645
X168.275Y-83.185
X107.188Y-112.268
X109.688Y-112.268
X142.24Y-67.945
X144.74Y-67.945
X142.24Y-83.185
X144.74Y-83.185
X148.59Y-75.565
X148.59Y-78.105
X148.59Y-80.645
X148.59Y-83.185
X156.21Y-75.565
X156.21Y-78.105
X156.21Y-80.645
X156.21Y-83.185
X93.472Y-106.172
X93.472Y-108.672
X149.86Y-109.474
X149.86Y-124.714
X152.4Y-109.474
X152.4Y-124.714
X154.94Y-109.474
X154.94Y-124.714
X157.48Y-109.474
X157.48Y-124.714
X160.02Y-109.474
X160.02Y-124.714
X122.555Y-112.395
X125.055Y-112.395
X102.275Y-112.395
X104.775Y-112.395
X96.368Y-122.276
X96.368Y-124.776
X142.28Y-70.485
X144.78Y-70.485
X163.83Y-99.06
X166.33Y-99.06
X163.83Y-95.25
X166.33Y-95.25
X163.87Y-92.71
X166.37Y-92.71
T5
X91.44Y-81.686
X91.44Y-86.766
T6
X151.765Y-67.945
X154.305Y-67.945
X160.655Y-67.945
X163.195Y-67.945
X163.576Y-105.41
X166.116Y-105.41
X95.25Y-114.935
X97.79Y-114.935
X87.63Y-106.045
X87.63Y-108.585
T7
X93.345Y-93.345
X93.345Y-95.885
X93.345Y-98.425
X112.395Y-123.825
X114.895Y-123.825
X117.395Y-123.825
X119.895Y-123.825
X122.395Y-123.825
X124.895Y-123.825
X99.06Y-70.485
X99.06Y-73.025
X99.06Y-75.565
X99.568Y-106.172
X99.568Y-108.712
X102.108Y-106.172
X102.108Y-108.712
X104.648Y-106.172
X104.648Y-108.712
X107.188Y-106.172
X107.188Y-108.712
X109.728Y-106.172
X109.728Y-108.712
X112.268Y-106.172
X112.268Y-108.712
X114.808Y-106.172
X114.808Y-108.712
X117.348Y-106.172
X117.348Y-108.712
X119.888Y-106.172
X119.888Y-108.712
X122.428Y-106.172
X122.428Y-108.712
X124.968Y-106.172
X124.968Y-108.712
X127.508Y-106.172
X127.508Y-108.712
X130.048Y-106.172
X130.048Y-108.712
X85.725Y-93.345
X85.725Y-95.885
X85.725Y-98.425
X99.568Y-80.772
X99.568Y-83.312
X102.108Y-80.772
X102.108Y-83.312
X104.648Y-80.772
X104.648Y-83.312
X107.188Y-80.772
X107.188Y-83.312
X109.728Y-80.772
X109.728Y-83.312
X112.268Y-80.772
X112.268Y-83.312
X114.808Y-80.772
X114.808Y-83.312
X117.348Y-80.772
X117.348Y-83.312
X119.888Y-80.772
X119.888Y-83.312
X122.428Y-80.772
X122.428Y-83.312
X124.968Y-80.772
X124.968Y-83.312
X127.508Y-80.772
X127.508Y-83.312
X130.048Y-80.772
X130.048Y-83.312
X126.365Y-75.565
X128.905Y-75.565
X131.445Y-75.565
X110.49Y-75.565
X113.03Y-75.565
X115.57Y-75.565
X118.11Y-75.565
X120.65Y-75.565
X89.408Y-73.66
X91.948Y-73.66
X94.488Y-73.66
X165.1Y-111.404
X165.1Y-113.944
X165.1Y-116.484
X165.1Y-119.024
X165.1Y-121.564
X104.775Y-70.485
X104.775Y-73.025
X104.775Y-75.565
X88.9Y-67.935
X93.98Y-67.945
T8
X152.044Y-90.576
X152.044Y-100.736
T9
X84.455Y-73.66
X84.455Y-76.16
T10
X135.128Y-113.538
X135.128Y-118.038
X141.628Y-113.538
X141.628Y-118.038
T7
X85.44Y-115.205G85X85.44Y-117.205
G05
X87.44Y-120.905G85X89.44Y-120.905
G05
X91.44Y-115.205G85X91.44Y-117.205
G05
T0
M30
