G04 #@! TF.FileFunction,Legend,Bot*
%FSLAX46Y46*%
G04 Gerber Fmt 4.6, Leading zero omitted, Abs format (unit mm)*
G04 Created by KiCad (PCBNEW 4.0.7) date Mon Feb 26 15:09:19 2018*
%MOMM*%
%LPD*%
G01*
G04 APERTURE LIST*
%ADD10C,0.100000*%
%ADD11C,0.300000*%
G04 APERTURE END LIST*
D10*
D11*
X171438095Y-119972857D02*
X171557143Y-120091905D01*
X171914286Y-120210952D01*
X172152381Y-120210952D01*
X172509524Y-120091905D01*
X172747619Y-119853810D01*
X172866667Y-119615714D01*
X172985715Y-119139524D01*
X172985715Y-118782381D01*
X172866667Y-118306190D01*
X172747619Y-118068095D01*
X172509524Y-117830000D01*
X172152381Y-117710952D01*
X171914286Y-117710952D01*
X171557143Y-117830000D01*
X171438095Y-117949048D01*
X170366667Y-120210952D02*
X170366667Y-117710952D01*
X169295238Y-120210952D02*
X169295238Y-118901429D01*
X169414286Y-118663333D01*
X169652381Y-118544286D01*
X170009524Y-118544286D01*
X170247619Y-118663333D01*
X170366667Y-118782381D01*
X167152381Y-120091905D02*
X167390476Y-120210952D01*
X167866667Y-120210952D01*
X168104762Y-120091905D01*
X168223810Y-119853810D01*
X168223810Y-118901429D01*
X168104762Y-118663333D01*
X167866667Y-118544286D01*
X167390476Y-118544286D01*
X167152381Y-118663333D01*
X167033333Y-118901429D01*
X167033333Y-119139524D01*
X168223810Y-119377619D01*
X165009524Y-120091905D02*
X165247619Y-120210952D01*
X165723810Y-120210952D01*
X165961905Y-120091905D01*
X166080953Y-119853810D01*
X166080953Y-118901429D01*
X165961905Y-118663333D01*
X165723810Y-118544286D01*
X165247619Y-118544286D01*
X165009524Y-118663333D01*
X164890476Y-118901429D01*
X164890476Y-119139524D01*
X166080953Y-119377619D01*
X163938096Y-120091905D02*
X163700000Y-120210952D01*
X163223810Y-120210952D01*
X162985715Y-120091905D01*
X162866667Y-119853810D01*
X162866667Y-119734762D01*
X162985715Y-119496667D01*
X163223810Y-119377619D01*
X163580953Y-119377619D01*
X163819048Y-119258571D01*
X163938096Y-119020476D01*
X163938096Y-118901429D01*
X163819048Y-118663333D01*
X163580953Y-118544286D01*
X163223810Y-118544286D01*
X162985715Y-118663333D01*
X160842857Y-120091905D02*
X161080952Y-120210952D01*
X161557143Y-120210952D01*
X161795238Y-120091905D01*
X161914286Y-119853810D01*
X161914286Y-118901429D01*
X161795238Y-118663333D01*
X161557143Y-118544286D01*
X161080952Y-118544286D01*
X160842857Y-118663333D01*
X160723809Y-118901429D01*
X160723809Y-119139524D01*
X161914286Y-119377619D01*
X158104762Y-117710952D02*
X156676190Y-117710952D01*
X157390476Y-120210952D02*
X157390476Y-117710952D01*
X154771428Y-118544286D02*
X154771428Y-120210952D01*
X155842857Y-118544286D02*
X155842857Y-119853810D01*
X155723809Y-120091905D01*
X155485714Y-120210952D01*
X155128571Y-120210952D01*
X154890476Y-120091905D01*
X154771428Y-119972857D01*
X153938095Y-118544286D02*
X152985714Y-118544286D01*
X153580952Y-117710952D02*
X153580952Y-119853810D01*
X153461904Y-120091905D01*
X153223809Y-120210952D01*
X152985714Y-120210952D01*
X151795238Y-120210952D02*
X152033333Y-120091905D01*
X152152381Y-119972857D01*
X152271429Y-119734762D01*
X152271429Y-119020476D01*
X152152381Y-118782381D01*
X152033333Y-118663333D01*
X151795238Y-118544286D01*
X151438095Y-118544286D01*
X151200000Y-118663333D01*
X151080952Y-118782381D01*
X150961905Y-119020476D01*
X150961905Y-119734762D01*
X151080952Y-119972857D01*
X151200000Y-120091905D01*
X151438095Y-120210952D01*
X151795238Y-120210952D01*
X149890476Y-120210952D02*
X149890476Y-118544286D01*
X149890476Y-119020476D02*
X149771428Y-118782381D01*
X149652381Y-118663333D01*
X149414285Y-118544286D01*
X149176190Y-118544286D01*
X148342857Y-120210952D02*
X148342857Y-118544286D01*
X148342857Y-117710952D02*
X148461905Y-117830000D01*
X148342857Y-117949048D01*
X148223809Y-117830000D01*
X148342857Y-117710952D01*
X148342857Y-117949048D01*
X146080952Y-120210952D02*
X146080952Y-118901429D01*
X146200000Y-118663333D01*
X146438095Y-118544286D01*
X146914286Y-118544286D01*
X147152381Y-118663333D01*
X146080952Y-120091905D02*
X146319048Y-120210952D01*
X146914286Y-120210952D01*
X147152381Y-120091905D01*
X147271429Y-119853810D01*
X147271429Y-119615714D01*
X147152381Y-119377619D01*
X146914286Y-119258571D01*
X146319048Y-119258571D01*
X146080952Y-119139524D01*
X144533333Y-120210952D02*
X144771428Y-120091905D01*
X144890476Y-119853810D01*
X144890476Y-117710952D01*
X140842857Y-118901429D02*
X140485714Y-119020476D01*
X140366666Y-119139524D01*
X140247618Y-119377619D01*
X140247618Y-119734762D01*
X140366666Y-119972857D01*
X140485714Y-120091905D01*
X140723809Y-120210952D01*
X141676190Y-120210952D01*
X141676190Y-117710952D01*
X140842857Y-117710952D01*
X140604761Y-117830000D01*
X140485714Y-117949048D01*
X140366666Y-118187143D01*
X140366666Y-118425238D01*
X140485714Y-118663333D01*
X140604761Y-118782381D01*
X140842857Y-118901429D01*
X141676190Y-118901429D01*
X138819047Y-120210952D02*
X139057142Y-120091905D01*
X139176190Y-119972857D01*
X139295238Y-119734762D01*
X139295238Y-119020476D01*
X139176190Y-118782381D01*
X139057142Y-118663333D01*
X138819047Y-118544286D01*
X138461904Y-118544286D01*
X138223809Y-118663333D01*
X138104761Y-118782381D01*
X137985714Y-119020476D01*
X137985714Y-119734762D01*
X138104761Y-119972857D01*
X138223809Y-120091905D01*
X138461904Y-120210952D01*
X138819047Y-120210952D01*
X135842856Y-120210952D02*
X135842856Y-118901429D01*
X135961904Y-118663333D01*
X136199999Y-118544286D01*
X136676190Y-118544286D01*
X136914285Y-118663333D01*
X135842856Y-120091905D02*
X136080952Y-120210952D01*
X136676190Y-120210952D01*
X136914285Y-120091905D01*
X137033333Y-119853810D01*
X137033333Y-119615714D01*
X136914285Y-119377619D01*
X136676190Y-119258571D01*
X136080952Y-119258571D01*
X135842856Y-119139524D01*
X134652380Y-120210952D02*
X134652380Y-118544286D01*
X134652380Y-119020476D02*
X134533332Y-118782381D01*
X134414285Y-118663333D01*
X134176189Y-118544286D01*
X133938094Y-118544286D01*
X132033332Y-120210952D02*
X132033332Y-117710952D01*
X132033332Y-120091905D02*
X132271428Y-120210952D01*
X132747618Y-120210952D01*
X132985713Y-120091905D01*
X133104761Y-119972857D01*
X133223809Y-119734762D01*
X133223809Y-119020476D01*
X133104761Y-118782381D01*
X132985713Y-118663333D01*
X132747618Y-118544286D01*
X132271428Y-118544286D01*
X132033332Y-118663333D01*
M02*
