M48
;DRILL file {KiCad 4.0.7} date Mon Feb 26 15:09:22 2018
;FORMAT={-:-/ absolute / metric / decimal}
FMAT,2
METRIC,TZ
T1C0.400
T2C0.700
T3C0.750
T4C0.762
T5C0.800
T6C0.813
T7C0.900
T8C1.000
T9C1.001
T10C1.050
T11C1.100
%
G90
G05
M71
T1
X96.499Y-79.324
X105.403Y-87.943
X115.525Y-87.311
X118.044Y-114.29
X119.895Y-88.569
X123.997Y-92.864
X125.482Y-91.998
X128.749Y-91.281
T2
X97.79Y-86.36
X97.79Y-88.9
X97.79Y-92.075
X98.425Y-97.79
X98.425Y-101.6
X102.235Y-122.555
X102.235Y-125.095
X102.87Y-86.36
X102.87Y-88.9
X102.87Y-92.075
X103.505Y-97.79
X103.505Y-101.6
X107.315Y-122.555
X107.315Y-125.095
X110.49Y-66.675
X110.49Y-71.755
X113.665Y-66.675
X113.665Y-71.755
X114.935Y-112.395
X120.015Y-112.395
X135.636Y-86.36
X135.636Y-88.9
X135.636Y-91.44
X135.636Y-93.98
X135.636Y-96.52
X135.636Y-99.06
X135.636Y-101.6
X135.636Y-104.14
X140.716Y-86.36
X140.716Y-88.9
X140.716Y-91.44
X140.716Y-93.98
X140.716Y-96.52
X140.716Y-99.06
X140.716Y-101.6
X140.716Y-104.14
X140.97Y-73.025
X140.97Y-75.565
X140.97Y-78.105
X140.97Y-80.645
X146.05Y-73.025
X146.05Y-75.565
X146.05Y-78.105
X146.05Y-80.645
X159.385Y-109.855
X159.385Y-112.395
X161.925Y-72.39
X162.56Y-88.9
X164.465Y-109.855
X164.465Y-112.395
X167.005Y-72.39
X167.64Y-88.9
T3
X112.395Y-123.825
X114.395Y-123.825
X116.395Y-123.825
X118.395Y-123.825
X120.395Y-123.825
X122.395Y-123.825
T4
X102.235Y-115.57
X103.505Y-119.38
X104.775Y-115.57
X106.045Y-119.38
X107.315Y-115.57
X108.585Y-119.38
X109.855Y-115.57
X111.125Y-119.38
X112.395Y-115.57
X113.665Y-119.38
X114.935Y-115.57
X116.205Y-119.38
X117.475Y-115.57
X118.745Y-119.38
X120.015Y-115.57
X121.285Y-119.38
X122.555Y-115.57
X123.825Y-119.38
X125.095Y-115.57
X126.365Y-119.38
X127.635Y-115.57
X128.905Y-119.38
X130.175Y-115.57
T5
X93.98Y-106.045
X93.98Y-108.545
X97.155Y-122.555
X97.155Y-125.055
X102.275Y-112.395
X104.775Y-112.395
X108.585Y-112.395
X111.085Y-112.395
X122.555Y-112.395
X125.055Y-112.395
X142.24Y-67.945
X142.24Y-83.185
X142.28Y-70.485
X144.74Y-67.945
X144.74Y-83.185
X144.78Y-70.485
X147.32Y-87.63
X147.32Y-102.87
X148.59Y-75.565
X148.59Y-78.105
X148.59Y-80.645
X148.59Y-83.185
X149.86Y-87.63
X149.86Y-102.87
X152.4Y-87.63
X152.4Y-102.87
X154.94Y-87.63
X154.94Y-102.87
X156.21Y-75.565
X156.21Y-78.105
X156.21Y-80.645
X156.21Y-83.185
X157.48Y-87.63
X157.48Y-102.87
X160.655Y-75.565
X160.655Y-78.105
X160.655Y-80.645
X160.655Y-83.185
X163.83Y-95.25
X163.83Y-99.06
X163.87Y-92.71
X166.33Y-95.25
X166.33Y-99.06
X166.37Y-92.71
X168.275Y-75.565
X168.275Y-78.105
X168.275Y-80.645
X168.275Y-83.185
T6
X91.44Y-81.915
X91.44Y-86.995
T7
X87.63Y-106.045
X87.63Y-108.585
X95.25Y-114.935
X97.79Y-114.935
X151.765Y-67.945
X154.305Y-67.945
X160.655Y-67.945
X163.195Y-67.945
X168.275Y-109.855
X168.275Y-112.395
T8
X85.725Y-93.345
X85.725Y-95.885
X85.725Y-98.425
X88.9Y-67.935
X89.535Y-73.66
X92.075Y-73.66
X93.345Y-93.345
X93.345Y-95.885
X93.345Y-98.425
X93.98Y-67.945
X94.615Y-73.66
X99.06Y-70.485
X99.06Y-73.025
X99.06Y-75.565
X99.568Y-80.772
X99.568Y-83.312
X99.568Y-106.172
X99.568Y-108.712
X102.108Y-80.772
X102.108Y-83.312
X102.108Y-106.172
X102.108Y-108.712
X104.648Y-80.772
X104.648Y-83.312
X104.648Y-106.172
X104.648Y-108.712
X104.775Y-70.485
X104.775Y-73.025
X104.775Y-75.565
X107.188Y-80.772
X107.188Y-83.312
X107.188Y-106.172
X107.188Y-108.712
X109.728Y-80.772
X109.728Y-83.312
X109.728Y-106.172
X109.728Y-108.712
X110.49Y-75.565
X112.268Y-80.772
X112.268Y-83.312
X112.268Y-106.172
X112.268Y-108.712
X113.03Y-75.565
X114.808Y-80.772
X114.808Y-83.312
X114.808Y-106.172
X114.808Y-108.712
X115.57Y-75.565
X117.348Y-80.772
X117.348Y-83.312
X117.348Y-106.172
X117.348Y-108.712
X118.11Y-75.565
X119.888Y-80.772
X119.888Y-83.312
X119.888Y-106.172
X119.888Y-108.712
X120.65Y-75.565
X122.428Y-80.772
X122.428Y-83.312
X122.428Y-106.172
X122.428Y-108.712
X124.968Y-80.772
X124.968Y-83.312
X124.968Y-106.172
X124.968Y-108.712
X126.365Y-75.565
X127.508Y-80.772
X127.508Y-83.312
X127.508Y-106.172
X127.508Y-108.712
X128.905Y-75.565
X130.048Y-80.772
X130.048Y-83.312
X130.048Y-106.172
X130.048Y-108.712
X131.445Y-75.565
X171.45Y-90.17
X171.45Y-92.71
X171.45Y-95.25
X171.45Y-97.79
X171.45Y-100.33
T9
X144.78Y-113.665
X144.78Y-123.825
T10
X84.455Y-73.66
X84.455Y-76.16
T11
X160.02Y-116.055
X160.02Y-122.555
X164.52Y-116.055
X164.52Y-122.555
T8
X85.44Y-115.205G85X85.44Y-117.205
G05
X87.44Y-120.905G85X89.44Y-120.905
G05
X91.44Y-115.205G85X91.44Y-117.205
G05
T0
M30
