%FSLAX45Y45*%
G04 Gerber Fmt 4.5, Leading zero omitted, Abs format (unit mm)*
G04 Created by KiCad (PCBNEW 4.0.7) date Mon Feb 26 15:09:22 2018*
%MOMM*%
%LPD*%
G01*
G04 APERTURE LIST*
%ADD10C,0.127000*%
%ADD11C,0.150000*%
%ADD12C,0.200000*%
%ADD13C,0.300000*%
G04 APERTURE END LIST*
D10*
D11*
X7747000Y-6350000D02*
X17399000Y-6350000D01*
X7747000Y-12700000D02*
X7747000Y-6350000D01*
X17399000Y-12700000D02*
X7747000Y-12700000D01*
X17399000Y-12700000D02*
X17399000Y-6350000D01*
D12*
X9629900Y-7912420D02*
X9669900Y-7952420D01*
X9669900Y-7912420D02*
X9629900Y-7952420D01*
X10520290Y-8774340D02*
X10560290Y-8814340D01*
X10560290Y-8774340D02*
X10520290Y-8814340D01*
X11532500Y-8711100D02*
X11572500Y-8751100D01*
X11572500Y-8711100D02*
X11532500Y-8751100D01*
X11784390Y-11408960D02*
X11824390Y-11448960D01*
X11824390Y-11408960D02*
X11784390Y-11448960D01*
X11969510Y-8836870D02*
X12009510Y-8876870D01*
X12009510Y-8836870D02*
X11969510Y-8876870D01*
X12379720Y-9266360D02*
X12419720Y-9306360D01*
X12419720Y-9266360D02*
X12379720Y-9306360D01*
X12528180Y-9179850D02*
X12568180Y-9219850D01*
X12568180Y-9179850D02*
X12528180Y-9219850D01*
X12854910Y-9108100D02*
X12894910Y-9148100D01*
X12894910Y-9108100D02*
X12854910Y-9148100D01*
X9814000Y-8636000D02*
G75*
G03X9814000Y-8636000I-35000J0D01*
G01*
X9814000Y-8890000D02*
G75*
G03X9814000Y-8890000I-35000J0D01*
G01*
X9814000Y-9207500D02*
G75*
G03X9814000Y-9207500I-35000J0D01*
G01*
X9877500Y-9779000D02*
G75*
G03X9877500Y-9779000I-35000J0D01*
G01*
X9877500Y-10160000D02*
G75*
G03X9877500Y-10160000I-35000J0D01*
G01*
X10258500Y-12255500D02*
G75*
G03X10258500Y-12255500I-35000J0D01*
G01*
X10258500Y-12509500D02*
G75*
G03X10258500Y-12509500I-35000J0D01*
G01*
X10322000Y-8636000D02*
G75*
G03X10322000Y-8636000I-35000J0D01*
G01*
X10322000Y-8890000D02*
G75*
G03X10322000Y-8890000I-35000J0D01*
G01*
X10322000Y-9207500D02*
G75*
G03X10322000Y-9207500I-35000J0D01*
G01*
X10385500Y-9779000D02*
G75*
G03X10385500Y-9779000I-35000J0D01*
G01*
X10385500Y-10160000D02*
G75*
G03X10385500Y-10160000I-35000J0D01*
G01*
X10766500Y-12255500D02*
G75*
G03X10766500Y-12255500I-35000J0D01*
G01*
X10766500Y-12509500D02*
G75*
G03X10766500Y-12509500I-35000J0D01*
G01*
X11084000Y-6667500D02*
G75*
G03X11084000Y-6667500I-35000J0D01*
G01*
X11084000Y-7175500D02*
G75*
G03X11084000Y-7175500I-35000J0D01*
G01*
X11401500Y-6667500D02*
G75*
G03X11401500Y-6667500I-35000J0D01*
G01*
X11401500Y-7175500D02*
G75*
G03X11401500Y-7175500I-35000J0D01*
G01*
X11528500Y-11239500D02*
G75*
G03X11528500Y-11239500I-35000J0D01*
G01*
X12036500Y-11239500D02*
G75*
G03X12036500Y-11239500I-35000J0D01*
G01*
X13598600Y-8636000D02*
G75*
G03X13598600Y-8636000I-35000J0D01*
G01*
X13598600Y-8890000D02*
G75*
G03X13598600Y-8890000I-35000J0D01*
G01*
X13598600Y-9144000D02*
G75*
G03X13598600Y-9144000I-35000J0D01*
G01*
X13598600Y-9398000D02*
G75*
G03X13598600Y-9398000I-35000J0D01*
G01*
X13598600Y-9652000D02*
G75*
G03X13598600Y-9652000I-35000J0D01*
G01*
X13598600Y-9906000D02*
G75*
G03X13598600Y-9906000I-35000J0D01*
G01*
X13598600Y-10160000D02*
G75*
G03X13598600Y-10160000I-35000J0D01*
G01*
X13598600Y-10414000D02*
G75*
G03X13598600Y-10414000I-35000J0D01*
G01*
X14106600Y-8636000D02*
G75*
G03X14106600Y-8636000I-35000J0D01*
G01*
X14106600Y-8890000D02*
G75*
G03X14106600Y-8890000I-35000J0D01*
G01*
X14106600Y-9144000D02*
G75*
G03X14106600Y-9144000I-35000J0D01*
G01*
X14106600Y-9398000D02*
G75*
G03X14106600Y-9398000I-35000J0D01*
G01*
X14106600Y-9652000D02*
G75*
G03X14106600Y-9652000I-35000J0D01*
G01*
X14106600Y-9906000D02*
G75*
G03X14106600Y-9906000I-35000J0D01*
G01*
X14106600Y-10160000D02*
G75*
G03X14106600Y-10160000I-35000J0D01*
G01*
X14106600Y-10414000D02*
G75*
G03X14106600Y-10414000I-35000J0D01*
G01*
X14132000Y-7302500D02*
G75*
G03X14132000Y-7302500I-35000J0D01*
G01*
X14132000Y-7556500D02*
G75*
G03X14132000Y-7556500I-35000J0D01*
G01*
X14132000Y-7810500D02*
G75*
G03X14132000Y-7810500I-35000J0D01*
G01*
X14132000Y-8064500D02*
G75*
G03X14132000Y-8064500I-35000J0D01*
G01*
X14640000Y-7302500D02*
G75*
G03X14640000Y-7302500I-35000J0D01*
G01*
X14640000Y-7556500D02*
G75*
G03X14640000Y-7556500I-35000J0D01*
G01*
X14640000Y-7810500D02*
G75*
G03X14640000Y-7810500I-35000J0D01*
G01*
X14640000Y-8064500D02*
G75*
G03X14640000Y-8064500I-35000J0D01*
G01*
X15973500Y-10985500D02*
G75*
G03X15973500Y-10985500I-35000J0D01*
G01*
X15973500Y-11239500D02*
G75*
G03X15973500Y-11239500I-35000J0D01*
G01*
X16227500Y-7239000D02*
G75*
G03X16227500Y-7239000I-35000J0D01*
G01*
X16291000Y-8890000D02*
G75*
G03X16291000Y-8890000I-35000J0D01*
G01*
X16481500Y-10985500D02*
G75*
G03X16481500Y-10985500I-35000J0D01*
G01*
X16481500Y-11239500D02*
G75*
G03X16481500Y-11239500I-35000J0D01*
G01*
X16735500Y-7239000D02*
G75*
G03X16735500Y-7239000I-35000J0D01*
G01*
X16799000Y-8890000D02*
G75*
G03X16799000Y-8890000I-35000J0D01*
G01*
X11239500Y-12345000D02*
X11239500Y-12420000D01*
X11202000Y-12382500D02*
X11277000Y-12382500D01*
X11439500Y-12345000D02*
X11439500Y-12420000D01*
X11402000Y-12382500D02*
X11477000Y-12382500D01*
X11639500Y-12345000D02*
X11639500Y-12420000D01*
X11602000Y-12382500D02*
X11677000Y-12382500D01*
X11839500Y-12345000D02*
X11839500Y-12420000D01*
X11802000Y-12382500D02*
X11877000Y-12382500D01*
X12039500Y-12345000D02*
X12039500Y-12420000D01*
X12002000Y-12382500D02*
X12077000Y-12382500D01*
X12239500Y-12345000D02*
X12239500Y-12420000D01*
X12202000Y-12382500D02*
X12277000Y-12382500D01*
X10250441Y-11583941D02*
X10250441Y-11530059D01*
X10196559Y-11530059D01*
X10196559Y-11583941D01*
X10250441Y-11583941D01*
X10377441Y-11964941D02*
X10377441Y-11911059D01*
X10323559Y-11911059D01*
X10323559Y-11964941D01*
X10377441Y-11964941D01*
X10504441Y-11583941D02*
X10504441Y-11530059D01*
X10450559Y-11530059D01*
X10450559Y-11583941D01*
X10504441Y-11583941D01*
X10631441Y-11964941D02*
X10631441Y-11911059D01*
X10577559Y-11911059D01*
X10577559Y-11964941D01*
X10631441Y-11964941D01*
X10758441Y-11583941D02*
X10758441Y-11530059D01*
X10704559Y-11530059D01*
X10704559Y-11583941D01*
X10758441Y-11583941D01*
X10885441Y-11964941D02*
X10885441Y-11911059D01*
X10831559Y-11911059D01*
X10831559Y-11964941D01*
X10885441Y-11964941D01*
X11012441Y-11583941D02*
X11012441Y-11530059D01*
X10958559Y-11530059D01*
X10958559Y-11583941D01*
X11012441Y-11583941D01*
X11139441Y-11964941D02*
X11139441Y-11911059D01*
X11085559Y-11911059D01*
X11085559Y-11964941D01*
X11139441Y-11964941D01*
X11266441Y-11583941D02*
X11266441Y-11530059D01*
X11212559Y-11530059D01*
X11212559Y-11583941D01*
X11266441Y-11583941D01*
X11393441Y-11964941D02*
X11393441Y-11911059D01*
X11339559Y-11911059D01*
X11339559Y-11964941D01*
X11393441Y-11964941D01*
X11520441Y-11583941D02*
X11520441Y-11530059D01*
X11466559Y-11530059D01*
X11466559Y-11583941D01*
X11520441Y-11583941D01*
X11647441Y-11964941D02*
X11647441Y-11911059D01*
X11593559Y-11911059D01*
X11593559Y-11964941D01*
X11647441Y-11964941D01*
X11774441Y-11583941D02*
X11774441Y-11530059D01*
X11720559Y-11530059D01*
X11720559Y-11583941D01*
X11774441Y-11583941D01*
X11901441Y-11964941D02*
X11901441Y-11911059D01*
X11847559Y-11911059D01*
X11847559Y-11964941D01*
X11901441Y-11964941D01*
X12028441Y-11583941D02*
X12028441Y-11530059D01*
X11974559Y-11530059D01*
X11974559Y-11583941D01*
X12028441Y-11583941D01*
X12155441Y-11964941D02*
X12155441Y-11911059D01*
X12101559Y-11911059D01*
X12101559Y-11964941D01*
X12155441Y-11964941D01*
X12282441Y-11583941D02*
X12282441Y-11530059D01*
X12228559Y-11530059D01*
X12228559Y-11583941D01*
X12282441Y-11583941D01*
X12409441Y-11964941D02*
X12409441Y-11911059D01*
X12355559Y-11911059D01*
X12355559Y-11964941D01*
X12409441Y-11964941D01*
X12536441Y-11583941D02*
X12536441Y-11530059D01*
X12482559Y-11530059D01*
X12482559Y-11583941D01*
X12536441Y-11583941D01*
X12663441Y-11964941D02*
X12663441Y-11911059D01*
X12609559Y-11911059D01*
X12609559Y-11964941D01*
X12663441Y-11964941D01*
X12790441Y-11583941D02*
X12790441Y-11530059D01*
X12736559Y-11530059D01*
X12736559Y-11583941D01*
X12790441Y-11583941D01*
X12917441Y-11964941D02*
X12917441Y-11911059D01*
X12863559Y-11911059D01*
X12863559Y-11964941D01*
X12917441Y-11964941D01*
X13044441Y-11583941D02*
X13044441Y-11530059D01*
X12990559Y-11530059D01*
X12990559Y-11583941D01*
X13044441Y-11583941D01*
X9398000Y-10644500D02*
X9438000Y-10604500D01*
X9398000Y-10564500D01*
X9358000Y-10604500D01*
X9398000Y-10644500D01*
X9398000Y-10894500D02*
X9438000Y-10854500D01*
X9398000Y-10814500D01*
X9358000Y-10854500D01*
X9398000Y-10894500D01*
X9715500Y-12295500D02*
X9755500Y-12255500D01*
X9715500Y-12215500D01*
X9675500Y-12255500D01*
X9715500Y-12295500D01*
X9715500Y-12545500D02*
X9755500Y-12505500D01*
X9715500Y-12465500D01*
X9675500Y-12505500D01*
X9715500Y-12545500D01*
X10227500Y-11279500D02*
X10267500Y-11239500D01*
X10227500Y-11199500D01*
X10187500Y-11239500D01*
X10227500Y-11279500D01*
X10477500Y-11279500D02*
X10517500Y-11239500D01*
X10477500Y-11199500D01*
X10437500Y-11239500D01*
X10477500Y-11279500D01*
X10858500Y-11279500D02*
X10898500Y-11239500D01*
X10858500Y-11199500D01*
X10818500Y-11239500D01*
X10858500Y-11279500D01*
X11108500Y-11279500D02*
X11148500Y-11239500D01*
X11108500Y-11199500D01*
X11068500Y-11239500D01*
X11108500Y-11279500D01*
X12255500Y-11279500D02*
X12295500Y-11239500D01*
X12255500Y-11199500D01*
X12215500Y-11239500D01*
X12255500Y-11279500D01*
X12505500Y-11279500D02*
X12545500Y-11239500D01*
X12505500Y-11199500D01*
X12465500Y-11239500D01*
X12505500Y-11279500D01*
X14224000Y-6834500D02*
X14264000Y-6794500D01*
X14224000Y-6754500D01*
X14184000Y-6794500D01*
X14224000Y-6834500D01*
X14224000Y-8358500D02*
X14264000Y-8318500D01*
X14224000Y-8278500D01*
X14184000Y-8318500D01*
X14224000Y-8358500D01*
X14228000Y-7088500D02*
X14268000Y-7048500D01*
X14228000Y-7008500D01*
X14188000Y-7048500D01*
X14228000Y-7088500D01*
X14474000Y-6834500D02*
X14514000Y-6794500D01*
X14474000Y-6754500D01*
X14434000Y-6794500D01*
X14474000Y-6834500D01*
X14474000Y-8358500D02*
X14514000Y-8318500D01*
X14474000Y-8278500D01*
X14434000Y-8318500D01*
X14474000Y-8358500D01*
X14478000Y-7088500D02*
X14518000Y-7048500D01*
X14478000Y-7008500D01*
X14438000Y-7048500D01*
X14478000Y-7088500D01*
X14732000Y-8803000D02*
X14772000Y-8763000D01*
X14732000Y-8723000D01*
X14692000Y-8763000D01*
X14732000Y-8803000D01*
X14732000Y-10327000D02*
X14772000Y-10287000D01*
X14732000Y-10247000D01*
X14692000Y-10287000D01*
X14732000Y-10327000D01*
X14859000Y-7596500D02*
X14899000Y-7556500D01*
X14859000Y-7516500D01*
X14819000Y-7556500D01*
X14859000Y-7596500D01*
X14859000Y-7850500D02*
X14899000Y-7810500D01*
X14859000Y-7770500D01*
X14819000Y-7810500D01*
X14859000Y-7850500D01*
X14859000Y-8104500D02*
X14899000Y-8064500D01*
X14859000Y-8024500D01*
X14819000Y-8064500D01*
X14859000Y-8104500D01*
X14859000Y-8358500D02*
X14899000Y-8318500D01*
X14859000Y-8278500D01*
X14819000Y-8318500D01*
X14859000Y-8358500D01*
X14986000Y-8803000D02*
X15026000Y-8763000D01*
X14986000Y-8723000D01*
X14946000Y-8763000D01*
X14986000Y-8803000D01*
X14986000Y-10327000D02*
X15026000Y-10287000D01*
X14986000Y-10247000D01*
X14946000Y-10287000D01*
X14986000Y-10327000D01*
X15240000Y-8803000D02*
X15280000Y-8763000D01*
X15240000Y-8723000D01*
X15200000Y-8763000D01*
X15240000Y-8803000D01*
X15240000Y-10327000D02*
X15280000Y-10287000D01*
X15240000Y-10247000D01*
X15200000Y-10287000D01*
X15240000Y-10327000D01*
X15494000Y-8803000D02*
X15534000Y-8763000D01*
X15494000Y-8723000D01*
X15454000Y-8763000D01*
X15494000Y-8803000D01*
X15494000Y-10327000D02*
X15534000Y-10287000D01*
X15494000Y-10247000D01*
X15454000Y-10287000D01*
X15494000Y-10327000D01*
X15621000Y-7596500D02*
X15661000Y-7556500D01*
X15621000Y-7516500D01*
X15581000Y-7556500D01*
X15621000Y-7596500D01*
X15621000Y-7850500D02*
X15661000Y-7810500D01*
X15621000Y-7770500D01*
X15581000Y-7810500D01*
X15621000Y-7850500D01*
X15621000Y-8104500D02*
X15661000Y-8064500D01*
X15621000Y-8024500D01*
X15581000Y-8064500D01*
X15621000Y-8104500D01*
X15621000Y-8358500D02*
X15661000Y-8318500D01*
X15621000Y-8278500D01*
X15581000Y-8318500D01*
X15621000Y-8358500D01*
X15748000Y-8803000D02*
X15788000Y-8763000D01*
X15748000Y-8723000D01*
X15708000Y-8763000D01*
X15748000Y-8803000D01*
X15748000Y-10327000D02*
X15788000Y-10287000D01*
X15748000Y-10247000D01*
X15708000Y-10287000D01*
X15748000Y-10327000D01*
X16065500Y-7596500D02*
X16105500Y-7556500D01*
X16065500Y-7516500D01*
X16025500Y-7556500D01*
X16065500Y-7596500D01*
X16065500Y-7850500D02*
X16105500Y-7810500D01*
X16065500Y-7770500D01*
X16025500Y-7810500D01*
X16065500Y-7850500D01*
X16065500Y-8104500D02*
X16105500Y-8064500D01*
X16065500Y-8024500D01*
X16025500Y-8064500D01*
X16065500Y-8104500D01*
X16065500Y-8358500D02*
X16105500Y-8318500D01*
X16065500Y-8278500D01*
X16025500Y-8318500D01*
X16065500Y-8358500D01*
X16383000Y-9565000D02*
X16423000Y-9525000D01*
X16383000Y-9485000D01*
X16343000Y-9525000D01*
X16383000Y-9565000D01*
X16383000Y-9946000D02*
X16423000Y-9906000D01*
X16383000Y-9866000D01*
X16343000Y-9906000D01*
X16383000Y-9946000D01*
X16387000Y-9311000D02*
X16427000Y-9271000D01*
X16387000Y-9231000D01*
X16347000Y-9271000D01*
X16387000Y-9311000D01*
X16633000Y-9565000D02*
X16673000Y-9525000D01*
X16633000Y-9485000D01*
X16593000Y-9525000D01*
X16633000Y-9565000D01*
X16633000Y-9946000D02*
X16673000Y-9906000D01*
X16633000Y-9866000D01*
X16593000Y-9906000D01*
X16633000Y-9946000D01*
X16637000Y-9311000D02*
X16677000Y-9271000D01*
X16637000Y-9231000D01*
X16597000Y-9271000D01*
X16637000Y-9311000D01*
X16827500Y-7596500D02*
X16867500Y-7556500D01*
X16827500Y-7516500D01*
X16787500Y-7556500D01*
X16827500Y-7596500D01*
X16827500Y-7850500D02*
X16867500Y-7810500D01*
X16827500Y-7770500D01*
X16787500Y-7810500D01*
X16827500Y-7850500D01*
X16827500Y-8104500D02*
X16867500Y-8064500D01*
X16827500Y-8024500D01*
X16787500Y-8064500D01*
X16827500Y-8104500D01*
X16827500Y-8358500D02*
X16867500Y-8318500D01*
X16827500Y-8278500D01*
X16787500Y-8318500D01*
X16827500Y-8358500D01*
X9103360Y-8150860D02*
X9184640Y-8232140D01*
X9184640Y-8150860D02*
X9103360Y-8232140D01*
X9184640Y-8191500D02*
G75*
G03X9184640Y-8191500I-40640J0D01*
G01*
X9103360Y-8658860D02*
X9184640Y-8740140D01*
X9184640Y-8658860D02*
X9103360Y-8740140D01*
X9184640Y-8699500D02*
G75*
G03X9184640Y-8699500I-40640J0D01*
G01*
X8718000Y-10559500D02*
X8808000Y-10649500D01*
X8808000Y-10559500D02*
X8718000Y-10649500D01*
X8763000Y-10559500D02*
X8763000Y-10649500D01*
X8718000Y-10604500D02*
X8808000Y-10604500D01*
X8718000Y-10813500D02*
X8808000Y-10903500D01*
X8808000Y-10813500D02*
X8718000Y-10903500D01*
X8763000Y-10813500D02*
X8763000Y-10903500D01*
X8718000Y-10858500D02*
X8808000Y-10858500D01*
X9480000Y-11448500D02*
X9570000Y-11538500D01*
X9570000Y-11448500D02*
X9480000Y-11538500D01*
X9525000Y-11448500D02*
X9525000Y-11538500D01*
X9480000Y-11493500D02*
X9570000Y-11493500D01*
X9734000Y-11448500D02*
X9824000Y-11538500D01*
X9824000Y-11448500D02*
X9734000Y-11538500D01*
X9779000Y-11448500D02*
X9779000Y-11538500D01*
X9734000Y-11493500D02*
X9824000Y-11493500D01*
X15131500Y-6749500D02*
X15221500Y-6839500D01*
X15221500Y-6749500D02*
X15131500Y-6839500D01*
X15176500Y-6749500D02*
X15176500Y-6839500D01*
X15131500Y-6794500D02*
X15221500Y-6794500D01*
X15385500Y-6749500D02*
X15475500Y-6839500D01*
X15475500Y-6749500D02*
X15385500Y-6839500D01*
X15430500Y-6749500D02*
X15430500Y-6839500D01*
X15385500Y-6794500D02*
X15475500Y-6794500D01*
X16020500Y-6749500D02*
X16110500Y-6839500D01*
X16110500Y-6749500D02*
X16020500Y-6839500D01*
X16065500Y-6749500D02*
X16065500Y-6839500D01*
X16020500Y-6794500D02*
X16110500Y-6794500D01*
X16274500Y-6749500D02*
X16364500Y-6839500D01*
X16364500Y-6749500D02*
X16274500Y-6839500D01*
X16319500Y-6749500D02*
X16319500Y-6839500D01*
X16274500Y-6794500D02*
X16364500Y-6794500D01*
X16782500Y-10940500D02*
X16872500Y-11030500D01*
X16872500Y-10940500D02*
X16782500Y-11030500D01*
X16827500Y-10940500D02*
X16827500Y-11030500D01*
X16782500Y-10985500D02*
X16872500Y-10985500D01*
X16782500Y-11194500D02*
X16872500Y-11284500D01*
X16872500Y-11194500D02*
X16782500Y-11284500D01*
X16827500Y-11194500D02*
X16827500Y-11284500D01*
X16782500Y-11239500D02*
X16872500Y-11239500D01*
X8494000Y-11570500D02*
X8594000Y-11670500D01*
X8594000Y-11570500D02*
X8494000Y-11670500D01*
X8579356Y-11655856D02*
X8579356Y-11585144D01*
X8508644Y-11585144D01*
X8508644Y-11655856D01*
X8579356Y-11655856D01*
X8504000Y-11520500D02*
X8504000Y-11720500D01*
X8584000Y-11520500D02*
X8584000Y-11720500D01*
X8504000Y-11720500D02*
G75*
G03X8584000Y-11720500I40000J0D01*
G01*
X8584000Y-11520500D02*
G75*
G03X8504000Y-11520500I-40000J0D01*
G01*
X8522500Y-9284500D02*
X8622500Y-9384500D01*
X8622500Y-9284500D02*
X8522500Y-9384500D01*
X8607856Y-9369856D02*
X8607856Y-9299144D01*
X8537144Y-9299144D01*
X8537144Y-9369856D01*
X8607856Y-9369856D01*
X8522500Y-9538500D02*
X8622500Y-9638500D01*
X8622500Y-9538500D02*
X8522500Y-9638500D01*
X8607856Y-9623856D02*
X8607856Y-9553144D01*
X8537144Y-9553144D01*
X8537144Y-9623856D01*
X8607856Y-9623856D01*
X8522500Y-9792500D02*
X8622500Y-9892500D01*
X8622500Y-9792500D02*
X8522500Y-9892500D01*
X8607856Y-9877856D02*
X8607856Y-9807144D01*
X8537144Y-9807144D01*
X8537144Y-9877856D01*
X8607856Y-9877856D01*
X8794000Y-12040500D02*
X8894000Y-12140500D01*
X8894000Y-12040500D02*
X8794000Y-12140500D01*
X8879356Y-12125856D02*
X8879356Y-12055144D01*
X8808644Y-12055144D01*
X8808644Y-12125856D01*
X8879356Y-12125856D01*
X8744000Y-12130500D02*
X8944000Y-12130500D01*
X8744000Y-12050500D02*
X8944000Y-12050500D01*
X8944000Y-12130500D02*
G75*
G03X8944000Y-12050500I0J40000D01*
G01*
X8744000Y-12050500D02*
G75*
G03X8744000Y-12130500I0J-40000D01*
G01*
X8840000Y-6743500D02*
X8940000Y-6843500D01*
X8940000Y-6743500D02*
X8840000Y-6843500D01*
X8925356Y-6828856D02*
X8925356Y-6758144D01*
X8854644Y-6758144D01*
X8854644Y-6828856D01*
X8925356Y-6828856D01*
X8903500Y-7316000D02*
X9003500Y-7416000D01*
X9003500Y-7316000D02*
X8903500Y-7416000D01*
X8988856Y-7401356D02*
X8988856Y-7330644D01*
X8918144Y-7330644D01*
X8918144Y-7401356D01*
X8988856Y-7401356D01*
X9094000Y-11570500D02*
X9194000Y-11670500D01*
X9194000Y-11570500D02*
X9094000Y-11670500D01*
X9179356Y-11655856D02*
X9179356Y-11585144D01*
X9108644Y-11585144D01*
X9108644Y-11655856D01*
X9179356Y-11655856D01*
X9104000Y-11520500D02*
X9104000Y-11720500D01*
X9184000Y-11520500D02*
X9184000Y-11720500D01*
X9104000Y-11720500D02*
G75*
G03X9184000Y-11720500I40000J0D01*
G01*
X9184000Y-11520500D02*
G75*
G03X9104000Y-11520500I-40000J0D01*
G01*
X9157500Y-7316000D02*
X9257500Y-7416000D01*
X9257500Y-7316000D02*
X9157500Y-7416000D01*
X9242856Y-7401356D02*
X9242856Y-7330644D01*
X9172144Y-7330644D01*
X9172144Y-7401356D01*
X9242856Y-7401356D01*
X9284500Y-9284500D02*
X9384500Y-9384500D01*
X9384500Y-9284500D02*
X9284500Y-9384500D01*
X9369856Y-9369856D02*
X9369856Y-9299144D01*
X9299144Y-9299144D01*
X9299144Y-9369856D01*
X9369856Y-9369856D01*
X9284500Y-9538500D02*
X9384500Y-9638500D01*
X9384500Y-9538500D02*
X9284500Y-9638500D01*
X9369856Y-9623856D02*
X9369856Y-9553144D01*
X9299144Y-9553144D01*
X9299144Y-9623856D01*
X9369856Y-9623856D01*
X9284500Y-9792500D02*
X9384500Y-9892500D01*
X9384500Y-9792500D02*
X9284500Y-9892500D01*
X9369856Y-9877856D02*
X9369856Y-9807144D01*
X9299144Y-9807144D01*
X9299144Y-9877856D01*
X9369856Y-9877856D01*
X9348000Y-6744500D02*
X9448000Y-6844500D01*
X9448000Y-6744500D02*
X9348000Y-6844500D01*
X9433356Y-6829856D02*
X9433356Y-6759144D01*
X9362644Y-6759144D01*
X9362644Y-6829856D01*
X9433356Y-6829856D01*
X9411500Y-7316000D02*
X9511500Y-7416000D01*
X9511500Y-7316000D02*
X9411500Y-7416000D01*
X9496856Y-7401356D02*
X9496856Y-7330644D01*
X9426144Y-7330644D01*
X9426144Y-7401356D01*
X9496856Y-7401356D01*
X9856000Y-6998500D02*
X9956000Y-7098500D01*
X9956000Y-6998500D02*
X9856000Y-7098500D01*
X9941356Y-7083856D02*
X9941356Y-7013144D01*
X9870644Y-7013144D01*
X9870644Y-7083856D01*
X9941356Y-7083856D01*
X9856000Y-7252500D02*
X9956000Y-7352500D01*
X9956000Y-7252500D02*
X9856000Y-7352500D01*
X9941356Y-7337856D02*
X9941356Y-7267144D01*
X9870644Y-7267144D01*
X9870644Y-7337856D01*
X9941356Y-7337856D01*
X9856000Y-7506500D02*
X9956000Y-7606500D01*
X9956000Y-7506500D02*
X9856000Y-7606500D01*
X9941356Y-7591856D02*
X9941356Y-7521144D01*
X9870644Y-7521144D01*
X9870644Y-7591856D01*
X9941356Y-7591856D01*
X9906800Y-8027200D02*
X10006800Y-8127200D01*
X10006800Y-8027200D02*
X9906800Y-8127200D01*
X9992156Y-8112556D02*
X9992156Y-8041844D01*
X9921444Y-8041844D01*
X9921444Y-8112556D01*
X9992156Y-8112556D01*
X9906800Y-8281200D02*
X10006800Y-8381200D01*
X10006800Y-8281200D02*
X9906800Y-8381200D01*
X9992156Y-8366556D02*
X9992156Y-8295844D01*
X9921444Y-8295844D01*
X9921444Y-8366556D01*
X9992156Y-8366556D01*
X9906800Y-10567200D02*
X10006800Y-10667200D01*
X10006800Y-10567200D02*
X9906800Y-10667200D01*
X9992156Y-10652556D02*
X9992156Y-10581844D01*
X9921444Y-10581844D01*
X9921444Y-10652556D01*
X9992156Y-10652556D01*
X9906800Y-10821200D02*
X10006800Y-10921200D01*
X10006800Y-10821200D02*
X9906800Y-10921200D01*
X9992156Y-10906556D02*
X9992156Y-10835844D01*
X9921444Y-10835844D01*
X9921444Y-10906556D01*
X9992156Y-10906556D01*
X10160800Y-8027200D02*
X10260800Y-8127200D01*
X10260800Y-8027200D02*
X10160800Y-8127200D01*
X10246156Y-8112556D02*
X10246156Y-8041844D01*
X10175444Y-8041844D01*
X10175444Y-8112556D01*
X10246156Y-8112556D01*
X10160800Y-8281200D02*
X10260800Y-8381200D01*
X10260800Y-8281200D02*
X10160800Y-8381200D01*
X10246156Y-8366556D02*
X10246156Y-8295844D01*
X10175444Y-8295844D01*
X10175444Y-8366556D01*
X10246156Y-8366556D01*
X10160800Y-10567200D02*
X10260800Y-10667200D01*
X10260800Y-10567200D02*
X10160800Y-10667200D01*
X10246156Y-10652556D02*
X10246156Y-10581844D01*
X10175444Y-10581844D01*
X10175444Y-10652556D01*
X10246156Y-10652556D01*
X10160800Y-10821200D02*
X10260800Y-10921200D01*
X10260800Y-10821200D02*
X10160800Y-10921200D01*
X10246156Y-10906556D02*
X10246156Y-10835844D01*
X10175444Y-10835844D01*
X10175444Y-10906556D01*
X10246156Y-10906556D01*
X10414800Y-8027200D02*
X10514800Y-8127200D01*
X10514800Y-8027200D02*
X10414800Y-8127200D01*
X10500156Y-8112556D02*
X10500156Y-8041844D01*
X10429444Y-8041844D01*
X10429444Y-8112556D01*
X10500156Y-8112556D01*
X10414800Y-8281200D02*
X10514800Y-8381200D01*
X10514800Y-8281200D02*
X10414800Y-8381200D01*
X10500156Y-8366556D02*
X10500156Y-8295844D01*
X10429444Y-8295844D01*
X10429444Y-8366556D01*
X10500156Y-8366556D01*
X10414800Y-10567200D02*
X10514800Y-10667200D01*
X10514800Y-10567200D02*
X10414800Y-10667200D01*
X10500156Y-10652556D02*
X10500156Y-10581844D01*
X10429444Y-10581844D01*
X10429444Y-10652556D01*
X10500156Y-10652556D01*
X10414800Y-10821200D02*
X10514800Y-10921200D01*
X10514800Y-10821200D02*
X10414800Y-10921200D01*
X10500156Y-10906556D02*
X10500156Y-10835844D01*
X10429444Y-10835844D01*
X10429444Y-10906556D01*
X10500156Y-10906556D01*
X10427500Y-6998500D02*
X10527500Y-7098500D01*
X10527500Y-6998500D02*
X10427500Y-7098500D01*
X10512856Y-7083856D02*
X10512856Y-7013144D01*
X10442144Y-7013144D01*
X10442144Y-7083856D01*
X10512856Y-7083856D01*
X10427500Y-7252500D02*
X10527500Y-7352500D01*
X10527500Y-7252500D02*
X10427500Y-7352500D01*
X10512856Y-7337856D02*
X10512856Y-7267144D01*
X10442144Y-7267144D01*
X10442144Y-7337856D01*
X10512856Y-7337856D01*
X10427500Y-7506500D02*
X10527500Y-7606500D01*
X10527500Y-7506500D02*
X10427500Y-7606500D01*
X10512856Y-7591856D02*
X10512856Y-7521144D01*
X10442144Y-7521144D01*
X10442144Y-7591856D01*
X10512856Y-7591856D01*
X10668800Y-8027200D02*
X10768800Y-8127200D01*
X10768800Y-8027200D02*
X10668800Y-8127200D01*
X10754156Y-8112556D02*
X10754156Y-8041844D01*
X10683444Y-8041844D01*
X10683444Y-8112556D01*
X10754156Y-8112556D01*
X10668800Y-8281200D02*
X10768800Y-8381200D01*
X10768800Y-8281200D02*
X10668800Y-8381200D01*
X10754156Y-8366556D02*
X10754156Y-8295844D01*
X10683444Y-8295844D01*
X10683444Y-8366556D01*
X10754156Y-8366556D01*
X10668800Y-10567200D02*
X10768800Y-10667200D01*
X10768800Y-10567200D02*
X10668800Y-10667200D01*
X10754156Y-10652556D02*
X10754156Y-10581844D01*
X10683444Y-10581844D01*
X10683444Y-10652556D01*
X10754156Y-10652556D01*
X10668800Y-10821200D02*
X10768800Y-10921200D01*
X10768800Y-10821200D02*
X10668800Y-10921200D01*
X10754156Y-10906556D02*
X10754156Y-10835844D01*
X10683444Y-10835844D01*
X10683444Y-10906556D01*
X10754156Y-10906556D01*
X10922800Y-8027200D02*
X11022800Y-8127200D01*
X11022800Y-8027200D02*
X10922800Y-8127200D01*
X11008156Y-8112556D02*
X11008156Y-8041844D01*
X10937444Y-8041844D01*
X10937444Y-8112556D01*
X11008156Y-8112556D01*
X10922800Y-8281200D02*
X11022800Y-8381200D01*
X11022800Y-8281200D02*
X10922800Y-8381200D01*
X11008156Y-8366556D02*
X11008156Y-8295844D01*
X10937444Y-8295844D01*
X10937444Y-8366556D01*
X11008156Y-8366556D01*
X10922800Y-10567200D02*
X11022800Y-10667200D01*
X11022800Y-10567200D02*
X10922800Y-10667200D01*
X11008156Y-10652556D02*
X11008156Y-10581844D01*
X10937444Y-10581844D01*
X10937444Y-10652556D01*
X11008156Y-10652556D01*
X10922800Y-10821200D02*
X11022800Y-10921200D01*
X11022800Y-10821200D02*
X10922800Y-10921200D01*
X11008156Y-10906556D02*
X11008156Y-10835844D01*
X10937444Y-10835844D01*
X10937444Y-10906556D01*
X11008156Y-10906556D01*
X10999000Y-7506500D02*
X11099000Y-7606500D01*
X11099000Y-7506500D02*
X10999000Y-7606500D01*
X11084356Y-7591856D02*
X11084356Y-7521144D01*
X11013644Y-7521144D01*
X11013644Y-7591856D01*
X11084356Y-7591856D01*
X11176800Y-8027200D02*
X11276800Y-8127200D01*
X11276800Y-8027200D02*
X11176800Y-8127200D01*
X11262156Y-8112556D02*
X11262156Y-8041844D01*
X11191444Y-8041844D01*
X11191444Y-8112556D01*
X11262156Y-8112556D01*
X11176800Y-8281200D02*
X11276800Y-8381200D01*
X11276800Y-8281200D02*
X11176800Y-8381200D01*
X11262156Y-8366556D02*
X11262156Y-8295844D01*
X11191444Y-8295844D01*
X11191444Y-8366556D01*
X11262156Y-8366556D01*
X11176800Y-10567200D02*
X11276800Y-10667200D01*
X11276800Y-10567200D02*
X11176800Y-10667200D01*
X11262156Y-10652556D02*
X11262156Y-10581844D01*
X11191444Y-10581844D01*
X11191444Y-10652556D01*
X11262156Y-10652556D01*
X11176800Y-10821200D02*
X11276800Y-10921200D01*
X11276800Y-10821200D02*
X11176800Y-10921200D01*
X11262156Y-10906556D02*
X11262156Y-10835844D01*
X11191444Y-10835844D01*
X11191444Y-10906556D01*
X11262156Y-10906556D01*
X11253000Y-7506500D02*
X11353000Y-7606500D01*
X11353000Y-7506500D02*
X11253000Y-7606500D01*
X11338356Y-7591856D02*
X11338356Y-7521144D01*
X11267644Y-7521144D01*
X11267644Y-7591856D01*
X11338356Y-7591856D01*
X11430800Y-8027200D02*
X11530800Y-8127200D01*
X11530800Y-8027200D02*
X11430800Y-8127200D01*
X11516156Y-8112556D02*
X11516156Y-8041844D01*
X11445444Y-8041844D01*
X11445444Y-8112556D01*
X11516156Y-8112556D01*
X11430800Y-8281200D02*
X11530800Y-8381200D01*
X11530800Y-8281200D02*
X11430800Y-8381200D01*
X11516156Y-8366556D02*
X11516156Y-8295844D01*
X11445444Y-8295844D01*
X11445444Y-8366556D01*
X11516156Y-8366556D01*
X11430800Y-10567200D02*
X11530800Y-10667200D01*
X11530800Y-10567200D02*
X11430800Y-10667200D01*
X11516156Y-10652556D02*
X11516156Y-10581844D01*
X11445444Y-10581844D01*
X11445444Y-10652556D01*
X11516156Y-10652556D01*
X11430800Y-10821200D02*
X11530800Y-10921200D01*
X11530800Y-10821200D02*
X11430800Y-10921200D01*
X11516156Y-10906556D02*
X11516156Y-10835844D01*
X11445444Y-10835844D01*
X11445444Y-10906556D01*
X11516156Y-10906556D01*
X11507000Y-7506500D02*
X11607000Y-7606500D01*
X11607000Y-7506500D02*
X11507000Y-7606500D01*
X11592356Y-7591856D02*
X11592356Y-7521144D01*
X11521644Y-7521144D01*
X11521644Y-7591856D01*
X11592356Y-7591856D01*
X11684800Y-8027200D02*
X11784800Y-8127200D01*
X11784800Y-8027200D02*
X11684800Y-8127200D01*
X11770156Y-8112556D02*
X11770156Y-8041844D01*
X11699444Y-8041844D01*
X11699444Y-8112556D01*
X11770156Y-8112556D01*
X11684800Y-8281200D02*
X11784800Y-8381200D01*
X11784800Y-8281200D02*
X11684800Y-8381200D01*
X11770156Y-8366556D02*
X11770156Y-8295844D01*
X11699444Y-8295844D01*
X11699444Y-8366556D01*
X11770156Y-8366556D01*
X11684800Y-10567200D02*
X11784800Y-10667200D01*
X11784800Y-10567200D02*
X11684800Y-10667200D01*
X11770156Y-10652556D02*
X11770156Y-10581844D01*
X11699444Y-10581844D01*
X11699444Y-10652556D01*
X11770156Y-10652556D01*
X11684800Y-10821200D02*
X11784800Y-10921200D01*
X11784800Y-10821200D02*
X11684800Y-10921200D01*
X11770156Y-10906556D02*
X11770156Y-10835844D01*
X11699444Y-10835844D01*
X11699444Y-10906556D01*
X11770156Y-10906556D01*
X11761000Y-7506500D02*
X11861000Y-7606500D01*
X11861000Y-7506500D02*
X11761000Y-7606500D01*
X11846356Y-7591856D02*
X11846356Y-7521144D01*
X11775644Y-7521144D01*
X11775644Y-7591856D01*
X11846356Y-7591856D01*
X11938800Y-8027200D02*
X12038800Y-8127200D01*
X12038800Y-8027200D02*
X11938800Y-8127200D01*
X12024156Y-8112556D02*
X12024156Y-8041844D01*
X11953444Y-8041844D01*
X11953444Y-8112556D01*
X12024156Y-8112556D01*
X11938800Y-8281200D02*
X12038800Y-8381200D01*
X12038800Y-8281200D02*
X11938800Y-8381200D01*
X12024156Y-8366556D02*
X12024156Y-8295844D01*
X11953444Y-8295844D01*
X11953444Y-8366556D01*
X12024156Y-8366556D01*
X11938800Y-10567200D02*
X12038800Y-10667200D01*
X12038800Y-10567200D02*
X11938800Y-10667200D01*
X12024156Y-10652556D02*
X12024156Y-10581844D01*
X11953444Y-10581844D01*
X11953444Y-10652556D01*
X12024156Y-10652556D01*
X11938800Y-10821200D02*
X12038800Y-10921200D01*
X12038800Y-10821200D02*
X11938800Y-10921200D01*
X12024156Y-10906556D02*
X12024156Y-10835844D01*
X11953444Y-10835844D01*
X11953444Y-10906556D01*
X12024156Y-10906556D01*
X12015000Y-7506500D02*
X12115000Y-7606500D01*
X12115000Y-7506500D02*
X12015000Y-7606500D01*
X12100356Y-7591856D02*
X12100356Y-7521144D01*
X12029644Y-7521144D01*
X12029644Y-7591856D01*
X12100356Y-7591856D01*
X12192800Y-8027200D02*
X12292800Y-8127200D01*
X12292800Y-8027200D02*
X12192800Y-8127200D01*
X12278156Y-8112556D02*
X12278156Y-8041844D01*
X12207444Y-8041844D01*
X12207444Y-8112556D01*
X12278156Y-8112556D01*
X12192800Y-8281200D02*
X12292800Y-8381200D01*
X12292800Y-8281200D02*
X12192800Y-8381200D01*
X12278156Y-8366556D02*
X12278156Y-8295844D01*
X12207444Y-8295844D01*
X12207444Y-8366556D01*
X12278156Y-8366556D01*
X12192800Y-10567200D02*
X12292800Y-10667200D01*
X12292800Y-10567200D02*
X12192800Y-10667200D01*
X12278156Y-10652556D02*
X12278156Y-10581844D01*
X12207444Y-10581844D01*
X12207444Y-10652556D01*
X12278156Y-10652556D01*
X12192800Y-10821200D02*
X12292800Y-10921200D01*
X12292800Y-10821200D02*
X12192800Y-10921200D01*
X12278156Y-10906556D02*
X12278156Y-10835844D01*
X12207444Y-10835844D01*
X12207444Y-10906556D01*
X12278156Y-10906556D01*
X12446800Y-8027200D02*
X12546800Y-8127200D01*
X12546800Y-8027200D02*
X12446800Y-8127200D01*
X12532156Y-8112556D02*
X12532156Y-8041844D01*
X12461444Y-8041844D01*
X12461444Y-8112556D01*
X12532156Y-8112556D01*
X12446800Y-8281200D02*
X12546800Y-8381200D01*
X12546800Y-8281200D02*
X12446800Y-8381200D01*
X12532156Y-8366556D02*
X12532156Y-8295844D01*
X12461444Y-8295844D01*
X12461444Y-8366556D01*
X12532156Y-8366556D01*
X12446800Y-10567200D02*
X12546800Y-10667200D01*
X12546800Y-10567200D02*
X12446800Y-10667200D01*
X12532156Y-10652556D02*
X12532156Y-10581844D01*
X12461444Y-10581844D01*
X12461444Y-10652556D01*
X12532156Y-10652556D01*
X12446800Y-10821200D02*
X12546800Y-10921200D01*
X12546800Y-10821200D02*
X12446800Y-10921200D01*
X12532156Y-10906556D02*
X12532156Y-10835844D01*
X12461444Y-10835844D01*
X12461444Y-10906556D01*
X12532156Y-10906556D01*
X12586500Y-7506500D02*
X12686500Y-7606500D01*
X12686500Y-7506500D02*
X12586500Y-7606500D01*
X12671856Y-7591856D02*
X12671856Y-7521144D01*
X12601144Y-7521144D01*
X12601144Y-7591856D01*
X12671856Y-7591856D01*
X12700800Y-8027200D02*
X12800800Y-8127200D01*
X12800800Y-8027200D02*
X12700800Y-8127200D01*
X12786156Y-8112556D02*
X12786156Y-8041844D01*
X12715444Y-8041844D01*
X12715444Y-8112556D01*
X12786156Y-8112556D01*
X12700800Y-8281200D02*
X12800800Y-8381200D01*
X12800800Y-8281200D02*
X12700800Y-8381200D01*
X12786156Y-8366556D02*
X12786156Y-8295844D01*
X12715444Y-8295844D01*
X12715444Y-8366556D01*
X12786156Y-8366556D01*
X12700800Y-10567200D02*
X12800800Y-10667200D01*
X12800800Y-10567200D02*
X12700800Y-10667200D01*
X12786156Y-10652556D02*
X12786156Y-10581844D01*
X12715444Y-10581844D01*
X12715444Y-10652556D01*
X12786156Y-10652556D01*
X12700800Y-10821200D02*
X12800800Y-10921200D01*
X12800800Y-10821200D02*
X12700800Y-10921200D01*
X12786156Y-10906556D02*
X12786156Y-10835844D01*
X12715444Y-10835844D01*
X12715444Y-10906556D01*
X12786156Y-10906556D01*
X12840500Y-7506500D02*
X12940500Y-7606500D01*
X12940500Y-7506500D02*
X12840500Y-7606500D01*
X12925856Y-7591856D02*
X12925856Y-7521144D01*
X12855144Y-7521144D01*
X12855144Y-7591856D01*
X12925856Y-7591856D01*
X12954800Y-8027200D02*
X13054800Y-8127200D01*
X13054800Y-8027200D02*
X12954800Y-8127200D01*
X13040156Y-8112556D02*
X13040156Y-8041844D01*
X12969444Y-8041844D01*
X12969444Y-8112556D01*
X13040156Y-8112556D01*
X12954800Y-8281200D02*
X13054800Y-8381200D01*
X13054800Y-8281200D02*
X12954800Y-8381200D01*
X13040156Y-8366556D02*
X13040156Y-8295844D01*
X12969444Y-8295844D01*
X12969444Y-8366556D01*
X13040156Y-8366556D01*
X12954800Y-10567200D02*
X13054800Y-10667200D01*
X13054800Y-10567200D02*
X12954800Y-10667200D01*
X13040156Y-10652556D02*
X13040156Y-10581844D01*
X12969444Y-10581844D01*
X12969444Y-10652556D01*
X13040156Y-10652556D01*
X12954800Y-10821200D02*
X13054800Y-10921200D01*
X13054800Y-10821200D02*
X12954800Y-10921200D01*
X13040156Y-10906556D02*
X13040156Y-10835844D01*
X12969444Y-10835844D01*
X12969444Y-10906556D01*
X13040156Y-10906556D01*
X13094500Y-7506500D02*
X13194500Y-7606500D01*
X13194500Y-7506500D02*
X13094500Y-7606500D01*
X13179856Y-7591856D02*
X13179856Y-7521144D01*
X13109144Y-7521144D01*
X13109144Y-7591856D01*
X13179856Y-7591856D01*
X17095000Y-8967000D02*
X17195000Y-9067000D01*
X17195000Y-8967000D02*
X17095000Y-9067000D01*
X17180356Y-9052356D02*
X17180356Y-8981644D01*
X17109644Y-8981644D01*
X17109644Y-9052356D01*
X17180356Y-9052356D01*
X17095000Y-9221000D02*
X17195000Y-9321000D01*
X17195000Y-9221000D02*
X17095000Y-9321000D01*
X17180356Y-9306356D02*
X17180356Y-9235644D01*
X17109644Y-9235644D01*
X17109644Y-9306356D01*
X17180356Y-9306356D01*
X17095000Y-9475000D02*
X17195000Y-9575000D01*
X17195000Y-9475000D02*
X17095000Y-9575000D01*
X17180356Y-9560356D02*
X17180356Y-9489644D01*
X17109644Y-9489644D01*
X17109644Y-9560356D01*
X17180356Y-9560356D01*
X17095000Y-9729000D02*
X17195000Y-9829000D01*
X17195000Y-9729000D02*
X17095000Y-9829000D01*
X17180356Y-9814356D02*
X17180356Y-9743644D01*
X17109644Y-9743644D01*
X17109644Y-9814356D01*
X17180356Y-9814356D01*
X17095000Y-9983000D02*
X17195000Y-10083000D01*
X17195000Y-9983000D02*
X17095000Y-10083000D01*
X17180356Y-10068356D02*
X17180356Y-9997644D01*
X17109644Y-9997644D01*
X17109644Y-10068356D01*
X17180356Y-10068356D01*
X14427962Y-11316462D02*
X14528038Y-11416538D01*
X14528038Y-11316462D02*
X14427962Y-11416538D01*
X14478000Y-11416538D02*
X14528038Y-11366500D01*
X14478000Y-11316462D01*
X14427962Y-11366500D01*
X14478000Y-11416538D01*
X14427962Y-12332462D02*
X14528038Y-12432538D01*
X14528038Y-12332462D02*
X14427962Y-12432538D01*
X14478000Y-12432538D02*
X14528038Y-12382500D01*
X14478000Y-12332462D01*
X14427962Y-12382500D01*
X14478000Y-12432538D01*
X8445500Y-7313500D02*
X8445500Y-7418500D01*
X8393000Y-7366000D02*
X8498000Y-7366000D01*
X8498000Y-7366000D02*
G75*
G03X8498000Y-7366000I-52500J0D01*
G01*
X8445500Y-7563500D02*
X8445500Y-7668500D01*
X8393000Y-7616000D02*
X8498000Y-7616000D01*
X8498000Y-7616000D02*
G75*
G03X8498000Y-7616000I-52500J0D01*
G01*
X16040891Y-11644391D02*
X16040891Y-11566609D01*
X15963109Y-11566609D01*
X15963109Y-11644391D01*
X16040891Y-11644391D01*
X16057000Y-11605500D02*
G75*
G03X16057000Y-11605500I-55000J0D01*
G01*
X16040891Y-12294391D02*
X16040891Y-12216609D01*
X15963109Y-12216609D01*
X15963109Y-12294391D01*
X16040891Y-12294391D01*
X16057000Y-12255500D02*
G75*
G03X16057000Y-12255500I-55000J0D01*
G01*
X16490891Y-11644391D02*
X16490891Y-11566609D01*
X16413109Y-11566609D01*
X16413109Y-11644391D01*
X16490891Y-11644391D01*
X16507000Y-11605500D02*
G75*
G03X16507000Y-11605500I-55000J0D01*
G01*
X16490891Y-12294391D02*
X16490891Y-12216609D01*
X16413109Y-12216609D01*
X16413109Y-12294391D01*
X16490891Y-12294391D01*
X16507000Y-12255500D02*
G75*
G03X16507000Y-12255500I-55000J0D01*
G01*
D13*
X8010928Y-13173214D02*
X8010928Y-12873214D01*
X8082357Y-12873214D01*
X8125214Y-12887500D01*
X8153786Y-12916071D01*
X8168071Y-12944643D01*
X8182357Y-13001786D01*
X8182357Y-13044643D01*
X8168071Y-13101786D01*
X8153786Y-13130357D01*
X8125214Y-13158929D01*
X8082357Y-13173214D01*
X8010928Y-13173214D01*
X8310928Y-13173214D02*
X8310928Y-12973214D01*
X8310928Y-13030357D02*
X8325214Y-13001786D01*
X8339500Y-12987500D01*
X8368071Y-12973214D01*
X8396643Y-12973214D01*
X8496643Y-13173214D02*
X8496643Y-12973214D01*
X8496643Y-12873214D02*
X8482357Y-12887500D01*
X8496643Y-12901786D01*
X8510929Y-12887500D01*
X8496643Y-12873214D01*
X8496643Y-12901786D01*
X8682357Y-13173214D02*
X8653786Y-13158929D01*
X8639500Y-13130357D01*
X8639500Y-12873214D01*
X8839500Y-13173214D02*
X8810929Y-13158929D01*
X8796643Y-13130357D01*
X8796643Y-12873214D01*
X9182357Y-13173214D02*
X9182357Y-12873214D01*
X9282357Y-13087500D01*
X9382357Y-12873214D01*
X9382357Y-13173214D01*
X9653786Y-13173214D02*
X9653786Y-13016071D01*
X9639500Y-12987500D01*
X9610929Y-12973214D01*
X9553786Y-12973214D01*
X9525214Y-12987500D01*
X9653786Y-13158929D02*
X9625214Y-13173214D01*
X9553786Y-13173214D01*
X9525214Y-13158929D01*
X9510929Y-13130357D01*
X9510929Y-13101786D01*
X9525214Y-13073214D01*
X9553786Y-13058929D01*
X9625214Y-13058929D01*
X9653786Y-13044643D01*
X9796643Y-12973214D02*
X9796643Y-13273214D01*
X9796643Y-12987500D02*
X9825214Y-12973214D01*
X9882357Y-12973214D01*
X9910929Y-12987500D01*
X9925214Y-13001786D01*
X9939500Y-13030357D01*
X9939500Y-13116071D01*
X9925214Y-13144643D01*
X9910929Y-13158929D01*
X9882357Y-13173214D01*
X9825214Y-13173214D01*
X9796643Y-13158929D01*
X10068071Y-13144643D02*
X10082357Y-13158929D01*
X10068071Y-13173214D01*
X10053786Y-13158929D01*
X10068071Y-13144643D01*
X10068071Y-13173214D01*
X10068071Y-12987500D02*
X10082357Y-13001786D01*
X10068071Y-13016071D01*
X10053786Y-13001786D01*
X10068071Y-12987500D01*
X10068071Y-13016071D01*
X7699500Y-13647500D02*
X7739500Y-13687500D01*
X7739500Y-13647500D02*
X7699500Y-13687500D01*
X8068071Y-13503214D02*
X8096643Y-13503214D01*
X8125214Y-13517500D01*
X8139500Y-13531786D01*
X8153786Y-13560357D01*
X8168071Y-13617500D01*
X8168071Y-13688929D01*
X8153786Y-13746071D01*
X8139500Y-13774643D01*
X8125214Y-13788929D01*
X8096643Y-13803214D01*
X8068071Y-13803214D01*
X8039500Y-13788929D01*
X8025214Y-13774643D01*
X8010928Y-13746071D01*
X7996643Y-13688929D01*
X7996643Y-13617500D01*
X8010928Y-13560357D01*
X8025214Y-13531786D01*
X8039500Y-13517500D01*
X8068071Y-13503214D01*
X8296643Y-13774643D02*
X8310928Y-13788929D01*
X8296643Y-13803214D01*
X8282357Y-13788929D01*
X8296643Y-13774643D01*
X8296643Y-13803214D01*
X8568071Y-13603214D02*
X8568071Y-13803214D01*
X8496643Y-13488929D02*
X8425214Y-13703214D01*
X8610928Y-13703214D01*
X8782357Y-13503214D02*
X8810929Y-13503214D01*
X8839500Y-13517500D01*
X8853786Y-13531786D01*
X8868071Y-13560357D01*
X8882357Y-13617500D01*
X8882357Y-13688929D01*
X8868071Y-13746071D01*
X8853786Y-13774643D01*
X8839500Y-13788929D01*
X8810929Y-13803214D01*
X8782357Y-13803214D01*
X8753786Y-13788929D01*
X8739500Y-13774643D01*
X8725214Y-13746071D01*
X8710929Y-13688929D01*
X8710929Y-13617500D01*
X8725214Y-13560357D01*
X8739500Y-13531786D01*
X8753786Y-13517500D01*
X8782357Y-13503214D01*
X9010929Y-13803214D02*
X9010929Y-13603214D01*
X9010929Y-13631786D02*
X9025214Y-13617500D01*
X9053786Y-13603214D01*
X9096643Y-13603214D01*
X9125214Y-13617500D01*
X9139500Y-13646071D01*
X9139500Y-13803214D01*
X9139500Y-13646071D02*
X9153786Y-13617500D01*
X9182357Y-13603214D01*
X9225214Y-13603214D01*
X9253786Y-13617500D01*
X9268071Y-13646071D01*
X9268071Y-13803214D01*
X9410929Y-13803214D02*
X9410929Y-13603214D01*
X9410929Y-13631786D02*
X9425214Y-13617500D01*
X9453786Y-13603214D01*
X9496643Y-13603214D01*
X9525214Y-13617500D01*
X9539500Y-13646071D01*
X9539500Y-13803214D01*
X9539500Y-13646071D02*
X9553786Y-13617500D01*
X9582357Y-13603214D01*
X9625214Y-13603214D01*
X9653786Y-13617500D01*
X9668071Y-13646071D01*
X9668071Y-13803214D01*
X10253786Y-13488929D02*
X9996643Y-13874643D01*
X10639500Y-13503214D02*
X10668071Y-13503214D01*
X10696643Y-13517500D01*
X10710928Y-13531786D01*
X10725214Y-13560357D01*
X10739500Y-13617500D01*
X10739500Y-13688929D01*
X10725214Y-13746071D01*
X10710928Y-13774643D01*
X10696643Y-13788929D01*
X10668071Y-13803214D01*
X10639500Y-13803214D01*
X10610928Y-13788929D01*
X10596643Y-13774643D01*
X10582357Y-13746071D01*
X10568071Y-13688929D01*
X10568071Y-13617500D01*
X10582357Y-13560357D01*
X10596643Y-13531786D01*
X10610928Y-13517500D01*
X10639500Y-13503214D01*
X10868071Y-13774643D02*
X10882357Y-13788929D01*
X10868071Y-13803214D01*
X10853786Y-13788929D01*
X10868071Y-13774643D01*
X10868071Y-13803214D01*
X11068071Y-13503214D02*
X11096643Y-13503214D01*
X11125214Y-13517500D01*
X11139500Y-13531786D01*
X11153786Y-13560357D01*
X11168071Y-13617500D01*
X11168071Y-13688929D01*
X11153786Y-13746071D01*
X11139500Y-13774643D01*
X11125214Y-13788929D01*
X11096643Y-13803214D01*
X11068071Y-13803214D01*
X11039500Y-13788929D01*
X11025214Y-13774643D01*
X11010928Y-13746071D01*
X10996643Y-13688929D01*
X10996643Y-13617500D01*
X11010928Y-13560357D01*
X11025214Y-13531786D01*
X11039500Y-13517500D01*
X11068071Y-13503214D01*
X11453785Y-13803214D02*
X11282357Y-13803214D01*
X11368071Y-13803214D02*
X11368071Y-13503214D01*
X11339500Y-13546071D01*
X11310928Y-13574643D01*
X11282357Y-13588929D01*
X11710928Y-13503214D02*
X11653785Y-13503214D01*
X11625214Y-13517500D01*
X11610928Y-13531786D01*
X11582357Y-13574643D01*
X11568071Y-13631786D01*
X11568071Y-13746071D01*
X11582357Y-13774643D01*
X11596643Y-13788929D01*
X11625214Y-13803214D01*
X11682357Y-13803214D01*
X11710928Y-13788929D01*
X11725214Y-13774643D01*
X11739500Y-13746071D01*
X11739500Y-13674643D01*
X11725214Y-13646071D01*
X11710928Y-13631786D01*
X11682357Y-13617500D01*
X11625214Y-13617500D01*
X11596643Y-13631786D01*
X11582357Y-13646071D01*
X11568071Y-13674643D01*
X11853786Y-13503214D02*
X11853786Y-13560357D01*
X11968071Y-13503214D02*
X11968071Y-13560357D01*
X12410928Y-13917500D02*
X12396643Y-13903214D01*
X12368071Y-13860357D01*
X12353785Y-13831786D01*
X12339500Y-13788929D01*
X12325214Y-13717500D01*
X12325214Y-13660357D01*
X12339500Y-13588929D01*
X12353785Y-13546071D01*
X12368071Y-13517500D01*
X12396643Y-13474643D01*
X12410928Y-13460357D01*
X12568071Y-13631786D02*
X12539500Y-13617500D01*
X12525214Y-13603214D01*
X12510928Y-13574643D01*
X12510928Y-13560357D01*
X12525214Y-13531786D01*
X12539500Y-13517500D01*
X12568071Y-13503214D01*
X12625214Y-13503214D01*
X12653785Y-13517500D01*
X12668071Y-13531786D01*
X12682357Y-13560357D01*
X12682357Y-13574643D01*
X12668071Y-13603214D01*
X12653785Y-13617500D01*
X12625214Y-13631786D01*
X12568071Y-13631786D01*
X12539500Y-13646071D01*
X12525214Y-13660357D01*
X12510928Y-13688929D01*
X12510928Y-13746071D01*
X12525214Y-13774643D01*
X12539500Y-13788929D01*
X12568071Y-13803214D01*
X12625214Y-13803214D01*
X12653785Y-13788929D01*
X12668071Y-13774643D01*
X12682357Y-13746071D01*
X12682357Y-13688929D01*
X12668071Y-13660357D01*
X12653785Y-13646071D01*
X12625214Y-13631786D01*
X13039500Y-13803214D02*
X13039500Y-13503214D01*
X13168071Y-13803214D02*
X13168071Y-13646071D01*
X13153785Y-13617500D01*
X13125214Y-13603214D01*
X13082357Y-13603214D01*
X13053785Y-13617500D01*
X13039500Y-13631786D01*
X13353785Y-13803214D02*
X13325214Y-13788929D01*
X13310928Y-13774643D01*
X13296643Y-13746071D01*
X13296643Y-13660357D01*
X13310928Y-13631786D01*
X13325214Y-13617500D01*
X13353785Y-13603214D01*
X13396643Y-13603214D01*
X13425214Y-13617500D01*
X13439500Y-13631786D01*
X13453785Y-13660357D01*
X13453785Y-13746071D01*
X13439500Y-13774643D01*
X13425214Y-13788929D01*
X13396643Y-13803214D01*
X13353785Y-13803214D01*
X13625214Y-13803214D02*
X13596643Y-13788929D01*
X13582357Y-13760357D01*
X13582357Y-13503214D01*
X13853786Y-13788929D02*
X13825214Y-13803214D01*
X13768071Y-13803214D01*
X13739500Y-13788929D01*
X13725214Y-13760357D01*
X13725214Y-13646071D01*
X13739500Y-13617500D01*
X13768071Y-13603214D01*
X13825214Y-13603214D01*
X13853786Y-13617500D01*
X13868071Y-13646071D01*
X13868071Y-13674643D01*
X13725214Y-13703214D01*
X13982357Y-13788929D02*
X14010928Y-13803214D01*
X14068071Y-13803214D01*
X14096643Y-13788929D01*
X14110928Y-13760357D01*
X14110928Y-13746071D01*
X14096643Y-13717500D01*
X14068071Y-13703214D01*
X14025214Y-13703214D01*
X13996643Y-13688929D01*
X13982357Y-13660357D01*
X13982357Y-13646071D01*
X13996643Y-13617500D01*
X14025214Y-13603214D01*
X14068071Y-13603214D01*
X14096643Y-13617500D01*
X14210928Y-13917500D02*
X14225214Y-13903214D01*
X14253786Y-13860357D01*
X14268071Y-13831786D01*
X14282357Y-13788929D01*
X14296643Y-13717500D01*
X14296643Y-13660357D01*
X14282357Y-13588929D01*
X14268071Y-13546071D01*
X14253786Y-13517500D01*
X14225214Y-13474643D01*
X14210928Y-13460357D01*
X7739500Y-14063500D02*
G75*
G03X7739500Y-14063500I-35000J0D01*
G01*
X8068071Y-13899214D02*
X8096643Y-13899214D01*
X8125214Y-13913500D01*
X8139500Y-13927786D01*
X8153786Y-13956357D01*
X8168071Y-14013500D01*
X8168071Y-14084929D01*
X8153786Y-14142071D01*
X8139500Y-14170643D01*
X8125214Y-14184929D01*
X8096643Y-14199214D01*
X8068071Y-14199214D01*
X8039500Y-14184929D01*
X8025214Y-14170643D01*
X8010928Y-14142071D01*
X7996643Y-14084929D01*
X7996643Y-14013500D01*
X8010928Y-13956357D01*
X8025214Y-13927786D01*
X8039500Y-13913500D01*
X8068071Y-13899214D01*
X8296643Y-14170643D02*
X8310928Y-14184929D01*
X8296643Y-14199214D01*
X8282357Y-14184929D01*
X8296643Y-14170643D01*
X8296643Y-14199214D01*
X8410928Y-13899214D02*
X8610928Y-13899214D01*
X8482357Y-14199214D01*
X8782357Y-13899214D02*
X8810929Y-13899214D01*
X8839500Y-13913500D01*
X8853786Y-13927786D01*
X8868071Y-13956357D01*
X8882357Y-14013500D01*
X8882357Y-14084929D01*
X8868071Y-14142071D01*
X8853786Y-14170643D01*
X8839500Y-14184929D01*
X8810929Y-14199214D01*
X8782357Y-14199214D01*
X8753786Y-14184929D01*
X8739500Y-14170643D01*
X8725214Y-14142071D01*
X8710929Y-14084929D01*
X8710929Y-14013500D01*
X8725214Y-13956357D01*
X8739500Y-13927786D01*
X8753786Y-13913500D01*
X8782357Y-13899214D01*
X9010929Y-14199214D02*
X9010929Y-13999214D01*
X9010929Y-14027786D02*
X9025214Y-14013500D01*
X9053786Y-13999214D01*
X9096643Y-13999214D01*
X9125214Y-14013500D01*
X9139500Y-14042071D01*
X9139500Y-14199214D01*
X9139500Y-14042071D02*
X9153786Y-14013500D01*
X9182357Y-13999214D01*
X9225214Y-13999214D01*
X9253786Y-14013500D01*
X9268071Y-14042071D01*
X9268071Y-14199214D01*
X9410929Y-14199214D02*
X9410929Y-13999214D01*
X9410929Y-14027786D02*
X9425214Y-14013500D01*
X9453786Y-13999214D01*
X9496643Y-13999214D01*
X9525214Y-14013500D01*
X9539500Y-14042071D01*
X9539500Y-14199214D01*
X9539500Y-14042071D02*
X9553786Y-14013500D01*
X9582357Y-13999214D01*
X9625214Y-13999214D01*
X9653786Y-14013500D01*
X9668071Y-14042071D01*
X9668071Y-14199214D01*
X10253786Y-13884929D02*
X9996643Y-14270643D01*
X10639500Y-13899214D02*
X10668071Y-13899214D01*
X10696643Y-13913500D01*
X10710928Y-13927786D01*
X10725214Y-13956357D01*
X10739500Y-14013500D01*
X10739500Y-14084929D01*
X10725214Y-14142071D01*
X10710928Y-14170643D01*
X10696643Y-14184929D01*
X10668071Y-14199214D01*
X10639500Y-14199214D01*
X10610928Y-14184929D01*
X10596643Y-14170643D01*
X10582357Y-14142071D01*
X10568071Y-14084929D01*
X10568071Y-14013500D01*
X10582357Y-13956357D01*
X10596643Y-13927786D01*
X10610928Y-13913500D01*
X10639500Y-13899214D01*
X10868071Y-14170643D02*
X10882357Y-14184929D01*
X10868071Y-14199214D01*
X10853786Y-14184929D01*
X10868071Y-14170643D01*
X10868071Y-14199214D01*
X11068071Y-13899214D02*
X11096643Y-13899214D01*
X11125214Y-13913500D01*
X11139500Y-13927786D01*
X11153786Y-13956357D01*
X11168071Y-14013500D01*
X11168071Y-14084929D01*
X11153786Y-14142071D01*
X11139500Y-14170643D01*
X11125214Y-14184929D01*
X11096643Y-14199214D01*
X11068071Y-14199214D01*
X11039500Y-14184929D01*
X11025214Y-14170643D01*
X11010928Y-14142071D01*
X10996643Y-14084929D01*
X10996643Y-14013500D01*
X11010928Y-13956357D01*
X11025214Y-13927786D01*
X11039500Y-13913500D01*
X11068071Y-13899214D01*
X11282357Y-13927786D02*
X11296643Y-13913500D01*
X11325214Y-13899214D01*
X11396643Y-13899214D01*
X11425214Y-13913500D01*
X11439500Y-13927786D01*
X11453785Y-13956357D01*
X11453785Y-13984929D01*
X11439500Y-14027786D01*
X11268071Y-14199214D01*
X11453785Y-14199214D01*
X11625214Y-14027786D02*
X11596643Y-14013500D01*
X11582357Y-13999214D01*
X11568071Y-13970643D01*
X11568071Y-13956357D01*
X11582357Y-13927786D01*
X11596643Y-13913500D01*
X11625214Y-13899214D01*
X11682357Y-13899214D01*
X11710928Y-13913500D01*
X11725214Y-13927786D01*
X11739500Y-13956357D01*
X11739500Y-13970643D01*
X11725214Y-13999214D01*
X11710928Y-14013500D01*
X11682357Y-14027786D01*
X11625214Y-14027786D01*
X11596643Y-14042071D01*
X11582357Y-14056357D01*
X11568071Y-14084929D01*
X11568071Y-14142071D01*
X11582357Y-14170643D01*
X11596643Y-14184929D01*
X11625214Y-14199214D01*
X11682357Y-14199214D01*
X11710928Y-14184929D01*
X11725214Y-14170643D01*
X11739500Y-14142071D01*
X11739500Y-14084929D01*
X11725214Y-14056357D01*
X11710928Y-14042071D01*
X11682357Y-14027786D01*
X11853786Y-13899214D02*
X11853786Y-13956357D01*
X11968071Y-13899214D02*
X11968071Y-13956357D01*
X12410928Y-14313500D02*
X12396643Y-14299214D01*
X12368071Y-14256357D01*
X12353785Y-14227786D01*
X12339500Y-14184929D01*
X12325214Y-14113500D01*
X12325214Y-14056357D01*
X12339500Y-13984929D01*
X12353785Y-13942071D01*
X12368071Y-13913500D01*
X12396643Y-13870643D01*
X12410928Y-13856357D01*
X12668071Y-13899214D02*
X12525214Y-13899214D01*
X12510928Y-14042071D01*
X12525214Y-14027786D01*
X12553785Y-14013500D01*
X12625214Y-14013500D01*
X12653785Y-14027786D01*
X12668071Y-14042071D01*
X12682357Y-14070643D01*
X12682357Y-14142071D01*
X12668071Y-14170643D01*
X12653785Y-14184929D01*
X12625214Y-14199214D01*
X12553785Y-14199214D01*
X12525214Y-14184929D01*
X12510928Y-14170643D01*
X12796643Y-13927786D02*
X12810928Y-13913500D01*
X12839500Y-13899214D01*
X12910928Y-13899214D01*
X12939500Y-13913500D01*
X12953785Y-13927786D01*
X12968071Y-13956357D01*
X12968071Y-13984929D01*
X12953785Y-14027786D01*
X12782357Y-14199214D01*
X12968071Y-14199214D01*
X13325214Y-14199214D02*
X13325214Y-13899214D01*
X13453785Y-14199214D02*
X13453785Y-14042071D01*
X13439500Y-14013500D01*
X13410928Y-13999214D01*
X13368071Y-13999214D01*
X13339500Y-14013500D01*
X13325214Y-14027786D01*
X13639500Y-14199214D02*
X13610928Y-14184929D01*
X13596643Y-14170643D01*
X13582357Y-14142071D01*
X13582357Y-14056357D01*
X13596643Y-14027786D01*
X13610928Y-14013500D01*
X13639500Y-13999214D01*
X13682357Y-13999214D01*
X13710928Y-14013500D01*
X13725214Y-14027786D01*
X13739500Y-14056357D01*
X13739500Y-14142071D01*
X13725214Y-14170643D01*
X13710928Y-14184929D01*
X13682357Y-14199214D01*
X13639500Y-14199214D01*
X13910928Y-14199214D02*
X13882357Y-14184929D01*
X13868071Y-14156357D01*
X13868071Y-13899214D01*
X14139500Y-14184929D02*
X14110928Y-14199214D01*
X14053786Y-14199214D01*
X14025214Y-14184929D01*
X14010928Y-14156357D01*
X14010928Y-14042071D01*
X14025214Y-14013500D01*
X14053786Y-13999214D01*
X14110928Y-13999214D01*
X14139500Y-14013500D01*
X14153786Y-14042071D01*
X14153786Y-14070643D01*
X14010928Y-14099214D01*
X14268071Y-14184929D02*
X14296643Y-14199214D01*
X14353786Y-14199214D01*
X14382357Y-14184929D01*
X14396643Y-14156357D01*
X14396643Y-14142071D01*
X14382357Y-14113500D01*
X14353786Y-14099214D01*
X14310928Y-14099214D01*
X14282357Y-14084929D01*
X14268071Y-14056357D01*
X14268071Y-14042071D01*
X14282357Y-14013500D01*
X14310928Y-13999214D01*
X14353786Y-13999214D01*
X14382357Y-14013500D01*
X14496643Y-14313500D02*
X14510928Y-14299214D01*
X14539500Y-14256357D01*
X14553786Y-14227786D01*
X14568071Y-14184929D01*
X14582357Y-14113500D01*
X14582357Y-14056357D01*
X14568071Y-13984929D01*
X14553786Y-13942071D01*
X14539500Y-13913500D01*
X14510928Y-13870643D01*
X14496643Y-13856357D01*
X7702000Y-14422000D02*
X7702000Y-14497000D01*
X7664500Y-14459500D02*
X7739500Y-14459500D01*
X8068071Y-14295214D02*
X8096643Y-14295214D01*
X8125214Y-14309500D01*
X8139500Y-14323786D01*
X8153786Y-14352357D01*
X8168071Y-14409500D01*
X8168071Y-14480929D01*
X8153786Y-14538071D01*
X8139500Y-14566643D01*
X8125214Y-14580929D01*
X8096643Y-14595214D01*
X8068071Y-14595214D01*
X8039500Y-14580929D01*
X8025214Y-14566643D01*
X8010928Y-14538071D01*
X7996643Y-14480929D01*
X7996643Y-14409500D01*
X8010928Y-14352357D01*
X8025214Y-14323786D01*
X8039500Y-14309500D01*
X8068071Y-14295214D01*
X8296643Y-14566643D02*
X8310928Y-14580929D01*
X8296643Y-14595214D01*
X8282357Y-14580929D01*
X8296643Y-14566643D01*
X8296643Y-14595214D01*
X8410928Y-14295214D02*
X8610928Y-14295214D01*
X8482357Y-14595214D01*
X8868071Y-14295214D02*
X8725214Y-14295214D01*
X8710929Y-14438071D01*
X8725214Y-14423786D01*
X8753786Y-14409500D01*
X8825214Y-14409500D01*
X8853786Y-14423786D01*
X8868071Y-14438071D01*
X8882357Y-14466643D01*
X8882357Y-14538071D01*
X8868071Y-14566643D01*
X8853786Y-14580929D01*
X8825214Y-14595214D01*
X8753786Y-14595214D01*
X8725214Y-14580929D01*
X8710929Y-14566643D01*
X9010929Y-14595214D02*
X9010929Y-14395214D01*
X9010929Y-14423786D02*
X9025214Y-14409500D01*
X9053786Y-14395214D01*
X9096643Y-14395214D01*
X9125214Y-14409500D01*
X9139500Y-14438071D01*
X9139500Y-14595214D01*
X9139500Y-14438071D02*
X9153786Y-14409500D01*
X9182357Y-14395214D01*
X9225214Y-14395214D01*
X9253786Y-14409500D01*
X9268071Y-14438071D01*
X9268071Y-14595214D01*
X9410929Y-14595214D02*
X9410929Y-14395214D01*
X9410929Y-14423786D02*
X9425214Y-14409500D01*
X9453786Y-14395214D01*
X9496643Y-14395214D01*
X9525214Y-14409500D01*
X9539500Y-14438071D01*
X9539500Y-14595214D01*
X9539500Y-14438071D02*
X9553786Y-14409500D01*
X9582357Y-14395214D01*
X9625214Y-14395214D01*
X9653786Y-14409500D01*
X9668071Y-14438071D01*
X9668071Y-14595214D01*
X10253786Y-14280929D02*
X9996643Y-14666643D01*
X10639500Y-14295214D02*
X10668071Y-14295214D01*
X10696643Y-14309500D01*
X10710928Y-14323786D01*
X10725214Y-14352357D01*
X10739500Y-14409500D01*
X10739500Y-14480929D01*
X10725214Y-14538071D01*
X10710928Y-14566643D01*
X10696643Y-14580929D01*
X10668071Y-14595214D01*
X10639500Y-14595214D01*
X10610928Y-14580929D01*
X10596643Y-14566643D01*
X10582357Y-14538071D01*
X10568071Y-14480929D01*
X10568071Y-14409500D01*
X10582357Y-14352357D01*
X10596643Y-14323786D01*
X10610928Y-14309500D01*
X10639500Y-14295214D01*
X10868071Y-14566643D02*
X10882357Y-14580929D01*
X10868071Y-14595214D01*
X10853786Y-14580929D01*
X10868071Y-14566643D01*
X10868071Y-14595214D01*
X11068071Y-14295214D02*
X11096643Y-14295214D01*
X11125214Y-14309500D01*
X11139500Y-14323786D01*
X11153786Y-14352357D01*
X11168071Y-14409500D01*
X11168071Y-14480929D01*
X11153786Y-14538071D01*
X11139500Y-14566643D01*
X11125214Y-14580929D01*
X11096643Y-14595214D01*
X11068071Y-14595214D01*
X11039500Y-14580929D01*
X11025214Y-14566643D01*
X11010928Y-14538071D01*
X10996643Y-14480929D01*
X10996643Y-14409500D01*
X11010928Y-14352357D01*
X11025214Y-14323786D01*
X11039500Y-14309500D01*
X11068071Y-14295214D01*
X11268071Y-14295214D02*
X11453785Y-14295214D01*
X11353785Y-14409500D01*
X11396643Y-14409500D01*
X11425214Y-14423786D01*
X11439500Y-14438071D01*
X11453785Y-14466643D01*
X11453785Y-14538071D01*
X11439500Y-14566643D01*
X11425214Y-14580929D01*
X11396643Y-14595214D01*
X11310928Y-14595214D01*
X11282357Y-14580929D01*
X11268071Y-14566643D01*
X11639500Y-14295214D02*
X11668071Y-14295214D01*
X11696643Y-14309500D01*
X11710928Y-14323786D01*
X11725214Y-14352357D01*
X11739500Y-14409500D01*
X11739500Y-14480929D01*
X11725214Y-14538071D01*
X11710928Y-14566643D01*
X11696643Y-14580929D01*
X11668071Y-14595214D01*
X11639500Y-14595214D01*
X11610928Y-14580929D01*
X11596643Y-14566643D01*
X11582357Y-14538071D01*
X11568071Y-14480929D01*
X11568071Y-14409500D01*
X11582357Y-14352357D01*
X11596643Y-14323786D01*
X11610928Y-14309500D01*
X11639500Y-14295214D01*
X11853786Y-14295214D02*
X11853786Y-14352357D01*
X11968071Y-14295214D02*
X11968071Y-14352357D01*
X12410928Y-14709500D02*
X12396643Y-14695214D01*
X12368071Y-14652357D01*
X12353785Y-14623786D01*
X12339500Y-14580929D01*
X12325214Y-14509500D01*
X12325214Y-14452357D01*
X12339500Y-14380929D01*
X12353785Y-14338071D01*
X12368071Y-14309500D01*
X12396643Y-14266643D01*
X12410928Y-14252357D01*
X12653785Y-14295214D02*
X12596643Y-14295214D01*
X12568071Y-14309500D01*
X12553785Y-14323786D01*
X12525214Y-14366643D01*
X12510928Y-14423786D01*
X12510928Y-14538071D01*
X12525214Y-14566643D01*
X12539500Y-14580929D01*
X12568071Y-14595214D01*
X12625214Y-14595214D01*
X12653785Y-14580929D01*
X12668071Y-14566643D01*
X12682357Y-14538071D01*
X12682357Y-14466643D01*
X12668071Y-14438071D01*
X12653785Y-14423786D01*
X12625214Y-14409500D01*
X12568071Y-14409500D01*
X12539500Y-14423786D01*
X12525214Y-14438071D01*
X12510928Y-14466643D01*
X13039500Y-14595214D02*
X13039500Y-14295214D01*
X13168071Y-14595214D02*
X13168071Y-14438071D01*
X13153785Y-14409500D01*
X13125214Y-14395214D01*
X13082357Y-14395214D01*
X13053785Y-14409500D01*
X13039500Y-14423786D01*
X13353785Y-14595214D02*
X13325214Y-14580929D01*
X13310928Y-14566643D01*
X13296643Y-14538071D01*
X13296643Y-14452357D01*
X13310928Y-14423786D01*
X13325214Y-14409500D01*
X13353785Y-14395214D01*
X13396643Y-14395214D01*
X13425214Y-14409500D01*
X13439500Y-14423786D01*
X13453785Y-14452357D01*
X13453785Y-14538071D01*
X13439500Y-14566643D01*
X13425214Y-14580929D01*
X13396643Y-14595214D01*
X13353785Y-14595214D01*
X13625214Y-14595214D02*
X13596643Y-14580929D01*
X13582357Y-14552357D01*
X13582357Y-14295214D01*
X13853786Y-14580929D02*
X13825214Y-14595214D01*
X13768071Y-14595214D01*
X13739500Y-14580929D01*
X13725214Y-14552357D01*
X13725214Y-14438071D01*
X13739500Y-14409500D01*
X13768071Y-14395214D01*
X13825214Y-14395214D01*
X13853786Y-14409500D01*
X13868071Y-14438071D01*
X13868071Y-14466643D01*
X13725214Y-14495214D01*
X13982357Y-14580929D02*
X14010928Y-14595214D01*
X14068071Y-14595214D01*
X14096643Y-14580929D01*
X14110928Y-14552357D01*
X14110928Y-14538071D01*
X14096643Y-14509500D01*
X14068071Y-14495214D01*
X14025214Y-14495214D01*
X13996643Y-14480929D01*
X13982357Y-14452357D01*
X13982357Y-14438071D01*
X13996643Y-14409500D01*
X14025214Y-14395214D01*
X14068071Y-14395214D01*
X14096643Y-14409500D01*
X14210928Y-14709500D02*
X14225214Y-14695214D01*
X14253786Y-14652357D01*
X14268071Y-14623786D01*
X14282357Y-14580929D01*
X14296643Y-14509500D01*
X14296643Y-14452357D01*
X14282357Y-14380929D01*
X14268071Y-14338071D01*
X14253786Y-14309500D01*
X14225214Y-14266643D01*
X14210928Y-14252357D01*
X7728341Y-14882441D02*
X7728341Y-14828559D01*
X7674459Y-14828559D01*
X7674459Y-14882441D01*
X7728341Y-14882441D01*
X8068071Y-14691214D02*
X8096643Y-14691214D01*
X8125214Y-14705500D01*
X8139500Y-14719786D01*
X8153786Y-14748357D01*
X8168071Y-14805500D01*
X8168071Y-14876929D01*
X8153786Y-14934071D01*
X8139500Y-14962643D01*
X8125214Y-14976929D01*
X8096643Y-14991214D01*
X8068071Y-14991214D01*
X8039500Y-14976929D01*
X8025214Y-14962643D01*
X8010928Y-14934071D01*
X7996643Y-14876929D01*
X7996643Y-14805500D01*
X8010928Y-14748357D01*
X8025214Y-14719786D01*
X8039500Y-14705500D01*
X8068071Y-14691214D01*
X8296643Y-14962643D02*
X8310928Y-14976929D01*
X8296643Y-14991214D01*
X8282357Y-14976929D01*
X8296643Y-14962643D01*
X8296643Y-14991214D01*
X8410928Y-14691214D02*
X8610928Y-14691214D01*
X8482357Y-14991214D01*
X8853786Y-14691214D02*
X8796643Y-14691214D01*
X8768071Y-14705500D01*
X8753786Y-14719786D01*
X8725214Y-14762643D01*
X8710929Y-14819786D01*
X8710929Y-14934071D01*
X8725214Y-14962643D01*
X8739500Y-14976929D01*
X8768071Y-14991214D01*
X8825214Y-14991214D01*
X8853786Y-14976929D01*
X8868071Y-14962643D01*
X8882357Y-14934071D01*
X8882357Y-14862643D01*
X8868071Y-14834071D01*
X8853786Y-14819786D01*
X8825214Y-14805500D01*
X8768071Y-14805500D01*
X8739500Y-14819786D01*
X8725214Y-14834071D01*
X8710929Y-14862643D01*
X9010929Y-14991214D02*
X9010929Y-14791214D01*
X9010929Y-14819786D02*
X9025214Y-14805500D01*
X9053786Y-14791214D01*
X9096643Y-14791214D01*
X9125214Y-14805500D01*
X9139500Y-14834071D01*
X9139500Y-14991214D01*
X9139500Y-14834071D02*
X9153786Y-14805500D01*
X9182357Y-14791214D01*
X9225214Y-14791214D01*
X9253786Y-14805500D01*
X9268071Y-14834071D01*
X9268071Y-14991214D01*
X9410929Y-14991214D02*
X9410929Y-14791214D01*
X9410929Y-14819786D02*
X9425214Y-14805500D01*
X9453786Y-14791214D01*
X9496643Y-14791214D01*
X9525214Y-14805500D01*
X9539500Y-14834071D01*
X9539500Y-14991214D01*
X9539500Y-14834071D02*
X9553786Y-14805500D01*
X9582357Y-14791214D01*
X9625214Y-14791214D01*
X9653786Y-14805500D01*
X9668071Y-14834071D01*
X9668071Y-14991214D01*
X10253786Y-14676929D02*
X9996643Y-15062643D01*
X10639500Y-14691214D02*
X10668071Y-14691214D01*
X10696643Y-14705500D01*
X10710928Y-14719786D01*
X10725214Y-14748357D01*
X10739500Y-14805500D01*
X10739500Y-14876929D01*
X10725214Y-14934071D01*
X10710928Y-14962643D01*
X10696643Y-14976929D01*
X10668071Y-14991214D01*
X10639500Y-14991214D01*
X10610928Y-14976929D01*
X10596643Y-14962643D01*
X10582357Y-14934071D01*
X10568071Y-14876929D01*
X10568071Y-14805500D01*
X10582357Y-14748357D01*
X10596643Y-14719786D01*
X10610928Y-14705500D01*
X10639500Y-14691214D01*
X10868071Y-14962643D02*
X10882357Y-14976929D01*
X10868071Y-14991214D01*
X10853786Y-14976929D01*
X10868071Y-14962643D01*
X10868071Y-14991214D01*
X11068071Y-14691214D02*
X11096643Y-14691214D01*
X11125214Y-14705500D01*
X11139500Y-14719786D01*
X11153786Y-14748357D01*
X11168071Y-14805500D01*
X11168071Y-14876929D01*
X11153786Y-14934071D01*
X11139500Y-14962643D01*
X11125214Y-14976929D01*
X11096643Y-14991214D01*
X11068071Y-14991214D01*
X11039500Y-14976929D01*
X11025214Y-14962643D01*
X11010928Y-14934071D01*
X10996643Y-14876929D01*
X10996643Y-14805500D01*
X11010928Y-14748357D01*
X11025214Y-14719786D01*
X11039500Y-14705500D01*
X11068071Y-14691214D01*
X11268071Y-14691214D02*
X11453785Y-14691214D01*
X11353785Y-14805500D01*
X11396643Y-14805500D01*
X11425214Y-14819786D01*
X11439500Y-14834071D01*
X11453785Y-14862643D01*
X11453785Y-14934071D01*
X11439500Y-14962643D01*
X11425214Y-14976929D01*
X11396643Y-14991214D01*
X11310928Y-14991214D01*
X11282357Y-14976929D01*
X11268071Y-14962643D01*
X11639500Y-14691214D02*
X11668071Y-14691214D01*
X11696643Y-14705500D01*
X11710928Y-14719786D01*
X11725214Y-14748357D01*
X11739500Y-14805500D01*
X11739500Y-14876929D01*
X11725214Y-14934071D01*
X11710928Y-14962643D01*
X11696643Y-14976929D01*
X11668071Y-14991214D01*
X11639500Y-14991214D01*
X11610928Y-14976929D01*
X11596643Y-14962643D01*
X11582357Y-14934071D01*
X11568071Y-14876929D01*
X11568071Y-14805500D01*
X11582357Y-14748357D01*
X11596643Y-14719786D01*
X11610928Y-14705500D01*
X11639500Y-14691214D01*
X11853786Y-14691214D02*
X11853786Y-14748357D01*
X11968071Y-14691214D02*
X11968071Y-14748357D01*
X12410928Y-15105500D02*
X12396643Y-15091214D01*
X12368071Y-15048357D01*
X12353785Y-15019786D01*
X12339500Y-14976929D01*
X12325214Y-14905500D01*
X12325214Y-14848357D01*
X12339500Y-14776929D01*
X12353785Y-14734071D01*
X12368071Y-14705500D01*
X12396643Y-14662643D01*
X12410928Y-14648357D01*
X12510928Y-14719786D02*
X12525214Y-14705500D01*
X12553785Y-14691214D01*
X12625214Y-14691214D01*
X12653785Y-14705500D01*
X12668071Y-14719786D01*
X12682357Y-14748357D01*
X12682357Y-14776929D01*
X12668071Y-14819786D01*
X12496643Y-14991214D01*
X12682357Y-14991214D01*
X12782357Y-14691214D02*
X12968071Y-14691214D01*
X12868071Y-14805500D01*
X12910928Y-14805500D01*
X12939500Y-14819786D01*
X12953785Y-14834071D01*
X12968071Y-14862643D01*
X12968071Y-14934071D01*
X12953785Y-14962643D01*
X12939500Y-14976929D01*
X12910928Y-14991214D01*
X12825214Y-14991214D01*
X12796643Y-14976929D01*
X12782357Y-14962643D01*
X13325214Y-14991214D02*
X13325214Y-14691214D01*
X13453785Y-14991214D02*
X13453785Y-14834071D01*
X13439500Y-14805500D01*
X13410928Y-14791214D01*
X13368071Y-14791214D01*
X13339500Y-14805500D01*
X13325214Y-14819786D01*
X13639500Y-14991214D02*
X13610928Y-14976929D01*
X13596643Y-14962643D01*
X13582357Y-14934071D01*
X13582357Y-14848357D01*
X13596643Y-14819786D01*
X13610928Y-14805500D01*
X13639500Y-14791214D01*
X13682357Y-14791214D01*
X13710928Y-14805500D01*
X13725214Y-14819786D01*
X13739500Y-14848357D01*
X13739500Y-14934071D01*
X13725214Y-14962643D01*
X13710928Y-14976929D01*
X13682357Y-14991214D01*
X13639500Y-14991214D01*
X13910928Y-14991214D02*
X13882357Y-14976929D01*
X13868071Y-14948357D01*
X13868071Y-14691214D01*
X14139500Y-14976929D02*
X14110928Y-14991214D01*
X14053786Y-14991214D01*
X14025214Y-14976929D01*
X14010928Y-14948357D01*
X14010928Y-14834071D01*
X14025214Y-14805500D01*
X14053786Y-14791214D01*
X14110928Y-14791214D01*
X14139500Y-14805500D01*
X14153786Y-14834071D01*
X14153786Y-14862643D01*
X14010928Y-14891214D01*
X14268071Y-14976929D02*
X14296643Y-14991214D01*
X14353786Y-14991214D01*
X14382357Y-14976929D01*
X14396643Y-14948357D01*
X14396643Y-14934071D01*
X14382357Y-14905500D01*
X14353786Y-14891214D01*
X14310928Y-14891214D01*
X14282357Y-14876929D01*
X14268071Y-14848357D01*
X14268071Y-14834071D01*
X14282357Y-14805500D01*
X14310928Y-14791214D01*
X14353786Y-14791214D01*
X14382357Y-14805500D01*
X14496643Y-15105500D02*
X14510928Y-15091214D01*
X14539500Y-15048357D01*
X14553786Y-15019786D01*
X14568071Y-14976929D01*
X14582357Y-14905500D01*
X14582357Y-14848357D01*
X14568071Y-14776929D01*
X14553786Y-14734071D01*
X14539500Y-14705500D01*
X14510928Y-14662643D01*
X14496643Y-14648357D01*
X7699500Y-15291500D02*
X7739500Y-15251500D01*
X7699500Y-15211500D01*
X7659500Y-15251500D01*
X7699500Y-15291500D01*
X8068071Y-15087214D02*
X8096643Y-15087214D01*
X8125214Y-15101500D01*
X8139500Y-15115786D01*
X8153786Y-15144357D01*
X8168071Y-15201500D01*
X8168071Y-15272929D01*
X8153786Y-15330071D01*
X8139500Y-15358643D01*
X8125214Y-15372929D01*
X8096643Y-15387214D01*
X8068071Y-15387214D01*
X8039500Y-15372929D01*
X8025214Y-15358643D01*
X8010928Y-15330071D01*
X7996643Y-15272929D01*
X7996643Y-15201500D01*
X8010928Y-15144357D01*
X8025214Y-15115786D01*
X8039500Y-15101500D01*
X8068071Y-15087214D01*
X8296643Y-15358643D02*
X8310928Y-15372929D01*
X8296643Y-15387214D01*
X8282357Y-15372929D01*
X8296643Y-15358643D01*
X8296643Y-15387214D01*
X8482357Y-15215786D02*
X8453786Y-15201500D01*
X8439500Y-15187214D01*
X8425214Y-15158643D01*
X8425214Y-15144357D01*
X8439500Y-15115786D01*
X8453786Y-15101500D01*
X8482357Y-15087214D01*
X8539500Y-15087214D01*
X8568071Y-15101500D01*
X8582357Y-15115786D01*
X8596643Y-15144357D01*
X8596643Y-15158643D01*
X8582357Y-15187214D01*
X8568071Y-15201500D01*
X8539500Y-15215786D01*
X8482357Y-15215786D01*
X8453786Y-15230071D01*
X8439500Y-15244357D01*
X8425214Y-15272929D01*
X8425214Y-15330071D01*
X8439500Y-15358643D01*
X8453786Y-15372929D01*
X8482357Y-15387214D01*
X8539500Y-15387214D01*
X8568071Y-15372929D01*
X8582357Y-15358643D01*
X8596643Y-15330071D01*
X8596643Y-15272929D01*
X8582357Y-15244357D01*
X8568071Y-15230071D01*
X8539500Y-15215786D01*
X8782357Y-15087214D02*
X8810929Y-15087214D01*
X8839500Y-15101500D01*
X8853786Y-15115786D01*
X8868071Y-15144357D01*
X8882357Y-15201500D01*
X8882357Y-15272929D01*
X8868071Y-15330071D01*
X8853786Y-15358643D01*
X8839500Y-15372929D01*
X8810929Y-15387214D01*
X8782357Y-15387214D01*
X8753786Y-15372929D01*
X8739500Y-15358643D01*
X8725214Y-15330071D01*
X8710929Y-15272929D01*
X8710929Y-15201500D01*
X8725214Y-15144357D01*
X8739500Y-15115786D01*
X8753786Y-15101500D01*
X8782357Y-15087214D01*
X9010929Y-15387214D02*
X9010929Y-15187214D01*
X9010929Y-15215786D02*
X9025214Y-15201500D01*
X9053786Y-15187214D01*
X9096643Y-15187214D01*
X9125214Y-15201500D01*
X9139500Y-15230071D01*
X9139500Y-15387214D01*
X9139500Y-15230071D02*
X9153786Y-15201500D01*
X9182357Y-15187214D01*
X9225214Y-15187214D01*
X9253786Y-15201500D01*
X9268071Y-15230071D01*
X9268071Y-15387214D01*
X9410929Y-15387214D02*
X9410929Y-15187214D01*
X9410929Y-15215786D02*
X9425214Y-15201500D01*
X9453786Y-15187214D01*
X9496643Y-15187214D01*
X9525214Y-15201500D01*
X9539500Y-15230071D01*
X9539500Y-15387214D01*
X9539500Y-15230071D02*
X9553786Y-15201500D01*
X9582357Y-15187214D01*
X9625214Y-15187214D01*
X9653786Y-15201500D01*
X9668071Y-15230071D01*
X9668071Y-15387214D01*
X10253786Y-15072929D02*
X9996643Y-15458643D01*
X10639500Y-15087214D02*
X10668071Y-15087214D01*
X10696643Y-15101500D01*
X10710928Y-15115786D01*
X10725214Y-15144357D01*
X10739500Y-15201500D01*
X10739500Y-15272929D01*
X10725214Y-15330071D01*
X10710928Y-15358643D01*
X10696643Y-15372929D01*
X10668071Y-15387214D01*
X10639500Y-15387214D01*
X10610928Y-15372929D01*
X10596643Y-15358643D01*
X10582357Y-15330071D01*
X10568071Y-15272929D01*
X10568071Y-15201500D01*
X10582357Y-15144357D01*
X10596643Y-15115786D01*
X10610928Y-15101500D01*
X10639500Y-15087214D01*
X10868071Y-15358643D02*
X10882357Y-15372929D01*
X10868071Y-15387214D01*
X10853786Y-15372929D01*
X10868071Y-15358643D01*
X10868071Y-15387214D01*
X11068071Y-15087214D02*
X11096643Y-15087214D01*
X11125214Y-15101500D01*
X11139500Y-15115786D01*
X11153786Y-15144357D01*
X11168071Y-15201500D01*
X11168071Y-15272929D01*
X11153786Y-15330071D01*
X11139500Y-15358643D01*
X11125214Y-15372929D01*
X11096643Y-15387214D01*
X11068071Y-15387214D01*
X11039500Y-15372929D01*
X11025214Y-15358643D01*
X11010928Y-15330071D01*
X10996643Y-15272929D01*
X10996643Y-15201500D01*
X11010928Y-15144357D01*
X11025214Y-15115786D01*
X11039500Y-15101500D01*
X11068071Y-15087214D01*
X11268071Y-15087214D02*
X11453785Y-15087214D01*
X11353785Y-15201500D01*
X11396643Y-15201500D01*
X11425214Y-15215786D01*
X11439500Y-15230071D01*
X11453785Y-15258643D01*
X11453785Y-15330071D01*
X11439500Y-15358643D01*
X11425214Y-15372929D01*
X11396643Y-15387214D01*
X11310928Y-15387214D01*
X11282357Y-15372929D01*
X11268071Y-15358643D01*
X11739500Y-15387214D02*
X11568071Y-15387214D01*
X11653785Y-15387214D02*
X11653785Y-15087214D01*
X11625214Y-15130071D01*
X11596643Y-15158643D01*
X11568071Y-15172929D01*
X11853786Y-15087214D02*
X11853786Y-15144357D01*
X11968071Y-15087214D02*
X11968071Y-15144357D01*
X12410928Y-15501500D02*
X12396643Y-15487214D01*
X12368071Y-15444357D01*
X12353785Y-15415786D01*
X12339500Y-15372929D01*
X12325214Y-15301500D01*
X12325214Y-15244357D01*
X12339500Y-15172929D01*
X12353785Y-15130071D01*
X12368071Y-15101500D01*
X12396643Y-15058643D01*
X12410928Y-15044357D01*
X12653785Y-15187214D02*
X12653785Y-15387214D01*
X12582357Y-15072929D02*
X12510928Y-15287214D01*
X12696643Y-15287214D01*
X12853785Y-15215786D02*
X12825214Y-15201500D01*
X12810928Y-15187214D01*
X12796643Y-15158643D01*
X12796643Y-15144357D01*
X12810928Y-15115786D01*
X12825214Y-15101500D01*
X12853785Y-15087214D01*
X12910928Y-15087214D01*
X12939500Y-15101500D01*
X12953785Y-15115786D01*
X12968071Y-15144357D01*
X12968071Y-15158643D01*
X12953785Y-15187214D01*
X12939500Y-15201500D01*
X12910928Y-15215786D01*
X12853785Y-15215786D01*
X12825214Y-15230071D01*
X12810928Y-15244357D01*
X12796643Y-15272929D01*
X12796643Y-15330071D01*
X12810928Y-15358643D01*
X12825214Y-15372929D01*
X12853785Y-15387214D01*
X12910928Y-15387214D01*
X12939500Y-15372929D01*
X12953785Y-15358643D01*
X12968071Y-15330071D01*
X12968071Y-15272929D01*
X12953785Y-15244357D01*
X12939500Y-15230071D01*
X12910928Y-15215786D01*
X13325214Y-15387214D02*
X13325214Y-15087214D01*
X13453785Y-15387214D02*
X13453785Y-15230071D01*
X13439500Y-15201500D01*
X13410928Y-15187214D01*
X13368071Y-15187214D01*
X13339500Y-15201500D01*
X13325214Y-15215786D01*
X13639500Y-15387214D02*
X13610928Y-15372929D01*
X13596643Y-15358643D01*
X13582357Y-15330071D01*
X13582357Y-15244357D01*
X13596643Y-15215786D01*
X13610928Y-15201500D01*
X13639500Y-15187214D01*
X13682357Y-15187214D01*
X13710928Y-15201500D01*
X13725214Y-15215786D01*
X13739500Y-15244357D01*
X13739500Y-15330071D01*
X13725214Y-15358643D01*
X13710928Y-15372929D01*
X13682357Y-15387214D01*
X13639500Y-15387214D01*
X13910928Y-15387214D02*
X13882357Y-15372929D01*
X13868071Y-15344357D01*
X13868071Y-15087214D01*
X14139500Y-15372929D02*
X14110928Y-15387214D01*
X14053786Y-15387214D01*
X14025214Y-15372929D01*
X14010928Y-15344357D01*
X14010928Y-15230071D01*
X14025214Y-15201500D01*
X14053786Y-15187214D01*
X14110928Y-15187214D01*
X14139500Y-15201500D01*
X14153786Y-15230071D01*
X14153786Y-15258643D01*
X14010928Y-15287214D01*
X14268071Y-15372929D02*
X14296643Y-15387214D01*
X14353786Y-15387214D01*
X14382357Y-15372929D01*
X14396643Y-15344357D01*
X14396643Y-15330071D01*
X14382357Y-15301500D01*
X14353786Y-15287214D01*
X14310928Y-15287214D01*
X14282357Y-15272929D01*
X14268071Y-15244357D01*
X14268071Y-15230071D01*
X14282357Y-15201500D01*
X14310928Y-15187214D01*
X14353786Y-15187214D01*
X14382357Y-15201500D01*
X14496643Y-15501500D02*
X14510928Y-15487214D01*
X14539500Y-15444357D01*
X14553786Y-15415786D01*
X14568071Y-15372929D01*
X14582357Y-15301500D01*
X14582357Y-15244357D01*
X14568071Y-15172929D01*
X14553786Y-15130071D01*
X14539500Y-15101500D01*
X14510928Y-15058643D01*
X14496643Y-15044357D01*
X7658220Y-15606860D02*
X7739500Y-15688140D01*
X7739500Y-15606860D02*
X7658220Y-15688140D01*
X7739500Y-15647500D02*
G75*
G03X7739500Y-15647500I-40640J0D01*
G01*
X8068071Y-15483214D02*
X8096643Y-15483214D01*
X8125214Y-15497500D01*
X8139500Y-15511786D01*
X8153786Y-15540357D01*
X8168071Y-15597500D01*
X8168071Y-15668929D01*
X8153786Y-15726071D01*
X8139500Y-15754643D01*
X8125214Y-15768929D01*
X8096643Y-15783214D01*
X8068071Y-15783214D01*
X8039500Y-15768929D01*
X8025214Y-15754643D01*
X8010928Y-15726071D01*
X7996643Y-15668929D01*
X7996643Y-15597500D01*
X8010928Y-15540357D01*
X8025214Y-15511786D01*
X8039500Y-15497500D01*
X8068071Y-15483214D01*
X8296643Y-15754643D02*
X8310928Y-15768929D01*
X8296643Y-15783214D01*
X8282357Y-15768929D01*
X8296643Y-15754643D01*
X8296643Y-15783214D01*
X8482357Y-15611786D02*
X8453786Y-15597500D01*
X8439500Y-15583214D01*
X8425214Y-15554643D01*
X8425214Y-15540357D01*
X8439500Y-15511786D01*
X8453786Y-15497500D01*
X8482357Y-15483214D01*
X8539500Y-15483214D01*
X8568071Y-15497500D01*
X8582357Y-15511786D01*
X8596643Y-15540357D01*
X8596643Y-15554643D01*
X8582357Y-15583214D01*
X8568071Y-15597500D01*
X8539500Y-15611786D01*
X8482357Y-15611786D01*
X8453786Y-15626071D01*
X8439500Y-15640357D01*
X8425214Y-15668929D01*
X8425214Y-15726071D01*
X8439500Y-15754643D01*
X8453786Y-15768929D01*
X8482357Y-15783214D01*
X8539500Y-15783214D01*
X8568071Y-15768929D01*
X8582357Y-15754643D01*
X8596643Y-15726071D01*
X8596643Y-15668929D01*
X8582357Y-15640357D01*
X8568071Y-15626071D01*
X8539500Y-15611786D01*
X8882357Y-15783214D02*
X8710929Y-15783214D01*
X8796643Y-15783214D02*
X8796643Y-15483214D01*
X8768071Y-15526071D01*
X8739500Y-15554643D01*
X8710929Y-15568929D01*
X9010929Y-15783214D02*
X9010929Y-15583214D01*
X9010929Y-15611786D02*
X9025214Y-15597500D01*
X9053786Y-15583214D01*
X9096643Y-15583214D01*
X9125214Y-15597500D01*
X9139500Y-15626071D01*
X9139500Y-15783214D01*
X9139500Y-15626071D02*
X9153786Y-15597500D01*
X9182357Y-15583214D01*
X9225214Y-15583214D01*
X9253786Y-15597500D01*
X9268071Y-15626071D01*
X9268071Y-15783214D01*
X9410929Y-15783214D02*
X9410929Y-15583214D01*
X9410929Y-15611786D02*
X9425214Y-15597500D01*
X9453786Y-15583214D01*
X9496643Y-15583214D01*
X9525214Y-15597500D01*
X9539500Y-15626071D01*
X9539500Y-15783214D01*
X9539500Y-15626071D02*
X9553786Y-15597500D01*
X9582357Y-15583214D01*
X9625214Y-15583214D01*
X9653786Y-15597500D01*
X9668071Y-15626071D01*
X9668071Y-15783214D01*
X10253786Y-15468929D02*
X9996643Y-15854643D01*
X10639500Y-15483214D02*
X10668071Y-15483214D01*
X10696643Y-15497500D01*
X10710928Y-15511786D01*
X10725214Y-15540357D01*
X10739500Y-15597500D01*
X10739500Y-15668929D01*
X10725214Y-15726071D01*
X10710928Y-15754643D01*
X10696643Y-15768929D01*
X10668071Y-15783214D01*
X10639500Y-15783214D01*
X10610928Y-15768929D01*
X10596643Y-15754643D01*
X10582357Y-15726071D01*
X10568071Y-15668929D01*
X10568071Y-15597500D01*
X10582357Y-15540357D01*
X10596643Y-15511786D01*
X10610928Y-15497500D01*
X10639500Y-15483214D01*
X10868071Y-15754643D02*
X10882357Y-15768929D01*
X10868071Y-15783214D01*
X10853786Y-15768929D01*
X10868071Y-15754643D01*
X10868071Y-15783214D01*
X11068071Y-15483214D02*
X11096643Y-15483214D01*
X11125214Y-15497500D01*
X11139500Y-15511786D01*
X11153786Y-15540357D01*
X11168071Y-15597500D01*
X11168071Y-15668929D01*
X11153786Y-15726071D01*
X11139500Y-15754643D01*
X11125214Y-15768929D01*
X11096643Y-15783214D01*
X11068071Y-15783214D01*
X11039500Y-15768929D01*
X11025214Y-15754643D01*
X11010928Y-15726071D01*
X10996643Y-15668929D01*
X10996643Y-15597500D01*
X11010928Y-15540357D01*
X11025214Y-15511786D01*
X11039500Y-15497500D01*
X11068071Y-15483214D01*
X11268071Y-15483214D02*
X11453785Y-15483214D01*
X11353785Y-15597500D01*
X11396643Y-15597500D01*
X11425214Y-15611786D01*
X11439500Y-15626071D01*
X11453785Y-15654643D01*
X11453785Y-15726071D01*
X11439500Y-15754643D01*
X11425214Y-15768929D01*
X11396643Y-15783214D01*
X11310928Y-15783214D01*
X11282357Y-15768929D01*
X11268071Y-15754643D01*
X11568071Y-15511786D02*
X11582357Y-15497500D01*
X11610928Y-15483214D01*
X11682357Y-15483214D01*
X11710928Y-15497500D01*
X11725214Y-15511786D01*
X11739500Y-15540357D01*
X11739500Y-15568929D01*
X11725214Y-15611786D01*
X11553785Y-15783214D01*
X11739500Y-15783214D01*
X11853786Y-15483214D02*
X11853786Y-15540357D01*
X11968071Y-15483214D02*
X11968071Y-15540357D01*
X12410928Y-15897500D02*
X12396643Y-15883214D01*
X12368071Y-15840357D01*
X12353785Y-15811786D01*
X12339500Y-15768929D01*
X12325214Y-15697500D01*
X12325214Y-15640357D01*
X12339500Y-15568929D01*
X12353785Y-15526071D01*
X12368071Y-15497500D01*
X12396643Y-15454643D01*
X12410928Y-15440357D01*
X12510928Y-15511786D02*
X12525214Y-15497500D01*
X12553785Y-15483214D01*
X12625214Y-15483214D01*
X12653785Y-15497500D01*
X12668071Y-15511786D01*
X12682357Y-15540357D01*
X12682357Y-15568929D01*
X12668071Y-15611786D01*
X12496643Y-15783214D01*
X12682357Y-15783214D01*
X13039500Y-15783214D02*
X13039500Y-15483214D01*
X13168071Y-15783214D02*
X13168071Y-15626071D01*
X13153785Y-15597500D01*
X13125214Y-15583214D01*
X13082357Y-15583214D01*
X13053785Y-15597500D01*
X13039500Y-15611786D01*
X13353785Y-15783214D02*
X13325214Y-15768929D01*
X13310928Y-15754643D01*
X13296643Y-15726071D01*
X13296643Y-15640357D01*
X13310928Y-15611786D01*
X13325214Y-15597500D01*
X13353785Y-15583214D01*
X13396643Y-15583214D01*
X13425214Y-15597500D01*
X13439500Y-15611786D01*
X13453785Y-15640357D01*
X13453785Y-15726071D01*
X13439500Y-15754643D01*
X13425214Y-15768929D01*
X13396643Y-15783214D01*
X13353785Y-15783214D01*
X13625214Y-15783214D02*
X13596643Y-15768929D01*
X13582357Y-15740357D01*
X13582357Y-15483214D01*
X13853786Y-15768929D02*
X13825214Y-15783214D01*
X13768071Y-15783214D01*
X13739500Y-15768929D01*
X13725214Y-15740357D01*
X13725214Y-15626071D01*
X13739500Y-15597500D01*
X13768071Y-15583214D01*
X13825214Y-15583214D01*
X13853786Y-15597500D01*
X13868071Y-15626071D01*
X13868071Y-15654643D01*
X13725214Y-15683214D01*
X13982357Y-15768929D02*
X14010928Y-15783214D01*
X14068071Y-15783214D01*
X14096643Y-15768929D01*
X14110928Y-15740357D01*
X14110928Y-15726071D01*
X14096643Y-15697500D01*
X14068071Y-15683214D01*
X14025214Y-15683214D01*
X13996643Y-15668929D01*
X13982357Y-15640357D01*
X13982357Y-15626071D01*
X13996643Y-15597500D01*
X14025214Y-15583214D01*
X14068071Y-15583214D01*
X14096643Y-15597500D01*
X14210928Y-15897500D02*
X14225214Y-15883214D01*
X14253786Y-15840357D01*
X14268071Y-15811786D01*
X14282357Y-15768929D01*
X14296643Y-15697500D01*
X14296643Y-15640357D01*
X14282357Y-15568929D01*
X14268071Y-15526071D01*
X14253786Y-15497500D01*
X14225214Y-15454643D01*
X14210928Y-15440357D01*
X7649500Y-15998500D02*
X7739500Y-16088500D01*
X7739500Y-15998500D02*
X7649500Y-16088500D01*
X7694500Y-15998500D02*
X7694500Y-16088500D01*
X7649500Y-16043500D02*
X7739500Y-16043500D01*
X8068071Y-15879214D02*
X8096643Y-15879214D01*
X8125214Y-15893500D01*
X8139500Y-15907786D01*
X8153786Y-15936357D01*
X8168071Y-15993500D01*
X8168071Y-16064929D01*
X8153786Y-16122071D01*
X8139500Y-16150643D01*
X8125214Y-16164929D01*
X8096643Y-16179214D01*
X8068071Y-16179214D01*
X8039500Y-16164929D01*
X8025214Y-16150643D01*
X8010928Y-16122071D01*
X7996643Y-16064929D01*
X7996643Y-15993500D01*
X8010928Y-15936357D01*
X8025214Y-15907786D01*
X8039500Y-15893500D01*
X8068071Y-15879214D01*
X8296643Y-16150643D02*
X8310928Y-16164929D01*
X8296643Y-16179214D01*
X8282357Y-16164929D01*
X8296643Y-16150643D01*
X8296643Y-16179214D01*
X8453786Y-16179214D02*
X8510928Y-16179214D01*
X8539500Y-16164929D01*
X8553786Y-16150643D01*
X8582357Y-16107786D01*
X8596643Y-16050643D01*
X8596643Y-15936357D01*
X8582357Y-15907786D01*
X8568071Y-15893500D01*
X8539500Y-15879214D01*
X8482357Y-15879214D01*
X8453786Y-15893500D01*
X8439500Y-15907786D01*
X8425214Y-15936357D01*
X8425214Y-16007786D01*
X8439500Y-16036357D01*
X8453786Y-16050643D01*
X8482357Y-16064929D01*
X8539500Y-16064929D01*
X8568071Y-16050643D01*
X8582357Y-16036357D01*
X8596643Y-16007786D01*
X8782357Y-15879214D02*
X8810929Y-15879214D01*
X8839500Y-15893500D01*
X8853786Y-15907786D01*
X8868071Y-15936357D01*
X8882357Y-15993500D01*
X8882357Y-16064929D01*
X8868071Y-16122071D01*
X8853786Y-16150643D01*
X8839500Y-16164929D01*
X8810929Y-16179214D01*
X8782357Y-16179214D01*
X8753786Y-16164929D01*
X8739500Y-16150643D01*
X8725214Y-16122071D01*
X8710929Y-16064929D01*
X8710929Y-15993500D01*
X8725214Y-15936357D01*
X8739500Y-15907786D01*
X8753786Y-15893500D01*
X8782357Y-15879214D01*
X9010929Y-16179214D02*
X9010929Y-15979214D01*
X9010929Y-16007786D02*
X9025214Y-15993500D01*
X9053786Y-15979214D01*
X9096643Y-15979214D01*
X9125214Y-15993500D01*
X9139500Y-16022071D01*
X9139500Y-16179214D01*
X9139500Y-16022071D02*
X9153786Y-15993500D01*
X9182357Y-15979214D01*
X9225214Y-15979214D01*
X9253786Y-15993500D01*
X9268071Y-16022071D01*
X9268071Y-16179214D01*
X9410929Y-16179214D02*
X9410929Y-15979214D01*
X9410929Y-16007786D02*
X9425214Y-15993500D01*
X9453786Y-15979214D01*
X9496643Y-15979214D01*
X9525214Y-15993500D01*
X9539500Y-16022071D01*
X9539500Y-16179214D01*
X9539500Y-16022071D02*
X9553786Y-15993500D01*
X9582357Y-15979214D01*
X9625214Y-15979214D01*
X9653786Y-15993500D01*
X9668071Y-16022071D01*
X9668071Y-16179214D01*
X10253786Y-15864929D02*
X9996643Y-16250643D01*
X10639500Y-15879214D02*
X10668071Y-15879214D01*
X10696643Y-15893500D01*
X10710928Y-15907786D01*
X10725214Y-15936357D01*
X10739500Y-15993500D01*
X10739500Y-16064929D01*
X10725214Y-16122071D01*
X10710928Y-16150643D01*
X10696643Y-16164929D01*
X10668071Y-16179214D01*
X10639500Y-16179214D01*
X10610928Y-16164929D01*
X10596643Y-16150643D01*
X10582357Y-16122071D01*
X10568071Y-16064929D01*
X10568071Y-15993500D01*
X10582357Y-15936357D01*
X10596643Y-15907786D01*
X10610928Y-15893500D01*
X10639500Y-15879214D01*
X10868071Y-16150643D02*
X10882357Y-16164929D01*
X10868071Y-16179214D01*
X10853786Y-16164929D01*
X10868071Y-16150643D01*
X10868071Y-16179214D01*
X11068071Y-15879214D02*
X11096643Y-15879214D01*
X11125214Y-15893500D01*
X11139500Y-15907786D01*
X11153786Y-15936357D01*
X11168071Y-15993500D01*
X11168071Y-16064929D01*
X11153786Y-16122071D01*
X11139500Y-16150643D01*
X11125214Y-16164929D01*
X11096643Y-16179214D01*
X11068071Y-16179214D01*
X11039500Y-16164929D01*
X11025214Y-16150643D01*
X11010928Y-16122071D01*
X10996643Y-16064929D01*
X10996643Y-15993500D01*
X11010928Y-15936357D01*
X11025214Y-15907786D01*
X11039500Y-15893500D01*
X11068071Y-15879214D01*
X11268071Y-15879214D02*
X11453785Y-15879214D01*
X11353785Y-15993500D01*
X11396643Y-15993500D01*
X11425214Y-16007786D01*
X11439500Y-16022071D01*
X11453785Y-16050643D01*
X11453785Y-16122071D01*
X11439500Y-16150643D01*
X11425214Y-16164929D01*
X11396643Y-16179214D01*
X11310928Y-16179214D01*
X11282357Y-16164929D01*
X11268071Y-16150643D01*
X11725214Y-15879214D02*
X11582357Y-15879214D01*
X11568071Y-16022071D01*
X11582357Y-16007786D01*
X11610928Y-15993500D01*
X11682357Y-15993500D01*
X11710928Y-16007786D01*
X11725214Y-16022071D01*
X11739500Y-16050643D01*
X11739500Y-16122071D01*
X11725214Y-16150643D01*
X11710928Y-16164929D01*
X11682357Y-16179214D01*
X11610928Y-16179214D01*
X11582357Y-16164929D01*
X11568071Y-16150643D01*
X11853786Y-15879214D02*
X11853786Y-15936357D01*
X11968071Y-15879214D02*
X11968071Y-15936357D01*
X12410928Y-16293500D02*
X12396643Y-16279214D01*
X12368071Y-16236357D01*
X12353785Y-16207786D01*
X12339500Y-16164929D01*
X12325214Y-16093500D01*
X12325214Y-16036357D01*
X12339500Y-15964929D01*
X12353785Y-15922071D01*
X12368071Y-15893500D01*
X12396643Y-15850643D01*
X12410928Y-15836357D01*
X12682357Y-16179214D02*
X12510928Y-16179214D01*
X12596643Y-16179214D02*
X12596643Y-15879214D01*
X12568071Y-15922071D01*
X12539500Y-15950643D01*
X12510928Y-15964929D01*
X12868071Y-15879214D02*
X12896643Y-15879214D01*
X12925214Y-15893500D01*
X12939500Y-15907786D01*
X12953785Y-15936357D01*
X12968071Y-15993500D01*
X12968071Y-16064929D01*
X12953785Y-16122071D01*
X12939500Y-16150643D01*
X12925214Y-16164929D01*
X12896643Y-16179214D01*
X12868071Y-16179214D01*
X12839500Y-16164929D01*
X12825214Y-16150643D01*
X12810928Y-16122071D01*
X12796643Y-16064929D01*
X12796643Y-15993500D01*
X12810928Y-15936357D01*
X12825214Y-15907786D01*
X12839500Y-15893500D01*
X12868071Y-15879214D01*
X13325214Y-16179214D02*
X13325214Y-15879214D01*
X13453785Y-16179214D02*
X13453785Y-16022071D01*
X13439500Y-15993500D01*
X13410928Y-15979214D01*
X13368071Y-15979214D01*
X13339500Y-15993500D01*
X13325214Y-16007786D01*
X13639500Y-16179214D02*
X13610928Y-16164929D01*
X13596643Y-16150643D01*
X13582357Y-16122071D01*
X13582357Y-16036357D01*
X13596643Y-16007786D01*
X13610928Y-15993500D01*
X13639500Y-15979214D01*
X13682357Y-15979214D01*
X13710928Y-15993500D01*
X13725214Y-16007786D01*
X13739500Y-16036357D01*
X13739500Y-16122071D01*
X13725214Y-16150643D01*
X13710928Y-16164929D01*
X13682357Y-16179214D01*
X13639500Y-16179214D01*
X13910928Y-16179214D02*
X13882357Y-16164929D01*
X13868071Y-16136357D01*
X13868071Y-15879214D01*
X14139500Y-16164929D02*
X14110928Y-16179214D01*
X14053786Y-16179214D01*
X14025214Y-16164929D01*
X14010928Y-16136357D01*
X14010928Y-16022071D01*
X14025214Y-15993500D01*
X14053786Y-15979214D01*
X14110928Y-15979214D01*
X14139500Y-15993500D01*
X14153786Y-16022071D01*
X14153786Y-16050643D01*
X14010928Y-16079214D01*
X14268071Y-16164929D02*
X14296643Y-16179214D01*
X14353786Y-16179214D01*
X14382357Y-16164929D01*
X14396643Y-16136357D01*
X14396643Y-16122071D01*
X14382357Y-16093500D01*
X14353786Y-16079214D01*
X14310928Y-16079214D01*
X14282357Y-16064929D01*
X14268071Y-16036357D01*
X14268071Y-16022071D01*
X14282357Y-15993500D01*
X14310928Y-15979214D01*
X14353786Y-15979214D01*
X14382357Y-15993500D01*
X14496643Y-16293500D02*
X14510928Y-16279214D01*
X14539500Y-16236357D01*
X14553786Y-16207786D01*
X14568071Y-16164929D01*
X14582357Y-16093500D01*
X14582357Y-16036357D01*
X14568071Y-15964929D01*
X14553786Y-15922071D01*
X14539500Y-15893500D01*
X14510928Y-15850643D01*
X14496643Y-15836357D01*
X7639500Y-16389500D02*
X7739500Y-16489500D01*
X7739500Y-16389500D02*
X7639500Y-16489500D01*
X7724856Y-16474856D02*
X7724856Y-16404144D01*
X7654144Y-16404144D01*
X7654144Y-16474856D01*
X7724856Y-16474856D01*
X8168071Y-16575214D02*
X7996643Y-16575214D01*
X8082357Y-16575214D02*
X8082357Y-16275214D01*
X8053786Y-16318071D01*
X8025214Y-16346643D01*
X7996643Y-16360929D01*
X8296643Y-16546643D02*
X8310928Y-16560929D01*
X8296643Y-16575214D01*
X8282357Y-16560929D01*
X8296643Y-16546643D01*
X8296643Y-16575214D01*
X8496643Y-16275214D02*
X8525214Y-16275214D01*
X8553786Y-16289500D01*
X8568071Y-16303786D01*
X8582357Y-16332357D01*
X8596643Y-16389500D01*
X8596643Y-16460929D01*
X8582357Y-16518071D01*
X8568071Y-16546643D01*
X8553786Y-16560929D01*
X8525214Y-16575214D01*
X8496643Y-16575214D01*
X8468071Y-16560929D01*
X8453786Y-16546643D01*
X8439500Y-16518071D01*
X8425214Y-16460929D01*
X8425214Y-16389500D01*
X8439500Y-16332357D01*
X8453786Y-16303786D01*
X8468071Y-16289500D01*
X8496643Y-16275214D01*
X8782357Y-16275214D02*
X8810929Y-16275214D01*
X8839500Y-16289500D01*
X8853786Y-16303786D01*
X8868071Y-16332357D01*
X8882357Y-16389500D01*
X8882357Y-16460929D01*
X8868071Y-16518071D01*
X8853786Y-16546643D01*
X8839500Y-16560929D01*
X8810929Y-16575214D01*
X8782357Y-16575214D01*
X8753786Y-16560929D01*
X8739500Y-16546643D01*
X8725214Y-16518071D01*
X8710929Y-16460929D01*
X8710929Y-16389500D01*
X8725214Y-16332357D01*
X8739500Y-16303786D01*
X8753786Y-16289500D01*
X8782357Y-16275214D01*
X9010929Y-16575214D02*
X9010929Y-16375214D01*
X9010929Y-16403786D02*
X9025214Y-16389500D01*
X9053786Y-16375214D01*
X9096643Y-16375214D01*
X9125214Y-16389500D01*
X9139500Y-16418071D01*
X9139500Y-16575214D01*
X9139500Y-16418071D02*
X9153786Y-16389500D01*
X9182357Y-16375214D01*
X9225214Y-16375214D01*
X9253786Y-16389500D01*
X9268071Y-16418071D01*
X9268071Y-16575214D01*
X9410929Y-16575214D02*
X9410929Y-16375214D01*
X9410929Y-16403786D02*
X9425214Y-16389500D01*
X9453786Y-16375214D01*
X9496643Y-16375214D01*
X9525214Y-16389500D01*
X9539500Y-16418071D01*
X9539500Y-16575214D01*
X9539500Y-16418071D02*
X9553786Y-16389500D01*
X9582357Y-16375214D01*
X9625214Y-16375214D01*
X9653786Y-16389500D01*
X9668071Y-16418071D01*
X9668071Y-16575214D01*
X10253786Y-16260929D02*
X9996643Y-16646643D01*
X10639500Y-16275214D02*
X10668071Y-16275214D01*
X10696643Y-16289500D01*
X10710928Y-16303786D01*
X10725214Y-16332357D01*
X10739500Y-16389500D01*
X10739500Y-16460929D01*
X10725214Y-16518071D01*
X10710928Y-16546643D01*
X10696643Y-16560929D01*
X10668071Y-16575214D01*
X10639500Y-16575214D01*
X10610928Y-16560929D01*
X10596643Y-16546643D01*
X10582357Y-16518071D01*
X10568071Y-16460929D01*
X10568071Y-16389500D01*
X10582357Y-16332357D01*
X10596643Y-16303786D01*
X10610928Y-16289500D01*
X10639500Y-16275214D01*
X10868071Y-16546643D02*
X10882357Y-16560929D01*
X10868071Y-16575214D01*
X10853786Y-16560929D01*
X10868071Y-16546643D01*
X10868071Y-16575214D01*
X11068071Y-16275214D02*
X11096643Y-16275214D01*
X11125214Y-16289500D01*
X11139500Y-16303786D01*
X11153786Y-16332357D01*
X11168071Y-16389500D01*
X11168071Y-16460929D01*
X11153786Y-16518071D01*
X11139500Y-16546643D01*
X11125214Y-16560929D01*
X11096643Y-16575214D01*
X11068071Y-16575214D01*
X11039500Y-16560929D01*
X11025214Y-16546643D01*
X11010928Y-16518071D01*
X10996643Y-16460929D01*
X10996643Y-16389500D01*
X11010928Y-16332357D01*
X11025214Y-16303786D01*
X11039500Y-16289500D01*
X11068071Y-16275214D01*
X11268071Y-16275214D02*
X11453785Y-16275214D01*
X11353785Y-16389500D01*
X11396643Y-16389500D01*
X11425214Y-16403786D01*
X11439500Y-16418071D01*
X11453785Y-16446643D01*
X11453785Y-16518071D01*
X11439500Y-16546643D01*
X11425214Y-16560929D01*
X11396643Y-16575214D01*
X11310928Y-16575214D01*
X11282357Y-16560929D01*
X11268071Y-16546643D01*
X11596643Y-16575214D02*
X11653785Y-16575214D01*
X11682357Y-16560929D01*
X11696643Y-16546643D01*
X11725214Y-16503786D01*
X11739500Y-16446643D01*
X11739500Y-16332357D01*
X11725214Y-16303786D01*
X11710928Y-16289500D01*
X11682357Y-16275214D01*
X11625214Y-16275214D01*
X11596643Y-16289500D01*
X11582357Y-16303786D01*
X11568071Y-16332357D01*
X11568071Y-16403786D01*
X11582357Y-16432357D01*
X11596643Y-16446643D01*
X11625214Y-16460929D01*
X11682357Y-16460929D01*
X11710928Y-16446643D01*
X11725214Y-16432357D01*
X11739500Y-16403786D01*
X11853786Y-16275214D02*
X11853786Y-16332357D01*
X11968071Y-16275214D02*
X11968071Y-16332357D01*
X12410928Y-16689500D02*
X12396643Y-16675214D01*
X12368071Y-16632357D01*
X12353785Y-16603786D01*
X12339500Y-16560929D01*
X12325214Y-16489500D01*
X12325214Y-16432357D01*
X12339500Y-16360929D01*
X12353785Y-16318071D01*
X12368071Y-16289500D01*
X12396643Y-16246643D01*
X12410928Y-16232357D01*
X12568071Y-16403786D02*
X12539500Y-16389500D01*
X12525214Y-16375214D01*
X12510928Y-16346643D01*
X12510928Y-16332357D01*
X12525214Y-16303786D01*
X12539500Y-16289500D01*
X12568071Y-16275214D01*
X12625214Y-16275214D01*
X12653785Y-16289500D01*
X12668071Y-16303786D01*
X12682357Y-16332357D01*
X12682357Y-16346643D01*
X12668071Y-16375214D01*
X12653785Y-16389500D01*
X12625214Y-16403786D01*
X12568071Y-16403786D01*
X12539500Y-16418071D01*
X12525214Y-16432357D01*
X12510928Y-16460929D01*
X12510928Y-16518071D01*
X12525214Y-16546643D01*
X12539500Y-16560929D01*
X12568071Y-16575214D01*
X12625214Y-16575214D01*
X12653785Y-16560929D01*
X12668071Y-16546643D01*
X12682357Y-16518071D01*
X12682357Y-16460929D01*
X12668071Y-16432357D01*
X12653785Y-16418071D01*
X12625214Y-16403786D01*
X12796643Y-16303786D02*
X12810928Y-16289500D01*
X12839500Y-16275214D01*
X12910928Y-16275214D01*
X12939500Y-16289500D01*
X12953785Y-16303786D01*
X12968071Y-16332357D01*
X12968071Y-16360929D01*
X12953785Y-16403786D01*
X12782357Y-16575214D01*
X12968071Y-16575214D01*
X13325214Y-16575214D02*
X13325214Y-16275214D01*
X13453785Y-16575214D02*
X13453785Y-16418071D01*
X13439500Y-16389500D01*
X13410928Y-16375214D01*
X13368071Y-16375214D01*
X13339500Y-16389500D01*
X13325214Y-16403786D01*
X13639500Y-16575214D02*
X13610928Y-16560929D01*
X13596643Y-16546643D01*
X13582357Y-16518071D01*
X13582357Y-16432357D01*
X13596643Y-16403786D01*
X13610928Y-16389500D01*
X13639500Y-16375214D01*
X13682357Y-16375214D01*
X13710928Y-16389500D01*
X13725214Y-16403786D01*
X13739500Y-16432357D01*
X13739500Y-16518071D01*
X13725214Y-16546643D01*
X13710928Y-16560929D01*
X13682357Y-16575214D01*
X13639500Y-16575214D01*
X13910928Y-16575214D02*
X13882357Y-16560929D01*
X13868071Y-16532357D01*
X13868071Y-16275214D01*
X14139500Y-16560929D02*
X14110928Y-16575214D01*
X14053786Y-16575214D01*
X14025214Y-16560929D01*
X14010928Y-16532357D01*
X14010928Y-16418071D01*
X14025214Y-16389500D01*
X14053786Y-16375214D01*
X14110928Y-16375214D01*
X14139500Y-16389500D01*
X14153786Y-16418071D01*
X14153786Y-16446643D01*
X14010928Y-16475214D01*
X14268071Y-16560929D02*
X14296643Y-16575214D01*
X14353786Y-16575214D01*
X14382357Y-16560929D01*
X14396643Y-16532357D01*
X14396643Y-16518071D01*
X14382357Y-16489500D01*
X14353786Y-16475214D01*
X14310928Y-16475214D01*
X14282357Y-16460929D01*
X14268071Y-16432357D01*
X14268071Y-16418071D01*
X14282357Y-16389500D01*
X14310928Y-16375214D01*
X14353786Y-16375214D01*
X14382357Y-16389500D01*
X14753786Y-16460929D02*
X14982357Y-16460929D01*
X14868071Y-16575214D02*
X14868071Y-16346643D01*
X15325214Y-16275214D02*
X15510928Y-16275214D01*
X15410928Y-16389500D01*
X15453786Y-16389500D01*
X15482357Y-16403786D01*
X15496643Y-16418071D01*
X15510928Y-16446643D01*
X15510928Y-16518071D01*
X15496643Y-16546643D01*
X15482357Y-16560929D01*
X15453786Y-16575214D01*
X15368071Y-16575214D01*
X15339500Y-16560929D01*
X15325214Y-16546643D01*
X15853786Y-16560929D02*
X15882357Y-16575214D01*
X15939500Y-16575214D01*
X15968071Y-16560929D01*
X15982357Y-16532357D01*
X15982357Y-16518071D01*
X15968071Y-16489500D01*
X15939500Y-16475214D01*
X15896643Y-16475214D01*
X15868071Y-16460929D01*
X15853786Y-16432357D01*
X15853786Y-16418071D01*
X15868071Y-16389500D01*
X15896643Y-16375214D01*
X15939500Y-16375214D01*
X15968071Y-16389500D01*
X16153785Y-16575214D02*
X16125214Y-16560929D01*
X16110928Y-16532357D01*
X16110928Y-16275214D01*
X16310928Y-16575214D02*
X16282357Y-16560929D01*
X16268071Y-16546643D01*
X16253786Y-16518071D01*
X16253786Y-16432357D01*
X16268071Y-16403786D01*
X16282357Y-16389500D01*
X16310928Y-16375214D01*
X16353786Y-16375214D01*
X16382357Y-16389500D01*
X16396643Y-16403786D01*
X16410928Y-16432357D01*
X16410928Y-16518071D01*
X16396643Y-16546643D01*
X16382357Y-16560929D01*
X16353786Y-16575214D01*
X16310928Y-16575214D01*
X16496643Y-16375214D02*
X16610928Y-16375214D01*
X16539500Y-16275214D02*
X16539500Y-16532357D01*
X16553786Y-16560929D01*
X16582357Y-16575214D01*
X16610928Y-16575214D01*
X16696643Y-16560929D02*
X16725214Y-16575214D01*
X16782357Y-16575214D01*
X16810929Y-16560929D01*
X16825214Y-16532357D01*
X16825214Y-16518071D01*
X16810929Y-16489500D01*
X16782357Y-16475214D01*
X16739500Y-16475214D01*
X16710928Y-16460929D01*
X16696643Y-16432357D01*
X16696643Y-16418071D01*
X16710928Y-16389500D01*
X16739500Y-16375214D01*
X16782357Y-16375214D01*
X16810929Y-16389500D01*
X16925214Y-16689500D02*
X16939500Y-16675214D01*
X16968071Y-16632357D01*
X16982357Y-16603786D01*
X16996643Y-16560929D01*
X17010928Y-16489500D01*
X17010928Y-16432357D01*
X16996643Y-16360929D01*
X16982357Y-16318071D01*
X16968071Y-16289500D01*
X16939500Y-16246643D01*
X16925214Y-16232357D01*
X7639424Y-16785462D02*
X7739500Y-16885538D01*
X7739500Y-16785462D02*
X7639424Y-16885538D01*
X7689462Y-16885538D02*
X7739500Y-16835500D01*
X7689462Y-16785462D01*
X7639424Y-16835500D01*
X7689462Y-16885538D01*
X8168071Y-16971214D02*
X7996643Y-16971214D01*
X8082357Y-16971214D02*
X8082357Y-16671214D01*
X8053786Y-16714071D01*
X8025214Y-16742643D01*
X7996643Y-16756929D01*
X8296643Y-16942643D02*
X8310928Y-16956929D01*
X8296643Y-16971214D01*
X8282357Y-16956929D01*
X8296643Y-16942643D01*
X8296643Y-16971214D01*
X8496643Y-16671214D02*
X8525214Y-16671214D01*
X8553786Y-16685500D01*
X8568071Y-16699786D01*
X8582357Y-16728357D01*
X8596643Y-16785500D01*
X8596643Y-16856929D01*
X8582357Y-16914072D01*
X8568071Y-16942643D01*
X8553786Y-16956929D01*
X8525214Y-16971214D01*
X8496643Y-16971214D01*
X8468071Y-16956929D01*
X8453786Y-16942643D01*
X8439500Y-16914072D01*
X8425214Y-16856929D01*
X8425214Y-16785500D01*
X8439500Y-16728357D01*
X8453786Y-16699786D01*
X8468071Y-16685500D01*
X8496643Y-16671214D01*
X8782357Y-16671214D02*
X8810929Y-16671214D01*
X8839500Y-16685500D01*
X8853786Y-16699786D01*
X8868071Y-16728357D01*
X8882357Y-16785500D01*
X8882357Y-16856929D01*
X8868071Y-16914072D01*
X8853786Y-16942643D01*
X8839500Y-16956929D01*
X8810929Y-16971214D01*
X8782357Y-16971214D01*
X8753786Y-16956929D01*
X8739500Y-16942643D01*
X8725214Y-16914072D01*
X8710929Y-16856929D01*
X8710929Y-16785500D01*
X8725214Y-16728357D01*
X8739500Y-16699786D01*
X8753786Y-16685500D01*
X8782357Y-16671214D01*
X9010929Y-16971214D02*
X9010929Y-16771214D01*
X9010929Y-16799786D02*
X9025214Y-16785500D01*
X9053786Y-16771214D01*
X9096643Y-16771214D01*
X9125214Y-16785500D01*
X9139500Y-16814072D01*
X9139500Y-16971214D01*
X9139500Y-16814072D02*
X9153786Y-16785500D01*
X9182357Y-16771214D01*
X9225214Y-16771214D01*
X9253786Y-16785500D01*
X9268071Y-16814072D01*
X9268071Y-16971214D01*
X9410929Y-16971214D02*
X9410929Y-16771214D01*
X9410929Y-16799786D02*
X9425214Y-16785500D01*
X9453786Y-16771214D01*
X9496643Y-16771214D01*
X9525214Y-16785500D01*
X9539500Y-16814072D01*
X9539500Y-16971214D01*
X9539500Y-16814072D02*
X9553786Y-16785500D01*
X9582357Y-16771214D01*
X9625214Y-16771214D01*
X9653786Y-16785500D01*
X9668071Y-16814072D01*
X9668071Y-16971214D01*
X10253786Y-16656929D02*
X9996643Y-17042643D01*
X10639500Y-16671214D02*
X10668071Y-16671214D01*
X10696643Y-16685500D01*
X10710928Y-16699786D01*
X10725214Y-16728357D01*
X10739500Y-16785500D01*
X10739500Y-16856929D01*
X10725214Y-16914072D01*
X10710928Y-16942643D01*
X10696643Y-16956929D01*
X10668071Y-16971214D01*
X10639500Y-16971214D01*
X10610928Y-16956929D01*
X10596643Y-16942643D01*
X10582357Y-16914072D01*
X10568071Y-16856929D01*
X10568071Y-16785500D01*
X10582357Y-16728357D01*
X10596643Y-16699786D01*
X10610928Y-16685500D01*
X10639500Y-16671214D01*
X10868071Y-16942643D02*
X10882357Y-16956929D01*
X10868071Y-16971214D01*
X10853786Y-16956929D01*
X10868071Y-16942643D01*
X10868071Y-16971214D01*
X11068071Y-16671214D02*
X11096643Y-16671214D01*
X11125214Y-16685500D01*
X11139500Y-16699786D01*
X11153786Y-16728357D01*
X11168071Y-16785500D01*
X11168071Y-16856929D01*
X11153786Y-16914072D01*
X11139500Y-16942643D01*
X11125214Y-16956929D01*
X11096643Y-16971214D01*
X11068071Y-16971214D01*
X11039500Y-16956929D01*
X11025214Y-16942643D01*
X11010928Y-16914072D01*
X10996643Y-16856929D01*
X10996643Y-16785500D01*
X11010928Y-16728357D01*
X11025214Y-16699786D01*
X11039500Y-16685500D01*
X11068071Y-16671214D01*
X11268071Y-16671214D02*
X11453785Y-16671214D01*
X11353785Y-16785500D01*
X11396643Y-16785500D01*
X11425214Y-16799786D01*
X11439500Y-16814072D01*
X11453785Y-16842643D01*
X11453785Y-16914072D01*
X11439500Y-16942643D01*
X11425214Y-16956929D01*
X11396643Y-16971214D01*
X11310928Y-16971214D01*
X11282357Y-16956929D01*
X11268071Y-16942643D01*
X11596643Y-16971214D02*
X11653785Y-16971214D01*
X11682357Y-16956929D01*
X11696643Y-16942643D01*
X11725214Y-16899786D01*
X11739500Y-16842643D01*
X11739500Y-16728357D01*
X11725214Y-16699786D01*
X11710928Y-16685500D01*
X11682357Y-16671214D01*
X11625214Y-16671214D01*
X11596643Y-16685500D01*
X11582357Y-16699786D01*
X11568071Y-16728357D01*
X11568071Y-16799786D01*
X11582357Y-16828357D01*
X11596643Y-16842643D01*
X11625214Y-16856929D01*
X11682357Y-16856929D01*
X11710928Y-16842643D01*
X11725214Y-16828357D01*
X11739500Y-16799786D01*
X11853786Y-16671214D02*
X11853786Y-16728357D01*
X11968071Y-16671214D02*
X11968071Y-16728357D01*
X12410928Y-17085500D02*
X12396643Y-17071214D01*
X12368071Y-17028357D01*
X12353785Y-16999786D01*
X12339500Y-16956929D01*
X12325214Y-16885500D01*
X12325214Y-16828357D01*
X12339500Y-16756929D01*
X12353785Y-16714071D01*
X12368071Y-16685500D01*
X12396643Y-16642643D01*
X12410928Y-16628357D01*
X12510928Y-16699786D02*
X12525214Y-16685500D01*
X12553785Y-16671214D01*
X12625214Y-16671214D01*
X12653785Y-16685500D01*
X12668071Y-16699786D01*
X12682357Y-16728357D01*
X12682357Y-16756929D01*
X12668071Y-16799786D01*
X12496643Y-16971214D01*
X12682357Y-16971214D01*
X13039500Y-16971214D02*
X13039500Y-16671214D01*
X13168071Y-16971214D02*
X13168071Y-16814072D01*
X13153785Y-16785500D01*
X13125214Y-16771214D01*
X13082357Y-16771214D01*
X13053785Y-16785500D01*
X13039500Y-16799786D01*
X13353785Y-16971214D02*
X13325214Y-16956929D01*
X13310928Y-16942643D01*
X13296643Y-16914072D01*
X13296643Y-16828357D01*
X13310928Y-16799786D01*
X13325214Y-16785500D01*
X13353785Y-16771214D01*
X13396643Y-16771214D01*
X13425214Y-16785500D01*
X13439500Y-16799786D01*
X13453785Y-16828357D01*
X13453785Y-16914072D01*
X13439500Y-16942643D01*
X13425214Y-16956929D01*
X13396643Y-16971214D01*
X13353785Y-16971214D01*
X13625214Y-16971214D02*
X13596643Y-16956929D01*
X13582357Y-16928357D01*
X13582357Y-16671214D01*
X13853786Y-16956929D02*
X13825214Y-16971214D01*
X13768071Y-16971214D01*
X13739500Y-16956929D01*
X13725214Y-16928357D01*
X13725214Y-16814072D01*
X13739500Y-16785500D01*
X13768071Y-16771214D01*
X13825214Y-16771214D01*
X13853786Y-16785500D01*
X13868071Y-16814072D01*
X13868071Y-16842643D01*
X13725214Y-16871214D01*
X13982357Y-16956929D02*
X14010928Y-16971214D01*
X14068071Y-16971214D01*
X14096643Y-16956929D01*
X14110928Y-16928357D01*
X14110928Y-16914072D01*
X14096643Y-16885500D01*
X14068071Y-16871214D01*
X14025214Y-16871214D01*
X13996643Y-16856929D01*
X13982357Y-16828357D01*
X13982357Y-16814072D01*
X13996643Y-16785500D01*
X14025214Y-16771214D01*
X14068071Y-16771214D01*
X14096643Y-16785500D01*
X14210928Y-17085500D02*
X14225214Y-17071214D01*
X14253786Y-17028357D01*
X14268071Y-16999786D01*
X14282357Y-16956929D01*
X14296643Y-16885500D01*
X14296643Y-16828357D01*
X14282357Y-16756929D01*
X14268071Y-16714071D01*
X14253786Y-16685500D01*
X14225214Y-16642643D01*
X14210928Y-16628357D01*
X7687000Y-17179000D02*
X7687000Y-17284000D01*
X7634500Y-17231500D02*
X7739500Y-17231500D01*
X7739500Y-17231500D02*
G75*
G03X7739500Y-17231500I-52500J0D01*
G01*
X8168071Y-17367214D02*
X7996643Y-17367214D01*
X8082357Y-17367214D02*
X8082357Y-17067214D01*
X8053786Y-17110072D01*
X8025214Y-17138643D01*
X7996643Y-17152929D01*
X8296643Y-17338643D02*
X8310928Y-17352929D01*
X8296643Y-17367214D01*
X8282357Y-17352929D01*
X8296643Y-17338643D01*
X8296643Y-17367214D01*
X8496643Y-17067214D02*
X8525214Y-17067214D01*
X8553786Y-17081500D01*
X8568071Y-17095786D01*
X8582357Y-17124357D01*
X8596643Y-17181500D01*
X8596643Y-17252929D01*
X8582357Y-17310072D01*
X8568071Y-17338643D01*
X8553786Y-17352929D01*
X8525214Y-17367214D01*
X8496643Y-17367214D01*
X8468071Y-17352929D01*
X8453786Y-17338643D01*
X8439500Y-17310072D01*
X8425214Y-17252929D01*
X8425214Y-17181500D01*
X8439500Y-17124357D01*
X8453786Y-17095786D01*
X8468071Y-17081500D01*
X8496643Y-17067214D01*
X8868071Y-17067214D02*
X8725214Y-17067214D01*
X8710929Y-17210072D01*
X8725214Y-17195786D01*
X8753786Y-17181500D01*
X8825214Y-17181500D01*
X8853786Y-17195786D01*
X8868071Y-17210072D01*
X8882357Y-17238643D01*
X8882357Y-17310072D01*
X8868071Y-17338643D01*
X8853786Y-17352929D01*
X8825214Y-17367214D01*
X8753786Y-17367214D01*
X8725214Y-17352929D01*
X8710929Y-17338643D01*
X9010929Y-17367214D02*
X9010929Y-17167214D01*
X9010929Y-17195786D02*
X9025214Y-17181500D01*
X9053786Y-17167214D01*
X9096643Y-17167214D01*
X9125214Y-17181500D01*
X9139500Y-17210072D01*
X9139500Y-17367214D01*
X9139500Y-17210072D02*
X9153786Y-17181500D01*
X9182357Y-17167214D01*
X9225214Y-17167214D01*
X9253786Y-17181500D01*
X9268071Y-17210072D01*
X9268071Y-17367214D01*
X9410929Y-17367214D02*
X9410929Y-17167214D01*
X9410929Y-17195786D02*
X9425214Y-17181500D01*
X9453786Y-17167214D01*
X9496643Y-17167214D01*
X9525214Y-17181500D01*
X9539500Y-17210072D01*
X9539500Y-17367214D01*
X9539500Y-17210072D02*
X9553786Y-17181500D01*
X9582357Y-17167214D01*
X9625214Y-17167214D01*
X9653786Y-17181500D01*
X9668071Y-17210072D01*
X9668071Y-17367214D01*
X10253786Y-17052929D02*
X9996643Y-17438643D01*
X10639500Y-17067214D02*
X10668071Y-17067214D01*
X10696643Y-17081500D01*
X10710928Y-17095786D01*
X10725214Y-17124357D01*
X10739500Y-17181500D01*
X10739500Y-17252929D01*
X10725214Y-17310072D01*
X10710928Y-17338643D01*
X10696643Y-17352929D01*
X10668071Y-17367214D01*
X10639500Y-17367214D01*
X10610928Y-17352929D01*
X10596643Y-17338643D01*
X10582357Y-17310072D01*
X10568071Y-17252929D01*
X10568071Y-17181500D01*
X10582357Y-17124357D01*
X10596643Y-17095786D01*
X10610928Y-17081500D01*
X10639500Y-17067214D01*
X10868071Y-17338643D02*
X10882357Y-17352929D01*
X10868071Y-17367214D01*
X10853786Y-17352929D01*
X10868071Y-17338643D01*
X10868071Y-17367214D01*
X11068071Y-17067214D02*
X11096643Y-17067214D01*
X11125214Y-17081500D01*
X11139500Y-17095786D01*
X11153786Y-17124357D01*
X11168071Y-17181500D01*
X11168071Y-17252929D01*
X11153786Y-17310072D01*
X11139500Y-17338643D01*
X11125214Y-17352929D01*
X11096643Y-17367214D01*
X11068071Y-17367214D01*
X11039500Y-17352929D01*
X11025214Y-17338643D01*
X11010928Y-17310072D01*
X10996643Y-17252929D01*
X10996643Y-17181500D01*
X11010928Y-17124357D01*
X11025214Y-17095786D01*
X11039500Y-17081500D01*
X11068071Y-17067214D01*
X11425214Y-17167214D02*
X11425214Y-17367214D01*
X11353785Y-17052929D02*
X11282357Y-17267214D01*
X11468071Y-17267214D01*
X11739500Y-17367214D02*
X11568071Y-17367214D01*
X11653785Y-17367214D02*
X11653785Y-17067214D01*
X11625214Y-17110072D01*
X11596643Y-17138643D01*
X11568071Y-17152929D01*
X11853786Y-17067214D02*
X11853786Y-17124357D01*
X11968071Y-17067214D02*
X11968071Y-17124357D01*
X12410928Y-17481500D02*
X12396643Y-17467214D01*
X12368071Y-17424357D01*
X12353785Y-17395786D01*
X12339500Y-17352929D01*
X12325214Y-17281500D01*
X12325214Y-17224357D01*
X12339500Y-17152929D01*
X12353785Y-17110072D01*
X12368071Y-17081500D01*
X12396643Y-17038643D01*
X12410928Y-17024357D01*
X12510928Y-17095786D02*
X12525214Y-17081500D01*
X12553785Y-17067214D01*
X12625214Y-17067214D01*
X12653785Y-17081500D01*
X12668071Y-17095786D01*
X12682357Y-17124357D01*
X12682357Y-17152929D01*
X12668071Y-17195786D01*
X12496643Y-17367214D01*
X12682357Y-17367214D01*
X13039500Y-17367214D02*
X13039500Y-17067214D01*
X13168071Y-17367214D02*
X13168071Y-17210072D01*
X13153785Y-17181500D01*
X13125214Y-17167214D01*
X13082357Y-17167214D01*
X13053785Y-17181500D01*
X13039500Y-17195786D01*
X13353785Y-17367214D02*
X13325214Y-17352929D01*
X13310928Y-17338643D01*
X13296643Y-17310072D01*
X13296643Y-17224357D01*
X13310928Y-17195786D01*
X13325214Y-17181500D01*
X13353785Y-17167214D01*
X13396643Y-17167214D01*
X13425214Y-17181500D01*
X13439500Y-17195786D01*
X13453785Y-17224357D01*
X13453785Y-17310072D01*
X13439500Y-17338643D01*
X13425214Y-17352929D01*
X13396643Y-17367214D01*
X13353785Y-17367214D01*
X13625214Y-17367214D02*
X13596643Y-17352929D01*
X13582357Y-17324357D01*
X13582357Y-17067214D01*
X13853786Y-17352929D02*
X13825214Y-17367214D01*
X13768071Y-17367214D01*
X13739500Y-17352929D01*
X13725214Y-17324357D01*
X13725214Y-17210072D01*
X13739500Y-17181500D01*
X13768071Y-17167214D01*
X13825214Y-17167214D01*
X13853786Y-17181500D01*
X13868071Y-17210072D01*
X13868071Y-17238643D01*
X13725214Y-17267214D01*
X13982357Y-17352929D02*
X14010928Y-17367214D01*
X14068071Y-17367214D01*
X14096643Y-17352929D01*
X14110928Y-17324357D01*
X14110928Y-17310072D01*
X14096643Y-17281500D01*
X14068071Y-17267214D01*
X14025214Y-17267214D01*
X13996643Y-17252929D01*
X13982357Y-17224357D01*
X13982357Y-17210072D01*
X13996643Y-17181500D01*
X14025214Y-17167214D01*
X14068071Y-17167214D01*
X14096643Y-17181500D01*
X14210928Y-17481500D02*
X14225214Y-17467214D01*
X14253786Y-17424357D01*
X14268071Y-17395786D01*
X14282357Y-17352929D01*
X14296643Y-17281500D01*
X14296643Y-17224357D01*
X14282357Y-17152929D01*
X14268071Y-17110072D01*
X14253786Y-17081500D01*
X14225214Y-17038643D01*
X14210928Y-17024357D01*
X7723391Y-17666391D02*
X7723391Y-17588609D01*
X7645609Y-17588609D01*
X7645609Y-17666391D01*
X7723391Y-17666391D01*
X7739500Y-17627500D02*
G75*
G03X7739500Y-17627500I-55000J0D01*
G01*
X8168071Y-17763214D02*
X7996643Y-17763214D01*
X8082357Y-17763214D02*
X8082357Y-17463214D01*
X8053786Y-17506072D01*
X8025214Y-17534643D01*
X7996643Y-17548929D01*
X8296643Y-17734643D02*
X8310928Y-17748929D01*
X8296643Y-17763214D01*
X8282357Y-17748929D01*
X8296643Y-17734643D01*
X8296643Y-17763214D01*
X8596643Y-17763214D02*
X8425214Y-17763214D01*
X8510928Y-17763214D02*
X8510928Y-17463214D01*
X8482357Y-17506072D01*
X8453786Y-17534643D01*
X8425214Y-17548929D01*
X8782357Y-17463214D02*
X8810929Y-17463214D01*
X8839500Y-17477500D01*
X8853786Y-17491786D01*
X8868071Y-17520357D01*
X8882357Y-17577500D01*
X8882357Y-17648929D01*
X8868071Y-17706072D01*
X8853786Y-17734643D01*
X8839500Y-17748929D01*
X8810929Y-17763214D01*
X8782357Y-17763214D01*
X8753786Y-17748929D01*
X8739500Y-17734643D01*
X8725214Y-17706072D01*
X8710929Y-17648929D01*
X8710929Y-17577500D01*
X8725214Y-17520357D01*
X8739500Y-17491786D01*
X8753786Y-17477500D01*
X8782357Y-17463214D01*
X9010929Y-17763214D02*
X9010929Y-17563214D01*
X9010929Y-17591786D02*
X9025214Y-17577500D01*
X9053786Y-17563214D01*
X9096643Y-17563214D01*
X9125214Y-17577500D01*
X9139500Y-17606072D01*
X9139500Y-17763214D01*
X9139500Y-17606072D02*
X9153786Y-17577500D01*
X9182357Y-17563214D01*
X9225214Y-17563214D01*
X9253786Y-17577500D01*
X9268071Y-17606072D01*
X9268071Y-17763214D01*
X9410929Y-17763214D02*
X9410929Y-17563214D01*
X9410929Y-17591786D02*
X9425214Y-17577500D01*
X9453786Y-17563214D01*
X9496643Y-17563214D01*
X9525214Y-17577500D01*
X9539500Y-17606072D01*
X9539500Y-17763214D01*
X9539500Y-17606072D02*
X9553786Y-17577500D01*
X9582357Y-17563214D01*
X9625214Y-17563214D01*
X9653786Y-17577500D01*
X9668071Y-17606072D01*
X9668071Y-17763214D01*
X10253786Y-17448929D02*
X9996643Y-17834643D01*
X10639500Y-17463214D02*
X10668071Y-17463214D01*
X10696643Y-17477500D01*
X10710928Y-17491786D01*
X10725214Y-17520357D01*
X10739500Y-17577500D01*
X10739500Y-17648929D01*
X10725214Y-17706072D01*
X10710928Y-17734643D01*
X10696643Y-17748929D01*
X10668071Y-17763214D01*
X10639500Y-17763214D01*
X10610928Y-17748929D01*
X10596643Y-17734643D01*
X10582357Y-17706072D01*
X10568071Y-17648929D01*
X10568071Y-17577500D01*
X10582357Y-17520357D01*
X10596643Y-17491786D01*
X10610928Y-17477500D01*
X10639500Y-17463214D01*
X10868071Y-17734643D02*
X10882357Y-17748929D01*
X10868071Y-17763214D01*
X10853786Y-17748929D01*
X10868071Y-17734643D01*
X10868071Y-17763214D01*
X11068071Y-17463214D02*
X11096643Y-17463214D01*
X11125214Y-17477500D01*
X11139500Y-17491786D01*
X11153786Y-17520357D01*
X11168071Y-17577500D01*
X11168071Y-17648929D01*
X11153786Y-17706072D01*
X11139500Y-17734643D01*
X11125214Y-17748929D01*
X11096643Y-17763214D01*
X11068071Y-17763214D01*
X11039500Y-17748929D01*
X11025214Y-17734643D01*
X11010928Y-17706072D01*
X10996643Y-17648929D01*
X10996643Y-17577500D01*
X11010928Y-17520357D01*
X11025214Y-17491786D01*
X11039500Y-17477500D01*
X11068071Y-17463214D01*
X11425214Y-17563214D02*
X11425214Y-17763214D01*
X11353785Y-17448929D02*
X11282357Y-17663214D01*
X11468071Y-17663214D01*
X11553785Y-17463214D02*
X11739500Y-17463214D01*
X11639500Y-17577500D01*
X11682357Y-17577500D01*
X11710928Y-17591786D01*
X11725214Y-17606072D01*
X11739500Y-17634643D01*
X11739500Y-17706072D01*
X11725214Y-17734643D01*
X11710928Y-17748929D01*
X11682357Y-17763214D01*
X11596643Y-17763214D01*
X11568071Y-17748929D01*
X11553785Y-17734643D01*
X11853786Y-17463214D02*
X11853786Y-17520357D01*
X11968071Y-17463214D02*
X11968071Y-17520357D01*
X12410928Y-17877500D02*
X12396643Y-17863214D01*
X12368071Y-17820357D01*
X12353785Y-17791786D01*
X12339500Y-17748929D01*
X12325214Y-17677500D01*
X12325214Y-17620357D01*
X12339500Y-17548929D01*
X12353785Y-17506072D01*
X12368071Y-17477500D01*
X12396643Y-17434643D01*
X12410928Y-17420357D01*
X12653785Y-17563214D02*
X12653785Y-17763214D01*
X12582357Y-17448929D02*
X12510928Y-17663214D01*
X12696643Y-17663214D01*
X13039500Y-17763214D02*
X13039500Y-17463214D01*
X13168071Y-17763214D02*
X13168071Y-17606072D01*
X13153785Y-17577500D01*
X13125214Y-17563214D01*
X13082357Y-17563214D01*
X13053785Y-17577500D01*
X13039500Y-17591786D01*
X13353785Y-17763214D02*
X13325214Y-17748929D01*
X13310928Y-17734643D01*
X13296643Y-17706072D01*
X13296643Y-17620357D01*
X13310928Y-17591786D01*
X13325214Y-17577500D01*
X13353785Y-17563214D01*
X13396643Y-17563214D01*
X13425214Y-17577500D01*
X13439500Y-17591786D01*
X13453785Y-17620357D01*
X13453785Y-17706072D01*
X13439500Y-17734643D01*
X13425214Y-17748929D01*
X13396643Y-17763214D01*
X13353785Y-17763214D01*
X13625214Y-17763214D02*
X13596643Y-17748929D01*
X13582357Y-17720357D01*
X13582357Y-17463214D01*
X13853786Y-17748929D02*
X13825214Y-17763214D01*
X13768071Y-17763214D01*
X13739500Y-17748929D01*
X13725214Y-17720357D01*
X13725214Y-17606072D01*
X13739500Y-17577500D01*
X13768071Y-17563214D01*
X13825214Y-17563214D01*
X13853786Y-17577500D01*
X13868071Y-17606072D01*
X13868071Y-17634643D01*
X13725214Y-17663214D01*
X13982357Y-17748929D02*
X14010928Y-17763214D01*
X14068071Y-17763214D01*
X14096643Y-17748929D01*
X14110928Y-17720357D01*
X14110928Y-17706072D01*
X14096643Y-17677500D01*
X14068071Y-17663214D01*
X14025214Y-17663214D01*
X13996643Y-17648929D01*
X13982357Y-17620357D01*
X13982357Y-17606072D01*
X13996643Y-17577500D01*
X14025214Y-17563214D01*
X14068071Y-17563214D01*
X14096643Y-17577500D01*
X14210928Y-17877500D02*
X14225214Y-17863214D01*
X14253786Y-17820357D01*
X14268071Y-17791786D01*
X14282357Y-17748929D01*
X14296643Y-17677500D01*
X14296643Y-17620357D01*
X14282357Y-17548929D01*
X14268071Y-17506072D01*
X14253786Y-17477500D01*
X14225214Y-17434643D01*
X14210928Y-17420357D01*
M02*
