G04 #@! TF.GenerationSoftware,KiCad,Pcbnew,5.0.0*
G04 #@! TF.CreationDate,2018-10-17T23:37:25+09:00*
G04 #@! TF.ProjectId,CheeseUnua,436865657365556E75612E6B69636164,rev?*
G04 #@! TF.SameCoordinates,Original*
G04 #@! TF.FileFunction,Legend,Bot*
G04 #@! TF.FilePolarity,Positive*
%FSLAX46Y46*%
G04 Gerber Fmt 4.6, Leading zero omitted, Abs format (unit mm)*
G04 Created by KiCad (PCBNEW 5.0.0) date Wed Oct 17 23:37:25 2018*
%MOMM*%
%LPD*%
G01*
G04 APERTURE LIST*
%ADD10C,0.300000*%
G04 APERTURE END LIST*
D10*
X172050371Y-85122142D02*
X172157514Y-85015000D01*
X172264657Y-84693571D01*
X172264657Y-84479285D01*
X172157514Y-84157857D01*
X171943228Y-83943571D01*
X171728942Y-83836428D01*
X171300371Y-83729285D01*
X170978942Y-83729285D01*
X170550371Y-83836428D01*
X170336085Y-83943571D01*
X170121800Y-84157857D01*
X170014657Y-84479285D01*
X170014657Y-84693571D01*
X170121800Y-85015000D01*
X170228942Y-85122142D01*
X172264657Y-86086428D02*
X170014657Y-86086428D01*
X172264657Y-87050714D02*
X171086085Y-87050714D01*
X170871800Y-86943571D01*
X170764657Y-86729285D01*
X170764657Y-86407857D01*
X170871800Y-86193571D01*
X170978942Y-86086428D01*
X172157514Y-88979285D02*
X172264657Y-88765000D01*
X172264657Y-88336428D01*
X172157514Y-88122142D01*
X171943228Y-88015000D01*
X171086085Y-88015000D01*
X170871800Y-88122142D01*
X170764657Y-88336428D01*
X170764657Y-88765000D01*
X170871800Y-88979285D01*
X171086085Y-89086428D01*
X171300371Y-89086428D01*
X171514657Y-88015000D01*
X172157514Y-90907857D02*
X172264657Y-90693571D01*
X172264657Y-90265000D01*
X172157514Y-90050714D01*
X171943228Y-89943571D01*
X171086085Y-89943571D01*
X170871800Y-90050714D01*
X170764657Y-90265000D01*
X170764657Y-90693571D01*
X170871800Y-90907857D01*
X171086085Y-91015000D01*
X171300371Y-91015000D01*
X171514657Y-89943571D01*
X172157514Y-91872142D02*
X172264657Y-92086428D01*
X172264657Y-92515000D01*
X172157514Y-92729285D01*
X171943228Y-92836428D01*
X171836085Y-92836428D01*
X171621800Y-92729285D01*
X171514657Y-92515000D01*
X171514657Y-92193571D01*
X171407514Y-91979285D01*
X171193228Y-91872142D01*
X171086085Y-91872142D01*
X170871800Y-91979285D01*
X170764657Y-92193571D01*
X170764657Y-92515000D01*
X170871800Y-92729285D01*
X172157514Y-94657857D02*
X172264657Y-94443571D01*
X172264657Y-94015000D01*
X172157514Y-93800714D01*
X171943228Y-93693571D01*
X171086085Y-93693571D01*
X170871800Y-93800714D01*
X170764657Y-94015000D01*
X170764657Y-94443571D01*
X170871800Y-94657857D01*
X171086085Y-94765000D01*
X171300371Y-94765000D01*
X171514657Y-93693571D01*
X170014657Y-97122142D02*
X170014657Y-98407857D01*
X172264657Y-97765000D02*
X170014657Y-97765000D01*
X170764657Y-100122142D02*
X172264657Y-100122142D01*
X170764657Y-99157857D02*
X171943228Y-99157857D01*
X172157514Y-99264999D01*
X172264657Y-99479285D01*
X172264657Y-99800714D01*
X172157514Y-100014999D01*
X172050371Y-100122142D01*
X170764657Y-100872142D02*
X170764657Y-101729285D01*
X170014657Y-101193571D02*
X171943228Y-101193571D01*
X172157514Y-101300714D01*
X172264657Y-101515000D01*
X172264657Y-101729285D01*
X172264657Y-102800714D02*
X172157514Y-102586428D01*
X172050371Y-102479285D01*
X171836085Y-102372142D01*
X171193228Y-102372142D01*
X170978942Y-102479285D01*
X170871800Y-102586428D01*
X170764657Y-102800714D01*
X170764657Y-103122142D01*
X170871800Y-103336428D01*
X170978942Y-103443571D01*
X171193228Y-103550714D01*
X171836085Y-103550714D01*
X172050371Y-103443571D01*
X172157514Y-103336428D01*
X172264657Y-103122142D01*
X172264657Y-102800714D01*
X172264657Y-104515000D02*
X170764657Y-104515000D01*
X171193228Y-104515000D02*
X170978942Y-104622142D01*
X170871800Y-104729285D01*
X170764657Y-104943571D01*
X170764657Y-105157857D01*
X172264657Y-105907857D02*
X170764657Y-105907857D01*
X170014657Y-105907857D02*
X170121800Y-105800714D01*
X170228942Y-105907857D01*
X170121800Y-106015000D01*
X170014657Y-105907857D01*
X170228942Y-105907857D01*
X172264657Y-107943571D02*
X171086085Y-107943571D01*
X170871800Y-107836428D01*
X170764657Y-107622142D01*
X170764657Y-107193571D01*
X170871800Y-106979285D01*
X172157514Y-107943571D02*
X172264657Y-107729285D01*
X172264657Y-107193571D01*
X172157514Y-106979285D01*
X171943228Y-106872142D01*
X171728942Y-106872142D01*
X171514657Y-106979285D01*
X171407514Y-107193571D01*
X171407514Y-107729285D01*
X171300371Y-107943571D01*
X172264657Y-109336428D02*
X172157514Y-109122142D01*
X171943228Y-109015000D01*
X170014657Y-109015000D01*
X171086085Y-112657857D02*
X171193228Y-112979285D01*
X171300371Y-113086428D01*
X171514657Y-113193571D01*
X171836085Y-113193571D01*
X172050371Y-113086428D01*
X172157514Y-112979285D01*
X172264657Y-112765000D01*
X172264657Y-111907857D01*
X170014657Y-111907857D01*
X170014657Y-112657857D01*
X170121800Y-112872142D01*
X170228942Y-112979285D01*
X170443228Y-113086428D01*
X170657514Y-113086428D01*
X170871800Y-112979285D01*
X170978942Y-112872142D01*
X171086085Y-112657857D01*
X171086085Y-111907857D01*
X172264657Y-114479285D02*
X172157514Y-114265000D01*
X172050371Y-114157857D01*
X171836085Y-114050714D01*
X171193228Y-114050714D01*
X170978942Y-114157857D01*
X170871800Y-114265000D01*
X170764657Y-114479285D01*
X170764657Y-114800714D01*
X170871800Y-115015000D01*
X170978942Y-115122142D01*
X171193228Y-115229285D01*
X171836085Y-115229285D01*
X172050371Y-115122142D01*
X172157514Y-115015000D01*
X172264657Y-114800714D01*
X172264657Y-114479285D01*
X172264657Y-117157857D02*
X171086085Y-117157857D01*
X170871800Y-117050714D01*
X170764657Y-116836428D01*
X170764657Y-116407857D01*
X170871800Y-116193571D01*
X172157514Y-117157857D02*
X172264657Y-116943571D01*
X172264657Y-116407857D01*
X172157514Y-116193571D01*
X171943228Y-116086428D01*
X171728942Y-116086428D01*
X171514657Y-116193571D01*
X171407514Y-116407857D01*
X171407514Y-116943571D01*
X171300371Y-117157857D01*
X172264657Y-118229285D02*
X170764657Y-118229285D01*
X171193228Y-118229285D02*
X170978942Y-118336428D01*
X170871800Y-118443571D01*
X170764657Y-118657857D01*
X170764657Y-118872142D01*
X172264657Y-120586428D02*
X170014657Y-120586428D01*
X172157514Y-120586428D02*
X172264657Y-120372142D01*
X172264657Y-119943571D01*
X172157514Y-119729285D01*
X172050371Y-119622142D01*
X171836085Y-119515000D01*
X171193228Y-119515000D01*
X170978942Y-119622142D01*
X170871800Y-119729285D01*
X170764657Y-119943571D01*
X170764657Y-120372142D01*
X170871800Y-120586428D01*
X170764657Y-121443571D02*
X172264657Y-121979285D01*
X170764657Y-122515000D01*
X170228942Y-123265000D02*
X170121800Y-123372142D01*
X170014657Y-123586428D01*
X170014657Y-124122142D01*
X170121800Y-124336428D01*
X170228942Y-124443571D01*
X170443228Y-124550714D01*
X170657514Y-124550714D01*
X170978942Y-124443571D01*
X172264657Y-123157857D01*
X172264657Y-124550714D01*
M02*
