G04 #@! TF.GenerationSoftware,KiCad,Pcbnew,5.0.0*
G04 #@! TF.CreationDate,2018-10-17T23:37:25+09:00*
G04 #@! TF.ProjectId,CheeseUnua,436865657365556E75612E6B69636164,rev?*
G04 #@! TF.SameCoordinates,Original*
G04 #@! TF.FileFunction,Copper,L2,Bot,Signal*
G04 #@! TF.FilePolarity,Positive*
%FSLAX46Y46*%
G04 Gerber Fmt 4.6, Leading zero omitted, Abs format (unit mm)*
G04 Created by KiCad (PCBNEW 5.0.0) date Wed Oct 17 23:37:25 2018*
%MOMM*%
%LPD*%
G01*
G04 APERTURE LIST*
G04 #@! TA.AperFunction,ComponentPad*
%ADD10C,1.600000*%
G04 #@! TD*
G04 #@! TA.AperFunction,ComponentPad*
%ADD11R,1.600000X1.600000*%
G04 #@! TD*
G04 #@! TA.AperFunction,ComponentPad*
%ADD12R,1.800000X1.800000*%
G04 #@! TD*
G04 #@! TA.AperFunction,ComponentPad*
%ADD13C,1.800000*%
G04 #@! TD*
G04 #@! TA.AperFunction,ComponentPad*
%ADD14R,3.500000X3.500000*%
G04 #@! TD*
G04 #@! TA.AperFunction,ComponentPad*
%ADD15R,1.750000X1.750000*%
G04 #@! TD*
G04 #@! TA.AperFunction,ComponentPad*
%ADD16C,1.750000*%
G04 #@! TD*
G04 #@! TA.AperFunction,ComponentPad*
%ADD17R,1.700000X1.700000*%
G04 #@! TD*
G04 #@! TA.AperFunction,ComponentPad*
%ADD18O,1.700000X1.700000*%
G04 #@! TD*
G04 #@! TA.AperFunction,ComponentPad*
%ADD19R,1.905000X1.905000*%
G04 #@! TD*
G04 #@! TA.AperFunction,ComponentPad*
%ADD20C,1.905000*%
G04 #@! TD*
G04 #@! TA.AperFunction,ComponentPad*
%ADD21C,2.499360*%
G04 #@! TD*
G04 #@! TA.AperFunction,ComponentPad*
%ADD22O,1.800000X1.800000*%
G04 #@! TD*
G04 #@! TA.AperFunction,ComponentPad*
%ADD23C,1.524000*%
G04 #@! TD*
G04 #@! TA.AperFunction,ComponentPad*
%ADD24O,1.524000X2.524000*%
G04 #@! TD*
G04 #@! TA.AperFunction,ComponentPad*
%ADD25O,1.600000X1.600000*%
G04 #@! TD*
G04 #@! TA.AperFunction,ComponentPad*
%ADD26C,2.000000*%
G04 #@! TD*
G04 #@! TA.AperFunction,ComponentPad*
%ADD27O,1.400000X1.400000*%
G04 #@! TD*
G04 #@! TA.AperFunction,ComponentPad*
%ADD28C,1.400000*%
G04 #@! TD*
G04 #@! TA.AperFunction,ViaPad*
%ADD29C,0.600000*%
G04 #@! TD*
G04 #@! TA.AperFunction,Conductor*
%ADD30C,0.250000*%
G04 #@! TD*
G04 #@! TA.AperFunction,Conductor*
%ADD31C,0.500000*%
G04 #@! TD*
G04 #@! TA.AperFunction,Conductor*
%ADD32C,0.254000*%
G04 #@! TD*
G04 APERTURE END LIST*
D10*
G04 #@! TO.P,C1,1*
G04 #@! TO.N,N/C*
X104775000Y-112395000D03*
G04 #@! TO.P,C1,2*
G04 #@! TO.N,GND*
X102275000Y-112395000D03*
G04 #@! TD*
G04 #@! TO.P,C2,1*
G04 #@! TO.N,Net-(C2-Pad1)*
X107188000Y-112268000D03*
G04 #@! TO.P,C2,2*
G04 #@! TO.N,GND*
X109688000Y-112268000D03*
G04 #@! TD*
G04 #@! TO.P,C3,1*
G04 #@! TO.N,+3V3*
X122555000Y-112395000D03*
G04 #@! TO.P,C3,2*
G04 #@! TO.N,Net-(C3-Pad2)*
X125055000Y-112395000D03*
G04 #@! TD*
D11*
G04 #@! TO.P,C4,1*
G04 #@! TO.N,+3V3*
X93472000Y-106172000D03*
D10*
G04 #@! TO.P,C4,2*
G04 #@! TO.N,GND*
X93472000Y-108672000D03*
G04 #@! TD*
G04 #@! TO.P,C5,1*
G04 #@! TO.N,+3.3VA*
X163830000Y-99060000D03*
G04 #@! TO.P,C5,2*
G04 #@! TO.N,GND*
X166330000Y-99060000D03*
G04 #@! TD*
D11*
G04 #@! TO.P,C6,1*
G04 #@! TO.N,+BATT*
X96367600Y-122276000D03*
D10*
G04 #@! TO.P,C6,2*
G04 #@! TO.N,GND*
X96367600Y-124776000D03*
G04 #@! TD*
G04 #@! TO.P,C7,1*
G04 #@! TO.N,/1.65V*
X142240000Y-83185000D03*
G04 #@! TO.P,C7,2*
G04 #@! TO.N,GND*
X144740000Y-83185000D03*
G04 #@! TD*
G04 #@! TO.P,C8,1*
G04 #@! TO.N,GND*
X166370000Y-92710000D03*
G04 #@! TO.P,C8,2*
G04 #@! TO.N,+BATT*
X163870000Y-92710000D03*
G04 #@! TD*
G04 #@! TO.P,C9,1*
G04 #@! TO.N,Net-(C10-Pad2)*
X142240000Y-67945000D03*
G04 #@! TO.P,C9,2*
G04 #@! TO.N,Net-(C9-Pad2)*
X144740000Y-67945000D03*
G04 #@! TD*
G04 #@! TO.P,C10,1*
G04 #@! TO.N,IR_SENSOR*
X144780000Y-70485000D03*
G04 #@! TO.P,C10,2*
G04 #@! TO.N,Net-(C10-Pad2)*
X142280000Y-70485000D03*
G04 #@! TD*
G04 #@! TO.P,C11,1*
G04 #@! TO.N,+3.3VA*
X163830000Y-95250000D03*
G04 #@! TO.P,C11,2*
G04 #@! TO.N,GND*
X166330000Y-95250000D03*
G04 #@! TD*
D12*
G04 #@! TO.P,D1,1*
G04 #@! TO.N,LED*
X97790000Y-114935000D03*
D13*
G04 #@! TO.P,D1,2*
G04 #@! TO.N,Net-(D1-Pad2)*
X95250000Y-114935000D03*
G04 #@! TD*
D12*
G04 #@! TO.P,D2,1*
G04 #@! TO.N,GND*
X87630000Y-108585000D03*
D13*
G04 #@! TO.P,D2,2*
G04 #@! TO.N,Net-(D2-Pad2)*
X87630000Y-106045000D03*
G04 #@! TD*
D12*
G04 #@! TO.P,D3,1*
G04 #@! TO.N,GND*
X166116000Y-105410000D03*
D13*
G04 #@! TO.P,D3,2*
G04 #@! TO.N,Net-(D3-Pad2)*
X163576000Y-105410000D03*
G04 #@! TD*
D12*
G04 #@! TO.P,D4,1*
G04 #@! TO.N,Net-(D4-Pad1)*
X151765000Y-67945000D03*
D13*
G04 #@! TO.P,D4,2*
G04 #@! TO.N,+BATT*
X154305000Y-67945000D03*
G04 #@! TD*
D14*
G04 #@! TO.P,J1,1*
G04 #@! TO.N,Net-(J1-Pad1)*
X91440000Y-116205000D03*
G04 #@! TO.P,J1,2*
G04 #@! TO.N,GND*
X85440000Y-116205000D03*
G04 #@! TO.P,J1,3*
X88440000Y-120905000D03*
G04 #@! TD*
D15*
G04 #@! TO.P,J2,1*
G04 #@! TO.N,Net-(J2-Pad1)*
X84455000Y-73660000D03*
D16*
G04 #@! TO.P,J2,2*
G04 #@! TO.N,GND*
X84455000Y-76160000D03*
G04 #@! TD*
D17*
G04 #@! TO.P,J7,1*
G04 #@! TO.N,GND*
X99568000Y-108712000D03*
D18*
G04 #@! TO.P,J7,2*
G04 #@! TO.N,+3V3*
X99568000Y-106172000D03*
G04 #@! TO.P,J7,3*
G04 #@! TO.N,N/C*
X102108000Y-108712000D03*
G04 #@! TO.P,J7,4*
X102108000Y-106172000D03*
G04 #@! TO.P,J7,5*
G04 #@! TO.N,TX*
X104648000Y-108712000D03*
G04 #@! TO.P,J7,6*
G04 #@! TO.N,RX*
X104648000Y-106172000D03*
G04 #@! TO.P,J7,7*
G04 #@! TO.N,N/C*
X107188000Y-108712000D03*
G04 #@! TO.P,J7,8*
X107188000Y-106172000D03*
G04 #@! TO.P,J7,9*
X109728000Y-108712000D03*
G04 #@! TO.P,J7,10*
X109728000Y-106172000D03*
G04 #@! TO.P,J7,11*
X112268000Y-108712000D03*
G04 #@! TO.P,J7,12*
X112268000Y-106172000D03*
G04 #@! TO.P,J7,13*
X114808000Y-108712000D03*
G04 #@! TO.P,J7,14*
X114808000Y-106172000D03*
G04 #@! TO.P,J7,15*
X117348000Y-108712000D03*
G04 #@! TO.P,J7,16*
G04 #@! TO.N,SWDIO*
X117348000Y-106172000D03*
G04 #@! TO.P,J7,17*
G04 #@! TO.N,SWCLK*
X119888000Y-108712000D03*
G04 #@! TO.P,J7,18*
G04 #@! TO.N,N/C*
X119888000Y-106172000D03*
G04 #@! TO.P,J7,19*
G04 #@! TO.N,LCD_SCL*
X122428000Y-108712000D03*
G04 #@! TO.P,J7,20*
G04 #@! TO.N,LCD_SDA*
X122428000Y-106172000D03*
G04 #@! TO.P,J7,21*
G04 #@! TO.N,SW*
X124968000Y-108712000D03*
G04 #@! TO.P,J7,22*
G04 #@! TO.N,BUZZER*
X124968000Y-106172000D03*
G04 #@! TO.P,J7,23*
G04 #@! TO.N,7SEG_A*
X127508000Y-108712000D03*
G04 #@! TO.P,J7,24*
G04 #@! TO.N,7SEG_B*
X127508000Y-106172000D03*
G04 #@! TO.P,J7,25*
G04 #@! TO.N,7SEG_C*
X130048000Y-108712000D03*
G04 #@! TO.P,J7,26*
G04 #@! TO.N,7SEG_D*
X130048000Y-106172000D03*
G04 #@! TD*
D17*
G04 #@! TO.P,J8,1*
G04 #@! TO.N,GND*
X130048000Y-80772000D03*
D18*
G04 #@! TO.P,J8,2*
G04 #@! TO.N,+3V3*
X130048000Y-83312000D03*
G04 #@! TO.P,J8,3*
G04 #@! TO.N,BATT_MONITOR*
X127508000Y-80772000D03*
G04 #@! TO.P,J8,4*
G04 #@! TO.N,IR_SENSOR*
X127508000Y-83312000D03*
G04 #@! TO.P,J8,5*
G04 #@! TO.N,N/C*
X124968000Y-80772000D03*
G04 #@! TO.P,J8,6*
X124968000Y-83312000D03*
G04 #@! TO.P,J8,7*
X122428000Y-80772000D03*
G04 #@! TO.P,J8,8*
X122428000Y-83312000D03*
G04 #@! TO.P,J8,9*
G04 #@! TO.N,IR_LED*
X119888000Y-80772000D03*
G04 #@! TO.P,J8,10*
G04 #@! TO.N,MOTOR_CLK*
X119888000Y-83312000D03*
G04 #@! TO.P,J8,11*
G04 #@! TO.N,N/C*
X117348000Y-80772000D03*
G04 #@! TO.P,J8,12*
X117348000Y-83312000D03*
G04 #@! TO.P,J8,13*
G04 #@! TO.N,7SEG_E*
X114808000Y-80772000D03*
G04 #@! TO.P,J8,14*
G04 #@! TO.N,7SEG_F*
X114808000Y-83312000D03*
G04 #@! TO.P,J8,15*
G04 #@! TO.N,7SEG_G*
X112268000Y-80772000D03*
G04 #@! TO.P,J8,16*
G04 #@! TO.N,7SEG_H*
X112268000Y-83312000D03*
G04 #@! TO.P,J8,17*
G04 #@! TO.N,LED*
X109728000Y-80772000D03*
G04 #@! TO.P,J8,18*
G04 #@! TO.N,LCD_RESET*
X109728000Y-83312000D03*
G04 #@! TO.P,J8,19*
G04 #@! TO.N,N/C*
X107188000Y-80772000D03*
G04 #@! TO.P,J8,20*
X107188000Y-83312000D03*
G04 #@! TO.P,J8,21*
X104648000Y-80772000D03*
G04 #@! TO.P,J8,22*
G04 #@! TO.N,MOTOR_MODE*
X104648000Y-83312000D03*
G04 #@! TO.P,J8,23*
G04 #@! TO.N,MOTOR_DIR*
X102108000Y-80772000D03*
G04 #@! TO.P,J8,24*
G04 #@! TO.N,MOTOR_RESET*
X102108000Y-83312000D03*
G04 #@! TO.P,J8,25*
G04 #@! TO.N,+3V3*
X99568000Y-80772000D03*
G04 #@! TO.P,J8,26*
G04 #@! TO.N,NRST*
X99568000Y-83312000D03*
G04 #@! TD*
D19*
G04 #@! TO.P,L1,1*
G04 #@! TO.N,+3.3VA*
X91440000Y-86766400D03*
D20*
G04 #@! TO.P,L1,2*
G04 #@! TO.N,Net-(L1-Pad2)*
X91440000Y-81686400D03*
G04 #@! TD*
D21*
G04 #@! TO.P,LS1,2*
G04 #@! TO.N,BUZZER*
X152044000Y-90576400D03*
G04 #@! TO.P,LS1,1*
G04 #@! TO.N,+3V3*
X152044000Y-100736400D03*
G04 #@! TD*
D12*
G04 #@! TO.P,Q1,1*
G04 #@! TO.N,Net-(Q1-Pad1)*
X99060000Y-70485000D03*
D22*
G04 #@! TO.P,Q1,2*
G04 #@! TO.N,Net-(F1-Pad1)*
X99060000Y-73025000D03*
G04 #@! TO.P,Q1,3*
G04 #@! TO.N,+BATT*
X99060000Y-75565000D03*
G04 #@! TD*
D12*
G04 #@! TO.P,Q2,1*
G04 #@! TO.N,Net-(Q2-Pad1)*
X93345000Y-98425000D03*
D22*
G04 #@! TO.P,Q2,2*
G04 #@! TO.N,Net-(D4-Pad1)*
X93345000Y-95885000D03*
G04 #@! TO.P,Q2,3*
G04 #@! TO.N,Net-(Q2-Pad3)*
X93345000Y-93345000D03*
G04 #@! TD*
D17*
G04 #@! TO.P,SW2,1*
G04 #@! TO.N,Net-(Q1-Pad1)*
X104775000Y-70485000D03*
D18*
G04 #@! TO.P,SW2,2*
G04 #@! TO.N,GND*
X104775000Y-73025000D03*
G04 #@! TO.P,SW2,3*
G04 #@! TO.N,N/C*
X104775000Y-75565000D03*
G04 #@! TD*
D23*
G04 #@! TO.P,U2,1*
G04 #@! TO.N,Net-(J5-Pad4)*
X130175000Y-115570000D03*
G04 #@! TO.P,U2,2*
X128905000Y-119380000D03*
G04 #@! TO.P,U2,3*
G04 #@! TO.N,Net-(J5-Pad6)*
X127635000Y-115570000D03*
G04 #@! TO.P,U2,4*
X126365000Y-119380000D03*
G04 #@! TO.P,U2,5*
G04 #@! TO.N,N/C*
X125095000Y-115570000D03*
G04 #@! TO.P,U2,6*
X123825000Y-119380000D03*
G04 #@! TO.P,U2,7*
G04 #@! TO.N,+3V3*
X122555000Y-115570000D03*
G04 #@! TO.P,U2,8*
X121285000Y-119380000D03*
G04 #@! TO.P,U2,9*
G04 #@! TO.N,MOTOR_MODE*
X120015000Y-115570000D03*
G04 #@! TO.P,U2,10*
G04 #@! TO.N,MOTOR_CLK*
X118745000Y-119380000D03*
G04 #@! TO.P,U2,11*
G04 #@! TO.N,+BATT*
X117475000Y-115570000D03*
G04 #@! TO.P,U2,12*
G04 #@! TO.N,GND*
X116205000Y-119380000D03*
G04 #@! TO.P,U2,13*
G04 #@! TO.N,Net-(C2-Pad1)*
X114935000Y-115570000D03*
G04 #@! TO.P,U2,14*
G04 #@! TO.N,+3V3*
X113665000Y-119380000D03*
G04 #@! TO.P,U2,15*
G04 #@! TO.N,MOTOR_RESET*
X112395000Y-115570000D03*
G04 #@! TO.P,U2,16*
G04 #@! TO.N,MOTOR_DIR*
X111125000Y-119380000D03*
G04 #@! TO.P,U2,17*
G04 #@! TO.N,+3V3*
X109855000Y-115570000D03*
G04 #@! TO.P,U2,18*
G04 #@! TO.N,N/C*
X108585000Y-119380000D03*
G04 #@! TO.P,U2,19*
X107315000Y-115570000D03*
G04 #@! TO.P,U2,20*
G04 #@! TO.N,Net-(J5-Pad1)*
X106045000Y-119380000D03*
G04 #@! TO.P,U2,21*
X104775000Y-115570000D03*
G04 #@! TO.P,U2,22*
G04 #@! TO.N,Net-(J5-Pad3)*
X103505000Y-119380000D03*
G04 #@! TO.P,U2,23*
X102235000Y-115570000D03*
G04 #@! TD*
D24*
G04 #@! TO.P,U3,1*
G04 #@! TO.N,Net-(R19-Pad1)*
X149860000Y-124714000D03*
G04 #@! TO.P,U3,2*
G04 #@! TO.N,Net-(R18-Pad1)*
X152400000Y-124714000D03*
G04 #@! TO.P,U3,3*
G04 #@! TO.N,+3V3*
X154940000Y-124714000D03*
G04 #@! TO.P,U3,4*
G04 #@! TO.N,Net-(R17-Pad1)*
X157480000Y-124714000D03*
G04 #@! TO.P,U3,5*
G04 #@! TO.N,Net-(R22-Pad1)*
X160020000Y-124714000D03*
G04 #@! TO.P,U3,6*
G04 #@! TO.N,Net-(R16-Pad1)*
X160020000Y-109474000D03*
G04 #@! TO.P,U3,7*
G04 #@! TO.N,Net-(R15-Pad1)*
X157480000Y-109474000D03*
G04 #@! TO.P,U3,8*
G04 #@! TO.N,+3V3*
X154940000Y-109474000D03*
G04 #@! TO.P,U3,9*
G04 #@! TO.N,Net-(R20-Pad1)*
X152400000Y-109474000D03*
G04 #@! TO.P,U3,10*
G04 #@! TO.N,Net-(R21-Pad1)*
X149860000Y-109474000D03*
G04 #@! TD*
D11*
G04 #@! TO.P,U4,1*
G04 #@! TO.N,Net-(R23-Pad2)*
X160655000Y-75565000D03*
D25*
G04 #@! TO.P,U4,5*
G04 #@! TO.N,N/C*
X168275000Y-83185000D03*
G04 #@! TO.P,U4,2*
G04 #@! TO.N,Net-(Q2-Pad3)*
X160655000Y-78105000D03*
G04 #@! TO.P,U4,6*
G04 #@! TO.N,N/C*
X168275000Y-80645000D03*
G04 #@! TO.P,U4,3*
G04 #@! TO.N,IR_LED*
X160655000Y-80645000D03*
G04 #@! TO.P,U4,7*
G04 #@! TO.N,N/C*
X168275000Y-78105000D03*
G04 #@! TO.P,U4,4*
G04 #@! TO.N,GND*
X160655000Y-83185000D03*
G04 #@! TO.P,U4,8*
G04 #@! TO.N,+BATT*
X168275000Y-75565000D03*
G04 #@! TD*
D11*
G04 #@! TO.P,U5,1*
G04 #@! TO.N,IR_SENSOR*
X148590000Y-75565000D03*
D25*
G04 #@! TO.P,U5,5*
G04 #@! TO.N,N/C*
X156210000Y-83185000D03*
G04 #@! TO.P,U5,2*
G04 #@! TO.N,Net-(C10-Pad2)*
X148590000Y-78105000D03*
G04 #@! TO.P,U5,6*
G04 #@! TO.N,N/C*
X156210000Y-80645000D03*
G04 #@! TO.P,U5,3*
G04 #@! TO.N,/1.65V*
X148590000Y-80645000D03*
G04 #@! TO.P,U5,7*
G04 #@! TO.N,N/C*
X156210000Y-78105000D03*
G04 #@! TO.P,U5,4*
G04 #@! TO.N,GND*
X148590000Y-83185000D03*
G04 #@! TO.P,U5,8*
G04 #@! TO.N,+3.3VA*
X156210000Y-75565000D03*
G04 #@! TD*
D17*
G04 #@! TO.P,U1,1*
G04 #@! TO.N,+BATT*
X85725000Y-98425000D03*
D18*
G04 #@! TO.P,U1,2*
G04 #@! TO.N,GND*
X85725000Y-95885000D03*
G04 #@! TO.P,U1,3*
G04 #@! TO.N,+3V3*
X85725000Y-93345000D03*
G04 #@! TD*
D26*
G04 #@! TO.P,F1,1*
G04 #@! TO.N,Net-(F1-Pad1)*
X93980000Y-67945000D03*
G04 #@! TO.P,F1,2*
G04 #@! TO.N,Net-(F1-Pad2)*
X88900000Y-67935000D03*
G04 #@! TD*
D17*
G04 #@! TO.P,J3,1*
G04 #@! TO.N,+3V3*
X165100000Y-111404000D03*
D18*
G04 #@! TO.P,J3,2*
G04 #@! TO.N,SWCLK*
X165100000Y-113944000D03*
G04 #@! TO.P,J3,3*
G04 #@! TO.N,GND*
X165100000Y-116484000D03*
G04 #@! TO.P,J3,4*
G04 #@! TO.N,SWDIO*
X165100000Y-119024000D03*
G04 #@! TO.P,J3,5*
G04 #@! TO.N,NRST*
X165100000Y-121564000D03*
G04 #@! TD*
D17*
G04 #@! TO.P,J4,1*
G04 #@! TO.N,RX*
X131445000Y-75565000D03*
D18*
G04 #@! TO.P,J4,2*
G04 #@! TO.N,TX*
X128905000Y-75565000D03*
G04 #@! TO.P,J4,3*
G04 #@! TO.N,GND*
X126365000Y-75565000D03*
G04 #@! TD*
D17*
G04 #@! TO.P,J6,1*
G04 #@! TO.N,+3V3*
X110490000Y-75565000D03*
D18*
G04 #@! TO.P,J6,2*
G04 #@! TO.N,LCD_RESET*
X113030000Y-75565000D03*
G04 #@! TO.P,J6,3*
G04 #@! TO.N,LCD_SCL*
X115570000Y-75565000D03*
G04 #@! TO.P,J6,4*
G04 #@! TO.N,LCD_SDA*
X118110000Y-75565000D03*
G04 #@! TO.P,J6,5*
G04 #@! TO.N,GND*
X120650000Y-75565000D03*
G04 #@! TD*
D12*
G04 #@! TO.P,D6,1*
G04 #@! TO.N,+3.3VA*
X160655000Y-67945000D03*
D13*
G04 #@! TO.P,D6,2*
G04 #@! TO.N,Net-(C9-Pad2)*
X163195000Y-67945000D03*
G04 #@! TD*
D26*
G04 #@! TO.P,SW3,2*
G04 #@! TO.N,+3V3*
X135128000Y-118038000D03*
G04 #@! TO.P,SW3,1*
G04 #@! TO.N,Net-(R11-Pad1)*
X135128000Y-113538000D03*
G04 #@! TO.P,SW3,2*
G04 #@! TO.N,+3V3*
X141628000Y-118038000D03*
G04 #@! TO.P,SW3,1*
G04 #@! TO.N,Net-(R11-Pad1)*
X141628000Y-113538000D03*
G04 #@! TD*
D16*
G04 #@! TO.P,J5,6*
G04 #@! TO.N,Net-(J5-Pad6)*
X124895000Y-123825000D03*
G04 #@! TO.P,J5,5*
G04 #@! TO.N,+BATT*
X122395000Y-123825000D03*
G04 #@! TO.P,J5,4*
G04 #@! TO.N,Net-(J5-Pad4)*
X119895000Y-123825000D03*
G04 #@! TO.P,J5,3*
G04 #@! TO.N,Net-(J5-Pad3)*
X117395000Y-123825000D03*
G04 #@! TO.P,J5,2*
G04 #@! TO.N,+BATT*
X114895000Y-123825000D03*
D15*
G04 #@! TO.P,J5,1*
G04 #@! TO.N,Net-(J5-Pad1)*
X112395000Y-123825000D03*
G04 #@! TD*
D27*
G04 #@! TO.P,R1,2*
G04 #@! TO.N,BATT_MONITOR*
X105410000Y-86563200D03*
D28*
G04 #@! TO.P,R1,1*
G04 #@! TO.N,+BATT*
X97790000Y-86563200D03*
G04 #@! TD*
G04 #@! TO.P,R2,1*
G04 #@! TO.N,BATT_MONITOR*
X105664000Y-89408000D03*
D27*
G04 #@! TO.P,R2,2*
G04 #@! TO.N,GND*
X98044000Y-89408000D03*
G04 #@! TD*
D28*
G04 #@! TO.P,R3,1*
G04 #@! TO.N,+3V3*
X100584000Y-122936000D03*
D27*
G04 #@! TO.P,R3,2*
G04 #@! TO.N,Net-(R3-Pad2)*
X108204000Y-122936000D03*
G04 #@! TD*
D28*
G04 #@! TO.P,R4,1*
G04 #@! TO.N,Net-(R3-Pad2)*
X108204000Y-125476000D03*
D27*
G04 #@! TO.P,R4,2*
G04 #@! TO.N,GND*
X100584000Y-125476000D03*
G04 #@! TD*
D28*
G04 #@! TO.P,R5,1*
G04 #@! TO.N,N/C*
X117856000Y-68580000D03*
D27*
G04 #@! TO.P,R5,2*
G04 #@! TO.N,Net-(Q1-Pad1)*
X110236000Y-68580000D03*
G04 #@! TD*
D28*
G04 #@! TO.P,R6,1*
G04 #@! TO.N,Net-(C3-Pad2)*
X120015000Y-112395000D03*
D27*
G04 #@! TO.P,R6,2*
G04 #@! TO.N,GND*
X112395000Y-112395000D03*
G04 #@! TD*
G04 #@! TO.P,R7,2*
G04 #@! TO.N,Net-(D1-Pad2)*
X98044000Y-96012000D03*
D28*
G04 #@! TO.P,R7,1*
G04 #@! TO.N,+3V3*
X105664000Y-96012000D03*
G04 #@! TD*
D27*
G04 #@! TO.P,R8,2*
G04 #@! TO.N,Net-(D2-Pad2)*
X98044000Y-99060000D03*
D28*
G04 #@! TO.P,R8,1*
G04 #@! TO.N,N/C*
X105664000Y-99060000D03*
G04 #@! TD*
G04 #@! TO.P,R9,1*
G04 #@! TO.N,Net-(L1-Pad2)*
X117856000Y-71628000D03*
D27*
G04 #@! TO.P,R9,2*
G04 #@! TO.N,+3V3*
X110236000Y-71628000D03*
G04 #@! TD*
G04 #@! TO.P,R10,2*
G04 #@! TO.N,Net-(D3-Pad2)*
X140970000Y-109220000D03*
D28*
G04 #@! TO.P,R10,1*
G04 #@! TO.N,SW*
X133350000Y-109220000D03*
G04 #@! TD*
G04 #@! TO.P,R11,1*
G04 #@! TO.N,Net-(R11-Pad1)*
X133350000Y-106680000D03*
D27*
G04 #@! TO.P,R11,2*
G04 #@! TO.N,GND*
X140970000Y-106680000D03*
G04 #@! TD*
D28*
G04 #@! TO.P,R12,1*
G04 #@! TO.N,+3.3VA*
X146050000Y-80645000D03*
D27*
G04 #@! TO.P,R12,2*
G04 #@! TO.N,/1.65V*
X138430000Y-80645000D03*
G04 #@! TD*
G04 #@! TO.P,R13,2*
G04 #@! TO.N,GND*
X138430000Y-78105000D03*
D28*
G04 #@! TO.P,R13,1*
G04 #@! TO.N,/1.65V*
X146050000Y-78105000D03*
G04 #@! TD*
D27*
G04 #@! TO.P,R14,2*
G04 #@! TO.N,GND*
X170180000Y-88900000D03*
D28*
G04 #@! TO.P,R14,1*
G04 #@! TO.N,N/C*
X162560000Y-88900000D03*
G04 #@! TD*
D27*
G04 #@! TO.P,R15,2*
G04 #@! TO.N,7SEG_A*
X133096000Y-104140000D03*
D28*
G04 #@! TO.P,R15,1*
G04 #@! TO.N,Net-(R15-Pad1)*
X140716000Y-104140000D03*
G04 #@! TD*
D27*
G04 #@! TO.P,R16,2*
G04 #@! TO.N,7SEG_B*
X133096000Y-101600000D03*
D28*
G04 #@! TO.P,R16,1*
G04 #@! TO.N,Net-(R16-Pad1)*
X140716000Y-101600000D03*
G04 #@! TD*
D27*
G04 #@! TO.P,R17,2*
G04 #@! TO.N,7SEG_C*
X133096000Y-99060000D03*
D28*
G04 #@! TO.P,R17,1*
G04 #@! TO.N,Net-(R17-Pad1)*
X140716000Y-99060000D03*
G04 #@! TD*
G04 #@! TO.P,R18,1*
G04 #@! TO.N,Net-(R18-Pad1)*
X140716000Y-96520000D03*
D27*
G04 #@! TO.P,R18,2*
G04 #@! TO.N,7SEG_D*
X133096000Y-96520000D03*
G04 #@! TD*
G04 #@! TO.P,R19,2*
G04 #@! TO.N,7SEG_E*
X133096000Y-93980000D03*
D28*
G04 #@! TO.P,R19,1*
G04 #@! TO.N,Net-(R19-Pad1)*
X140716000Y-93980000D03*
G04 #@! TD*
D27*
G04 #@! TO.P,R20,2*
G04 #@! TO.N,7SEG_F*
X133096000Y-91440000D03*
D28*
G04 #@! TO.P,R20,1*
G04 #@! TO.N,Net-(R20-Pad1)*
X140716000Y-91440000D03*
G04 #@! TD*
G04 #@! TO.P,R21,1*
G04 #@! TO.N,Net-(R21-Pad1)*
X140716000Y-88900000D03*
D27*
G04 #@! TO.P,R21,2*
G04 #@! TO.N,7SEG_G*
X133096000Y-88900000D03*
G04 #@! TD*
G04 #@! TO.P,R22,2*
G04 #@! TO.N,7SEG_H*
X133096000Y-86360000D03*
D28*
G04 #@! TO.P,R22,1*
G04 #@! TO.N,Net-(R22-Pad1)*
X140716000Y-86360000D03*
G04 #@! TD*
G04 #@! TO.P,R23,1*
G04 #@! TO.N,Net-(Q2-Pad1)*
X98044000Y-92964000D03*
D27*
G04 #@! TO.P,R23,2*
G04 #@! TO.N,Net-(R23-Pad2)*
X105664000Y-92964000D03*
G04 #@! TD*
G04 #@! TO.P,R25,2*
G04 #@! TO.N,GND*
X160528000Y-72644000D03*
D28*
G04 #@! TO.P,R25,1*
G04 #@! TO.N,Net-(C9-Pad2)*
X168148000Y-72644000D03*
G04 #@! TD*
G04 #@! TO.P,R26,1*
G04 #@! TO.N,IR_SENSOR*
X146050000Y-73025000D03*
D27*
G04 #@! TO.P,R26,2*
G04 #@! TO.N,Net-(C10-Pad2)*
X138430000Y-73025000D03*
G04 #@! TD*
D25*
G04 #@! TO.P,R24,2*
G04 #@! TO.N,GND*
X135890000Y-75565000D03*
D10*
G04 #@! TO.P,R24,1*
G04 #@! TO.N,Net-(Q2-Pad3)*
X146050000Y-75565000D03*
G04 #@! TD*
D18*
G04 #@! TO.P,JP1,3*
G04 #@! TO.N,Net-(J2-Pad1)*
X89408000Y-73660000D03*
G04 #@! TO.P,JP1,2*
G04 #@! TO.N,Net-(F1-Pad2)*
X91948000Y-73660000D03*
D17*
G04 #@! TO.P,JP1,1*
G04 #@! TO.N,Net-(J1-Pad1)*
X94488000Y-73660000D03*
G04 #@! TD*
D29*
G04 #@! TO.N,GND*
X143764000Y-88900000D03*
X144780000Y-89916000D03*
X145796000Y-90932000D03*
X146812000Y-91948000D03*
X147828000Y-92964000D03*
X142748000Y-87884000D03*
X127000000Y-123952000D03*
X128016000Y-123952000D03*
X129032000Y-123952000D03*
X130048000Y-123952000D03*
X131064000Y-123952000D03*
X132080000Y-123952000D03*
X133096000Y-123952000D03*
X134112000Y-123952000D03*
X132080000Y-116332000D03*
X132080000Y-116332000D03*
X132080000Y-116332000D03*
X133096000Y-116332000D03*
X144780000Y-112268000D03*
X144780000Y-113284000D03*
X144780000Y-114300000D03*
X149352000Y-112268000D03*
X149352000Y-113284000D03*
X149352000Y-114300000D03*
X155448000Y-103632000D03*
X156464000Y-103632000D03*
X137160000Y-104140000D03*
X137160000Y-106680000D03*
X101600000Y-101092000D03*
X101600000Y-100076000D03*
X101600000Y-99060000D03*
X102616000Y-100076000D03*
X102616000Y-99060000D03*
X135128000Y-81280000D03*
X136144000Y-82296000D03*
X137160000Y-83312000D03*
X142748000Y-97028000D03*
X145796000Y-100584000D03*
X144780000Y-99568000D03*
X142748000Y-96012000D03*
X148336000Y-117856000D03*
X149352000Y-118872000D03*
X150368000Y-119888000D03*
X151384000Y-120904000D03*
X152400000Y-121920000D03*
X127000000Y-112268000D03*
X128016000Y-112268000D03*
X102108000Y-103632000D03*
X112268000Y-104140000D03*
X110744000Y-104140000D03*
X117348000Y-121920000D03*
X119380000Y-121920000D03*
X90932000Y-102616000D03*
X90932000Y-101600000D03*
X90932000Y-100584000D03*
X90932000Y-84836000D03*
X91948000Y-84836000D03*
X92964000Y-84328000D03*
X96012000Y-67564000D03*
X97028000Y-67564000D03*
X98552000Y-67564000D03*
X96012000Y-68580000D03*
X97028000Y-69596000D03*
G04 #@! TO.N,RX*
X104356500Y-89820500D03*
G04 #@! TO.N,TX*
X107264600Y-90906200D03*
X128961000Y-85642500D03*
G04 #@! TO.N,LCD_SCL*
X136419700Y-87148000D03*
G04 #@! TD*
D30*
G04 #@! TO.N,BATT_MONITOR*
X105410000Y-86563200D02*
X105410000Y-87588500D01*
X105664000Y-89408000D02*
X105664000Y-87842500D01*
X105664000Y-87842500D02*
X105410000Y-87588500D01*
D31*
G04 #@! TO.N,GND*
X112395000Y-112395000D02*
X113545300Y-112395000D01*
X113545300Y-112395000D02*
X116205000Y-115054700D01*
X116205000Y-115054700D02*
X116205000Y-119380000D01*
X138430000Y-78105000D02*
X139660000Y-78105000D01*
X139660000Y-78105000D02*
X144740000Y-83185000D01*
X166330000Y-95250000D02*
X166330000Y-99060000D01*
X166370000Y-92710000D02*
X166370000Y-95210000D01*
X166370000Y-95210000D02*
X166330000Y-95250000D01*
X120650000Y-75565000D02*
X119337400Y-76877600D01*
X119337400Y-76877600D02*
X109440300Y-76877600D01*
X109440300Y-76877600D02*
X106075300Y-73512600D01*
X106075300Y-73512600D02*
X106075300Y-73025000D01*
X87630000Y-116205000D02*
X87640300Y-116205000D01*
X85440000Y-116205000D02*
X87630000Y-116205000D01*
X87630000Y-108585000D02*
X87630000Y-116205000D01*
X160528000Y-72644000D02*
X160528000Y-73794300D01*
X160655000Y-83185000D02*
X160655000Y-81934700D01*
X160655000Y-81934700D02*
X160108000Y-81934700D01*
X160108000Y-81934700D02*
X159385100Y-81211800D01*
X159385100Y-81211800D02*
X159385100Y-74579900D01*
X159385100Y-74579900D02*
X160170700Y-73794300D01*
X160170700Y-73794300D02*
X160528000Y-73794300D01*
X98044000Y-89408000D02*
X98044000Y-88257700D01*
X98044000Y-88257700D02*
X98940400Y-87361300D01*
X98940400Y-87361300D02*
X98940400Y-85655400D01*
X98940400Y-85655400D02*
X98227800Y-84942800D01*
X98227800Y-84942800D02*
X98227800Y-79572200D01*
X98227800Y-79572200D02*
X104775000Y-73025000D01*
X104775000Y-73025000D02*
X106075300Y-73025000D01*
X166116000Y-106085100D02*
X166330000Y-105871100D01*
X166330000Y-105871100D02*
X166330000Y-99060000D01*
X166116000Y-106085100D02*
X166116000Y-106760300D01*
X166116000Y-105410000D02*
X166116000Y-106085100D01*
X88440000Y-120905000D02*
X88440000Y-118704700D01*
X88440000Y-118704700D02*
X87640300Y-117905000D01*
X87640300Y-117905000D02*
X87640300Y-116205000D01*
X84455000Y-76160000D02*
X84398000Y-76217000D01*
X84398000Y-76217000D02*
X84398000Y-94558000D01*
X84398000Y-94558000D02*
X85725000Y-95885000D01*
X126365000Y-75565000D02*
X126365000Y-76865300D01*
X130048000Y-80772000D02*
X130048000Y-79471700D01*
X126365000Y-76865300D02*
X127441600Y-76865300D01*
X127441600Y-76865300D02*
X130048000Y-79471700D01*
X165100000Y-116484000D02*
X166400400Y-115183600D01*
X166400400Y-115183600D02*
X166400400Y-107044700D01*
X166400400Y-107044700D02*
X166116000Y-106760300D01*
D30*
G04 #@! TO.N,Net-(C2-Pad1)*
X114935000Y-115570000D02*
X113394400Y-114029400D01*
X113394400Y-114029400D02*
X108949400Y-114029400D01*
X108949400Y-114029400D02*
X107188000Y-112268000D01*
D31*
G04 #@! TO.N,+3V3*
X130048000Y-83312000D02*
X131701600Y-83312000D01*
X131701600Y-83312000D02*
X135669400Y-87279800D01*
X135669400Y-87279800D02*
X135669400Y-87458800D01*
X135669400Y-87458800D02*
X136161100Y-87950500D01*
X136161100Y-87950500D02*
X139765700Y-87950500D01*
X139765700Y-87950500D02*
X139986900Y-87729300D01*
X139986900Y-87729300D02*
X141179300Y-87729300D01*
X141179300Y-87729300D02*
X152044000Y-98594000D01*
X152044000Y-98594000D02*
X152044000Y-100736400D01*
X154940000Y-107761700D02*
X152044000Y-104865700D01*
X152044000Y-104865700D02*
X152044000Y-100736400D01*
X154940000Y-111404000D02*
X154940000Y-111186300D01*
X154940000Y-123001700D02*
X154940000Y-111404000D01*
X154940000Y-111404000D02*
X165100000Y-111404000D01*
X110490000Y-75565000D02*
X110490000Y-74264700D01*
X110236000Y-71628000D02*
X110236000Y-74010700D01*
X110236000Y-74010700D02*
X110490000Y-74264700D01*
X110252500Y-115967500D02*
X113665000Y-119380000D01*
X109855000Y-115570000D02*
X110252500Y-115967500D01*
X110252500Y-115967500D02*
X107315000Y-118905000D01*
X107315000Y-118905000D02*
X107315000Y-119847300D01*
X107315000Y-119847300D02*
X104226300Y-122936000D01*
X104226300Y-122936000D02*
X100584000Y-122936000D01*
X100584000Y-122936000D02*
X96067000Y-118419000D01*
X96067000Y-118419000D02*
X93667200Y-118419000D01*
X93667200Y-118419000D02*
X93667200Y-111841100D01*
X93667200Y-111841100D02*
X92152200Y-110326100D01*
X92152200Y-110326100D02*
X92152200Y-107491800D01*
X92152200Y-107491800D02*
X93472000Y-106172000D01*
X93667200Y-118419000D02*
X89446000Y-118419000D01*
X89446000Y-118419000D02*
X89037900Y-118010900D01*
X89037900Y-118010900D02*
X89037900Y-96657900D01*
X89037900Y-96657900D02*
X85725000Y-93345000D01*
X154940000Y-109474000D02*
X154940000Y-111186300D01*
X154940000Y-124714000D02*
X154940000Y-123001700D01*
X122555000Y-115570000D02*
X122555000Y-112395000D01*
X154940000Y-109474000D02*
X154940000Y-107761700D01*
D30*
G04 #@! TO.N,+3.3VA*
X160655000Y-67945000D02*
X160655000Y-69170300D01*
X155647400Y-75565000D02*
X155647400Y-74177900D01*
X155647400Y-74177900D02*
X160655000Y-69170300D01*
X155647400Y-75565000D02*
X155084700Y-75565000D01*
X156210000Y-75565000D02*
X155647400Y-75565000D01*
X151212700Y-79454400D02*
X155084700Y-75582400D01*
X155084700Y-75582400D02*
X155084700Y-75565000D01*
X151212700Y-79454400D02*
X151212700Y-82632700D01*
X151212700Y-82632700D02*
X163830000Y-95250000D01*
X146050000Y-80645000D02*
X147240600Y-79454400D01*
X147240600Y-79454400D02*
X151212700Y-79454400D01*
X163830000Y-95250000D02*
X163830000Y-99060000D01*
D31*
G04 #@! TO.N,+BATT*
X114895000Y-123825000D02*
X116281700Y-125211700D01*
X116281700Y-125211700D02*
X121008300Y-125211700D01*
X121008300Y-125211700D02*
X122395000Y-123825000D01*
X114895000Y-121757100D02*
X114895000Y-123825000D01*
X99060000Y-76915300D02*
X97527400Y-78447900D01*
X97527400Y-78447900D02*
X97527400Y-86300600D01*
X97527400Y-86300600D02*
X97790000Y-86563200D01*
X114895000Y-121757100D02*
X115573700Y-121757100D01*
X115573700Y-121757100D02*
X117475000Y-119855800D01*
X117475000Y-119855800D02*
X117475000Y-115570000D01*
X114895000Y-121757100D02*
X107756100Y-121757100D01*
X107756100Y-121757100D02*
X105420600Y-124092600D01*
X105420600Y-124092600D02*
X99434500Y-124092600D01*
X99434500Y-124092600D02*
X97617900Y-122276000D01*
X96367600Y-122276000D02*
X97617900Y-122276000D01*
X168275000Y-75565000D02*
X168275000Y-76815300D01*
X168275000Y-76815300D02*
X167728000Y-76815300D01*
X167728000Y-76815300D02*
X163870000Y-80673300D01*
X163870000Y-80673300D02*
X163870000Y-92710000D01*
X99060000Y-75565000D02*
X99060000Y-76915300D01*
G04 #@! TO.N,/1.65V*
X138430000Y-80645000D02*
X139700000Y-80645000D01*
X139700000Y-80645000D02*
X142240000Y-83185000D01*
D30*
G04 #@! TO.N,Net-(C10-Pad2)*
X142161000Y-70604000D02*
X142280000Y-70485000D01*
X138430000Y-73025000D02*
X139740000Y-73025000D01*
X139740000Y-73025000D02*
X142161000Y-70604000D01*
X142161000Y-70604000D02*
X145792300Y-74235400D01*
X145792300Y-74235400D02*
X146385000Y-74235400D01*
X146385000Y-74235400D02*
X147464700Y-75315100D01*
X147464700Y-75315100D02*
X147464700Y-76557800D01*
X147464700Y-76557800D02*
X147886600Y-76979700D01*
X147886600Y-76979700D02*
X148590000Y-76979700D01*
X148590000Y-78105000D02*
X148590000Y-76979700D01*
X142280000Y-70485000D02*
X142240000Y-70445000D01*
X142240000Y-70445000D02*
X142240000Y-67945000D01*
G04 #@! TO.N,Net-(C9-Pad2)*
X144740000Y-67945000D02*
X145965400Y-69170400D01*
X145965400Y-69170400D02*
X155483800Y-69170400D01*
X155483800Y-69170400D02*
X157934600Y-66719600D01*
X157934600Y-66719600D02*
X161969600Y-66719600D01*
X161969600Y-66719600D02*
X163195000Y-67945000D01*
X168148000Y-72644000D02*
X167894000Y-72644000D01*
X167894000Y-72644000D02*
X163195000Y-67945000D01*
G04 #@! TO.N,IR_SENSOR*
X148590000Y-75565000D02*
X146050000Y-73025000D01*
X146050000Y-73025000D02*
X144780000Y-71755000D01*
X144780000Y-71755000D02*
X144780000Y-70485000D01*
G04 #@! TO.N,LED*
X97790000Y-114935000D02*
X97790000Y-113709700D01*
X109728000Y-80772000D02*
X108552700Y-80772000D01*
X108552700Y-80772000D02*
X108552700Y-80404700D01*
X108552700Y-80404700D02*
X107712000Y-79564000D01*
X107712000Y-79564000D02*
X101623300Y-79564000D01*
X101623300Y-79564000D02*
X100758800Y-80428500D01*
X100758800Y-80428500D02*
X100758800Y-110740900D01*
X100758800Y-110740900D02*
X97790000Y-113709700D01*
G04 #@! TO.N,Net-(D1-Pad2)*
X98044000Y-96012000D02*
X98044000Y-97037300D01*
X98044000Y-97037300D02*
X95250000Y-99831300D01*
X95250000Y-99831300D02*
X95250000Y-114935000D01*
G04 #@! TO.N,Net-(D4-Pad1)*
X93345000Y-94659700D02*
X92885500Y-94659700D01*
X92885500Y-94659700D02*
X92117100Y-93891300D01*
X92117100Y-93891300D02*
X92117100Y-89507700D01*
X92117100Y-89507700D02*
X95799300Y-85825500D01*
X95799300Y-85825500D02*
X95799300Y-71920900D01*
X95799300Y-71920900D02*
X92624800Y-68746400D01*
X92624800Y-68746400D02*
X92624800Y-67420500D01*
X92624800Y-67420500D02*
X93457500Y-66587800D01*
X93457500Y-66587800D02*
X149182500Y-66587800D01*
X149182500Y-66587800D02*
X150539700Y-67945000D01*
X151765000Y-67945000D02*
X150539700Y-67945000D01*
X93345000Y-95885000D02*
X93345000Y-94659700D01*
D31*
G04 #@! TO.N,Net-(F1-Pad1)*
X93980000Y-67945000D02*
X99060000Y-73025000D01*
G04 #@! TO.N,Net-(F1-Pad2)*
X92075000Y-73660000D02*
X92075000Y-72359700D01*
X88900000Y-67935000D02*
X88900000Y-69184700D01*
X88900000Y-69184700D02*
X92075000Y-72359700D01*
G04 #@! TO.N,Net-(J1-Pad1)*
X91440000Y-116205000D02*
X91440000Y-114004700D01*
X94615000Y-73660000D02*
X94615000Y-74960300D01*
X94615000Y-74960300D02*
X90037100Y-79538200D01*
X90037100Y-79538200D02*
X90037100Y-112601800D01*
X90037100Y-112601800D02*
X91440000Y-114004700D01*
D30*
G04 #@! TO.N,RX*
X104648000Y-106172000D02*
X104648000Y-104996700D01*
X104356500Y-89820500D02*
X104356500Y-104705200D01*
X104356500Y-104705200D02*
X104648000Y-104996700D01*
G04 #@! TO.N,TX*
X128905000Y-76740300D02*
X128905000Y-77377100D01*
X128905000Y-77377100D02*
X131223300Y-79695400D01*
X131223300Y-79695400D02*
X131223300Y-81803200D01*
X131223300Y-81803200D02*
X131079100Y-81947400D01*
X131079100Y-81947400D02*
X129700000Y-81947400D01*
X129700000Y-81947400D02*
X128872600Y-82774800D01*
X128872600Y-82774800D02*
X128872600Y-85554100D01*
X128872600Y-85554100D02*
X128961000Y-85642500D01*
X128905000Y-75565000D02*
X128905000Y-76740300D01*
X104648000Y-108712000D02*
X104648000Y-107536700D01*
X107264600Y-90906200D02*
X107264600Y-101536900D01*
X107264600Y-101536900D02*
X105823300Y-102978200D01*
X105823300Y-102978200D02*
X105823300Y-106728800D01*
X105823300Y-106728800D02*
X105015400Y-107536700D01*
X105015400Y-107536700D02*
X104648000Y-107536700D01*
G04 #@! TO.N,Net-(J5-Pad1)*
X104775000Y-115570000D02*
X106045000Y-116840000D01*
X106045000Y-116840000D02*
X106045000Y-119380000D01*
G04 #@! TO.N,Net-(J5-Pad3)*
X102235000Y-115570000D02*
X102235000Y-118110000D01*
X102235000Y-118110000D02*
X103505000Y-119380000D01*
G04 #@! TO.N,Net-(J5-Pad4)*
X128905000Y-119380000D02*
X130175000Y-118110000D01*
X130175000Y-118110000D02*
X130175000Y-115570000D01*
G04 #@! TO.N,Net-(J5-Pad6)*
X126365000Y-119380000D02*
X126365000Y-116840000D01*
X126365000Y-116840000D02*
X127635000Y-115570000D01*
X124895000Y-123825000D02*
X126365000Y-122355000D01*
X126365000Y-122355000D02*
X126365000Y-119380000D01*
G04 #@! TO.N,LCD_SCL*
X115570000Y-75565000D02*
X116745300Y-75565000D01*
X116745300Y-75565000D02*
X116745300Y-75197700D01*
X116745300Y-75197700D02*
X118045700Y-73897300D01*
X118045700Y-73897300D02*
X128961400Y-73897300D01*
X128961400Y-73897300D02*
X130269500Y-75205400D01*
X130269500Y-75205400D02*
X130269500Y-77786500D01*
X130269500Y-77786500D02*
X136419700Y-83936700D01*
X136419700Y-83936700D02*
X136419700Y-87148000D01*
G04 #@! TO.N,LCD_SDA*
X122428000Y-106172000D02*
X122428000Y-104996700D01*
X118110000Y-75565000D02*
X119285300Y-75565000D01*
X119285300Y-75565000D02*
X119285300Y-75197700D01*
X119285300Y-75197700D02*
X120132300Y-74350700D01*
X120132300Y-74350700D02*
X121139400Y-74350700D01*
X121139400Y-74350700D02*
X121826600Y-75037900D01*
X121826600Y-75037900D02*
X121826600Y-76108000D01*
X121826600Y-76108000D02*
X118982300Y-78952300D01*
X118982300Y-78952300D02*
X112379700Y-78952300D01*
X112379700Y-78952300D02*
X111074900Y-80257100D01*
X111074900Y-80257100D02*
X111074900Y-93643600D01*
X111074900Y-93643600D02*
X122428000Y-104996700D01*
G04 #@! TO.N,7SEG_C*
X130048000Y-108712000D02*
X130048000Y-107536700D01*
X133096000Y-99060000D02*
X133096000Y-100085300D01*
X133096000Y-100085300D02*
X131223300Y-101958000D01*
X131223300Y-101958000D02*
X131223300Y-106728800D01*
X131223300Y-106728800D02*
X130415400Y-107536700D01*
X130415400Y-107536700D02*
X130048000Y-107536700D01*
G04 #@! TO.N,7SEG_D*
X133096000Y-96520000D02*
X133096000Y-97545300D01*
X133096000Y-97545300D02*
X130048000Y-100593300D01*
X130048000Y-100593300D02*
X130048000Y-106172000D01*
G04 #@! TO.N,MOTOR_CLK*
X119888000Y-83312000D02*
X119888000Y-84487300D01*
X118745000Y-119380000D02*
X121126900Y-116998100D01*
X121126900Y-116998100D02*
X121126900Y-115144100D01*
X121126900Y-115144100D02*
X118958600Y-112975800D01*
X118958600Y-112975800D02*
X118958600Y-111978900D01*
X118958600Y-111978900D02*
X120430000Y-110507500D01*
X120430000Y-110507500D02*
X122314300Y-110507500D01*
X122314300Y-110507500D02*
X123607800Y-109214000D01*
X123607800Y-109214000D02*
X123607800Y-88207100D01*
X123607800Y-88207100D02*
X119888000Y-84487300D01*
G04 #@! TO.N,7SEG_E*
X114808000Y-80772000D02*
X115983300Y-80772000D01*
X133096000Y-93980000D02*
X131422500Y-93980000D01*
X131422500Y-93980000D02*
X121063400Y-83620900D01*
X121063400Y-83620900D02*
X121063400Y-82732700D01*
X121063400Y-82732700D02*
X120278000Y-81947300D01*
X120278000Y-81947300D02*
X116791200Y-81947300D01*
X116791200Y-81947300D02*
X115983300Y-81139400D01*
X115983300Y-81139400D02*
X115983300Y-80772000D01*
G04 #@! TO.N,7SEG_G*
X112268000Y-80772000D02*
X113443300Y-80772000D01*
X133096000Y-88900000D02*
X131317700Y-88900000D01*
X131317700Y-88900000D02*
X126332600Y-83914900D01*
X126332600Y-83914900D02*
X126332600Y-83012400D01*
X126332600Y-83012400D02*
X125267600Y-81947400D01*
X125267600Y-81947400D02*
X124442400Y-81947400D01*
X124442400Y-81947400D02*
X123698000Y-81203000D01*
X123698000Y-81203000D02*
X123698000Y-80299300D01*
X123698000Y-80299300D02*
X122995400Y-79596700D01*
X122995400Y-79596700D02*
X114251200Y-79596700D01*
X114251200Y-79596700D02*
X113443300Y-80404600D01*
X113443300Y-80404600D02*
X113443300Y-80772000D01*
G04 #@! TO.N,MOTOR_MODE*
X104648000Y-83312000D02*
X104648000Y-84487300D01*
X120015000Y-115570000D02*
X116078000Y-111633000D01*
X116078000Y-111633000D02*
X116078000Y-105716300D01*
X116078000Y-105716300D02*
X107974100Y-97612400D01*
X107974100Y-97612400D02*
X107974100Y-87666500D01*
X107974100Y-87666500D02*
X104794900Y-84487300D01*
X104794900Y-84487300D02*
X104648000Y-84487300D01*
G04 #@! TO.N,MOTOR_DIR*
X102108000Y-80772000D02*
X102108000Y-81947300D01*
X111125000Y-119380000D02*
X112258100Y-120513100D01*
X112258100Y-120513100D02*
X114070700Y-120513100D01*
X114070700Y-120513100D02*
X114752400Y-119831400D01*
X114752400Y-119831400D02*
X114752400Y-118872200D01*
X114752400Y-118872200D02*
X113990200Y-118110000D01*
X113990200Y-118110000D02*
X113386500Y-118110000D01*
X113386500Y-118110000D02*
X111125000Y-115848500D01*
X111125000Y-115848500D02*
X111125000Y-115250800D01*
X111125000Y-115250800D02*
X110356900Y-114482700D01*
X110356900Y-114482700D02*
X107791000Y-114482700D01*
X107791000Y-114482700D02*
X105918100Y-112609800D01*
X105918100Y-112609800D02*
X105918100Y-111846800D01*
X105918100Y-111846800D02*
X103283300Y-109212000D01*
X103283300Y-109212000D02*
X103283300Y-82755200D01*
X103283300Y-82755200D02*
X102475400Y-81947300D01*
X102475400Y-81947300D02*
X102108000Y-81947300D01*
G04 #@! TO.N,Net-(Q2-Pad1)*
X93345000Y-98425000D02*
X93345000Y-97199700D01*
X98044000Y-92964000D02*
X93808300Y-97199700D01*
X93808300Y-97199700D02*
X93345000Y-97199700D01*
G04 #@! TO.N,Net-(Q2-Pad3)*
X93345000Y-93345000D02*
X93345000Y-92119700D01*
X146050000Y-75565000D02*
X139475600Y-75565000D01*
X139475600Y-75565000D02*
X134487800Y-70577200D01*
X134487800Y-70577200D02*
X108663700Y-70577200D01*
X108663700Y-70577200D02*
X107580500Y-71660400D01*
X107580500Y-71660400D02*
X103549800Y-71660400D01*
X103549800Y-71660400D02*
X100915200Y-74295000D01*
X100915200Y-74295000D02*
X98591900Y-74295000D01*
X98591900Y-74295000D02*
X96952000Y-75934900D01*
X96952000Y-75934900D02*
X96952000Y-85309700D01*
X96952000Y-85309700D02*
X93345000Y-88916700D01*
X93345000Y-88916700D02*
X93345000Y-92119700D01*
G04 #@! TO.N,Net-(R17-Pad1)*
X140716000Y-99060000D02*
X142978500Y-101322500D01*
X142978500Y-101322500D02*
X142978500Y-119881900D01*
X142978500Y-119881900D02*
X149397900Y-126301300D01*
X149397900Y-126301300D02*
X157480000Y-126301300D01*
X157480000Y-124714000D02*
X157480000Y-126301300D01*
G04 #@! TO.N,Net-(R18-Pad1)*
X152400000Y-124714000D02*
X152400000Y-123126700D01*
X140716000Y-96520000D02*
X147341000Y-103145000D01*
X147341000Y-103145000D02*
X147341000Y-118067700D01*
X147341000Y-118067700D02*
X152400000Y-123126700D01*
G04 #@! TO.N,Net-(R19-Pad1)*
X140716000Y-93980000D02*
X139687800Y-95008200D01*
X139687800Y-95008200D02*
X139687800Y-96943100D01*
X139687800Y-96943100D02*
X140534700Y-97790000D01*
X140534700Y-97790000D02*
X140941300Y-97790000D01*
X140941300Y-97790000D02*
X143428900Y-100277600D01*
X143428900Y-100277600D02*
X143428900Y-116695600D01*
X143428900Y-116695600D02*
X149860000Y-123126700D01*
X149860000Y-124714000D02*
X149860000Y-123126700D01*
G04 #@! TO.N,Net-(R20-Pad1)*
X140716000Y-91440000D02*
X148344400Y-99068400D01*
X148344400Y-99068400D02*
X148344400Y-110015400D01*
X148344400Y-110015400D02*
X149390300Y-111061300D01*
X149390300Y-111061300D02*
X152400000Y-111061300D01*
X152400000Y-109474000D02*
X152400000Y-111061300D01*
G04 #@! TO.N,Net-(R21-Pad1)*
X140716000Y-88900000D02*
X149860000Y-98044000D01*
X149860000Y-98044000D02*
X149860000Y-109474000D01*
G04 #@! TO.N,Net-(C3-Pad2)*
X120015000Y-112395000D02*
X121150600Y-111259400D01*
X121150600Y-111259400D02*
X123919400Y-111259400D01*
X123919400Y-111259400D02*
X125055000Y-112395000D01*
G04 #@! TO.N,Net-(R3-Pad2)*
X108204000Y-125476000D02*
X108204000Y-122936000D01*
G04 #@! TO.N,Net-(R11-Pad1)*
X133350000Y-106680000D02*
X135128000Y-108458000D01*
X135128000Y-108458000D02*
X135128000Y-113538000D01*
G04 #@! TD*
D32*
G04 #@! TO.N,GND*
G36*
X173280000Y-126290000D02*
X160924184Y-126290000D01*
X161027180Y-126221180D01*
X161335944Y-125759082D01*
X161417000Y-125351588D01*
X161417000Y-124076412D01*
X161335944Y-123668918D01*
X161027179Y-123206820D01*
X160565081Y-122898056D01*
X160020000Y-122789632D01*
X159474918Y-122898056D01*
X159012820Y-123206821D01*
X158750000Y-123600159D01*
X158487179Y-123206820D01*
X158025081Y-122898056D01*
X157480000Y-122789632D01*
X156934918Y-122898056D01*
X156472820Y-123206821D01*
X156210000Y-123600159D01*
X155947179Y-123206820D01*
X155825000Y-123125183D01*
X155825000Y-119024000D01*
X163585908Y-119024000D01*
X163701161Y-119603418D01*
X164029375Y-120094625D01*
X164327761Y-120294000D01*
X164029375Y-120493375D01*
X163701161Y-120984582D01*
X163585908Y-121564000D01*
X163701161Y-122143418D01*
X164029375Y-122634625D01*
X164520582Y-122962839D01*
X164953744Y-123049000D01*
X165246256Y-123049000D01*
X165679418Y-122962839D01*
X166170625Y-122634625D01*
X166498839Y-122143418D01*
X166614092Y-121564000D01*
X166498839Y-120984582D01*
X166170625Y-120493375D01*
X165872239Y-120294000D01*
X166170625Y-120094625D01*
X166498839Y-119603418D01*
X166614092Y-119024000D01*
X166498839Y-118444582D01*
X166170625Y-117953375D01*
X165851522Y-117740157D01*
X165981358Y-117679183D01*
X166371645Y-117250924D01*
X166541476Y-116840890D01*
X166420155Y-116611000D01*
X165227000Y-116611000D01*
X165227000Y-116631000D01*
X164973000Y-116631000D01*
X164973000Y-116611000D01*
X163779845Y-116611000D01*
X163658524Y-116840890D01*
X163828355Y-117250924D01*
X164218642Y-117679183D01*
X164348478Y-117740157D01*
X164029375Y-117953375D01*
X163701161Y-118444582D01*
X163585908Y-119024000D01*
X155825000Y-119024000D01*
X155825000Y-112289000D01*
X163609522Y-112289000D01*
X163651843Y-112501765D01*
X163792191Y-112711809D01*
X164002235Y-112852157D01*
X164047619Y-112861184D01*
X164029375Y-112873375D01*
X163701161Y-113364582D01*
X163585908Y-113944000D01*
X163701161Y-114523418D01*
X164029375Y-115014625D01*
X164348478Y-115227843D01*
X164218642Y-115288817D01*
X163828355Y-115717076D01*
X163658524Y-116127110D01*
X163779845Y-116357000D01*
X164973000Y-116357000D01*
X164973000Y-116337000D01*
X165227000Y-116337000D01*
X165227000Y-116357000D01*
X166420155Y-116357000D01*
X166541476Y-116127110D01*
X166371645Y-115717076D01*
X165981358Y-115288817D01*
X165851522Y-115227843D01*
X166170625Y-115014625D01*
X166498839Y-114523418D01*
X166614092Y-113944000D01*
X166498839Y-113364582D01*
X166170625Y-112873375D01*
X166152381Y-112861184D01*
X166197765Y-112852157D01*
X166407809Y-112711809D01*
X166548157Y-112501765D01*
X166597440Y-112254000D01*
X166597440Y-110554000D01*
X166548157Y-110306235D01*
X166407809Y-110096191D01*
X166197765Y-109955843D01*
X165950000Y-109906560D01*
X164250000Y-109906560D01*
X164002235Y-109955843D01*
X163792191Y-110096191D01*
X163651843Y-110306235D01*
X163609522Y-110519000D01*
X161335960Y-110519000D01*
X161417000Y-110111588D01*
X161417000Y-108836412D01*
X161335944Y-108428918D01*
X161027179Y-107966820D01*
X160565081Y-107658056D01*
X160020000Y-107549632D01*
X159474918Y-107658056D01*
X159012820Y-107966821D01*
X158750000Y-108360159D01*
X158487179Y-107966820D01*
X158025081Y-107658056D01*
X157480000Y-107549632D01*
X156934918Y-107658056D01*
X156472820Y-107966821D01*
X156210000Y-108360159D01*
X155947179Y-107966820D01*
X155825000Y-107885183D01*
X155825000Y-107848859D01*
X155842337Y-107761699D01*
X155825000Y-107674539D01*
X155825000Y-107674535D01*
X155773652Y-107416390D01*
X155663958Y-107252222D01*
X155627424Y-107197545D01*
X155627423Y-107197544D01*
X155578049Y-107123651D01*
X155504156Y-107074277D01*
X153534549Y-105104670D01*
X162041000Y-105104670D01*
X162041000Y-105715330D01*
X162274690Y-106279507D01*
X162706493Y-106711310D01*
X163270670Y-106945000D01*
X163881330Y-106945000D01*
X164445507Y-106711310D01*
X164621861Y-106534956D01*
X164677673Y-106669699D01*
X164856302Y-106848327D01*
X165089691Y-106945000D01*
X165830250Y-106945000D01*
X165989000Y-106786250D01*
X165989000Y-105537000D01*
X166243000Y-105537000D01*
X166243000Y-106786250D01*
X166401750Y-106945000D01*
X167142309Y-106945000D01*
X167375698Y-106848327D01*
X167554327Y-106669699D01*
X167651000Y-106436310D01*
X167651000Y-105695750D01*
X167492250Y-105537000D01*
X166243000Y-105537000D01*
X165989000Y-105537000D01*
X165969000Y-105537000D01*
X165969000Y-105283000D01*
X165989000Y-105283000D01*
X165989000Y-104033750D01*
X166243000Y-104033750D01*
X166243000Y-105283000D01*
X167492250Y-105283000D01*
X167651000Y-105124250D01*
X167651000Y-104383690D01*
X167554327Y-104150301D01*
X167375698Y-103971673D01*
X167142309Y-103875000D01*
X166401750Y-103875000D01*
X166243000Y-104033750D01*
X165989000Y-104033750D01*
X165830250Y-103875000D01*
X165089691Y-103875000D01*
X164856302Y-103971673D01*
X164677673Y-104150301D01*
X164621861Y-104285044D01*
X164445507Y-104108690D01*
X163881330Y-103875000D01*
X163270670Y-103875000D01*
X162706493Y-104108690D01*
X162274690Y-104540493D01*
X162041000Y-105104670D01*
X153534549Y-105104670D01*
X152929000Y-104499122D01*
X152929000Y-102409784D01*
X153111585Y-102334155D01*
X153641755Y-101803985D01*
X153928680Y-101111286D01*
X153928680Y-100361514D01*
X153641755Y-99668815D01*
X153111585Y-99138645D01*
X152929000Y-99063016D01*
X152929000Y-98681159D01*
X152946337Y-98593999D01*
X152929000Y-98506839D01*
X152929000Y-98506835D01*
X152877652Y-98248690D01*
X152682049Y-97955951D01*
X152608157Y-97906578D01*
X144903093Y-90201514D01*
X150159320Y-90201514D01*
X150159320Y-90951286D01*
X150446245Y-91643985D01*
X150976415Y-92174155D01*
X151669114Y-92461080D01*
X152418886Y-92461080D01*
X153111585Y-92174155D01*
X153641755Y-91643985D01*
X153928680Y-90951286D01*
X153928680Y-90201514D01*
X153641755Y-89508815D01*
X153111585Y-88978645D01*
X152418886Y-88691720D01*
X151669114Y-88691720D01*
X150976415Y-88978645D01*
X150446245Y-89508815D01*
X150159320Y-90201514D01*
X144903093Y-90201514D01*
X141866725Y-87165147D01*
X141839529Y-87124446D01*
X141847758Y-87116217D01*
X142051000Y-86625548D01*
X142051000Y-86094452D01*
X141847758Y-85603783D01*
X141472217Y-85228242D01*
X140981548Y-85025000D01*
X140450452Y-85025000D01*
X139959783Y-85228242D01*
X139584242Y-85603783D01*
X139381000Y-86094452D01*
X139381000Y-86625548D01*
X139525116Y-86973474D01*
X139387390Y-87065500D01*
X137354700Y-87065500D01*
X137354700Y-86962017D01*
X137212355Y-86618365D01*
X137179700Y-86585710D01*
X137179700Y-84011546D01*
X137194588Y-83936699D01*
X137179700Y-83861852D01*
X137179700Y-83861848D01*
X137135604Y-83640163D01*
X136967629Y-83388771D01*
X136904173Y-83346371D01*
X134202802Y-80645000D01*
X137068846Y-80645000D01*
X137172458Y-81165891D01*
X137467519Y-81607481D01*
X137909109Y-81902542D01*
X138298515Y-81980000D01*
X138561485Y-81980000D01*
X138950891Y-81902542D01*
X139392481Y-81607481D01*
X139399860Y-81596438D01*
X140805000Y-83001579D01*
X140805000Y-83470439D01*
X141023466Y-83997862D01*
X141427138Y-84401534D01*
X141954561Y-84620000D01*
X142525439Y-84620000D01*
X143052862Y-84401534D01*
X143261651Y-84192745D01*
X143911861Y-84192745D01*
X143985995Y-84438864D01*
X144523223Y-84631965D01*
X145093454Y-84604778D01*
X145494005Y-84438864D01*
X145568139Y-84192745D01*
X144740000Y-83364605D01*
X143911861Y-84192745D01*
X143261651Y-84192745D01*
X143456534Y-83997862D01*
X143483525Y-83932701D01*
X143486136Y-83939005D01*
X143732255Y-84013139D01*
X144560395Y-83185000D01*
X144919605Y-83185000D01*
X145747745Y-84013139D01*
X145993864Y-83939005D01*
X146139424Y-83534039D01*
X147198096Y-83534039D01*
X147358959Y-83922423D01*
X147734866Y-84337389D01*
X148240959Y-84576914D01*
X148463000Y-84455629D01*
X148463000Y-83312000D01*
X148717000Y-83312000D01*
X148717000Y-84455629D01*
X148939041Y-84576914D01*
X149445134Y-84337389D01*
X149821041Y-83922423D01*
X149981904Y-83534039D01*
X149859915Y-83312000D01*
X148717000Y-83312000D01*
X148463000Y-83312000D01*
X147320085Y-83312000D01*
X147198096Y-83534039D01*
X146139424Y-83534039D01*
X146186965Y-83401777D01*
X146159778Y-82831546D01*
X145993864Y-82430995D01*
X145747745Y-82356861D01*
X144919605Y-83185000D01*
X144560395Y-83185000D01*
X143732255Y-82356861D01*
X143486136Y-82430995D01*
X143483710Y-82437746D01*
X143456534Y-82372138D01*
X143261651Y-82177255D01*
X143911861Y-82177255D01*
X144740000Y-83005395D01*
X145568139Y-82177255D01*
X145494005Y-81931136D01*
X144956777Y-81738035D01*
X144386546Y-81765222D01*
X143985995Y-81931136D01*
X143911861Y-82177255D01*
X143261651Y-82177255D01*
X143052862Y-81968466D01*
X142525439Y-81750000D01*
X142056579Y-81750000D01*
X140387425Y-80080847D01*
X140338049Y-80006951D01*
X140045310Y-79811348D01*
X139787165Y-79760000D01*
X139787161Y-79760000D01*
X139700000Y-79742663D01*
X139612839Y-79760000D01*
X139444252Y-79760000D01*
X139392481Y-79682519D01*
X138950891Y-79387458D01*
X138833259Y-79364060D01*
X139232663Y-79171764D01*
X139579797Y-78783396D01*
X139722716Y-78438329D01*
X139599374Y-78232000D01*
X138557000Y-78232000D01*
X138557000Y-78252000D01*
X138303000Y-78252000D01*
X138303000Y-78232000D01*
X137260626Y-78232000D01*
X137137284Y-78438329D01*
X137280203Y-78783396D01*
X137627337Y-79171764D01*
X138026741Y-79364060D01*
X137909109Y-79387458D01*
X137467519Y-79682519D01*
X137172458Y-80124109D01*
X137068846Y-80645000D01*
X134202802Y-80645000D01*
X131329473Y-77771671D01*
X137137284Y-77771671D01*
X137260626Y-77978000D01*
X138303000Y-77978000D01*
X138303000Y-76934794D01*
X138557000Y-76934794D01*
X138557000Y-77978000D01*
X139599374Y-77978000D01*
X139722716Y-77771671D01*
X139579797Y-77426604D01*
X139232663Y-77038236D01*
X138763331Y-76812273D01*
X138557000Y-76934794D01*
X138303000Y-76934794D01*
X138096669Y-76812273D01*
X137627337Y-77038236D01*
X137280203Y-77426604D01*
X137137284Y-77771671D01*
X131329473Y-77771671D01*
X131029500Y-77471699D01*
X131029500Y-77062440D01*
X132295000Y-77062440D01*
X132542765Y-77013157D01*
X132752809Y-76872809D01*
X132893157Y-76662765D01*
X132942440Y-76415000D01*
X132942440Y-75914039D01*
X134498096Y-75914039D01*
X134658959Y-76302423D01*
X135034866Y-76717389D01*
X135540959Y-76956914D01*
X135763000Y-76835629D01*
X135763000Y-75692000D01*
X136017000Y-75692000D01*
X136017000Y-76835629D01*
X136239041Y-76956914D01*
X136745134Y-76717389D01*
X137121041Y-76302423D01*
X137281904Y-75914039D01*
X137159915Y-75692000D01*
X136017000Y-75692000D01*
X135763000Y-75692000D01*
X134620085Y-75692000D01*
X134498096Y-75914039D01*
X132942440Y-75914039D01*
X132942440Y-75215961D01*
X134498096Y-75215961D01*
X134620085Y-75438000D01*
X135763000Y-75438000D01*
X135763000Y-74294371D01*
X136017000Y-74294371D01*
X136017000Y-75438000D01*
X137159915Y-75438000D01*
X137281904Y-75215961D01*
X137121041Y-74827577D01*
X136745134Y-74412611D01*
X136239041Y-74173086D01*
X136017000Y-74294371D01*
X135763000Y-74294371D01*
X135540959Y-74173086D01*
X135034866Y-74412611D01*
X134658959Y-74827577D01*
X134498096Y-75215961D01*
X132942440Y-75215961D01*
X132942440Y-74715000D01*
X132893157Y-74467235D01*
X132752809Y-74257191D01*
X132542765Y-74116843D01*
X132295000Y-74067560D01*
X130595000Y-74067560D01*
X130347235Y-74116843D01*
X130292391Y-74153489D01*
X129551731Y-73412830D01*
X129509329Y-73349371D01*
X129257937Y-73181396D01*
X129036252Y-73137300D01*
X129036247Y-73137300D01*
X128961400Y-73122412D01*
X128886553Y-73137300D01*
X118120546Y-73137300D01*
X118045699Y-73122412D01*
X117970852Y-73137300D01*
X117970848Y-73137300D01*
X117749163Y-73181396D01*
X117731271Y-73193351D01*
X117561226Y-73306971D01*
X117561224Y-73306973D01*
X117497771Y-73349371D01*
X117455373Y-73412824D01*
X116480689Y-74387509D01*
X116149418Y-74166161D01*
X115716256Y-74080000D01*
X115423744Y-74080000D01*
X114990582Y-74166161D01*
X114499375Y-74494375D01*
X114300000Y-74792761D01*
X114100625Y-74494375D01*
X113609418Y-74166161D01*
X113176256Y-74080000D01*
X112883744Y-74080000D01*
X112450582Y-74166161D01*
X111959375Y-74494375D01*
X111947184Y-74512619D01*
X111938157Y-74467235D01*
X111797809Y-74257191D01*
X111587765Y-74116843D01*
X111353665Y-74070278D01*
X111323652Y-73919390D01*
X111128049Y-73626651D01*
X111121000Y-73621941D01*
X111121000Y-72642252D01*
X111198481Y-72590481D01*
X111493542Y-72148891D01*
X111597154Y-71628000D01*
X111539310Y-71337200D01*
X116531460Y-71337200D01*
X116521000Y-71362452D01*
X116521000Y-71893548D01*
X116724242Y-72384217D01*
X117099783Y-72759758D01*
X117590452Y-72963000D01*
X118121548Y-72963000D01*
X118612217Y-72759758D01*
X118987758Y-72384217D01*
X119191000Y-71893548D01*
X119191000Y-71362452D01*
X119180540Y-71337200D01*
X134172999Y-71337200D01*
X138885273Y-76049476D01*
X138927671Y-76112929D01*
X138991124Y-76155327D01*
X138991126Y-76155329D01*
X139116502Y-76239102D01*
X139179063Y-76280904D01*
X139400748Y-76325000D01*
X139400752Y-76325000D01*
X139475599Y-76339888D01*
X139550446Y-76325000D01*
X144811570Y-76325000D01*
X144833466Y-76377862D01*
X145237138Y-76781534D01*
X145496872Y-76889120D01*
X145293783Y-76973242D01*
X144918242Y-77348783D01*
X144715000Y-77839452D01*
X144715000Y-78370548D01*
X144918242Y-78861217D01*
X145293783Y-79236758D01*
X145627528Y-79375000D01*
X145293783Y-79513242D01*
X144918242Y-79888783D01*
X144715000Y-80379452D01*
X144715000Y-80910548D01*
X144918242Y-81401217D01*
X145293783Y-81776758D01*
X145784452Y-81980000D01*
X146315548Y-81980000D01*
X146806217Y-81776758D01*
X147181758Y-81401217D01*
X147253577Y-81227832D01*
X147555423Y-81679577D01*
X147939108Y-81935947D01*
X147734866Y-82032611D01*
X147358959Y-82447577D01*
X147198096Y-82835961D01*
X147320085Y-83058000D01*
X148463000Y-83058000D01*
X148463000Y-83038000D01*
X148717000Y-83038000D01*
X148717000Y-83058000D01*
X149859915Y-83058000D01*
X149981904Y-82835961D01*
X149821041Y-82447577D01*
X149445134Y-82032611D01*
X149240892Y-81935947D01*
X149624577Y-81679577D01*
X149941740Y-81204909D01*
X150053113Y-80645000D01*
X149967461Y-80214400D01*
X150452700Y-80214400D01*
X150452701Y-82557848D01*
X150437812Y-82632700D01*
X150452701Y-82707552D01*
X150496797Y-82929237D01*
X150664772Y-83180629D01*
X150728228Y-83223029D01*
X162416896Y-94911698D01*
X162395000Y-94964561D01*
X162395000Y-95535439D01*
X162613466Y-96062862D01*
X163017138Y-96466534D01*
X163070000Y-96488430D01*
X163070001Y-97821570D01*
X163017138Y-97843466D01*
X162613466Y-98247138D01*
X162395000Y-98774561D01*
X162395000Y-99345439D01*
X162613466Y-99872862D01*
X163017138Y-100276534D01*
X163544561Y-100495000D01*
X164115439Y-100495000D01*
X164642862Y-100276534D01*
X164851651Y-100067745D01*
X165501861Y-100067745D01*
X165575995Y-100313864D01*
X166113223Y-100506965D01*
X166683454Y-100479778D01*
X167084005Y-100313864D01*
X167158139Y-100067745D01*
X166330000Y-99239605D01*
X165501861Y-100067745D01*
X164851651Y-100067745D01*
X165046534Y-99872862D01*
X165073525Y-99807701D01*
X165076136Y-99814005D01*
X165322255Y-99888139D01*
X166150395Y-99060000D01*
X166509605Y-99060000D01*
X167337745Y-99888139D01*
X167583864Y-99814005D01*
X167776965Y-99276777D01*
X167749778Y-98706546D01*
X167583864Y-98305995D01*
X167337745Y-98231861D01*
X166509605Y-99060000D01*
X166150395Y-99060000D01*
X165322255Y-98231861D01*
X165076136Y-98305995D01*
X165073710Y-98312746D01*
X165046534Y-98247138D01*
X164851651Y-98052255D01*
X165501861Y-98052255D01*
X166330000Y-98880395D01*
X167158139Y-98052255D01*
X167084005Y-97806136D01*
X166546777Y-97613035D01*
X165976546Y-97640222D01*
X165575995Y-97806136D01*
X165501861Y-98052255D01*
X164851651Y-98052255D01*
X164642862Y-97843466D01*
X164590000Y-97821570D01*
X164590000Y-96488430D01*
X164642862Y-96466534D01*
X164851651Y-96257745D01*
X165501861Y-96257745D01*
X165575995Y-96503864D01*
X166113223Y-96696965D01*
X166683454Y-96669778D01*
X167084005Y-96503864D01*
X167158139Y-96257745D01*
X166330000Y-95429605D01*
X165501861Y-96257745D01*
X164851651Y-96257745D01*
X165046534Y-96062862D01*
X165073525Y-95997701D01*
X165076136Y-96004005D01*
X165322255Y-96078139D01*
X166150395Y-95250000D01*
X166509605Y-95250000D01*
X167337745Y-96078139D01*
X167583864Y-96004005D01*
X167776965Y-95466777D01*
X167749778Y-94896546D01*
X167583864Y-94495995D01*
X167337745Y-94421861D01*
X166509605Y-95250000D01*
X166150395Y-95250000D01*
X165322255Y-94421861D01*
X165076136Y-94495995D01*
X165073710Y-94502746D01*
X165046534Y-94437138D01*
X164851651Y-94242255D01*
X165501861Y-94242255D01*
X166330000Y-95070395D01*
X167158139Y-94242255D01*
X167084005Y-93996136D01*
X167063707Y-93988840D01*
X167124005Y-93963864D01*
X167198139Y-93717745D01*
X166370000Y-92889605D01*
X165541861Y-93717745D01*
X165615995Y-93963864D01*
X165636293Y-93971160D01*
X165575995Y-93996136D01*
X165501861Y-94242255D01*
X164851651Y-94242255D01*
X164642862Y-94033466D01*
X164533784Y-93988284D01*
X164682862Y-93926534D01*
X165086534Y-93522862D01*
X165113525Y-93457701D01*
X165116136Y-93464005D01*
X165362255Y-93538139D01*
X166190395Y-92710000D01*
X166549605Y-92710000D01*
X167377745Y-93538139D01*
X167623864Y-93464005D01*
X167816965Y-92926777D01*
X167789778Y-92356546D01*
X167623864Y-91955995D01*
X167377745Y-91881861D01*
X166549605Y-92710000D01*
X166190395Y-92710000D01*
X165362255Y-91881861D01*
X165116136Y-91955995D01*
X165113710Y-91962746D01*
X165086534Y-91897138D01*
X164891651Y-91702255D01*
X165541861Y-91702255D01*
X166370000Y-92530395D01*
X167198139Y-91702255D01*
X167124005Y-91456136D01*
X166586777Y-91263035D01*
X166016546Y-91290222D01*
X165615995Y-91456136D01*
X165541861Y-91702255D01*
X164891651Y-91702255D01*
X164755000Y-91565604D01*
X164755000Y-89233329D01*
X168887284Y-89233329D01*
X169030203Y-89578396D01*
X169377337Y-89966764D01*
X169846669Y-90192727D01*
X170053000Y-90070206D01*
X170053000Y-89027000D01*
X170307000Y-89027000D01*
X170307000Y-90070206D01*
X170513331Y-90192727D01*
X170982663Y-89966764D01*
X171329797Y-89578396D01*
X171472716Y-89233329D01*
X171349374Y-89027000D01*
X170307000Y-89027000D01*
X170053000Y-89027000D01*
X169010626Y-89027000D01*
X168887284Y-89233329D01*
X164755000Y-89233329D01*
X164755000Y-88566671D01*
X168887284Y-88566671D01*
X169010626Y-88773000D01*
X170053000Y-88773000D01*
X170053000Y-87729794D01*
X170307000Y-87729794D01*
X170307000Y-88773000D01*
X171349374Y-88773000D01*
X171472716Y-88566671D01*
X171329797Y-88221604D01*
X170982663Y-87833236D01*
X170513331Y-87607273D01*
X170307000Y-87729794D01*
X170053000Y-87729794D01*
X169846669Y-87607273D01*
X169377337Y-87833236D01*
X169030203Y-88221604D01*
X168887284Y-88566671D01*
X164755000Y-88566671D01*
X164755000Y-81039878D01*
X167006056Y-78788822D01*
X167240423Y-79139577D01*
X167592758Y-79375000D01*
X167240423Y-79610423D01*
X166923260Y-80085091D01*
X166811887Y-80645000D01*
X166923260Y-81204909D01*
X167240423Y-81679577D01*
X167592758Y-81915000D01*
X167240423Y-82150423D01*
X166923260Y-82625091D01*
X166811887Y-83185000D01*
X166923260Y-83744909D01*
X167240423Y-84219577D01*
X167715091Y-84536740D01*
X168133667Y-84620000D01*
X168416333Y-84620000D01*
X168834909Y-84536740D01*
X169309577Y-84219577D01*
X169626740Y-83744909D01*
X169738113Y-83185000D01*
X169626740Y-82625091D01*
X169309577Y-82150423D01*
X168957242Y-81915000D01*
X169309577Y-81679577D01*
X169626740Y-81204909D01*
X169738113Y-80645000D01*
X169626740Y-80085091D01*
X169309577Y-79610423D01*
X168957242Y-79375000D01*
X169309577Y-79139577D01*
X169626740Y-78664909D01*
X169738113Y-78105000D01*
X169626740Y-77545091D01*
X169309577Y-77070423D01*
X169148058Y-76962500D01*
X169153569Y-76934794D01*
X169160000Y-76902465D01*
X169177338Y-76815300D01*
X169160000Y-76728135D01*
X169160000Y-76699521D01*
X169309577Y-76599577D01*
X169626740Y-76124909D01*
X169738113Y-75565000D01*
X169626740Y-75005091D01*
X169309577Y-74530423D01*
X168834909Y-74213260D01*
X168416333Y-74130000D01*
X168133667Y-74130000D01*
X167715091Y-74213260D01*
X167240423Y-74530423D01*
X166923260Y-75005091D01*
X166811887Y-75565000D01*
X166923260Y-76124909D01*
X167020813Y-76270908D01*
X163305847Y-79985875D01*
X163231951Y-80035251D01*
X163036348Y-80327991D01*
X162985000Y-80586136D01*
X162985000Y-80586139D01*
X162967663Y-80673300D01*
X162985000Y-80760461D01*
X162985001Y-87631047D01*
X162825548Y-87565000D01*
X162294452Y-87565000D01*
X161803783Y-87768242D01*
X161428242Y-88143783D01*
X161225000Y-88634452D01*
X161225000Y-89165548D01*
X161428242Y-89656217D01*
X161803783Y-90031758D01*
X162294452Y-90235000D01*
X162825548Y-90235000D01*
X162985001Y-90168952D01*
X162985001Y-91565603D01*
X162653466Y-91897138D01*
X162435000Y-92424561D01*
X162435000Y-92780198D01*
X151972700Y-82317899D01*
X151972700Y-79769201D01*
X155162166Y-76579736D01*
X155175423Y-76599577D01*
X155527758Y-76835000D01*
X155175423Y-77070423D01*
X154858260Y-77545091D01*
X154746887Y-78105000D01*
X154858260Y-78664909D01*
X155175423Y-79139577D01*
X155527758Y-79375000D01*
X155175423Y-79610423D01*
X154858260Y-80085091D01*
X154746887Y-80645000D01*
X154858260Y-81204909D01*
X155175423Y-81679577D01*
X155527758Y-81915000D01*
X155175423Y-82150423D01*
X154858260Y-82625091D01*
X154746887Y-83185000D01*
X154858260Y-83744909D01*
X155175423Y-84219577D01*
X155650091Y-84536740D01*
X156068667Y-84620000D01*
X156351333Y-84620000D01*
X156769909Y-84536740D01*
X157244577Y-84219577D01*
X157561740Y-83744909D01*
X157603684Y-83534039D01*
X159263096Y-83534039D01*
X159423959Y-83922423D01*
X159799866Y-84337389D01*
X160305959Y-84576914D01*
X160528000Y-84455629D01*
X160528000Y-83312000D01*
X160782000Y-83312000D01*
X160782000Y-84455629D01*
X161004041Y-84576914D01*
X161510134Y-84337389D01*
X161886041Y-83922423D01*
X162046904Y-83534039D01*
X161924915Y-83312000D01*
X160782000Y-83312000D01*
X160528000Y-83312000D01*
X159385085Y-83312000D01*
X159263096Y-83534039D01*
X157603684Y-83534039D01*
X157673113Y-83185000D01*
X157561740Y-82625091D01*
X157244577Y-82150423D01*
X156892242Y-81915000D01*
X157244577Y-81679577D01*
X157561740Y-81204909D01*
X157673113Y-80645000D01*
X157561740Y-80085091D01*
X157244577Y-79610423D01*
X156892242Y-79375000D01*
X157244577Y-79139577D01*
X157561740Y-78664909D01*
X157673113Y-78105000D01*
X159191887Y-78105000D01*
X159303260Y-78664909D01*
X159620423Y-79139577D01*
X159972758Y-79375000D01*
X159620423Y-79610423D01*
X159303260Y-80085091D01*
X159191887Y-80645000D01*
X159303260Y-81204909D01*
X159620423Y-81679577D01*
X160004108Y-81935947D01*
X159799866Y-82032611D01*
X159423959Y-82447577D01*
X159263096Y-82835961D01*
X159385085Y-83058000D01*
X160528000Y-83058000D01*
X160528000Y-83038000D01*
X160782000Y-83038000D01*
X160782000Y-83058000D01*
X161924915Y-83058000D01*
X162046904Y-82835961D01*
X161886041Y-82447577D01*
X161510134Y-82032611D01*
X161305892Y-81935947D01*
X161689577Y-81679577D01*
X162006740Y-81204909D01*
X162118113Y-80645000D01*
X162006740Y-80085091D01*
X161689577Y-79610423D01*
X161337242Y-79375000D01*
X161689577Y-79139577D01*
X162006740Y-78664909D01*
X162118113Y-78105000D01*
X162006740Y-77545091D01*
X161689577Y-77070423D01*
X161568894Y-76989785D01*
X161702765Y-76963157D01*
X161912809Y-76822809D01*
X162053157Y-76612765D01*
X162102440Y-76365000D01*
X162102440Y-74765000D01*
X162053157Y-74517235D01*
X161912809Y-74307191D01*
X161702765Y-74166843D01*
X161455000Y-74117560D01*
X159855000Y-74117560D01*
X159607235Y-74166843D01*
X159397191Y-74307191D01*
X159256843Y-74517235D01*
X159207560Y-74765000D01*
X159207560Y-76365000D01*
X159256843Y-76612765D01*
X159397191Y-76822809D01*
X159607235Y-76963157D01*
X159741106Y-76989785D01*
X159620423Y-77070423D01*
X159303260Y-77545091D01*
X159191887Y-78105000D01*
X157673113Y-78105000D01*
X157561740Y-77545091D01*
X157244577Y-77070423D01*
X156892242Y-76835000D01*
X157244577Y-76599577D01*
X157561740Y-76124909D01*
X157673113Y-75565000D01*
X157561740Y-75005091D01*
X157244577Y-74530423D01*
X156769909Y-74213260D01*
X156700623Y-74199478D01*
X157922772Y-72977329D01*
X159235284Y-72977329D01*
X159378203Y-73322396D01*
X159725337Y-73710764D01*
X160194669Y-73936727D01*
X160401000Y-73814206D01*
X160401000Y-72771000D01*
X160655000Y-72771000D01*
X160655000Y-73814206D01*
X160861331Y-73936727D01*
X161330663Y-73710764D01*
X161677797Y-73322396D01*
X161820716Y-72977329D01*
X161697374Y-72771000D01*
X160655000Y-72771000D01*
X160401000Y-72771000D01*
X159358626Y-72771000D01*
X159235284Y-72977329D01*
X157922772Y-72977329D01*
X158589430Y-72310671D01*
X159235284Y-72310671D01*
X159358626Y-72517000D01*
X160401000Y-72517000D01*
X160401000Y-71473794D01*
X160655000Y-71473794D01*
X160655000Y-72517000D01*
X161697374Y-72517000D01*
X161820716Y-72310671D01*
X161677797Y-71965604D01*
X161330663Y-71577236D01*
X160861331Y-71351273D01*
X160655000Y-71473794D01*
X160401000Y-71473794D01*
X160194669Y-71351273D01*
X159725337Y-71577236D01*
X159378203Y-71965604D01*
X159235284Y-72310671D01*
X158589430Y-72310671D01*
X161139473Y-69760629D01*
X161202929Y-69718229D01*
X161301973Y-69570000D01*
X161353797Y-69492440D01*
X161555000Y-69492440D01*
X161802765Y-69443157D01*
X162012809Y-69302809D01*
X162153157Y-69092765D01*
X162156275Y-69077092D01*
X162325493Y-69246310D01*
X162889670Y-69480000D01*
X163500330Y-69480000D01*
X163609839Y-69434640D01*
X166813000Y-72637802D01*
X166813000Y-72909548D01*
X167016242Y-73400217D01*
X167391783Y-73775758D01*
X167882452Y-73979000D01*
X168413548Y-73979000D01*
X168904217Y-73775758D01*
X169279758Y-73400217D01*
X169483000Y-72909548D01*
X169483000Y-72378452D01*
X169279758Y-71887783D01*
X168904217Y-71512242D01*
X168413548Y-71309000D01*
X167882452Y-71309000D01*
X167706630Y-71381828D01*
X164684640Y-68359839D01*
X164730000Y-68250330D01*
X164730000Y-67639670D01*
X164496310Y-67075493D01*
X164064507Y-66643690D01*
X163500330Y-66410000D01*
X162889670Y-66410000D01*
X162780161Y-66455360D01*
X162559931Y-66235130D01*
X162517529Y-66171671D01*
X162266137Y-66003696D01*
X162044452Y-65959600D01*
X162044447Y-65959600D01*
X161969600Y-65944712D01*
X161894753Y-65959600D01*
X158009448Y-65959600D01*
X157934600Y-65944712D01*
X157859752Y-65959600D01*
X157859748Y-65959600D01*
X157638063Y-66003696D01*
X157386671Y-66171671D01*
X157344271Y-66235127D01*
X155840000Y-67739399D01*
X155840000Y-67639670D01*
X155606310Y-67075493D01*
X155174507Y-66643690D01*
X154610330Y-66410000D01*
X153999670Y-66410000D01*
X153435493Y-66643690D01*
X153266275Y-66812908D01*
X153263157Y-66797235D01*
X153122809Y-66587191D01*
X152912765Y-66446843D01*
X152665000Y-66397560D01*
X150865000Y-66397560D01*
X150617235Y-66446843D01*
X150407191Y-66587191D01*
X150346909Y-66677408D01*
X149772831Y-66103330D01*
X149730429Y-66039871D01*
X149479037Y-65871896D01*
X149257352Y-65827800D01*
X149257347Y-65827800D01*
X149182500Y-65812912D01*
X149107653Y-65827800D01*
X93532348Y-65827800D01*
X93457500Y-65812912D01*
X93382652Y-65827800D01*
X93382648Y-65827800D01*
X93160963Y-65871896D01*
X92909571Y-66039871D01*
X92867171Y-66103327D01*
X92140328Y-66830171D01*
X92076872Y-66872571D01*
X91908897Y-67123963D01*
X91887985Y-67229097D01*
X91849912Y-67420500D01*
X91864801Y-67495351D01*
X91864800Y-68671553D01*
X91849912Y-68746400D01*
X91864800Y-68821247D01*
X91864800Y-68821251D01*
X91908896Y-69042936D01*
X92076871Y-69294329D01*
X92140330Y-69336731D01*
X94966158Y-72162560D01*
X93638000Y-72162560D01*
X93390235Y-72211843D01*
X93180191Y-72352191D01*
X93039843Y-72562235D01*
X93030816Y-72607619D01*
X93018625Y-72589375D01*
X92960000Y-72550203D01*
X92960000Y-72446859D01*
X92977337Y-72359699D01*
X92960000Y-72272540D01*
X92960000Y-72272535D01*
X92908652Y-72014390D01*
X92713049Y-71721651D01*
X92639156Y-71672277D01*
X90057059Y-69090180D01*
X90286086Y-68861153D01*
X90535000Y-68260222D01*
X90535000Y-67609778D01*
X90286086Y-67008847D01*
X89826153Y-66548914D01*
X89225222Y-66300000D01*
X88574778Y-66300000D01*
X87973847Y-66548914D01*
X87513914Y-67008847D01*
X87265000Y-67609778D01*
X87265000Y-68260222D01*
X87513914Y-68861153D01*
X87973847Y-69321086D01*
X88029366Y-69344083D01*
X88066348Y-69530009D01*
X88212576Y-69748854D01*
X88212578Y-69748856D01*
X88261952Y-69822749D01*
X88335845Y-69872123D01*
X90982712Y-72518991D01*
X90877375Y-72589375D01*
X90678000Y-72887761D01*
X90478625Y-72589375D01*
X89987418Y-72261161D01*
X89554256Y-72175000D01*
X89261744Y-72175000D01*
X88828582Y-72261161D01*
X88337375Y-72589375D01*
X88009161Y-73080582D01*
X87893908Y-73660000D01*
X88009161Y-74239418D01*
X88337375Y-74730625D01*
X88828582Y-75058839D01*
X89261744Y-75145000D01*
X89554256Y-75145000D01*
X89987418Y-75058839D01*
X90478625Y-74730625D01*
X90678000Y-74432239D01*
X90877375Y-74730625D01*
X91368582Y-75058839D01*
X91801744Y-75145000D01*
X92094256Y-75145000D01*
X92527418Y-75058839D01*
X93018625Y-74730625D01*
X93030816Y-74712381D01*
X93039843Y-74757765D01*
X93180191Y-74967809D01*
X93285528Y-75038193D01*
X89472947Y-78850775D01*
X89399051Y-78900151D01*
X89203448Y-79192891D01*
X89152100Y-79451036D01*
X89152100Y-79451039D01*
X89134763Y-79538200D01*
X89152100Y-79625361D01*
X89152100Y-95520522D01*
X87195538Y-93563960D01*
X87239092Y-93345000D01*
X87123839Y-92765582D01*
X86795625Y-92274375D01*
X86304418Y-91946161D01*
X85871256Y-91860000D01*
X85578744Y-91860000D01*
X85145582Y-91946161D01*
X84654375Y-92274375D01*
X84326161Y-92765582D01*
X84210908Y-93345000D01*
X84326161Y-93924418D01*
X84654375Y-94415625D01*
X84973478Y-94628843D01*
X84843642Y-94689817D01*
X84453355Y-95118076D01*
X84283524Y-95528110D01*
X84404845Y-95758000D01*
X85598000Y-95758000D01*
X85598000Y-95738000D01*
X85852000Y-95738000D01*
X85852000Y-95758000D01*
X85872000Y-95758000D01*
X85872000Y-96012000D01*
X85852000Y-96012000D01*
X85852000Y-96032000D01*
X85598000Y-96032000D01*
X85598000Y-96012000D01*
X84404845Y-96012000D01*
X84283524Y-96241890D01*
X84453355Y-96651924D01*
X84730708Y-96956261D01*
X84627235Y-96976843D01*
X84417191Y-97117191D01*
X84276843Y-97327235D01*
X84227560Y-97575000D01*
X84227560Y-99275000D01*
X84276843Y-99522765D01*
X84417191Y-99732809D01*
X84627235Y-99873157D01*
X84875000Y-99922440D01*
X86575000Y-99922440D01*
X86822765Y-99873157D01*
X87032809Y-99732809D01*
X87173157Y-99522765D01*
X87222440Y-99275000D01*
X87222440Y-97575000D01*
X87173157Y-97327235D01*
X87032809Y-97117191D01*
X86822765Y-96976843D01*
X86719292Y-96956261D01*
X86996645Y-96651924D01*
X87166476Y-96241890D01*
X87045156Y-96012002D01*
X87140423Y-96012002D01*
X88152901Y-97024480D01*
X88152901Y-104600121D01*
X87935330Y-104510000D01*
X87324670Y-104510000D01*
X86760493Y-104743690D01*
X86328690Y-105175493D01*
X86095000Y-105739670D01*
X86095000Y-106350330D01*
X86328690Y-106914507D01*
X86505044Y-107090861D01*
X86370301Y-107146673D01*
X86191673Y-107325302D01*
X86095000Y-107558691D01*
X86095000Y-108299250D01*
X86253750Y-108458000D01*
X87503000Y-108458000D01*
X87503000Y-108438000D01*
X87757000Y-108438000D01*
X87757000Y-108458000D01*
X87777000Y-108458000D01*
X87777000Y-108712000D01*
X87757000Y-108712000D01*
X87757000Y-109961250D01*
X87915750Y-110120000D01*
X88152900Y-110120000D01*
X88152900Y-117923739D01*
X88135563Y-118010900D01*
X88152900Y-118098061D01*
X88152900Y-118098064D01*
X88204248Y-118356209D01*
X88313690Y-118520000D01*
X88312998Y-118520000D01*
X88312998Y-118678748D01*
X88154250Y-118520000D01*
X87485304Y-118520000D01*
X87549698Y-118493327D01*
X87728327Y-118314699D01*
X87825000Y-118081310D01*
X87825000Y-116490750D01*
X87666250Y-116332000D01*
X85567000Y-116332000D01*
X85567000Y-118431250D01*
X85725750Y-118590000D01*
X86394696Y-118590000D01*
X86330302Y-118616673D01*
X86151673Y-118795301D01*
X86055000Y-119028690D01*
X86055000Y-120619250D01*
X86213750Y-120778000D01*
X88313000Y-120778000D01*
X88313000Y-120758000D01*
X88567000Y-120758000D01*
X88567000Y-120778000D01*
X90666250Y-120778000D01*
X90825000Y-120619250D01*
X90825000Y-119304000D01*
X93580035Y-119304000D01*
X93667200Y-119321338D01*
X93754364Y-119304000D01*
X95700422Y-119304000D01*
X97239229Y-120842808D01*
X97167600Y-120828560D01*
X95567600Y-120828560D01*
X95319835Y-120877843D01*
X95109791Y-121018191D01*
X94969443Y-121228235D01*
X94920160Y-121476000D01*
X94920160Y-123076000D01*
X94969443Y-123323765D01*
X95109791Y-123533809D01*
X95319835Y-123674157D01*
X95553787Y-123720693D01*
X95539461Y-123768255D01*
X96367600Y-124596395D01*
X97195739Y-123768255D01*
X97181413Y-123720693D01*
X97415365Y-123674157D01*
X97624643Y-123534321D01*
X98747077Y-124656756D01*
X98796451Y-124730649D01*
X98870344Y-124780023D01*
X98870345Y-124780024D01*
X98901985Y-124801165D01*
X99089190Y-124926252D01*
X99347335Y-124977600D01*
X99347339Y-124977600D01*
X99358715Y-124979863D01*
X99291284Y-125142671D01*
X99414626Y-125349000D01*
X100457000Y-125349000D01*
X100457000Y-125329000D01*
X100711000Y-125329000D01*
X100711000Y-125349000D01*
X101753374Y-125349000D01*
X101876716Y-125142671D01*
X101808347Y-124977600D01*
X105333439Y-124977600D01*
X105420600Y-124994937D01*
X105507761Y-124977600D01*
X105507765Y-124977600D01*
X105765910Y-124926252D01*
X106058649Y-124730649D01*
X106108025Y-124656753D01*
X107091226Y-123673552D01*
X107241519Y-123898481D01*
X107444001Y-124033775D01*
X107444000Y-124348025D01*
X107072242Y-124719783D01*
X106869000Y-125210452D01*
X106869000Y-125741548D01*
X107072242Y-126232217D01*
X107130025Y-126290000D01*
X101612590Y-126290000D01*
X101733797Y-126154396D01*
X101876716Y-125809329D01*
X101753374Y-125603000D01*
X100711000Y-125603000D01*
X100711000Y-125623000D01*
X100457000Y-125623000D01*
X100457000Y-125603000D01*
X99414626Y-125603000D01*
X99291284Y-125809329D01*
X99434203Y-126154396D01*
X99555410Y-126290000D01*
X78180000Y-126290000D01*
X78180000Y-125783745D01*
X95539461Y-125783745D01*
X95613595Y-126029864D01*
X96150823Y-126222965D01*
X96721054Y-126195778D01*
X97121605Y-126029864D01*
X97195739Y-125783745D01*
X96367600Y-124955605D01*
X95539461Y-125783745D01*
X78180000Y-125783745D01*
X78180000Y-124559223D01*
X94920635Y-124559223D01*
X94947822Y-125129454D01*
X95113736Y-125530005D01*
X95359855Y-125604139D01*
X96187995Y-124776000D01*
X96547205Y-124776000D01*
X97375345Y-125604139D01*
X97621464Y-125530005D01*
X97814565Y-124992777D01*
X97787378Y-124422546D01*
X97621464Y-124021995D01*
X97375345Y-123947861D01*
X96547205Y-124776000D01*
X96187995Y-124776000D01*
X95359855Y-123947861D01*
X95113736Y-124021995D01*
X94920635Y-124559223D01*
X78180000Y-124559223D01*
X78180000Y-121190750D01*
X86055000Y-121190750D01*
X86055000Y-122781310D01*
X86151673Y-123014699D01*
X86330302Y-123193327D01*
X86563691Y-123290000D01*
X88154250Y-123290000D01*
X88313000Y-123131250D01*
X88313000Y-121032000D01*
X88567000Y-121032000D01*
X88567000Y-123131250D01*
X88725750Y-123290000D01*
X90316309Y-123290000D01*
X90549698Y-123193327D01*
X90728327Y-123014699D01*
X90825000Y-122781310D01*
X90825000Y-121190750D01*
X90666250Y-121032000D01*
X88567000Y-121032000D01*
X88313000Y-121032000D01*
X86213750Y-121032000D01*
X86055000Y-121190750D01*
X78180000Y-121190750D01*
X78180000Y-116490750D01*
X83055000Y-116490750D01*
X83055000Y-118081310D01*
X83151673Y-118314699D01*
X83330302Y-118493327D01*
X83563691Y-118590000D01*
X85154250Y-118590000D01*
X85313000Y-118431250D01*
X85313000Y-116332000D01*
X83213750Y-116332000D01*
X83055000Y-116490750D01*
X78180000Y-116490750D01*
X78180000Y-114328690D01*
X83055000Y-114328690D01*
X83055000Y-115919250D01*
X83213750Y-116078000D01*
X85313000Y-116078000D01*
X85313000Y-113978750D01*
X85567000Y-113978750D01*
X85567000Y-116078000D01*
X87666250Y-116078000D01*
X87825000Y-115919250D01*
X87825000Y-114328690D01*
X87728327Y-114095301D01*
X87549698Y-113916673D01*
X87316309Y-113820000D01*
X85725750Y-113820000D01*
X85567000Y-113978750D01*
X85313000Y-113978750D01*
X85154250Y-113820000D01*
X83563691Y-113820000D01*
X83330302Y-113916673D01*
X83151673Y-114095301D01*
X83055000Y-114328690D01*
X78180000Y-114328690D01*
X78180000Y-108870750D01*
X86095000Y-108870750D01*
X86095000Y-109611309D01*
X86191673Y-109844698D01*
X86370301Y-110023327D01*
X86603690Y-110120000D01*
X87344250Y-110120000D01*
X87503000Y-109961250D01*
X87503000Y-108712000D01*
X86253750Y-108712000D01*
X86095000Y-108870750D01*
X78180000Y-108870750D01*
X78180000Y-77222060D01*
X83572545Y-77222060D01*
X83655884Y-77475953D01*
X84220306Y-77681590D01*
X84820458Y-77655579D01*
X85254116Y-77475953D01*
X85337455Y-77222060D01*
X84455000Y-76339605D01*
X83572545Y-77222060D01*
X78180000Y-77222060D01*
X78180000Y-72785000D01*
X82932560Y-72785000D01*
X82932560Y-74535000D01*
X82981843Y-74782765D01*
X83122191Y-74992809D01*
X83317745Y-75123475D01*
X83278306Y-75162914D01*
X83392938Y-75277546D01*
X83139047Y-75360884D01*
X82933410Y-75925306D01*
X82959421Y-76525458D01*
X83139047Y-76959116D01*
X83392940Y-77042455D01*
X84275395Y-76160000D01*
X84261253Y-76145858D01*
X84440858Y-75966253D01*
X84455000Y-75980395D01*
X84469143Y-75966253D01*
X84648748Y-76145858D01*
X84634605Y-76160000D01*
X85517060Y-77042455D01*
X85770953Y-76959116D01*
X85976590Y-76394694D01*
X85950579Y-75794542D01*
X85770953Y-75360884D01*
X85517062Y-75277546D01*
X85631694Y-75162914D01*
X85592255Y-75123475D01*
X85787809Y-74992809D01*
X85928157Y-74782765D01*
X85977440Y-74535000D01*
X85977440Y-72785000D01*
X85928157Y-72537235D01*
X85787809Y-72327191D01*
X85577765Y-72186843D01*
X85330000Y-72137560D01*
X83580000Y-72137560D01*
X83332235Y-72186843D01*
X83122191Y-72327191D01*
X82981843Y-72537235D01*
X82932560Y-72785000D01*
X78180000Y-72785000D01*
X78180000Y-64210000D01*
X173280001Y-64210000D01*
X173280000Y-126290000D01*
X173280000Y-126290000D01*
G37*
X173280000Y-126290000D02*
X160924184Y-126290000D01*
X161027180Y-126221180D01*
X161335944Y-125759082D01*
X161417000Y-125351588D01*
X161417000Y-124076412D01*
X161335944Y-123668918D01*
X161027179Y-123206820D01*
X160565081Y-122898056D01*
X160020000Y-122789632D01*
X159474918Y-122898056D01*
X159012820Y-123206821D01*
X158750000Y-123600159D01*
X158487179Y-123206820D01*
X158025081Y-122898056D01*
X157480000Y-122789632D01*
X156934918Y-122898056D01*
X156472820Y-123206821D01*
X156210000Y-123600159D01*
X155947179Y-123206820D01*
X155825000Y-123125183D01*
X155825000Y-119024000D01*
X163585908Y-119024000D01*
X163701161Y-119603418D01*
X164029375Y-120094625D01*
X164327761Y-120294000D01*
X164029375Y-120493375D01*
X163701161Y-120984582D01*
X163585908Y-121564000D01*
X163701161Y-122143418D01*
X164029375Y-122634625D01*
X164520582Y-122962839D01*
X164953744Y-123049000D01*
X165246256Y-123049000D01*
X165679418Y-122962839D01*
X166170625Y-122634625D01*
X166498839Y-122143418D01*
X166614092Y-121564000D01*
X166498839Y-120984582D01*
X166170625Y-120493375D01*
X165872239Y-120294000D01*
X166170625Y-120094625D01*
X166498839Y-119603418D01*
X166614092Y-119024000D01*
X166498839Y-118444582D01*
X166170625Y-117953375D01*
X165851522Y-117740157D01*
X165981358Y-117679183D01*
X166371645Y-117250924D01*
X166541476Y-116840890D01*
X166420155Y-116611000D01*
X165227000Y-116611000D01*
X165227000Y-116631000D01*
X164973000Y-116631000D01*
X164973000Y-116611000D01*
X163779845Y-116611000D01*
X163658524Y-116840890D01*
X163828355Y-117250924D01*
X164218642Y-117679183D01*
X164348478Y-117740157D01*
X164029375Y-117953375D01*
X163701161Y-118444582D01*
X163585908Y-119024000D01*
X155825000Y-119024000D01*
X155825000Y-112289000D01*
X163609522Y-112289000D01*
X163651843Y-112501765D01*
X163792191Y-112711809D01*
X164002235Y-112852157D01*
X164047619Y-112861184D01*
X164029375Y-112873375D01*
X163701161Y-113364582D01*
X163585908Y-113944000D01*
X163701161Y-114523418D01*
X164029375Y-115014625D01*
X164348478Y-115227843D01*
X164218642Y-115288817D01*
X163828355Y-115717076D01*
X163658524Y-116127110D01*
X163779845Y-116357000D01*
X164973000Y-116357000D01*
X164973000Y-116337000D01*
X165227000Y-116337000D01*
X165227000Y-116357000D01*
X166420155Y-116357000D01*
X166541476Y-116127110D01*
X166371645Y-115717076D01*
X165981358Y-115288817D01*
X165851522Y-115227843D01*
X166170625Y-115014625D01*
X166498839Y-114523418D01*
X166614092Y-113944000D01*
X166498839Y-113364582D01*
X166170625Y-112873375D01*
X166152381Y-112861184D01*
X166197765Y-112852157D01*
X166407809Y-112711809D01*
X166548157Y-112501765D01*
X166597440Y-112254000D01*
X166597440Y-110554000D01*
X166548157Y-110306235D01*
X166407809Y-110096191D01*
X166197765Y-109955843D01*
X165950000Y-109906560D01*
X164250000Y-109906560D01*
X164002235Y-109955843D01*
X163792191Y-110096191D01*
X163651843Y-110306235D01*
X163609522Y-110519000D01*
X161335960Y-110519000D01*
X161417000Y-110111588D01*
X161417000Y-108836412D01*
X161335944Y-108428918D01*
X161027179Y-107966820D01*
X160565081Y-107658056D01*
X160020000Y-107549632D01*
X159474918Y-107658056D01*
X159012820Y-107966821D01*
X158750000Y-108360159D01*
X158487179Y-107966820D01*
X158025081Y-107658056D01*
X157480000Y-107549632D01*
X156934918Y-107658056D01*
X156472820Y-107966821D01*
X156210000Y-108360159D01*
X155947179Y-107966820D01*
X155825000Y-107885183D01*
X155825000Y-107848859D01*
X155842337Y-107761699D01*
X155825000Y-107674539D01*
X155825000Y-107674535D01*
X155773652Y-107416390D01*
X155663958Y-107252222D01*
X155627424Y-107197545D01*
X155627423Y-107197544D01*
X155578049Y-107123651D01*
X155504156Y-107074277D01*
X153534549Y-105104670D01*
X162041000Y-105104670D01*
X162041000Y-105715330D01*
X162274690Y-106279507D01*
X162706493Y-106711310D01*
X163270670Y-106945000D01*
X163881330Y-106945000D01*
X164445507Y-106711310D01*
X164621861Y-106534956D01*
X164677673Y-106669699D01*
X164856302Y-106848327D01*
X165089691Y-106945000D01*
X165830250Y-106945000D01*
X165989000Y-106786250D01*
X165989000Y-105537000D01*
X166243000Y-105537000D01*
X166243000Y-106786250D01*
X166401750Y-106945000D01*
X167142309Y-106945000D01*
X167375698Y-106848327D01*
X167554327Y-106669699D01*
X167651000Y-106436310D01*
X167651000Y-105695750D01*
X167492250Y-105537000D01*
X166243000Y-105537000D01*
X165989000Y-105537000D01*
X165969000Y-105537000D01*
X165969000Y-105283000D01*
X165989000Y-105283000D01*
X165989000Y-104033750D01*
X166243000Y-104033750D01*
X166243000Y-105283000D01*
X167492250Y-105283000D01*
X167651000Y-105124250D01*
X167651000Y-104383690D01*
X167554327Y-104150301D01*
X167375698Y-103971673D01*
X167142309Y-103875000D01*
X166401750Y-103875000D01*
X166243000Y-104033750D01*
X165989000Y-104033750D01*
X165830250Y-103875000D01*
X165089691Y-103875000D01*
X164856302Y-103971673D01*
X164677673Y-104150301D01*
X164621861Y-104285044D01*
X164445507Y-104108690D01*
X163881330Y-103875000D01*
X163270670Y-103875000D01*
X162706493Y-104108690D01*
X162274690Y-104540493D01*
X162041000Y-105104670D01*
X153534549Y-105104670D01*
X152929000Y-104499122D01*
X152929000Y-102409784D01*
X153111585Y-102334155D01*
X153641755Y-101803985D01*
X153928680Y-101111286D01*
X153928680Y-100361514D01*
X153641755Y-99668815D01*
X153111585Y-99138645D01*
X152929000Y-99063016D01*
X152929000Y-98681159D01*
X152946337Y-98593999D01*
X152929000Y-98506839D01*
X152929000Y-98506835D01*
X152877652Y-98248690D01*
X152682049Y-97955951D01*
X152608157Y-97906578D01*
X144903093Y-90201514D01*
X150159320Y-90201514D01*
X150159320Y-90951286D01*
X150446245Y-91643985D01*
X150976415Y-92174155D01*
X151669114Y-92461080D01*
X152418886Y-92461080D01*
X153111585Y-92174155D01*
X153641755Y-91643985D01*
X153928680Y-90951286D01*
X153928680Y-90201514D01*
X153641755Y-89508815D01*
X153111585Y-88978645D01*
X152418886Y-88691720D01*
X151669114Y-88691720D01*
X150976415Y-88978645D01*
X150446245Y-89508815D01*
X150159320Y-90201514D01*
X144903093Y-90201514D01*
X141866725Y-87165147D01*
X141839529Y-87124446D01*
X141847758Y-87116217D01*
X142051000Y-86625548D01*
X142051000Y-86094452D01*
X141847758Y-85603783D01*
X141472217Y-85228242D01*
X140981548Y-85025000D01*
X140450452Y-85025000D01*
X139959783Y-85228242D01*
X139584242Y-85603783D01*
X139381000Y-86094452D01*
X139381000Y-86625548D01*
X139525116Y-86973474D01*
X139387390Y-87065500D01*
X137354700Y-87065500D01*
X137354700Y-86962017D01*
X137212355Y-86618365D01*
X137179700Y-86585710D01*
X137179700Y-84011546D01*
X137194588Y-83936699D01*
X137179700Y-83861852D01*
X137179700Y-83861848D01*
X137135604Y-83640163D01*
X136967629Y-83388771D01*
X136904173Y-83346371D01*
X134202802Y-80645000D01*
X137068846Y-80645000D01*
X137172458Y-81165891D01*
X137467519Y-81607481D01*
X137909109Y-81902542D01*
X138298515Y-81980000D01*
X138561485Y-81980000D01*
X138950891Y-81902542D01*
X139392481Y-81607481D01*
X139399860Y-81596438D01*
X140805000Y-83001579D01*
X140805000Y-83470439D01*
X141023466Y-83997862D01*
X141427138Y-84401534D01*
X141954561Y-84620000D01*
X142525439Y-84620000D01*
X143052862Y-84401534D01*
X143261651Y-84192745D01*
X143911861Y-84192745D01*
X143985995Y-84438864D01*
X144523223Y-84631965D01*
X145093454Y-84604778D01*
X145494005Y-84438864D01*
X145568139Y-84192745D01*
X144740000Y-83364605D01*
X143911861Y-84192745D01*
X143261651Y-84192745D01*
X143456534Y-83997862D01*
X143483525Y-83932701D01*
X143486136Y-83939005D01*
X143732255Y-84013139D01*
X144560395Y-83185000D01*
X144919605Y-83185000D01*
X145747745Y-84013139D01*
X145993864Y-83939005D01*
X146139424Y-83534039D01*
X147198096Y-83534039D01*
X147358959Y-83922423D01*
X147734866Y-84337389D01*
X148240959Y-84576914D01*
X148463000Y-84455629D01*
X148463000Y-83312000D01*
X148717000Y-83312000D01*
X148717000Y-84455629D01*
X148939041Y-84576914D01*
X149445134Y-84337389D01*
X149821041Y-83922423D01*
X149981904Y-83534039D01*
X149859915Y-83312000D01*
X148717000Y-83312000D01*
X148463000Y-83312000D01*
X147320085Y-83312000D01*
X147198096Y-83534039D01*
X146139424Y-83534039D01*
X146186965Y-83401777D01*
X146159778Y-82831546D01*
X145993864Y-82430995D01*
X145747745Y-82356861D01*
X144919605Y-83185000D01*
X144560395Y-83185000D01*
X143732255Y-82356861D01*
X143486136Y-82430995D01*
X143483710Y-82437746D01*
X143456534Y-82372138D01*
X143261651Y-82177255D01*
X143911861Y-82177255D01*
X144740000Y-83005395D01*
X145568139Y-82177255D01*
X145494005Y-81931136D01*
X144956777Y-81738035D01*
X144386546Y-81765222D01*
X143985995Y-81931136D01*
X143911861Y-82177255D01*
X143261651Y-82177255D01*
X143052862Y-81968466D01*
X142525439Y-81750000D01*
X142056579Y-81750000D01*
X140387425Y-80080847D01*
X140338049Y-80006951D01*
X140045310Y-79811348D01*
X139787165Y-79760000D01*
X139787161Y-79760000D01*
X139700000Y-79742663D01*
X139612839Y-79760000D01*
X139444252Y-79760000D01*
X139392481Y-79682519D01*
X138950891Y-79387458D01*
X138833259Y-79364060D01*
X139232663Y-79171764D01*
X139579797Y-78783396D01*
X139722716Y-78438329D01*
X139599374Y-78232000D01*
X138557000Y-78232000D01*
X138557000Y-78252000D01*
X138303000Y-78252000D01*
X138303000Y-78232000D01*
X137260626Y-78232000D01*
X137137284Y-78438329D01*
X137280203Y-78783396D01*
X137627337Y-79171764D01*
X138026741Y-79364060D01*
X137909109Y-79387458D01*
X137467519Y-79682519D01*
X137172458Y-80124109D01*
X137068846Y-80645000D01*
X134202802Y-80645000D01*
X131329473Y-77771671D01*
X137137284Y-77771671D01*
X137260626Y-77978000D01*
X138303000Y-77978000D01*
X138303000Y-76934794D01*
X138557000Y-76934794D01*
X138557000Y-77978000D01*
X139599374Y-77978000D01*
X139722716Y-77771671D01*
X139579797Y-77426604D01*
X139232663Y-77038236D01*
X138763331Y-76812273D01*
X138557000Y-76934794D01*
X138303000Y-76934794D01*
X138096669Y-76812273D01*
X137627337Y-77038236D01*
X137280203Y-77426604D01*
X137137284Y-77771671D01*
X131329473Y-77771671D01*
X131029500Y-77471699D01*
X131029500Y-77062440D01*
X132295000Y-77062440D01*
X132542765Y-77013157D01*
X132752809Y-76872809D01*
X132893157Y-76662765D01*
X132942440Y-76415000D01*
X132942440Y-75914039D01*
X134498096Y-75914039D01*
X134658959Y-76302423D01*
X135034866Y-76717389D01*
X135540959Y-76956914D01*
X135763000Y-76835629D01*
X135763000Y-75692000D01*
X136017000Y-75692000D01*
X136017000Y-76835629D01*
X136239041Y-76956914D01*
X136745134Y-76717389D01*
X137121041Y-76302423D01*
X137281904Y-75914039D01*
X137159915Y-75692000D01*
X136017000Y-75692000D01*
X135763000Y-75692000D01*
X134620085Y-75692000D01*
X134498096Y-75914039D01*
X132942440Y-75914039D01*
X132942440Y-75215961D01*
X134498096Y-75215961D01*
X134620085Y-75438000D01*
X135763000Y-75438000D01*
X135763000Y-74294371D01*
X136017000Y-74294371D01*
X136017000Y-75438000D01*
X137159915Y-75438000D01*
X137281904Y-75215961D01*
X137121041Y-74827577D01*
X136745134Y-74412611D01*
X136239041Y-74173086D01*
X136017000Y-74294371D01*
X135763000Y-74294371D01*
X135540959Y-74173086D01*
X135034866Y-74412611D01*
X134658959Y-74827577D01*
X134498096Y-75215961D01*
X132942440Y-75215961D01*
X132942440Y-74715000D01*
X132893157Y-74467235D01*
X132752809Y-74257191D01*
X132542765Y-74116843D01*
X132295000Y-74067560D01*
X130595000Y-74067560D01*
X130347235Y-74116843D01*
X130292391Y-74153489D01*
X129551731Y-73412830D01*
X129509329Y-73349371D01*
X129257937Y-73181396D01*
X129036252Y-73137300D01*
X129036247Y-73137300D01*
X128961400Y-73122412D01*
X128886553Y-73137300D01*
X118120546Y-73137300D01*
X118045699Y-73122412D01*
X117970852Y-73137300D01*
X117970848Y-73137300D01*
X117749163Y-73181396D01*
X117731271Y-73193351D01*
X117561226Y-73306971D01*
X117561224Y-73306973D01*
X117497771Y-73349371D01*
X117455373Y-73412824D01*
X116480689Y-74387509D01*
X116149418Y-74166161D01*
X115716256Y-74080000D01*
X115423744Y-74080000D01*
X114990582Y-74166161D01*
X114499375Y-74494375D01*
X114300000Y-74792761D01*
X114100625Y-74494375D01*
X113609418Y-74166161D01*
X113176256Y-74080000D01*
X112883744Y-74080000D01*
X112450582Y-74166161D01*
X111959375Y-74494375D01*
X111947184Y-74512619D01*
X111938157Y-74467235D01*
X111797809Y-74257191D01*
X111587765Y-74116843D01*
X111353665Y-74070278D01*
X111323652Y-73919390D01*
X111128049Y-73626651D01*
X111121000Y-73621941D01*
X111121000Y-72642252D01*
X111198481Y-72590481D01*
X111493542Y-72148891D01*
X111597154Y-71628000D01*
X111539310Y-71337200D01*
X116531460Y-71337200D01*
X116521000Y-71362452D01*
X116521000Y-71893548D01*
X116724242Y-72384217D01*
X117099783Y-72759758D01*
X117590452Y-72963000D01*
X118121548Y-72963000D01*
X118612217Y-72759758D01*
X118987758Y-72384217D01*
X119191000Y-71893548D01*
X119191000Y-71362452D01*
X119180540Y-71337200D01*
X134172999Y-71337200D01*
X138885273Y-76049476D01*
X138927671Y-76112929D01*
X138991124Y-76155327D01*
X138991126Y-76155329D01*
X139116502Y-76239102D01*
X139179063Y-76280904D01*
X139400748Y-76325000D01*
X139400752Y-76325000D01*
X139475599Y-76339888D01*
X139550446Y-76325000D01*
X144811570Y-76325000D01*
X144833466Y-76377862D01*
X145237138Y-76781534D01*
X145496872Y-76889120D01*
X145293783Y-76973242D01*
X144918242Y-77348783D01*
X144715000Y-77839452D01*
X144715000Y-78370548D01*
X144918242Y-78861217D01*
X145293783Y-79236758D01*
X145627528Y-79375000D01*
X145293783Y-79513242D01*
X144918242Y-79888783D01*
X144715000Y-80379452D01*
X144715000Y-80910548D01*
X144918242Y-81401217D01*
X145293783Y-81776758D01*
X145784452Y-81980000D01*
X146315548Y-81980000D01*
X146806217Y-81776758D01*
X147181758Y-81401217D01*
X147253577Y-81227832D01*
X147555423Y-81679577D01*
X147939108Y-81935947D01*
X147734866Y-82032611D01*
X147358959Y-82447577D01*
X147198096Y-82835961D01*
X147320085Y-83058000D01*
X148463000Y-83058000D01*
X148463000Y-83038000D01*
X148717000Y-83038000D01*
X148717000Y-83058000D01*
X149859915Y-83058000D01*
X149981904Y-82835961D01*
X149821041Y-82447577D01*
X149445134Y-82032611D01*
X149240892Y-81935947D01*
X149624577Y-81679577D01*
X149941740Y-81204909D01*
X150053113Y-80645000D01*
X149967461Y-80214400D01*
X150452700Y-80214400D01*
X150452701Y-82557848D01*
X150437812Y-82632700D01*
X150452701Y-82707552D01*
X150496797Y-82929237D01*
X150664772Y-83180629D01*
X150728228Y-83223029D01*
X162416896Y-94911698D01*
X162395000Y-94964561D01*
X162395000Y-95535439D01*
X162613466Y-96062862D01*
X163017138Y-96466534D01*
X163070000Y-96488430D01*
X163070001Y-97821570D01*
X163017138Y-97843466D01*
X162613466Y-98247138D01*
X162395000Y-98774561D01*
X162395000Y-99345439D01*
X162613466Y-99872862D01*
X163017138Y-100276534D01*
X163544561Y-100495000D01*
X164115439Y-100495000D01*
X164642862Y-100276534D01*
X164851651Y-100067745D01*
X165501861Y-100067745D01*
X165575995Y-100313864D01*
X166113223Y-100506965D01*
X166683454Y-100479778D01*
X167084005Y-100313864D01*
X167158139Y-100067745D01*
X166330000Y-99239605D01*
X165501861Y-100067745D01*
X164851651Y-100067745D01*
X165046534Y-99872862D01*
X165073525Y-99807701D01*
X165076136Y-99814005D01*
X165322255Y-99888139D01*
X166150395Y-99060000D01*
X166509605Y-99060000D01*
X167337745Y-99888139D01*
X167583864Y-99814005D01*
X167776965Y-99276777D01*
X167749778Y-98706546D01*
X167583864Y-98305995D01*
X167337745Y-98231861D01*
X166509605Y-99060000D01*
X166150395Y-99060000D01*
X165322255Y-98231861D01*
X165076136Y-98305995D01*
X165073710Y-98312746D01*
X165046534Y-98247138D01*
X164851651Y-98052255D01*
X165501861Y-98052255D01*
X166330000Y-98880395D01*
X167158139Y-98052255D01*
X167084005Y-97806136D01*
X166546777Y-97613035D01*
X165976546Y-97640222D01*
X165575995Y-97806136D01*
X165501861Y-98052255D01*
X164851651Y-98052255D01*
X164642862Y-97843466D01*
X164590000Y-97821570D01*
X164590000Y-96488430D01*
X164642862Y-96466534D01*
X164851651Y-96257745D01*
X165501861Y-96257745D01*
X165575995Y-96503864D01*
X166113223Y-96696965D01*
X166683454Y-96669778D01*
X167084005Y-96503864D01*
X167158139Y-96257745D01*
X166330000Y-95429605D01*
X165501861Y-96257745D01*
X164851651Y-96257745D01*
X165046534Y-96062862D01*
X165073525Y-95997701D01*
X165076136Y-96004005D01*
X165322255Y-96078139D01*
X166150395Y-95250000D01*
X166509605Y-95250000D01*
X167337745Y-96078139D01*
X167583864Y-96004005D01*
X167776965Y-95466777D01*
X167749778Y-94896546D01*
X167583864Y-94495995D01*
X167337745Y-94421861D01*
X166509605Y-95250000D01*
X166150395Y-95250000D01*
X165322255Y-94421861D01*
X165076136Y-94495995D01*
X165073710Y-94502746D01*
X165046534Y-94437138D01*
X164851651Y-94242255D01*
X165501861Y-94242255D01*
X166330000Y-95070395D01*
X167158139Y-94242255D01*
X167084005Y-93996136D01*
X167063707Y-93988840D01*
X167124005Y-93963864D01*
X167198139Y-93717745D01*
X166370000Y-92889605D01*
X165541861Y-93717745D01*
X165615995Y-93963864D01*
X165636293Y-93971160D01*
X165575995Y-93996136D01*
X165501861Y-94242255D01*
X164851651Y-94242255D01*
X164642862Y-94033466D01*
X164533784Y-93988284D01*
X164682862Y-93926534D01*
X165086534Y-93522862D01*
X165113525Y-93457701D01*
X165116136Y-93464005D01*
X165362255Y-93538139D01*
X166190395Y-92710000D01*
X166549605Y-92710000D01*
X167377745Y-93538139D01*
X167623864Y-93464005D01*
X167816965Y-92926777D01*
X167789778Y-92356546D01*
X167623864Y-91955995D01*
X167377745Y-91881861D01*
X166549605Y-92710000D01*
X166190395Y-92710000D01*
X165362255Y-91881861D01*
X165116136Y-91955995D01*
X165113710Y-91962746D01*
X165086534Y-91897138D01*
X164891651Y-91702255D01*
X165541861Y-91702255D01*
X166370000Y-92530395D01*
X167198139Y-91702255D01*
X167124005Y-91456136D01*
X166586777Y-91263035D01*
X166016546Y-91290222D01*
X165615995Y-91456136D01*
X165541861Y-91702255D01*
X164891651Y-91702255D01*
X164755000Y-91565604D01*
X164755000Y-89233329D01*
X168887284Y-89233329D01*
X169030203Y-89578396D01*
X169377337Y-89966764D01*
X169846669Y-90192727D01*
X170053000Y-90070206D01*
X170053000Y-89027000D01*
X170307000Y-89027000D01*
X170307000Y-90070206D01*
X170513331Y-90192727D01*
X170982663Y-89966764D01*
X171329797Y-89578396D01*
X171472716Y-89233329D01*
X171349374Y-89027000D01*
X170307000Y-89027000D01*
X170053000Y-89027000D01*
X169010626Y-89027000D01*
X168887284Y-89233329D01*
X164755000Y-89233329D01*
X164755000Y-88566671D01*
X168887284Y-88566671D01*
X169010626Y-88773000D01*
X170053000Y-88773000D01*
X170053000Y-87729794D01*
X170307000Y-87729794D01*
X170307000Y-88773000D01*
X171349374Y-88773000D01*
X171472716Y-88566671D01*
X171329797Y-88221604D01*
X170982663Y-87833236D01*
X170513331Y-87607273D01*
X170307000Y-87729794D01*
X170053000Y-87729794D01*
X169846669Y-87607273D01*
X169377337Y-87833236D01*
X169030203Y-88221604D01*
X168887284Y-88566671D01*
X164755000Y-88566671D01*
X164755000Y-81039878D01*
X167006056Y-78788822D01*
X167240423Y-79139577D01*
X167592758Y-79375000D01*
X167240423Y-79610423D01*
X166923260Y-80085091D01*
X166811887Y-80645000D01*
X166923260Y-81204909D01*
X167240423Y-81679577D01*
X167592758Y-81915000D01*
X167240423Y-82150423D01*
X166923260Y-82625091D01*
X166811887Y-83185000D01*
X166923260Y-83744909D01*
X167240423Y-84219577D01*
X167715091Y-84536740D01*
X168133667Y-84620000D01*
X168416333Y-84620000D01*
X168834909Y-84536740D01*
X169309577Y-84219577D01*
X169626740Y-83744909D01*
X169738113Y-83185000D01*
X169626740Y-82625091D01*
X169309577Y-82150423D01*
X168957242Y-81915000D01*
X169309577Y-81679577D01*
X169626740Y-81204909D01*
X169738113Y-80645000D01*
X169626740Y-80085091D01*
X169309577Y-79610423D01*
X168957242Y-79375000D01*
X169309577Y-79139577D01*
X169626740Y-78664909D01*
X169738113Y-78105000D01*
X169626740Y-77545091D01*
X169309577Y-77070423D01*
X169148058Y-76962500D01*
X169153569Y-76934794D01*
X169160000Y-76902465D01*
X169177338Y-76815300D01*
X169160000Y-76728135D01*
X169160000Y-76699521D01*
X169309577Y-76599577D01*
X169626740Y-76124909D01*
X169738113Y-75565000D01*
X169626740Y-75005091D01*
X169309577Y-74530423D01*
X168834909Y-74213260D01*
X168416333Y-74130000D01*
X168133667Y-74130000D01*
X167715091Y-74213260D01*
X167240423Y-74530423D01*
X166923260Y-75005091D01*
X166811887Y-75565000D01*
X166923260Y-76124909D01*
X167020813Y-76270908D01*
X163305847Y-79985875D01*
X163231951Y-80035251D01*
X163036348Y-80327991D01*
X162985000Y-80586136D01*
X162985000Y-80586139D01*
X162967663Y-80673300D01*
X162985000Y-80760461D01*
X162985001Y-87631047D01*
X162825548Y-87565000D01*
X162294452Y-87565000D01*
X161803783Y-87768242D01*
X161428242Y-88143783D01*
X161225000Y-88634452D01*
X161225000Y-89165548D01*
X161428242Y-89656217D01*
X161803783Y-90031758D01*
X162294452Y-90235000D01*
X162825548Y-90235000D01*
X162985001Y-90168952D01*
X162985001Y-91565603D01*
X162653466Y-91897138D01*
X162435000Y-92424561D01*
X162435000Y-92780198D01*
X151972700Y-82317899D01*
X151972700Y-79769201D01*
X155162166Y-76579736D01*
X155175423Y-76599577D01*
X155527758Y-76835000D01*
X155175423Y-77070423D01*
X154858260Y-77545091D01*
X154746887Y-78105000D01*
X154858260Y-78664909D01*
X155175423Y-79139577D01*
X155527758Y-79375000D01*
X155175423Y-79610423D01*
X154858260Y-80085091D01*
X154746887Y-80645000D01*
X154858260Y-81204909D01*
X155175423Y-81679577D01*
X155527758Y-81915000D01*
X155175423Y-82150423D01*
X154858260Y-82625091D01*
X154746887Y-83185000D01*
X154858260Y-83744909D01*
X155175423Y-84219577D01*
X155650091Y-84536740D01*
X156068667Y-84620000D01*
X156351333Y-84620000D01*
X156769909Y-84536740D01*
X157244577Y-84219577D01*
X157561740Y-83744909D01*
X157603684Y-83534039D01*
X159263096Y-83534039D01*
X159423959Y-83922423D01*
X159799866Y-84337389D01*
X160305959Y-84576914D01*
X160528000Y-84455629D01*
X160528000Y-83312000D01*
X160782000Y-83312000D01*
X160782000Y-84455629D01*
X161004041Y-84576914D01*
X161510134Y-84337389D01*
X161886041Y-83922423D01*
X162046904Y-83534039D01*
X161924915Y-83312000D01*
X160782000Y-83312000D01*
X160528000Y-83312000D01*
X159385085Y-83312000D01*
X159263096Y-83534039D01*
X157603684Y-83534039D01*
X157673113Y-83185000D01*
X157561740Y-82625091D01*
X157244577Y-82150423D01*
X156892242Y-81915000D01*
X157244577Y-81679577D01*
X157561740Y-81204909D01*
X157673113Y-80645000D01*
X157561740Y-80085091D01*
X157244577Y-79610423D01*
X156892242Y-79375000D01*
X157244577Y-79139577D01*
X157561740Y-78664909D01*
X157673113Y-78105000D01*
X159191887Y-78105000D01*
X159303260Y-78664909D01*
X159620423Y-79139577D01*
X159972758Y-79375000D01*
X159620423Y-79610423D01*
X159303260Y-80085091D01*
X159191887Y-80645000D01*
X159303260Y-81204909D01*
X159620423Y-81679577D01*
X160004108Y-81935947D01*
X159799866Y-82032611D01*
X159423959Y-82447577D01*
X159263096Y-82835961D01*
X159385085Y-83058000D01*
X160528000Y-83058000D01*
X160528000Y-83038000D01*
X160782000Y-83038000D01*
X160782000Y-83058000D01*
X161924915Y-83058000D01*
X162046904Y-82835961D01*
X161886041Y-82447577D01*
X161510134Y-82032611D01*
X161305892Y-81935947D01*
X161689577Y-81679577D01*
X162006740Y-81204909D01*
X162118113Y-80645000D01*
X162006740Y-80085091D01*
X161689577Y-79610423D01*
X161337242Y-79375000D01*
X161689577Y-79139577D01*
X162006740Y-78664909D01*
X162118113Y-78105000D01*
X162006740Y-77545091D01*
X161689577Y-77070423D01*
X161568894Y-76989785D01*
X161702765Y-76963157D01*
X161912809Y-76822809D01*
X162053157Y-76612765D01*
X162102440Y-76365000D01*
X162102440Y-74765000D01*
X162053157Y-74517235D01*
X161912809Y-74307191D01*
X161702765Y-74166843D01*
X161455000Y-74117560D01*
X159855000Y-74117560D01*
X159607235Y-74166843D01*
X159397191Y-74307191D01*
X159256843Y-74517235D01*
X159207560Y-74765000D01*
X159207560Y-76365000D01*
X159256843Y-76612765D01*
X159397191Y-76822809D01*
X159607235Y-76963157D01*
X159741106Y-76989785D01*
X159620423Y-77070423D01*
X159303260Y-77545091D01*
X159191887Y-78105000D01*
X157673113Y-78105000D01*
X157561740Y-77545091D01*
X157244577Y-77070423D01*
X156892242Y-76835000D01*
X157244577Y-76599577D01*
X157561740Y-76124909D01*
X157673113Y-75565000D01*
X157561740Y-75005091D01*
X157244577Y-74530423D01*
X156769909Y-74213260D01*
X156700623Y-74199478D01*
X157922772Y-72977329D01*
X159235284Y-72977329D01*
X159378203Y-73322396D01*
X159725337Y-73710764D01*
X160194669Y-73936727D01*
X160401000Y-73814206D01*
X160401000Y-72771000D01*
X160655000Y-72771000D01*
X160655000Y-73814206D01*
X160861331Y-73936727D01*
X161330663Y-73710764D01*
X161677797Y-73322396D01*
X161820716Y-72977329D01*
X161697374Y-72771000D01*
X160655000Y-72771000D01*
X160401000Y-72771000D01*
X159358626Y-72771000D01*
X159235284Y-72977329D01*
X157922772Y-72977329D01*
X158589430Y-72310671D01*
X159235284Y-72310671D01*
X159358626Y-72517000D01*
X160401000Y-72517000D01*
X160401000Y-71473794D01*
X160655000Y-71473794D01*
X160655000Y-72517000D01*
X161697374Y-72517000D01*
X161820716Y-72310671D01*
X161677797Y-71965604D01*
X161330663Y-71577236D01*
X160861331Y-71351273D01*
X160655000Y-71473794D01*
X160401000Y-71473794D01*
X160194669Y-71351273D01*
X159725337Y-71577236D01*
X159378203Y-71965604D01*
X159235284Y-72310671D01*
X158589430Y-72310671D01*
X161139473Y-69760629D01*
X161202929Y-69718229D01*
X161301973Y-69570000D01*
X161353797Y-69492440D01*
X161555000Y-69492440D01*
X161802765Y-69443157D01*
X162012809Y-69302809D01*
X162153157Y-69092765D01*
X162156275Y-69077092D01*
X162325493Y-69246310D01*
X162889670Y-69480000D01*
X163500330Y-69480000D01*
X163609839Y-69434640D01*
X166813000Y-72637802D01*
X166813000Y-72909548D01*
X167016242Y-73400217D01*
X167391783Y-73775758D01*
X167882452Y-73979000D01*
X168413548Y-73979000D01*
X168904217Y-73775758D01*
X169279758Y-73400217D01*
X169483000Y-72909548D01*
X169483000Y-72378452D01*
X169279758Y-71887783D01*
X168904217Y-71512242D01*
X168413548Y-71309000D01*
X167882452Y-71309000D01*
X167706630Y-71381828D01*
X164684640Y-68359839D01*
X164730000Y-68250330D01*
X164730000Y-67639670D01*
X164496310Y-67075493D01*
X164064507Y-66643690D01*
X163500330Y-66410000D01*
X162889670Y-66410000D01*
X162780161Y-66455360D01*
X162559931Y-66235130D01*
X162517529Y-66171671D01*
X162266137Y-66003696D01*
X162044452Y-65959600D01*
X162044447Y-65959600D01*
X161969600Y-65944712D01*
X161894753Y-65959600D01*
X158009448Y-65959600D01*
X157934600Y-65944712D01*
X157859752Y-65959600D01*
X157859748Y-65959600D01*
X157638063Y-66003696D01*
X157386671Y-66171671D01*
X157344271Y-66235127D01*
X155840000Y-67739399D01*
X155840000Y-67639670D01*
X155606310Y-67075493D01*
X155174507Y-66643690D01*
X154610330Y-66410000D01*
X153999670Y-66410000D01*
X153435493Y-66643690D01*
X153266275Y-66812908D01*
X153263157Y-66797235D01*
X153122809Y-66587191D01*
X152912765Y-66446843D01*
X152665000Y-66397560D01*
X150865000Y-66397560D01*
X150617235Y-66446843D01*
X150407191Y-66587191D01*
X150346909Y-66677408D01*
X149772831Y-66103330D01*
X149730429Y-66039871D01*
X149479037Y-65871896D01*
X149257352Y-65827800D01*
X149257347Y-65827800D01*
X149182500Y-65812912D01*
X149107653Y-65827800D01*
X93532348Y-65827800D01*
X93457500Y-65812912D01*
X93382652Y-65827800D01*
X93382648Y-65827800D01*
X93160963Y-65871896D01*
X92909571Y-66039871D01*
X92867171Y-66103327D01*
X92140328Y-66830171D01*
X92076872Y-66872571D01*
X91908897Y-67123963D01*
X91887985Y-67229097D01*
X91849912Y-67420500D01*
X91864801Y-67495351D01*
X91864800Y-68671553D01*
X91849912Y-68746400D01*
X91864800Y-68821247D01*
X91864800Y-68821251D01*
X91908896Y-69042936D01*
X92076871Y-69294329D01*
X92140330Y-69336731D01*
X94966158Y-72162560D01*
X93638000Y-72162560D01*
X93390235Y-72211843D01*
X93180191Y-72352191D01*
X93039843Y-72562235D01*
X93030816Y-72607619D01*
X93018625Y-72589375D01*
X92960000Y-72550203D01*
X92960000Y-72446859D01*
X92977337Y-72359699D01*
X92960000Y-72272540D01*
X92960000Y-72272535D01*
X92908652Y-72014390D01*
X92713049Y-71721651D01*
X92639156Y-71672277D01*
X90057059Y-69090180D01*
X90286086Y-68861153D01*
X90535000Y-68260222D01*
X90535000Y-67609778D01*
X90286086Y-67008847D01*
X89826153Y-66548914D01*
X89225222Y-66300000D01*
X88574778Y-66300000D01*
X87973847Y-66548914D01*
X87513914Y-67008847D01*
X87265000Y-67609778D01*
X87265000Y-68260222D01*
X87513914Y-68861153D01*
X87973847Y-69321086D01*
X88029366Y-69344083D01*
X88066348Y-69530009D01*
X88212576Y-69748854D01*
X88212578Y-69748856D01*
X88261952Y-69822749D01*
X88335845Y-69872123D01*
X90982712Y-72518991D01*
X90877375Y-72589375D01*
X90678000Y-72887761D01*
X90478625Y-72589375D01*
X89987418Y-72261161D01*
X89554256Y-72175000D01*
X89261744Y-72175000D01*
X88828582Y-72261161D01*
X88337375Y-72589375D01*
X88009161Y-73080582D01*
X87893908Y-73660000D01*
X88009161Y-74239418D01*
X88337375Y-74730625D01*
X88828582Y-75058839D01*
X89261744Y-75145000D01*
X89554256Y-75145000D01*
X89987418Y-75058839D01*
X90478625Y-74730625D01*
X90678000Y-74432239D01*
X90877375Y-74730625D01*
X91368582Y-75058839D01*
X91801744Y-75145000D01*
X92094256Y-75145000D01*
X92527418Y-75058839D01*
X93018625Y-74730625D01*
X93030816Y-74712381D01*
X93039843Y-74757765D01*
X93180191Y-74967809D01*
X93285528Y-75038193D01*
X89472947Y-78850775D01*
X89399051Y-78900151D01*
X89203448Y-79192891D01*
X89152100Y-79451036D01*
X89152100Y-79451039D01*
X89134763Y-79538200D01*
X89152100Y-79625361D01*
X89152100Y-95520522D01*
X87195538Y-93563960D01*
X87239092Y-93345000D01*
X87123839Y-92765582D01*
X86795625Y-92274375D01*
X86304418Y-91946161D01*
X85871256Y-91860000D01*
X85578744Y-91860000D01*
X85145582Y-91946161D01*
X84654375Y-92274375D01*
X84326161Y-92765582D01*
X84210908Y-93345000D01*
X84326161Y-93924418D01*
X84654375Y-94415625D01*
X84973478Y-94628843D01*
X84843642Y-94689817D01*
X84453355Y-95118076D01*
X84283524Y-95528110D01*
X84404845Y-95758000D01*
X85598000Y-95758000D01*
X85598000Y-95738000D01*
X85852000Y-95738000D01*
X85852000Y-95758000D01*
X85872000Y-95758000D01*
X85872000Y-96012000D01*
X85852000Y-96012000D01*
X85852000Y-96032000D01*
X85598000Y-96032000D01*
X85598000Y-96012000D01*
X84404845Y-96012000D01*
X84283524Y-96241890D01*
X84453355Y-96651924D01*
X84730708Y-96956261D01*
X84627235Y-96976843D01*
X84417191Y-97117191D01*
X84276843Y-97327235D01*
X84227560Y-97575000D01*
X84227560Y-99275000D01*
X84276843Y-99522765D01*
X84417191Y-99732809D01*
X84627235Y-99873157D01*
X84875000Y-99922440D01*
X86575000Y-99922440D01*
X86822765Y-99873157D01*
X87032809Y-99732809D01*
X87173157Y-99522765D01*
X87222440Y-99275000D01*
X87222440Y-97575000D01*
X87173157Y-97327235D01*
X87032809Y-97117191D01*
X86822765Y-96976843D01*
X86719292Y-96956261D01*
X86996645Y-96651924D01*
X87166476Y-96241890D01*
X87045156Y-96012002D01*
X87140423Y-96012002D01*
X88152901Y-97024480D01*
X88152901Y-104600121D01*
X87935330Y-104510000D01*
X87324670Y-104510000D01*
X86760493Y-104743690D01*
X86328690Y-105175493D01*
X86095000Y-105739670D01*
X86095000Y-106350330D01*
X86328690Y-106914507D01*
X86505044Y-107090861D01*
X86370301Y-107146673D01*
X86191673Y-107325302D01*
X86095000Y-107558691D01*
X86095000Y-108299250D01*
X86253750Y-108458000D01*
X87503000Y-108458000D01*
X87503000Y-108438000D01*
X87757000Y-108438000D01*
X87757000Y-108458000D01*
X87777000Y-108458000D01*
X87777000Y-108712000D01*
X87757000Y-108712000D01*
X87757000Y-109961250D01*
X87915750Y-110120000D01*
X88152900Y-110120000D01*
X88152900Y-117923739D01*
X88135563Y-118010900D01*
X88152900Y-118098061D01*
X88152900Y-118098064D01*
X88204248Y-118356209D01*
X88313690Y-118520000D01*
X88312998Y-118520000D01*
X88312998Y-118678748D01*
X88154250Y-118520000D01*
X87485304Y-118520000D01*
X87549698Y-118493327D01*
X87728327Y-118314699D01*
X87825000Y-118081310D01*
X87825000Y-116490750D01*
X87666250Y-116332000D01*
X85567000Y-116332000D01*
X85567000Y-118431250D01*
X85725750Y-118590000D01*
X86394696Y-118590000D01*
X86330302Y-118616673D01*
X86151673Y-118795301D01*
X86055000Y-119028690D01*
X86055000Y-120619250D01*
X86213750Y-120778000D01*
X88313000Y-120778000D01*
X88313000Y-120758000D01*
X88567000Y-120758000D01*
X88567000Y-120778000D01*
X90666250Y-120778000D01*
X90825000Y-120619250D01*
X90825000Y-119304000D01*
X93580035Y-119304000D01*
X93667200Y-119321338D01*
X93754364Y-119304000D01*
X95700422Y-119304000D01*
X97239229Y-120842808D01*
X97167600Y-120828560D01*
X95567600Y-120828560D01*
X95319835Y-120877843D01*
X95109791Y-121018191D01*
X94969443Y-121228235D01*
X94920160Y-121476000D01*
X94920160Y-123076000D01*
X94969443Y-123323765D01*
X95109791Y-123533809D01*
X95319835Y-123674157D01*
X95553787Y-123720693D01*
X95539461Y-123768255D01*
X96367600Y-124596395D01*
X97195739Y-123768255D01*
X97181413Y-123720693D01*
X97415365Y-123674157D01*
X97624643Y-123534321D01*
X98747077Y-124656756D01*
X98796451Y-124730649D01*
X98870344Y-124780023D01*
X98870345Y-124780024D01*
X98901985Y-124801165D01*
X99089190Y-124926252D01*
X99347335Y-124977600D01*
X99347339Y-124977600D01*
X99358715Y-124979863D01*
X99291284Y-125142671D01*
X99414626Y-125349000D01*
X100457000Y-125349000D01*
X100457000Y-125329000D01*
X100711000Y-125329000D01*
X100711000Y-125349000D01*
X101753374Y-125349000D01*
X101876716Y-125142671D01*
X101808347Y-124977600D01*
X105333439Y-124977600D01*
X105420600Y-124994937D01*
X105507761Y-124977600D01*
X105507765Y-124977600D01*
X105765910Y-124926252D01*
X106058649Y-124730649D01*
X106108025Y-124656753D01*
X107091226Y-123673552D01*
X107241519Y-123898481D01*
X107444001Y-124033775D01*
X107444000Y-124348025D01*
X107072242Y-124719783D01*
X106869000Y-125210452D01*
X106869000Y-125741548D01*
X107072242Y-126232217D01*
X107130025Y-126290000D01*
X101612590Y-126290000D01*
X101733797Y-126154396D01*
X101876716Y-125809329D01*
X101753374Y-125603000D01*
X100711000Y-125603000D01*
X100711000Y-125623000D01*
X100457000Y-125623000D01*
X100457000Y-125603000D01*
X99414626Y-125603000D01*
X99291284Y-125809329D01*
X99434203Y-126154396D01*
X99555410Y-126290000D01*
X78180000Y-126290000D01*
X78180000Y-125783745D01*
X95539461Y-125783745D01*
X95613595Y-126029864D01*
X96150823Y-126222965D01*
X96721054Y-126195778D01*
X97121605Y-126029864D01*
X97195739Y-125783745D01*
X96367600Y-124955605D01*
X95539461Y-125783745D01*
X78180000Y-125783745D01*
X78180000Y-124559223D01*
X94920635Y-124559223D01*
X94947822Y-125129454D01*
X95113736Y-125530005D01*
X95359855Y-125604139D01*
X96187995Y-124776000D01*
X96547205Y-124776000D01*
X97375345Y-125604139D01*
X97621464Y-125530005D01*
X97814565Y-124992777D01*
X97787378Y-124422546D01*
X97621464Y-124021995D01*
X97375345Y-123947861D01*
X96547205Y-124776000D01*
X96187995Y-124776000D01*
X95359855Y-123947861D01*
X95113736Y-124021995D01*
X94920635Y-124559223D01*
X78180000Y-124559223D01*
X78180000Y-121190750D01*
X86055000Y-121190750D01*
X86055000Y-122781310D01*
X86151673Y-123014699D01*
X86330302Y-123193327D01*
X86563691Y-123290000D01*
X88154250Y-123290000D01*
X88313000Y-123131250D01*
X88313000Y-121032000D01*
X88567000Y-121032000D01*
X88567000Y-123131250D01*
X88725750Y-123290000D01*
X90316309Y-123290000D01*
X90549698Y-123193327D01*
X90728327Y-123014699D01*
X90825000Y-122781310D01*
X90825000Y-121190750D01*
X90666250Y-121032000D01*
X88567000Y-121032000D01*
X88313000Y-121032000D01*
X86213750Y-121032000D01*
X86055000Y-121190750D01*
X78180000Y-121190750D01*
X78180000Y-116490750D01*
X83055000Y-116490750D01*
X83055000Y-118081310D01*
X83151673Y-118314699D01*
X83330302Y-118493327D01*
X83563691Y-118590000D01*
X85154250Y-118590000D01*
X85313000Y-118431250D01*
X85313000Y-116332000D01*
X83213750Y-116332000D01*
X83055000Y-116490750D01*
X78180000Y-116490750D01*
X78180000Y-114328690D01*
X83055000Y-114328690D01*
X83055000Y-115919250D01*
X83213750Y-116078000D01*
X85313000Y-116078000D01*
X85313000Y-113978750D01*
X85567000Y-113978750D01*
X85567000Y-116078000D01*
X87666250Y-116078000D01*
X87825000Y-115919250D01*
X87825000Y-114328690D01*
X87728327Y-114095301D01*
X87549698Y-113916673D01*
X87316309Y-113820000D01*
X85725750Y-113820000D01*
X85567000Y-113978750D01*
X85313000Y-113978750D01*
X85154250Y-113820000D01*
X83563691Y-113820000D01*
X83330302Y-113916673D01*
X83151673Y-114095301D01*
X83055000Y-114328690D01*
X78180000Y-114328690D01*
X78180000Y-108870750D01*
X86095000Y-108870750D01*
X86095000Y-109611309D01*
X86191673Y-109844698D01*
X86370301Y-110023327D01*
X86603690Y-110120000D01*
X87344250Y-110120000D01*
X87503000Y-109961250D01*
X87503000Y-108712000D01*
X86253750Y-108712000D01*
X86095000Y-108870750D01*
X78180000Y-108870750D01*
X78180000Y-77222060D01*
X83572545Y-77222060D01*
X83655884Y-77475953D01*
X84220306Y-77681590D01*
X84820458Y-77655579D01*
X85254116Y-77475953D01*
X85337455Y-77222060D01*
X84455000Y-76339605D01*
X83572545Y-77222060D01*
X78180000Y-77222060D01*
X78180000Y-72785000D01*
X82932560Y-72785000D01*
X82932560Y-74535000D01*
X82981843Y-74782765D01*
X83122191Y-74992809D01*
X83317745Y-75123475D01*
X83278306Y-75162914D01*
X83392938Y-75277546D01*
X83139047Y-75360884D01*
X82933410Y-75925306D01*
X82959421Y-76525458D01*
X83139047Y-76959116D01*
X83392940Y-77042455D01*
X84275395Y-76160000D01*
X84261253Y-76145858D01*
X84440858Y-75966253D01*
X84455000Y-75980395D01*
X84469143Y-75966253D01*
X84648748Y-76145858D01*
X84634605Y-76160000D01*
X85517060Y-77042455D01*
X85770953Y-76959116D01*
X85976590Y-76394694D01*
X85950579Y-75794542D01*
X85770953Y-75360884D01*
X85517062Y-75277546D01*
X85631694Y-75162914D01*
X85592255Y-75123475D01*
X85787809Y-74992809D01*
X85928157Y-74782765D01*
X85977440Y-74535000D01*
X85977440Y-72785000D01*
X85928157Y-72537235D01*
X85787809Y-72327191D01*
X85577765Y-72186843D01*
X85330000Y-72137560D01*
X83580000Y-72137560D01*
X83332235Y-72186843D01*
X83122191Y-72327191D01*
X82981843Y-72537235D01*
X82932560Y-72785000D01*
X78180000Y-72785000D01*
X78180000Y-64210000D01*
X173280001Y-64210000D01*
X173280000Y-126290000D01*
G36*
X134809333Y-87671312D02*
X134835748Y-87804110D01*
X135031351Y-88096849D01*
X135105246Y-88146224D01*
X135473675Y-88514653D01*
X135523051Y-88588549D01*
X135815790Y-88784152D01*
X136073935Y-88835500D01*
X136073939Y-88835500D01*
X136161100Y-88852837D01*
X136248261Y-88835500D01*
X139381000Y-88835500D01*
X139381000Y-89165548D01*
X139584242Y-89656217D01*
X139959783Y-90031758D01*
X140293528Y-90170000D01*
X139959783Y-90308242D01*
X139584242Y-90683783D01*
X139381000Y-91174452D01*
X139381000Y-91705548D01*
X139584242Y-92196217D01*
X139959783Y-92571758D01*
X140293528Y-92710000D01*
X139959783Y-92848242D01*
X139584242Y-93223783D01*
X139381000Y-93714452D01*
X139381000Y-94240198D01*
X139203329Y-94417869D01*
X139139871Y-94460271D01*
X138971896Y-94711664D01*
X138927800Y-94933349D01*
X138927800Y-94933353D01*
X138912912Y-95008200D01*
X138927800Y-95083047D01*
X138927801Y-96868248D01*
X138912912Y-96943100D01*
X138971897Y-97239637D01*
X139034840Y-97333837D01*
X139139872Y-97491029D01*
X139203327Y-97533429D01*
X139778961Y-98109064D01*
X139584242Y-98303783D01*
X139381000Y-98794452D01*
X139381000Y-99325548D01*
X139584242Y-99816217D01*
X139959783Y-100191758D01*
X140293528Y-100330000D01*
X139959783Y-100468242D01*
X139584242Y-100843783D01*
X139381000Y-101334452D01*
X139381000Y-101865548D01*
X139584242Y-102356217D01*
X139959783Y-102731758D01*
X140293528Y-102870000D01*
X139959783Y-103008242D01*
X139584242Y-103383783D01*
X139381000Y-103874452D01*
X139381000Y-104405548D01*
X139584242Y-104896217D01*
X139959783Y-105271758D01*
X140450452Y-105475000D01*
X140454457Y-105475000D01*
X140167337Y-105613236D01*
X139820203Y-106001604D01*
X139677284Y-106346671D01*
X139800626Y-106553000D01*
X140843000Y-106553000D01*
X140843000Y-106533000D01*
X141097000Y-106533000D01*
X141097000Y-106553000D01*
X141117000Y-106553000D01*
X141117000Y-106807000D01*
X141097000Y-106807000D01*
X141097000Y-106827000D01*
X140843000Y-106827000D01*
X140843000Y-106807000D01*
X139800626Y-106807000D01*
X139677284Y-107013329D01*
X139820203Y-107358396D01*
X140167337Y-107746764D01*
X140566741Y-107939060D01*
X140449109Y-107962458D01*
X140007519Y-108257519D01*
X139712458Y-108699109D01*
X139608846Y-109220000D01*
X139712458Y-109740891D01*
X140007519Y-110182481D01*
X140449109Y-110477542D01*
X140838515Y-110555000D01*
X141101485Y-110555000D01*
X141490891Y-110477542D01*
X141932481Y-110182481D01*
X142218500Y-109754423D01*
X142218501Y-112012882D01*
X141953222Y-111903000D01*
X141302778Y-111903000D01*
X140701847Y-112151914D01*
X140241914Y-112611847D01*
X139993000Y-113212778D01*
X139993000Y-113863222D01*
X140241914Y-114464153D01*
X140701847Y-114924086D01*
X141302778Y-115173000D01*
X141953222Y-115173000D01*
X142218501Y-115063118D01*
X142218501Y-116512882D01*
X141953222Y-116403000D01*
X141302778Y-116403000D01*
X140701847Y-116651914D01*
X140241914Y-117111847D01*
X139993000Y-117712778D01*
X139993000Y-118363222D01*
X140241914Y-118964153D01*
X140701847Y-119424086D01*
X141302778Y-119673000D01*
X141953222Y-119673000D01*
X142218501Y-119563118D01*
X142218501Y-119807048D01*
X142203612Y-119881900D01*
X142262597Y-120178437D01*
X142354430Y-120315874D01*
X142430572Y-120429829D01*
X142494028Y-120472229D01*
X148311798Y-126290000D01*
X109277975Y-126290000D01*
X109335758Y-126232217D01*
X109539000Y-125741548D01*
X109539000Y-125210452D01*
X109335758Y-124719783D01*
X108964000Y-124348025D01*
X108964000Y-124033774D01*
X109166481Y-123898481D01*
X109461542Y-123456891D01*
X109565154Y-122936000D01*
X109506693Y-122642100D01*
X110962024Y-122642100D01*
X110921843Y-122702235D01*
X110872560Y-122950000D01*
X110872560Y-124700000D01*
X110921843Y-124947765D01*
X111062191Y-125157809D01*
X111272235Y-125298157D01*
X111520000Y-125347440D01*
X113270000Y-125347440D01*
X113517765Y-125298157D01*
X113727809Y-125157809D01*
X113868157Y-124947765D01*
X113870504Y-124935966D01*
X114039654Y-125105116D01*
X114594642Y-125335000D01*
X115153421Y-125335000D01*
X115594277Y-125775856D01*
X115643651Y-125849749D01*
X115717544Y-125899123D01*
X115717545Y-125899124D01*
X115904328Y-126023929D01*
X115936390Y-126045352D01*
X116194535Y-126096700D01*
X116194539Y-126096700D01*
X116281700Y-126114037D01*
X116368861Y-126096700D01*
X120921139Y-126096700D01*
X121008300Y-126114037D01*
X121095461Y-126096700D01*
X121095465Y-126096700D01*
X121353610Y-126045352D01*
X121646349Y-125849749D01*
X121695725Y-125775853D01*
X122136578Y-125335000D01*
X122695358Y-125335000D01*
X123250346Y-125105116D01*
X123645000Y-124710462D01*
X124039654Y-125105116D01*
X124594642Y-125335000D01*
X125195358Y-125335000D01*
X125750346Y-125105116D01*
X126175116Y-124680346D01*
X126405000Y-124125358D01*
X126405000Y-123524642D01*
X126365506Y-123429296D01*
X126849473Y-122945329D01*
X126912929Y-122902929D01*
X127080904Y-122651537D01*
X127125000Y-122429852D01*
X127125000Y-122429847D01*
X127139888Y-122355000D01*
X127125000Y-122280153D01*
X127125000Y-120577300D01*
X127156337Y-120564320D01*
X127549320Y-120171337D01*
X127635000Y-119964487D01*
X127720680Y-120171337D01*
X128113663Y-120564320D01*
X128627119Y-120777000D01*
X129182881Y-120777000D01*
X129696337Y-120564320D01*
X130089320Y-120171337D01*
X130302000Y-119657881D01*
X130302000Y-119102119D01*
X130289020Y-119070782D01*
X130659473Y-118700329D01*
X130722929Y-118657929D01*
X130890904Y-118406537D01*
X130935000Y-118184852D01*
X130935000Y-118184848D01*
X130949888Y-118110001D01*
X130935000Y-118035154D01*
X130935000Y-117712778D01*
X133493000Y-117712778D01*
X133493000Y-118363222D01*
X133741914Y-118964153D01*
X134201847Y-119424086D01*
X134802778Y-119673000D01*
X135453222Y-119673000D01*
X136054153Y-119424086D01*
X136514086Y-118964153D01*
X136763000Y-118363222D01*
X136763000Y-117712778D01*
X136514086Y-117111847D01*
X136054153Y-116651914D01*
X135453222Y-116403000D01*
X134802778Y-116403000D01*
X134201847Y-116651914D01*
X133741914Y-117111847D01*
X133493000Y-117712778D01*
X130935000Y-117712778D01*
X130935000Y-116767300D01*
X130966337Y-116754320D01*
X131359320Y-116361337D01*
X131572000Y-115847881D01*
X131572000Y-115292119D01*
X131359320Y-114778663D01*
X130966337Y-114385680D01*
X130452881Y-114173000D01*
X129897119Y-114173000D01*
X129383663Y-114385680D01*
X128990680Y-114778663D01*
X128905000Y-114985513D01*
X128819320Y-114778663D01*
X128426337Y-114385680D01*
X127912881Y-114173000D01*
X127357119Y-114173000D01*
X126843663Y-114385680D01*
X126450680Y-114778663D01*
X126365000Y-114985513D01*
X126279320Y-114778663D01*
X125886337Y-114385680D01*
X125372881Y-114173000D01*
X124817119Y-114173000D01*
X124303663Y-114385680D01*
X123910680Y-114778663D01*
X123825000Y-114985513D01*
X123739320Y-114778663D01*
X123440000Y-114479343D01*
X123440000Y-113539396D01*
X123771534Y-113207862D01*
X123805000Y-113127068D01*
X123838466Y-113207862D01*
X124242138Y-113611534D01*
X124769561Y-113830000D01*
X125340439Y-113830000D01*
X125867862Y-113611534D01*
X126271534Y-113207862D01*
X126490000Y-112680439D01*
X126490000Y-112109561D01*
X126271534Y-111582138D01*
X125867862Y-111178466D01*
X125340439Y-110960000D01*
X124769561Y-110960000D01*
X124716698Y-110981897D01*
X124509731Y-110774930D01*
X124467329Y-110711471D01*
X124215937Y-110543496D01*
X123994252Y-110499400D01*
X123994247Y-110499400D01*
X123919400Y-110484512D01*
X123844553Y-110499400D01*
X123397201Y-110499400D01*
X124027218Y-109869384D01*
X124388582Y-110110839D01*
X124821744Y-110197000D01*
X125114256Y-110197000D01*
X125547418Y-110110839D01*
X126038625Y-109782625D01*
X126238000Y-109484239D01*
X126437375Y-109782625D01*
X126928582Y-110110839D01*
X127361744Y-110197000D01*
X127654256Y-110197000D01*
X128087418Y-110110839D01*
X128578625Y-109782625D01*
X128778000Y-109484239D01*
X128977375Y-109782625D01*
X129468582Y-110110839D01*
X129901744Y-110197000D01*
X130194256Y-110197000D01*
X130627418Y-110110839D01*
X131118625Y-109782625D01*
X131446839Y-109291418D01*
X131562092Y-108712000D01*
X131446839Y-108132582D01*
X131225531Y-107801371D01*
X131707773Y-107319129D01*
X131771229Y-107276729D01*
X131939204Y-107025337D01*
X131983300Y-106803652D01*
X131983300Y-106803648D01*
X131998188Y-106728801D01*
X131983300Y-106653954D01*
X131983300Y-104877662D01*
X132133519Y-105102481D01*
X132575109Y-105397542D01*
X132833514Y-105448942D01*
X132593783Y-105548242D01*
X132218242Y-105923783D01*
X132015000Y-106414452D01*
X132015000Y-106945548D01*
X132218242Y-107436217D01*
X132593783Y-107811758D01*
X132927528Y-107950000D01*
X132593783Y-108088242D01*
X132218242Y-108463783D01*
X132015000Y-108954452D01*
X132015000Y-109485548D01*
X132218242Y-109976217D01*
X132593783Y-110351758D01*
X133084452Y-110555000D01*
X133615548Y-110555000D01*
X134106217Y-110351758D01*
X134368000Y-110089975D01*
X134368001Y-112083091D01*
X134201847Y-112151914D01*
X133741914Y-112611847D01*
X133493000Y-113212778D01*
X133493000Y-113863222D01*
X133741914Y-114464153D01*
X134201847Y-114924086D01*
X134802778Y-115173000D01*
X135453222Y-115173000D01*
X136054153Y-114924086D01*
X136514086Y-114464153D01*
X136763000Y-113863222D01*
X136763000Y-113212778D01*
X136514086Y-112611847D01*
X136054153Y-112151914D01*
X135888000Y-112083091D01*
X135888000Y-108532848D01*
X135902888Y-108458000D01*
X135888000Y-108383152D01*
X135888000Y-108383148D01*
X135843904Y-108161463D01*
X135843904Y-108161462D01*
X135718329Y-107973527D01*
X135675929Y-107910071D01*
X135612473Y-107867671D01*
X134685000Y-106940199D01*
X134685000Y-106414452D01*
X134481758Y-105923783D01*
X134106217Y-105548242D01*
X133664920Y-105365450D01*
X134058481Y-105102481D01*
X134353542Y-104660891D01*
X134457154Y-104140000D01*
X134353542Y-103619109D01*
X134058481Y-103177519D01*
X133616891Y-102882458D01*
X133554261Y-102870000D01*
X133616891Y-102857542D01*
X134058481Y-102562481D01*
X134353542Y-102120891D01*
X134457154Y-101600000D01*
X134353542Y-101079109D01*
X134058481Y-100637519D01*
X133769903Y-100444697D01*
X133811904Y-100381838D01*
X133835144Y-100265000D01*
X133856000Y-100160152D01*
X133856000Y-100160148D01*
X133856545Y-100157411D01*
X134058481Y-100022481D01*
X134353542Y-99580891D01*
X134457154Y-99060000D01*
X134353542Y-98539109D01*
X134058481Y-98097519D01*
X133769902Y-97904697D01*
X133811904Y-97841837D01*
X133856000Y-97620152D01*
X133856000Y-97620147D01*
X133856544Y-97617411D01*
X134058481Y-97482481D01*
X134353542Y-97040891D01*
X134457154Y-96520000D01*
X134353542Y-95999109D01*
X134058481Y-95557519D01*
X133616891Y-95262458D01*
X133554261Y-95250000D01*
X133616891Y-95237542D01*
X134058481Y-94942481D01*
X134353542Y-94500891D01*
X134457154Y-93980000D01*
X134353542Y-93459109D01*
X134058481Y-93017519D01*
X133616891Y-92722458D01*
X133554261Y-92710000D01*
X133616891Y-92697542D01*
X134058481Y-92402481D01*
X134353542Y-91960891D01*
X134457154Y-91440000D01*
X134353542Y-90919109D01*
X134058481Y-90477519D01*
X133616891Y-90182458D01*
X133554261Y-90170000D01*
X133616891Y-90157542D01*
X134058481Y-89862481D01*
X134353542Y-89420891D01*
X134457154Y-88900000D01*
X134353542Y-88379109D01*
X134058481Y-87937519D01*
X133616891Y-87642458D01*
X133554261Y-87630000D01*
X133616891Y-87617542D01*
X134058481Y-87322481D01*
X134219508Y-87081487D01*
X134809333Y-87671312D01*
X134809333Y-87671312D01*
G37*
X134809333Y-87671312D02*
X134835748Y-87804110D01*
X135031351Y-88096849D01*
X135105246Y-88146224D01*
X135473675Y-88514653D01*
X135523051Y-88588549D01*
X135815790Y-88784152D01*
X136073935Y-88835500D01*
X136073939Y-88835500D01*
X136161100Y-88852837D01*
X136248261Y-88835500D01*
X139381000Y-88835500D01*
X139381000Y-89165548D01*
X139584242Y-89656217D01*
X139959783Y-90031758D01*
X140293528Y-90170000D01*
X139959783Y-90308242D01*
X139584242Y-90683783D01*
X139381000Y-91174452D01*
X139381000Y-91705548D01*
X139584242Y-92196217D01*
X139959783Y-92571758D01*
X140293528Y-92710000D01*
X139959783Y-92848242D01*
X139584242Y-93223783D01*
X139381000Y-93714452D01*
X139381000Y-94240198D01*
X139203329Y-94417869D01*
X139139871Y-94460271D01*
X138971896Y-94711664D01*
X138927800Y-94933349D01*
X138927800Y-94933353D01*
X138912912Y-95008200D01*
X138927800Y-95083047D01*
X138927801Y-96868248D01*
X138912912Y-96943100D01*
X138971897Y-97239637D01*
X139034840Y-97333837D01*
X139139872Y-97491029D01*
X139203327Y-97533429D01*
X139778961Y-98109064D01*
X139584242Y-98303783D01*
X139381000Y-98794452D01*
X139381000Y-99325548D01*
X139584242Y-99816217D01*
X139959783Y-100191758D01*
X140293528Y-100330000D01*
X139959783Y-100468242D01*
X139584242Y-100843783D01*
X139381000Y-101334452D01*
X139381000Y-101865548D01*
X139584242Y-102356217D01*
X139959783Y-102731758D01*
X140293528Y-102870000D01*
X139959783Y-103008242D01*
X139584242Y-103383783D01*
X139381000Y-103874452D01*
X139381000Y-104405548D01*
X139584242Y-104896217D01*
X139959783Y-105271758D01*
X140450452Y-105475000D01*
X140454457Y-105475000D01*
X140167337Y-105613236D01*
X139820203Y-106001604D01*
X139677284Y-106346671D01*
X139800626Y-106553000D01*
X140843000Y-106553000D01*
X140843000Y-106533000D01*
X141097000Y-106533000D01*
X141097000Y-106553000D01*
X141117000Y-106553000D01*
X141117000Y-106807000D01*
X141097000Y-106807000D01*
X141097000Y-106827000D01*
X140843000Y-106827000D01*
X140843000Y-106807000D01*
X139800626Y-106807000D01*
X139677284Y-107013329D01*
X139820203Y-107358396D01*
X140167337Y-107746764D01*
X140566741Y-107939060D01*
X140449109Y-107962458D01*
X140007519Y-108257519D01*
X139712458Y-108699109D01*
X139608846Y-109220000D01*
X139712458Y-109740891D01*
X140007519Y-110182481D01*
X140449109Y-110477542D01*
X140838515Y-110555000D01*
X141101485Y-110555000D01*
X141490891Y-110477542D01*
X141932481Y-110182481D01*
X142218500Y-109754423D01*
X142218501Y-112012882D01*
X141953222Y-111903000D01*
X141302778Y-111903000D01*
X140701847Y-112151914D01*
X140241914Y-112611847D01*
X139993000Y-113212778D01*
X139993000Y-113863222D01*
X140241914Y-114464153D01*
X140701847Y-114924086D01*
X141302778Y-115173000D01*
X141953222Y-115173000D01*
X142218501Y-115063118D01*
X142218501Y-116512882D01*
X141953222Y-116403000D01*
X141302778Y-116403000D01*
X140701847Y-116651914D01*
X140241914Y-117111847D01*
X139993000Y-117712778D01*
X139993000Y-118363222D01*
X140241914Y-118964153D01*
X140701847Y-119424086D01*
X141302778Y-119673000D01*
X141953222Y-119673000D01*
X142218501Y-119563118D01*
X142218501Y-119807048D01*
X142203612Y-119881900D01*
X142262597Y-120178437D01*
X142354430Y-120315874D01*
X142430572Y-120429829D01*
X142494028Y-120472229D01*
X148311798Y-126290000D01*
X109277975Y-126290000D01*
X109335758Y-126232217D01*
X109539000Y-125741548D01*
X109539000Y-125210452D01*
X109335758Y-124719783D01*
X108964000Y-124348025D01*
X108964000Y-124033774D01*
X109166481Y-123898481D01*
X109461542Y-123456891D01*
X109565154Y-122936000D01*
X109506693Y-122642100D01*
X110962024Y-122642100D01*
X110921843Y-122702235D01*
X110872560Y-122950000D01*
X110872560Y-124700000D01*
X110921843Y-124947765D01*
X111062191Y-125157809D01*
X111272235Y-125298157D01*
X111520000Y-125347440D01*
X113270000Y-125347440D01*
X113517765Y-125298157D01*
X113727809Y-125157809D01*
X113868157Y-124947765D01*
X113870504Y-124935966D01*
X114039654Y-125105116D01*
X114594642Y-125335000D01*
X115153421Y-125335000D01*
X115594277Y-125775856D01*
X115643651Y-125849749D01*
X115717544Y-125899123D01*
X115717545Y-125899124D01*
X115904328Y-126023929D01*
X115936390Y-126045352D01*
X116194535Y-126096700D01*
X116194539Y-126096700D01*
X116281700Y-126114037D01*
X116368861Y-126096700D01*
X120921139Y-126096700D01*
X121008300Y-126114037D01*
X121095461Y-126096700D01*
X121095465Y-126096700D01*
X121353610Y-126045352D01*
X121646349Y-125849749D01*
X121695725Y-125775853D01*
X122136578Y-125335000D01*
X122695358Y-125335000D01*
X123250346Y-125105116D01*
X123645000Y-124710462D01*
X124039654Y-125105116D01*
X124594642Y-125335000D01*
X125195358Y-125335000D01*
X125750346Y-125105116D01*
X126175116Y-124680346D01*
X126405000Y-124125358D01*
X126405000Y-123524642D01*
X126365506Y-123429296D01*
X126849473Y-122945329D01*
X126912929Y-122902929D01*
X127080904Y-122651537D01*
X127125000Y-122429852D01*
X127125000Y-122429847D01*
X127139888Y-122355000D01*
X127125000Y-122280153D01*
X127125000Y-120577300D01*
X127156337Y-120564320D01*
X127549320Y-120171337D01*
X127635000Y-119964487D01*
X127720680Y-120171337D01*
X128113663Y-120564320D01*
X128627119Y-120777000D01*
X129182881Y-120777000D01*
X129696337Y-120564320D01*
X130089320Y-120171337D01*
X130302000Y-119657881D01*
X130302000Y-119102119D01*
X130289020Y-119070782D01*
X130659473Y-118700329D01*
X130722929Y-118657929D01*
X130890904Y-118406537D01*
X130935000Y-118184852D01*
X130935000Y-118184848D01*
X130949888Y-118110001D01*
X130935000Y-118035154D01*
X130935000Y-117712778D01*
X133493000Y-117712778D01*
X133493000Y-118363222D01*
X133741914Y-118964153D01*
X134201847Y-119424086D01*
X134802778Y-119673000D01*
X135453222Y-119673000D01*
X136054153Y-119424086D01*
X136514086Y-118964153D01*
X136763000Y-118363222D01*
X136763000Y-117712778D01*
X136514086Y-117111847D01*
X136054153Y-116651914D01*
X135453222Y-116403000D01*
X134802778Y-116403000D01*
X134201847Y-116651914D01*
X133741914Y-117111847D01*
X133493000Y-117712778D01*
X130935000Y-117712778D01*
X130935000Y-116767300D01*
X130966337Y-116754320D01*
X131359320Y-116361337D01*
X131572000Y-115847881D01*
X131572000Y-115292119D01*
X131359320Y-114778663D01*
X130966337Y-114385680D01*
X130452881Y-114173000D01*
X129897119Y-114173000D01*
X129383663Y-114385680D01*
X128990680Y-114778663D01*
X128905000Y-114985513D01*
X128819320Y-114778663D01*
X128426337Y-114385680D01*
X127912881Y-114173000D01*
X127357119Y-114173000D01*
X126843663Y-114385680D01*
X126450680Y-114778663D01*
X126365000Y-114985513D01*
X126279320Y-114778663D01*
X125886337Y-114385680D01*
X125372881Y-114173000D01*
X124817119Y-114173000D01*
X124303663Y-114385680D01*
X123910680Y-114778663D01*
X123825000Y-114985513D01*
X123739320Y-114778663D01*
X123440000Y-114479343D01*
X123440000Y-113539396D01*
X123771534Y-113207862D01*
X123805000Y-113127068D01*
X123838466Y-113207862D01*
X124242138Y-113611534D01*
X124769561Y-113830000D01*
X125340439Y-113830000D01*
X125867862Y-113611534D01*
X126271534Y-113207862D01*
X126490000Y-112680439D01*
X126490000Y-112109561D01*
X126271534Y-111582138D01*
X125867862Y-111178466D01*
X125340439Y-110960000D01*
X124769561Y-110960000D01*
X124716698Y-110981897D01*
X124509731Y-110774930D01*
X124467329Y-110711471D01*
X124215937Y-110543496D01*
X123994252Y-110499400D01*
X123994247Y-110499400D01*
X123919400Y-110484512D01*
X123844553Y-110499400D01*
X123397201Y-110499400D01*
X124027218Y-109869384D01*
X124388582Y-110110839D01*
X124821744Y-110197000D01*
X125114256Y-110197000D01*
X125547418Y-110110839D01*
X126038625Y-109782625D01*
X126238000Y-109484239D01*
X126437375Y-109782625D01*
X126928582Y-110110839D01*
X127361744Y-110197000D01*
X127654256Y-110197000D01*
X128087418Y-110110839D01*
X128578625Y-109782625D01*
X128778000Y-109484239D01*
X128977375Y-109782625D01*
X129468582Y-110110839D01*
X129901744Y-110197000D01*
X130194256Y-110197000D01*
X130627418Y-110110839D01*
X131118625Y-109782625D01*
X131446839Y-109291418D01*
X131562092Y-108712000D01*
X131446839Y-108132582D01*
X131225531Y-107801371D01*
X131707773Y-107319129D01*
X131771229Y-107276729D01*
X131939204Y-107025337D01*
X131983300Y-106803652D01*
X131983300Y-106803648D01*
X131998188Y-106728801D01*
X131983300Y-106653954D01*
X131983300Y-104877662D01*
X132133519Y-105102481D01*
X132575109Y-105397542D01*
X132833514Y-105448942D01*
X132593783Y-105548242D01*
X132218242Y-105923783D01*
X132015000Y-106414452D01*
X132015000Y-106945548D01*
X132218242Y-107436217D01*
X132593783Y-107811758D01*
X132927528Y-107950000D01*
X132593783Y-108088242D01*
X132218242Y-108463783D01*
X132015000Y-108954452D01*
X132015000Y-109485548D01*
X132218242Y-109976217D01*
X132593783Y-110351758D01*
X133084452Y-110555000D01*
X133615548Y-110555000D01*
X134106217Y-110351758D01*
X134368000Y-110089975D01*
X134368001Y-112083091D01*
X134201847Y-112151914D01*
X133741914Y-112611847D01*
X133493000Y-113212778D01*
X133493000Y-113863222D01*
X133741914Y-114464153D01*
X134201847Y-114924086D01*
X134802778Y-115173000D01*
X135453222Y-115173000D01*
X136054153Y-114924086D01*
X136514086Y-114464153D01*
X136763000Y-113863222D01*
X136763000Y-113212778D01*
X136514086Y-112611847D01*
X136054153Y-112151914D01*
X135888000Y-112083091D01*
X135888000Y-108532848D01*
X135902888Y-108458000D01*
X135888000Y-108383152D01*
X135888000Y-108383148D01*
X135843904Y-108161463D01*
X135843904Y-108161462D01*
X135718329Y-107973527D01*
X135675929Y-107910071D01*
X135612473Y-107867671D01*
X134685000Y-106940199D01*
X134685000Y-106414452D01*
X134481758Y-105923783D01*
X134106217Y-105548242D01*
X133664920Y-105365450D01*
X134058481Y-105102481D01*
X134353542Y-104660891D01*
X134457154Y-104140000D01*
X134353542Y-103619109D01*
X134058481Y-103177519D01*
X133616891Y-102882458D01*
X133554261Y-102870000D01*
X133616891Y-102857542D01*
X134058481Y-102562481D01*
X134353542Y-102120891D01*
X134457154Y-101600000D01*
X134353542Y-101079109D01*
X134058481Y-100637519D01*
X133769903Y-100444697D01*
X133811904Y-100381838D01*
X133835144Y-100265000D01*
X133856000Y-100160152D01*
X133856000Y-100160148D01*
X133856545Y-100157411D01*
X134058481Y-100022481D01*
X134353542Y-99580891D01*
X134457154Y-99060000D01*
X134353542Y-98539109D01*
X134058481Y-98097519D01*
X133769902Y-97904697D01*
X133811904Y-97841837D01*
X133856000Y-97620152D01*
X133856000Y-97620147D01*
X133856544Y-97617411D01*
X134058481Y-97482481D01*
X134353542Y-97040891D01*
X134457154Y-96520000D01*
X134353542Y-95999109D01*
X134058481Y-95557519D01*
X133616891Y-95262458D01*
X133554261Y-95250000D01*
X133616891Y-95237542D01*
X134058481Y-94942481D01*
X134353542Y-94500891D01*
X134457154Y-93980000D01*
X134353542Y-93459109D01*
X134058481Y-93017519D01*
X133616891Y-92722458D01*
X133554261Y-92710000D01*
X133616891Y-92697542D01*
X134058481Y-92402481D01*
X134353542Y-91960891D01*
X134457154Y-91440000D01*
X134353542Y-90919109D01*
X134058481Y-90477519D01*
X133616891Y-90182458D01*
X133554261Y-90170000D01*
X133616891Y-90157542D01*
X134058481Y-89862481D01*
X134353542Y-89420891D01*
X134457154Y-88900000D01*
X134353542Y-88379109D01*
X134058481Y-87937519D01*
X133616891Y-87642458D01*
X133554261Y-87630000D01*
X133616891Y-87617542D01*
X134058481Y-87322481D01*
X134219508Y-87081487D01*
X134809333Y-87671312D01*
G36*
X146581000Y-103459802D02*
X146581001Y-117992848D01*
X146566112Y-118067700D01*
X146625097Y-118364237D01*
X146729175Y-118520000D01*
X146793072Y-118615629D01*
X146856528Y-118658029D01*
X151400312Y-123201815D01*
X151392820Y-123206821D01*
X151130000Y-123600159D01*
X150867179Y-123206820D01*
X150617663Y-123040099D01*
X150575904Y-122830163D01*
X150575904Y-122830162D01*
X150450329Y-122642227D01*
X150450328Y-122642226D01*
X150407929Y-122578771D01*
X150344473Y-122536371D01*
X144188900Y-116380799D01*
X144188900Y-101067702D01*
X146581000Y-103459802D01*
X146581000Y-103459802D01*
G37*
X146581000Y-103459802D02*
X146581001Y-117992848D01*
X146566112Y-118067700D01*
X146625097Y-118364237D01*
X146729175Y-118520000D01*
X146793072Y-118615629D01*
X146856528Y-118658029D01*
X151400312Y-123201815D01*
X151392820Y-123206821D01*
X151130000Y-123600159D01*
X150867179Y-123206820D01*
X150617663Y-123040099D01*
X150575904Y-122830163D01*
X150575904Y-122830162D01*
X150450329Y-122642227D01*
X150450328Y-122642226D01*
X150407929Y-122578771D01*
X150344473Y-122536371D01*
X144188900Y-116380799D01*
X144188900Y-101067702D01*
X146581000Y-103459802D01*
G36*
X153932821Y-110981180D02*
X154055001Y-111062818D01*
X154055001Y-111099130D01*
X154055000Y-111099135D01*
X154055000Y-111316835D01*
X154037662Y-111404000D01*
X154055001Y-111491170D01*
X154055000Y-123088864D01*
X154055001Y-123088869D01*
X154055001Y-123125182D01*
X153932820Y-123206821D01*
X153670000Y-123600159D01*
X153407179Y-123206820D01*
X153157663Y-123040099D01*
X153115904Y-122830163D01*
X153030425Y-122702235D01*
X152990329Y-122642226D01*
X152990327Y-122642224D01*
X152947929Y-122578771D01*
X152884476Y-122536373D01*
X148101000Y-117752899D01*
X148101000Y-110846801D01*
X148799971Y-111545773D01*
X148842371Y-111609229D01*
X149093763Y-111777204D01*
X149315448Y-111821300D01*
X149315453Y-111821300D01*
X149390300Y-111836188D01*
X149465147Y-111821300D01*
X152325148Y-111821300D01*
X152400000Y-111836189D01*
X152696537Y-111777204D01*
X152947929Y-111609229D01*
X153115904Y-111357837D01*
X153157663Y-111147902D01*
X153407180Y-110981180D01*
X153670000Y-110587842D01*
X153932821Y-110981180D01*
X153932821Y-110981180D01*
G37*
X153932821Y-110981180D02*
X154055001Y-111062818D01*
X154055001Y-111099130D01*
X154055000Y-111099135D01*
X154055000Y-111316835D01*
X154037662Y-111404000D01*
X154055001Y-111491170D01*
X154055000Y-123088864D01*
X154055001Y-123088869D01*
X154055001Y-123125182D01*
X153932820Y-123206821D01*
X153670000Y-123600159D01*
X153407179Y-123206820D01*
X153157663Y-123040099D01*
X153115904Y-122830163D01*
X153030425Y-122702235D01*
X152990329Y-122642226D01*
X152990327Y-122642224D01*
X152947929Y-122578771D01*
X152884476Y-122536373D01*
X148101000Y-117752899D01*
X148101000Y-110846801D01*
X148799971Y-111545773D01*
X148842371Y-111609229D01*
X149093763Y-111777204D01*
X149315448Y-111821300D01*
X149315453Y-111821300D01*
X149390300Y-111836188D01*
X149465147Y-111821300D01*
X152325148Y-111821300D01*
X152400000Y-111836189D01*
X152696537Y-111777204D01*
X152947929Y-111609229D01*
X153115904Y-111357837D01*
X153157663Y-111147902D01*
X153407180Y-110981180D01*
X153670000Y-110587842D01*
X153932821Y-110981180D01*
G36*
X125180680Y-120171337D02*
X125573663Y-120564320D01*
X125605001Y-120577300D01*
X125605000Y-122040198D01*
X125290704Y-122354494D01*
X125195358Y-122315000D01*
X124594642Y-122315000D01*
X124039654Y-122544884D01*
X123645000Y-122939538D01*
X123250346Y-122544884D01*
X122695358Y-122315000D01*
X122094642Y-122315000D01*
X121539654Y-122544884D01*
X121145000Y-122939538D01*
X120750346Y-122544884D01*
X120195358Y-122315000D01*
X119594642Y-122315000D01*
X119039654Y-122544884D01*
X118645000Y-122939538D01*
X118250346Y-122544884D01*
X117695358Y-122315000D01*
X117094642Y-122315000D01*
X116539654Y-122544884D01*
X116145000Y-122939538D01*
X115816587Y-122611125D01*
X115919010Y-122590752D01*
X116211749Y-122395149D01*
X116261125Y-122321253D01*
X117999198Y-120583181D01*
X118467119Y-120777000D01*
X119022881Y-120777000D01*
X119536337Y-120564320D01*
X119929320Y-120171337D01*
X120015000Y-119964487D01*
X120100680Y-120171337D01*
X120493663Y-120564320D01*
X121007119Y-120777000D01*
X121562881Y-120777000D01*
X122076337Y-120564320D01*
X122469320Y-120171337D01*
X122555000Y-119964487D01*
X122640680Y-120171337D01*
X123033663Y-120564320D01*
X123547119Y-120777000D01*
X124102881Y-120777000D01*
X124616337Y-120564320D01*
X125009320Y-120171337D01*
X125095000Y-119964487D01*
X125180680Y-120171337D01*
X125180680Y-120171337D01*
G37*
X125180680Y-120171337D02*
X125573663Y-120564320D01*
X125605001Y-120577300D01*
X125605000Y-122040198D01*
X125290704Y-122354494D01*
X125195358Y-122315000D01*
X124594642Y-122315000D01*
X124039654Y-122544884D01*
X123645000Y-122939538D01*
X123250346Y-122544884D01*
X122695358Y-122315000D01*
X122094642Y-122315000D01*
X121539654Y-122544884D01*
X121145000Y-122939538D01*
X120750346Y-122544884D01*
X120195358Y-122315000D01*
X119594642Y-122315000D01*
X119039654Y-122544884D01*
X118645000Y-122939538D01*
X118250346Y-122544884D01*
X117695358Y-122315000D01*
X117094642Y-122315000D01*
X116539654Y-122544884D01*
X116145000Y-122939538D01*
X115816587Y-122611125D01*
X115919010Y-122590752D01*
X116211749Y-122395149D01*
X116261125Y-122321253D01*
X117999198Y-120583181D01*
X118467119Y-120777000D01*
X119022881Y-120777000D01*
X119536337Y-120564320D01*
X119929320Y-120171337D01*
X120015000Y-119964487D01*
X120100680Y-120171337D01*
X120493663Y-120564320D01*
X121007119Y-120777000D01*
X121562881Y-120777000D01*
X122076337Y-120564320D01*
X122469320Y-120171337D01*
X122555000Y-119964487D01*
X122640680Y-120171337D01*
X123033663Y-120564320D01*
X123547119Y-120777000D01*
X124102881Y-120777000D01*
X124616337Y-120564320D01*
X125009320Y-120171337D01*
X125095000Y-119964487D01*
X125180680Y-120171337D01*
G36*
X104112629Y-111116131D02*
X103962138Y-111178466D01*
X103558466Y-111582138D01*
X103531475Y-111647299D01*
X103528864Y-111640995D01*
X103282745Y-111566861D01*
X102454605Y-112395000D01*
X103282745Y-113223139D01*
X103528864Y-113149005D01*
X103531290Y-113142254D01*
X103558466Y-113207862D01*
X103962138Y-113611534D01*
X104489561Y-113830000D01*
X105060439Y-113830000D01*
X105587862Y-113611534D01*
X105716447Y-113482949D01*
X106591203Y-114357704D01*
X106523663Y-114385680D01*
X106130680Y-114778663D01*
X106045000Y-114985513D01*
X105959320Y-114778663D01*
X105566337Y-114385680D01*
X105052881Y-114173000D01*
X104497119Y-114173000D01*
X103983663Y-114385680D01*
X103590680Y-114778663D01*
X103505000Y-114985513D01*
X103419320Y-114778663D01*
X103026337Y-114385680D01*
X102512881Y-114173000D01*
X101957119Y-114173000D01*
X101443663Y-114385680D01*
X101050680Y-114778663D01*
X100838000Y-115292119D01*
X100838000Y-115847881D01*
X101050680Y-116361337D01*
X101443663Y-116754320D01*
X101475000Y-116767300D01*
X101475001Y-118035148D01*
X101460112Y-118110000D01*
X101519097Y-118406537D01*
X101632104Y-118575663D01*
X101687072Y-118657929D01*
X101750528Y-118700329D01*
X102120980Y-119070782D01*
X102108000Y-119102119D01*
X102108000Y-119657881D01*
X102320680Y-120171337D01*
X102713663Y-120564320D01*
X103227119Y-120777000D01*
X103782881Y-120777000D01*
X104296337Y-120564320D01*
X104689320Y-120171337D01*
X104775000Y-119964487D01*
X104860680Y-120171337D01*
X105253663Y-120564320D01*
X105319239Y-120591482D01*
X103859722Y-122051000D01*
X101586975Y-122051000D01*
X101340217Y-121804242D01*
X100849548Y-121601000D01*
X100500579Y-121601000D01*
X96754424Y-117854846D01*
X96705049Y-117780951D01*
X96412310Y-117585348D01*
X96154165Y-117534000D01*
X96154161Y-117534000D01*
X96067000Y-117516663D01*
X95979839Y-117534000D01*
X94552200Y-117534000D01*
X94552200Y-116307433D01*
X94944670Y-116470000D01*
X95555330Y-116470000D01*
X96119507Y-116236310D01*
X96288725Y-116067092D01*
X96291843Y-116082765D01*
X96432191Y-116292809D01*
X96642235Y-116433157D01*
X96890000Y-116482440D01*
X98690000Y-116482440D01*
X98937765Y-116433157D01*
X99147809Y-116292809D01*
X99288157Y-116082765D01*
X99337440Y-115835000D01*
X99337440Y-114035000D01*
X99288157Y-113787235D01*
X99147809Y-113577191D01*
X99057592Y-113516909D01*
X99171756Y-113402745D01*
X101446861Y-113402745D01*
X101520995Y-113648864D01*
X102058223Y-113841965D01*
X102628454Y-113814778D01*
X103029005Y-113648864D01*
X103103139Y-113402745D01*
X102275000Y-112574605D01*
X101446861Y-113402745D01*
X99171756Y-113402745D01*
X100396278Y-112178223D01*
X100828035Y-112178223D01*
X100855222Y-112748454D01*
X101021136Y-113149005D01*
X101267255Y-113223139D01*
X102095395Y-112395000D01*
X101267255Y-111566861D01*
X101021136Y-111640995D01*
X100828035Y-112178223D01*
X100396278Y-112178223D01*
X101187246Y-111387255D01*
X101446861Y-111387255D01*
X102275000Y-112215395D01*
X103103139Y-111387255D01*
X103029005Y-111141136D01*
X102491777Y-110948035D01*
X101921546Y-110975222D01*
X101520995Y-111141136D01*
X101446861Y-111387255D01*
X101187246Y-111387255D01*
X101243273Y-111331229D01*
X101306729Y-111288829D01*
X101474704Y-111037437D01*
X101518800Y-110815752D01*
X101518800Y-110815748D01*
X101533688Y-110740901D01*
X101518800Y-110666054D01*
X101518800Y-110104303D01*
X101528582Y-110110839D01*
X101961744Y-110197000D01*
X102254256Y-110197000D01*
X102687418Y-110110839D01*
X102939142Y-109942643D01*
X104112629Y-111116131D01*
X104112629Y-111116131D01*
G37*
X104112629Y-111116131D02*
X103962138Y-111178466D01*
X103558466Y-111582138D01*
X103531475Y-111647299D01*
X103528864Y-111640995D01*
X103282745Y-111566861D01*
X102454605Y-112395000D01*
X103282745Y-113223139D01*
X103528864Y-113149005D01*
X103531290Y-113142254D01*
X103558466Y-113207862D01*
X103962138Y-113611534D01*
X104489561Y-113830000D01*
X105060439Y-113830000D01*
X105587862Y-113611534D01*
X105716447Y-113482949D01*
X106591203Y-114357704D01*
X106523663Y-114385680D01*
X106130680Y-114778663D01*
X106045000Y-114985513D01*
X105959320Y-114778663D01*
X105566337Y-114385680D01*
X105052881Y-114173000D01*
X104497119Y-114173000D01*
X103983663Y-114385680D01*
X103590680Y-114778663D01*
X103505000Y-114985513D01*
X103419320Y-114778663D01*
X103026337Y-114385680D01*
X102512881Y-114173000D01*
X101957119Y-114173000D01*
X101443663Y-114385680D01*
X101050680Y-114778663D01*
X100838000Y-115292119D01*
X100838000Y-115847881D01*
X101050680Y-116361337D01*
X101443663Y-116754320D01*
X101475000Y-116767300D01*
X101475001Y-118035148D01*
X101460112Y-118110000D01*
X101519097Y-118406537D01*
X101632104Y-118575663D01*
X101687072Y-118657929D01*
X101750528Y-118700329D01*
X102120980Y-119070782D01*
X102108000Y-119102119D01*
X102108000Y-119657881D01*
X102320680Y-120171337D01*
X102713663Y-120564320D01*
X103227119Y-120777000D01*
X103782881Y-120777000D01*
X104296337Y-120564320D01*
X104689320Y-120171337D01*
X104775000Y-119964487D01*
X104860680Y-120171337D01*
X105253663Y-120564320D01*
X105319239Y-120591482D01*
X103859722Y-122051000D01*
X101586975Y-122051000D01*
X101340217Y-121804242D01*
X100849548Y-121601000D01*
X100500579Y-121601000D01*
X96754424Y-117854846D01*
X96705049Y-117780951D01*
X96412310Y-117585348D01*
X96154165Y-117534000D01*
X96154161Y-117534000D01*
X96067000Y-117516663D01*
X95979839Y-117534000D01*
X94552200Y-117534000D01*
X94552200Y-116307433D01*
X94944670Y-116470000D01*
X95555330Y-116470000D01*
X96119507Y-116236310D01*
X96288725Y-116067092D01*
X96291843Y-116082765D01*
X96432191Y-116292809D01*
X96642235Y-116433157D01*
X96890000Y-116482440D01*
X98690000Y-116482440D01*
X98937765Y-116433157D01*
X99147809Y-116292809D01*
X99288157Y-116082765D01*
X99337440Y-115835000D01*
X99337440Y-114035000D01*
X99288157Y-113787235D01*
X99147809Y-113577191D01*
X99057592Y-113516909D01*
X99171756Y-113402745D01*
X101446861Y-113402745D01*
X101520995Y-113648864D01*
X102058223Y-113841965D01*
X102628454Y-113814778D01*
X103029005Y-113648864D01*
X103103139Y-113402745D01*
X102275000Y-112574605D01*
X101446861Y-113402745D01*
X99171756Y-113402745D01*
X100396278Y-112178223D01*
X100828035Y-112178223D01*
X100855222Y-112748454D01*
X101021136Y-113149005D01*
X101267255Y-113223139D01*
X102095395Y-112395000D01*
X101267255Y-111566861D01*
X101021136Y-111640995D01*
X100828035Y-112178223D01*
X100396278Y-112178223D01*
X101187246Y-111387255D01*
X101446861Y-111387255D01*
X102275000Y-112215395D01*
X103103139Y-111387255D01*
X103029005Y-111141136D01*
X102491777Y-110948035D01*
X101921546Y-110975222D01*
X101520995Y-111141136D01*
X101446861Y-111387255D01*
X101187246Y-111387255D01*
X101243273Y-111331229D01*
X101306729Y-111288829D01*
X101474704Y-111037437D01*
X101518800Y-110815752D01*
X101518800Y-110815748D01*
X101533688Y-110740901D01*
X101518800Y-110666054D01*
X101518800Y-110104303D01*
X101528582Y-110110839D01*
X101961744Y-110197000D01*
X102254256Y-110197000D01*
X102687418Y-110110839D01*
X102939142Y-109942643D01*
X104112629Y-111116131D01*
G36*
X116398748Y-119365858D02*
X116384605Y-119380000D01*
X116398748Y-119394143D01*
X116219143Y-119573748D01*
X116205000Y-119559605D01*
X116190858Y-119573748D01*
X116011253Y-119394143D01*
X116025395Y-119380000D01*
X116011253Y-119365858D01*
X116190858Y-119186253D01*
X116205000Y-119200395D01*
X116219143Y-119186253D01*
X116398748Y-119365858D01*
X116398748Y-119365858D01*
G37*
X116398748Y-119365858D02*
X116384605Y-119380000D01*
X116398748Y-119394143D01*
X116219143Y-119573748D01*
X116205000Y-119559605D01*
X116190858Y-119573748D01*
X116011253Y-119394143D01*
X116025395Y-119380000D01*
X116011253Y-119365858D01*
X116190858Y-119186253D01*
X116205000Y-119200395D01*
X116219143Y-119186253D01*
X116398748Y-119365858D01*
G36*
X113737375Y-109782625D02*
X114228582Y-110110839D01*
X114661744Y-110197000D01*
X114954256Y-110197000D01*
X115318000Y-110124647D01*
X115318000Y-111558153D01*
X115303112Y-111633000D01*
X115318000Y-111707847D01*
X115318000Y-111707851D01*
X115362096Y-111929536D01*
X115530071Y-112180929D01*
X115593530Y-112223331D01*
X117543198Y-114173000D01*
X117197119Y-114173000D01*
X116683663Y-114385680D01*
X116290680Y-114778663D01*
X116205000Y-114985513D01*
X116119320Y-114778663D01*
X115726337Y-114385680D01*
X115212881Y-114173000D01*
X114657119Y-114173000D01*
X114625782Y-114185980D01*
X113984731Y-113544930D01*
X113942329Y-113481471D01*
X113690937Y-113313496D01*
X113469252Y-113269400D01*
X113469247Y-113269400D01*
X113394400Y-113254512D01*
X113380426Y-113257292D01*
X113544797Y-113073396D01*
X113687716Y-112728329D01*
X113564374Y-112522000D01*
X112522000Y-112522000D01*
X112522000Y-112542000D01*
X112268000Y-112542000D01*
X112268000Y-112522000D01*
X112248000Y-112522000D01*
X112248000Y-112268000D01*
X112268000Y-112268000D01*
X112268000Y-111224794D01*
X112522000Y-111224794D01*
X112522000Y-112268000D01*
X113564374Y-112268000D01*
X113687716Y-112061671D01*
X113544797Y-111716604D01*
X113197663Y-111328236D01*
X112728331Y-111102273D01*
X112522000Y-111224794D01*
X112268000Y-111224794D01*
X112061669Y-111102273D01*
X111592337Y-111328236D01*
X111245203Y-111716604D01*
X111113501Y-112034588D01*
X111107778Y-111914546D01*
X110941864Y-111513995D01*
X110695745Y-111439861D01*
X109867605Y-112268000D01*
X109881748Y-112282142D01*
X109702142Y-112461748D01*
X109688000Y-112447605D01*
X109673858Y-112461748D01*
X109494252Y-112282142D01*
X109508395Y-112268000D01*
X108680255Y-111439861D01*
X108434136Y-111513995D01*
X108431710Y-111520746D01*
X108404534Y-111455138D01*
X108209651Y-111260255D01*
X108859861Y-111260255D01*
X109688000Y-112088395D01*
X110516139Y-111260255D01*
X110442005Y-111014136D01*
X109904777Y-110821035D01*
X109334546Y-110848222D01*
X108933995Y-111014136D01*
X108859861Y-111260255D01*
X108209651Y-111260255D01*
X108000862Y-111051466D01*
X107473439Y-110833000D01*
X106902561Y-110833000D01*
X106375138Y-111051466D01*
X106286353Y-111140251D01*
X105245115Y-110099014D01*
X105718625Y-109782625D01*
X105918000Y-109484239D01*
X106117375Y-109782625D01*
X106608582Y-110110839D01*
X107041744Y-110197000D01*
X107334256Y-110197000D01*
X107767418Y-110110839D01*
X108258625Y-109782625D01*
X108458000Y-109484239D01*
X108657375Y-109782625D01*
X109148582Y-110110839D01*
X109581744Y-110197000D01*
X109874256Y-110197000D01*
X110307418Y-110110839D01*
X110798625Y-109782625D01*
X110998000Y-109484239D01*
X111197375Y-109782625D01*
X111688582Y-110110839D01*
X112121744Y-110197000D01*
X112414256Y-110197000D01*
X112847418Y-110110839D01*
X113338625Y-109782625D01*
X113538000Y-109484239D01*
X113737375Y-109782625D01*
X113737375Y-109782625D01*
G37*
X113737375Y-109782625D02*
X114228582Y-110110839D01*
X114661744Y-110197000D01*
X114954256Y-110197000D01*
X115318000Y-110124647D01*
X115318000Y-111558153D01*
X115303112Y-111633000D01*
X115318000Y-111707847D01*
X115318000Y-111707851D01*
X115362096Y-111929536D01*
X115530071Y-112180929D01*
X115593530Y-112223331D01*
X117543198Y-114173000D01*
X117197119Y-114173000D01*
X116683663Y-114385680D01*
X116290680Y-114778663D01*
X116205000Y-114985513D01*
X116119320Y-114778663D01*
X115726337Y-114385680D01*
X115212881Y-114173000D01*
X114657119Y-114173000D01*
X114625782Y-114185980D01*
X113984731Y-113544930D01*
X113942329Y-113481471D01*
X113690937Y-113313496D01*
X113469252Y-113269400D01*
X113469247Y-113269400D01*
X113394400Y-113254512D01*
X113380426Y-113257292D01*
X113544797Y-113073396D01*
X113687716Y-112728329D01*
X113564374Y-112522000D01*
X112522000Y-112522000D01*
X112522000Y-112542000D01*
X112268000Y-112542000D01*
X112268000Y-112522000D01*
X112248000Y-112522000D01*
X112248000Y-112268000D01*
X112268000Y-112268000D01*
X112268000Y-111224794D01*
X112522000Y-111224794D01*
X112522000Y-112268000D01*
X113564374Y-112268000D01*
X113687716Y-112061671D01*
X113544797Y-111716604D01*
X113197663Y-111328236D01*
X112728331Y-111102273D01*
X112522000Y-111224794D01*
X112268000Y-111224794D01*
X112061669Y-111102273D01*
X111592337Y-111328236D01*
X111245203Y-111716604D01*
X111113501Y-112034588D01*
X111107778Y-111914546D01*
X110941864Y-111513995D01*
X110695745Y-111439861D01*
X109867605Y-112268000D01*
X109881748Y-112282142D01*
X109702142Y-112461748D01*
X109688000Y-112447605D01*
X109673858Y-112461748D01*
X109494252Y-112282142D01*
X109508395Y-112268000D01*
X108680255Y-111439861D01*
X108434136Y-111513995D01*
X108431710Y-111520746D01*
X108404534Y-111455138D01*
X108209651Y-111260255D01*
X108859861Y-111260255D01*
X109688000Y-112088395D01*
X110516139Y-111260255D01*
X110442005Y-111014136D01*
X109904777Y-110821035D01*
X109334546Y-110848222D01*
X108933995Y-111014136D01*
X108859861Y-111260255D01*
X108209651Y-111260255D01*
X108000862Y-111051466D01*
X107473439Y-110833000D01*
X106902561Y-110833000D01*
X106375138Y-111051466D01*
X106286353Y-111140251D01*
X105245115Y-110099014D01*
X105718625Y-109782625D01*
X105918000Y-109484239D01*
X106117375Y-109782625D01*
X106608582Y-110110839D01*
X107041744Y-110197000D01*
X107334256Y-110197000D01*
X107767418Y-110110839D01*
X108258625Y-109782625D01*
X108458000Y-109484239D01*
X108657375Y-109782625D01*
X109148582Y-110110839D01*
X109581744Y-110197000D01*
X109874256Y-110197000D01*
X110307418Y-110110839D01*
X110798625Y-109782625D01*
X110998000Y-109484239D01*
X111197375Y-109782625D01*
X111688582Y-110110839D01*
X112121744Y-110197000D01*
X112414256Y-110197000D01*
X112847418Y-110110839D01*
X113338625Y-109782625D01*
X113538000Y-109484239D01*
X113737375Y-109782625D01*
G36*
X91632628Y-88917371D02*
X91569172Y-88959771D01*
X91526772Y-89023227D01*
X91526771Y-89023228D01*
X91401197Y-89211163D01*
X91342212Y-89507700D01*
X91357101Y-89582552D01*
X91357100Y-93816453D01*
X91342212Y-93891300D01*
X91357100Y-93966147D01*
X91357100Y-93966151D01*
X91401196Y-94187836D01*
X91569171Y-94439229D01*
X91632630Y-94481631D01*
X92114558Y-94963560D01*
X91899062Y-95286073D01*
X91779928Y-95885000D01*
X91899062Y-96483927D01*
X92195696Y-96927871D01*
X91987191Y-97067191D01*
X91846843Y-97277235D01*
X91797560Y-97525000D01*
X91797560Y-99325000D01*
X91846843Y-99572765D01*
X91987191Y-99782809D01*
X92197235Y-99923157D01*
X92445000Y-99972440D01*
X94245000Y-99972440D01*
X94490000Y-99923707D01*
X94490000Y-104767923D01*
X94272000Y-104724560D01*
X92672000Y-104724560D01*
X92424235Y-104773843D01*
X92214191Y-104914191D01*
X92073843Y-105124235D01*
X92024560Y-105372000D01*
X92024560Y-106367862D01*
X91588045Y-106804377D01*
X91514152Y-106853751D01*
X91464778Y-106927644D01*
X91464776Y-106927646D01*
X91318548Y-107146491D01*
X91249863Y-107491800D01*
X91267201Y-107578965D01*
X91267200Y-110238939D01*
X91249863Y-110326100D01*
X91267200Y-110413261D01*
X91267200Y-110413264D01*
X91318548Y-110671409D01*
X91514151Y-110964149D01*
X91588047Y-111013525D01*
X92782201Y-112207680D01*
X92782201Y-113807560D01*
X92303125Y-113807560D01*
X92273652Y-113659390D01*
X92181760Y-113521864D01*
X92127424Y-113440545D01*
X92127423Y-113440544D01*
X92078049Y-113366651D01*
X92004156Y-113317277D01*
X90922100Y-112235222D01*
X90922100Y-88366340D01*
X92183659Y-88366340D01*
X91632628Y-88917371D01*
X91632628Y-88917371D01*
G37*
X91632628Y-88917371D02*
X91569172Y-88959771D01*
X91526772Y-89023227D01*
X91526771Y-89023228D01*
X91401197Y-89211163D01*
X91342212Y-89507700D01*
X91357101Y-89582552D01*
X91357100Y-93816453D01*
X91342212Y-93891300D01*
X91357100Y-93966147D01*
X91357100Y-93966151D01*
X91401196Y-94187836D01*
X91569171Y-94439229D01*
X91632630Y-94481631D01*
X92114558Y-94963560D01*
X91899062Y-95286073D01*
X91779928Y-95885000D01*
X91899062Y-96483927D01*
X92195696Y-96927871D01*
X91987191Y-97067191D01*
X91846843Y-97277235D01*
X91797560Y-97525000D01*
X91797560Y-99325000D01*
X91846843Y-99572765D01*
X91987191Y-99782809D01*
X92197235Y-99923157D01*
X92445000Y-99972440D01*
X94245000Y-99972440D01*
X94490000Y-99923707D01*
X94490000Y-104767923D01*
X94272000Y-104724560D01*
X92672000Y-104724560D01*
X92424235Y-104773843D01*
X92214191Y-104914191D01*
X92073843Y-105124235D01*
X92024560Y-105372000D01*
X92024560Y-106367862D01*
X91588045Y-106804377D01*
X91514152Y-106853751D01*
X91464778Y-106927644D01*
X91464776Y-106927646D01*
X91318548Y-107146491D01*
X91249863Y-107491800D01*
X91267201Y-107578965D01*
X91267200Y-110238939D01*
X91249863Y-110326100D01*
X91267200Y-110413261D01*
X91267200Y-110413264D01*
X91318548Y-110671409D01*
X91514151Y-110964149D01*
X91588047Y-111013525D01*
X92782201Y-112207680D01*
X92782201Y-113807560D01*
X92303125Y-113807560D01*
X92273652Y-113659390D01*
X92181760Y-113521864D01*
X92127424Y-113440545D01*
X92127423Y-113440544D01*
X92078049Y-113366651D01*
X92004156Y-113317277D01*
X90922100Y-112235222D01*
X90922100Y-88366340D01*
X92183659Y-88366340D01*
X91632628Y-88917371D01*
G36*
X98497375Y-84382625D02*
X98988582Y-84710839D01*
X99421744Y-84797000D01*
X99714256Y-84797000D01*
X99998800Y-84740401D01*
X99998801Y-104743599D01*
X99714256Y-104687000D01*
X99421744Y-104687000D01*
X98988582Y-104773161D01*
X98497375Y-105101375D01*
X98169161Y-105592582D01*
X98053908Y-106172000D01*
X98169161Y-106751418D01*
X98497375Y-107242625D01*
X98519032Y-107257096D01*
X98358301Y-107323673D01*
X98179673Y-107502302D01*
X98083000Y-107735691D01*
X98083000Y-108426250D01*
X98241750Y-108585000D01*
X99441000Y-108585000D01*
X99441000Y-108565000D01*
X99695000Y-108565000D01*
X99695000Y-108585000D01*
X99715000Y-108585000D01*
X99715000Y-108839000D01*
X99695000Y-108839000D01*
X99695000Y-110038250D01*
X99853750Y-110197000D01*
X99998801Y-110197000D01*
X99998801Y-110426097D01*
X97305528Y-113119371D01*
X97242072Y-113161771D01*
X97199672Y-113225227D01*
X97199671Y-113225228D01*
X97168194Y-113272337D01*
X97091204Y-113387560D01*
X96890000Y-113387560D01*
X96642235Y-113436843D01*
X96432191Y-113577191D01*
X96291843Y-113787235D01*
X96288725Y-113802908D01*
X96119507Y-113633690D01*
X96010000Y-113588331D01*
X96010000Y-108997750D01*
X98083000Y-108997750D01*
X98083000Y-109688309D01*
X98179673Y-109921698D01*
X98358301Y-110100327D01*
X98591690Y-110197000D01*
X99282250Y-110197000D01*
X99441000Y-110038250D01*
X99441000Y-108839000D01*
X98241750Y-108839000D01*
X98083000Y-108997750D01*
X96010000Y-108997750D01*
X96010000Y-100146101D01*
X96751410Y-99404692D01*
X96786458Y-99580891D01*
X97081519Y-100022481D01*
X97523109Y-100317542D01*
X97912515Y-100395000D01*
X98175485Y-100395000D01*
X98564891Y-100317542D01*
X99006481Y-100022481D01*
X99301542Y-99580891D01*
X99405154Y-99060000D01*
X99301542Y-98539109D01*
X99006481Y-98097519D01*
X98564891Y-97802458D01*
X98388692Y-97767410D01*
X98528473Y-97627629D01*
X98591929Y-97585229D01*
X98660583Y-97482481D01*
X98759904Y-97333838D01*
X98778157Y-97242071D01*
X98804000Y-97112152D01*
X98804000Y-97112148D01*
X98804545Y-97109411D01*
X99006481Y-96974481D01*
X99301542Y-96532891D01*
X99405154Y-96012000D01*
X99301542Y-95491109D01*
X99006481Y-95049519D01*
X98564891Y-94754458D01*
X98175485Y-94677000D01*
X97912515Y-94677000D01*
X97523109Y-94754458D01*
X97081519Y-95049519D01*
X96786458Y-95491109D01*
X96682846Y-96012000D01*
X96786458Y-96532891D01*
X97061691Y-96944807D01*
X94892440Y-99114059D01*
X94892440Y-97525000D01*
X94843157Y-97277235D01*
X94828100Y-97254701D01*
X97783803Y-94299000D01*
X98309548Y-94299000D01*
X98800217Y-94095758D01*
X99175758Y-93720217D01*
X99379000Y-93229548D01*
X99379000Y-92698452D01*
X99175758Y-92207783D01*
X98800217Y-91832242D01*
X98309548Y-91629000D01*
X97778452Y-91629000D01*
X97287783Y-91832242D01*
X96912242Y-92207783D01*
X96709000Y-92698452D01*
X96709000Y-93224197D01*
X94733335Y-95199864D01*
X94451673Y-94778327D01*
X94207237Y-94615000D01*
X94451673Y-94451673D01*
X94790938Y-93943927D01*
X94910072Y-93345000D01*
X94790938Y-92746073D01*
X94451673Y-92238327D01*
X94105000Y-92006688D01*
X94105000Y-89741329D01*
X96751284Y-89741329D01*
X96894203Y-90086396D01*
X97241337Y-90474764D01*
X97710669Y-90700727D01*
X97917000Y-90578206D01*
X97917000Y-89535000D01*
X98171000Y-89535000D01*
X98171000Y-90578206D01*
X98377331Y-90700727D01*
X98846663Y-90474764D01*
X99193797Y-90086396D01*
X99336716Y-89741329D01*
X99213374Y-89535000D01*
X98171000Y-89535000D01*
X97917000Y-89535000D01*
X96874626Y-89535000D01*
X96751284Y-89741329D01*
X94105000Y-89741329D01*
X94105000Y-89231501D01*
X94261830Y-89074671D01*
X96751284Y-89074671D01*
X96874626Y-89281000D01*
X97917000Y-89281000D01*
X97917000Y-88237794D01*
X98171000Y-88237794D01*
X98171000Y-89281000D01*
X99213374Y-89281000D01*
X99336716Y-89074671D01*
X99193797Y-88729604D01*
X98846663Y-88341236D01*
X98377331Y-88115273D01*
X98171000Y-88237794D01*
X97917000Y-88237794D01*
X97710669Y-88115273D01*
X97241337Y-88341236D01*
X96894203Y-88729604D01*
X96751284Y-89074671D01*
X94261830Y-89074671D01*
X96470451Y-86866051D01*
X96658242Y-87319417D01*
X97033783Y-87694958D01*
X97524452Y-87898200D01*
X98055548Y-87898200D01*
X98546217Y-87694958D01*
X98921758Y-87319417D01*
X99125000Y-86828748D01*
X99125000Y-86297652D01*
X98921758Y-85806983D01*
X98546217Y-85431442D01*
X98412400Y-85376013D01*
X98412400Y-84255451D01*
X98497375Y-84382625D01*
X98497375Y-84382625D01*
G37*
X98497375Y-84382625D02*
X98988582Y-84710839D01*
X99421744Y-84797000D01*
X99714256Y-84797000D01*
X99998800Y-84740401D01*
X99998801Y-104743599D01*
X99714256Y-104687000D01*
X99421744Y-104687000D01*
X98988582Y-104773161D01*
X98497375Y-105101375D01*
X98169161Y-105592582D01*
X98053908Y-106172000D01*
X98169161Y-106751418D01*
X98497375Y-107242625D01*
X98519032Y-107257096D01*
X98358301Y-107323673D01*
X98179673Y-107502302D01*
X98083000Y-107735691D01*
X98083000Y-108426250D01*
X98241750Y-108585000D01*
X99441000Y-108585000D01*
X99441000Y-108565000D01*
X99695000Y-108565000D01*
X99695000Y-108585000D01*
X99715000Y-108585000D01*
X99715000Y-108839000D01*
X99695000Y-108839000D01*
X99695000Y-110038250D01*
X99853750Y-110197000D01*
X99998801Y-110197000D01*
X99998801Y-110426097D01*
X97305528Y-113119371D01*
X97242072Y-113161771D01*
X97199672Y-113225227D01*
X97199671Y-113225228D01*
X97168194Y-113272337D01*
X97091204Y-113387560D01*
X96890000Y-113387560D01*
X96642235Y-113436843D01*
X96432191Y-113577191D01*
X96291843Y-113787235D01*
X96288725Y-113802908D01*
X96119507Y-113633690D01*
X96010000Y-113588331D01*
X96010000Y-108997750D01*
X98083000Y-108997750D01*
X98083000Y-109688309D01*
X98179673Y-109921698D01*
X98358301Y-110100327D01*
X98591690Y-110197000D01*
X99282250Y-110197000D01*
X99441000Y-110038250D01*
X99441000Y-108839000D01*
X98241750Y-108839000D01*
X98083000Y-108997750D01*
X96010000Y-108997750D01*
X96010000Y-100146101D01*
X96751410Y-99404692D01*
X96786458Y-99580891D01*
X97081519Y-100022481D01*
X97523109Y-100317542D01*
X97912515Y-100395000D01*
X98175485Y-100395000D01*
X98564891Y-100317542D01*
X99006481Y-100022481D01*
X99301542Y-99580891D01*
X99405154Y-99060000D01*
X99301542Y-98539109D01*
X99006481Y-98097519D01*
X98564891Y-97802458D01*
X98388692Y-97767410D01*
X98528473Y-97627629D01*
X98591929Y-97585229D01*
X98660583Y-97482481D01*
X98759904Y-97333838D01*
X98778157Y-97242071D01*
X98804000Y-97112152D01*
X98804000Y-97112148D01*
X98804545Y-97109411D01*
X99006481Y-96974481D01*
X99301542Y-96532891D01*
X99405154Y-96012000D01*
X99301542Y-95491109D01*
X99006481Y-95049519D01*
X98564891Y-94754458D01*
X98175485Y-94677000D01*
X97912515Y-94677000D01*
X97523109Y-94754458D01*
X97081519Y-95049519D01*
X96786458Y-95491109D01*
X96682846Y-96012000D01*
X96786458Y-96532891D01*
X97061691Y-96944807D01*
X94892440Y-99114059D01*
X94892440Y-97525000D01*
X94843157Y-97277235D01*
X94828100Y-97254701D01*
X97783803Y-94299000D01*
X98309548Y-94299000D01*
X98800217Y-94095758D01*
X99175758Y-93720217D01*
X99379000Y-93229548D01*
X99379000Y-92698452D01*
X99175758Y-92207783D01*
X98800217Y-91832242D01*
X98309548Y-91629000D01*
X97778452Y-91629000D01*
X97287783Y-91832242D01*
X96912242Y-92207783D01*
X96709000Y-92698452D01*
X96709000Y-93224197D01*
X94733335Y-95199864D01*
X94451673Y-94778327D01*
X94207237Y-94615000D01*
X94451673Y-94451673D01*
X94790938Y-93943927D01*
X94910072Y-93345000D01*
X94790938Y-92746073D01*
X94451673Y-92238327D01*
X94105000Y-92006688D01*
X94105000Y-89741329D01*
X96751284Y-89741329D01*
X96894203Y-90086396D01*
X97241337Y-90474764D01*
X97710669Y-90700727D01*
X97917000Y-90578206D01*
X97917000Y-89535000D01*
X98171000Y-89535000D01*
X98171000Y-90578206D01*
X98377331Y-90700727D01*
X98846663Y-90474764D01*
X99193797Y-90086396D01*
X99336716Y-89741329D01*
X99213374Y-89535000D01*
X98171000Y-89535000D01*
X97917000Y-89535000D01*
X96874626Y-89535000D01*
X96751284Y-89741329D01*
X94105000Y-89741329D01*
X94105000Y-89231501D01*
X94261830Y-89074671D01*
X96751284Y-89074671D01*
X96874626Y-89281000D01*
X97917000Y-89281000D01*
X97917000Y-88237794D01*
X98171000Y-88237794D01*
X98171000Y-89281000D01*
X99213374Y-89281000D01*
X99336716Y-89074671D01*
X99193797Y-88729604D01*
X98846663Y-88341236D01*
X98377331Y-88115273D01*
X98171000Y-88237794D01*
X97917000Y-88237794D01*
X97710669Y-88115273D01*
X97241337Y-88341236D01*
X96894203Y-88729604D01*
X96751284Y-89074671D01*
X94261830Y-89074671D01*
X96470451Y-86866051D01*
X96658242Y-87319417D01*
X97033783Y-87694958D01*
X97524452Y-87898200D01*
X98055548Y-87898200D01*
X98546217Y-87694958D01*
X98921758Y-87319417D01*
X99125000Y-86828748D01*
X99125000Y-86297652D01*
X98921758Y-85806983D01*
X98546217Y-85431442D01*
X98412400Y-85376013D01*
X98412400Y-84255451D01*
X98497375Y-84382625D01*
G36*
X93665748Y-108657858D02*
X93651605Y-108672000D01*
X93665748Y-108686142D01*
X93486142Y-108865748D01*
X93472000Y-108851605D01*
X93457858Y-108865748D01*
X93278253Y-108686143D01*
X93292395Y-108672000D01*
X93278253Y-108657858D01*
X93457858Y-108478252D01*
X93472000Y-108492395D01*
X93486142Y-108478252D01*
X93665748Y-108657858D01*
X93665748Y-108657858D01*
G37*
X93665748Y-108657858D02*
X93651605Y-108672000D01*
X93665748Y-108686142D01*
X93486142Y-108865748D01*
X93472000Y-108851605D01*
X93457858Y-108865748D01*
X93278253Y-108686143D01*
X93292395Y-108672000D01*
X93278253Y-108657858D01*
X93457858Y-108478252D01*
X93472000Y-108492395D01*
X93486142Y-108478252D01*
X93665748Y-108657858D01*
G36*
X114127559Y-104840662D02*
X113737375Y-105101375D01*
X113538000Y-105399761D01*
X113338625Y-105101375D01*
X112847418Y-104773161D01*
X112414256Y-104687000D01*
X112121744Y-104687000D01*
X111688582Y-104773161D01*
X111197375Y-105101375D01*
X110998000Y-105399761D01*
X110798625Y-105101375D01*
X110307418Y-104773161D01*
X109874256Y-104687000D01*
X109581744Y-104687000D01*
X109148582Y-104773161D01*
X108657375Y-105101375D01*
X108458000Y-105399761D01*
X108258625Y-105101375D01*
X107767418Y-104773161D01*
X107334256Y-104687000D01*
X107041744Y-104687000D01*
X106608582Y-104773161D01*
X106583300Y-104790054D01*
X106583300Y-103293001D01*
X107749073Y-102127229D01*
X107812529Y-102084829D01*
X107980504Y-101833437D01*
X108024600Y-101611752D01*
X108024600Y-101611748D01*
X108039488Y-101536901D01*
X108024600Y-101462054D01*
X108024600Y-98737701D01*
X114127559Y-104840662D01*
X114127559Y-104840662D01*
G37*
X114127559Y-104840662D02*
X113737375Y-105101375D01*
X113538000Y-105399761D01*
X113338625Y-105101375D01*
X112847418Y-104773161D01*
X112414256Y-104687000D01*
X112121744Y-104687000D01*
X111688582Y-104773161D01*
X111197375Y-105101375D01*
X110998000Y-105399761D01*
X110798625Y-105101375D01*
X110307418Y-104773161D01*
X109874256Y-104687000D01*
X109581744Y-104687000D01*
X109148582Y-104773161D01*
X108657375Y-105101375D01*
X108458000Y-105399761D01*
X108258625Y-105101375D01*
X107767418Y-104773161D01*
X107334256Y-104687000D01*
X107041744Y-104687000D01*
X106608582Y-104773161D01*
X106583300Y-104790054D01*
X106583300Y-103293001D01*
X107749073Y-102127229D01*
X107812529Y-102084829D01*
X107980504Y-101833437D01*
X108024600Y-101611752D01*
X108024600Y-101611748D01*
X108039488Y-101536901D01*
X108024600Y-101462054D01*
X108024600Y-98737701D01*
X114127559Y-104840662D01*
G36*
X101528582Y-84710839D02*
X101961744Y-84797000D01*
X102254256Y-84797000D01*
X102523301Y-84743484D01*
X102523300Y-104740516D01*
X102254256Y-104687000D01*
X101961744Y-104687000D01*
X101528582Y-104773161D01*
X101518800Y-104779697D01*
X101518800Y-84704303D01*
X101528582Y-84710839D01*
X101528582Y-84710839D01*
G37*
X101528582Y-84710839D02*
X101961744Y-84797000D01*
X102254256Y-84797000D01*
X102523301Y-84743484D01*
X102523300Y-104740516D01*
X102254256Y-104687000D01*
X101961744Y-104687000D01*
X101528582Y-104773161D01*
X101518800Y-104779697D01*
X101518800Y-84704303D01*
X101528582Y-84710839D01*
G36*
X147584400Y-99383202D02*
X147584400Y-102313598D01*
X142051000Y-96780199D01*
X142051000Y-96254452D01*
X141847758Y-95763783D01*
X141472217Y-95388242D01*
X141138472Y-95250000D01*
X141472217Y-95111758D01*
X141847758Y-94736217D01*
X142051000Y-94245548D01*
X142051000Y-93849801D01*
X147584400Y-99383202D01*
X147584400Y-99383202D01*
G37*
X147584400Y-99383202D02*
X147584400Y-102313598D01*
X142051000Y-96780199D01*
X142051000Y-96254452D01*
X141847758Y-95763783D01*
X141472217Y-95388242D01*
X141138472Y-95250000D01*
X141472217Y-95111758D01*
X141847758Y-94736217D01*
X142051000Y-94245548D01*
X142051000Y-93849801D01*
X147584400Y-99383202D01*
G36*
X95039300Y-85510698D02*
X93039940Y-87510059D01*
X93039940Y-85813900D01*
X92990657Y-85566135D01*
X92850309Y-85356091D01*
X92640265Y-85215743D01*
X92392500Y-85166460D01*
X90922100Y-85166460D01*
X90922100Y-83190177D01*
X91124227Y-83273900D01*
X91755773Y-83273900D01*
X92339247Y-83032218D01*
X92785818Y-82585647D01*
X93027500Y-82002173D01*
X93027500Y-81370627D01*
X92785818Y-80787153D01*
X92339247Y-80340582D01*
X91755773Y-80098900D01*
X91124227Y-80098900D01*
X90922100Y-80182623D01*
X90922100Y-79904778D01*
X95039301Y-75787578D01*
X95039300Y-85510698D01*
X95039300Y-85510698D01*
G37*
X95039300Y-85510698D02*
X93039940Y-87510059D01*
X93039940Y-85813900D01*
X92990657Y-85566135D01*
X92850309Y-85356091D01*
X92640265Y-85215743D01*
X92392500Y-85166460D01*
X90922100Y-85166460D01*
X90922100Y-83190177D01*
X91124227Y-83273900D01*
X91755773Y-83273900D01*
X92339247Y-83032218D01*
X92785818Y-82585647D01*
X93027500Y-82002173D01*
X93027500Y-81370627D01*
X92785818Y-80787153D01*
X92339247Y-80340582D01*
X91755773Y-80098900D01*
X91124227Y-80098900D01*
X90922100Y-80182623D01*
X90922100Y-79904778D01*
X95039301Y-75787578D01*
X95039300Y-85510698D01*
G36*
X130175000Y-80645000D02*
X130195000Y-80645000D01*
X130195000Y-80899000D01*
X130175000Y-80899000D01*
X130175000Y-80919000D01*
X129921000Y-80919000D01*
X129921000Y-80899000D01*
X129901000Y-80899000D01*
X129901000Y-80645000D01*
X129921000Y-80645000D01*
X129921000Y-80625000D01*
X130175000Y-80625000D01*
X130175000Y-80645000D01*
X130175000Y-80645000D01*
G37*
X130175000Y-80645000D02*
X130195000Y-80645000D01*
X130195000Y-80899000D01*
X130175000Y-80899000D01*
X130175000Y-80919000D01*
X129921000Y-80919000D01*
X129921000Y-80899000D01*
X129901000Y-80899000D01*
X129901000Y-80645000D01*
X129921000Y-80645000D01*
X129921000Y-80625000D01*
X130175000Y-80625000D01*
X130175000Y-80645000D01*
G36*
X125169817Y-74683642D02*
X124923514Y-75208108D01*
X125044181Y-75438000D01*
X126238000Y-75438000D01*
X126238000Y-75418000D01*
X126492000Y-75418000D01*
X126492000Y-75438000D01*
X126512000Y-75438000D01*
X126512000Y-75692000D01*
X126492000Y-75692000D01*
X126492000Y-76885155D01*
X126721890Y-77006476D01*
X127131924Y-76836645D01*
X127560183Y-76446358D01*
X127621157Y-76316522D01*
X127834375Y-76635625D01*
X128145000Y-76843178D01*
X128145000Y-77302253D01*
X128130112Y-77377100D01*
X128145000Y-77451947D01*
X128145000Y-77451952D01*
X128189096Y-77673637D01*
X128357072Y-77925029D01*
X128420528Y-77967429D01*
X129740098Y-79287000D01*
X129071690Y-79287000D01*
X128838301Y-79383673D01*
X128659673Y-79562302D01*
X128593096Y-79723033D01*
X128578625Y-79701375D01*
X128087418Y-79373161D01*
X127654256Y-79287000D01*
X127361744Y-79287000D01*
X126928582Y-79373161D01*
X126437375Y-79701375D01*
X126238000Y-79999761D01*
X126038625Y-79701375D01*
X125547418Y-79373161D01*
X125114256Y-79287000D01*
X124821744Y-79287000D01*
X124388582Y-79373161D01*
X124063726Y-79590223D01*
X123585730Y-79112229D01*
X123543329Y-79048771D01*
X123291937Y-78880796D01*
X123070252Y-78836700D01*
X123070247Y-78836700D01*
X122995400Y-78821812D01*
X122920553Y-78836700D01*
X120172701Y-78836700D01*
X122311073Y-76698329D01*
X122374529Y-76655929D01*
X122542504Y-76404537D01*
X122586600Y-76182852D01*
X122586600Y-76182848D01*
X122601488Y-76108000D01*
X122586600Y-76033152D01*
X122586600Y-75921892D01*
X124923514Y-75921892D01*
X125169817Y-76446358D01*
X125598076Y-76836645D01*
X126008110Y-77006476D01*
X126238000Y-76885155D01*
X126238000Y-75692000D01*
X125044181Y-75692000D01*
X124923514Y-75921892D01*
X122586600Y-75921892D01*
X122586600Y-75112748D01*
X122601488Y-75037900D01*
X122586600Y-74963052D01*
X122586600Y-74963048D01*
X122542504Y-74741363D01*
X122486335Y-74657300D01*
X125198722Y-74657300D01*
X125169817Y-74683642D01*
X125169817Y-74683642D01*
G37*
X125169817Y-74683642D02*
X124923514Y-75208108D01*
X125044181Y-75438000D01*
X126238000Y-75438000D01*
X126238000Y-75418000D01*
X126492000Y-75418000D01*
X126492000Y-75438000D01*
X126512000Y-75438000D01*
X126512000Y-75692000D01*
X126492000Y-75692000D01*
X126492000Y-76885155D01*
X126721890Y-77006476D01*
X127131924Y-76836645D01*
X127560183Y-76446358D01*
X127621157Y-76316522D01*
X127834375Y-76635625D01*
X128145000Y-76843178D01*
X128145000Y-77302253D01*
X128130112Y-77377100D01*
X128145000Y-77451947D01*
X128145000Y-77451952D01*
X128189096Y-77673637D01*
X128357072Y-77925029D01*
X128420528Y-77967429D01*
X129740098Y-79287000D01*
X129071690Y-79287000D01*
X128838301Y-79383673D01*
X128659673Y-79562302D01*
X128593096Y-79723033D01*
X128578625Y-79701375D01*
X128087418Y-79373161D01*
X127654256Y-79287000D01*
X127361744Y-79287000D01*
X126928582Y-79373161D01*
X126437375Y-79701375D01*
X126238000Y-79999761D01*
X126038625Y-79701375D01*
X125547418Y-79373161D01*
X125114256Y-79287000D01*
X124821744Y-79287000D01*
X124388582Y-79373161D01*
X124063726Y-79590223D01*
X123585730Y-79112229D01*
X123543329Y-79048771D01*
X123291937Y-78880796D01*
X123070252Y-78836700D01*
X123070247Y-78836700D01*
X122995400Y-78821812D01*
X122920553Y-78836700D01*
X120172701Y-78836700D01*
X122311073Y-76698329D01*
X122374529Y-76655929D01*
X122542504Y-76404537D01*
X122586600Y-76182852D01*
X122586600Y-76182848D01*
X122601488Y-76108000D01*
X122586600Y-76033152D01*
X122586600Y-75921892D01*
X124923514Y-75921892D01*
X125169817Y-76446358D01*
X125598076Y-76836645D01*
X126008110Y-77006476D01*
X126238000Y-76885155D01*
X126238000Y-75692000D01*
X125044181Y-75692000D01*
X124923514Y-75921892D01*
X122586600Y-75921892D01*
X122586600Y-75112748D01*
X122601488Y-75037900D01*
X122586600Y-74963052D01*
X122586600Y-74963048D01*
X122542504Y-74741363D01*
X122486335Y-74657300D01*
X125198722Y-74657300D01*
X125169817Y-74683642D01*
G36*
X108874846Y-71628000D02*
X108978458Y-72148891D01*
X109273519Y-72590481D01*
X109351000Y-72642252D01*
X109351001Y-73923535D01*
X109333663Y-74010700D01*
X109359170Y-74138936D01*
X109182191Y-74257191D01*
X109041843Y-74467235D01*
X108992560Y-74715000D01*
X108992560Y-76415000D01*
X109041843Y-76662765D01*
X109182191Y-76872809D01*
X109392235Y-77013157D01*
X109640000Y-77062440D01*
X111340000Y-77062440D01*
X111587765Y-77013157D01*
X111797809Y-76872809D01*
X111938157Y-76662765D01*
X111947184Y-76617381D01*
X111959375Y-76635625D01*
X112450582Y-76963839D01*
X112883744Y-77050000D01*
X113176256Y-77050000D01*
X113609418Y-76963839D01*
X114100625Y-76635625D01*
X114300000Y-76337239D01*
X114499375Y-76635625D01*
X114990582Y-76963839D01*
X115423744Y-77050000D01*
X115716256Y-77050000D01*
X116149418Y-76963839D01*
X116640625Y-76635625D01*
X116840000Y-76337239D01*
X117039375Y-76635625D01*
X117530582Y-76963839D01*
X117963744Y-77050000D01*
X118256256Y-77050000D01*
X118689418Y-76963839D01*
X119180625Y-76635625D01*
X119392474Y-76318571D01*
X119394606Y-76318147D01*
X119454817Y-76446358D01*
X119883076Y-76836645D01*
X119982128Y-76877671D01*
X118667499Y-78192300D01*
X112454547Y-78192300D01*
X112379700Y-78177412D01*
X112304853Y-78192300D01*
X112304848Y-78192300D01*
X112083163Y-78236396D01*
X111831771Y-78404371D01*
X111789371Y-78467827D01*
X110653076Y-79604123D01*
X110307418Y-79373161D01*
X109874256Y-79287000D01*
X109581744Y-79287000D01*
X109148582Y-79373161D01*
X108817311Y-79594509D01*
X108302331Y-79079529D01*
X108259929Y-79016071D01*
X108008537Y-78848096D01*
X107786852Y-78804000D01*
X107786847Y-78804000D01*
X107712000Y-78789112D01*
X107637153Y-78804000D01*
X101698148Y-78804000D01*
X101623300Y-78789112D01*
X101548452Y-78804000D01*
X101548448Y-78804000D01*
X101326763Y-78848096D01*
X101075371Y-79016071D01*
X101032971Y-79079527D01*
X100502248Y-79610251D01*
X100147418Y-79373161D01*
X99714256Y-79287000D01*
X99421744Y-79287000D01*
X98988582Y-79373161D01*
X98497375Y-79701375D01*
X98412400Y-79828549D01*
X98412400Y-78814478D01*
X99624156Y-77602723D01*
X99698049Y-77553349D01*
X99764868Y-77453349D01*
X99893652Y-77260610D01*
X99901320Y-77222060D01*
X99945000Y-77002465D01*
X99945000Y-77002461D01*
X99962337Y-76915300D01*
X99945000Y-76828139D01*
X99945000Y-76819790D01*
X100166673Y-76671673D01*
X100505938Y-76163927D01*
X100625072Y-75565000D01*
X103260908Y-75565000D01*
X103376161Y-76144418D01*
X103704375Y-76635625D01*
X104195582Y-76963839D01*
X104628744Y-77050000D01*
X104921256Y-77050000D01*
X105354418Y-76963839D01*
X105845625Y-76635625D01*
X106173839Y-76144418D01*
X106289092Y-75565000D01*
X106173839Y-74985582D01*
X105845625Y-74494375D01*
X105526522Y-74281157D01*
X105656358Y-74220183D01*
X106046645Y-73791924D01*
X106216476Y-73381890D01*
X106095155Y-73152000D01*
X104902000Y-73152000D01*
X104902000Y-73172000D01*
X104648000Y-73172000D01*
X104648000Y-73152000D01*
X103454845Y-73152000D01*
X103333524Y-73381890D01*
X103503355Y-73791924D01*
X103893642Y-74220183D01*
X104023478Y-74281157D01*
X103704375Y-74494375D01*
X103376161Y-74985582D01*
X103260908Y-75565000D01*
X100625072Y-75565000D01*
X100523627Y-75055000D01*
X100840353Y-75055000D01*
X100915200Y-75069888D01*
X100990047Y-75055000D01*
X100990052Y-75055000D01*
X101211737Y-75010904D01*
X101463129Y-74842929D01*
X101505531Y-74779470D01*
X103431409Y-72853592D01*
X103454845Y-72898000D01*
X104648000Y-72898000D01*
X104648000Y-72878000D01*
X104902000Y-72878000D01*
X104902000Y-72898000D01*
X106095155Y-72898000D01*
X106216476Y-72668110D01*
X106113878Y-72420400D01*
X107505653Y-72420400D01*
X107580500Y-72435288D01*
X107655347Y-72420400D01*
X107655352Y-72420400D01*
X107877037Y-72376304D01*
X108128429Y-72208329D01*
X108170831Y-72144870D01*
X108921315Y-71394387D01*
X108874846Y-71628000D01*
X108874846Y-71628000D01*
G37*
X108874846Y-71628000D02*
X108978458Y-72148891D01*
X109273519Y-72590481D01*
X109351000Y-72642252D01*
X109351001Y-73923535D01*
X109333663Y-74010700D01*
X109359170Y-74138936D01*
X109182191Y-74257191D01*
X109041843Y-74467235D01*
X108992560Y-74715000D01*
X108992560Y-76415000D01*
X109041843Y-76662765D01*
X109182191Y-76872809D01*
X109392235Y-77013157D01*
X109640000Y-77062440D01*
X111340000Y-77062440D01*
X111587765Y-77013157D01*
X111797809Y-76872809D01*
X111938157Y-76662765D01*
X111947184Y-76617381D01*
X111959375Y-76635625D01*
X112450582Y-76963839D01*
X112883744Y-77050000D01*
X113176256Y-77050000D01*
X113609418Y-76963839D01*
X114100625Y-76635625D01*
X114300000Y-76337239D01*
X114499375Y-76635625D01*
X114990582Y-76963839D01*
X115423744Y-77050000D01*
X115716256Y-77050000D01*
X116149418Y-76963839D01*
X116640625Y-76635625D01*
X116840000Y-76337239D01*
X117039375Y-76635625D01*
X117530582Y-76963839D01*
X117963744Y-77050000D01*
X118256256Y-77050000D01*
X118689418Y-76963839D01*
X119180625Y-76635625D01*
X119392474Y-76318571D01*
X119394606Y-76318147D01*
X119454817Y-76446358D01*
X119883076Y-76836645D01*
X119982128Y-76877671D01*
X118667499Y-78192300D01*
X112454547Y-78192300D01*
X112379700Y-78177412D01*
X112304853Y-78192300D01*
X112304848Y-78192300D01*
X112083163Y-78236396D01*
X111831771Y-78404371D01*
X111789371Y-78467827D01*
X110653076Y-79604123D01*
X110307418Y-79373161D01*
X109874256Y-79287000D01*
X109581744Y-79287000D01*
X109148582Y-79373161D01*
X108817311Y-79594509D01*
X108302331Y-79079529D01*
X108259929Y-79016071D01*
X108008537Y-78848096D01*
X107786852Y-78804000D01*
X107786847Y-78804000D01*
X107712000Y-78789112D01*
X107637153Y-78804000D01*
X101698148Y-78804000D01*
X101623300Y-78789112D01*
X101548452Y-78804000D01*
X101548448Y-78804000D01*
X101326763Y-78848096D01*
X101075371Y-79016071D01*
X101032971Y-79079527D01*
X100502248Y-79610251D01*
X100147418Y-79373161D01*
X99714256Y-79287000D01*
X99421744Y-79287000D01*
X98988582Y-79373161D01*
X98497375Y-79701375D01*
X98412400Y-79828549D01*
X98412400Y-78814478D01*
X99624156Y-77602723D01*
X99698049Y-77553349D01*
X99764868Y-77453349D01*
X99893652Y-77260610D01*
X99901320Y-77222060D01*
X99945000Y-77002465D01*
X99945000Y-77002461D01*
X99962337Y-76915300D01*
X99945000Y-76828139D01*
X99945000Y-76819790D01*
X100166673Y-76671673D01*
X100505938Y-76163927D01*
X100625072Y-75565000D01*
X103260908Y-75565000D01*
X103376161Y-76144418D01*
X103704375Y-76635625D01*
X104195582Y-76963839D01*
X104628744Y-77050000D01*
X104921256Y-77050000D01*
X105354418Y-76963839D01*
X105845625Y-76635625D01*
X106173839Y-76144418D01*
X106289092Y-75565000D01*
X106173839Y-74985582D01*
X105845625Y-74494375D01*
X105526522Y-74281157D01*
X105656358Y-74220183D01*
X106046645Y-73791924D01*
X106216476Y-73381890D01*
X106095155Y-73152000D01*
X104902000Y-73152000D01*
X104902000Y-73172000D01*
X104648000Y-73172000D01*
X104648000Y-73152000D01*
X103454845Y-73152000D01*
X103333524Y-73381890D01*
X103503355Y-73791924D01*
X103893642Y-74220183D01*
X104023478Y-74281157D01*
X103704375Y-74494375D01*
X103376161Y-74985582D01*
X103260908Y-75565000D01*
X100625072Y-75565000D01*
X100523627Y-75055000D01*
X100840353Y-75055000D01*
X100915200Y-75069888D01*
X100990047Y-75055000D01*
X100990052Y-75055000D01*
X101211737Y-75010904D01*
X101463129Y-74842929D01*
X101505531Y-74779470D01*
X103431409Y-72853592D01*
X103454845Y-72898000D01*
X104648000Y-72898000D01*
X104648000Y-72878000D01*
X104902000Y-72878000D01*
X104902000Y-72898000D01*
X106095155Y-72898000D01*
X106216476Y-72668110D01*
X106113878Y-72420400D01*
X107505653Y-72420400D01*
X107580500Y-72435288D01*
X107655347Y-72420400D01*
X107655352Y-72420400D01*
X107877037Y-72376304D01*
X108128429Y-72208329D01*
X108170831Y-72144870D01*
X108921315Y-71394387D01*
X108874846Y-71628000D01*
G36*
X120777000Y-75438000D02*
X120797000Y-75438000D01*
X120797000Y-75692000D01*
X120777000Y-75692000D01*
X120777000Y-75712000D01*
X120523000Y-75712000D01*
X120523000Y-75692000D01*
X120503000Y-75692000D01*
X120503000Y-75438000D01*
X120523000Y-75438000D01*
X120523000Y-75418000D01*
X120777000Y-75418000D01*
X120777000Y-75438000D01*
X120777000Y-75438000D01*
G37*
X120777000Y-75438000D02*
X120797000Y-75438000D01*
X120797000Y-75692000D01*
X120777000Y-75692000D01*
X120777000Y-75712000D01*
X120523000Y-75712000D01*
X120523000Y-75692000D01*
X120503000Y-75692000D01*
X120503000Y-75438000D01*
X120523000Y-75438000D01*
X120523000Y-75418000D01*
X120777000Y-75418000D01*
X120777000Y-75438000D01*
G36*
X109273519Y-67617519D02*
X108978458Y-68059109D01*
X108874846Y-68580000D01*
X108978458Y-69100891D01*
X109273519Y-69542481D01*
X109684665Y-69817200D01*
X108738546Y-69817200D01*
X108663699Y-69802312D01*
X108588852Y-69817200D01*
X108588848Y-69817200D01*
X108367163Y-69861296D01*
X108115771Y-70029271D01*
X108073371Y-70092727D01*
X107265699Y-70900400D01*
X106272440Y-70900400D01*
X106272440Y-69635000D01*
X106223157Y-69387235D01*
X106082809Y-69177191D01*
X105872765Y-69036843D01*
X105625000Y-68987560D01*
X103925000Y-68987560D01*
X103677235Y-69036843D01*
X103467191Y-69177191D01*
X103326843Y-69387235D01*
X103277560Y-69635000D01*
X103277560Y-70939663D01*
X103253263Y-70944496D01*
X103001871Y-71112471D01*
X102959471Y-71175927D01*
X100600399Y-73535000D01*
X100523627Y-73535000D01*
X100625072Y-73025000D01*
X100505938Y-72426073D01*
X100209304Y-71982129D01*
X100417809Y-71842809D01*
X100558157Y-71632765D01*
X100607440Y-71385000D01*
X100607440Y-69585000D01*
X100558157Y-69337235D01*
X100417809Y-69127191D01*
X100207765Y-68986843D01*
X99960000Y-68937560D01*
X98160000Y-68937560D01*
X97912235Y-68986843D01*
X97702191Y-69127191D01*
X97561843Y-69337235D01*
X97512560Y-69585000D01*
X97512560Y-70225981D01*
X95597954Y-68311375D01*
X95615000Y-68270222D01*
X95615000Y-67619778D01*
X95502343Y-67347800D01*
X109677182Y-67347800D01*
X109273519Y-67617519D01*
X109273519Y-67617519D01*
G37*
X109273519Y-67617519D02*
X108978458Y-68059109D01*
X108874846Y-68580000D01*
X108978458Y-69100891D01*
X109273519Y-69542481D01*
X109684665Y-69817200D01*
X108738546Y-69817200D01*
X108663699Y-69802312D01*
X108588852Y-69817200D01*
X108588848Y-69817200D01*
X108367163Y-69861296D01*
X108115771Y-70029271D01*
X108073371Y-70092727D01*
X107265699Y-70900400D01*
X106272440Y-70900400D01*
X106272440Y-69635000D01*
X106223157Y-69387235D01*
X106082809Y-69177191D01*
X105872765Y-69036843D01*
X105625000Y-68987560D01*
X103925000Y-68987560D01*
X103677235Y-69036843D01*
X103467191Y-69177191D01*
X103326843Y-69387235D01*
X103277560Y-69635000D01*
X103277560Y-70939663D01*
X103253263Y-70944496D01*
X103001871Y-71112471D01*
X102959471Y-71175927D01*
X100600399Y-73535000D01*
X100523627Y-73535000D01*
X100625072Y-73025000D01*
X100505938Y-72426073D01*
X100209304Y-71982129D01*
X100417809Y-71842809D01*
X100558157Y-71632765D01*
X100607440Y-71385000D01*
X100607440Y-69585000D01*
X100558157Y-69337235D01*
X100417809Y-69127191D01*
X100207765Y-68986843D01*
X99960000Y-68937560D01*
X98160000Y-68937560D01*
X97912235Y-68986843D01*
X97702191Y-69127191D01*
X97561843Y-69337235D01*
X97512560Y-69585000D01*
X97512560Y-70225981D01*
X95597954Y-68311375D01*
X95615000Y-68270222D01*
X95615000Y-67619778D01*
X95502343Y-67347800D01*
X109677182Y-67347800D01*
X109273519Y-67617519D01*
G04 #@! TD*
M02*
