G04 #@! TF.GenerationSoftware,KiCad,Pcbnew,5.0.0*
G04 #@! TF.CreationDate,2018-10-17T23:37:25+09:00*
G04 #@! TF.ProjectId,CheeseUnua,436865657365556E75612E6B69636164,rev?*
G04 #@! TF.SameCoordinates,Original*
G04 #@! TF.FileFunction,Legend,Top*
G04 #@! TF.FilePolarity,Positive*
%FSLAX46Y46*%
G04 Gerber Fmt 4.6, Leading zero omitted, Abs format (unit mm)*
G04 Created by KiCad (PCBNEW 5.0.0) date Wed Oct 17 23:37:25 2018*
%MOMM*%
%LPD*%
G01*
G04 APERTURE LIST*
%ADD10C,0.120000*%
%ADD11C,0.150000*%
G04 APERTURE END LIST*
D10*
G04 #@! TO.C,C1*
X104112000Y-113256000D02*
X102938000Y-113256000D01*
X104112000Y-111534000D02*
X102938000Y-111534000D01*
G04 #@! TO.C,C2*
X107851000Y-111407000D02*
X109025000Y-111407000D01*
X107851000Y-113129000D02*
X109025000Y-113129000D01*
G04 #@! TO.C,C3*
X123218000Y-111534000D02*
X124392000Y-111534000D01*
X123218000Y-113256000D02*
X124392000Y-113256000D01*
G04 #@! TO.C,C4*
X94651723Y-109727722D02*
G75*
G03X94652000Y-105116420I-1179723J2305722D01*
G01*
X92292277Y-109727722D02*
G75*
G02X92292000Y-105116420I1179723J2305722D01*
G01*
X92292277Y-109727722D02*
G75*
G03X94652000Y-109727580I1179723J2305722D01*
G01*
X96022000Y-107422000D02*
X90922000Y-107422000D01*
X96022000Y-107462000D02*
X90922000Y-107462000D01*
X96021000Y-107502000D02*
X90923000Y-107502000D01*
X96020000Y-107542000D02*
X90924000Y-107542000D01*
X96018000Y-107582000D02*
X90926000Y-107582000D01*
X96015000Y-107622000D02*
X90929000Y-107622000D01*
X96011000Y-107662000D02*
X90933000Y-107662000D01*
X96007000Y-107702000D02*
X94452000Y-107702000D01*
X92492000Y-107702000D02*
X90937000Y-107702000D01*
X96003000Y-107742000D02*
X94452000Y-107742000D01*
X92492000Y-107742000D02*
X90941000Y-107742000D01*
X95997000Y-107782000D02*
X94452000Y-107782000D01*
X92492000Y-107782000D02*
X90947000Y-107782000D01*
X95991000Y-107822000D02*
X94452000Y-107822000D01*
X92492000Y-107822000D02*
X90953000Y-107822000D01*
X95985000Y-107862000D02*
X94452000Y-107862000D01*
X92492000Y-107862000D02*
X90959000Y-107862000D01*
X95978000Y-107902000D02*
X94452000Y-107902000D01*
X92492000Y-107902000D02*
X90966000Y-107902000D01*
X95970000Y-107942000D02*
X94452000Y-107942000D01*
X92492000Y-107942000D02*
X90974000Y-107942000D01*
X95961000Y-107982000D02*
X94452000Y-107982000D01*
X92492000Y-107982000D02*
X90983000Y-107982000D01*
X95952000Y-108022000D02*
X94452000Y-108022000D01*
X92492000Y-108022000D02*
X90992000Y-108022000D01*
X95942000Y-108062000D02*
X94452000Y-108062000D01*
X92492000Y-108062000D02*
X91002000Y-108062000D01*
X95932000Y-108102000D02*
X94452000Y-108102000D01*
X92492000Y-108102000D02*
X91012000Y-108102000D01*
X95920000Y-108143000D02*
X94452000Y-108143000D01*
X92492000Y-108143000D02*
X91024000Y-108143000D01*
X95908000Y-108183000D02*
X94452000Y-108183000D01*
X92492000Y-108183000D02*
X91036000Y-108183000D01*
X95896000Y-108223000D02*
X94452000Y-108223000D01*
X92492000Y-108223000D02*
X91048000Y-108223000D01*
X95882000Y-108263000D02*
X94452000Y-108263000D01*
X92492000Y-108263000D02*
X91062000Y-108263000D01*
X95868000Y-108303000D02*
X94452000Y-108303000D01*
X92492000Y-108303000D02*
X91076000Y-108303000D01*
X95854000Y-108343000D02*
X94452000Y-108343000D01*
X92492000Y-108343000D02*
X91090000Y-108343000D01*
X95838000Y-108383000D02*
X94452000Y-108383000D01*
X92492000Y-108383000D02*
X91106000Y-108383000D01*
X95822000Y-108423000D02*
X94452000Y-108423000D01*
X92492000Y-108423000D02*
X91122000Y-108423000D01*
X95805000Y-108463000D02*
X94452000Y-108463000D01*
X92492000Y-108463000D02*
X91139000Y-108463000D01*
X95787000Y-108503000D02*
X94452000Y-108503000D01*
X92492000Y-108503000D02*
X91157000Y-108503000D01*
X95768000Y-108543000D02*
X94452000Y-108543000D01*
X92492000Y-108543000D02*
X91176000Y-108543000D01*
X95748000Y-108583000D02*
X94452000Y-108583000D01*
X92492000Y-108583000D02*
X91196000Y-108583000D01*
X95728000Y-108623000D02*
X94452000Y-108623000D01*
X92492000Y-108623000D02*
X91216000Y-108623000D01*
X95706000Y-108663000D02*
X94452000Y-108663000D01*
X92492000Y-108663000D02*
X91238000Y-108663000D01*
X95684000Y-108703000D02*
X94452000Y-108703000D01*
X92492000Y-108703000D02*
X91260000Y-108703000D01*
X95661000Y-108743000D02*
X94452000Y-108743000D01*
X92492000Y-108743000D02*
X91283000Y-108743000D01*
X95637000Y-108783000D02*
X94452000Y-108783000D01*
X92492000Y-108783000D02*
X91307000Y-108783000D01*
X95612000Y-108823000D02*
X94452000Y-108823000D01*
X92492000Y-108823000D02*
X91332000Y-108823000D01*
X95585000Y-108863000D02*
X94452000Y-108863000D01*
X92492000Y-108863000D02*
X91359000Y-108863000D01*
X95558000Y-108903000D02*
X94452000Y-108903000D01*
X92492000Y-108903000D02*
X91386000Y-108903000D01*
X95530000Y-108943000D02*
X94452000Y-108943000D01*
X92492000Y-108943000D02*
X91414000Y-108943000D01*
X95500000Y-108983000D02*
X94452000Y-108983000D01*
X92492000Y-108983000D02*
X91444000Y-108983000D01*
X95469000Y-109023000D02*
X94452000Y-109023000D01*
X92492000Y-109023000D02*
X91475000Y-109023000D01*
X95437000Y-109063000D02*
X94452000Y-109063000D01*
X92492000Y-109063000D02*
X91507000Y-109063000D01*
X95404000Y-109103000D02*
X94452000Y-109103000D01*
X92492000Y-109103000D02*
X91540000Y-109103000D01*
X95369000Y-109143000D02*
X94452000Y-109143000D01*
X92492000Y-109143000D02*
X91575000Y-109143000D01*
X95333000Y-109183000D02*
X94452000Y-109183000D01*
X92492000Y-109183000D02*
X91611000Y-109183000D01*
X95295000Y-109223000D02*
X94452000Y-109223000D01*
X92492000Y-109223000D02*
X91649000Y-109223000D01*
X95255000Y-109263000D02*
X94452000Y-109263000D01*
X92492000Y-109263000D02*
X91689000Y-109263000D01*
X95214000Y-109303000D02*
X94452000Y-109303000D01*
X92492000Y-109303000D02*
X91730000Y-109303000D01*
X95171000Y-109343000D02*
X94452000Y-109343000D01*
X92492000Y-109343000D02*
X91773000Y-109343000D01*
X95126000Y-109383000D02*
X94452000Y-109383000D01*
X92492000Y-109383000D02*
X91818000Y-109383000D01*
X95078000Y-109423000D02*
X94452000Y-109423000D01*
X92492000Y-109423000D02*
X91866000Y-109423000D01*
X95028000Y-109463000D02*
X94452000Y-109463000D01*
X92492000Y-109463000D02*
X91916000Y-109463000D01*
X94976000Y-109503000D02*
X94452000Y-109503000D01*
X92492000Y-109503000D02*
X91968000Y-109503000D01*
X94920000Y-109543000D02*
X94452000Y-109543000D01*
X92492000Y-109543000D02*
X92024000Y-109543000D01*
X94862000Y-109583000D02*
X94452000Y-109583000D01*
X92492000Y-109583000D02*
X92082000Y-109583000D01*
X94799000Y-109623000D02*
X94452000Y-109623000D01*
X92492000Y-109623000D02*
X92145000Y-109623000D01*
X94733000Y-109663000D02*
X92211000Y-109663000D01*
X94661000Y-109703000D02*
X92283000Y-109703000D01*
X94584000Y-109743000D02*
X92360000Y-109743000D01*
X94500000Y-109783000D02*
X92444000Y-109783000D01*
X94406000Y-109823000D02*
X92538000Y-109823000D01*
X94301000Y-109863000D02*
X92643000Y-109863000D01*
X94179000Y-109903000D02*
X92765000Y-109903000D01*
X94031000Y-109943000D02*
X92913000Y-109943000D01*
X93826000Y-109983000D02*
X93118000Y-109983000D01*
X93472000Y-103972000D02*
X93472000Y-105172000D01*
X94122000Y-104572000D02*
X92822000Y-104572000D01*
G04 #@! TO.C,C5*
X164493000Y-98199000D02*
X165667000Y-98199000D01*
X164493000Y-99921000D02*
X165667000Y-99921000D01*
G04 #@! TO.C,C6*
X97547323Y-125831722D02*
G75*
G03X97547600Y-121220420I-1179723J2305722D01*
G01*
X95187877Y-125831722D02*
G75*
G02X95187600Y-121220420I1179723J2305722D01*
G01*
X95187877Y-125831722D02*
G75*
G03X97547600Y-125831580I1179723J2305722D01*
G01*
X98917600Y-123526000D02*
X93817600Y-123526000D01*
X98917600Y-123566000D02*
X93817600Y-123566000D01*
X98916600Y-123606000D02*
X93818600Y-123606000D01*
X98915600Y-123646000D02*
X93819600Y-123646000D01*
X98913600Y-123686000D02*
X93821600Y-123686000D01*
X98910600Y-123726000D02*
X93824600Y-123726000D01*
X98906600Y-123766000D02*
X93828600Y-123766000D01*
X98902600Y-123806000D02*
X97347600Y-123806000D01*
X95387600Y-123806000D02*
X93832600Y-123806000D01*
X98898600Y-123846000D02*
X97347600Y-123846000D01*
X95387600Y-123846000D02*
X93836600Y-123846000D01*
X98892600Y-123886000D02*
X97347600Y-123886000D01*
X95387600Y-123886000D02*
X93842600Y-123886000D01*
X98886600Y-123926000D02*
X97347600Y-123926000D01*
X95387600Y-123926000D02*
X93848600Y-123926000D01*
X98880600Y-123966000D02*
X97347600Y-123966000D01*
X95387600Y-123966000D02*
X93854600Y-123966000D01*
X98873600Y-124006000D02*
X97347600Y-124006000D01*
X95387600Y-124006000D02*
X93861600Y-124006000D01*
X98865600Y-124046000D02*
X97347600Y-124046000D01*
X95387600Y-124046000D02*
X93869600Y-124046000D01*
X98856600Y-124086000D02*
X97347600Y-124086000D01*
X95387600Y-124086000D02*
X93878600Y-124086000D01*
X98847600Y-124126000D02*
X97347600Y-124126000D01*
X95387600Y-124126000D02*
X93887600Y-124126000D01*
X98837600Y-124166000D02*
X97347600Y-124166000D01*
X95387600Y-124166000D02*
X93897600Y-124166000D01*
X98827600Y-124206000D02*
X97347600Y-124206000D01*
X95387600Y-124206000D02*
X93907600Y-124206000D01*
X98815600Y-124247000D02*
X97347600Y-124247000D01*
X95387600Y-124247000D02*
X93919600Y-124247000D01*
X98803600Y-124287000D02*
X97347600Y-124287000D01*
X95387600Y-124287000D02*
X93931600Y-124287000D01*
X98791600Y-124327000D02*
X97347600Y-124327000D01*
X95387600Y-124327000D02*
X93943600Y-124327000D01*
X98777600Y-124367000D02*
X97347600Y-124367000D01*
X95387600Y-124367000D02*
X93957600Y-124367000D01*
X98763600Y-124407000D02*
X97347600Y-124407000D01*
X95387600Y-124407000D02*
X93971600Y-124407000D01*
X98749600Y-124447000D02*
X97347600Y-124447000D01*
X95387600Y-124447000D02*
X93985600Y-124447000D01*
X98733600Y-124487000D02*
X97347600Y-124487000D01*
X95387600Y-124487000D02*
X94001600Y-124487000D01*
X98717600Y-124527000D02*
X97347600Y-124527000D01*
X95387600Y-124527000D02*
X94017600Y-124527000D01*
X98700600Y-124567000D02*
X97347600Y-124567000D01*
X95387600Y-124567000D02*
X94034600Y-124567000D01*
X98682600Y-124607000D02*
X97347600Y-124607000D01*
X95387600Y-124607000D02*
X94052600Y-124607000D01*
X98663600Y-124647000D02*
X97347600Y-124647000D01*
X95387600Y-124647000D02*
X94071600Y-124647000D01*
X98643600Y-124687000D02*
X97347600Y-124687000D01*
X95387600Y-124687000D02*
X94091600Y-124687000D01*
X98623600Y-124727000D02*
X97347600Y-124727000D01*
X95387600Y-124727000D02*
X94111600Y-124727000D01*
X98601600Y-124767000D02*
X97347600Y-124767000D01*
X95387600Y-124767000D02*
X94133600Y-124767000D01*
X98579600Y-124807000D02*
X97347600Y-124807000D01*
X95387600Y-124807000D02*
X94155600Y-124807000D01*
X98556600Y-124847000D02*
X97347600Y-124847000D01*
X95387600Y-124847000D02*
X94178600Y-124847000D01*
X98532600Y-124887000D02*
X97347600Y-124887000D01*
X95387600Y-124887000D02*
X94202600Y-124887000D01*
X98507600Y-124927000D02*
X97347600Y-124927000D01*
X95387600Y-124927000D02*
X94227600Y-124927000D01*
X98480600Y-124967000D02*
X97347600Y-124967000D01*
X95387600Y-124967000D02*
X94254600Y-124967000D01*
X98453600Y-125007000D02*
X97347600Y-125007000D01*
X95387600Y-125007000D02*
X94281600Y-125007000D01*
X98425600Y-125047000D02*
X97347600Y-125047000D01*
X95387600Y-125047000D02*
X94309600Y-125047000D01*
X98395600Y-125087000D02*
X97347600Y-125087000D01*
X95387600Y-125087000D02*
X94339600Y-125087000D01*
X98364600Y-125127000D02*
X97347600Y-125127000D01*
X95387600Y-125127000D02*
X94370600Y-125127000D01*
X98332600Y-125167000D02*
X97347600Y-125167000D01*
X95387600Y-125167000D02*
X94402600Y-125167000D01*
X98299600Y-125207000D02*
X97347600Y-125207000D01*
X95387600Y-125207000D02*
X94435600Y-125207000D01*
X98264600Y-125247000D02*
X97347600Y-125247000D01*
X95387600Y-125247000D02*
X94470600Y-125247000D01*
X98228600Y-125287000D02*
X97347600Y-125287000D01*
X95387600Y-125287000D02*
X94506600Y-125287000D01*
X98190600Y-125327000D02*
X97347600Y-125327000D01*
X95387600Y-125327000D02*
X94544600Y-125327000D01*
X98150600Y-125367000D02*
X97347600Y-125367000D01*
X95387600Y-125367000D02*
X94584600Y-125367000D01*
X98109600Y-125407000D02*
X97347600Y-125407000D01*
X95387600Y-125407000D02*
X94625600Y-125407000D01*
X98066600Y-125447000D02*
X97347600Y-125447000D01*
X95387600Y-125447000D02*
X94668600Y-125447000D01*
X98021600Y-125487000D02*
X97347600Y-125487000D01*
X95387600Y-125487000D02*
X94713600Y-125487000D01*
X97973600Y-125527000D02*
X97347600Y-125527000D01*
X95387600Y-125527000D02*
X94761600Y-125527000D01*
X97923600Y-125567000D02*
X97347600Y-125567000D01*
X95387600Y-125567000D02*
X94811600Y-125567000D01*
X97871600Y-125607000D02*
X97347600Y-125607000D01*
X95387600Y-125607000D02*
X94863600Y-125607000D01*
X97815600Y-125647000D02*
X97347600Y-125647000D01*
X95387600Y-125647000D02*
X94919600Y-125647000D01*
X97757600Y-125687000D02*
X97347600Y-125687000D01*
X95387600Y-125687000D02*
X94977600Y-125687000D01*
X97694600Y-125727000D02*
X97347600Y-125727000D01*
X95387600Y-125727000D02*
X95040600Y-125727000D01*
X97628600Y-125767000D02*
X95106600Y-125767000D01*
X97556600Y-125807000D02*
X95178600Y-125807000D01*
X97479600Y-125847000D02*
X95255600Y-125847000D01*
X97395600Y-125887000D02*
X95339600Y-125887000D01*
X97301600Y-125927000D02*
X95433600Y-125927000D01*
X97196600Y-125967000D02*
X95538600Y-125967000D01*
X97074600Y-126007000D02*
X95660600Y-126007000D01*
X96926600Y-126047000D02*
X95808600Y-126047000D01*
X96721600Y-126087000D02*
X96013600Y-126087000D01*
X96367600Y-120076000D02*
X96367600Y-121276000D01*
X97017600Y-120676000D02*
X95717600Y-120676000D01*
G04 #@! TO.C,C7*
X142903000Y-82324000D02*
X144077000Y-82324000D01*
X142903000Y-84046000D02*
X144077000Y-84046000D01*
G04 #@! TO.C,C8*
X165707000Y-93571000D02*
X164533000Y-93571000D01*
X165707000Y-91849000D02*
X164533000Y-91849000D01*
G04 #@! TO.C,C9*
X142903000Y-67084000D02*
X144077000Y-67084000D01*
X142903000Y-68806000D02*
X144077000Y-68806000D01*
G04 #@! TO.C,C10*
X144117000Y-71346000D02*
X142943000Y-71346000D01*
X144117000Y-69624000D02*
X142943000Y-69624000D01*
G04 #@! TO.C,C11*
X164493000Y-94389000D02*
X165667000Y-94389000D01*
X164493000Y-96111000D02*
X165667000Y-96111000D01*
G04 #@! TO.C,D1*
X94847665Y-116013608D02*
G75*
G03X98080000Y-116170516I1672335J1078608D01*
G01*
X94847665Y-113856392D02*
G75*
G02X98080000Y-113699484I1672335J-1078608D01*
G01*
X95478870Y-116014837D02*
G75*
G03X97560961Y-116015000I1041130J1079837D01*
G01*
X95478870Y-113855163D02*
G75*
G02X97560961Y-113855000I1041130J-1079837D01*
G01*
X98080000Y-116171000D02*
X98080000Y-116015000D01*
X98080000Y-113855000D02*
X98080000Y-113699000D01*
G04 #@! TO.C,D2*
X86551392Y-105642665D02*
G75*
G03X86394484Y-108875000I1078608J-1672335D01*
G01*
X88708608Y-105642665D02*
G75*
G02X88865516Y-108875000I-1078608J-1672335D01*
G01*
X86550163Y-106273870D02*
G75*
G03X86550000Y-108355961I1079837J-1041130D01*
G01*
X88709837Y-106273870D02*
G75*
G02X88710000Y-108355961I-1079837J-1041130D01*
G01*
X86394000Y-108875000D02*
X86550000Y-108875000D01*
X88710000Y-108875000D02*
X88866000Y-108875000D01*
G04 #@! TO.C,D3*
X163173665Y-106488608D02*
G75*
G03X166406000Y-106645516I1672335J1078608D01*
G01*
X163173665Y-104331392D02*
G75*
G02X166406000Y-104174484I1672335J-1078608D01*
G01*
X163804870Y-106489837D02*
G75*
G03X165886961Y-106490000I1041130J1079837D01*
G01*
X163804870Y-104330163D02*
G75*
G02X165886961Y-104330000I1041130J-1079837D01*
G01*
X166406000Y-106646000D02*
X166406000Y-106490000D01*
X166406000Y-104330000D02*
X166406000Y-104174000D01*
G04 #@! TO.C,D4*
X156025000Y-67945462D02*
G75*
G03X150475000Y-66400170I-2990000J462D01*
G01*
X156025000Y-67944538D02*
G75*
G02X150475000Y-69489830I-2990000J-462D01*
G01*
X155535000Y-67945000D02*
G75*
G03X155535000Y-67945000I-2500000J0D01*
G01*
X150475000Y-66400000D02*
X150475000Y-69490000D01*
G04 #@! TO.C,J1*
X86440000Y-120805000D02*
X77640000Y-120805000D01*
X77640000Y-120805000D02*
X77640000Y-111605000D01*
X92340000Y-118105000D02*
X92340000Y-120805000D01*
X92340000Y-120805000D02*
X90440000Y-120805000D01*
X77640000Y-111605000D02*
X92340000Y-111605000D01*
X92340000Y-111605000D02*
X92340000Y-114205000D01*
G04 #@! TO.C,J2*
X86905000Y-71110000D02*
X80955000Y-71110000D01*
X80955000Y-71110000D02*
X80955000Y-78710000D01*
X80955000Y-78710000D02*
X86905000Y-78710000D01*
X86905000Y-78710000D02*
X86905000Y-71110000D01*
X86905000Y-74410000D02*
X86155000Y-74410000D01*
X86155000Y-74410000D02*
X86155000Y-75410000D01*
X86155000Y-75410000D02*
X86905000Y-75410000D01*
X86905000Y-75410000D02*
X86905000Y-74410000D01*
X86905000Y-71110000D02*
X86155000Y-71110000D01*
X86155000Y-71110000D02*
X86155000Y-72910000D01*
X86155000Y-72910000D02*
X86905000Y-72910000D01*
X86905000Y-72910000D02*
X86905000Y-71110000D01*
X86905000Y-76910000D02*
X86155000Y-76910000D01*
X86155000Y-76910000D02*
X86155000Y-78710000D01*
X86155000Y-78710000D02*
X86905000Y-78710000D01*
X86905000Y-78710000D02*
X86905000Y-76910000D01*
X84655000Y-71110000D02*
X84655000Y-71860000D01*
X84655000Y-71860000D02*
X81705000Y-71860000D01*
X81705000Y-71860000D02*
X81705000Y-74910000D01*
X84655000Y-78710000D02*
X84655000Y-77960000D01*
X84655000Y-77960000D02*
X81705000Y-77960000D01*
X81705000Y-77960000D02*
X81705000Y-74910000D01*
X87205000Y-73310000D02*
X87205000Y-70810000D01*
X87205000Y-70810000D02*
X84705000Y-70810000D01*
G04 #@! TO.C,J7*
X131378000Y-110042000D02*
X131378000Y-104842000D01*
X100838000Y-110042000D02*
X131378000Y-110042000D01*
X98238000Y-104842000D02*
X131378000Y-104842000D01*
X100838000Y-110042000D02*
X100838000Y-107442000D01*
X100838000Y-107442000D02*
X98238000Y-107442000D01*
X98238000Y-107442000D02*
X98238000Y-104842000D01*
X99568000Y-110042000D02*
X98238000Y-110042000D01*
X98238000Y-110042000D02*
X98238000Y-108712000D01*
G04 #@! TO.C,J8*
X98238000Y-79442000D02*
X98238000Y-84642000D01*
X128778000Y-79442000D02*
X98238000Y-79442000D01*
X131378000Y-84642000D02*
X98238000Y-84642000D01*
X128778000Y-79442000D02*
X128778000Y-82042000D01*
X128778000Y-82042000D02*
X131378000Y-82042000D01*
X131378000Y-82042000D02*
X131378000Y-84642000D01*
X130048000Y-79442000D02*
X131378000Y-79442000D01*
X131378000Y-79442000D02*
X131378000Y-80772000D01*
D11*
G04 #@! TO.C,L1*
X95250000Y-84226400D02*
G75*
G03X95250000Y-84226400I-3810000J0D01*
G01*
D10*
G04 #@! TO.C,LS1*
X160048871Y-95656400D02*
G75*
G03X160048871Y-95656400I-8004871J0D01*
G01*
G04 #@! TO.C,Q1*
X101680000Y-67905000D02*
X101680000Y-78145000D01*
X97039000Y-67905000D02*
X97039000Y-78145000D01*
X101680000Y-67905000D02*
X97039000Y-67905000D01*
X101680000Y-78145000D02*
X97039000Y-78145000D01*
X100170000Y-67905000D02*
X100170000Y-78145000D01*
X101680000Y-71175000D02*
X100170000Y-71175000D01*
X101680000Y-74876000D02*
X100170000Y-74876000D01*
G04 #@! TO.C,Q2*
X90725000Y-101005000D02*
X90725000Y-90765000D01*
X95366000Y-101005000D02*
X95366000Y-90765000D01*
X90725000Y-101005000D02*
X95366000Y-101005000D01*
X90725000Y-90765000D02*
X95366000Y-90765000D01*
X92235000Y-101005000D02*
X92235000Y-90765000D01*
X90725000Y-97735000D02*
X92235000Y-97735000D01*
X90725000Y-94034000D02*
X92235000Y-94034000D01*
G04 #@! TO.C,SW2*
X103445000Y-76895000D02*
X106105000Y-76895000D01*
X103445000Y-71755000D02*
X103445000Y-76895000D01*
X106105000Y-71755000D02*
X106105000Y-76895000D01*
X103445000Y-71755000D02*
X106105000Y-71755000D01*
X103445000Y-70485000D02*
X103445000Y-69155000D01*
X103445000Y-69155000D02*
X104775000Y-69155000D01*
D11*
G04 #@! TO.C,U3*
X159387214Y-122094000D02*
G75*
G03X159387214Y-122094000I-447214J0D01*
G01*
X151940000Y-112094000D02*
X150940000Y-117094000D01*
X150940000Y-117094000D02*
X149940000Y-122094000D01*
X149940000Y-122094000D02*
X156940000Y-122094000D01*
X156940000Y-122094000D02*
X157940000Y-117094000D01*
X158940000Y-112094000D02*
X157940000Y-117094000D01*
X157940000Y-117094000D02*
X150940000Y-117094000D01*
X151940000Y-112094000D02*
X158940000Y-112094000D01*
X161240000Y-126694000D02*
X148640000Y-126694000D01*
X148640000Y-111394000D02*
X148640000Y-122794000D01*
X161240000Y-111394000D02*
X161240000Y-122794000D01*
X148640000Y-107494000D02*
X161240000Y-107494000D01*
D10*
G04 #@! TO.C,U4*
X165465000Y-74235000D02*
G75*
G02X163465000Y-74235000I-1000000J0D01*
G01*
X163465000Y-74235000D02*
X161815000Y-74235000D01*
X161815000Y-74235000D02*
X161815000Y-84515000D01*
X161815000Y-84515000D02*
X167115000Y-84515000D01*
X167115000Y-84515000D02*
X167115000Y-74235000D01*
X167115000Y-74235000D02*
X165465000Y-74235000D01*
G04 #@! TO.C,U5*
X153400000Y-74235000D02*
G75*
G02X151400000Y-74235000I-1000000J0D01*
G01*
X151400000Y-74235000D02*
X149750000Y-74235000D01*
X149750000Y-74235000D02*
X149750000Y-84515000D01*
X149750000Y-84515000D02*
X155050000Y-84515000D01*
X155050000Y-84515000D02*
X155050000Y-74235000D01*
X155050000Y-74235000D02*
X153400000Y-74235000D01*
G04 #@! TO.C,U1*
X84285000Y-99755000D02*
X84285000Y-92015000D01*
X84285000Y-92015000D02*
X81625000Y-92015000D01*
X81625000Y-92015000D02*
X81625000Y-99755000D01*
X81625000Y-99755000D02*
X84285000Y-99755000D01*
X81625000Y-98805000D02*
X75625000Y-98805000D01*
X75625000Y-98805000D02*
X75625000Y-98045000D01*
X75625000Y-98045000D02*
X81625000Y-98045000D01*
X81625000Y-98745000D02*
X75625000Y-98745000D01*
X81625000Y-98625000D02*
X75625000Y-98625000D01*
X81625000Y-98505000D02*
X75625000Y-98505000D01*
X81625000Y-98385000D02*
X75625000Y-98385000D01*
X81625000Y-98265000D02*
X75625000Y-98265000D01*
X81625000Y-98145000D02*
X75625000Y-98145000D01*
X84615000Y-98805000D02*
X84285000Y-98805000D01*
X84615000Y-98045000D02*
X84285000Y-98045000D01*
X84285000Y-97155000D02*
X81625000Y-97155000D01*
X81625000Y-96265000D02*
X75625000Y-96265000D01*
X75625000Y-96265000D02*
X75625000Y-95505000D01*
X75625000Y-95505000D02*
X81625000Y-95505000D01*
X84682071Y-96265000D02*
X84285000Y-96265000D01*
X84682071Y-95505000D02*
X84285000Y-95505000D01*
X84285000Y-94615000D02*
X81625000Y-94615000D01*
X81625000Y-93725000D02*
X75625000Y-93725000D01*
X75625000Y-93725000D02*
X75625000Y-92965000D01*
X75625000Y-92965000D02*
X81625000Y-92965000D01*
X84682071Y-93725000D02*
X84285000Y-93725000D01*
X84682071Y-92965000D02*
X84285000Y-92965000D01*
X86995000Y-98425000D02*
X86995000Y-99695000D01*
X86995000Y-99695000D02*
X85725000Y-99695000D01*
G04 #@! TO.C,F1*
X95810000Y-70065000D02*
X87070000Y-70065000D01*
X95810000Y-70065000D02*
X95810000Y-65825000D01*
X87070000Y-65825000D02*
X87070000Y-70065000D01*
X87070000Y-65825000D02*
X95810000Y-65825000D01*
G04 #@! TO.C,J3*
X163770000Y-122894000D02*
X166430000Y-122894000D01*
X163770000Y-112674000D02*
X163770000Y-122894000D01*
X166430000Y-112674000D02*
X166430000Y-122894000D01*
X163770000Y-112674000D02*
X166430000Y-112674000D01*
X163770000Y-111404000D02*
X163770000Y-110074000D01*
X163770000Y-110074000D02*
X165100000Y-110074000D01*
G04 #@! TO.C,J4*
X125035000Y-74235000D02*
X125035000Y-76895000D01*
X130175000Y-74235000D02*
X125035000Y-74235000D01*
X130175000Y-76895000D02*
X125035000Y-76895000D01*
X130175000Y-74235000D02*
X130175000Y-76895000D01*
X131445000Y-74235000D02*
X132775000Y-74235000D01*
X132775000Y-74235000D02*
X132775000Y-75565000D01*
G04 #@! TO.C,J6*
X121980000Y-76895000D02*
X121980000Y-74235000D01*
X111760000Y-76895000D02*
X121980000Y-76895000D01*
X111760000Y-74235000D02*
X121980000Y-74235000D01*
X111760000Y-76895000D02*
X111760000Y-74235000D01*
X110490000Y-76895000D02*
X109160000Y-76895000D01*
X109160000Y-76895000D02*
X109160000Y-75565000D01*
G04 #@! TO.C,D6*
X164915000Y-67945462D02*
G75*
G03X159365000Y-66400170I-2990000J462D01*
G01*
X164915000Y-67944538D02*
G75*
G02X159365000Y-69489830I-2990000J-462D01*
G01*
X164425000Y-67945000D02*
G75*
G03X164425000Y-67945000I-2500000J0D01*
G01*
X159365000Y-66400000D02*
X159365000Y-69490000D01*
G04 #@! TO.C,SW3*
X136128000Y-119038000D02*
X140628000Y-119038000D01*
X134878000Y-115038000D02*
X134878000Y-116538000D01*
X140628000Y-112538000D02*
X136128000Y-112538000D01*
X141878000Y-116538000D02*
X141878000Y-115038000D01*
G04 #@! TO.C,J5*
X112695000Y-121725000D02*
X112395000Y-122325000D01*
X112095000Y-121725000D02*
X112695000Y-121725000D01*
X112395000Y-122325000D02*
X112095000Y-121725000D01*
X126295000Y-125875000D02*
X118645000Y-125875000D01*
X126295000Y-121375000D02*
X126295000Y-125875000D01*
X127495000Y-121375000D02*
X126295000Y-121375000D01*
X127495000Y-133175000D02*
X127495000Y-121375000D01*
X118645000Y-133175000D02*
X127495000Y-133175000D01*
X110995000Y-125875000D02*
X118645000Y-125875000D01*
X110995000Y-121375000D02*
X110995000Y-125875000D01*
X109795000Y-121375000D02*
X110995000Y-121375000D01*
X109795000Y-133175000D02*
X109795000Y-121375000D01*
X118645000Y-133175000D02*
X109795000Y-133175000D01*
G04 #@! TO.C,R1*
X104530000Y-86563200D02*
X103460000Y-86563200D01*
X98670000Y-86563200D02*
X99740000Y-86563200D01*
X103460000Y-85703200D02*
X99740000Y-85703200D01*
X103460000Y-87423200D02*
X103460000Y-85703200D01*
X99740000Y-87423200D02*
X103460000Y-87423200D01*
X99740000Y-85703200D02*
X99740000Y-87423200D01*
G04 #@! TO.C,R2*
X103714000Y-90268000D02*
X103714000Y-88548000D01*
X103714000Y-88548000D02*
X99994000Y-88548000D01*
X99994000Y-88548000D02*
X99994000Y-90268000D01*
X99994000Y-90268000D02*
X103714000Y-90268000D01*
X104784000Y-89408000D02*
X103714000Y-89408000D01*
X98924000Y-89408000D02*
X99994000Y-89408000D01*
G04 #@! TO.C,R3*
X102534000Y-122076000D02*
X102534000Y-123796000D01*
X102534000Y-123796000D02*
X106254000Y-123796000D01*
X106254000Y-123796000D02*
X106254000Y-122076000D01*
X106254000Y-122076000D02*
X102534000Y-122076000D01*
X101464000Y-122936000D02*
X102534000Y-122936000D01*
X107324000Y-122936000D02*
X106254000Y-122936000D01*
G04 #@! TO.C,R4*
X106254000Y-126336000D02*
X106254000Y-124616000D01*
X106254000Y-124616000D02*
X102534000Y-124616000D01*
X102534000Y-124616000D02*
X102534000Y-126336000D01*
X102534000Y-126336000D02*
X106254000Y-126336000D01*
X107324000Y-125476000D02*
X106254000Y-125476000D01*
X101464000Y-125476000D02*
X102534000Y-125476000D01*
G04 #@! TO.C,R5*
X115906000Y-69440000D02*
X115906000Y-67720000D01*
X115906000Y-67720000D02*
X112186000Y-67720000D01*
X112186000Y-67720000D02*
X112186000Y-69440000D01*
X112186000Y-69440000D02*
X115906000Y-69440000D01*
X116976000Y-68580000D02*
X115906000Y-68580000D01*
X111116000Y-68580000D02*
X112186000Y-68580000D01*
G04 #@! TO.C,R6*
X118065000Y-113255000D02*
X118065000Y-111535000D01*
X118065000Y-111535000D02*
X114345000Y-111535000D01*
X114345000Y-111535000D02*
X114345000Y-113255000D01*
X114345000Y-113255000D02*
X118065000Y-113255000D01*
X119135000Y-112395000D02*
X118065000Y-112395000D01*
X113275000Y-112395000D02*
X114345000Y-112395000D01*
G04 #@! TO.C,R7*
X98924000Y-96012000D02*
X99994000Y-96012000D01*
X104784000Y-96012000D02*
X103714000Y-96012000D01*
X99994000Y-96872000D02*
X103714000Y-96872000D01*
X99994000Y-95152000D02*
X99994000Y-96872000D01*
X103714000Y-95152000D02*
X99994000Y-95152000D01*
X103714000Y-96872000D02*
X103714000Y-95152000D01*
G04 #@! TO.C,R8*
X98924000Y-99060000D02*
X99994000Y-99060000D01*
X104784000Y-99060000D02*
X103714000Y-99060000D01*
X99994000Y-99920000D02*
X103714000Y-99920000D01*
X99994000Y-98200000D02*
X99994000Y-99920000D01*
X103714000Y-98200000D02*
X99994000Y-98200000D01*
X103714000Y-99920000D02*
X103714000Y-98200000D01*
G04 #@! TO.C,R9*
X115906000Y-72488000D02*
X115906000Y-70768000D01*
X115906000Y-70768000D02*
X112186000Y-70768000D01*
X112186000Y-70768000D02*
X112186000Y-72488000D01*
X112186000Y-72488000D02*
X115906000Y-72488000D01*
X116976000Y-71628000D02*
X115906000Y-71628000D01*
X111116000Y-71628000D02*
X112186000Y-71628000D01*
G04 #@! TO.C,R10*
X140090000Y-109220000D02*
X139020000Y-109220000D01*
X134230000Y-109220000D02*
X135300000Y-109220000D01*
X139020000Y-108360000D02*
X135300000Y-108360000D01*
X139020000Y-110080000D02*
X139020000Y-108360000D01*
X135300000Y-110080000D02*
X139020000Y-110080000D01*
X135300000Y-108360000D02*
X135300000Y-110080000D01*
G04 #@! TO.C,R11*
X135300000Y-105820000D02*
X135300000Y-107540000D01*
X135300000Y-107540000D02*
X139020000Y-107540000D01*
X139020000Y-107540000D02*
X139020000Y-105820000D01*
X139020000Y-105820000D02*
X135300000Y-105820000D01*
X134230000Y-106680000D02*
X135300000Y-106680000D01*
X140090000Y-106680000D02*
X139020000Y-106680000D01*
G04 #@! TO.C,R12*
X144100000Y-81505000D02*
X144100000Y-79785000D01*
X144100000Y-79785000D02*
X140380000Y-79785000D01*
X140380000Y-79785000D02*
X140380000Y-81505000D01*
X140380000Y-81505000D02*
X144100000Y-81505000D01*
X145170000Y-80645000D02*
X144100000Y-80645000D01*
X139310000Y-80645000D02*
X140380000Y-80645000D01*
G04 #@! TO.C,R13*
X139310000Y-78105000D02*
X140380000Y-78105000D01*
X145170000Y-78105000D02*
X144100000Y-78105000D01*
X140380000Y-78965000D02*
X144100000Y-78965000D01*
X140380000Y-77245000D02*
X140380000Y-78965000D01*
X144100000Y-77245000D02*
X140380000Y-77245000D01*
X144100000Y-78965000D02*
X144100000Y-77245000D01*
G04 #@! TO.C,R14*
X169300000Y-88900000D02*
X168230000Y-88900000D01*
X163440000Y-88900000D02*
X164510000Y-88900000D01*
X168230000Y-88040000D02*
X164510000Y-88040000D01*
X168230000Y-89760000D02*
X168230000Y-88040000D01*
X164510000Y-89760000D02*
X168230000Y-89760000D01*
X164510000Y-88040000D02*
X164510000Y-89760000D01*
G04 #@! TO.C,R15*
X133976000Y-104140000D02*
X135046000Y-104140000D01*
X139836000Y-104140000D02*
X138766000Y-104140000D01*
X135046000Y-105000000D02*
X138766000Y-105000000D01*
X135046000Y-103280000D02*
X135046000Y-105000000D01*
X138766000Y-103280000D02*
X135046000Y-103280000D01*
X138766000Y-105000000D02*
X138766000Y-103280000D01*
G04 #@! TO.C,R16*
X133976000Y-101600000D02*
X135046000Y-101600000D01*
X139836000Y-101600000D02*
X138766000Y-101600000D01*
X135046000Y-102460000D02*
X138766000Y-102460000D01*
X135046000Y-100740000D02*
X135046000Y-102460000D01*
X138766000Y-100740000D02*
X135046000Y-100740000D01*
X138766000Y-102460000D02*
X138766000Y-100740000D01*
G04 #@! TO.C,R17*
X133976000Y-99060000D02*
X135046000Y-99060000D01*
X139836000Y-99060000D02*
X138766000Y-99060000D01*
X135046000Y-99920000D02*
X138766000Y-99920000D01*
X135046000Y-98200000D02*
X135046000Y-99920000D01*
X138766000Y-98200000D02*
X135046000Y-98200000D01*
X138766000Y-99920000D02*
X138766000Y-98200000D01*
G04 #@! TO.C,R18*
X138766000Y-97380000D02*
X138766000Y-95660000D01*
X138766000Y-95660000D02*
X135046000Y-95660000D01*
X135046000Y-95660000D02*
X135046000Y-97380000D01*
X135046000Y-97380000D02*
X138766000Y-97380000D01*
X139836000Y-96520000D02*
X138766000Y-96520000D01*
X133976000Y-96520000D02*
X135046000Y-96520000D01*
G04 #@! TO.C,R19*
X133976000Y-93980000D02*
X135046000Y-93980000D01*
X139836000Y-93980000D02*
X138766000Y-93980000D01*
X135046000Y-94840000D02*
X138766000Y-94840000D01*
X135046000Y-93120000D02*
X135046000Y-94840000D01*
X138766000Y-93120000D02*
X135046000Y-93120000D01*
X138766000Y-94840000D02*
X138766000Y-93120000D01*
G04 #@! TO.C,R20*
X133976000Y-91440000D02*
X135046000Y-91440000D01*
X139836000Y-91440000D02*
X138766000Y-91440000D01*
X135046000Y-92300000D02*
X138766000Y-92300000D01*
X135046000Y-90580000D02*
X135046000Y-92300000D01*
X138766000Y-90580000D02*
X135046000Y-90580000D01*
X138766000Y-92300000D02*
X138766000Y-90580000D01*
G04 #@! TO.C,R21*
X138766000Y-89760000D02*
X138766000Y-88040000D01*
X138766000Y-88040000D02*
X135046000Y-88040000D01*
X135046000Y-88040000D02*
X135046000Y-89760000D01*
X135046000Y-89760000D02*
X138766000Y-89760000D01*
X139836000Y-88900000D02*
X138766000Y-88900000D01*
X133976000Y-88900000D02*
X135046000Y-88900000D01*
G04 #@! TO.C,R22*
X133976000Y-86360000D02*
X135046000Y-86360000D01*
X139836000Y-86360000D02*
X138766000Y-86360000D01*
X135046000Y-87220000D02*
X138766000Y-87220000D01*
X135046000Y-85500000D02*
X135046000Y-87220000D01*
X138766000Y-85500000D02*
X135046000Y-85500000D01*
X138766000Y-87220000D02*
X138766000Y-85500000D01*
G04 #@! TO.C,R23*
X99994000Y-92104000D02*
X99994000Y-93824000D01*
X99994000Y-93824000D02*
X103714000Y-93824000D01*
X103714000Y-93824000D02*
X103714000Y-92104000D01*
X103714000Y-92104000D02*
X99994000Y-92104000D01*
X98924000Y-92964000D02*
X99994000Y-92964000D01*
X104784000Y-92964000D02*
X103714000Y-92964000D01*
G04 #@! TO.C,R25*
X161408000Y-72644000D02*
X162478000Y-72644000D01*
X167268000Y-72644000D02*
X166198000Y-72644000D01*
X162478000Y-73504000D02*
X166198000Y-73504000D01*
X162478000Y-71784000D02*
X162478000Y-73504000D01*
X166198000Y-71784000D02*
X162478000Y-71784000D01*
X166198000Y-73504000D02*
X166198000Y-71784000D01*
G04 #@! TO.C,R26*
X144100000Y-73885000D02*
X144100000Y-72165000D01*
X144100000Y-72165000D02*
X140380000Y-72165000D01*
X140380000Y-72165000D02*
X140380000Y-73885000D01*
X140380000Y-73885000D02*
X144100000Y-73885000D01*
X145170000Y-73025000D02*
X144100000Y-73025000D01*
X139310000Y-73025000D02*
X140380000Y-73025000D01*
G04 #@! TO.C,R24*
X136870000Y-75565000D02*
X137760000Y-75565000D01*
X145070000Y-75565000D02*
X144180000Y-75565000D01*
X137760000Y-76875000D02*
X144180000Y-76875000D01*
X137760000Y-74255000D02*
X137760000Y-76875000D01*
X144180000Y-74255000D02*
X137760000Y-74255000D01*
X144180000Y-76875000D02*
X144180000Y-74255000D01*
G04 #@! TO.C,JP1*
X95818000Y-72330000D02*
X95818000Y-73660000D01*
X94488000Y-72330000D02*
X95818000Y-72330000D01*
X93218000Y-72330000D02*
X93218000Y-74990000D01*
X93218000Y-74990000D02*
X88078000Y-74990000D01*
X93218000Y-72330000D02*
X88078000Y-72330000D01*
X88078000Y-72330000D02*
X88078000Y-74990000D01*
G04 #@! TO.C,C1*
D11*
X103373333Y-110997142D02*
X103325714Y-111044761D01*
X103182857Y-111092380D01*
X103087619Y-111092380D01*
X102944761Y-111044761D01*
X102849523Y-110949523D01*
X102801904Y-110854285D01*
X102754285Y-110663809D01*
X102754285Y-110520952D01*
X102801904Y-110330476D01*
X102849523Y-110235238D01*
X102944761Y-110140000D01*
X103087619Y-110092380D01*
X103182857Y-110092380D01*
X103325714Y-110140000D01*
X103373333Y-110187619D01*
X104325714Y-111092380D02*
X103754285Y-111092380D01*
X104040000Y-111092380D02*
X104040000Y-110092380D01*
X103944761Y-110235238D01*
X103849523Y-110330476D01*
X103754285Y-110378095D01*
G04 #@! TO.C,C2*
X108246333Y-110890142D02*
X108198714Y-110937761D01*
X108055857Y-110985380D01*
X107960619Y-110985380D01*
X107817761Y-110937761D01*
X107722523Y-110842523D01*
X107674904Y-110747285D01*
X107627285Y-110556809D01*
X107627285Y-110413952D01*
X107674904Y-110223476D01*
X107722523Y-110128238D01*
X107817761Y-110033000D01*
X107960619Y-109985380D01*
X108055857Y-109985380D01*
X108198714Y-110033000D01*
X108246333Y-110080619D01*
X108627285Y-110080619D02*
X108674904Y-110033000D01*
X108770142Y-109985380D01*
X109008238Y-109985380D01*
X109103476Y-110033000D01*
X109151095Y-110080619D01*
X109198714Y-110175857D01*
X109198714Y-110271095D01*
X109151095Y-110413952D01*
X108579666Y-110985380D01*
X109198714Y-110985380D01*
G04 #@! TO.C,C3*
X123613333Y-110917142D02*
X123565714Y-110964761D01*
X123422857Y-111012380D01*
X123327619Y-111012380D01*
X123184761Y-110964761D01*
X123089523Y-110869523D01*
X123041904Y-110774285D01*
X122994285Y-110583809D01*
X122994285Y-110440952D01*
X123041904Y-110250476D01*
X123089523Y-110155238D01*
X123184761Y-110060000D01*
X123327619Y-110012380D01*
X123422857Y-110012380D01*
X123565714Y-110060000D01*
X123613333Y-110107619D01*
X123946666Y-110012380D02*
X124565714Y-110012380D01*
X124232380Y-110393333D01*
X124375238Y-110393333D01*
X124470476Y-110440952D01*
X124518095Y-110488571D01*
X124565714Y-110583809D01*
X124565714Y-110821904D01*
X124518095Y-110917142D01*
X124470476Y-110964761D01*
X124375238Y-111012380D01*
X124089523Y-111012380D01*
X123994285Y-110964761D01*
X123946666Y-110917142D01*
G04 #@! TO.C,C4*
X93265333Y-104224142D02*
X93217714Y-104271761D01*
X93074857Y-104319380D01*
X92979619Y-104319380D01*
X92836761Y-104271761D01*
X92741523Y-104176523D01*
X92693904Y-104081285D01*
X92646285Y-103890809D01*
X92646285Y-103747952D01*
X92693904Y-103557476D01*
X92741523Y-103462238D01*
X92836761Y-103367000D01*
X92979619Y-103319380D01*
X93074857Y-103319380D01*
X93217714Y-103367000D01*
X93265333Y-103414619D01*
X94122476Y-103652714D02*
X94122476Y-104319380D01*
X93884380Y-103271761D02*
X93646285Y-103986047D01*
X94265333Y-103986047D01*
G04 #@! TO.C,C5*
X161403333Y-99417142D02*
X161355714Y-99464761D01*
X161212857Y-99512380D01*
X161117619Y-99512380D01*
X160974761Y-99464761D01*
X160879523Y-99369523D01*
X160831904Y-99274285D01*
X160784285Y-99083809D01*
X160784285Y-98940952D01*
X160831904Y-98750476D01*
X160879523Y-98655238D01*
X160974761Y-98560000D01*
X161117619Y-98512380D01*
X161212857Y-98512380D01*
X161355714Y-98560000D01*
X161403333Y-98607619D01*
X162308095Y-98512380D02*
X161831904Y-98512380D01*
X161784285Y-98988571D01*
X161831904Y-98940952D01*
X161927142Y-98893333D01*
X162165238Y-98893333D01*
X162260476Y-98940952D01*
X162308095Y-98988571D01*
X162355714Y-99083809D01*
X162355714Y-99321904D01*
X162308095Y-99417142D01*
X162260476Y-99464761D01*
X162165238Y-99512380D01*
X161927142Y-99512380D01*
X161831904Y-99464761D01*
X161784285Y-99417142D01*
G04 #@! TO.C,C6*
X96115933Y-120228142D02*
X96068314Y-120275761D01*
X95925457Y-120323380D01*
X95830219Y-120323380D01*
X95687361Y-120275761D01*
X95592123Y-120180523D01*
X95544504Y-120085285D01*
X95496885Y-119894809D01*
X95496885Y-119751952D01*
X95544504Y-119561476D01*
X95592123Y-119466238D01*
X95687361Y-119371000D01*
X95830219Y-119323380D01*
X95925457Y-119323380D01*
X96068314Y-119371000D01*
X96115933Y-119418619D01*
X96973076Y-119323380D02*
X96782600Y-119323380D01*
X96687361Y-119371000D01*
X96639742Y-119418619D01*
X96544504Y-119561476D01*
X96496885Y-119751952D01*
X96496885Y-120132904D01*
X96544504Y-120228142D01*
X96592123Y-120275761D01*
X96687361Y-120323380D01*
X96877838Y-120323380D01*
X96973076Y-120275761D01*
X97020695Y-120228142D01*
X97068314Y-120132904D01*
X97068314Y-119894809D01*
X97020695Y-119799571D01*
X96973076Y-119751952D01*
X96877838Y-119704333D01*
X96687361Y-119704333D01*
X96592123Y-119751952D01*
X96544504Y-119799571D01*
X96496885Y-119894809D01*
G04 #@! TO.C,C7*
X139533333Y-84177142D02*
X139485714Y-84224761D01*
X139342857Y-84272380D01*
X139247619Y-84272380D01*
X139104761Y-84224761D01*
X139009523Y-84129523D01*
X138961904Y-84034285D01*
X138914285Y-83843809D01*
X138914285Y-83700952D01*
X138961904Y-83510476D01*
X139009523Y-83415238D01*
X139104761Y-83320000D01*
X139247619Y-83272380D01*
X139342857Y-83272380D01*
X139485714Y-83320000D01*
X139533333Y-83367619D01*
X139866666Y-83272380D02*
X140533333Y-83272380D01*
X140104761Y-84272380D01*
G04 #@! TO.C,C8*
X161493333Y-93147142D02*
X161445714Y-93194761D01*
X161302857Y-93242380D01*
X161207619Y-93242380D01*
X161064761Y-93194761D01*
X160969523Y-93099523D01*
X160921904Y-93004285D01*
X160874285Y-92813809D01*
X160874285Y-92670952D01*
X160921904Y-92480476D01*
X160969523Y-92385238D01*
X161064761Y-92290000D01*
X161207619Y-92242380D01*
X161302857Y-92242380D01*
X161445714Y-92290000D01*
X161493333Y-92337619D01*
X162064761Y-92670952D02*
X161969523Y-92623333D01*
X161921904Y-92575714D01*
X161874285Y-92480476D01*
X161874285Y-92432857D01*
X161921904Y-92337619D01*
X161969523Y-92290000D01*
X162064761Y-92242380D01*
X162255238Y-92242380D01*
X162350476Y-92290000D01*
X162398095Y-92337619D01*
X162445714Y-92432857D01*
X162445714Y-92480476D01*
X162398095Y-92575714D01*
X162350476Y-92623333D01*
X162255238Y-92670952D01*
X162064761Y-92670952D01*
X161969523Y-92718571D01*
X161921904Y-92766190D01*
X161874285Y-92861428D01*
X161874285Y-93051904D01*
X161921904Y-93147142D01*
X161969523Y-93194761D01*
X162064761Y-93242380D01*
X162255238Y-93242380D01*
X162350476Y-93194761D01*
X162398095Y-93147142D01*
X162445714Y-93051904D01*
X162445714Y-92861428D01*
X162398095Y-92766190D01*
X162350476Y-92718571D01*
X162255238Y-92670952D01*
G04 #@! TO.C,C9*
X139733333Y-68287142D02*
X139685714Y-68334761D01*
X139542857Y-68382380D01*
X139447619Y-68382380D01*
X139304761Y-68334761D01*
X139209523Y-68239523D01*
X139161904Y-68144285D01*
X139114285Y-67953809D01*
X139114285Y-67810952D01*
X139161904Y-67620476D01*
X139209523Y-67525238D01*
X139304761Y-67430000D01*
X139447619Y-67382380D01*
X139542857Y-67382380D01*
X139685714Y-67430000D01*
X139733333Y-67477619D01*
X140209523Y-68382380D02*
X140400000Y-68382380D01*
X140495238Y-68334761D01*
X140542857Y-68287142D01*
X140638095Y-68144285D01*
X140685714Y-67953809D01*
X140685714Y-67572857D01*
X140638095Y-67477619D01*
X140590476Y-67430000D01*
X140495238Y-67382380D01*
X140304761Y-67382380D01*
X140209523Y-67430000D01*
X140161904Y-67477619D01*
X140114285Y-67572857D01*
X140114285Y-67810952D01*
X140161904Y-67906190D01*
X140209523Y-67953809D01*
X140304761Y-68001428D01*
X140495238Y-68001428D01*
X140590476Y-67953809D01*
X140638095Y-67906190D01*
X140685714Y-67810952D01*
G04 #@! TO.C,C10*
X138847142Y-70897142D02*
X138799523Y-70944761D01*
X138656666Y-70992380D01*
X138561428Y-70992380D01*
X138418571Y-70944761D01*
X138323333Y-70849523D01*
X138275714Y-70754285D01*
X138228095Y-70563809D01*
X138228095Y-70420952D01*
X138275714Y-70230476D01*
X138323333Y-70135238D01*
X138418571Y-70040000D01*
X138561428Y-69992380D01*
X138656666Y-69992380D01*
X138799523Y-70040000D01*
X138847142Y-70087619D01*
X139799523Y-70992380D02*
X139228095Y-70992380D01*
X139513809Y-70992380D02*
X139513809Y-69992380D01*
X139418571Y-70135238D01*
X139323333Y-70230476D01*
X139228095Y-70278095D01*
X140418571Y-69992380D02*
X140513809Y-69992380D01*
X140609047Y-70040000D01*
X140656666Y-70087619D01*
X140704285Y-70182857D01*
X140751904Y-70373333D01*
X140751904Y-70611428D01*
X140704285Y-70801904D01*
X140656666Y-70897142D01*
X140609047Y-70944761D01*
X140513809Y-70992380D01*
X140418571Y-70992380D01*
X140323333Y-70944761D01*
X140275714Y-70897142D01*
X140228095Y-70801904D01*
X140180476Y-70611428D01*
X140180476Y-70373333D01*
X140228095Y-70182857D01*
X140275714Y-70087619D01*
X140323333Y-70040000D01*
X140418571Y-69992380D01*
G04 #@! TO.C,C11*
X160877142Y-95577142D02*
X160829523Y-95624761D01*
X160686666Y-95672380D01*
X160591428Y-95672380D01*
X160448571Y-95624761D01*
X160353333Y-95529523D01*
X160305714Y-95434285D01*
X160258095Y-95243809D01*
X160258095Y-95100952D01*
X160305714Y-94910476D01*
X160353333Y-94815238D01*
X160448571Y-94720000D01*
X160591428Y-94672380D01*
X160686666Y-94672380D01*
X160829523Y-94720000D01*
X160877142Y-94767619D01*
X161829523Y-95672380D02*
X161258095Y-95672380D01*
X161543809Y-95672380D02*
X161543809Y-94672380D01*
X161448571Y-94815238D01*
X161353333Y-94910476D01*
X161258095Y-94958095D01*
X162781904Y-95672380D02*
X162210476Y-95672380D01*
X162496190Y-95672380D02*
X162496190Y-94672380D01*
X162400952Y-94815238D01*
X162305714Y-94910476D01*
X162210476Y-94958095D01*
G04 #@! TO.C,D1*
X95781904Y-118347380D02*
X95781904Y-117347380D01*
X96020000Y-117347380D01*
X96162857Y-117395000D01*
X96258095Y-117490238D01*
X96305714Y-117585476D01*
X96353333Y-117775952D01*
X96353333Y-117918809D01*
X96305714Y-118109285D01*
X96258095Y-118204523D01*
X96162857Y-118299761D01*
X96020000Y-118347380D01*
X95781904Y-118347380D01*
X97305714Y-118347380D02*
X96734285Y-118347380D01*
X97020000Y-118347380D02*
X97020000Y-117347380D01*
X96924761Y-117490238D01*
X96829523Y-117585476D01*
X96734285Y-117633095D01*
G04 #@! TO.C,D2*
X84780380Y-107926095D02*
X83780380Y-107926095D01*
X83780380Y-107688000D01*
X83828000Y-107545142D01*
X83923238Y-107449904D01*
X84018476Y-107402285D01*
X84208952Y-107354666D01*
X84351809Y-107354666D01*
X84542285Y-107402285D01*
X84637523Y-107449904D01*
X84732761Y-107545142D01*
X84780380Y-107688000D01*
X84780380Y-107926095D01*
X83875619Y-106973714D02*
X83828000Y-106926095D01*
X83780380Y-106830857D01*
X83780380Y-106592761D01*
X83828000Y-106497523D01*
X83875619Y-106449904D01*
X83970857Y-106402285D01*
X84066095Y-106402285D01*
X84208952Y-106449904D01*
X84780380Y-107021333D01*
X84780380Y-106402285D01*
G04 #@! TO.C,D3*
X164388619Y-108046904D02*
X165388619Y-108046904D01*
X165388619Y-108285000D01*
X165341000Y-108427857D01*
X165245761Y-108523095D01*
X165150523Y-108570714D01*
X164960047Y-108618333D01*
X164817190Y-108618333D01*
X164626714Y-108570714D01*
X164531476Y-108523095D01*
X164436238Y-108427857D01*
X164388619Y-108285000D01*
X164388619Y-108046904D01*
X165388619Y-108951666D02*
X165388619Y-109570714D01*
X165007666Y-109237380D01*
X165007666Y-109380238D01*
X164960047Y-109475476D01*
X164912428Y-109523095D01*
X164817190Y-109570714D01*
X164579095Y-109570714D01*
X164483857Y-109523095D01*
X164436238Y-109475476D01*
X164388619Y-109380238D01*
X164388619Y-109094523D01*
X164436238Y-108999285D01*
X164483857Y-108951666D01*
G04 #@! TO.C,D4*
X148151904Y-68382380D02*
X148151904Y-67382380D01*
X148390000Y-67382380D01*
X148532857Y-67430000D01*
X148628095Y-67525238D01*
X148675714Y-67620476D01*
X148723333Y-67810952D01*
X148723333Y-67953809D01*
X148675714Y-68144285D01*
X148628095Y-68239523D01*
X148532857Y-68334761D01*
X148390000Y-68382380D01*
X148151904Y-68382380D01*
X149580476Y-67715714D02*
X149580476Y-68382380D01*
X149342380Y-67334761D02*
X149104285Y-68049047D01*
X149723333Y-68049047D01*
G04 #@! TO.C,J1*
X82656666Y-121407380D02*
X82656666Y-122121666D01*
X82609047Y-122264523D01*
X82513809Y-122359761D01*
X82370952Y-122407380D01*
X82275714Y-122407380D01*
X83656666Y-122407380D02*
X83085238Y-122407380D01*
X83370952Y-122407380D02*
X83370952Y-121407380D01*
X83275714Y-121550238D01*
X83180476Y-121645476D01*
X83085238Y-121693095D01*
G04 #@! TO.C,J2*
X84036666Y-79242380D02*
X84036666Y-79956666D01*
X83989047Y-80099523D01*
X83893809Y-80194761D01*
X83750952Y-80242380D01*
X83655714Y-80242380D01*
X84465238Y-79337619D02*
X84512857Y-79290000D01*
X84608095Y-79242380D01*
X84846190Y-79242380D01*
X84941428Y-79290000D01*
X84989047Y-79337619D01*
X85036666Y-79432857D01*
X85036666Y-79528095D01*
X84989047Y-79670952D01*
X84417619Y-80242380D01*
X85036666Y-80242380D01*
G04 #@! TO.C,J7*
X96904666Y-106894380D02*
X96904666Y-107608666D01*
X96857047Y-107751523D01*
X96761809Y-107846761D01*
X96618952Y-107894380D01*
X96523714Y-107894380D01*
X97285619Y-106894380D02*
X97952285Y-106894380D01*
X97523714Y-107894380D01*
G04 #@! TO.C,J8*
X131830380Y-82375333D02*
X132544666Y-82375333D01*
X132687523Y-82422952D01*
X132782761Y-82518190D01*
X132830380Y-82661047D01*
X132830380Y-82756285D01*
X132258952Y-81756285D02*
X132211333Y-81851523D01*
X132163714Y-81899142D01*
X132068476Y-81946761D01*
X132020857Y-81946761D01*
X131925619Y-81899142D01*
X131878000Y-81851523D01*
X131830380Y-81756285D01*
X131830380Y-81565809D01*
X131878000Y-81470571D01*
X131925619Y-81422952D01*
X132020857Y-81375333D01*
X132068476Y-81375333D01*
X132163714Y-81422952D01*
X132211333Y-81470571D01*
X132258952Y-81565809D01*
X132258952Y-81756285D01*
X132306571Y-81851523D01*
X132354190Y-81899142D01*
X132449428Y-81946761D01*
X132639904Y-81946761D01*
X132735142Y-81899142D01*
X132782761Y-81851523D01*
X132830380Y-81756285D01*
X132830380Y-81565809D01*
X132782761Y-81470571D01*
X132735142Y-81422952D01*
X132639904Y-81375333D01*
X132449428Y-81375333D01*
X132354190Y-81422952D01*
X132306571Y-81470571D01*
X132258952Y-81565809D01*
G04 #@! TO.C,L1*
X91453333Y-84463780D02*
X90977142Y-84463780D01*
X90977142Y-83463780D01*
X92310476Y-84463780D02*
X91739047Y-84463780D01*
X92024761Y-84463780D02*
X92024761Y-83463780D01*
X91929523Y-83606638D01*
X91834285Y-83701876D01*
X91739047Y-83749495D01*
G04 #@! TO.C,LS1*
X148226142Y-94203780D02*
X147749952Y-94203780D01*
X147749952Y-93203780D01*
X148511857Y-94156161D02*
X148654714Y-94203780D01*
X148892809Y-94203780D01*
X148988047Y-94156161D01*
X149035666Y-94108542D01*
X149083285Y-94013304D01*
X149083285Y-93918066D01*
X149035666Y-93822828D01*
X148988047Y-93775209D01*
X148892809Y-93727590D01*
X148702333Y-93679971D01*
X148607095Y-93632352D01*
X148559476Y-93584733D01*
X148511857Y-93489495D01*
X148511857Y-93394257D01*
X148559476Y-93299019D01*
X148607095Y-93251400D01*
X148702333Y-93203780D01*
X148940428Y-93203780D01*
X149083285Y-93251400D01*
X150035666Y-94203780D02*
X149464238Y-94203780D01*
X149749952Y-94203780D02*
X149749952Y-93203780D01*
X149654714Y-93346638D01*
X149559476Y-93441876D01*
X149464238Y-93489495D01*
G04 #@! TO.C,Q1*
X99134761Y-67607619D02*
X99039523Y-67560000D01*
X98944285Y-67464761D01*
X98801428Y-67321904D01*
X98706190Y-67274285D01*
X98610952Y-67274285D01*
X98658571Y-67512380D02*
X98563333Y-67464761D01*
X98468095Y-67369523D01*
X98420476Y-67179047D01*
X98420476Y-66845714D01*
X98468095Y-66655238D01*
X98563333Y-66560000D01*
X98658571Y-66512380D01*
X98849047Y-66512380D01*
X98944285Y-66560000D01*
X99039523Y-66655238D01*
X99087142Y-66845714D01*
X99087142Y-67179047D01*
X99039523Y-67369523D01*
X98944285Y-67464761D01*
X98849047Y-67512380D01*
X98658571Y-67512380D01*
X100039523Y-67512380D02*
X99468095Y-67512380D01*
X99753809Y-67512380D02*
X99753809Y-66512380D01*
X99658571Y-66655238D01*
X99563333Y-66750476D01*
X99468095Y-66798095D01*
G04 #@! TO.C,Q2*
X89629761Y-96432619D02*
X89534523Y-96385000D01*
X89439285Y-96289761D01*
X89296428Y-96146904D01*
X89201190Y-96099285D01*
X89105952Y-96099285D01*
X89153571Y-96337380D02*
X89058333Y-96289761D01*
X88963095Y-96194523D01*
X88915476Y-96004047D01*
X88915476Y-95670714D01*
X88963095Y-95480238D01*
X89058333Y-95385000D01*
X89153571Y-95337380D01*
X89344047Y-95337380D01*
X89439285Y-95385000D01*
X89534523Y-95480238D01*
X89582142Y-95670714D01*
X89582142Y-96004047D01*
X89534523Y-96194523D01*
X89439285Y-96289761D01*
X89344047Y-96337380D01*
X89153571Y-96337380D01*
X89963095Y-95432619D02*
X90010714Y-95385000D01*
X90105952Y-95337380D01*
X90344047Y-95337380D01*
X90439285Y-95385000D01*
X90486904Y-95432619D01*
X90534523Y-95527857D01*
X90534523Y-95623095D01*
X90486904Y-95765952D01*
X89915476Y-96337380D01*
X90534523Y-96337380D01*
G04 #@! TO.C,SW2*
X103441666Y-68559761D02*
X103584523Y-68607380D01*
X103822619Y-68607380D01*
X103917857Y-68559761D01*
X103965476Y-68512142D01*
X104013095Y-68416904D01*
X104013095Y-68321666D01*
X103965476Y-68226428D01*
X103917857Y-68178809D01*
X103822619Y-68131190D01*
X103632142Y-68083571D01*
X103536904Y-68035952D01*
X103489285Y-67988333D01*
X103441666Y-67893095D01*
X103441666Y-67797857D01*
X103489285Y-67702619D01*
X103536904Y-67655000D01*
X103632142Y-67607380D01*
X103870238Y-67607380D01*
X104013095Y-67655000D01*
X104346428Y-67607380D02*
X104584523Y-68607380D01*
X104775000Y-67893095D01*
X104965476Y-68607380D01*
X105203571Y-67607380D01*
X105536904Y-67702619D02*
X105584523Y-67655000D01*
X105679761Y-67607380D01*
X105917857Y-67607380D01*
X106013095Y-67655000D01*
X106060714Y-67702619D01*
X106108333Y-67797857D01*
X106108333Y-67893095D01*
X106060714Y-68035952D01*
X105489285Y-68607380D01*
X106108333Y-68607380D01*
G04 #@! TO.C,U2*
X129127380Y-116331904D02*
X129936904Y-116331904D01*
X130032142Y-116284285D01*
X130079761Y-116236666D01*
X130127380Y-116141428D01*
X130127380Y-115950952D01*
X130079761Y-115855714D01*
X130032142Y-115808095D01*
X129936904Y-115760476D01*
X129127380Y-115760476D01*
X129222619Y-115331904D02*
X129175000Y-115284285D01*
X129127380Y-115189047D01*
X129127380Y-114950952D01*
X129175000Y-114855714D01*
X129222619Y-114808095D01*
X129317857Y-114760476D01*
X129413095Y-114760476D01*
X129555952Y-114808095D01*
X130127380Y-115379523D01*
X130127380Y-114760476D01*
G04 #@! TO.C,U3*
X144678095Y-110746380D02*
X144678095Y-111555904D01*
X144725714Y-111651142D01*
X144773333Y-111698761D01*
X144868571Y-111746380D01*
X145059047Y-111746380D01*
X145154285Y-111698761D01*
X145201904Y-111651142D01*
X145249523Y-111555904D01*
X145249523Y-110746380D01*
X145630476Y-110746380D02*
X146249523Y-110746380D01*
X145916190Y-111127333D01*
X146059047Y-111127333D01*
X146154285Y-111174952D01*
X146201904Y-111222571D01*
X146249523Y-111317809D01*
X146249523Y-111555904D01*
X146201904Y-111651142D01*
X146154285Y-111698761D01*
X146059047Y-111746380D01*
X145773333Y-111746380D01*
X145678095Y-111698761D01*
X145630476Y-111651142D01*
G04 #@! TO.C,U4*
X163688095Y-78862380D02*
X163688095Y-79671904D01*
X163735714Y-79767142D01*
X163783333Y-79814761D01*
X163878571Y-79862380D01*
X164069047Y-79862380D01*
X164164285Y-79814761D01*
X164211904Y-79767142D01*
X164259523Y-79671904D01*
X164259523Y-78862380D01*
X165164285Y-79195714D02*
X165164285Y-79862380D01*
X164926190Y-78814761D02*
X164688095Y-79529047D01*
X165307142Y-79529047D01*
G04 #@! TO.C,U5*
X151618095Y-78832380D02*
X151618095Y-79641904D01*
X151665714Y-79737142D01*
X151713333Y-79784761D01*
X151808571Y-79832380D01*
X151999047Y-79832380D01*
X152094285Y-79784761D01*
X152141904Y-79737142D01*
X152189523Y-79641904D01*
X152189523Y-78832380D01*
X153141904Y-78832380D02*
X152665714Y-78832380D01*
X152618095Y-79308571D01*
X152665714Y-79260952D01*
X152760952Y-79213333D01*
X152999047Y-79213333D01*
X153094285Y-79260952D01*
X153141904Y-79308571D01*
X153189523Y-79403809D01*
X153189523Y-79641904D01*
X153141904Y-79737142D01*
X153094285Y-79784761D01*
X152999047Y-79832380D01*
X152760952Y-79832380D01*
X152665714Y-79784761D01*
X152618095Y-79737142D01*
G04 #@! TO.C,U1*
X80578095Y-100147380D02*
X80578095Y-100956904D01*
X80625714Y-101052142D01*
X80673333Y-101099761D01*
X80768571Y-101147380D01*
X80959047Y-101147380D01*
X81054285Y-101099761D01*
X81101904Y-101052142D01*
X81149523Y-100956904D01*
X81149523Y-100147380D01*
X82149523Y-101147380D02*
X81578095Y-101147380D01*
X81863809Y-101147380D02*
X81863809Y-100147380D01*
X81768571Y-100290238D01*
X81673333Y-100385476D01*
X81578095Y-100433095D01*
G04 #@! TO.C,F1*
X90996666Y-70823571D02*
X90663333Y-70823571D01*
X90663333Y-71347380D02*
X90663333Y-70347380D01*
X91139523Y-70347380D01*
X92044285Y-71347380D02*
X91472857Y-71347380D01*
X91758571Y-71347380D02*
X91758571Y-70347380D01*
X91663333Y-70490238D01*
X91568095Y-70585476D01*
X91472857Y-70633095D01*
G04 #@! TO.C,J3*
X164766666Y-108526380D02*
X164766666Y-109240666D01*
X164719047Y-109383523D01*
X164623809Y-109478761D01*
X164480952Y-109526380D01*
X164385714Y-109526380D01*
X165147619Y-108526380D02*
X165766666Y-108526380D01*
X165433333Y-108907333D01*
X165576190Y-108907333D01*
X165671428Y-108954952D01*
X165719047Y-109002571D01*
X165766666Y-109097809D01*
X165766666Y-109335904D01*
X165719047Y-109431142D01*
X165671428Y-109478761D01*
X165576190Y-109526380D01*
X165290476Y-109526380D01*
X165195238Y-109478761D01*
X165147619Y-109431142D01*
G04 #@! TO.C,J4*
X133441666Y-75017380D02*
X133441666Y-75731666D01*
X133394047Y-75874523D01*
X133298809Y-75969761D01*
X133155952Y-76017380D01*
X133060714Y-76017380D01*
X134346428Y-75350714D02*
X134346428Y-76017380D01*
X134108333Y-74969761D02*
X133870238Y-75684047D01*
X134489285Y-75684047D01*
G04 #@! TO.C,J6*
X107826666Y-75017380D02*
X107826666Y-75731666D01*
X107779047Y-75874523D01*
X107683809Y-75969761D01*
X107540952Y-76017380D01*
X107445714Y-76017380D01*
X108731428Y-75017380D02*
X108540952Y-75017380D01*
X108445714Y-75065000D01*
X108398095Y-75112619D01*
X108302857Y-75255476D01*
X108255238Y-75445952D01*
X108255238Y-75826904D01*
X108302857Y-75922142D01*
X108350476Y-75969761D01*
X108445714Y-76017380D01*
X108636190Y-76017380D01*
X108731428Y-75969761D01*
X108779047Y-75922142D01*
X108826666Y-75826904D01*
X108826666Y-75588809D01*
X108779047Y-75493571D01*
X108731428Y-75445952D01*
X108636190Y-75398333D01*
X108445714Y-75398333D01*
X108350476Y-75445952D01*
X108302857Y-75493571D01*
X108255238Y-75588809D01*
G04 #@! TO.C,D6*
X161313904Y-66492380D02*
X161313904Y-65492380D01*
X161552000Y-65492380D01*
X161694857Y-65540000D01*
X161790095Y-65635238D01*
X161837714Y-65730476D01*
X161885333Y-65920952D01*
X161885333Y-66063809D01*
X161837714Y-66254285D01*
X161790095Y-66349523D01*
X161694857Y-66444761D01*
X161552000Y-66492380D01*
X161313904Y-66492380D01*
X162742476Y-65492380D02*
X162552000Y-65492380D01*
X162456761Y-65540000D01*
X162409142Y-65587619D01*
X162313904Y-65730476D01*
X162266285Y-65920952D01*
X162266285Y-66301904D01*
X162313904Y-66397142D01*
X162361523Y-66444761D01*
X162456761Y-66492380D01*
X162647238Y-66492380D01*
X162742476Y-66444761D01*
X162790095Y-66397142D01*
X162837714Y-66301904D01*
X162837714Y-66063809D01*
X162790095Y-65968571D01*
X162742476Y-65920952D01*
X162647238Y-65873333D01*
X162456761Y-65873333D01*
X162361523Y-65920952D01*
X162313904Y-65968571D01*
X162266285Y-66063809D01*
G04 #@! TO.C,SW3*
X137096666Y-116584361D02*
X137239523Y-116631980D01*
X137477619Y-116631980D01*
X137572857Y-116584361D01*
X137620476Y-116536742D01*
X137668095Y-116441504D01*
X137668095Y-116346266D01*
X137620476Y-116251028D01*
X137572857Y-116203409D01*
X137477619Y-116155790D01*
X137287142Y-116108171D01*
X137191904Y-116060552D01*
X137144285Y-116012933D01*
X137096666Y-115917695D01*
X137096666Y-115822457D01*
X137144285Y-115727219D01*
X137191904Y-115679600D01*
X137287142Y-115631980D01*
X137525238Y-115631980D01*
X137668095Y-115679600D01*
X138001428Y-115631980D02*
X138239523Y-116631980D01*
X138430000Y-115917695D01*
X138620476Y-116631980D01*
X138858571Y-115631980D01*
X139144285Y-115631980D02*
X139763333Y-115631980D01*
X139430000Y-116012933D01*
X139572857Y-116012933D01*
X139668095Y-116060552D01*
X139715714Y-116108171D01*
X139763333Y-116203409D01*
X139763333Y-116441504D01*
X139715714Y-116536742D01*
X139668095Y-116584361D01*
X139572857Y-116631980D01*
X139287142Y-116631980D01*
X139191904Y-116584361D01*
X139144285Y-116536742D01*
G04 #@! TO.C,J5*
X118311666Y-119777380D02*
X118311666Y-120491666D01*
X118264047Y-120634523D01*
X118168809Y-120729761D01*
X118025952Y-120777380D01*
X117930714Y-120777380D01*
X119264047Y-119777380D02*
X118787857Y-119777380D01*
X118740238Y-120253571D01*
X118787857Y-120205952D01*
X118883095Y-120158333D01*
X119121190Y-120158333D01*
X119216428Y-120205952D01*
X119264047Y-120253571D01*
X119311666Y-120348809D01*
X119311666Y-120586904D01*
X119264047Y-120682142D01*
X119216428Y-120729761D01*
X119121190Y-120777380D01*
X118883095Y-120777380D01*
X118787857Y-120729761D01*
X118740238Y-120682142D01*
G04 #@! TO.C,R1*
X107529333Y-87320380D02*
X107196000Y-86844190D01*
X106957904Y-87320380D02*
X106957904Y-86320380D01*
X107338857Y-86320380D01*
X107434095Y-86368000D01*
X107481714Y-86415619D01*
X107529333Y-86510857D01*
X107529333Y-86653714D01*
X107481714Y-86748952D01*
X107434095Y-86796571D01*
X107338857Y-86844190D01*
X106957904Y-86844190D01*
X108481714Y-87320380D02*
X107910285Y-87320380D01*
X108196000Y-87320380D02*
X108196000Y-86320380D01*
X108100761Y-86463238D01*
X108005523Y-86558476D01*
X107910285Y-86606095D01*
G04 #@! TO.C,R2*
X107529333Y-90368380D02*
X107196000Y-89892190D01*
X106957904Y-90368380D02*
X106957904Y-89368380D01*
X107338857Y-89368380D01*
X107434095Y-89416000D01*
X107481714Y-89463619D01*
X107529333Y-89558857D01*
X107529333Y-89701714D01*
X107481714Y-89796952D01*
X107434095Y-89844571D01*
X107338857Y-89892190D01*
X106957904Y-89892190D01*
X107910285Y-89463619D02*
X107957904Y-89416000D01*
X108053142Y-89368380D01*
X108291238Y-89368380D01*
X108386476Y-89416000D01*
X108434095Y-89463619D01*
X108481714Y-89558857D01*
X108481714Y-89654095D01*
X108434095Y-89796952D01*
X107862666Y-90368380D01*
X108481714Y-90368380D01*
G04 #@! TO.C,R3*
X104227333Y-121528380D02*
X103894000Y-121052190D01*
X103655904Y-121528380D02*
X103655904Y-120528380D01*
X104036857Y-120528380D01*
X104132095Y-120576000D01*
X104179714Y-120623619D01*
X104227333Y-120718857D01*
X104227333Y-120861714D01*
X104179714Y-120956952D01*
X104132095Y-121004571D01*
X104036857Y-121052190D01*
X103655904Y-121052190D01*
X104560666Y-120528380D02*
X105179714Y-120528380D01*
X104846380Y-120909333D01*
X104989238Y-120909333D01*
X105084476Y-120956952D01*
X105132095Y-121004571D01*
X105179714Y-121099809D01*
X105179714Y-121337904D01*
X105132095Y-121433142D01*
X105084476Y-121480761D01*
X104989238Y-121528380D01*
X104703523Y-121528380D01*
X104608285Y-121480761D01*
X104560666Y-121433142D01*
G04 #@! TO.C,R4*
X100417333Y-124404380D02*
X100084000Y-123928190D01*
X99845904Y-124404380D02*
X99845904Y-123404380D01*
X100226857Y-123404380D01*
X100322095Y-123452000D01*
X100369714Y-123499619D01*
X100417333Y-123594857D01*
X100417333Y-123737714D01*
X100369714Y-123832952D01*
X100322095Y-123880571D01*
X100226857Y-123928190D01*
X99845904Y-123928190D01*
X101274476Y-123737714D02*
X101274476Y-124404380D01*
X101036380Y-123356761D02*
X100798285Y-124071047D01*
X101417333Y-124071047D01*
G04 #@! TO.C,R5*
X119721333Y-69032380D02*
X119388000Y-68556190D01*
X119149904Y-69032380D02*
X119149904Y-68032380D01*
X119530857Y-68032380D01*
X119626095Y-68080000D01*
X119673714Y-68127619D01*
X119721333Y-68222857D01*
X119721333Y-68365714D01*
X119673714Y-68460952D01*
X119626095Y-68508571D01*
X119530857Y-68556190D01*
X119149904Y-68556190D01*
X120626095Y-68032380D02*
X120149904Y-68032380D01*
X120102285Y-68508571D01*
X120149904Y-68460952D01*
X120245142Y-68413333D01*
X120483238Y-68413333D01*
X120578476Y-68460952D01*
X120626095Y-68508571D01*
X120673714Y-68603809D01*
X120673714Y-68841904D01*
X120626095Y-68937142D01*
X120578476Y-68984761D01*
X120483238Y-69032380D01*
X120245142Y-69032380D01*
X120149904Y-68984761D01*
X120102285Y-68937142D01*
G04 #@! TO.C,R6*
X116038333Y-114707380D02*
X115705000Y-114231190D01*
X115466904Y-114707380D02*
X115466904Y-113707380D01*
X115847857Y-113707380D01*
X115943095Y-113755000D01*
X115990714Y-113802619D01*
X116038333Y-113897857D01*
X116038333Y-114040714D01*
X115990714Y-114135952D01*
X115943095Y-114183571D01*
X115847857Y-114231190D01*
X115466904Y-114231190D01*
X116895476Y-113707380D02*
X116705000Y-113707380D01*
X116609761Y-113755000D01*
X116562142Y-113802619D01*
X116466904Y-113945476D01*
X116419285Y-114135952D01*
X116419285Y-114516904D01*
X116466904Y-114612142D01*
X116514523Y-114659761D01*
X116609761Y-114707380D01*
X116800238Y-114707380D01*
X116895476Y-114659761D01*
X116943095Y-114612142D01*
X116990714Y-114516904D01*
X116990714Y-114278809D01*
X116943095Y-114183571D01*
X116895476Y-114135952D01*
X116800238Y-114088333D01*
X116609761Y-114088333D01*
X116514523Y-114135952D01*
X116466904Y-114183571D01*
X116419285Y-114278809D01*
G04 #@! TO.C,R7*
X107529333Y-96972380D02*
X107196000Y-96496190D01*
X106957904Y-96972380D02*
X106957904Y-95972380D01*
X107338857Y-95972380D01*
X107434095Y-96020000D01*
X107481714Y-96067619D01*
X107529333Y-96162857D01*
X107529333Y-96305714D01*
X107481714Y-96400952D01*
X107434095Y-96448571D01*
X107338857Y-96496190D01*
X106957904Y-96496190D01*
X107862666Y-95972380D02*
X108529333Y-95972380D01*
X108100761Y-96972380D01*
G04 #@! TO.C,R8*
X107529333Y-99512380D02*
X107196000Y-99036190D01*
X106957904Y-99512380D02*
X106957904Y-98512380D01*
X107338857Y-98512380D01*
X107434095Y-98560000D01*
X107481714Y-98607619D01*
X107529333Y-98702857D01*
X107529333Y-98845714D01*
X107481714Y-98940952D01*
X107434095Y-98988571D01*
X107338857Y-99036190D01*
X106957904Y-99036190D01*
X108100761Y-98940952D02*
X108005523Y-98893333D01*
X107957904Y-98845714D01*
X107910285Y-98750476D01*
X107910285Y-98702857D01*
X107957904Y-98607619D01*
X108005523Y-98560000D01*
X108100761Y-98512380D01*
X108291238Y-98512380D01*
X108386476Y-98560000D01*
X108434095Y-98607619D01*
X108481714Y-98702857D01*
X108481714Y-98750476D01*
X108434095Y-98845714D01*
X108386476Y-98893333D01*
X108291238Y-98940952D01*
X108100761Y-98940952D01*
X108005523Y-98988571D01*
X107957904Y-99036190D01*
X107910285Y-99131428D01*
X107910285Y-99321904D01*
X107957904Y-99417142D01*
X108005523Y-99464761D01*
X108100761Y-99512380D01*
X108291238Y-99512380D01*
X108386476Y-99464761D01*
X108434095Y-99417142D01*
X108481714Y-99321904D01*
X108481714Y-99131428D01*
X108434095Y-99036190D01*
X108386476Y-98988571D01*
X108291238Y-98940952D01*
G04 #@! TO.C,R9*
X119721333Y-72080380D02*
X119388000Y-71604190D01*
X119149904Y-72080380D02*
X119149904Y-71080380D01*
X119530857Y-71080380D01*
X119626095Y-71128000D01*
X119673714Y-71175619D01*
X119721333Y-71270857D01*
X119721333Y-71413714D01*
X119673714Y-71508952D01*
X119626095Y-71556571D01*
X119530857Y-71604190D01*
X119149904Y-71604190D01*
X120197523Y-72080380D02*
X120388000Y-72080380D01*
X120483238Y-72032761D01*
X120530857Y-71985142D01*
X120626095Y-71842285D01*
X120673714Y-71651809D01*
X120673714Y-71270857D01*
X120626095Y-71175619D01*
X120578476Y-71128000D01*
X120483238Y-71080380D01*
X120292761Y-71080380D01*
X120197523Y-71128000D01*
X120149904Y-71175619D01*
X120102285Y-71270857D01*
X120102285Y-71508952D01*
X120149904Y-71604190D01*
X120197523Y-71651809D01*
X120292761Y-71699428D01*
X120483238Y-71699428D01*
X120578476Y-71651809D01*
X120626095Y-71604190D01*
X120673714Y-71508952D01*
G04 #@! TO.C,R10*
X142867142Y-109672380D02*
X142533809Y-109196190D01*
X142295714Y-109672380D02*
X142295714Y-108672380D01*
X142676666Y-108672380D01*
X142771904Y-108720000D01*
X142819523Y-108767619D01*
X142867142Y-108862857D01*
X142867142Y-109005714D01*
X142819523Y-109100952D01*
X142771904Y-109148571D01*
X142676666Y-109196190D01*
X142295714Y-109196190D01*
X143819523Y-109672380D02*
X143248095Y-109672380D01*
X143533809Y-109672380D02*
X143533809Y-108672380D01*
X143438571Y-108815238D01*
X143343333Y-108910476D01*
X143248095Y-108958095D01*
X144438571Y-108672380D02*
X144533809Y-108672380D01*
X144629047Y-108720000D01*
X144676666Y-108767619D01*
X144724285Y-108862857D01*
X144771904Y-109053333D01*
X144771904Y-109291428D01*
X144724285Y-109481904D01*
X144676666Y-109577142D01*
X144629047Y-109624761D01*
X144533809Y-109672380D01*
X144438571Y-109672380D01*
X144343333Y-109624761D01*
X144295714Y-109577142D01*
X144248095Y-109481904D01*
X144200476Y-109291428D01*
X144200476Y-109053333D01*
X144248095Y-108862857D01*
X144295714Y-108767619D01*
X144343333Y-108720000D01*
X144438571Y-108672380D01*
G04 #@! TO.C,R11*
X142867142Y-107132380D02*
X142533809Y-106656190D01*
X142295714Y-107132380D02*
X142295714Y-106132380D01*
X142676666Y-106132380D01*
X142771904Y-106180000D01*
X142819523Y-106227619D01*
X142867142Y-106322857D01*
X142867142Y-106465714D01*
X142819523Y-106560952D01*
X142771904Y-106608571D01*
X142676666Y-106656190D01*
X142295714Y-106656190D01*
X143819523Y-107132380D02*
X143248095Y-107132380D01*
X143533809Y-107132380D02*
X143533809Y-106132380D01*
X143438571Y-106275238D01*
X143343333Y-106370476D01*
X143248095Y-106418095D01*
X144771904Y-107132380D02*
X144200476Y-107132380D01*
X144486190Y-107132380D02*
X144486190Y-106132380D01*
X144390952Y-106275238D01*
X144295714Y-106370476D01*
X144200476Y-106418095D01*
G04 #@! TO.C,R12*
X135247142Y-81732380D02*
X134913809Y-81256190D01*
X134675714Y-81732380D02*
X134675714Y-80732380D01*
X135056666Y-80732380D01*
X135151904Y-80780000D01*
X135199523Y-80827619D01*
X135247142Y-80922857D01*
X135247142Y-81065714D01*
X135199523Y-81160952D01*
X135151904Y-81208571D01*
X135056666Y-81256190D01*
X134675714Y-81256190D01*
X136199523Y-81732380D02*
X135628095Y-81732380D01*
X135913809Y-81732380D02*
X135913809Y-80732380D01*
X135818571Y-80875238D01*
X135723333Y-80970476D01*
X135628095Y-81018095D01*
X136580476Y-80827619D02*
X136628095Y-80780000D01*
X136723333Y-80732380D01*
X136961428Y-80732380D01*
X137056666Y-80780000D01*
X137104285Y-80827619D01*
X137151904Y-80922857D01*
X137151904Y-81018095D01*
X137104285Y-81160952D01*
X136532857Y-81732380D01*
X137151904Y-81732380D01*
G04 #@! TO.C,R13*
X135247142Y-79192380D02*
X134913809Y-78716190D01*
X134675714Y-79192380D02*
X134675714Y-78192380D01*
X135056666Y-78192380D01*
X135151904Y-78240000D01*
X135199523Y-78287619D01*
X135247142Y-78382857D01*
X135247142Y-78525714D01*
X135199523Y-78620952D01*
X135151904Y-78668571D01*
X135056666Y-78716190D01*
X134675714Y-78716190D01*
X136199523Y-79192380D02*
X135628095Y-79192380D01*
X135913809Y-79192380D02*
X135913809Y-78192380D01*
X135818571Y-78335238D01*
X135723333Y-78430476D01*
X135628095Y-78478095D01*
X136532857Y-78192380D02*
X137151904Y-78192380D01*
X136818571Y-78573333D01*
X136961428Y-78573333D01*
X137056666Y-78620952D01*
X137104285Y-78668571D01*
X137151904Y-78763809D01*
X137151904Y-79001904D01*
X137104285Y-79097142D01*
X137056666Y-79144761D01*
X136961428Y-79192380D01*
X136675714Y-79192380D01*
X136580476Y-79144761D01*
X136532857Y-79097142D01*
G04 #@! TO.C,R14*
X165727142Y-87492380D02*
X165393809Y-87016190D01*
X165155714Y-87492380D02*
X165155714Y-86492380D01*
X165536666Y-86492380D01*
X165631904Y-86540000D01*
X165679523Y-86587619D01*
X165727142Y-86682857D01*
X165727142Y-86825714D01*
X165679523Y-86920952D01*
X165631904Y-86968571D01*
X165536666Y-87016190D01*
X165155714Y-87016190D01*
X166679523Y-87492380D02*
X166108095Y-87492380D01*
X166393809Y-87492380D02*
X166393809Y-86492380D01*
X166298571Y-86635238D01*
X166203333Y-86730476D01*
X166108095Y-86778095D01*
X167536666Y-86825714D02*
X167536666Y-87492380D01*
X167298571Y-86444761D02*
X167060476Y-87159047D01*
X167679523Y-87159047D01*
G04 #@! TO.C,R15*
X142867142Y-104592380D02*
X142533809Y-104116190D01*
X142295714Y-104592380D02*
X142295714Y-103592380D01*
X142676666Y-103592380D01*
X142771904Y-103640000D01*
X142819523Y-103687619D01*
X142867142Y-103782857D01*
X142867142Y-103925714D01*
X142819523Y-104020952D01*
X142771904Y-104068571D01*
X142676666Y-104116190D01*
X142295714Y-104116190D01*
X143819523Y-104592380D02*
X143248095Y-104592380D01*
X143533809Y-104592380D02*
X143533809Y-103592380D01*
X143438571Y-103735238D01*
X143343333Y-103830476D01*
X143248095Y-103878095D01*
X144724285Y-103592380D02*
X144248095Y-103592380D01*
X144200476Y-104068571D01*
X144248095Y-104020952D01*
X144343333Y-103973333D01*
X144581428Y-103973333D01*
X144676666Y-104020952D01*
X144724285Y-104068571D01*
X144771904Y-104163809D01*
X144771904Y-104401904D01*
X144724285Y-104497142D01*
X144676666Y-104544761D01*
X144581428Y-104592380D01*
X144343333Y-104592380D01*
X144248095Y-104544761D01*
X144200476Y-104497142D01*
G04 #@! TO.C,R16*
X142867142Y-102052380D02*
X142533809Y-101576190D01*
X142295714Y-102052380D02*
X142295714Y-101052380D01*
X142676666Y-101052380D01*
X142771904Y-101100000D01*
X142819523Y-101147619D01*
X142867142Y-101242857D01*
X142867142Y-101385714D01*
X142819523Y-101480952D01*
X142771904Y-101528571D01*
X142676666Y-101576190D01*
X142295714Y-101576190D01*
X143819523Y-102052380D02*
X143248095Y-102052380D01*
X143533809Y-102052380D02*
X143533809Y-101052380D01*
X143438571Y-101195238D01*
X143343333Y-101290476D01*
X143248095Y-101338095D01*
X144676666Y-101052380D02*
X144486190Y-101052380D01*
X144390952Y-101100000D01*
X144343333Y-101147619D01*
X144248095Y-101290476D01*
X144200476Y-101480952D01*
X144200476Y-101861904D01*
X144248095Y-101957142D01*
X144295714Y-102004761D01*
X144390952Y-102052380D01*
X144581428Y-102052380D01*
X144676666Y-102004761D01*
X144724285Y-101957142D01*
X144771904Y-101861904D01*
X144771904Y-101623809D01*
X144724285Y-101528571D01*
X144676666Y-101480952D01*
X144581428Y-101433333D01*
X144390952Y-101433333D01*
X144295714Y-101480952D01*
X144248095Y-101528571D01*
X144200476Y-101623809D01*
G04 #@! TO.C,R17*
X142867142Y-99512380D02*
X142533809Y-99036190D01*
X142295714Y-99512380D02*
X142295714Y-98512380D01*
X142676666Y-98512380D01*
X142771904Y-98560000D01*
X142819523Y-98607619D01*
X142867142Y-98702857D01*
X142867142Y-98845714D01*
X142819523Y-98940952D01*
X142771904Y-98988571D01*
X142676666Y-99036190D01*
X142295714Y-99036190D01*
X143819523Y-99512380D02*
X143248095Y-99512380D01*
X143533809Y-99512380D02*
X143533809Y-98512380D01*
X143438571Y-98655238D01*
X143343333Y-98750476D01*
X143248095Y-98798095D01*
X144152857Y-98512380D02*
X144819523Y-98512380D01*
X144390952Y-99512380D01*
G04 #@! TO.C,R18*
X142867142Y-96972380D02*
X142533809Y-96496190D01*
X142295714Y-96972380D02*
X142295714Y-95972380D01*
X142676666Y-95972380D01*
X142771904Y-96020000D01*
X142819523Y-96067619D01*
X142867142Y-96162857D01*
X142867142Y-96305714D01*
X142819523Y-96400952D01*
X142771904Y-96448571D01*
X142676666Y-96496190D01*
X142295714Y-96496190D01*
X143819523Y-96972380D02*
X143248095Y-96972380D01*
X143533809Y-96972380D02*
X143533809Y-95972380D01*
X143438571Y-96115238D01*
X143343333Y-96210476D01*
X143248095Y-96258095D01*
X144390952Y-96400952D02*
X144295714Y-96353333D01*
X144248095Y-96305714D01*
X144200476Y-96210476D01*
X144200476Y-96162857D01*
X144248095Y-96067619D01*
X144295714Y-96020000D01*
X144390952Y-95972380D01*
X144581428Y-95972380D01*
X144676666Y-96020000D01*
X144724285Y-96067619D01*
X144771904Y-96162857D01*
X144771904Y-96210476D01*
X144724285Y-96305714D01*
X144676666Y-96353333D01*
X144581428Y-96400952D01*
X144390952Y-96400952D01*
X144295714Y-96448571D01*
X144248095Y-96496190D01*
X144200476Y-96591428D01*
X144200476Y-96781904D01*
X144248095Y-96877142D01*
X144295714Y-96924761D01*
X144390952Y-96972380D01*
X144581428Y-96972380D01*
X144676666Y-96924761D01*
X144724285Y-96877142D01*
X144771904Y-96781904D01*
X144771904Y-96591428D01*
X144724285Y-96496190D01*
X144676666Y-96448571D01*
X144581428Y-96400952D01*
G04 #@! TO.C,R19*
X142867142Y-94432380D02*
X142533809Y-93956190D01*
X142295714Y-94432380D02*
X142295714Y-93432380D01*
X142676666Y-93432380D01*
X142771904Y-93480000D01*
X142819523Y-93527619D01*
X142867142Y-93622857D01*
X142867142Y-93765714D01*
X142819523Y-93860952D01*
X142771904Y-93908571D01*
X142676666Y-93956190D01*
X142295714Y-93956190D01*
X143819523Y-94432380D02*
X143248095Y-94432380D01*
X143533809Y-94432380D02*
X143533809Y-93432380D01*
X143438571Y-93575238D01*
X143343333Y-93670476D01*
X143248095Y-93718095D01*
X144295714Y-94432380D02*
X144486190Y-94432380D01*
X144581428Y-94384761D01*
X144629047Y-94337142D01*
X144724285Y-94194285D01*
X144771904Y-94003809D01*
X144771904Y-93622857D01*
X144724285Y-93527619D01*
X144676666Y-93480000D01*
X144581428Y-93432380D01*
X144390952Y-93432380D01*
X144295714Y-93480000D01*
X144248095Y-93527619D01*
X144200476Y-93622857D01*
X144200476Y-93860952D01*
X144248095Y-93956190D01*
X144295714Y-94003809D01*
X144390952Y-94051428D01*
X144581428Y-94051428D01*
X144676666Y-94003809D01*
X144724285Y-93956190D01*
X144771904Y-93860952D01*
G04 #@! TO.C,R20*
X142867142Y-91892380D02*
X142533809Y-91416190D01*
X142295714Y-91892380D02*
X142295714Y-90892380D01*
X142676666Y-90892380D01*
X142771904Y-90940000D01*
X142819523Y-90987619D01*
X142867142Y-91082857D01*
X142867142Y-91225714D01*
X142819523Y-91320952D01*
X142771904Y-91368571D01*
X142676666Y-91416190D01*
X142295714Y-91416190D01*
X143248095Y-90987619D02*
X143295714Y-90940000D01*
X143390952Y-90892380D01*
X143629047Y-90892380D01*
X143724285Y-90940000D01*
X143771904Y-90987619D01*
X143819523Y-91082857D01*
X143819523Y-91178095D01*
X143771904Y-91320952D01*
X143200476Y-91892380D01*
X143819523Y-91892380D01*
X144438571Y-90892380D02*
X144533809Y-90892380D01*
X144629047Y-90940000D01*
X144676666Y-90987619D01*
X144724285Y-91082857D01*
X144771904Y-91273333D01*
X144771904Y-91511428D01*
X144724285Y-91701904D01*
X144676666Y-91797142D01*
X144629047Y-91844761D01*
X144533809Y-91892380D01*
X144438571Y-91892380D01*
X144343333Y-91844761D01*
X144295714Y-91797142D01*
X144248095Y-91701904D01*
X144200476Y-91511428D01*
X144200476Y-91273333D01*
X144248095Y-91082857D01*
X144295714Y-90987619D01*
X144343333Y-90940000D01*
X144438571Y-90892380D01*
G04 #@! TO.C,R21*
X142867142Y-89352380D02*
X142533809Y-88876190D01*
X142295714Y-89352380D02*
X142295714Y-88352380D01*
X142676666Y-88352380D01*
X142771904Y-88400000D01*
X142819523Y-88447619D01*
X142867142Y-88542857D01*
X142867142Y-88685714D01*
X142819523Y-88780952D01*
X142771904Y-88828571D01*
X142676666Y-88876190D01*
X142295714Y-88876190D01*
X143248095Y-88447619D02*
X143295714Y-88400000D01*
X143390952Y-88352380D01*
X143629047Y-88352380D01*
X143724285Y-88400000D01*
X143771904Y-88447619D01*
X143819523Y-88542857D01*
X143819523Y-88638095D01*
X143771904Y-88780952D01*
X143200476Y-89352380D01*
X143819523Y-89352380D01*
X144771904Y-89352380D02*
X144200476Y-89352380D01*
X144486190Y-89352380D02*
X144486190Y-88352380D01*
X144390952Y-88495238D01*
X144295714Y-88590476D01*
X144200476Y-88638095D01*
G04 #@! TO.C,R22*
X142867142Y-86812380D02*
X142533809Y-86336190D01*
X142295714Y-86812380D02*
X142295714Y-85812380D01*
X142676666Y-85812380D01*
X142771904Y-85860000D01*
X142819523Y-85907619D01*
X142867142Y-86002857D01*
X142867142Y-86145714D01*
X142819523Y-86240952D01*
X142771904Y-86288571D01*
X142676666Y-86336190D01*
X142295714Y-86336190D01*
X143248095Y-85907619D02*
X143295714Y-85860000D01*
X143390952Y-85812380D01*
X143629047Y-85812380D01*
X143724285Y-85860000D01*
X143771904Y-85907619D01*
X143819523Y-86002857D01*
X143819523Y-86098095D01*
X143771904Y-86240952D01*
X143200476Y-86812380D01*
X143819523Y-86812380D01*
X144200476Y-85907619D02*
X144248095Y-85860000D01*
X144343333Y-85812380D01*
X144581428Y-85812380D01*
X144676666Y-85860000D01*
X144724285Y-85907619D01*
X144771904Y-86002857D01*
X144771904Y-86098095D01*
X144724285Y-86240952D01*
X144152857Y-86812380D01*
X144771904Y-86812380D01*
G04 #@! TO.C,R23*
X107561142Y-93924380D02*
X107227809Y-93448190D01*
X106989714Y-93924380D02*
X106989714Y-92924380D01*
X107370666Y-92924380D01*
X107465904Y-92972000D01*
X107513523Y-93019619D01*
X107561142Y-93114857D01*
X107561142Y-93257714D01*
X107513523Y-93352952D01*
X107465904Y-93400571D01*
X107370666Y-93448190D01*
X106989714Y-93448190D01*
X107942095Y-93019619D02*
X107989714Y-92972000D01*
X108084952Y-92924380D01*
X108323047Y-92924380D01*
X108418285Y-92972000D01*
X108465904Y-93019619D01*
X108513523Y-93114857D01*
X108513523Y-93210095D01*
X108465904Y-93352952D01*
X107894476Y-93924380D01*
X108513523Y-93924380D01*
X108846857Y-92924380D02*
X109465904Y-92924380D01*
X109132571Y-93305333D01*
X109275428Y-93305333D01*
X109370666Y-93352952D01*
X109418285Y-93400571D01*
X109465904Y-93495809D01*
X109465904Y-93733904D01*
X109418285Y-93829142D01*
X109370666Y-93876761D01*
X109275428Y-93924380D01*
X108989714Y-93924380D01*
X108894476Y-93876761D01*
X108846857Y-93829142D01*
G04 #@! TO.C,R25*
X170172142Y-72842380D02*
X169838809Y-72366190D01*
X169600714Y-72842380D02*
X169600714Y-71842380D01*
X169981666Y-71842380D01*
X170076904Y-71890000D01*
X170124523Y-71937619D01*
X170172142Y-72032857D01*
X170172142Y-72175714D01*
X170124523Y-72270952D01*
X170076904Y-72318571D01*
X169981666Y-72366190D01*
X169600714Y-72366190D01*
X170553095Y-71937619D02*
X170600714Y-71890000D01*
X170695952Y-71842380D01*
X170934047Y-71842380D01*
X171029285Y-71890000D01*
X171076904Y-71937619D01*
X171124523Y-72032857D01*
X171124523Y-72128095D01*
X171076904Y-72270952D01*
X170505476Y-72842380D01*
X171124523Y-72842380D01*
X172029285Y-71842380D02*
X171553095Y-71842380D01*
X171505476Y-72318571D01*
X171553095Y-72270952D01*
X171648333Y-72223333D01*
X171886428Y-72223333D01*
X171981666Y-72270952D01*
X172029285Y-72318571D01*
X172076904Y-72413809D01*
X172076904Y-72651904D01*
X172029285Y-72747142D01*
X171981666Y-72794761D01*
X171886428Y-72842380D01*
X171648333Y-72842380D01*
X171553095Y-72794761D01*
X171505476Y-72747142D01*
G04 #@! TO.C,R26*
X135501142Y-73604380D02*
X135167809Y-73128190D01*
X134929714Y-73604380D02*
X134929714Y-72604380D01*
X135310666Y-72604380D01*
X135405904Y-72652000D01*
X135453523Y-72699619D01*
X135501142Y-72794857D01*
X135501142Y-72937714D01*
X135453523Y-73032952D01*
X135405904Y-73080571D01*
X135310666Y-73128190D01*
X134929714Y-73128190D01*
X135882095Y-72699619D02*
X135929714Y-72652000D01*
X136024952Y-72604380D01*
X136263047Y-72604380D01*
X136358285Y-72652000D01*
X136405904Y-72699619D01*
X136453523Y-72794857D01*
X136453523Y-72890095D01*
X136405904Y-73032952D01*
X135834476Y-73604380D01*
X136453523Y-73604380D01*
X137310666Y-72604380D02*
X137120190Y-72604380D01*
X137024952Y-72652000D01*
X136977333Y-72699619D01*
X136882095Y-72842476D01*
X136834476Y-73032952D01*
X136834476Y-73413904D01*
X136882095Y-73509142D01*
X136929714Y-73556761D01*
X137024952Y-73604380D01*
X137215428Y-73604380D01*
X137310666Y-73556761D01*
X137358285Y-73509142D01*
X137405904Y-73413904D01*
X137405904Y-73175809D01*
X137358285Y-73080571D01*
X137310666Y-73032952D01*
X137215428Y-72985333D01*
X137024952Y-72985333D01*
X136929714Y-73032952D01*
X136882095Y-73080571D01*
X136834476Y-73175809D01*
G04 #@! TO.C,R24*
X142105142Y-76144380D02*
X141771809Y-75668190D01*
X141533714Y-76144380D02*
X141533714Y-75144380D01*
X141914666Y-75144380D01*
X142009904Y-75192000D01*
X142057523Y-75239619D01*
X142105142Y-75334857D01*
X142105142Y-75477714D01*
X142057523Y-75572952D01*
X142009904Y-75620571D01*
X141914666Y-75668190D01*
X141533714Y-75668190D01*
X142486095Y-75239619D02*
X142533714Y-75192000D01*
X142628952Y-75144380D01*
X142867047Y-75144380D01*
X142962285Y-75192000D01*
X143009904Y-75239619D01*
X143057523Y-75334857D01*
X143057523Y-75430095D01*
X143009904Y-75572952D01*
X142438476Y-76144380D01*
X143057523Y-76144380D01*
X143914666Y-75477714D02*
X143914666Y-76144380D01*
X143676571Y-75096761D02*
X143438476Y-75811047D01*
X144057523Y-75811047D01*
G04 #@! TO.C,JP1*
X96270380Y-74493333D02*
X96984666Y-74493333D01*
X97127523Y-74540952D01*
X97222761Y-74636190D01*
X97270380Y-74779047D01*
X97270380Y-74874285D01*
X97270380Y-74017142D02*
X96270380Y-74017142D01*
X96270380Y-73636190D01*
X96318000Y-73540952D01*
X96365619Y-73493333D01*
X96460857Y-73445714D01*
X96603714Y-73445714D01*
X96698952Y-73493333D01*
X96746571Y-73540952D01*
X96794190Y-73636190D01*
X96794190Y-74017142D01*
X97270380Y-72493333D02*
X97270380Y-73064761D01*
X97270380Y-72779047D02*
X96270380Y-72779047D01*
X96413238Y-72874285D01*
X96508476Y-72969523D01*
X96556095Y-73064761D01*
G04 #@! TD*
M02*
