G04 #@! TF.GenerationSoftware,KiCad,Pcbnew,5.0.0*
G04 #@! TF.CreationDate,2018-10-17T23:37:25+09:00*
G04 #@! TF.ProjectId,CheeseUnua,436865657365556E75612E6B69636164,rev?*
G04 #@! TF.SameCoordinates,Original*
G04 #@! TF.FileFunction,Copper,L1,Top,Signal*
G04 #@! TF.FilePolarity,Positive*
%FSLAX46Y46*%
G04 Gerber Fmt 4.6, Leading zero omitted, Abs format (unit mm)*
G04 Created by KiCad (PCBNEW 5.0.0) date Wed Oct 17 23:37:25 2018*
%MOMM*%
%LPD*%
G01*
G04 APERTURE LIST*
G04 #@! TA.AperFunction,ComponentPad*
%ADD10C,1.600000*%
G04 #@! TD*
G04 #@! TA.AperFunction,ComponentPad*
%ADD11R,1.600000X1.600000*%
G04 #@! TD*
G04 #@! TA.AperFunction,ComponentPad*
%ADD12R,1.800000X1.800000*%
G04 #@! TD*
G04 #@! TA.AperFunction,ComponentPad*
%ADD13C,1.800000*%
G04 #@! TD*
G04 #@! TA.AperFunction,ComponentPad*
%ADD14R,3.500000X3.500000*%
G04 #@! TD*
G04 #@! TA.AperFunction,ComponentPad*
%ADD15R,1.750000X1.750000*%
G04 #@! TD*
G04 #@! TA.AperFunction,ComponentPad*
%ADD16C,1.750000*%
G04 #@! TD*
G04 #@! TA.AperFunction,ComponentPad*
%ADD17R,1.700000X1.700000*%
G04 #@! TD*
G04 #@! TA.AperFunction,ComponentPad*
%ADD18O,1.700000X1.700000*%
G04 #@! TD*
G04 #@! TA.AperFunction,ComponentPad*
%ADD19R,1.905000X1.905000*%
G04 #@! TD*
G04 #@! TA.AperFunction,ComponentPad*
%ADD20C,1.905000*%
G04 #@! TD*
G04 #@! TA.AperFunction,ComponentPad*
%ADD21C,2.499360*%
G04 #@! TD*
G04 #@! TA.AperFunction,ComponentPad*
%ADD22O,1.800000X1.800000*%
G04 #@! TD*
G04 #@! TA.AperFunction,ComponentPad*
%ADD23C,1.524000*%
G04 #@! TD*
G04 #@! TA.AperFunction,ComponentPad*
%ADD24O,1.524000X2.524000*%
G04 #@! TD*
G04 #@! TA.AperFunction,ComponentPad*
%ADD25O,1.600000X1.600000*%
G04 #@! TD*
G04 #@! TA.AperFunction,ComponentPad*
%ADD26C,2.000000*%
G04 #@! TD*
G04 #@! TA.AperFunction,ComponentPad*
%ADD27O,1.400000X1.400000*%
G04 #@! TD*
G04 #@! TA.AperFunction,ComponentPad*
%ADD28C,1.400000*%
G04 #@! TD*
G04 #@! TA.AperFunction,ViaPad*
%ADD29C,0.600000*%
G04 #@! TD*
G04 #@! TA.AperFunction,Conductor*
%ADD30C,0.250000*%
G04 #@! TD*
G04 #@! TA.AperFunction,Conductor*
%ADD31C,0.500000*%
G04 #@! TD*
G04 #@! TA.AperFunction,Conductor*
%ADD32C,0.254000*%
G04 #@! TD*
G04 APERTURE END LIST*
D10*
G04 #@! TO.P,C1,1*
G04 #@! TO.N,N/C*
X104775000Y-112395000D03*
G04 #@! TO.P,C1,2*
G04 #@! TO.N,GND*
X102275000Y-112395000D03*
G04 #@! TD*
G04 #@! TO.P,C2,1*
G04 #@! TO.N,Net-(C2-Pad1)*
X107188000Y-112268000D03*
G04 #@! TO.P,C2,2*
G04 #@! TO.N,GND*
X109688000Y-112268000D03*
G04 #@! TD*
G04 #@! TO.P,C3,1*
G04 #@! TO.N,+3V3*
X122555000Y-112395000D03*
G04 #@! TO.P,C3,2*
G04 #@! TO.N,Net-(C3-Pad2)*
X125055000Y-112395000D03*
G04 #@! TD*
D11*
G04 #@! TO.P,C4,1*
G04 #@! TO.N,+3V3*
X93472000Y-106172000D03*
D10*
G04 #@! TO.P,C4,2*
G04 #@! TO.N,GND*
X93472000Y-108672000D03*
G04 #@! TD*
G04 #@! TO.P,C5,1*
G04 #@! TO.N,+3.3VA*
X163830000Y-99060000D03*
G04 #@! TO.P,C5,2*
G04 #@! TO.N,GND*
X166330000Y-99060000D03*
G04 #@! TD*
D11*
G04 #@! TO.P,C6,1*
G04 #@! TO.N,+BATT*
X96367600Y-122276000D03*
D10*
G04 #@! TO.P,C6,2*
G04 #@! TO.N,GND*
X96367600Y-124776000D03*
G04 #@! TD*
G04 #@! TO.P,C7,1*
G04 #@! TO.N,/1.65V*
X142240000Y-83185000D03*
G04 #@! TO.P,C7,2*
G04 #@! TO.N,GND*
X144740000Y-83185000D03*
G04 #@! TD*
G04 #@! TO.P,C8,1*
G04 #@! TO.N,GND*
X166370000Y-92710000D03*
G04 #@! TO.P,C8,2*
G04 #@! TO.N,+BATT*
X163870000Y-92710000D03*
G04 #@! TD*
G04 #@! TO.P,C9,1*
G04 #@! TO.N,Net-(C10-Pad2)*
X142240000Y-67945000D03*
G04 #@! TO.P,C9,2*
G04 #@! TO.N,Net-(C9-Pad2)*
X144740000Y-67945000D03*
G04 #@! TD*
G04 #@! TO.P,C10,1*
G04 #@! TO.N,IR_SENSOR*
X144780000Y-70485000D03*
G04 #@! TO.P,C10,2*
G04 #@! TO.N,Net-(C10-Pad2)*
X142280000Y-70485000D03*
G04 #@! TD*
G04 #@! TO.P,C11,1*
G04 #@! TO.N,+3.3VA*
X163830000Y-95250000D03*
G04 #@! TO.P,C11,2*
G04 #@! TO.N,GND*
X166330000Y-95250000D03*
G04 #@! TD*
D12*
G04 #@! TO.P,D1,1*
G04 #@! TO.N,LED*
X97790000Y-114935000D03*
D13*
G04 #@! TO.P,D1,2*
G04 #@! TO.N,Net-(D1-Pad2)*
X95250000Y-114935000D03*
G04 #@! TD*
D12*
G04 #@! TO.P,D2,1*
G04 #@! TO.N,GND*
X87630000Y-108585000D03*
D13*
G04 #@! TO.P,D2,2*
G04 #@! TO.N,Net-(D2-Pad2)*
X87630000Y-106045000D03*
G04 #@! TD*
D12*
G04 #@! TO.P,D3,1*
G04 #@! TO.N,GND*
X166116000Y-105410000D03*
D13*
G04 #@! TO.P,D3,2*
G04 #@! TO.N,Net-(D3-Pad2)*
X163576000Y-105410000D03*
G04 #@! TD*
D12*
G04 #@! TO.P,D4,1*
G04 #@! TO.N,Net-(D4-Pad1)*
X151765000Y-67945000D03*
D13*
G04 #@! TO.P,D4,2*
G04 #@! TO.N,+BATT*
X154305000Y-67945000D03*
G04 #@! TD*
D14*
G04 #@! TO.P,J1,1*
G04 #@! TO.N,Net-(J1-Pad1)*
X91440000Y-116205000D03*
G04 #@! TO.P,J1,2*
G04 #@! TO.N,GND*
X85440000Y-116205000D03*
G04 #@! TO.P,J1,3*
X88440000Y-120905000D03*
G04 #@! TD*
D15*
G04 #@! TO.P,J2,1*
G04 #@! TO.N,Net-(J2-Pad1)*
X84455000Y-73660000D03*
D16*
G04 #@! TO.P,J2,2*
G04 #@! TO.N,GND*
X84455000Y-76160000D03*
G04 #@! TD*
D17*
G04 #@! TO.P,J7,1*
G04 #@! TO.N,GND*
X99568000Y-108712000D03*
D18*
G04 #@! TO.P,J7,2*
G04 #@! TO.N,+3V3*
X99568000Y-106172000D03*
G04 #@! TO.P,J7,3*
G04 #@! TO.N,N/C*
X102108000Y-108712000D03*
G04 #@! TO.P,J7,4*
X102108000Y-106172000D03*
G04 #@! TO.P,J7,5*
G04 #@! TO.N,TX*
X104648000Y-108712000D03*
G04 #@! TO.P,J7,6*
G04 #@! TO.N,RX*
X104648000Y-106172000D03*
G04 #@! TO.P,J7,7*
G04 #@! TO.N,N/C*
X107188000Y-108712000D03*
G04 #@! TO.P,J7,8*
X107188000Y-106172000D03*
G04 #@! TO.P,J7,9*
X109728000Y-108712000D03*
G04 #@! TO.P,J7,10*
X109728000Y-106172000D03*
G04 #@! TO.P,J7,11*
X112268000Y-108712000D03*
G04 #@! TO.P,J7,12*
X112268000Y-106172000D03*
G04 #@! TO.P,J7,13*
X114808000Y-108712000D03*
G04 #@! TO.P,J7,14*
X114808000Y-106172000D03*
G04 #@! TO.P,J7,15*
X117348000Y-108712000D03*
G04 #@! TO.P,J7,16*
G04 #@! TO.N,SWDIO*
X117348000Y-106172000D03*
G04 #@! TO.P,J7,17*
G04 #@! TO.N,SWCLK*
X119888000Y-108712000D03*
G04 #@! TO.P,J7,18*
G04 #@! TO.N,N/C*
X119888000Y-106172000D03*
G04 #@! TO.P,J7,19*
G04 #@! TO.N,LCD_SCL*
X122428000Y-108712000D03*
G04 #@! TO.P,J7,20*
G04 #@! TO.N,LCD_SDA*
X122428000Y-106172000D03*
G04 #@! TO.P,J7,21*
G04 #@! TO.N,SW*
X124968000Y-108712000D03*
G04 #@! TO.P,J7,22*
G04 #@! TO.N,BUZZER*
X124968000Y-106172000D03*
G04 #@! TO.P,J7,23*
G04 #@! TO.N,7SEG_A*
X127508000Y-108712000D03*
G04 #@! TO.P,J7,24*
G04 #@! TO.N,7SEG_B*
X127508000Y-106172000D03*
G04 #@! TO.P,J7,25*
G04 #@! TO.N,7SEG_C*
X130048000Y-108712000D03*
G04 #@! TO.P,J7,26*
G04 #@! TO.N,7SEG_D*
X130048000Y-106172000D03*
G04 #@! TD*
D17*
G04 #@! TO.P,J8,1*
G04 #@! TO.N,GND*
X130048000Y-80772000D03*
D18*
G04 #@! TO.P,J8,2*
G04 #@! TO.N,+3V3*
X130048000Y-83312000D03*
G04 #@! TO.P,J8,3*
G04 #@! TO.N,BATT_MONITOR*
X127508000Y-80772000D03*
G04 #@! TO.P,J8,4*
G04 #@! TO.N,IR_SENSOR*
X127508000Y-83312000D03*
G04 #@! TO.P,J8,5*
G04 #@! TO.N,N/C*
X124968000Y-80772000D03*
G04 #@! TO.P,J8,6*
X124968000Y-83312000D03*
G04 #@! TO.P,J8,7*
X122428000Y-80772000D03*
G04 #@! TO.P,J8,8*
X122428000Y-83312000D03*
G04 #@! TO.P,J8,9*
G04 #@! TO.N,IR_LED*
X119888000Y-80772000D03*
G04 #@! TO.P,J8,10*
G04 #@! TO.N,MOTOR_CLK*
X119888000Y-83312000D03*
G04 #@! TO.P,J8,11*
G04 #@! TO.N,N/C*
X117348000Y-80772000D03*
G04 #@! TO.P,J8,12*
X117348000Y-83312000D03*
G04 #@! TO.P,J8,13*
G04 #@! TO.N,7SEG_E*
X114808000Y-80772000D03*
G04 #@! TO.P,J8,14*
G04 #@! TO.N,7SEG_F*
X114808000Y-83312000D03*
G04 #@! TO.P,J8,15*
G04 #@! TO.N,7SEG_G*
X112268000Y-80772000D03*
G04 #@! TO.P,J8,16*
G04 #@! TO.N,7SEG_H*
X112268000Y-83312000D03*
G04 #@! TO.P,J8,17*
G04 #@! TO.N,LED*
X109728000Y-80772000D03*
G04 #@! TO.P,J8,18*
G04 #@! TO.N,LCD_RESET*
X109728000Y-83312000D03*
G04 #@! TO.P,J8,19*
G04 #@! TO.N,N/C*
X107188000Y-80772000D03*
G04 #@! TO.P,J8,20*
X107188000Y-83312000D03*
G04 #@! TO.P,J8,21*
X104648000Y-80772000D03*
G04 #@! TO.P,J8,22*
G04 #@! TO.N,MOTOR_MODE*
X104648000Y-83312000D03*
G04 #@! TO.P,J8,23*
G04 #@! TO.N,MOTOR_DIR*
X102108000Y-80772000D03*
G04 #@! TO.P,J8,24*
G04 #@! TO.N,MOTOR_RESET*
X102108000Y-83312000D03*
G04 #@! TO.P,J8,25*
G04 #@! TO.N,+3V3*
X99568000Y-80772000D03*
G04 #@! TO.P,J8,26*
G04 #@! TO.N,NRST*
X99568000Y-83312000D03*
G04 #@! TD*
D19*
G04 #@! TO.P,L1,1*
G04 #@! TO.N,+3.3VA*
X91440000Y-86766400D03*
D20*
G04 #@! TO.P,L1,2*
G04 #@! TO.N,Net-(L1-Pad2)*
X91440000Y-81686400D03*
G04 #@! TD*
D21*
G04 #@! TO.P,LS1,2*
G04 #@! TO.N,BUZZER*
X152044000Y-90576400D03*
G04 #@! TO.P,LS1,1*
G04 #@! TO.N,+3V3*
X152044000Y-100736400D03*
G04 #@! TD*
D12*
G04 #@! TO.P,Q1,1*
G04 #@! TO.N,Net-(Q1-Pad1)*
X99060000Y-70485000D03*
D22*
G04 #@! TO.P,Q1,2*
G04 #@! TO.N,Net-(F1-Pad1)*
X99060000Y-73025000D03*
G04 #@! TO.P,Q1,3*
G04 #@! TO.N,+BATT*
X99060000Y-75565000D03*
G04 #@! TD*
D12*
G04 #@! TO.P,Q2,1*
G04 #@! TO.N,Net-(Q2-Pad1)*
X93345000Y-98425000D03*
D22*
G04 #@! TO.P,Q2,2*
G04 #@! TO.N,Net-(D4-Pad1)*
X93345000Y-95885000D03*
G04 #@! TO.P,Q2,3*
G04 #@! TO.N,Net-(Q2-Pad3)*
X93345000Y-93345000D03*
G04 #@! TD*
D17*
G04 #@! TO.P,SW2,1*
G04 #@! TO.N,Net-(Q1-Pad1)*
X104775000Y-70485000D03*
D18*
G04 #@! TO.P,SW2,2*
G04 #@! TO.N,GND*
X104775000Y-73025000D03*
G04 #@! TO.P,SW2,3*
G04 #@! TO.N,N/C*
X104775000Y-75565000D03*
G04 #@! TD*
D23*
G04 #@! TO.P,U2,1*
G04 #@! TO.N,Net-(J5-Pad4)*
X130175000Y-115570000D03*
G04 #@! TO.P,U2,2*
X128905000Y-119380000D03*
G04 #@! TO.P,U2,3*
G04 #@! TO.N,Net-(J5-Pad6)*
X127635000Y-115570000D03*
G04 #@! TO.P,U2,4*
X126365000Y-119380000D03*
G04 #@! TO.P,U2,5*
G04 #@! TO.N,N/C*
X125095000Y-115570000D03*
G04 #@! TO.P,U2,6*
X123825000Y-119380000D03*
G04 #@! TO.P,U2,7*
G04 #@! TO.N,+3V3*
X122555000Y-115570000D03*
G04 #@! TO.P,U2,8*
X121285000Y-119380000D03*
G04 #@! TO.P,U2,9*
G04 #@! TO.N,MOTOR_MODE*
X120015000Y-115570000D03*
G04 #@! TO.P,U2,10*
G04 #@! TO.N,MOTOR_CLK*
X118745000Y-119380000D03*
G04 #@! TO.P,U2,11*
G04 #@! TO.N,+BATT*
X117475000Y-115570000D03*
G04 #@! TO.P,U2,12*
G04 #@! TO.N,GND*
X116205000Y-119380000D03*
G04 #@! TO.P,U2,13*
G04 #@! TO.N,Net-(C2-Pad1)*
X114935000Y-115570000D03*
G04 #@! TO.P,U2,14*
G04 #@! TO.N,+3V3*
X113665000Y-119380000D03*
G04 #@! TO.P,U2,15*
G04 #@! TO.N,MOTOR_RESET*
X112395000Y-115570000D03*
G04 #@! TO.P,U2,16*
G04 #@! TO.N,MOTOR_DIR*
X111125000Y-119380000D03*
G04 #@! TO.P,U2,17*
G04 #@! TO.N,+3V3*
X109855000Y-115570000D03*
G04 #@! TO.P,U2,18*
G04 #@! TO.N,N/C*
X108585000Y-119380000D03*
G04 #@! TO.P,U2,19*
X107315000Y-115570000D03*
G04 #@! TO.P,U2,20*
G04 #@! TO.N,Net-(J5-Pad1)*
X106045000Y-119380000D03*
G04 #@! TO.P,U2,21*
X104775000Y-115570000D03*
G04 #@! TO.P,U2,22*
G04 #@! TO.N,Net-(J5-Pad3)*
X103505000Y-119380000D03*
G04 #@! TO.P,U2,23*
X102235000Y-115570000D03*
G04 #@! TD*
D24*
G04 #@! TO.P,U3,1*
G04 #@! TO.N,Net-(R19-Pad1)*
X149860000Y-124714000D03*
G04 #@! TO.P,U3,2*
G04 #@! TO.N,Net-(R18-Pad1)*
X152400000Y-124714000D03*
G04 #@! TO.P,U3,3*
G04 #@! TO.N,+3V3*
X154940000Y-124714000D03*
G04 #@! TO.P,U3,4*
G04 #@! TO.N,Net-(R17-Pad1)*
X157480000Y-124714000D03*
G04 #@! TO.P,U3,5*
G04 #@! TO.N,Net-(R22-Pad1)*
X160020000Y-124714000D03*
G04 #@! TO.P,U3,6*
G04 #@! TO.N,Net-(R16-Pad1)*
X160020000Y-109474000D03*
G04 #@! TO.P,U3,7*
G04 #@! TO.N,Net-(R15-Pad1)*
X157480000Y-109474000D03*
G04 #@! TO.P,U3,8*
G04 #@! TO.N,+3V3*
X154940000Y-109474000D03*
G04 #@! TO.P,U3,9*
G04 #@! TO.N,Net-(R20-Pad1)*
X152400000Y-109474000D03*
G04 #@! TO.P,U3,10*
G04 #@! TO.N,Net-(R21-Pad1)*
X149860000Y-109474000D03*
G04 #@! TD*
D11*
G04 #@! TO.P,U4,1*
G04 #@! TO.N,Net-(R23-Pad2)*
X160655000Y-75565000D03*
D25*
G04 #@! TO.P,U4,5*
G04 #@! TO.N,N/C*
X168275000Y-83185000D03*
G04 #@! TO.P,U4,2*
G04 #@! TO.N,Net-(Q2-Pad3)*
X160655000Y-78105000D03*
G04 #@! TO.P,U4,6*
G04 #@! TO.N,N/C*
X168275000Y-80645000D03*
G04 #@! TO.P,U4,3*
G04 #@! TO.N,IR_LED*
X160655000Y-80645000D03*
G04 #@! TO.P,U4,7*
G04 #@! TO.N,N/C*
X168275000Y-78105000D03*
G04 #@! TO.P,U4,4*
G04 #@! TO.N,GND*
X160655000Y-83185000D03*
G04 #@! TO.P,U4,8*
G04 #@! TO.N,+BATT*
X168275000Y-75565000D03*
G04 #@! TD*
D11*
G04 #@! TO.P,U5,1*
G04 #@! TO.N,IR_SENSOR*
X148590000Y-75565000D03*
D25*
G04 #@! TO.P,U5,5*
G04 #@! TO.N,N/C*
X156210000Y-83185000D03*
G04 #@! TO.P,U5,2*
G04 #@! TO.N,Net-(C10-Pad2)*
X148590000Y-78105000D03*
G04 #@! TO.P,U5,6*
G04 #@! TO.N,N/C*
X156210000Y-80645000D03*
G04 #@! TO.P,U5,3*
G04 #@! TO.N,/1.65V*
X148590000Y-80645000D03*
G04 #@! TO.P,U5,7*
G04 #@! TO.N,N/C*
X156210000Y-78105000D03*
G04 #@! TO.P,U5,4*
G04 #@! TO.N,GND*
X148590000Y-83185000D03*
G04 #@! TO.P,U5,8*
G04 #@! TO.N,+3.3VA*
X156210000Y-75565000D03*
G04 #@! TD*
D17*
G04 #@! TO.P,U1,1*
G04 #@! TO.N,+BATT*
X85725000Y-98425000D03*
D18*
G04 #@! TO.P,U1,2*
G04 #@! TO.N,GND*
X85725000Y-95885000D03*
G04 #@! TO.P,U1,3*
G04 #@! TO.N,+3V3*
X85725000Y-93345000D03*
G04 #@! TD*
D26*
G04 #@! TO.P,F1,1*
G04 #@! TO.N,Net-(F1-Pad1)*
X93980000Y-67945000D03*
G04 #@! TO.P,F1,2*
G04 #@! TO.N,Net-(F1-Pad2)*
X88900000Y-67935000D03*
G04 #@! TD*
D17*
G04 #@! TO.P,J3,1*
G04 #@! TO.N,+3V3*
X165100000Y-111404000D03*
D18*
G04 #@! TO.P,J3,2*
G04 #@! TO.N,SWCLK*
X165100000Y-113944000D03*
G04 #@! TO.P,J3,3*
G04 #@! TO.N,GND*
X165100000Y-116484000D03*
G04 #@! TO.P,J3,4*
G04 #@! TO.N,SWDIO*
X165100000Y-119024000D03*
G04 #@! TO.P,J3,5*
G04 #@! TO.N,NRST*
X165100000Y-121564000D03*
G04 #@! TD*
D17*
G04 #@! TO.P,J4,1*
G04 #@! TO.N,RX*
X131445000Y-75565000D03*
D18*
G04 #@! TO.P,J4,2*
G04 #@! TO.N,TX*
X128905000Y-75565000D03*
G04 #@! TO.P,J4,3*
G04 #@! TO.N,GND*
X126365000Y-75565000D03*
G04 #@! TD*
D17*
G04 #@! TO.P,J6,1*
G04 #@! TO.N,+3V3*
X110490000Y-75565000D03*
D18*
G04 #@! TO.P,J6,2*
G04 #@! TO.N,LCD_RESET*
X113030000Y-75565000D03*
G04 #@! TO.P,J6,3*
G04 #@! TO.N,LCD_SCL*
X115570000Y-75565000D03*
G04 #@! TO.P,J6,4*
G04 #@! TO.N,LCD_SDA*
X118110000Y-75565000D03*
G04 #@! TO.P,J6,5*
G04 #@! TO.N,GND*
X120650000Y-75565000D03*
G04 #@! TD*
D12*
G04 #@! TO.P,D6,1*
G04 #@! TO.N,+3.3VA*
X160655000Y-67945000D03*
D13*
G04 #@! TO.P,D6,2*
G04 #@! TO.N,Net-(C9-Pad2)*
X163195000Y-67945000D03*
G04 #@! TD*
D26*
G04 #@! TO.P,SW3,2*
G04 #@! TO.N,+3V3*
X135128000Y-118038000D03*
G04 #@! TO.P,SW3,1*
G04 #@! TO.N,Net-(R11-Pad1)*
X135128000Y-113538000D03*
G04 #@! TO.P,SW3,2*
G04 #@! TO.N,+3V3*
X141628000Y-118038000D03*
G04 #@! TO.P,SW3,1*
G04 #@! TO.N,Net-(R11-Pad1)*
X141628000Y-113538000D03*
G04 #@! TD*
D16*
G04 #@! TO.P,J5,6*
G04 #@! TO.N,Net-(J5-Pad6)*
X124895000Y-123825000D03*
G04 #@! TO.P,J5,5*
G04 #@! TO.N,+BATT*
X122395000Y-123825000D03*
G04 #@! TO.P,J5,4*
G04 #@! TO.N,Net-(J5-Pad4)*
X119895000Y-123825000D03*
G04 #@! TO.P,J5,3*
G04 #@! TO.N,Net-(J5-Pad3)*
X117395000Y-123825000D03*
G04 #@! TO.P,J5,2*
G04 #@! TO.N,+BATT*
X114895000Y-123825000D03*
D15*
G04 #@! TO.P,J5,1*
G04 #@! TO.N,Net-(J5-Pad1)*
X112395000Y-123825000D03*
G04 #@! TD*
D27*
G04 #@! TO.P,R1,2*
G04 #@! TO.N,BATT_MONITOR*
X105410000Y-86563200D03*
D28*
G04 #@! TO.P,R1,1*
G04 #@! TO.N,+BATT*
X97790000Y-86563200D03*
G04 #@! TD*
G04 #@! TO.P,R2,1*
G04 #@! TO.N,BATT_MONITOR*
X105664000Y-89408000D03*
D27*
G04 #@! TO.P,R2,2*
G04 #@! TO.N,GND*
X98044000Y-89408000D03*
G04 #@! TD*
D28*
G04 #@! TO.P,R3,1*
G04 #@! TO.N,+3V3*
X100584000Y-122936000D03*
D27*
G04 #@! TO.P,R3,2*
G04 #@! TO.N,Net-(R3-Pad2)*
X108204000Y-122936000D03*
G04 #@! TD*
D28*
G04 #@! TO.P,R4,1*
G04 #@! TO.N,Net-(R3-Pad2)*
X108204000Y-125476000D03*
D27*
G04 #@! TO.P,R4,2*
G04 #@! TO.N,GND*
X100584000Y-125476000D03*
G04 #@! TD*
D28*
G04 #@! TO.P,R5,1*
G04 #@! TO.N,N/C*
X117856000Y-68580000D03*
D27*
G04 #@! TO.P,R5,2*
G04 #@! TO.N,Net-(Q1-Pad1)*
X110236000Y-68580000D03*
G04 #@! TD*
D28*
G04 #@! TO.P,R6,1*
G04 #@! TO.N,Net-(C3-Pad2)*
X120015000Y-112395000D03*
D27*
G04 #@! TO.P,R6,2*
G04 #@! TO.N,GND*
X112395000Y-112395000D03*
G04 #@! TD*
G04 #@! TO.P,R7,2*
G04 #@! TO.N,Net-(D1-Pad2)*
X98044000Y-96012000D03*
D28*
G04 #@! TO.P,R7,1*
G04 #@! TO.N,+3V3*
X105664000Y-96012000D03*
G04 #@! TD*
D27*
G04 #@! TO.P,R8,2*
G04 #@! TO.N,Net-(D2-Pad2)*
X98044000Y-99060000D03*
D28*
G04 #@! TO.P,R8,1*
G04 #@! TO.N,N/C*
X105664000Y-99060000D03*
G04 #@! TD*
G04 #@! TO.P,R9,1*
G04 #@! TO.N,Net-(L1-Pad2)*
X117856000Y-71628000D03*
D27*
G04 #@! TO.P,R9,2*
G04 #@! TO.N,+3V3*
X110236000Y-71628000D03*
G04 #@! TD*
G04 #@! TO.P,R10,2*
G04 #@! TO.N,Net-(D3-Pad2)*
X140970000Y-109220000D03*
D28*
G04 #@! TO.P,R10,1*
G04 #@! TO.N,SW*
X133350000Y-109220000D03*
G04 #@! TD*
G04 #@! TO.P,R11,1*
G04 #@! TO.N,Net-(R11-Pad1)*
X133350000Y-106680000D03*
D27*
G04 #@! TO.P,R11,2*
G04 #@! TO.N,GND*
X140970000Y-106680000D03*
G04 #@! TD*
D28*
G04 #@! TO.P,R12,1*
G04 #@! TO.N,+3.3VA*
X146050000Y-80645000D03*
D27*
G04 #@! TO.P,R12,2*
G04 #@! TO.N,/1.65V*
X138430000Y-80645000D03*
G04 #@! TD*
G04 #@! TO.P,R13,2*
G04 #@! TO.N,GND*
X138430000Y-78105000D03*
D28*
G04 #@! TO.P,R13,1*
G04 #@! TO.N,/1.65V*
X146050000Y-78105000D03*
G04 #@! TD*
D27*
G04 #@! TO.P,R14,2*
G04 #@! TO.N,GND*
X170180000Y-88900000D03*
D28*
G04 #@! TO.P,R14,1*
G04 #@! TO.N,N/C*
X162560000Y-88900000D03*
G04 #@! TD*
D27*
G04 #@! TO.P,R15,2*
G04 #@! TO.N,7SEG_A*
X133096000Y-104140000D03*
D28*
G04 #@! TO.P,R15,1*
G04 #@! TO.N,Net-(R15-Pad1)*
X140716000Y-104140000D03*
G04 #@! TD*
D27*
G04 #@! TO.P,R16,2*
G04 #@! TO.N,7SEG_B*
X133096000Y-101600000D03*
D28*
G04 #@! TO.P,R16,1*
G04 #@! TO.N,Net-(R16-Pad1)*
X140716000Y-101600000D03*
G04 #@! TD*
D27*
G04 #@! TO.P,R17,2*
G04 #@! TO.N,7SEG_C*
X133096000Y-99060000D03*
D28*
G04 #@! TO.P,R17,1*
G04 #@! TO.N,Net-(R17-Pad1)*
X140716000Y-99060000D03*
G04 #@! TD*
G04 #@! TO.P,R18,1*
G04 #@! TO.N,Net-(R18-Pad1)*
X140716000Y-96520000D03*
D27*
G04 #@! TO.P,R18,2*
G04 #@! TO.N,7SEG_D*
X133096000Y-96520000D03*
G04 #@! TD*
G04 #@! TO.P,R19,2*
G04 #@! TO.N,7SEG_E*
X133096000Y-93980000D03*
D28*
G04 #@! TO.P,R19,1*
G04 #@! TO.N,Net-(R19-Pad1)*
X140716000Y-93980000D03*
G04 #@! TD*
D27*
G04 #@! TO.P,R20,2*
G04 #@! TO.N,7SEG_F*
X133096000Y-91440000D03*
D28*
G04 #@! TO.P,R20,1*
G04 #@! TO.N,Net-(R20-Pad1)*
X140716000Y-91440000D03*
G04 #@! TD*
G04 #@! TO.P,R21,1*
G04 #@! TO.N,Net-(R21-Pad1)*
X140716000Y-88900000D03*
D27*
G04 #@! TO.P,R21,2*
G04 #@! TO.N,7SEG_G*
X133096000Y-88900000D03*
G04 #@! TD*
G04 #@! TO.P,R22,2*
G04 #@! TO.N,7SEG_H*
X133096000Y-86360000D03*
D28*
G04 #@! TO.P,R22,1*
G04 #@! TO.N,Net-(R22-Pad1)*
X140716000Y-86360000D03*
G04 #@! TD*
G04 #@! TO.P,R23,1*
G04 #@! TO.N,Net-(Q2-Pad1)*
X98044000Y-92964000D03*
D27*
G04 #@! TO.P,R23,2*
G04 #@! TO.N,Net-(R23-Pad2)*
X105664000Y-92964000D03*
G04 #@! TD*
G04 #@! TO.P,R25,2*
G04 #@! TO.N,GND*
X160528000Y-72644000D03*
D28*
G04 #@! TO.P,R25,1*
G04 #@! TO.N,Net-(C9-Pad2)*
X168148000Y-72644000D03*
G04 #@! TD*
G04 #@! TO.P,R26,1*
G04 #@! TO.N,IR_SENSOR*
X146050000Y-73025000D03*
D27*
G04 #@! TO.P,R26,2*
G04 #@! TO.N,Net-(C10-Pad2)*
X138430000Y-73025000D03*
G04 #@! TD*
D25*
G04 #@! TO.P,R24,2*
G04 #@! TO.N,GND*
X135890000Y-75565000D03*
D10*
G04 #@! TO.P,R24,1*
G04 #@! TO.N,Net-(Q2-Pad3)*
X146050000Y-75565000D03*
G04 #@! TD*
D18*
G04 #@! TO.P,JP1,3*
G04 #@! TO.N,Net-(J2-Pad1)*
X89408000Y-73660000D03*
G04 #@! TO.P,JP1,2*
G04 #@! TO.N,Net-(F1-Pad2)*
X91948000Y-73660000D03*
D17*
G04 #@! TO.P,JP1,1*
G04 #@! TO.N,Net-(J1-Pad1)*
X94488000Y-73660000D03*
G04 #@! TD*
D29*
G04 #@! TO.N,GND*
X143764000Y-88900000D03*
X144780000Y-89916000D03*
X145796000Y-90932000D03*
X146812000Y-91948000D03*
X147828000Y-92964000D03*
X142748000Y-87884000D03*
X127000000Y-123952000D03*
X128016000Y-123952000D03*
X129032000Y-123952000D03*
X130048000Y-123952000D03*
X131064000Y-123952000D03*
X132080000Y-123952000D03*
X133096000Y-123952000D03*
X134112000Y-123952000D03*
X132080000Y-116332000D03*
X132080000Y-116332000D03*
X132080000Y-116332000D03*
X133096000Y-116332000D03*
X144780000Y-112268000D03*
X144780000Y-113284000D03*
X144780000Y-114300000D03*
X149352000Y-112268000D03*
X149352000Y-113284000D03*
X149352000Y-114300000D03*
X155448000Y-103632000D03*
X156464000Y-103632000D03*
X137160000Y-104140000D03*
X137160000Y-106680000D03*
X101600000Y-101092000D03*
X101600000Y-100076000D03*
X101600000Y-99060000D03*
X102616000Y-100076000D03*
X102616000Y-99060000D03*
X135128000Y-81280000D03*
X136144000Y-82296000D03*
X137160000Y-83312000D03*
X142748000Y-97028000D03*
X145796000Y-100584000D03*
X144780000Y-99568000D03*
X142748000Y-96012000D03*
X148336000Y-117856000D03*
X149352000Y-118872000D03*
X150368000Y-119888000D03*
X151384000Y-120904000D03*
X152400000Y-121920000D03*
X127000000Y-112268000D03*
X128016000Y-112268000D03*
X102108000Y-103632000D03*
X112268000Y-104140000D03*
X110744000Y-104140000D03*
X117348000Y-121920000D03*
X119380000Y-121920000D03*
X90932000Y-102616000D03*
X90932000Y-101600000D03*
X90932000Y-100584000D03*
X90932000Y-84836000D03*
X91948000Y-84836000D03*
X92964000Y-84328000D03*
X96012000Y-67564000D03*
X97028000Y-67564000D03*
X98552000Y-67564000D03*
X96012000Y-68580000D03*
X97028000Y-69596000D03*
G04 #@! TO.N,RX*
X104356500Y-89820500D03*
G04 #@! TO.N,TX*
X107264600Y-90906200D03*
X128961000Y-85642500D03*
G04 #@! TO.N,LCD_SCL*
X136419700Y-87148000D03*
G04 #@! TD*
D30*
G04 #@! TO.N,BATT_MONITOR*
X127508000Y-80772000D02*
X126332700Y-80772000D01*
X105410000Y-86563200D02*
X108142400Y-86563200D01*
X108142400Y-86563200D02*
X111031400Y-83674200D01*
X111031400Y-83674200D02*
X111031400Y-82832900D01*
X111031400Y-82832900D02*
X111917000Y-81947300D01*
X111917000Y-81947300D02*
X125524800Y-81947300D01*
X125524800Y-81947300D02*
X126332700Y-81139400D01*
X126332700Y-81139400D02*
X126332700Y-80772000D01*
D31*
G04 #@! TO.N,GND*
X88440000Y-120905000D02*
X90640300Y-120905000D01*
X90640300Y-120905000D02*
X94511300Y-124776000D01*
X94511300Y-124776000D02*
X96367600Y-124776000D01*
X140970000Y-106680000D02*
X142120300Y-106680000D01*
X166116000Y-105410000D02*
X164763700Y-106762300D01*
X164763700Y-106762300D02*
X142202600Y-106762300D01*
X142202600Y-106762300D02*
X142120300Y-106680000D01*
X130048000Y-80772000D02*
X131348300Y-80772000D01*
X131348300Y-80772000D02*
X131348300Y-80731800D01*
X131348300Y-80731800D02*
X135890000Y-76190100D01*
X160655000Y-83185000D02*
X159404700Y-83185000D01*
X148590000Y-83185000D02*
X149840300Y-83185000D01*
X149840300Y-83185000D02*
X151090700Y-84435400D01*
X151090700Y-84435400D02*
X158154300Y-84435400D01*
X158154300Y-84435400D02*
X159404700Y-83185000D01*
X144740000Y-83185000D02*
X148590000Y-83185000D01*
X167620300Y-88900000D02*
X170180000Y-88900000D01*
X161905300Y-83185000D02*
X167620300Y-88900000D01*
X167620300Y-88900000D02*
X167620300Y-91459700D01*
X167620300Y-91459700D02*
X166370000Y-92710000D01*
X138430000Y-78105000D02*
X137279700Y-78105000D01*
X135890000Y-76190100D02*
X137279700Y-77579800D01*
X137279700Y-77579800D02*
X137279700Y-78105000D01*
X135890000Y-75565000D02*
X135890000Y-76190100D01*
X100584000Y-125476000D02*
X99433700Y-125476000D01*
X96367600Y-124776000D02*
X98733700Y-124776000D01*
X98733700Y-124776000D02*
X99433700Y-125476000D01*
X160655000Y-83185000D02*
X161905300Y-83185000D01*
X120650000Y-75565000D02*
X126365000Y-75565000D01*
X85725000Y-95885000D02*
X92202000Y-89408000D01*
X92202000Y-89408000D02*
X98044000Y-89408000D01*
X85725000Y-95885000D02*
X87025000Y-97185000D01*
X87025000Y-97185000D02*
X87025000Y-104652000D01*
X87025000Y-104652000D02*
X86280000Y-105397000D01*
X86280000Y-105397000D02*
X86280000Y-107235000D01*
X86280000Y-107235000D02*
X87630000Y-108585000D01*
X109688000Y-112268000D02*
X112268000Y-112268000D01*
X112268000Y-112268000D02*
X112395000Y-112395000D01*
X102275000Y-112395000D02*
X103525000Y-113645000D01*
X103525000Y-113645000D02*
X108311000Y-113645000D01*
X108311000Y-113645000D02*
X109688000Y-112268000D01*
X99568000Y-108712000D02*
X99568000Y-110062000D01*
X99568000Y-110062000D02*
X101901000Y-112395000D01*
X101901000Y-112395000D02*
X102275000Y-112395000D01*
X93472000Y-108672000D02*
X99528000Y-108672000D01*
X99528000Y-108672000D02*
X99568000Y-108712000D01*
X87630000Y-108585000D02*
X93385000Y-108585000D01*
X93385000Y-108585000D02*
X93472000Y-108672000D01*
G04 #@! TO.N,+3V3*
X104403800Y-96012000D02*
X104403800Y-100035900D01*
X104403800Y-100035900D02*
X99568000Y-104871700D01*
X99568000Y-80772000D02*
X98265200Y-82074800D01*
X98265200Y-82074800D02*
X98265200Y-83998200D01*
X98265200Y-83998200D02*
X99194400Y-84927400D01*
X99194400Y-84927400D02*
X99194400Y-90802600D01*
X99194400Y-90802600D02*
X104403800Y-96012000D01*
X104403800Y-96012000D02*
X105664000Y-96012000D01*
X99568000Y-106172000D02*
X99568000Y-104871700D01*
X99568000Y-106172000D02*
X94722300Y-106172000D01*
X93472000Y-106172000D02*
X94722300Y-106172000D01*
X109189700Y-75565000D02*
X105721500Y-79033200D01*
X105721500Y-79033200D02*
X101306800Y-79033200D01*
X101306800Y-79033200D02*
X99568000Y-80772000D01*
X123430000Y-117235000D02*
X121285000Y-119380000D01*
X135128000Y-118038000D02*
X124233000Y-118038000D01*
X124233000Y-118038000D02*
X123430000Y-117235000D01*
X123430000Y-117235000D02*
X123430000Y-116445000D01*
X123430000Y-116445000D02*
X122555000Y-115570000D01*
X113665000Y-119380000D02*
X114877400Y-118167600D01*
X114877400Y-118167600D02*
X120072600Y-118167600D01*
X120072600Y-118167600D02*
X121285000Y-119380000D01*
X141628000Y-118038000D02*
X135128000Y-118038000D01*
X154940000Y-124714000D02*
X154940000Y-123001700D01*
X154940000Y-123001700D02*
X146591700Y-123001700D01*
X146591700Y-123001700D02*
X141628000Y-118038000D01*
X110490000Y-75565000D02*
X109189700Y-75565000D01*
D30*
G04 #@! TO.N,MOTOR_RESET*
X112395000Y-115570000D02*
X113477900Y-114487100D01*
X113477900Y-114487100D02*
X113477900Y-102349600D01*
X113477900Y-102349600D02*
X105867800Y-94739500D01*
X105867800Y-94739500D02*
X105306800Y-94739500D01*
X105306800Y-94739500D02*
X102108000Y-91540700D01*
X102108000Y-91540700D02*
X102108000Y-83312000D01*
G04 #@! TO.N,+3.3VA*
X160655000Y-67945000D02*
X159429700Y-67945000D01*
X91440000Y-86766400D02*
X92717800Y-86766400D01*
X92717800Y-86766400D02*
X92717800Y-85934800D01*
X92717800Y-85934800D02*
X100194800Y-78457800D01*
X100194800Y-78457800D02*
X105263800Y-78457800D01*
X105263800Y-78457800D02*
X109332000Y-74389600D01*
X109332000Y-74389600D02*
X110192200Y-74389600D01*
X110192200Y-74389600D02*
X110672900Y-73908900D01*
X110672900Y-73908900D02*
X134491000Y-73908900D01*
X134491000Y-73908900D02*
X139229600Y-69170300D01*
X139229600Y-69170300D02*
X158204400Y-69170300D01*
X158204400Y-69170300D02*
X159429700Y-67945000D01*
D31*
G04 #@! TO.N,+BATT*
X100410300Y-75565000D02*
X101737400Y-76892100D01*
X101737400Y-76892100D02*
X105305800Y-76892100D01*
X105305800Y-76892100D02*
X108288700Y-73909200D01*
X108288700Y-73909200D02*
X108288700Y-71939400D01*
X108288700Y-71939400D02*
X110124100Y-70104000D01*
X110124100Y-70104000D02*
X137106100Y-70104000D01*
X137106100Y-70104000D02*
X140615500Y-66594600D01*
X140615500Y-66594600D02*
X152954600Y-66594600D01*
X152954600Y-66594600D02*
X154305000Y-67945000D01*
X99060000Y-75565000D02*
X100410300Y-75565000D01*
X168275000Y-74314700D02*
X168118700Y-74314700D01*
X168118700Y-74314700D02*
X165666300Y-71862300D01*
X165666300Y-71862300D02*
X165666300Y-68473100D01*
X165666300Y-68473100D02*
X163787800Y-66594600D01*
X163787800Y-66594600D02*
X155655400Y-66594600D01*
X155655400Y-66594600D02*
X154305000Y-67945000D01*
X168275000Y-75565000D02*
X168275000Y-74314700D01*
X96367600Y-122276000D02*
X95067600Y-122276000D01*
X95067600Y-122276000D02*
X91496600Y-118705000D01*
X91496600Y-118705000D02*
X89630000Y-118705000D01*
X89630000Y-118705000D02*
X87640000Y-116715000D01*
X87640000Y-116715000D02*
X87640000Y-111205000D01*
X87640000Y-111205000D02*
X85580000Y-109145000D01*
X85580000Y-109145000D02*
X85580000Y-105107000D01*
X85580000Y-105107000D02*
X85725000Y-104962000D01*
X85725000Y-104962000D02*
X85725000Y-98425000D01*
X85725000Y-98425000D02*
X84375000Y-98425000D01*
X84375000Y-98425000D02*
X84328000Y-98378000D01*
X84328000Y-98378000D02*
X84328000Y-92818000D01*
X84328000Y-92818000D02*
X88977100Y-88168900D01*
X88977100Y-88168900D02*
X96184300Y-88168900D01*
X96184300Y-88168900D02*
X97790000Y-86563200D01*
G04 #@! TO.N,/1.65V*
X146030100Y-78998000D02*
X147339700Y-80307700D01*
X147339700Y-80307700D02*
X147339700Y-80645000D01*
X146050000Y-78105000D02*
X146030000Y-78125000D01*
X146030000Y-78125000D02*
X146030000Y-78998000D01*
X146030000Y-78998000D02*
X146030100Y-78998000D01*
X142240000Y-83185000D02*
X142240000Y-82788100D01*
X142240000Y-82788100D02*
X146030100Y-78998000D01*
X148590000Y-80645000D02*
X147339700Y-80645000D01*
D30*
G04 #@! TO.N,IR_SENSOR*
X127508000Y-83312000D02*
X128683300Y-83312000D01*
X146050000Y-73025000D02*
X139700000Y-79375000D01*
X139700000Y-79375000D02*
X135808800Y-79375000D01*
X135808800Y-79375000D02*
X133047100Y-82136700D01*
X133047100Y-82136700D02*
X129491200Y-82136700D01*
X129491200Y-82136700D02*
X128683300Y-82944600D01*
X128683300Y-82944600D02*
X128683300Y-83312000D01*
G04 #@! TO.N,Net-(D2-Pad2)*
X98044000Y-99060000D02*
X97018700Y-99060000D01*
X97018700Y-99060000D02*
X90033700Y-106045000D01*
X90033700Y-106045000D02*
X87630000Y-106045000D01*
G04 #@! TO.N,Net-(D3-Pad2)*
X140970000Y-109220000D02*
X140970000Y-108194700D01*
X140970000Y-108194700D02*
X139916500Y-107141200D01*
X139916500Y-107141200D02*
X139916500Y-106247300D01*
X139916500Y-106247300D02*
X140753800Y-105410000D01*
X140753800Y-105410000D02*
X163576000Y-105410000D01*
D31*
G04 #@! TO.N,Net-(J2-Pad1)*
X89535000Y-73660000D02*
X84455000Y-73660000D01*
D30*
G04 #@! TO.N,SWCLK*
X119888000Y-108712000D02*
X121063300Y-108712000D01*
X165100000Y-113944000D02*
X163924700Y-113944000D01*
X163924700Y-113944000D02*
X161250300Y-111269600D01*
X161250300Y-111269600D02*
X123253600Y-111269600D01*
X123253600Y-111269600D02*
X121063300Y-109079300D01*
X121063300Y-109079300D02*
X121063300Y-108712000D01*
G04 #@! TO.N,SWDIO*
X117348000Y-106172000D02*
X117348000Y-107347300D01*
X165100000Y-119024000D02*
X163924700Y-119024000D01*
X163924700Y-119024000D02*
X160092800Y-115192100D01*
X160092800Y-115192100D02*
X134907800Y-115192100D01*
X134907800Y-115192100D02*
X133456700Y-113741000D01*
X133456700Y-113741000D02*
X122308700Y-113741000D01*
X122308700Y-113741000D02*
X121225400Y-112657700D01*
X121225400Y-112657700D02*
X121225400Y-112140500D01*
X121225400Y-112140500D02*
X118523300Y-109438400D01*
X118523300Y-109438400D02*
X118523300Y-108155200D01*
X118523300Y-108155200D02*
X117715400Y-107347300D01*
X117715400Y-107347300D02*
X117348000Y-107347300D01*
G04 #@! TO.N,NRST*
X165100000Y-121564000D02*
X163924700Y-121564000D01*
X99568000Y-83312000D02*
X100743300Y-83312000D01*
X100743300Y-83312000D02*
X100743300Y-82944700D01*
X100743300Y-82944700D02*
X101551400Y-82136600D01*
X101551400Y-82136600D02*
X102633600Y-82136600D01*
X102633600Y-82136600D02*
X103312200Y-82815200D01*
X103312200Y-82815200D02*
X103312200Y-92104500D01*
X103312200Y-92104500D02*
X105315400Y-94107700D01*
X105315400Y-94107700D02*
X105933500Y-94107700D01*
X105933500Y-94107700D02*
X116064600Y-104238800D01*
X116064600Y-104238800D02*
X116064600Y-109973200D01*
X116064600Y-109973200D02*
X120442100Y-114350700D01*
X120442100Y-114350700D02*
X132186900Y-114350700D01*
X132186900Y-114350700D02*
X134548800Y-116712600D01*
X134548800Y-116712600D02*
X159073300Y-116712600D01*
X159073300Y-116712600D02*
X163924700Y-121564000D01*
G04 #@! TO.N,RX*
X131445000Y-75565000D02*
X130269700Y-75565000D01*
X130269700Y-75565000D02*
X130269700Y-75197700D01*
X130269700Y-75197700D02*
X129431300Y-74359300D01*
X129431300Y-74359300D02*
X112521000Y-74359300D01*
X112521000Y-74359300D02*
X111665400Y-75214900D01*
X111665400Y-75214900D02*
X111665400Y-76549700D01*
X111665400Y-76549700D02*
X110917000Y-77298100D01*
X110917000Y-77298100D02*
X108992900Y-77298100D01*
X108992900Y-77298100D02*
X105984800Y-80306200D01*
X105984800Y-80306200D02*
X105984800Y-84447100D01*
X105984800Y-84447100D02*
X104356500Y-86075400D01*
X104356500Y-86075400D02*
X104356500Y-89820500D01*
G04 #@! TO.N,TX*
X107264600Y-90906200D02*
X112528300Y-85642500D01*
X112528300Y-85642500D02*
X128961000Y-85642500D01*
G04 #@! TO.N,Net-(J5-Pad1)*
X112395000Y-123825000D02*
X111194700Y-123825000D01*
X111194700Y-123825000D02*
X106749700Y-119380000D01*
X106749700Y-119380000D02*
X106045000Y-119380000D01*
G04 #@! TO.N,Net-(J5-Pad3)*
X117395000Y-123825000D02*
X116194600Y-125025400D01*
X116194600Y-125025400D02*
X110676700Y-125025400D01*
X110676700Y-125025400D02*
X109857300Y-124206000D01*
X109857300Y-124206000D02*
X107964100Y-124206000D01*
X107964100Y-124206000D02*
X103505000Y-119746900D01*
X103505000Y-119746900D02*
X103505000Y-119380000D01*
G04 #@! TO.N,Net-(J5-Pad4)*
X119895000Y-123825000D02*
X122532500Y-121187500D01*
X122532500Y-121187500D02*
X127097500Y-121187500D01*
X127097500Y-121187500D02*
X128905000Y-119380000D01*
G04 #@! TO.N,LCD_RESET*
X109728000Y-83312000D02*
X109728000Y-82136700D01*
X113030000Y-75565000D02*
X113030000Y-76740300D01*
X113030000Y-76740300D02*
X110903300Y-78867000D01*
X110903300Y-78867000D02*
X110903300Y-81328800D01*
X110903300Y-81328800D02*
X110095400Y-82136700D01*
X110095400Y-82136700D02*
X109728000Y-82136700D01*
G04 #@! TO.N,LCD_SCL*
X122428000Y-108712000D02*
X122428000Y-107536700D01*
X136419700Y-87148000D02*
X136419700Y-92128600D01*
X136419700Y-92128600D02*
X133298300Y-95250000D01*
X133298300Y-95250000D02*
X132882100Y-95250000D01*
X132882100Y-95250000D02*
X123603300Y-104528800D01*
X123603300Y-104528800D02*
X123603300Y-106728800D01*
X123603300Y-106728800D02*
X122795400Y-107536700D01*
X122795400Y-107536700D02*
X122428000Y-107536700D01*
G04 #@! TO.N,SW*
X124968000Y-108712000D02*
X126143300Y-108712000D01*
X133350000Y-109220000D02*
X132682700Y-109887300D01*
X132682700Y-109887300D02*
X126951200Y-109887300D01*
X126951200Y-109887300D02*
X126143300Y-109079400D01*
X126143300Y-109079400D02*
X126143300Y-108712000D01*
G04 #@! TO.N,BUZZER*
X124968000Y-106172000D02*
X126143300Y-106172000D01*
X126143300Y-106172000D02*
X126143300Y-105657800D01*
X126143300Y-105657800D02*
X131471100Y-100330000D01*
X131471100Y-100330000D02*
X142290400Y-100330000D01*
X142290400Y-100330000D02*
X152044000Y-90576400D01*
G04 #@! TO.N,7SEG_A*
X127508000Y-108712000D02*
X128683300Y-108712000D01*
X133096000Y-104140000D02*
X133096000Y-105165300D01*
X133096000Y-105165300D02*
X130724600Y-107536700D01*
X130724600Y-107536700D02*
X129491200Y-107536700D01*
X129491200Y-107536700D02*
X128683300Y-108344600D01*
X128683300Y-108344600D02*
X128683300Y-108712000D01*
G04 #@! TO.N,7SEG_B*
X127508000Y-106172000D02*
X127508000Y-104996700D01*
X133096000Y-101600000D02*
X132070700Y-101600000D01*
X132070700Y-101600000D02*
X128674000Y-104996700D01*
X128674000Y-104996700D02*
X127508000Y-104996700D01*
G04 #@! TO.N,IR_LED*
X119888000Y-80772000D02*
X121063300Y-80772000D01*
X160655000Y-80645000D02*
X160655000Y-79519700D01*
X160655000Y-79519700D02*
X160936300Y-79519700D01*
X160936300Y-79519700D02*
X161780400Y-78675600D01*
X161780400Y-78675600D02*
X161780400Y-74630200D01*
X161780400Y-74630200D02*
X161139500Y-73989300D01*
X161139500Y-73989300D02*
X150760400Y-73989300D01*
X150760400Y-73989300D02*
X148756800Y-71985700D01*
X148756800Y-71985700D02*
X137826600Y-71985700D01*
X137826600Y-71985700D02*
X130215600Y-79596700D01*
X130215600Y-79596700D02*
X121871200Y-79596700D01*
X121871200Y-79596700D02*
X121063300Y-80404600D01*
X121063300Y-80404600D02*
X121063300Y-80772000D01*
G04 #@! TO.N,7SEG_F*
X133096000Y-90414700D02*
X134144000Y-89366700D01*
X134144000Y-89366700D02*
X134144000Y-85953700D01*
X134144000Y-85953700D02*
X132677600Y-84487300D01*
X132677600Y-84487300D02*
X116791200Y-84487300D01*
X116791200Y-84487300D02*
X115983300Y-83679400D01*
X115983300Y-83679400D02*
X115983300Y-83312000D01*
X114808000Y-83312000D02*
X115983300Y-83312000D01*
X133096000Y-91440000D02*
X133096000Y-90414700D01*
G04 #@! TO.N,7SEG_H*
X112268000Y-83312000D02*
X113443300Y-83312000D01*
X133096000Y-86360000D02*
X132070700Y-86360000D01*
X132070700Y-86360000D02*
X130724400Y-85013700D01*
X130724400Y-85013700D02*
X114777700Y-85013700D01*
X114777700Y-85013700D02*
X113443300Y-83679300D01*
X113443300Y-83679300D02*
X113443300Y-83312000D01*
G04 #@! TO.N,Net-(L1-Pad2)*
X117856000Y-71628000D02*
X112093600Y-71628000D01*
X112093600Y-71628000D02*
X109797400Y-73924200D01*
X109797400Y-73924200D02*
X109160500Y-73924200D01*
X109160500Y-73924200D02*
X105077200Y-78007500D01*
X105077200Y-78007500D02*
X95118900Y-78007500D01*
X95118900Y-78007500D02*
X91440000Y-81686400D01*
G04 #@! TO.N,Net-(Q1-Pad1)*
X104775000Y-70485000D02*
X105950300Y-70485000D01*
X110236000Y-68580000D02*
X107855300Y-68580000D01*
X107855300Y-68580000D02*
X105950300Y-70485000D01*
X104775000Y-70485000D02*
X99060000Y-70485000D01*
G04 #@! TO.N,Net-(Q2-Pad3)*
X160655000Y-78105000D02*
X159529700Y-78105000D01*
X146050000Y-75565000D02*
X147464700Y-76979700D01*
X147464700Y-76979700D02*
X158404400Y-76979700D01*
X158404400Y-76979700D02*
X159529700Y-78105000D01*
G04 #@! TO.N,Net-(R15-Pad1)*
X157480000Y-109474000D02*
X157480000Y-107886700D01*
X140716000Y-104140000D02*
X139466100Y-105389900D01*
X139466100Y-105389900D02*
X139466100Y-109237500D01*
X139466100Y-109237500D02*
X140500000Y-110271400D01*
X140500000Y-110271400D02*
X144928500Y-110271400D01*
X144928500Y-110271400D02*
X147313200Y-107886700D01*
X147313200Y-107886700D02*
X157480000Y-107886700D01*
G04 #@! TO.N,Net-(R16-Pad1)*
X140716000Y-101600000D02*
X141427400Y-102311400D01*
X141427400Y-102311400D02*
X165301200Y-102311400D01*
X165301200Y-102311400D02*
X167341400Y-104351600D01*
X167341400Y-104351600D02*
X167341400Y-106449000D01*
X167341400Y-106449000D02*
X164316400Y-109474000D01*
X164316400Y-109474000D02*
X160020000Y-109474000D01*
G04 #@! TO.N,Net-(R22-Pad1)*
X140716000Y-86360000D02*
X152721600Y-86360000D01*
X152721600Y-86360000D02*
X165080000Y-98718400D01*
X165080000Y-98718400D02*
X165080000Y-100739700D01*
X165080000Y-100739700D02*
X167817200Y-103476900D01*
X167817200Y-103476900D02*
X167817200Y-120513200D01*
X167817200Y-120513200D02*
X163616400Y-124714000D01*
X163616400Y-124714000D02*
X160020000Y-124714000D01*
G04 #@! TO.N,Net-(R23-Pad2)*
X159529700Y-75565000D02*
X158404400Y-74439700D01*
X158404400Y-74439700D02*
X145543100Y-74439700D01*
X145543100Y-74439700D02*
X139629300Y-80353500D01*
X139629300Y-80353500D02*
X139629300Y-83054100D01*
X139629300Y-83054100D02*
X134794600Y-87888800D01*
X134794600Y-87888800D02*
X134794600Y-91211200D01*
X134794600Y-91211200D02*
X133466700Y-92539100D01*
X133466700Y-92539100D02*
X107114200Y-92539100D01*
X107114200Y-92539100D02*
X106689300Y-92964000D01*
X160655000Y-75565000D02*
X159529700Y-75565000D01*
X105664000Y-92964000D02*
X106689300Y-92964000D01*
G04 #@! TO.N,Net-(R11-Pad1)*
X141628000Y-113538000D02*
X135128000Y-113538000D01*
G04 #@! TD*
D32*
G04 #@! TO.N,GND*
G36*
X173280000Y-126290000D02*
X160924184Y-126290000D01*
X161027180Y-126221180D01*
X161335944Y-125759082D01*
X161392651Y-125474000D01*
X163541553Y-125474000D01*
X163616400Y-125488888D01*
X163691247Y-125474000D01*
X163691252Y-125474000D01*
X163912937Y-125429904D01*
X164164329Y-125261929D01*
X164206731Y-125198470D01*
X168301676Y-121103527D01*
X168365129Y-121061129D01*
X168407527Y-120997676D01*
X168407529Y-120997674D01*
X168533103Y-120809738D01*
X168533104Y-120809737D01*
X168577200Y-120588052D01*
X168577200Y-120588048D01*
X168592088Y-120513201D01*
X168577200Y-120438354D01*
X168577200Y-103551746D01*
X168592088Y-103476899D01*
X168577200Y-103402052D01*
X168577200Y-103402048D01*
X168533104Y-103180363D01*
X168456358Y-103065504D01*
X168407529Y-102992426D01*
X168407527Y-102992424D01*
X168365129Y-102928971D01*
X168301676Y-102886573D01*
X165840000Y-100424899D01*
X165840000Y-100408758D01*
X166113223Y-100506965D01*
X166683454Y-100479778D01*
X167084005Y-100313864D01*
X167158139Y-100067745D01*
X166330000Y-99239605D01*
X166315858Y-99253748D01*
X166136253Y-99074143D01*
X166150395Y-99060000D01*
X166509605Y-99060000D01*
X167337745Y-99888139D01*
X167583864Y-99814005D01*
X167776965Y-99276777D01*
X167749778Y-98706546D01*
X167583864Y-98305995D01*
X167337745Y-98231861D01*
X166509605Y-99060000D01*
X166150395Y-99060000D01*
X166136253Y-99045858D01*
X166315858Y-98866252D01*
X166330000Y-98880395D01*
X167158139Y-98052255D01*
X167084005Y-97806136D01*
X166546777Y-97613035D01*
X165976546Y-97640222D01*
X165575995Y-97806136D01*
X165501861Y-98052253D01*
X165386986Y-97937378D01*
X165380383Y-97943981D01*
X164119655Y-96683254D01*
X164642862Y-96466534D01*
X164851651Y-96257745D01*
X165501861Y-96257745D01*
X165575995Y-96503864D01*
X166113223Y-96696965D01*
X166683454Y-96669778D01*
X167084005Y-96503864D01*
X167158139Y-96257745D01*
X166330000Y-95429605D01*
X165501861Y-96257745D01*
X164851651Y-96257745D01*
X165046534Y-96062862D01*
X165073525Y-95997701D01*
X165076136Y-96004005D01*
X165322255Y-96078139D01*
X166150395Y-95250000D01*
X166509605Y-95250000D01*
X167337745Y-96078139D01*
X167583864Y-96004005D01*
X167776965Y-95466777D01*
X167749778Y-94896546D01*
X167583864Y-94495995D01*
X167337745Y-94421861D01*
X166509605Y-95250000D01*
X166150395Y-95250000D01*
X165322255Y-94421861D01*
X165076136Y-94495995D01*
X165073710Y-94502746D01*
X165046534Y-94437138D01*
X164851651Y-94242255D01*
X165501861Y-94242255D01*
X166330000Y-95070395D01*
X167158139Y-94242255D01*
X167084005Y-93996136D01*
X167063707Y-93988840D01*
X167124005Y-93963864D01*
X167198139Y-93717745D01*
X166370000Y-92889605D01*
X165541861Y-93717745D01*
X165615995Y-93963864D01*
X165636293Y-93971160D01*
X165575995Y-93996136D01*
X165501861Y-94242255D01*
X164851651Y-94242255D01*
X164642862Y-94033466D01*
X164533784Y-93988284D01*
X164682862Y-93926534D01*
X165086534Y-93522862D01*
X165113525Y-93457701D01*
X165116136Y-93464005D01*
X165362255Y-93538139D01*
X166190395Y-92710000D01*
X166549605Y-92710000D01*
X167377745Y-93538139D01*
X167623864Y-93464005D01*
X167816965Y-92926777D01*
X167789778Y-92356546D01*
X167623864Y-91955995D01*
X167377745Y-91881861D01*
X166549605Y-92710000D01*
X166190395Y-92710000D01*
X165362255Y-91881861D01*
X165116136Y-91955995D01*
X165113710Y-91962746D01*
X165086534Y-91897138D01*
X164891651Y-91702255D01*
X165541861Y-91702255D01*
X166370000Y-92530395D01*
X167198139Y-91702255D01*
X167124005Y-91456136D01*
X166586777Y-91263035D01*
X166016546Y-91290222D01*
X165615995Y-91456136D01*
X165541861Y-91702255D01*
X164891651Y-91702255D01*
X164682862Y-91493466D01*
X164155439Y-91275000D01*
X163584561Y-91275000D01*
X163057138Y-91493466D01*
X162653466Y-91897138D01*
X162435000Y-92424561D01*
X162435000Y-92995439D01*
X162653466Y-93522862D01*
X163057138Y-93926534D01*
X163166216Y-93971716D01*
X163017138Y-94033466D01*
X162613466Y-94437138D01*
X162396746Y-94960345D01*
X156070853Y-88634452D01*
X161225000Y-88634452D01*
X161225000Y-89165548D01*
X161428242Y-89656217D01*
X161803783Y-90031758D01*
X162294452Y-90235000D01*
X162825548Y-90235000D01*
X163316217Y-90031758D01*
X163691758Y-89656217D01*
X163866924Y-89233329D01*
X168887284Y-89233329D01*
X169030203Y-89578396D01*
X169377337Y-89966764D01*
X169846669Y-90192727D01*
X170053000Y-90070206D01*
X170053000Y-89027000D01*
X170307000Y-89027000D01*
X170307000Y-90070206D01*
X170513331Y-90192727D01*
X170982663Y-89966764D01*
X171329797Y-89578396D01*
X171472716Y-89233329D01*
X171349374Y-89027000D01*
X170307000Y-89027000D01*
X170053000Y-89027000D01*
X169010626Y-89027000D01*
X168887284Y-89233329D01*
X163866924Y-89233329D01*
X163895000Y-89165548D01*
X163895000Y-88634452D01*
X163866925Y-88566671D01*
X168887284Y-88566671D01*
X169010626Y-88773000D01*
X170053000Y-88773000D01*
X170053000Y-87729794D01*
X170307000Y-87729794D01*
X170307000Y-88773000D01*
X171349374Y-88773000D01*
X171472716Y-88566671D01*
X171329797Y-88221604D01*
X170982663Y-87833236D01*
X170513331Y-87607273D01*
X170307000Y-87729794D01*
X170053000Y-87729794D01*
X169846669Y-87607273D01*
X169377337Y-87833236D01*
X169030203Y-88221604D01*
X168887284Y-88566671D01*
X163866925Y-88566671D01*
X163691758Y-88143783D01*
X163316217Y-87768242D01*
X162825548Y-87565000D01*
X162294452Y-87565000D01*
X161803783Y-87768242D01*
X161428242Y-88143783D01*
X161225000Y-88634452D01*
X156070853Y-88634452D01*
X153311931Y-85875530D01*
X153269529Y-85812071D01*
X153018137Y-85644096D01*
X152796452Y-85600000D01*
X152796447Y-85600000D01*
X152721600Y-85585112D01*
X152646753Y-85600000D01*
X141843975Y-85600000D01*
X141472217Y-85228242D01*
X140981548Y-85025000D01*
X140450452Y-85025000D01*
X139959783Y-85228242D01*
X139584242Y-85603783D01*
X139381000Y-86094452D01*
X139381000Y-86625548D01*
X139584242Y-87116217D01*
X139959783Y-87491758D01*
X140293528Y-87630000D01*
X139959783Y-87768242D01*
X139584242Y-88143783D01*
X139381000Y-88634452D01*
X139381000Y-89165548D01*
X139584242Y-89656217D01*
X139959783Y-90031758D01*
X140293528Y-90170000D01*
X139959783Y-90308242D01*
X139584242Y-90683783D01*
X139381000Y-91174452D01*
X139381000Y-91705548D01*
X139584242Y-92196217D01*
X139959783Y-92571758D01*
X140293528Y-92710000D01*
X139959783Y-92848242D01*
X139584242Y-93223783D01*
X139381000Y-93714452D01*
X139381000Y-94245548D01*
X139584242Y-94736217D01*
X139959783Y-95111758D01*
X140293528Y-95250000D01*
X139959783Y-95388242D01*
X139584242Y-95763783D01*
X139381000Y-96254452D01*
X139381000Y-96785548D01*
X139584242Y-97276217D01*
X139959783Y-97651758D01*
X140293528Y-97790000D01*
X139959783Y-97928242D01*
X139584242Y-98303783D01*
X139381000Y-98794452D01*
X139381000Y-99325548D01*
X139482255Y-99570000D01*
X134355708Y-99570000D01*
X134457154Y-99060000D01*
X134353542Y-98539109D01*
X134058481Y-98097519D01*
X133616891Y-97802458D01*
X133554261Y-97790000D01*
X133616891Y-97777542D01*
X134058481Y-97482481D01*
X134353542Y-97040891D01*
X134457154Y-96520000D01*
X134353542Y-95999109D01*
X134061325Y-95561776D01*
X136904173Y-92718929D01*
X136967629Y-92676529D01*
X137135604Y-92425137D01*
X137179700Y-92203452D01*
X137179700Y-92203448D01*
X137194588Y-92128601D01*
X137179700Y-92053754D01*
X137179700Y-87710290D01*
X137212355Y-87677635D01*
X137354700Y-87333983D01*
X137354700Y-86962017D01*
X137212355Y-86618365D01*
X137176096Y-86582106D01*
X140113776Y-83644427D01*
X140177229Y-83602029D01*
X140219627Y-83538576D01*
X140219629Y-83538574D01*
X140321006Y-83386852D01*
X140345204Y-83350637D01*
X140389300Y-83128952D01*
X140389300Y-83128948D01*
X140404188Y-83054101D01*
X140389300Y-82979254D01*
X140389300Y-80668301D01*
X144788441Y-76269161D01*
X144833466Y-76377862D01*
X145237138Y-76781534D01*
X145496872Y-76889120D01*
X145293783Y-76973242D01*
X144918242Y-77348783D01*
X144715000Y-77839452D01*
X144715000Y-78370548D01*
X144917382Y-78859140D01*
X142026522Y-81750000D01*
X141954561Y-81750000D01*
X141427138Y-81968466D01*
X141023466Y-82372138D01*
X140805000Y-82899561D01*
X140805000Y-83470439D01*
X141023466Y-83997862D01*
X141427138Y-84401534D01*
X141954561Y-84620000D01*
X142525439Y-84620000D01*
X143052862Y-84401534D01*
X143261651Y-84192745D01*
X143911861Y-84192745D01*
X143985995Y-84438864D01*
X144523223Y-84631965D01*
X145093454Y-84604778D01*
X145494005Y-84438864D01*
X145568139Y-84192745D01*
X144740000Y-83364605D01*
X143911861Y-84192745D01*
X143261651Y-84192745D01*
X143456534Y-83997862D01*
X143483525Y-83932701D01*
X143486136Y-83939005D01*
X143732255Y-84013139D01*
X144560395Y-83185000D01*
X144919605Y-83185000D01*
X145747745Y-84013139D01*
X145993864Y-83939005D01*
X146139424Y-83534039D01*
X147198096Y-83534039D01*
X147358959Y-83922423D01*
X147734866Y-84337389D01*
X148240959Y-84576914D01*
X148463000Y-84455629D01*
X148463000Y-83312000D01*
X148717000Y-83312000D01*
X148717000Y-84455629D01*
X148939041Y-84576914D01*
X149445134Y-84337389D01*
X149821041Y-83922423D01*
X149981904Y-83534039D01*
X149859915Y-83312000D01*
X148717000Y-83312000D01*
X148463000Y-83312000D01*
X147320085Y-83312000D01*
X147198096Y-83534039D01*
X146139424Y-83534039D01*
X146186965Y-83401777D01*
X146159778Y-82831546D01*
X145993864Y-82430995D01*
X145747745Y-82356861D01*
X144919605Y-83185000D01*
X144560395Y-83185000D01*
X144546252Y-83170858D01*
X144725858Y-82991252D01*
X144740000Y-83005395D01*
X145568139Y-82177255D01*
X145494005Y-81931136D01*
X144956777Y-81738035D01*
X144520860Y-81758818D01*
X144906591Y-81373088D01*
X144918242Y-81401217D01*
X145293783Y-81776758D01*
X145784452Y-81980000D01*
X146315548Y-81980000D01*
X146806217Y-81776758D01*
X147086084Y-81496891D01*
X147252535Y-81530000D01*
X147252536Y-81530000D01*
X147339700Y-81547338D01*
X147426865Y-81530000D01*
X147455479Y-81530000D01*
X147555423Y-81679577D01*
X147939108Y-81935947D01*
X147734866Y-82032611D01*
X147358959Y-82447577D01*
X147198096Y-82835961D01*
X147320085Y-83058000D01*
X148463000Y-83058000D01*
X148463000Y-83038000D01*
X148717000Y-83038000D01*
X148717000Y-83058000D01*
X149859915Y-83058000D01*
X149981904Y-82835961D01*
X149821041Y-82447577D01*
X149445134Y-82032611D01*
X149240892Y-81935947D01*
X149624577Y-81679577D01*
X149941740Y-81204909D01*
X150053113Y-80645000D01*
X149941740Y-80085091D01*
X149624577Y-79610423D01*
X149272242Y-79375000D01*
X149624577Y-79139577D01*
X149941740Y-78664909D01*
X150053113Y-78105000D01*
X149980450Y-77739700D01*
X154819550Y-77739700D01*
X154746887Y-78105000D01*
X154858260Y-78664909D01*
X155175423Y-79139577D01*
X155527758Y-79375000D01*
X155175423Y-79610423D01*
X154858260Y-80085091D01*
X154746887Y-80645000D01*
X154858260Y-81204909D01*
X155175423Y-81679577D01*
X155527758Y-81915000D01*
X155175423Y-82150423D01*
X154858260Y-82625091D01*
X154746887Y-83185000D01*
X154858260Y-83744909D01*
X155175423Y-84219577D01*
X155650091Y-84536740D01*
X156068667Y-84620000D01*
X156351333Y-84620000D01*
X156769909Y-84536740D01*
X157244577Y-84219577D01*
X157561740Y-83744909D01*
X157603684Y-83534039D01*
X159263096Y-83534039D01*
X159423959Y-83922423D01*
X159799866Y-84337389D01*
X160305959Y-84576914D01*
X160528000Y-84455629D01*
X160528000Y-83312000D01*
X160782000Y-83312000D01*
X160782000Y-84455629D01*
X161004041Y-84576914D01*
X161510134Y-84337389D01*
X161886041Y-83922423D01*
X162046904Y-83534039D01*
X161924915Y-83312000D01*
X160782000Y-83312000D01*
X160528000Y-83312000D01*
X159385085Y-83312000D01*
X159263096Y-83534039D01*
X157603684Y-83534039D01*
X157673113Y-83185000D01*
X157561740Y-82625091D01*
X157244577Y-82150423D01*
X156892242Y-81915000D01*
X157244577Y-81679577D01*
X157561740Y-81204909D01*
X157673113Y-80645000D01*
X157561740Y-80085091D01*
X157244577Y-79610423D01*
X156892242Y-79375000D01*
X157244577Y-79139577D01*
X157561740Y-78664909D01*
X157673113Y-78105000D01*
X157600450Y-77739700D01*
X158089599Y-77739700D01*
X158939371Y-78589473D01*
X158981771Y-78652929D01*
X159233163Y-78820904D01*
X159434214Y-78860896D01*
X159620423Y-79139577D01*
X159916386Y-79337333D01*
X159899104Y-79424214D01*
X159620423Y-79610423D01*
X159303260Y-80085091D01*
X159191887Y-80645000D01*
X159303260Y-81204909D01*
X159620423Y-81679577D01*
X160004108Y-81935947D01*
X159799866Y-82032611D01*
X159423959Y-82447577D01*
X159263096Y-82835961D01*
X159385085Y-83058000D01*
X160528000Y-83058000D01*
X160528000Y-83038000D01*
X160782000Y-83038000D01*
X160782000Y-83058000D01*
X161924915Y-83058000D01*
X162046904Y-82835961D01*
X161886041Y-82447577D01*
X161510134Y-82032611D01*
X161305892Y-81935947D01*
X161689577Y-81679577D01*
X162006740Y-81204909D01*
X162118113Y-80645000D01*
X162006740Y-80085091D01*
X161782023Y-79748778D01*
X162264873Y-79265929D01*
X162328329Y-79223529D01*
X162455503Y-79033200D01*
X162496304Y-78972138D01*
X162514473Y-78880796D01*
X162540400Y-78750452D01*
X162540400Y-78750448D01*
X162555288Y-78675600D01*
X162540400Y-78600752D01*
X162540400Y-74705046D01*
X162555288Y-74630199D01*
X162540400Y-74555352D01*
X162540400Y-74555348D01*
X162496304Y-74333663D01*
X162436958Y-74244845D01*
X162370729Y-74145726D01*
X162370727Y-74145724D01*
X162328329Y-74082271D01*
X162264875Y-74039872D01*
X161729830Y-73504829D01*
X161687429Y-73441371D01*
X161614819Y-73392855D01*
X161677797Y-73322396D01*
X161820716Y-72977329D01*
X161697374Y-72771000D01*
X160655000Y-72771000D01*
X160655000Y-72791000D01*
X160401000Y-72791000D01*
X160401000Y-72771000D01*
X159358626Y-72771000D01*
X159235284Y-72977329D01*
X159339645Y-73229300D01*
X151075203Y-73229300D01*
X150156573Y-72310671D01*
X159235284Y-72310671D01*
X159358626Y-72517000D01*
X160401000Y-72517000D01*
X160401000Y-71473794D01*
X160655000Y-71473794D01*
X160655000Y-72517000D01*
X161697374Y-72517000D01*
X161820716Y-72310671D01*
X161677797Y-71965604D01*
X161330663Y-71577236D01*
X160861331Y-71351273D01*
X160655000Y-71473794D01*
X160401000Y-71473794D01*
X160194669Y-71351273D01*
X159725337Y-71577236D01*
X159378203Y-71965604D01*
X159235284Y-72310671D01*
X150156573Y-72310671D01*
X149347131Y-71501230D01*
X149304729Y-71437771D01*
X149053337Y-71269796D01*
X148831652Y-71225700D01*
X148831647Y-71225700D01*
X148756800Y-71210812D01*
X148681953Y-71225700D01*
X146026425Y-71225700D01*
X146215000Y-70770439D01*
X146215000Y-70199561D01*
X146103468Y-69930300D01*
X158129553Y-69930300D01*
X158204400Y-69945188D01*
X158279247Y-69930300D01*
X158279252Y-69930300D01*
X158500937Y-69886204D01*
X158752329Y-69718229D01*
X158794731Y-69654770D01*
X159236909Y-69212592D01*
X159297191Y-69302809D01*
X159507235Y-69443157D01*
X159755000Y-69492440D01*
X161555000Y-69492440D01*
X161802765Y-69443157D01*
X162012809Y-69302809D01*
X162153157Y-69092765D01*
X162156275Y-69077092D01*
X162325493Y-69246310D01*
X162889670Y-69480000D01*
X163500330Y-69480000D01*
X164064507Y-69246310D01*
X164496310Y-68814507D01*
X164572409Y-68630788D01*
X164781301Y-68839680D01*
X164781300Y-71775139D01*
X164763963Y-71862300D01*
X164781300Y-71949461D01*
X164781300Y-71949464D01*
X164832648Y-72207609D01*
X165028251Y-72500349D01*
X165102147Y-72549725D01*
X167177306Y-74624885D01*
X166923260Y-75005091D01*
X166811887Y-75565000D01*
X166923260Y-76124909D01*
X167240423Y-76599577D01*
X167592758Y-76835000D01*
X167240423Y-77070423D01*
X166923260Y-77545091D01*
X166811887Y-78105000D01*
X166923260Y-78664909D01*
X167240423Y-79139577D01*
X167592758Y-79375000D01*
X167240423Y-79610423D01*
X166923260Y-80085091D01*
X166811887Y-80645000D01*
X166923260Y-81204909D01*
X167240423Y-81679577D01*
X167592758Y-81915000D01*
X167240423Y-82150423D01*
X166923260Y-82625091D01*
X166811887Y-83185000D01*
X166923260Y-83744909D01*
X167240423Y-84219577D01*
X167715091Y-84536740D01*
X168133667Y-84620000D01*
X168416333Y-84620000D01*
X168834909Y-84536740D01*
X169309577Y-84219577D01*
X169626740Y-83744909D01*
X169738113Y-83185000D01*
X169626740Y-82625091D01*
X169309577Y-82150423D01*
X168957242Y-81915000D01*
X169309577Y-81679577D01*
X169626740Y-81204909D01*
X169738113Y-80645000D01*
X169626740Y-80085091D01*
X169309577Y-79610423D01*
X168957242Y-79375000D01*
X169309577Y-79139577D01*
X169626740Y-78664909D01*
X169738113Y-78105000D01*
X169626740Y-77545091D01*
X169309577Y-77070423D01*
X168957242Y-76835000D01*
X169309577Y-76599577D01*
X169626740Y-76124909D01*
X169738113Y-75565000D01*
X169626740Y-75005091D01*
X169309577Y-74530423D01*
X169160000Y-74430479D01*
X169160000Y-74401865D01*
X169177338Y-74314700D01*
X169157161Y-74213260D01*
X169108652Y-73969390D01*
X168949208Y-73730767D01*
X169279758Y-73400217D01*
X169483000Y-72909548D01*
X169483000Y-72378452D01*
X169279758Y-71887783D01*
X168904217Y-71512242D01*
X168413548Y-71309000D01*
X167882452Y-71309000D01*
X167391783Y-71512242D01*
X167016242Y-71887783D01*
X166994896Y-71939317D01*
X166551300Y-71495722D01*
X166551300Y-68560259D01*
X166568637Y-68473099D01*
X166551300Y-68385939D01*
X166551300Y-68385935D01*
X166499952Y-68127790D01*
X166304349Y-67835051D01*
X166230456Y-67785677D01*
X164475225Y-66030447D01*
X164425849Y-65956551D01*
X164133110Y-65760948D01*
X163874965Y-65709600D01*
X163874961Y-65709600D01*
X163787800Y-65692263D01*
X163700639Y-65709600D01*
X155742561Y-65709600D01*
X155655400Y-65692263D01*
X155568239Y-65709600D01*
X155568235Y-65709600D01*
X155310090Y-65760948D01*
X155091245Y-65907176D01*
X155091244Y-65907177D01*
X155017351Y-65956551D01*
X154967977Y-66030444D01*
X154588421Y-66410000D01*
X154021578Y-66410000D01*
X153642025Y-66030447D01*
X153592649Y-65956551D01*
X153299910Y-65760948D01*
X153041765Y-65709600D01*
X153041761Y-65709600D01*
X152954600Y-65692263D01*
X152867439Y-65709600D01*
X140702659Y-65709600D01*
X140615499Y-65692263D01*
X140528340Y-65709600D01*
X140528335Y-65709600D01*
X140270190Y-65760948D01*
X140107086Y-65869931D01*
X140051345Y-65907176D01*
X140051344Y-65907177D01*
X139977451Y-65956551D01*
X139928077Y-66030444D01*
X136739522Y-69219000D01*
X119036311Y-69219000D01*
X119191000Y-68845548D01*
X119191000Y-68314452D01*
X118987758Y-67823783D01*
X118612217Y-67448242D01*
X118121548Y-67245000D01*
X117590452Y-67245000D01*
X117099783Y-67448242D01*
X116724242Y-67823783D01*
X116521000Y-68314452D01*
X116521000Y-68845548D01*
X116675689Y-69219000D01*
X111414624Y-69219000D01*
X111493542Y-69100891D01*
X111597154Y-68580000D01*
X111493542Y-68059109D01*
X111198481Y-67617519D01*
X110756891Y-67322458D01*
X110367485Y-67245000D01*
X110104515Y-67245000D01*
X109715109Y-67322458D01*
X109273519Y-67617519D01*
X109138226Y-67820000D01*
X107930148Y-67820000D01*
X107855300Y-67805112D01*
X107780452Y-67820000D01*
X107780448Y-67820000D01*
X107606905Y-67854520D01*
X107558762Y-67864096D01*
X107371718Y-67989076D01*
X107307371Y-68032071D01*
X107264971Y-68095527D01*
X106123063Y-69237435D01*
X106082809Y-69177191D01*
X105872765Y-69036843D01*
X105625000Y-68987560D01*
X103925000Y-68987560D01*
X103677235Y-69036843D01*
X103467191Y-69177191D01*
X103326843Y-69387235D01*
X103277560Y-69635000D01*
X103277560Y-69725000D01*
X100607440Y-69725000D01*
X100607440Y-69585000D01*
X100558157Y-69337235D01*
X100417809Y-69127191D01*
X100207765Y-68986843D01*
X99960000Y-68937560D01*
X98160000Y-68937560D01*
X97912235Y-68986843D01*
X97702191Y-69127191D01*
X97561843Y-69337235D01*
X97512560Y-69585000D01*
X97512560Y-71385000D01*
X97561843Y-71632765D01*
X97702191Y-71842809D01*
X97910696Y-71982129D01*
X97614062Y-72426073D01*
X97494928Y-73025000D01*
X97614062Y-73623927D01*
X97953327Y-74131673D01*
X98197763Y-74295000D01*
X97953327Y-74458327D01*
X97614062Y-74966073D01*
X97494928Y-75565000D01*
X97614062Y-76163927D01*
X97953327Y-76671673D01*
X98461073Y-77010938D01*
X98908818Y-77100000D01*
X99211182Y-77100000D01*
X99658927Y-77010938D01*
X100166673Y-76671673D01*
X100206215Y-76612494D01*
X100841221Y-77247500D01*
X95193746Y-77247500D01*
X95118899Y-77232612D01*
X95044052Y-77247500D01*
X95044048Y-77247500D01*
X94822363Y-77291596D01*
X94570971Y-77459571D01*
X94528571Y-77523027D01*
X91895021Y-80156578D01*
X91755773Y-80098900D01*
X91124227Y-80098900D01*
X90540753Y-80340582D01*
X90094182Y-80787153D01*
X89852500Y-81370627D01*
X89852500Y-82002173D01*
X90094182Y-82585647D01*
X90540753Y-83032218D01*
X91124227Y-83273900D01*
X91755773Y-83273900D01*
X92339247Y-83032218D01*
X92785818Y-82585647D01*
X93027500Y-82002173D01*
X93027500Y-81370627D01*
X92969822Y-81231379D01*
X95433702Y-78767500D01*
X98810298Y-78767500D01*
X92408213Y-85169586D01*
X92392500Y-85166460D01*
X90487500Y-85166460D01*
X90239735Y-85215743D01*
X90029691Y-85356091D01*
X89889343Y-85566135D01*
X89840060Y-85813900D01*
X89840060Y-87283900D01*
X89064259Y-87283900D01*
X88977099Y-87266563D01*
X88889939Y-87283900D01*
X88889935Y-87283900D01*
X88631790Y-87335248D01*
X88631788Y-87335249D01*
X88631789Y-87335249D01*
X88412945Y-87481476D01*
X88412944Y-87481477D01*
X88339051Y-87530851D01*
X88289677Y-87604744D01*
X83763845Y-92130577D01*
X83689952Y-92179951D01*
X83640578Y-92253844D01*
X83640576Y-92253846D01*
X83494348Y-92472691D01*
X83425663Y-92818000D01*
X83443001Y-92905165D01*
X83443000Y-98290839D01*
X83425663Y-98378000D01*
X83443000Y-98465161D01*
X83443000Y-98465164D01*
X83494348Y-98723309D01*
X83689951Y-99016049D01*
X83718125Y-99034875D01*
X83736951Y-99063049D01*
X84029690Y-99258652D01*
X84232326Y-99298959D01*
X84276843Y-99522765D01*
X84417191Y-99732809D01*
X84627235Y-99873157D01*
X84840001Y-99915478D01*
X84840000Y-104621531D01*
X84746348Y-104761691D01*
X84677663Y-105107000D01*
X84695001Y-105194165D01*
X84695000Y-109057839D01*
X84677663Y-109145000D01*
X84695000Y-109232161D01*
X84695000Y-109232164D01*
X84746348Y-109490309D01*
X84941951Y-109783049D01*
X85015847Y-109832425D01*
X86755001Y-111571580D01*
X86755001Y-113820000D01*
X85725750Y-113820000D01*
X85567000Y-113978750D01*
X85567000Y-116078000D01*
X85587000Y-116078000D01*
X85587000Y-116332000D01*
X85567000Y-116332000D01*
X85567000Y-118431250D01*
X85725750Y-118590000D01*
X86394696Y-118590000D01*
X86330302Y-118616673D01*
X86151673Y-118795301D01*
X86055000Y-119028690D01*
X86055000Y-120619250D01*
X86213750Y-120778000D01*
X88313000Y-120778000D01*
X88313000Y-120758000D01*
X88567000Y-120758000D01*
X88567000Y-120778000D01*
X90666250Y-120778000D01*
X90825000Y-120619250D01*
X90825000Y-119590000D01*
X91130022Y-119590000D01*
X94380177Y-122840156D01*
X94429551Y-122914049D01*
X94503444Y-122963423D01*
X94503445Y-122963424D01*
X94655464Y-123065000D01*
X94722290Y-123109652D01*
X94935281Y-123152018D01*
X94969443Y-123323765D01*
X95109791Y-123533809D01*
X95319835Y-123674157D01*
X95553787Y-123720693D01*
X95539461Y-123768255D01*
X96367600Y-124596395D01*
X97195739Y-123768255D01*
X97181413Y-123720693D01*
X97415365Y-123674157D01*
X97625409Y-123533809D01*
X97765757Y-123323765D01*
X97815040Y-123076000D01*
X97815040Y-122670452D01*
X99249000Y-122670452D01*
X99249000Y-123201548D01*
X99452242Y-123692217D01*
X99827783Y-124067758D01*
X100184070Y-124215337D01*
X99781337Y-124409236D01*
X99434203Y-124797604D01*
X99291284Y-125142671D01*
X99414626Y-125349000D01*
X100457000Y-125349000D01*
X100457000Y-125329000D01*
X100711000Y-125329000D01*
X100711000Y-125349000D01*
X101753374Y-125349000D01*
X101876716Y-125142671D01*
X101733797Y-124797604D01*
X101386663Y-124409236D01*
X100983930Y-124215337D01*
X101340217Y-124067758D01*
X101715758Y-123692217D01*
X101919000Y-123201548D01*
X101919000Y-122670452D01*
X101715758Y-122179783D01*
X101340217Y-121804242D01*
X100849548Y-121601000D01*
X100318452Y-121601000D01*
X99827783Y-121804242D01*
X99452242Y-122179783D01*
X99249000Y-122670452D01*
X97815040Y-122670452D01*
X97815040Y-121476000D01*
X97765757Y-121228235D01*
X97625409Y-121018191D01*
X97415365Y-120877843D01*
X97167600Y-120828560D01*
X95567600Y-120828560D01*
X95319835Y-120877843D01*
X95109791Y-121018191D01*
X95090396Y-121047217D01*
X92645618Y-118602440D01*
X93190000Y-118602440D01*
X93437765Y-118553157D01*
X93647809Y-118412809D01*
X93788157Y-118202765D01*
X93837440Y-117955000D01*
X93837440Y-115535926D01*
X93948690Y-115804507D01*
X94380493Y-116236310D01*
X94944670Y-116470000D01*
X95555330Y-116470000D01*
X96119507Y-116236310D01*
X96288725Y-116067092D01*
X96291843Y-116082765D01*
X96432191Y-116292809D01*
X96642235Y-116433157D01*
X96890000Y-116482440D01*
X98690000Y-116482440D01*
X98937765Y-116433157D01*
X99147809Y-116292809D01*
X99288157Y-116082765D01*
X99337440Y-115835000D01*
X99337440Y-114035000D01*
X99288157Y-113787235D01*
X99147809Y-113577191D01*
X98937765Y-113436843D01*
X98766341Y-113402745D01*
X101446861Y-113402745D01*
X101520995Y-113648864D01*
X102058223Y-113841965D01*
X102628454Y-113814778D01*
X103029005Y-113648864D01*
X103103139Y-113402745D01*
X102275000Y-112574605D01*
X101446861Y-113402745D01*
X98766341Y-113402745D01*
X98690000Y-113387560D01*
X96890000Y-113387560D01*
X96642235Y-113436843D01*
X96432191Y-113577191D01*
X96291843Y-113787235D01*
X96288725Y-113802908D01*
X96119507Y-113633690D01*
X95555330Y-113400000D01*
X94944670Y-113400000D01*
X94380493Y-113633690D01*
X93948690Y-114065493D01*
X93821190Y-114373305D01*
X93788157Y-114207235D01*
X93647809Y-113997191D01*
X93437765Y-113856843D01*
X93190000Y-113807560D01*
X89690000Y-113807560D01*
X89442235Y-113856843D01*
X89232191Y-113997191D01*
X89091843Y-114207235D01*
X89042560Y-114455000D01*
X89042560Y-116865982D01*
X88525000Y-116348422D01*
X88525000Y-112178223D01*
X100828035Y-112178223D01*
X100855222Y-112748454D01*
X101021136Y-113149005D01*
X101267255Y-113223139D01*
X102095395Y-112395000D01*
X102454605Y-112395000D01*
X103282745Y-113223139D01*
X103528864Y-113149005D01*
X103531290Y-113142254D01*
X103558466Y-113207862D01*
X103962138Y-113611534D01*
X104489561Y-113830000D01*
X105060439Y-113830000D01*
X105587862Y-113611534D01*
X105991534Y-113207862D01*
X106022854Y-113132250D01*
X106375138Y-113484534D01*
X106902561Y-113703000D01*
X107473439Y-113703000D01*
X108000862Y-113484534D01*
X108209651Y-113275745D01*
X108859861Y-113275745D01*
X108933995Y-113521864D01*
X109471223Y-113714965D01*
X110041454Y-113687778D01*
X110442005Y-113521864D01*
X110516139Y-113275745D01*
X109688000Y-112447605D01*
X108859861Y-113275745D01*
X108209651Y-113275745D01*
X108404534Y-113080862D01*
X108431525Y-113015701D01*
X108434136Y-113022005D01*
X108680255Y-113096139D01*
X109508395Y-112268000D01*
X109867605Y-112268000D01*
X110695745Y-113096139D01*
X110941864Y-113022005D01*
X111121585Y-112522002D01*
X111225625Y-112522002D01*
X111102284Y-112728329D01*
X111245203Y-113073396D01*
X111592337Y-113461764D01*
X112061669Y-113687727D01*
X112268000Y-113565206D01*
X112268000Y-112522000D01*
X112248000Y-112522000D01*
X112248000Y-112268000D01*
X112268000Y-112268000D01*
X112268000Y-111224794D01*
X112061669Y-111102273D01*
X111592337Y-111328236D01*
X111245203Y-111716604D01*
X111113501Y-112034588D01*
X111107778Y-111914546D01*
X110941864Y-111513995D01*
X110695745Y-111439861D01*
X109867605Y-112268000D01*
X109508395Y-112268000D01*
X108680255Y-111439861D01*
X108434136Y-111513995D01*
X108431710Y-111520746D01*
X108404534Y-111455138D01*
X108209651Y-111260255D01*
X108859861Y-111260255D01*
X109688000Y-112088395D01*
X110516139Y-111260255D01*
X110442005Y-111014136D01*
X109904777Y-110821035D01*
X109334546Y-110848222D01*
X108933995Y-111014136D01*
X108859861Y-111260255D01*
X108209651Y-111260255D01*
X108000862Y-111051466D01*
X107473439Y-110833000D01*
X106902561Y-110833000D01*
X106375138Y-111051466D01*
X105971466Y-111455138D01*
X105940146Y-111530750D01*
X105587862Y-111178466D01*
X105060439Y-110960000D01*
X104489561Y-110960000D01*
X103962138Y-111178466D01*
X103558466Y-111582138D01*
X103531475Y-111647299D01*
X103528864Y-111640995D01*
X103282745Y-111566861D01*
X102454605Y-112395000D01*
X102095395Y-112395000D01*
X101267255Y-111566861D01*
X101021136Y-111640995D01*
X100828035Y-112178223D01*
X88525000Y-112178223D01*
X88525000Y-111387255D01*
X101446861Y-111387255D01*
X102275000Y-112215395D01*
X103103139Y-111387255D01*
X103029005Y-111141136D01*
X102491777Y-110948035D01*
X101921546Y-110975222D01*
X101520995Y-111141136D01*
X101446861Y-111387255D01*
X88525000Y-111387255D01*
X88525000Y-111292161D01*
X88542337Y-111205000D01*
X88525000Y-111117839D01*
X88525000Y-111117835D01*
X88473652Y-110859690D01*
X88447823Y-110821035D01*
X88327424Y-110640845D01*
X88327423Y-110640844D01*
X88278049Y-110566951D01*
X88204156Y-110517577D01*
X87757002Y-110070423D01*
X87757002Y-109961252D01*
X87915750Y-110120000D01*
X88656310Y-110120000D01*
X88889699Y-110023327D01*
X89068327Y-109844698D01*
X89136652Y-109679745D01*
X92643861Y-109679745D01*
X92717995Y-109925864D01*
X93255223Y-110118965D01*
X93825454Y-110091778D01*
X94226005Y-109925864D01*
X94300139Y-109679745D01*
X93472000Y-108851605D01*
X92643861Y-109679745D01*
X89136652Y-109679745D01*
X89165000Y-109611309D01*
X89165000Y-108870750D01*
X89006250Y-108712000D01*
X87757000Y-108712000D01*
X87757000Y-108732000D01*
X87503000Y-108732000D01*
X87503000Y-108712000D01*
X87483000Y-108712000D01*
X87483000Y-108458000D01*
X87503000Y-108458000D01*
X87503000Y-108438000D01*
X87757000Y-108438000D01*
X87757000Y-108458000D01*
X89006250Y-108458000D01*
X89009027Y-108455223D01*
X92025035Y-108455223D01*
X92052222Y-109025454D01*
X92218136Y-109426005D01*
X92464255Y-109500139D01*
X93292395Y-108672000D01*
X93651605Y-108672000D01*
X94479745Y-109500139D01*
X94725864Y-109426005D01*
X94879795Y-108997750D01*
X98083000Y-108997750D01*
X98083000Y-109688309D01*
X98179673Y-109921698D01*
X98358301Y-110100327D01*
X98591690Y-110197000D01*
X99282250Y-110197000D01*
X99441000Y-110038250D01*
X99441000Y-108839000D01*
X98241750Y-108839000D01*
X98083000Y-108997750D01*
X94879795Y-108997750D01*
X94918965Y-108888777D01*
X94891778Y-108318546D01*
X94725864Y-107917995D01*
X94479745Y-107843861D01*
X93651605Y-108672000D01*
X93292395Y-108672000D01*
X92464255Y-107843861D01*
X92218136Y-107917995D01*
X92025035Y-108455223D01*
X89009027Y-108455223D01*
X89165000Y-108299250D01*
X89165000Y-107558691D01*
X89068327Y-107325302D01*
X88889699Y-107146673D01*
X88754956Y-107090861D01*
X88931310Y-106914507D01*
X88976669Y-106805000D01*
X89958853Y-106805000D01*
X90033700Y-106819888D01*
X90108547Y-106805000D01*
X90108552Y-106805000D01*
X90330237Y-106760904D01*
X90581629Y-106592929D01*
X90624031Y-106529470D01*
X92163608Y-104989893D01*
X92073843Y-105124235D01*
X92024560Y-105372000D01*
X92024560Y-106972000D01*
X92073843Y-107219765D01*
X92214191Y-107429809D01*
X92424235Y-107570157D01*
X92658187Y-107616693D01*
X92643861Y-107664255D01*
X93472000Y-108492395D01*
X94300139Y-107664255D01*
X94285813Y-107616693D01*
X94519765Y-107570157D01*
X94729809Y-107429809D01*
X94870157Y-107219765D01*
X94902533Y-107057000D01*
X98373344Y-107057000D01*
X98497375Y-107242625D01*
X98519032Y-107257096D01*
X98358301Y-107323673D01*
X98179673Y-107502302D01*
X98083000Y-107735691D01*
X98083000Y-108426250D01*
X98241750Y-108585000D01*
X99441000Y-108585000D01*
X99441000Y-108565000D01*
X99695000Y-108565000D01*
X99695000Y-108585000D01*
X99715000Y-108585000D01*
X99715000Y-108839000D01*
X99695000Y-108839000D01*
X99695000Y-110038250D01*
X99853750Y-110197000D01*
X100544310Y-110197000D01*
X100777699Y-110100327D01*
X100956327Y-109921698D01*
X101022904Y-109760967D01*
X101037375Y-109782625D01*
X101528582Y-110110839D01*
X101961744Y-110197000D01*
X102254256Y-110197000D01*
X102687418Y-110110839D01*
X103178625Y-109782625D01*
X103378000Y-109484239D01*
X103577375Y-109782625D01*
X104068582Y-110110839D01*
X104501744Y-110197000D01*
X104794256Y-110197000D01*
X105227418Y-110110839D01*
X105718625Y-109782625D01*
X105918000Y-109484239D01*
X106117375Y-109782625D01*
X106608582Y-110110839D01*
X107041744Y-110197000D01*
X107334256Y-110197000D01*
X107767418Y-110110839D01*
X108258625Y-109782625D01*
X108458000Y-109484239D01*
X108657375Y-109782625D01*
X109148582Y-110110839D01*
X109581744Y-110197000D01*
X109874256Y-110197000D01*
X110307418Y-110110839D01*
X110798625Y-109782625D01*
X110998000Y-109484239D01*
X111197375Y-109782625D01*
X111688582Y-110110839D01*
X112121744Y-110197000D01*
X112414256Y-110197000D01*
X112717900Y-110136602D01*
X112717900Y-111108467D01*
X112522000Y-111224794D01*
X112522000Y-112268000D01*
X112542000Y-112268000D01*
X112542000Y-112522000D01*
X112522000Y-112522000D01*
X112522000Y-113565206D01*
X112717900Y-113681533D01*
X112717900Y-114172298D01*
X112704218Y-114185980D01*
X112672881Y-114173000D01*
X112117119Y-114173000D01*
X111603663Y-114385680D01*
X111210680Y-114778663D01*
X111125000Y-114985513D01*
X111039320Y-114778663D01*
X110646337Y-114385680D01*
X110132881Y-114173000D01*
X109577119Y-114173000D01*
X109063663Y-114385680D01*
X108670680Y-114778663D01*
X108585000Y-114985513D01*
X108499320Y-114778663D01*
X108106337Y-114385680D01*
X107592881Y-114173000D01*
X107037119Y-114173000D01*
X106523663Y-114385680D01*
X106130680Y-114778663D01*
X106045000Y-114985513D01*
X105959320Y-114778663D01*
X105566337Y-114385680D01*
X105052881Y-114173000D01*
X104497119Y-114173000D01*
X103983663Y-114385680D01*
X103590680Y-114778663D01*
X103505000Y-114985513D01*
X103419320Y-114778663D01*
X103026337Y-114385680D01*
X102512881Y-114173000D01*
X101957119Y-114173000D01*
X101443663Y-114385680D01*
X101050680Y-114778663D01*
X100838000Y-115292119D01*
X100838000Y-115847881D01*
X101050680Y-116361337D01*
X101443663Y-116754320D01*
X101957119Y-116967000D01*
X102512881Y-116967000D01*
X103026337Y-116754320D01*
X103419320Y-116361337D01*
X103505000Y-116154487D01*
X103590680Y-116361337D01*
X103983663Y-116754320D01*
X104497119Y-116967000D01*
X105052881Y-116967000D01*
X105566337Y-116754320D01*
X105959320Y-116361337D01*
X106045000Y-116154487D01*
X106130680Y-116361337D01*
X106523663Y-116754320D01*
X107037119Y-116967000D01*
X107592881Y-116967000D01*
X108106337Y-116754320D01*
X108499320Y-116361337D01*
X108585000Y-116154487D01*
X108670680Y-116361337D01*
X109063663Y-116754320D01*
X109577119Y-116967000D01*
X110132881Y-116967000D01*
X110646337Y-116754320D01*
X111039320Y-116361337D01*
X111125000Y-116154487D01*
X111210680Y-116361337D01*
X111603663Y-116754320D01*
X112117119Y-116967000D01*
X112672881Y-116967000D01*
X113186337Y-116754320D01*
X113579320Y-116361337D01*
X113665000Y-116154487D01*
X113750680Y-116361337D01*
X114143663Y-116754320D01*
X114657119Y-116967000D01*
X115212881Y-116967000D01*
X115726337Y-116754320D01*
X116119320Y-116361337D01*
X116205000Y-116154487D01*
X116290680Y-116361337D01*
X116683663Y-116754320D01*
X117197119Y-116967000D01*
X117752881Y-116967000D01*
X118266337Y-116754320D01*
X118659320Y-116361337D01*
X118745000Y-116154487D01*
X118830680Y-116361337D01*
X119223663Y-116754320D01*
X119737119Y-116967000D01*
X120292881Y-116967000D01*
X120806337Y-116754320D01*
X121199320Y-116361337D01*
X121285000Y-116154487D01*
X121370680Y-116361337D01*
X121763663Y-116754320D01*
X122277119Y-116967000D01*
X122446421Y-116967000D01*
X121430422Y-117983000D01*
X121139578Y-117983000D01*
X120760025Y-117603447D01*
X120710649Y-117529551D01*
X120417910Y-117333948D01*
X120159765Y-117282600D01*
X120159761Y-117282600D01*
X120072600Y-117265263D01*
X119985439Y-117282600D01*
X114964561Y-117282600D01*
X114877400Y-117265263D01*
X114790239Y-117282600D01*
X114790235Y-117282600D01*
X114532090Y-117333948D01*
X114313245Y-117480176D01*
X114313244Y-117480177D01*
X114239351Y-117529551D01*
X114189977Y-117603444D01*
X113810421Y-117983000D01*
X113387119Y-117983000D01*
X112873663Y-118195680D01*
X112480680Y-118588663D01*
X112395000Y-118795513D01*
X112309320Y-118588663D01*
X111916337Y-118195680D01*
X111402881Y-117983000D01*
X110847119Y-117983000D01*
X110333663Y-118195680D01*
X109940680Y-118588663D01*
X109855000Y-118795513D01*
X109769320Y-118588663D01*
X109376337Y-118195680D01*
X108862881Y-117983000D01*
X108307119Y-117983000D01*
X107793663Y-118195680D01*
X107400680Y-118588663D01*
X107315000Y-118795513D01*
X107229320Y-118588663D01*
X106836337Y-118195680D01*
X106322881Y-117983000D01*
X105767119Y-117983000D01*
X105253663Y-118195680D01*
X104860680Y-118588663D01*
X104775000Y-118795513D01*
X104689320Y-118588663D01*
X104296337Y-118195680D01*
X103782881Y-117983000D01*
X103227119Y-117983000D01*
X102713663Y-118195680D01*
X102320680Y-118588663D01*
X102108000Y-119102119D01*
X102108000Y-119657881D01*
X102320680Y-120171337D01*
X102713663Y-120564320D01*
X103227119Y-120777000D01*
X103460299Y-120777000D01*
X107237662Y-124554363D01*
X107072242Y-124719783D01*
X106869000Y-125210452D01*
X106869000Y-125741548D01*
X107072242Y-126232217D01*
X107130025Y-126290000D01*
X101612590Y-126290000D01*
X101733797Y-126154396D01*
X101876716Y-125809329D01*
X101753374Y-125603000D01*
X100711000Y-125603000D01*
X100711000Y-125623000D01*
X100457000Y-125623000D01*
X100457000Y-125603000D01*
X99414626Y-125603000D01*
X99291284Y-125809329D01*
X99434203Y-126154396D01*
X99555410Y-126290000D01*
X78180000Y-126290000D01*
X78180000Y-125783745D01*
X95539461Y-125783745D01*
X95613595Y-126029864D01*
X96150823Y-126222965D01*
X96721054Y-126195778D01*
X97121605Y-126029864D01*
X97195739Y-125783745D01*
X96367600Y-124955605D01*
X95539461Y-125783745D01*
X78180000Y-125783745D01*
X78180000Y-124559223D01*
X94920635Y-124559223D01*
X94947822Y-125129454D01*
X95113736Y-125530005D01*
X95359855Y-125604139D01*
X96187995Y-124776000D01*
X96547205Y-124776000D01*
X97375345Y-125604139D01*
X97621464Y-125530005D01*
X97814565Y-124992777D01*
X97787378Y-124422546D01*
X97621464Y-124021995D01*
X97375345Y-123947861D01*
X96547205Y-124776000D01*
X96187995Y-124776000D01*
X95359855Y-123947861D01*
X95113736Y-124021995D01*
X94920635Y-124559223D01*
X78180000Y-124559223D01*
X78180000Y-121190750D01*
X86055000Y-121190750D01*
X86055000Y-122781310D01*
X86151673Y-123014699D01*
X86330302Y-123193327D01*
X86563691Y-123290000D01*
X88154250Y-123290000D01*
X88313000Y-123131250D01*
X88313000Y-121032000D01*
X88567000Y-121032000D01*
X88567000Y-123131250D01*
X88725750Y-123290000D01*
X90316309Y-123290000D01*
X90549698Y-123193327D01*
X90728327Y-123014699D01*
X90825000Y-122781310D01*
X90825000Y-121190750D01*
X90666250Y-121032000D01*
X88567000Y-121032000D01*
X88313000Y-121032000D01*
X86213750Y-121032000D01*
X86055000Y-121190750D01*
X78180000Y-121190750D01*
X78180000Y-116490750D01*
X83055000Y-116490750D01*
X83055000Y-118081310D01*
X83151673Y-118314699D01*
X83330302Y-118493327D01*
X83563691Y-118590000D01*
X85154250Y-118590000D01*
X85313000Y-118431250D01*
X85313000Y-116332000D01*
X83213750Y-116332000D01*
X83055000Y-116490750D01*
X78180000Y-116490750D01*
X78180000Y-114328690D01*
X83055000Y-114328690D01*
X83055000Y-115919250D01*
X83213750Y-116078000D01*
X85313000Y-116078000D01*
X85313000Y-113978750D01*
X85154250Y-113820000D01*
X83563691Y-113820000D01*
X83330302Y-113916673D01*
X83151673Y-114095301D01*
X83055000Y-114328690D01*
X78180000Y-114328690D01*
X78180000Y-77222060D01*
X83572545Y-77222060D01*
X83655884Y-77475953D01*
X84220306Y-77681590D01*
X84820458Y-77655579D01*
X85254116Y-77475953D01*
X85337455Y-77222060D01*
X84455000Y-76339605D01*
X83572545Y-77222060D01*
X78180000Y-77222060D01*
X78180000Y-72785000D01*
X82932560Y-72785000D01*
X82932560Y-74535000D01*
X82981843Y-74782765D01*
X83122191Y-74992809D01*
X83317745Y-75123475D01*
X83278306Y-75162914D01*
X83392938Y-75277546D01*
X83139047Y-75360884D01*
X82933410Y-75925306D01*
X82959421Y-76525458D01*
X83139047Y-76959116D01*
X83392940Y-77042455D01*
X84275395Y-76160000D01*
X84261253Y-76145858D01*
X84440858Y-75966253D01*
X84455000Y-75980395D01*
X84469143Y-75966253D01*
X84648748Y-76145858D01*
X84634605Y-76160000D01*
X85517060Y-77042455D01*
X85770953Y-76959116D01*
X85976590Y-76394694D01*
X85950579Y-75794542D01*
X85770953Y-75360884D01*
X85517062Y-75277546D01*
X85631694Y-75162914D01*
X85592255Y-75123475D01*
X85787809Y-74992809D01*
X85928157Y-74782765D01*
X85975451Y-74545000D01*
X88213344Y-74545000D01*
X88337375Y-74730625D01*
X88828582Y-75058839D01*
X89261744Y-75145000D01*
X89554256Y-75145000D01*
X89987418Y-75058839D01*
X90478625Y-74730625D01*
X90678000Y-74432239D01*
X90877375Y-74730625D01*
X91368582Y-75058839D01*
X91801744Y-75145000D01*
X92094256Y-75145000D01*
X92527418Y-75058839D01*
X93018625Y-74730625D01*
X93030816Y-74712381D01*
X93039843Y-74757765D01*
X93180191Y-74967809D01*
X93390235Y-75108157D01*
X93638000Y-75157440D01*
X95338000Y-75157440D01*
X95585765Y-75108157D01*
X95795809Y-74967809D01*
X95936157Y-74757765D01*
X95985440Y-74510000D01*
X95985440Y-72810000D01*
X95936157Y-72562235D01*
X95795809Y-72352191D01*
X95585765Y-72211843D01*
X95338000Y-72162560D01*
X93638000Y-72162560D01*
X93390235Y-72211843D01*
X93180191Y-72352191D01*
X93039843Y-72562235D01*
X93030816Y-72607619D01*
X93018625Y-72589375D01*
X92527418Y-72261161D01*
X92094256Y-72175000D01*
X91801744Y-72175000D01*
X91368582Y-72261161D01*
X90877375Y-72589375D01*
X90678000Y-72887761D01*
X90478625Y-72589375D01*
X89987418Y-72261161D01*
X89554256Y-72175000D01*
X89261744Y-72175000D01*
X88828582Y-72261161D01*
X88337375Y-72589375D01*
X88213344Y-72775000D01*
X85975451Y-72775000D01*
X85928157Y-72537235D01*
X85787809Y-72327191D01*
X85577765Y-72186843D01*
X85330000Y-72137560D01*
X83580000Y-72137560D01*
X83332235Y-72186843D01*
X83122191Y-72327191D01*
X82981843Y-72537235D01*
X82932560Y-72785000D01*
X78180000Y-72785000D01*
X78180000Y-67609778D01*
X87265000Y-67609778D01*
X87265000Y-68260222D01*
X87513914Y-68861153D01*
X87973847Y-69321086D01*
X88574778Y-69570000D01*
X89225222Y-69570000D01*
X89826153Y-69321086D01*
X90286086Y-68861153D01*
X90535000Y-68260222D01*
X90535000Y-67619778D01*
X92345000Y-67619778D01*
X92345000Y-68270222D01*
X92593914Y-68871153D01*
X93053847Y-69331086D01*
X93654778Y-69580000D01*
X94305222Y-69580000D01*
X94906153Y-69331086D01*
X95366086Y-68871153D01*
X95615000Y-68270222D01*
X95615000Y-67619778D01*
X95366086Y-67018847D01*
X94906153Y-66558914D01*
X94305222Y-66310000D01*
X93654778Y-66310000D01*
X93053847Y-66558914D01*
X92593914Y-67018847D01*
X92345000Y-67619778D01*
X90535000Y-67619778D01*
X90535000Y-67609778D01*
X90286086Y-67008847D01*
X89826153Y-66548914D01*
X89225222Y-66300000D01*
X88574778Y-66300000D01*
X87973847Y-66548914D01*
X87513914Y-67008847D01*
X87265000Y-67609778D01*
X78180000Y-67609778D01*
X78180000Y-64210000D01*
X173280001Y-64210000D01*
X173280000Y-126290000D01*
X173280000Y-126290000D01*
G37*
X173280000Y-126290000D02*
X160924184Y-126290000D01*
X161027180Y-126221180D01*
X161335944Y-125759082D01*
X161392651Y-125474000D01*
X163541553Y-125474000D01*
X163616400Y-125488888D01*
X163691247Y-125474000D01*
X163691252Y-125474000D01*
X163912937Y-125429904D01*
X164164329Y-125261929D01*
X164206731Y-125198470D01*
X168301676Y-121103527D01*
X168365129Y-121061129D01*
X168407527Y-120997676D01*
X168407529Y-120997674D01*
X168533103Y-120809738D01*
X168533104Y-120809737D01*
X168577200Y-120588052D01*
X168577200Y-120588048D01*
X168592088Y-120513201D01*
X168577200Y-120438354D01*
X168577200Y-103551746D01*
X168592088Y-103476899D01*
X168577200Y-103402052D01*
X168577200Y-103402048D01*
X168533104Y-103180363D01*
X168456358Y-103065504D01*
X168407529Y-102992426D01*
X168407527Y-102992424D01*
X168365129Y-102928971D01*
X168301676Y-102886573D01*
X165840000Y-100424899D01*
X165840000Y-100408758D01*
X166113223Y-100506965D01*
X166683454Y-100479778D01*
X167084005Y-100313864D01*
X167158139Y-100067745D01*
X166330000Y-99239605D01*
X166315858Y-99253748D01*
X166136253Y-99074143D01*
X166150395Y-99060000D01*
X166509605Y-99060000D01*
X167337745Y-99888139D01*
X167583864Y-99814005D01*
X167776965Y-99276777D01*
X167749778Y-98706546D01*
X167583864Y-98305995D01*
X167337745Y-98231861D01*
X166509605Y-99060000D01*
X166150395Y-99060000D01*
X166136253Y-99045858D01*
X166315858Y-98866252D01*
X166330000Y-98880395D01*
X167158139Y-98052255D01*
X167084005Y-97806136D01*
X166546777Y-97613035D01*
X165976546Y-97640222D01*
X165575995Y-97806136D01*
X165501861Y-98052253D01*
X165386986Y-97937378D01*
X165380383Y-97943981D01*
X164119655Y-96683254D01*
X164642862Y-96466534D01*
X164851651Y-96257745D01*
X165501861Y-96257745D01*
X165575995Y-96503864D01*
X166113223Y-96696965D01*
X166683454Y-96669778D01*
X167084005Y-96503864D01*
X167158139Y-96257745D01*
X166330000Y-95429605D01*
X165501861Y-96257745D01*
X164851651Y-96257745D01*
X165046534Y-96062862D01*
X165073525Y-95997701D01*
X165076136Y-96004005D01*
X165322255Y-96078139D01*
X166150395Y-95250000D01*
X166509605Y-95250000D01*
X167337745Y-96078139D01*
X167583864Y-96004005D01*
X167776965Y-95466777D01*
X167749778Y-94896546D01*
X167583864Y-94495995D01*
X167337745Y-94421861D01*
X166509605Y-95250000D01*
X166150395Y-95250000D01*
X165322255Y-94421861D01*
X165076136Y-94495995D01*
X165073710Y-94502746D01*
X165046534Y-94437138D01*
X164851651Y-94242255D01*
X165501861Y-94242255D01*
X166330000Y-95070395D01*
X167158139Y-94242255D01*
X167084005Y-93996136D01*
X167063707Y-93988840D01*
X167124005Y-93963864D01*
X167198139Y-93717745D01*
X166370000Y-92889605D01*
X165541861Y-93717745D01*
X165615995Y-93963864D01*
X165636293Y-93971160D01*
X165575995Y-93996136D01*
X165501861Y-94242255D01*
X164851651Y-94242255D01*
X164642862Y-94033466D01*
X164533784Y-93988284D01*
X164682862Y-93926534D01*
X165086534Y-93522862D01*
X165113525Y-93457701D01*
X165116136Y-93464005D01*
X165362255Y-93538139D01*
X166190395Y-92710000D01*
X166549605Y-92710000D01*
X167377745Y-93538139D01*
X167623864Y-93464005D01*
X167816965Y-92926777D01*
X167789778Y-92356546D01*
X167623864Y-91955995D01*
X167377745Y-91881861D01*
X166549605Y-92710000D01*
X166190395Y-92710000D01*
X165362255Y-91881861D01*
X165116136Y-91955995D01*
X165113710Y-91962746D01*
X165086534Y-91897138D01*
X164891651Y-91702255D01*
X165541861Y-91702255D01*
X166370000Y-92530395D01*
X167198139Y-91702255D01*
X167124005Y-91456136D01*
X166586777Y-91263035D01*
X166016546Y-91290222D01*
X165615995Y-91456136D01*
X165541861Y-91702255D01*
X164891651Y-91702255D01*
X164682862Y-91493466D01*
X164155439Y-91275000D01*
X163584561Y-91275000D01*
X163057138Y-91493466D01*
X162653466Y-91897138D01*
X162435000Y-92424561D01*
X162435000Y-92995439D01*
X162653466Y-93522862D01*
X163057138Y-93926534D01*
X163166216Y-93971716D01*
X163017138Y-94033466D01*
X162613466Y-94437138D01*
X162396746Y-94960345D01*
X156070853Y-88634452D01*
X161225000Y-88634452D01*
X161225000Y-89165548D01*
X161428242Y-89656217D01*
X161803783Y-90031758D01*
X162294452Y-90235000D01*
X162825548Y-90235000D01*
X163316217Y-90031758D01*
X163691758Y-89656217D01*
X163866924Y-89233329D01*
X168887284Y-89233329D01*
X169030203Y-89578396D01*
X169377337Y-89966764D01*
X169846669Y-90192727D01*
X170053000Y-90070206D01*
X170053000Y-89027000D01*
X170307000Y-89027000D01*
X170307000Y-90070206D01*
X170513331Y-90192727D01*
X170982663Y-89966764D01*
X171329797Y-89578396D01*
X171472716Y-89233329D01*
X171349374Y-89027000D01*
X170307000Y-89027000D01*
X170053000Y-89027000D01*
X169010626Y-89027000D01*
X168887284Y-89233329D01*
X163866924Y-89233329D01*
X163895000Y-89165548D01*
X163895000Y-88634452D01*
X163866925Y-88566671D01*
X168887284Y-88566671D01*
X169010626Y-88773000D01*
X170053000Y-88773000D01*
X170053000Y-87729794D01*
X170307000Y-87729794D01*
X170307000Y-88773000D01*
X171349374Y-88773000D01*
X171472716Y-88566671D01*
X171329797Y-88221604D01*
X170982663Y-87833236D01*
X170513331Y-87607273D01*
X170307000Y-87729794D01*
X170053000Y-87729794D01*
X169846669Y-87607273D01*
X169377337Y-87833236D01*
X169030203Y-88221604D01*
X168887284Y-88566671D01*
X163866925Y-88566671D01*
X163691758Y-88143783D01*
X163316217Y-87768242D01*
X162825548Y-87565000D01*
X162294452Y-87565000D01*
X161803783Y-87768242D01*
X161428242Y-88143783D01*
X161225000Y-88634452D01*
X156070853Y-88634452D01*
X153311931Y-85875530D01*
X153269529Y-85812071D01*
X153018137Y-85644096D01*
X152796452Y-85600000D01*
X152796447Y-85600000D01*
X152721600Y-85585112D01*
X152646753Y-85600000D01*
X141843975Y-85600000D01*
X141472217Y-85228242D01*
X140981548Y-85025000D01*
X140450452Y-85025000D01*
X139959783Y-85228242D01*
X139584242Y-85603783D01*
X139381000Y-86094452D01*
X139381000Y-86625548D01*
X139584242Y-87116217D01*
X139959783Y-87491758D01*
X140293528Y-87630000D01*
X139959783Y-87768242D01*
X139584242Y-88143783D01*
X139381000Y-88634452D01*
X139381000Y-89165548D01*
X139584242Y-89656217D01*
X139959783Y-90031758D01*
X140293528Y-90170000D01*
X139959783Y-90308242D01*
X139584242Y-90683783D01*
X139381000Y-91174452D01*
X139381000Y-91705548D01*
X139584242Y-92196217D01*
X139959783Y-92571758D01*
X140293528Y-92710000D01*
X139959783Y-92848242D01*
X139584242Y-93223783D01*
X139381000Y-93714452D01*
X139381000Y-94245548D01*
X139584242Y-94736217D01*
X139959783Y-95111758D01*
X140293528Y-95250000D01*
X139959783Y-95388242D01*
X139584242Y-95763783D01*
X139381000Y-96254452D01*
X139381000Y-96785548D01*
X139584242Y-97276217D01*
X139959783Y-97651758D01*
X140293528Y-97790000D01*
X139959783Y-97928242D01*
X139584242Y-98303783D01*
X139381000Y-98794452D01*
X139381000Y-99325548D01*
X139482255Y-99570000D01*
X134355708Y-99570000D01*
X134457154Y-99060000D01*
X134353542Y-98539109D01*
X134058481Y-98097519D01*
X133616891Y-97802458D01*
X133554261Y-97790000D01*
X133616891Y-97777542D01*
X134058481Y-97482481D01*
X134353542Y-97040891D01*
X134457154Y-96520000D01*
X134353542Y-95999109D01*
X134061325Y-95561776D01*
X136904173Y-92718929D01*
X136967629Y-92676529D01*
X137135604Y-92425137D01*
X137179700Y-92203452D01*
X137179700Y-92203448D01*
X137194588Y-92128601D01*
X137179700Y-92053754D01*
X137179700Y-87710290D01*
X137212355Y-87677635D01*
X137354700Y-87333983D01*
X137354700Y-86962017D01*
X137212355Y-86618365D01*
X137176096Y-86582106D01*
X140113776Y-83644427D01*
X140177229Y-83602029D01*
X140219627Y-83538576D01*
X140219629Y-83538574D01*
X140321006Y-83386852D01*
X140345204Y-83350637D01*
X140389300Y-83128952D01*
X140389300Y-83128948D01*
X140404188Y-83054101D01*
X140389300Y-82979254D01*
X140389300Y-80668301D01*
X144788441Y-76269161D01*
X144833466Y-76377862D01*
X145237138Y-76781534D01*
X145496872Y-76889120D01*
X145293783Y-76973242D01*
X144918242Y-77348783D01*
X144715000Y-77839452D01*
X144715000Y-78370548D01*
X144917382Y-78859140D01*
X142026522Y-81750000D01*
X141954561Y-81750000D01*
X141427138Y-81968466D01*
X141023466Y-82372138D01*
X140805000Y-82899561D01*
X140805000Y-83470439D01*
X141023466Y-83997862D01*
X141427138Y-84401534D01*
X141954561Y-84620000D01*
X142525439Y-84620000D01*
X143052862Y-84401534D01*
X143261651Y-84192745D01*
X143911861Y-84192745D01*
X143985995Y-84438864D01*
X144523223Y-84631965D01*
X145093454Y-84604778D01*
X145494005Y-84438864D01*
X145568139Y-84192745D01*
X144740000Y-83364605D01*
X143911861Y-84192745D01*
X143261651Y-84192745D01*
X143456534Y-83997862D01*
X143483525Y-83932701D01*
X143486136Y-83939005D01*
X143732255Y-84013139D01*
X144560395Y-83185000D01*
X144919605Y-83185000D01*
X145747745Y-84013139D01*
X145993864Y-83939005D01*
X146139424Y-83534039D01*
X147198096Y-83534039D01*
X147358959Y-83922423D01*
X147734866Y-84337389D01*
X148240959Y-84576914D01*
X148463000Y-84455629D01*
X148463000Y-83312000D01*
X148717000Y-83312000D01*
X148717000Y-84455629D01*
X148939041Y-84576914D01*
X149445134Y-84337389D01*
X149821041Y-83922423D01*
X149981904Y-83534039D01*
X149859915Y-83312000D01*
X148717000Y-83312000D01*
X148463000Y-83312000D01*
X147320085Y-83312000D01*
X147198096Y-83534039D01*
X146139424Y-83534039D01*
X146186965Y-83401777D01*
X146159778Y-82831546D01*
X145993864Y-82430995D01*
X145747745Y-82356861D01*
X144919605Y-83185000D01*
X144560395Y-83185000D01*
X144546252Y-83170858D01*
X144725858Y-82991252D01*
X144740000Y-83005395D01*
X145568139Y-82177255D01*
X145494005Y-81931136D01*
X144956777Y-81738035D01*
X144520860Y-81758818D01*
X144906591Y-81373088D01*
X144918242Y-81401217D01*
X145293783Y-81776758D01*
X145784452Y-81980000D01*
X146315548Y-81980000D01*
X146806217Y-81776758D01*
X147086084Y-81496891D01*
X147252535Y-81530000D01*
X147252536Y-81530000D01*
X147339700Y-81547338D01*
X147426865Y-81530000D01*
X147455479Y-81530000D01*
X147555423Y-81679577D01*
X147939108Y-81935947D01*
X147734866Y-82032611D01*
X147358959Y-82447577D01*
X147198096Y-82835961D01*
X147320085Y-83058000D01*
X148463000Y-83058000D01*
X148463000Y-83038000D01*
X148717000Y-83038000D01*
X148717000Y-83058000D01*
X149859915Y-83058000D01*
X149981904Y-82835961D01*
X149821041Y-82447577D01*
X149445134Y-82032611D01*
X149240892Y-81935947D01*
X149624577Y-81679577D01*
X149941740Y-81204909D01*
X150053113Y-80645000D01*
X149941740Y-80085091D01*
X149624577Y-79610423D01*
X149272242Y-79375000D01*
X149624577Y-79139577D01*
X149941740Y-78664909D01*
X150053113Y-78105000D01*
X149980450Y-77739700D01*
X154819550Y-77739700D01*
X154746887Y-78105000D01*
X154858260Y-78664909D01*
X155175423Y-79139577D01*
X155527758Y-79375000D01*
X155175423Y-79610423D01*
X154858260Y-80085091D01*
X154746887Y-80645000D01*
X154858260Y-81204909D01*
X155175423Y-81679577D01*
X155527758Y-81915000D01*
X155175423Y-82150423D01*
X154858260Y-82625091D01*
X154746887Y-83185000D01*
X154858260Y-83744909D01*
X155175423Y-84219577D01*
X155650091Y-84536740D01*
X156068667Y-84620000D01*
X156351333Y-84620000D01*
X156769909Y-84536740D01*
X157244577Y-84219577D01*
X157561740Y-83744909D01*
X157603684Y-83534039D01*
X159263096Y-83534039D01*
X159423959Y-83922423D01*
X159799866Y-84337389D01*
X160305959Y-84576914D01*
X160528000Y-84455629D01*
X160528000Y-83312000D01*
X160782000Y-83312000D01*
X160782000Y-84455629D01*
X161004041Y-84576914D01*
X161510134Y-84337389D01*
X161886041Y-83922423D01*
X162046904Y-83534039D01*
X161924915Y-83312000D01*
X160782000Y-83312000D01*
X160528000Y-83312000D01*
X159385085Y-83312000D01*
X159263096Y-83534039D01*
X157603684Y-83534039D01*
X157673113Y-83185000D01*
X157561740Y-82625091D01*
X157244577Y-82150423D01*
X156892242Y-81915000D01*
X157244577Y-81679577D01*
X157561740Y-81204909D01*
X157673113Y-80645000D01*
X157561740Y-80085091D01*
X157244577Y-79610423D01*
X156892242Y-79375000D01*
X157244577Y-79139577D01*
X157561740Y-78664909D01*
X157673113Y-78105000D01*
X157600450Y-77739700D01*
X158089599Y-77739700D01*
X158939371Y-78589473D01*
X158981771Y-78652929D01*
X159233163Y-78820904D01*
X159434214Y-78860896D01*
X159620423Y-79139577D01*
X159916386Y-79337333D01*
X159899104Y-79424214D01*
X159620423Y-79610423D01*
X159303260Y-80085091D01*
X159191887Y-80645000D01*
X159303260Y-81204909D01*
X159620423Y-81679577D01*
X160004108Y-81935947D01*
X159799866Y-82032611D01*
X159423959Y-82447577D01*
X159263096Y-82835961D01*
X159385085Y-83058000D01*
X160528000Y-83058000D01*
X160528000Y-83038000D01*
X160782000Y-83038000D01*
X160782000Y-83058000D01*
X161924915Y-83058000D01*
X162046904Y-82835961D01*
X161886041Y-82447577D01*
X161510134Y-82032611D01*
X161305892Y-81935947D01*
X161689577Y-81679577D01*
X162006740Y-81204909D01*
X162118113Y-80645000D01*
X162006740Y-80085091D01*
X161782023Y-79748778D01*
X162264873Y-79265929D01*
X162328329Y-79223529D01*
X162455503Y-79033200D01*
X162496304Y-78972138D01*
X162514473Y-78880796D01*
X162540400Y-78750452D01*
X162540400Y-78750448D01*
X162555288Y-78675600D01*
X162540400Y-78600752D01*
X162540400Y-74705046D01*
X162555288Y-74630199D01*
X162540400Y-74555352D01*
X162540400Y-74555348D01*
X162496304Y-74333663D01*
X162436958Y-74244845D01*
X162370729Y-74145726D01*
X162370727Y-74145724D01*
X162328329Y-74082271D01*
X162264875Y-74039872D01*
X161729830Y-73504829D01*
X161687429Y-73441371D01*
X161614819Y-73392855D01*
X161677797Y-73322396D01*
X161820716Y-72977329D01*
X161697374Y-72771000D01*
X160655000Y-72771000D01*
X160655000Y-72791000D01*
X160401000Y-72791000D01*
X160401000Y-72771000D01*
X159358626Y-72771000D01*
X159235284Y-72977329D01*
X159339645Y-73229300D01*
X151075203Y-73229300D01*
X150156573Y-72310671D01*
X159235284Y-72310671D01*
X159358626Y-72517000D01*
X160401000Y-72517000D01*
X160401000Y-71473794D01*
X160655000Y-71473794D01*
X160655000Y-72517000D01*
X161697374Y-72517000D01*
X161820716Y-72310671D01*
X161677797Y-71965604D01*
X161330663Y-71577236D01*
X160861331Y-71351273D01*
X160655000Y-71473794D01*
X160401000Y-71473794D01*
X160194669Y-71351273D01*
X159725337Y-71577236D01*
X159378203Y-71965604D01*
X159235284Y-72310671D01*
X150156573Y-72310671D01*
X149347131Y-71501230D01*
X149304729Y-71437771D01*
X149053337Y-71269796D01*
X148831652Y-71225700D01*
X148831647Y-71225700D01*
X148756800Y-71210812D01*
X148681953Y-71225700D01*
X146026425Y-71225700D01*
X146215000Y-70770439D01*
X146215000Y-70199561D01*
X146103468Y-69930300D01*
X158129553Y-69930300D01*
X158204400Y-69945188D01*
X158279247Y-69930300D01*
X158279252Y-69930300D01*
X158500937Y-69886204D01*
X158752329Y-69718229D01*
X158794731Y-69654770D01*
X159236909Y-69212592D01*
X159297191Y-69302809D01*
X159507235Y-69443157D01*
X159755000Y-69492440D01*
X161555000Y-69492440D01*
X161802765Y-69443157D01*
X162012809Y-69302809D01*
X162153157Y-69092765D01*
X162156275Y-69077092D01*
X162325493Y-69246310D01*
X162889670Y-69480000D01*
X163500330Y-69480000D01*
X164064507Y-69246310D01*
X164496310Y-68814507D01*
X164572409Y-68630788D01*
X164781301Y-68839680D01*
X164781300Y-71775139D01*
X164763963Y-71862300D01*
X164781300Y-71949461D01*
X164781300Y-71949464D01*
X164832648Y-72207609D01*
X165028251Y-72500349D01*
X165102147Y-72549725D01*
X167177306Y-74624885D01*
X166923260Y-75005091D01*
X166811887Y-75565000D01*
X166923260Y-76124909D01*
X167240423Y-76599577D01*
X167592758Y-76835000D01*
X167240423Y-77070423D01*
X166923260Y-77545091D01*
X166811887Y-78105000D01*
X166923260Y-78664909D01*
X167240423Y-79139577D01*
X167592758Y-79375000D01*
X167240423Y-79610423D01*
X166923260Y-80085091D01*
X166811887Y-80645000D01*
X166923260Y-81204909D01*
X167240423Y-81679577D01*
X167592758Y-81915000D01*
X167240423Y-82150423D01*
X166923260Y-82625091D01*
X166811887Y-83185000D01*
X166923260Y-83744909D01*
X167240423Y-84219577D01*
X167715091Y-84536740D01*
X168133667Y-84620000D01*
X168416333Y-84620000D01*
X168834909Y-84536740D01*
X169309577Y-84219577D01*
X169626740Y-83744909D01*
X169738113Y-83185000D01*
X169626740Y-82625091D01*
X169309577Y-82150423D01*
X168957242Y-81915000D01*
X169309577Y-81679577D01*
X169626740Y-81204909D01*
X169738113Y-80645000D01*
X169626740Y-80085091D01*
X169309577Y-79610423D01*
X168957242Y-79375000D01*
X169309577Y-79139577D01*
X169626740Y-78664909D01*
X169738113Y-78105000D01*
X169626740Y-77545091D01*
X169309577Y-77070423D01*
X168957242Y-76835000D01*
X169309577Y-76599577D01*
X169626740Y-76124909D01*
X169738113Y-75565000D01*
X169626740Y-75005091D01*
X169309577Y-74530423D01*
X169160000Y-74430479D01*
X169160000Y-74401865D01*
X169177338Y-74314700D01*
X169157161Y-74213260D01*
X169108652Y-73969390D01*
X168949208Y-73730767D01*
X169279758Y-73400217D01*
X169483000Y-72909548D01*
X169483000Y-72378452D01*
X169279758Y-71887783D01*
X168904217Y-71512242D01*
X168413548Y-71309000D01*
X167882452Y-71309000D01*
X167391783Y-71512242D01*
X167016242Y-71887783D01*
X166994896Y-71939317D01*
X166551300Y-71495722D01*
X166551300Y-68560259D01*
X166568637Y-68473099D01*
X166551300Y-68385939D01*
X166551300Y-68385935D01*
X166499952Y-68127790D01*
X166304349Y-67835051D01*
X166230456Y-67785677D01*
X164475225Y-66030447D01*
X164425849Y-65956551D01*
X164133110Y-65760948D01*
X163874965Y-65709600D01*
X163874961Y-65709600D01*
X163787800Y-65692263D01*
X163700639Y-65709600D01*
X155742561Y-65709600D01*
X155655400Y-65692263D01*
X155568239Y-65709600D01*
X155568235Y-65709600D01*
X155310090Y-65760948D01*
X155091245Y-65907176D01*
X155091244Y-65907177D01*
X155017351Y-65956551D01*
X154967977Y-66030444D01*
X154588421Y-66410000D01*
X154021578Y-66410000D01*
X153642025Y-66030447D01*
X153592649Y-65956551D01*
X153299910Y-65760948D01*
X153041765Y-65709600D01*
X153041761Y-65709600D01*
X152954600Y-65692263D01*
X152867439Y-65709600D01*
X140702659Y-65709600D01*
X140615499Y-65692263D01*
X140528340Y-65709600D01*
X140528335Y-65709600D01*
X140270190Y-65760948D01*
X140107086Y-65869931D01*
X140051345Y-65907176D01*
X140051344Y-65907177D01*
X139977451Y-65956551D01*
X139928077Y-66030444D01*
X136739522Y-69219000D01*
X119036311Y-69219000D01*
X119191000Y-68845548D01*
X119191000Y-68314452D01*
X118987758Y-67823783D01*
X118612217Y-67448242D01*
X118121548Y-67245000D01*
X117590452Y-67245000D01*
X117099783Y-67448242D01*
X116724242Y-67823783D01*
X116521000Y-68314452D01*
X116521000Y-68845548D01*
X116675689Y-69219000D01*
X111414624Y-69219000D01*
X111493542Y-69100891D01*
X111597154Y-68580000D01*
X111493542Y-68059109D01*
X111198481Y-67617519D01*
X110756891Y-67322458D01*
X110367485Y-67245000D01*
X110104515Y-67245000D01*
X109715109Y-67322458D01*
X109273519Y-67617519D01*
X109138226Y-67820000D01*
X107930148Y-67820000D01*
X107855300Y-67805112D01*
X107780452Y-67820000D01*
X107780448Y-67820000D01*
X107606905Y-67854520D01*
X107558762Y-67864096D01*
X107371718Y-67989076D01*
X107307371Y-68032071D01*
X107264971Y-68095527D01*
X106123063Y-69237435D01*
X106082809Y-69177191D01*
X105872765Y-69036843D01*
X105625000Y-68987560D01*
X103925000Y-68987560D01*
X103677235Y-69036843D01*
X103467191Y-69177191D01*
X103326843Y-69387235D01*
X103277560Y-69635000D01*
X103277560Y-69725000D01*
X100607440Y-69725000D01*
X100607440Y-69585000D01*
X100558157Y-69337235D01*
X100417809Y-69127191D01*
X100207765Y-68986843D01*
X99960000Y-68937560D01*
X98160000Y-68937560D01*
X97912235Y-68986843D01*
X97702191Y-69127191D01*
X97561843Y-69337235D01*
X97512560Y-69585000D01*
X97512560Y-71385000D01*
X97561843Y-71632765D01*
X97702191Y-71842809D01*
X97910696Y-71982129D01*
X97614062Y-72426073D01*
X97494928Y-73025000D01*
X97614062Y-73623927D01*
X97953327Y-74131673D01*
X98197763Y-74295000D01*
X97953327Y-74458327D01*
X97614062Y-74966073D01*
X97494928Y-75565000D01*
X97614062Y-76163927D01*
X97953327Y-76671673D01*
X98461073Y-77010938D01*
X98908818Y-77100000D01*
X99211182Y-77100000D01*
X99658927Y-77010938D01*
X100166673Y-76671673D01*
X100206215Y-76612494D01*
X100841221Y-77247500D01*
X95193746Y-77247500D01*
X95118899Y-77232612D01*
X95044052Y-77247500D01*
X95044048Y-77247500D01*
X94822363Y-77291596D01*
X94570971Y-77459571D01*
X94528571Y-77523027D01*
X91895021Y-80156578D01*
X91755773Y-80098900D01*
X91124227Y-80098900D01*
X90540753Y-80340582D01*
X90094182Y-80787153D01*
X89852500Y-81370627D01*
X89852500Y-82002173D01*
X90094182Y-82585647D01*
X90540753Y-83032218D01*
X91124227Y-83273900D01*
X91755773Y-83273900D01*
X92339247Y-83032218D01*
X92785818Y-82585647D01*
X93027500Y-82002173D01*
X93027500Y-81370627D01*
X92969822Y-81231379D01*
X95433702Y-78767500D01*
X98810298Y-78767500D01*
X92408213Y-85169586D01*
X92392500Y-85166460D01*
X90487500Y-85166460D01*
X90239735Y-85215743D01*
X90029691Y-85356091D01*
X89889343Y-85566135D01*
X89840060Y-85813900D01*
X89840060Y-87283900D01*
X89064259Y-87283900D01*
X88977099Y-87266563D01*
X88889939Y-87283900D01*
X88889935Y-87283900D01*
X88631790Y-87335248D01*
X88631788Y-87335249D01*
X88631789Y-87335249D01*
X88412945Y-87481476D01*
X88412944Y-87481477D01*
X88339051Y-87530851D01*
X88289677Y-87604744D01*
X83763845Y-92130577D01*
X83689952Y-92179951D01*
X83640578Y-92253844D01*
X83640576Y-92253846D01*
X83494348Y-92472691D01*
X83425663Y-92818000D01*
X83443001Y-92905165D01*
X83443000Y-98290839D01*
X83425663Y-98378000D01*
X83443000Y-98465161D01*
X83443000Y-98465164D01*
X83494348Y-98723309D01*
X83689951Y-99016049D01*
X83718125Y-99034875D01*
X83736951Y-99063049D01*
X84029690Y-99258652D01*
X84232326Y-99298959D01*
X84276843Y-99522765D01*
X84417191Y-99732809D01*
X84627235Y-99873157D01*
X84840001Y-99915478D01*
X84840000Y-104621531D01*
X84746348Y-104761691D01*
X84677663Y-105107000D01*
X84695001Y-105194165D01*
X84695000Y-109057839D01*
X84677663Y-109145000D01*
X84695000Y-109232161D01*
X84695000Y-109232164D01*
X84746348Y-109490309D01*
X84941951Y-109783049D01*
X85015847Y-109832425D01*
X86755001Y-111571580D01*
X86755001Y-113820000D01*
X85725750Y-113820000D01*
X85567000Y-113978750D01*
X85567000Y-116078000D01*
X85587000Y-116078000D01*
X85587000Y-116332000D01*
X85567000Y-116332000D01*
X85567000Y-118431250D01*
X85725750Y-118590000D01*
X86394696Y-118590000D01*
X86330302Y-118616673D01*
X86151673Y-118795301D01*
X86055000Y-119028690D01*
X86055000Y-120619250D01*
X86213750Y-120778000D01*
X88313000Y-120778000D01*
X88313000Y-120758000D01*
X88567000Y-120758000D01*
X88567000Y-120778000D01*
X90666250Y-120778000D01*
X90825000Y-120619250D01*
X90825000Y-119590000D01*
X91130022Y-119590000D01*
X94380177Y-122840156D01*
X94429551Y-122914049D01*
X94503444Y-122963423D01*
X94503445Y-122963424D01*
X94655464Y-123065000D01*
X94722290Y-123109652D01*
X94935281Y-123152018D01*
X94969443Y-123323765D01*
X95109791Y-123533809D01*
X95319835Y-123674157D01*
X95553787Y-123720693D01*
X95539461Y-123768255D01*
X96367600Y-124596395D01*
X97195739Y-123768255D01*
X97181413Y-123720693D01*
X97415365Y-123674157D01*
X97625409Y-123533809D01*
X97765757Y-123323765D01*
X97815040Y-123076000D01*
X97815040Y-122670452D01*
X99249000Y-122670452D01*
X99249000Y-123201548D01*
X99452242Y-123692217D01*
X99827783Y-124067758D01*
X100184070Y-124215337D01*
X99781337Y-124409236D01*
X99434203Y-124797604D01*
X99291284Y-125142671D01*
X99414626Y-125349000D01*
X100457000Y-125349000D01*
X100457000Y-125329000D01*
X100711000Y-125329000D01*
X100711000Y-125349000D01*
X101753374Y-125349000D01*
X101876716Y-125142671D01*
X101733797Y-124797604D01*
X101386663Y-124409236D01*
X100983930Y-124215337D01*
X101340217Y-124067758D01*
X101715758Y-123692217D01*
X101919000Y-123201548D01*
X101919000Y-122670452D01*
X101715758Y-122179783D01*
X101340217Y-121804242D01*
X100849548Y-121601000D01*
X100318452Y-121601000D01*
X99827783Y-121804242D01*
X99452242Y-122179783D01*
X99249000Y-122670452D01*
X97815040Y-122670452D01*
X97815040Y-121476000D01*
X97765757Y-121228235D01*
X97625409Y-121018191D01*
X97415365Y-120877843D01*
X97167600Y-120828560D01*
X95567600Y-120828560D01*
X95319835Y-120877843D01*
X95109791Y-121018191D01*
X95090396Y-121047217D01*
X92645618Y-118602440D01*
X93190000Y-118602440D01*
X93437765Y-118553157D01*
X93647809Y-118412809D01*
X93788157Y-118202765D01*
X93837440Y-117955000D01*
X93837440Y-115535926D01*
X93948690Y-115804507D01*
X94380493Y-116236310D01*
X94944670Y-116470000D01*
X95555330Y-116470000D01*
X96119507Y-116236310D01*
X96288725Y-116067092D01*
X96291843Y-116082765D01*
X96432191Y-116292809D01*
X96642235Y-116433157D01*
X96890000Y-116482440D01*
X98690000Y-116482440D01*
X98937765Y-116433157D01*
X99147809Y-116292809D01*
X99288157Y-116082765D01*
X99337440Y-115835000D01*
X99337440Y-114035000D01*
X99288157Y-113787235D01*
X99147809Y-113577191D01*
X98937765Y-113436843D01*
X98766341Y-113402745D01*
X101446861Y-113402745D01*
X101520995Y-113648864D01*
X102058223Y-113841965D01*
X102628454Y-113814778D01*
X103029005Y-113648864D01*
X103103139Y-113402745D01*
X102275000Y-112574605D01*
X101446861Y-113402745D01*
X98766341Y-113402745D01*
X98690000Y-113387560D01*
X96890000Y-113387560D01*
X96642235Y-113436843D01*
X96432191Y-113577191D01*
X96291843Y-113787235D01*
X96288725Y-113802908D01*
X96119507Y-113633690D01*
X95555330Y-113400000D01*
X94944670Y-113400000D01*
X94380493Y-113633690D01*
X93948690Y-114065493D01*
X93821190Y-114373305D01*
X93788157Y-114207235D01*
X93647809Y-113997191D01*
X93437765Y-113856843D01*
X93190000Y-113807560D01*
X89690000Y-113807560D01*
X89442235Y-113856843D01*
X89232191Y-113997191D01*
X89091843Y-114207235D01*
X89042560Y-114455000D01*
X89042560Y-116865982D01*
X88525000Y-116348422D01*
X88525000Y-112178223D01*
X100828035Y-112178223D01*
X100855222Y-112748454D01*
X101021136Y-113149005D01*
X101267255Y-113223139D01*
X102095395Y-112395000D01*
X102454605Y-112395000D01*
X103282745Y-113223139D01*
X103528864Y-113149005D01*
X103531290Y-113142254D01*
X103558466Y-113207862D01*
X103962138Y-113611534D01*
X104489561Y-113830000D01*
X105060439Y-113830000D01*
X105587862Y-113611534D01*
X105991534Y-113207862D01*
X106022854Y-113132250D01*
X106375138Y-113484534D01*
X106902561Y-113703000D01*
X107473439Y-113703000D01*
X108000862Y-113484534D01*
X108209651Y-113275745D01*
X108859861Y-113275745D01*
X108933995Y-113521864D01*
X109471223Y-113714965D01*
X110041454Y-113687778D01*
X110442005Y-113521864D01*
X110516139Y-113275745D01*
X109688000Y-112447605D01*
X108859861Y-113275745D01*
X108209651Y-113275745D01*
X108404534Y-113080862D01*
X108431525Y-113015701D01*
X108434136Y-113022005D01*
X108680255Y-113096139D01*
X109508395Y-112268000D01*
X109867605Y-112268000D01*
X110695745Y-113096139D01*
X110941864Y-113022005D01*
X111121585Y-112522002D01*
X111225625Y-112522002D01*
X111102284Y-112728329D01*
X111245203Y-113073396D01*
X111592337Y-113461764D01*
X112061669Y-113687727D01*
X112268000Y-113565206D01*
X112268000Y-112522000D01*
X112248000Y-112522000D01*
X112248000Y-112268000D01*
X112268000Y-112268000D01*
X112268000Y-111224794D01*
X112061669Y-111102273D01*
X111592337Y-111328236D01*
X111245203Y-111716604D01*
X111113501Y-112034588D01*
X111107778Y-111914546D01*
X110941864Y-111513995D01*
X110695745Y-111439861D01*
X109867605Y-112268000D01*
X109508395Y-112268000D01*
X108680255Y-111439861D01*
X108434136Y-111513995D01*
X108431710Y-111520746D01*
X108404534Y-111455138D01*
X108209651Y-111260255D01*
X108859861Y-111260255D01*
X109688000Y-112088395D01*
X110516139Y-111260255D01*
X110442005Y-111014136D01*
X109904777Y-110821035D01*
X109334546Y-110848222D01*
X108933995Y-111014136D01*
X108859861Y-111260255D01*
X108209651Y-111260255D01*
X108000862Y-111051466D01*
X107473439Y-110833000D01*
X106902561Y-110833000D01*
X106375138Y-111051466D01*
X105971466Y-111455138D01*
X105940146Y-111530750D01*
X105587862Y-111178466D01*
X105060439Y-110960000D01*
X104489561Y-110960000D01*
X103962138Y-111178466D01*
X103558466Y-111582138D01*
X103531475Y-111647299D01*
X103528864Y-111640995D01*
X103282745Y-111566861D01*
X102454605Y-112395000D01*
X102095395Y-112395000D01*
X101267255Y-111566861D01*
X101021136Y-111640995D01*
X100828035Y-112178223D01*
X88525000Y-112178223D01*
X88525000Y-111387255D01*
X101446861Y-111387255D01*
X102275000Y-112215395D01*
X103103139Y-111387255D01*
X103029005Y-111141136D01*
X102491777Y-110948035D01*
X101921546Y-110975222D01*
X101520995Y-111141136D01*
X101446861Y-111387255D01*
X88525000Y-111387255D01*
X88525000Y-111292161D01*
X88542337Y-111205000D01*
X88525000Y-111117839D01*
X88525000Y-111117835D01*
X88473652Y-110859690D01*
X88447823Y-110821035D01*
X88327424Y-110640845D01*
X88327423Y-110640844D01*
X88278049Y-110566951D01*
X88204156Y-110517577D01*
X87757002Y-110070423D01*
X87757002Y-109961252D01*
X87915750Y-110120000D01*
X88656310Y-110120000D01*
X88889699Y-110023327D01*
X89068327Y-109844698D01*
X89136652Y-109679745D01*
X92643861Y-109679745D01*
X92717995Y-109925864D01*
X93255223Y-110118965D01*
X93825454Y-110091778D01*
X94226005Y-109925864D01*
X94300139Y-109679745D01*
X93472000Y-108851605D01*
X92643861Y-109679745D01*
X89136652Y-109679745D01*
X89165000Y-109611309D01*
X89165000Y-108870750D01*
X89006250Y-108712000D01*
X87757000Y-108712000D01*
X87757000Y-108732000D01*
X87503000Y-108732000D01*
X87503000Y-108712000D01*
X87483000Y-108712000D01*
X87483000Y-108458000D01*
X87503000Y-108458000D01*
X87503000Y-108438000D01*
X87757000Y-108438000D01*
X87757000Y-108458000D01*
X89006250Y-108458000D01*
X89009027Y-108455223D01*
X92025035Y-108455223D01*
X92052222Y-109025454D01*
X92218136Y-109426005D01*
X92464255Y-109500139D01*
X93292395Y-108672000D01*
X93651605Y-108672000D01*
X94479745Y-109500139D01*
X94725864Y-109426005D01*
X94879795Y-108997750D01*
X98083000Y-108997750D01*
X98083000Y-109688309D01*
X98179673Y-109921698D01*
X98358301Y-110100327D01*
X98591690Y-110197000D01*
X99282250Y-110197000D01*
X99441000Y-110038250D01*
X99441000Y-108839000D01*
X98241750Y-108839000D01*
X98083000Y-108997750D01*
X94879795Y-108997750D01*
X94918965Y-108888777D01*
X94891778Y-108318546D01*
X94725864Y-107917995D01*
X94479745Y-107843861D01*
X93651605Y-108672000D01*
X93292395Y-108672000D01*
X92464255Y-107843861D01*
X92218136Y-107917995D01*
X92025035Y-108455223D01*
X89009027Y-108455223D01*
X89165000Y-108299250D01*
X89165000Y-107558691D01*
X89068327Y-107325302D01*
X88889699Y-107146673D01*
X88754956Y-107090861D01*
X88931310Y-106914507D01*
X88976669Y-106805000D01*
X89958853Y-106805000D01*
X90033700Y-106819888D01*
X90108547Y-106805000D01*
X90108552Y-106805000D01*
X90330237Y-106760904D01*
X90581629Y-106592929D01*
X90624031Y-106529470D01*
X92163608Y-104989893D01*
X92073843Y-105124235D01*
X92024560Y-105372000D01*
X92024560Y-106972000D01*
X92073843Y-107219765D01*
X92214191Y-107429809D01*
X92424235Y-107570157D01*
X92658187Y-107616693D01*
X92643861Y-107664255D01*
X93472000Y-108492395D01*
X94300139Y-107664255D01*
X94285813Y-107616693D01*
X94519765Y-107570157D01*
X94729809Y-107429809D01*
X94870157Y-107219765D01*
X94902533Y-107057000D01*
X98373344Y-107057000D01*
X98497375Y-107242625D01*
X98519032Y-107257096D01*
X98358301Y-107323673D01*
X98179673Y-107502302D01*
X98083000Y-107735691D01*
X98083000Y-108426250D01*
X98241750Y-108585000D01*
X99441000Y-108585000D01*
X99441000Y-108565000D01*
X99695000Y-108565000D01*
X99695000Y-108585000D01*
X99715000Y-108585000D01*
X99715000Y-108839000D01*
X99695000Y-108839000D01*
X99695000Y-110038250D01*
X99853750Y-110197000D01*
X100544310Y-110197000D01*
X100777699Y-110100327D01*
X100956327Y-109921698D01*
X101022904Y-109760967D01*
X101037375Y-109782625D01*
X101528582Y-110110839D01*
X101961744Y-110197000D01*
X102254256Y-110197000D01*
X102687418Y-110110839D01*
X103178625Y-109782625D01*
X103378000Y-109484239D01*
X103577375Y-109782625D01*
X104068582Y-110110839D01*
X104501744Y-110197000D01*
X104794256Y-110197000D01*
X105227418Y-110110839D01*
X105718625Y-109782625D01*
X105918000Y-109484239D01*
X106117375Y-109782625D01*
X106608582Y-110110839D01*
X107041744Y-110197000D01*
X107334256Y-110197000D01*
X107767418Y-110110839D01*
X108258625Y-109782625D01*
X108458000Y-109484239D01*
X108657375Y-109782625D01*
X109148582Y-110110839D01*
X109581744Y-110197000D01*
X109874256Y-110197000D01*
X110307418Y-110110839D01*
X110798625Y-109782625D01*
X110998000Y-109484239D01*
X111197375Y-109782625D01*
X111688582Y-110110839D01*
X112121744Y-110197000D01*
X112414256Y-110197000D01*
X112717900Y-110136602D01*
X112717900Y-111108467D01*
X112522000Y-111224794D01*
X112522000Y-112268000D01*
X112542000Y-112268000D01*
X112542000Y-112522000D01*
X112522000Y-112522000D01*
X112522000Y-113565206D01*
X112717900Y-113681533D01*
X112717900Y-114172298D01*
X112704218Y-114185980D01*
X112672881Y-114173000D01*
X112117119Y-114173000D01*
X111603663Y-114385680D01*
X111210680Y-114778663D01*
X111125000Y-114985513D01*
X111039320Y-114778663D01*
X110646337Y-114385680D01*
X110132881Y-114173000D01*
X109577119Y-114173000D01*
X109063663Y-114385680D01*
X108670680Y-114778663D01*
X108585000Y-114985513D01*
X108499320Y-114778663D01*
X108106337Y-114385680D01*
X107592881Y-114173000D01*
X107037119Y-114173000D01*
X106523663Y-114385680D01*
X106130680Y-114778663D01*
X106045000Y-114985513D01*
X105959320Y-114778663D01*
X105566337Y-114385680D01*
X105052881Y-114173000D01*
X104497119Y-114173000D01*
X103983663Y-114385680D01*
X103590680Y-114778663D01*
X103505000Y-114985513D01*
X103419320Y-114778663D01*
X103026337Y-114385680D01*
X102512881Y-114173000D01*
X101957119Y-114173000D01*
X101443663Y-114385680D01*
X101050680Y-114778663D01*
X100838000Y-115292119D01*
X100838000Y-115847881D01*
X101050680Y-116361337D01*
X101443663Y-116754320D01*
X101957119Y-116967000D01*
X102512881Y-116967000D01*
X103026337Y-116754320D01*
X103419320Y-116361337D01*
X103505000Y-116154487D01*
X103590680Y-116361337D01*
X103983663Y-116754320D01*
X104497119Y-116967000D01*
X105052881Y-116967000D01*
X105566337Y-116754320D01*
X105959320Y-116361337D01*
X106045000Y-116154487D01*
X106130680Y-116361337D01*
X106523663Y-116754320D01*
X107037119Y-116967000D01*
X107592881Y-116967000D01*
X108106337Y-116754320D01*
X108499320Y-116361337D01*
X108585000Y-116154487D01*
X108670680Y-116361337D01*
X109063663Y-116754320D01*
X109577119Y-116967000D01*
X110132881Y-116967000D01*
X110646337Y-116754320D01*
X111039320Y-116361337D01*
X111125000Y-116154487D01*
X111210680Y-116361337D01*
X111603663Y-116754320D01*
X112117119Y-116967000D01*
X112672881Y-116967000D01*
X113186337Y-116754320D01*
X113579320Y-116361337D01*
X113665000Y-116154487D01*
X113750680Y-116361337D01*
X114143663Y-116754320D01*
X114657119Y-116967000D01*
X115212881Y-116967000D01*
X115726337Y-116754320D01*
X116119320Y-116361337D01*
X116205000Y-116154487D01*
X116290680Y-116361337D01*
X116683663Y-116754320D01*
X117197119Y-116967000D01*
X117752881Y-116967000D01*
X118266337Y-116754320D01*
X118659320Y-116361337D01*
X118745000Y-116154487D01*
X118830680Y-116361337D01*
X119223663Y-116754320D01*
X119737119Y-116967000D01*
X120292881Y-116967000D01*
X120806337Y-116754320D01*
X121199320Y-116361337D01*
X121285000Y-116154487D01*
X121370680Y-116361337D01*
X121763663Y-116754320D01*
X122277119Y-116967000D01*
X122446421Y-116967000D01*
X121430422Y-117983000D01*
X121139578Y-117983000D01*
X120760025Y-117603447D01*
X120710649Y-117529551D01*
X120417910Y-117333948D01*
X120159765Y-117282600D01*
X120159761Y-117282600D01*
X120072600Y-117265263D01*
X119985439Y-117282600D01*
X114964561Y-117282600D01*
X114877400Y-117265263D01*
X114790239Y-117282600D01*
X114790235Y-117282600D01*
X114532090Y-117333948D01*
X114313245Y-117480176D01*
X114313244Y-117480177D01*
X114239351Y-117529551D01*
X114189977Y-117603444D01*
X113810421Y-117983000D01*
X113387119Y-117983000D01*
X112873663Y-118195680D01*
X112480680Y-118588663D01*
X112395000Y-118795513D01*
X112309320Y-118588663D01*
X111916337Y-118195680D01*
X111402881Y-117983000D01*
X110847119Y-117983000D01*
X110333663Y-118195680D01*
X109940680Y-118588663D01*
X109855000Y-118795513D01*
X109769320Y-118588663D01*
X109376337Y-118195680D01*
X108862881Y-117983000D01*
X108307119Y-117983000D01*
X107793663Y-118195680D01*
X107400680Y-118588663D01*
X107315000Y-118795513D01*
X107229320Y-118588663D01*
X106836337Y-118195680D01*
X106322881Y-117983000D01*
X105767119Y-117983000D01*
X105253663Y-118195680D01*
X104860680Y-118588663D01*
X104775000Y-118795513D01*
X104689320Y-118588663D01*
X104296337Y-118195680D01*
X103782881Y-117983000D01*
X103227119Y-117983000D01*
X102713663Y-118195680D01*
X102320680Y-118588663D01*
X102108000Y-119102119D01*
X102108000Y-119657881D01*
X102320680Y-120171337D01*
X102713663Y-120564320D01*
X103227119Y-120777000D01*
X103460299Y-120777000D01*
X107237662Y-124554363D01*
X107072242Y-124719783D01*
X106869000Y-125210452D01*
X106869000Y-125741548D01*
X107072242Y-126232217D01*
X107130025Y-126290000D01*
X101612590Y-126290000D01*
X101733797Y-126154396D01*
X101876716Y-125809329D01*
X101753374Y-125603000D01*
X100711000Y-125603000D01*
X100711000Y-125623000D01*
X100457000Y-125623000D01*
X100457000Y-125603000D01*
X99414626Y-125603000D01*
X99291284Y-125809329D01*
X99434203Y-126154396D01*
X99555410Y-126290000D01*
X78180000Y-126290000D01*
X78180000Y-125783745D01*
X95539461Y-125783745D01*
X95613595Y-126029864D01*
X96150823Y-126222965D01*
X96721054Y-126195778D01*
X97121605Y-126029864D01*
X97195739Y-125783745D01*
X96367600Y-124955605D01*
X95539461Y-125783745D01*
X78180000Y-125783745D01*
X78180000Y-124559223D01*
X94920635Y-124559223D01*
X94947822Y-125129454D01*
X95113736Y-125530005D01*
X95359855Y-125604139D01*
X96187995Y-124776000D01*
X96547205Y-124776000D01*
X97375345Y-125604139D01*
X97621464Y-125530005D01*
X97814565Y-124992777D01*
X97787378Y-124422546D01*
X97621464Y-124021995D01*
X97375345Y-123947861D01*
X96547205Y-124776000D01*
X96187995Y-124776000D01*
X95359855Y-123947861D01*
X95113736Y-124021995D01*
X94920635Y-124559223D01*
X78180000Y-124559223D01*
X78180000Y-121190750D01*
X86055000Y-121190750D01*
X86055000Y-122781310D01*
X86151673Y-123014699D01*
X86330302Y-123193327D01*
X86563691Y-123290000D01*
X88154250Y-123290000D01*
X88313000Y-123131250D01*
X88313000Y-121032000D01*
X88567000Y-121032000D01*
X88567000Y-123131250D01*
X88725750Y-123290000D01*
X90316309Y-123290000D01*
X90549698Y-123193327D01*
X90728327Y-123014699D01*
X90825000Y-122781310D01*
X90825000Y-121190750D01*
X90666250Y-121032000D01*
X88567000Y-121032000D01*
X88313000Y-121032000D01*
X86213750Y-121032000D01*
X86055000Y-121190750D01*
X78180000Y-121190750D01*
X78180000Y-116490750D01*
X83055000Y-116490750D01*
X83055000Y-118081310D01*
X83151673Y-118314699D01*
X83330302Y-118493327D01*
X83563691Y-118590000D01*
X85154250Y-118590000D01*
X85313000Y-118431250D01*
X85313000Y-116332000D01*
X83213750Y-116332000D01*
X83055000Y-116490750D01*
X78180000Y-116490750D01*
X78180000Y-114328690D01*
X83055000Y-114328690D01*
X83055000Y-115919250D01*
X83213750Y-116078000D01*
X85313000Y-116078000D01*
X85313000Y-113978750D01*
X85154250Y-113820000D01*
X83563691Y-113820000D01*
X83330302Y-113916673D01*
X83151673Y-114095301D01*
X83055000Y-114328690D01*
X78180000Y-114328690D01*
X78180000Y-77222060D01*
X83572545Y-77222060D01*
X83655884Y-77475953D01*
X84220306Y-77681590D01*
X84820458Y-77655579D01*
X85254116Y-77475953D01*
X85337455Y-77222060D01*
X84455000Y-76339605D01*
X83572545Y-77222060D01*
X78180000Y-77222060D01*
X78180000Y-72785000D01*
X82932560Y-72785000D01*
X82932560Y-74535000D01*
X82981843Y-74782765D01*
X83122191Y-74992809D01*
X83317745Y-75123475D01*
X83278306Y-75162914D01*
X83392938Y-75277546D01*
X83139047Y-75360884D01*
X82933410Y-75925306D01*
X82959421Y-76525458D01*
X83139047Y-76959116D01*
X83392940Y-77042455D01*
X84275395Y-76160000D01*
X84261253Y-76145858D01*
X84440858Y-75966253D01*
X84455000Y-75980395D01*
X84469143Y-75966253D01*
X84648748Y-76145858D01*
X84634605Y-76160000D01*
X85517060Y-77042455D01*
X85770953Y-76959116D01*
X85976590Y-76394694D01*
X85950579Y-75794542D01*
X85770953Y-75360884D01*
X85517062Y-75277546D01*
X85631694Y-75162914D01*
X85592255Y-75123475D01*
X85787809Y-74992809D01*
X85928157Y-74782765D01*
X85975451Y-74545000D01*
X88213344Y-74545000D01*
X88337375Y-74730625D01*
X88828582Y-75058839D01*
X89261744Y-75145000D01*
X89554256Y-75145000D01*
X89987418Y-75058839D01*
X90478625Y-74730625D01*
X90678000Y-74432239D01*
X90877375Y-74730625D01*
X91368582Y-75058839D01*
X91801744Y-75145000D01*
X92094256Y-75145000D01*
X92527418Y-75058839D01*
X93018625Y-74730625D01*
X93030816Y-74712381D01*
X93039843Y-74757765D01*
X93180191Y-74967809D01*
X93390235Y-75108157D01*
X93638000Y-75157440D01*
X95338000Y-75157440D01*
X95585765Y-75108157D01*
X95795809Y-74967809D01*
X95936157Y-74757765D01*
X95985440Y-74510000D01*
X95985440Y-72810000D01*
X95936157Y-72562235D01*
X95795809Y-72352191D01*
X95585765Y-72211843D01*
X95338000Y-72162560D01*
X93638000Y-72162560D01*
X93390235Y-72211843D01*
X93180191Y-72352191D01*
X93039843Y-72562235D01*
X93030816Y-72607619D01*
X93018625Y-72589375D01*
X92527418Y-72261161D01*
X92094256Y-72175000D01*
X91801744Y-72175000D01*
X91368582Y-72261161D01*
X90877375Y-72589375D01*
X90678000Y-72887761D01*
X90478625Y-72589375D01*
X89987418Y-72261161D01*
X89554256Y-72175000D01*
X89261744Y-72175000D01*
X88828582Y-72261161D01*
X88337375Y-72589375D01*
X88213344Y-72775000D01*
X85975451Y-72775000D01*
X85928157Y-72537235D01*
X85787809Y-72327191D01*
X85577765Y-72186843D01*
X85330000Y-72137560D01*
X83580000Y-72137560D01*
X83332235Y-72186843D01*
X83122191Y-72327191D01*
X82981843Y-72537235D01*
X82932560Y-72785000D01*
X78180000Y-72785000D01*
X78180000Y-67609778D01*
X87265000Y-67609778D01*
X87265000Y-68260222D01*
X87513914Y-68861153D01*
X87973847Y-69321086D01*
X88574778Y-69570000D01*
X89225222Y-69570000D01*
X89826153Y-69321086D01*
X90286086Y-68861153D01*
X90535000Y-68260222D01*
X90535000Y-67619778D01*
X92345000Y-67619778D01*
X92345000Y-68270222D01*
X92593914Y-68871153D01*
X93053847Y-69331086D01*
X93654778Y-69580000D01*
X94305222Y-69580000D01*
X94906153Y-69331086D01*
X95366086Y-68871153D01*
X95615000Y-68270222D01*
X95615000Y-67619778D01*
X95366086Y-67018847D01*
X94906153Y-66558914D01*
X94305222Y-66310000D01*
X93654778Y-66310000D01*
X93053847Y-66558914D01*
X92593914Y-67018847D01*
X92345000Y-67619778D01*
X90535000Y-67619778D01*
X90535000Y-67609778D01*
X90286086Y-67008847D01*
X89826153Y-66548914D01*
X89225222Y-66300000D01*
X88574778Y-66300000D01*
X87973847Y-66548914D01*
X87513914Y-67008847D01*
X87265000Y-67609778D01*
X78180000Y-67609778D01*
X78180000Y-64210000D01*
X173280001Y-64210000D01*
X173280000Y-126290000D01*
G36*
X133741914Y-118964153D02*
X134201847Y-119424086D01*
X134802778Y-119673000D01*
X135453222Y-119673000D01*
X136054153Y-119424086D01*
X136514086Y-118964153D01*
X136531132Y-118923000D01*
X140224868Y-118923000D01*
X140241914Y-118964153D01*
X140701847Y-119424086D01*
X141302778Y-119673000D01*
X141953222Y-119673000D01*
X141994375Y-119655954D01*
X145904277Y-123565856D01*
X145953651Y-123639749D01*
X146027544Y-123689123D01*
X146027545Y-123689124D01*
X146145973Y-123768255D01*
X146246390Y-123835352D01*
X146504535Y-123886700D01*
X146504539Y-123886700D01*
X146591700Y-123904037D01*
X146678861Y-123886700D01*
X148500736Y-123886700D01*
X148463000Y-124076413D01*
X148463000Y-125351588D01*
X148544056Y-125759082D01*
X148852821Y-126221180D01*
X148955817Y-126290000D01*
X109277975Y-126290000D01*
X109335758Y-126232217D01*
X109539000Y-125741548D01*
X109539000Y-125210452D01*
X109437745Y-124966000D01*
X109542499Y-124966000D01*
X110086371Y-125509873D01*
X110128771Y-125573329D01*
X110380163Y-125741304D01*
X110601848Y-125785400D01*
X110601852Y-125785400D01*
X110676700Y-125800288D01*
X110751548Y-125785400D01*
X116119753Y-125785400D01*
X116194600Y-125800288D01*
X116269447Y-125785400D01*
X116269452Y-125785400D01*
X116491137Y-125741304D01*
X116742529Y-125573329D01*
X116784931Y-125509870D01*
X116999295Y-125295506D01*
X117094642Y-125335000D01*
X117695358Y-125335000D01*
X118250346Y-125105116D01*
X118645000Y-124710462D01*
X119039654Y-125105116D01*
X119594642Y-125335000D01*
X120195358Y-125335000D01*
X120750346Y-125105116D01*
X121145000Y-124710462D01*
X121539654Y-125105116D01*
X122094642Y-125335000D01*
X122695358Y-125335000D01*
X123250346Y-125105116D01*
X123645000Y-124710462D01*
X124039654Y-125105116D01*
X124594642Y-125335000D01*
X125195358Y-125335000D01*
X125750346Y-125105116D01*
X126175116Y-124680346D01*
X126405000Y-124125358D01*
X126405000Y-123524642D01*
X126175116Y-122969654D01*
X125750346Y-122544884D01*
X125195358Y-122315000D01*
X124594642Y-122315000D01*
X124039654Y-122544884D01*
X123645000Y-122939538D01*
X123250346Y-122544884D01*
X122695358Y-122315000D01*
X122479802Y-122315000D01*
X122847302Y-121947500D01*
X127022653Y-121947500D01*
X127097500Y-121962388D01*
X127172347Y-121947500D01*
X127172352Y-121947500D01*
X127394037Y-121903404D01*
X127645429Y-121735429D01*
X127687831Y-121671970D01*
X128595782Y-120764020D01*
X128627119Y-120777000D01*
X129182881Y-120777000D01*
X129696337Y-120564320D01*
X130089320Y-120171337D01*
X130302000Y-119657881D01*
X130302000Y-119102119D01*
X130227807Y-118923000D01*
X133724868Y-118923000D01*
X133741914Y-118964153D01*
X133741914Y-118964153D01*
G37*
X133741914Y-118964153D02*
X134201847Y-119424086D01*
X134802778Y-119673000D01*
X135453222Y-119673000D01*
X136054153Y-119424086D01*
X136514086Y-118964153D01*
X136531132Y-118923000D01*
X140224868Y-118923000D01*
X140241914Y-118964153D01*
X140701847Y-119424086D01*
X141302778Y-119673000D01*
X141953222Y-119673000D01*
X141994375Y-119655954D01*
X145904277Y-123565856D01*
X145953651Y-123639749D01*
X146027544Y-123689123D01*
X146027545Y-123689124D01*
X146145973Y-123768255D01*
X146246390Y-123835352D01*
X146504535Y-123886700D01*
X146504539Y-123886700D01*
X146591700Y-123904037D01*
X146678861Y-123886700D01*
X148500736Y-123886700D01*
X148463000Y-124076413D01*
X148463000Y-125351588D01*
X148544056Y-125759082D01*
X148852821Y-126221180D01*
X148955817Y-126290000D01*
X109277975Y-126290000D01*
X109335758Y-126232217D01*
X109539000Y-125741548D01*
X109539000Y-125210452D01*
X109437745Y-124966000D01*
X109542499Y-124966000D01*
X110086371Y-125509873D01*
X110128771Y-125573329D01*
X110380163Y-125741304D01*
X110601848Y-125785400D01*
X110601852Y-125785400D01*
X110676700Y-125800288D01*
X110751548Y-125785400D01*
X116119753Y-125785400D01*
X116194600Y-125800288D01*
X116269447Y-125785400D01*
X116269452Y-125785400D01*
X116491137Y-125741304D01*
X116742529Y-125573329D01*
X116784931Y-125509870D01*
X116999295Y-125295506D01*
X117094642Y-125335000D01*
X117695358Y-125335000D01*
X118250346Y-125105116D01*
X118645000Y-124710462D01*
X119039654Y-125105116D01*
X119594642Y-125335000D01*
X120195358Y-125335000D01*
X120750346Y-125105116D01*
X121145000Y-124710462D01*
X121539654Y-125105116D01*
X122094642Y-125335000D01*
X122695358Y-125335000D01*
X123250346Y-125105116D01*
X123645000Y-124710462D01*
X124039654Y-125105116D01*
X124594642Y-125335000D01*
X125195358Y-125335000D01*
X125750346Y-125105116D01*
X126175116Y-124680346D01*
X126405000Y-124125358D01*
X126405000Y-123524642D01*
X126175116Y-122969654D01*
X125750346Y-122544884D01*
X125195358Y-122315000D01*
X124594642Y-122315000D01*
X124039654Y-122544884D01*
X123645000Y-122939538D01*
X123250346Y-122544884D01*
X122695358Y-122315000D01*
X122479802Y-122315000D01*
X122847302Y-121947500D01*
X127022653Y-121947500D01*
X127097500Y-121962388D01*
X127172347Y-121947500D01*
X127172352Y-121947500D01*
X127394037Y-121903404D01*
X127645429Y-121735429D01*
X127687831Y-121671970D01*
X128595782Y-120764020D01*
X128627119Y-120777000D01*
X129182881Y-120777000D01*
X129696337Y-120564320D01*
X130089320Y-120171337D01*
X130302000Y-119657881D01*
X130302000Y-119102119D01*
X130227807Y-118923000D01*
X133724868Y-118923000D01*
X133741914Y-118964153D01*
G36*
X163334371Y-122048473D02*
X163376771Y-122111929D01*
X163440227Y-122154329D01*
X163628162Y-122279904D01*
X163676305Y-122289480D01*
X163817526Y-122317571D01*
X164029375Y-122634625D01*
X164384012Y-122871586D01*
X163301599Y-123954000D01*
X161392651Y-123954000D01*
X161335944Y-123668918D01*
X161027179Y-123206820D01*
X160565081Y-122898056D01*
X160020000Y-122789632D01*
X159474918Y-122898056D01*
X159012820Y-123206821D01*
X158750000Y-123600159D01*
X158487179Y-123206820D01*
X158025081Y-122898056D01*
X157480000Y-122789632D01*
X156934918Y-122898056D01*
X156472820Y-123206821D01*
X156210000Y-123600159D01*
X155947179Y-123206820D01*
X155825000Y-123125183D01*
X155825000Y-123088865D01*
X155842338Y-123001700D01*
X155773652Y-122656390D01*
X155578049Y-122363651D01*
X155285310Y-122168048D01*
X155027165Y-122116700D01*
X154940000Y-122099362D01*
X154852836Y-122116700D01*
X146958279Y-122116700D01*
X143245954Y-118404375D01*
X143263000Y-118363222D01*
X143263000Y-117712778D01*
X143163515Y-117472600D01*
X158758499Y-117472600D01*
X163334371Y-122048473D01*
X163334371Y-122048473D01*
G37*
X163334371Y-122048473D02*
X163376771Y-122111929D01*
X163440227Y-122154329D01*
X163628162Y-122279904D01*
X163676305Y-122289480D01*
X163817526Y-122317571D01*
X164029375Y-122634625D01*
X164384012Y-122871586D01*
X163301599Y-123954000D01*
X161392651Y-123954000D01*
X161335944Y-123668918D01*
X161027179Y-123206820D01*
X160565081Y-122898056D01*
X160020000Y-122789632D01*
X159474918Y-122898056D01*
X159012820Y-123206821D01*
X158750000Y-123600159D01*
X158487179Y-123206820D01*
X158025081Y-122898056D01*
X157480000Y-122789632D01*
X156934918Y-122898056D01*
X156472820Y-123206821D01*
X156210000Y-123600159D01*
X155947179Y-123206820D01*
X155825000Y-123125183D01*
X155825000Y-123088865D01*
X155842338Y-123001700D01*
X155773652Y-122656390D01*
X155578049Y-122363651D01*
X155285310Y-122168048D01*
X155027165Y-122116700D01*
X154940000Y-122099362D01*
X154852836Y-122116700D01*
X146958279Y-122116700D01*
X143245954Y-118404375D01*
X143263000Y-118363222D01*
X143263000Y-117712778D01*
X143163515Y-117472600D01*
X158758499Y-117472600D01*
X163334371Y-122048473D01*
G36*
X116398748Y-119365858D02*
X116384605Y-119380000D01*
X117185213Y-120180608D01*
X117427397Y-120111143D01*
X117477535Y-119970607D01*
X117560680Y-120171337D01*
X117953663Y-120564320D01*
X118467119Y-120777000D01*
X119022881Y-120777000D01*
X119536337Y-120564320D01*
X119929320Y-120171337D01*
X120015000Y-119964487D01*
X120100680Y-120171337D01*
X120493663Y-120564320D01*
X121007119Y-120777000D01*
X121562881Y-120777000D01*
X122076337Y-120564320D01*
X122469320Y-120171337D01*
X122555000Y-119964487D01*
X122640680Y-120171337D01*
X122896843Y-120427500D01*
X122607346Y-120427500D01*
X122532499Y-120412612D01*
X122457652Y-120427500D01*
X122457648Y-120427500D01*
X122235963Y-120471596D01*
X121984571Y-120639571D01*
X121942171Y-120703027D01*
X120290705Y-122354494D01*
X120195358Y-122315000D01*
X119594642Y-122315000D01*
X119039654Y-122544884D01*
X118645000Y-122939538D01*
X118250346Y-122544884D01*
X117695358Y-122315000D01*
X117094642Y-122315000D01*
X116539654Y-122544884D01*
X116145000Y-122939538D01*
X115750346Y-122544884D01*
X115195358Y-122315000D01*
X114594642Y-122315000D01*
X114039654Y-122544884D01*
X113870504Y-122714034D01*
X113868157Y-122702235D01*
X113727809Y-122492191D01*
X113517765Y-122351843D01*
X113270000Y-122302560D01*
X111520000Y-122302560D01*
X111272235Y-122351843D01*
X111062191Y-122492191D01*
X111011923Y-122567421D01*
X109116464Y-120671963D01*
X109376337Y-120564320D01*
X109769320Y-120171337D01*
X109855000Y-119964487D01*
X109940680Y-120171337D01*
X110333663Y-120564320D01*
X110847119Y-120777000D01*
X111402881Y-120777000D01*
X111916337Y-120564320D01*
X112309320Y-120171337D01*
X112395000Y-119964487D01*
X112480680Y-120171337D01*
X112873663Y-120564320D01*
X113387119Y-120777000D01*
X113942881Y-120777000D01*
X114456337Y-120564320D01*
X114660444Y-120360213D01*
X115404392Y-120360213D01*
X115473857Y-120602397D01*
X115997302Y-120789144D01*
X116552368Y-120761362D01*
X116936143Y-120602397D01*
X117005608Y-120360213D01*
X116205000Y-119559605D01*
X115404392Y-120360213D01*
X114660444Y-120360213D01*
X114849320Y-120171337D01*
X114928428Y-119980353D01*
X114982603Y-120111143D01*
X115224787Y-120180608D01*
X116025395Y-119380000D01*
X116011253Y-119365858D01*
X116190858Y-119186253D01*
X116205000Y-119200395D01*
X116219143Y-119186253D01*
X116398748Y-119365858D01*
X116398748Y-119365858D01*
G37*
X116398748Y-119365858D02*
X116384605Y-119380000D01*
X117185213Y-120180608D01*
X117427397Y-120111143D01*
X117477535Y-119970607D01*
X117560680Y-120171337D01*
X117953663Y-120564320D01*
X118467119Y-120777000D01*
X119022881Y-120777000D01*
X119536337Y-120564320D01*
X119929320Y-120171337D01*
X120015000Y-119964487D01*
X120100680Y-120171337D01*
X120493663Y-120564320D01*
X121007119Y-120777000D01*
X121562881Y-120777000D01*
X122076337Y-120564320D01*
X122469320Y-120171337D01*
X122555000Y-119964487D01*
X122640680Y-120171337D01*
X122896843Y-120427500D01*
X122607346Y-120427500D01*
X122532499Y-120412612D01*
X122457652Y-120427500D01*
X122457648Y-120427500D01*
X122235963Y-120471596D01*
X121984571Y-120639571D01*
X121942171Y-120703027D01*
X120290705Y-122354494D01*
X120195358Y-122315000D01*
X119594642Y-122315000D01*
X119039654Y-122544884D01*
X118645000Y-122939538D01*
X118250346Y-122544884D01*
X117695358Y-122315000D01*
X117094642Y-122315000D01*
X116539654Y-122544884D01*
X116145000Y-122939538D01*
X115750346Y-122544884D01*
X115195358Y-122315000D01*
X114594642Y-122315000D01*
X114039654Y-122544884D01*
X113870504Y-122714034D01*
X113868157Y-122702235D01*
X113727809Y-122492191D01*
X113517765Y-122351843D01*
X113270000Y-122302560D01*
X111520000Y-122302560D01*
X111272235Y-122351843D01*
X111062191Y-122492191D01*
X111011923Y-122567421D01*
X109116464Y-120671963D01*
X109376337Y-120564320D01*
X109769320Y-120171337D01*
X109855000Y-119964487D01*
X109940680Y-120171337D01*
X110333663Y-120564320D01*
X110847119Y-120777000D01*
X111402881Y-120777000D01*
X111916337Y-120564320D01*
X112309320Y-120171337D01*
X112395000Y-119964487D01*
X112480680Y-120171337D01*
X112873663Y-120564320D01*
X113387119Y-120777000D01*
X113942881Y-120777000D01*
X114456337Y-120564320D01*
X114660444Y-120360213D01*
X115404392Y-120360213D01*
X115473857Y-120602397D01*
X115997302Y-120789144D01*
X116552368Y-120761362D01*
X116936143Y-120602397D01*
X117005608Y-120360213D01*
X116205000Y-119559605D01*
X115404392Y-120360213D01*
X114660444Y-120360213D01*
X114849320Y-120171337D01*
X114928428Y-119980353D01*
X114982603Y-120111143D01*
X115224787Y-120180608D01*
X116025395Y-119380000D01*
X116011253Y-119365858D01*
X116190858Y-119186253D01*
X116205000Y-119200395D01*
X116219143Y-119186253D01*
X116398748Y-119365858D01*
G36*
X167057201Y-120198396D02*
X166407586Y-120848012D01*
X166170625Y-120493375D01*
X165872239Y-120294000D01*
X166170625Y-120094625D01*
X166498839Y-119603418D01*
X166614092Y-119024000D01*
X166498839Y-118444582D01*
X166170625Y-117953375D01*
X165851522Y-117740157D01*
X165981358Y-117679183D01*
X166371645Y-117250924D01*
X166541476Y-116840890D01*
X166420155Y-116611000D01*
X165227000Y-116611000D01*
X165227000Y-116631000D01*
X164973000Y-116631000D01*
X164973000Y-116611000D01*
X163779845Y-116611000D01*
X163658524Y-116840890D01*
X163828355Y-117250924D01*
X164218642Y-117679183D01*
X164348478Y-117740157D01*
X164029375Y-117953375D01*
X163989121Y-118013619D01*
X160683131Y-114707630D01*
X160640729Y-114644171D01*
X160389337Y-114476196D01*
X160167652Y-114432100D01*
X160167647Y-114432100D01*
X160092800Y-114417212D01*
X160017953Y-114432100D01*
X143027363Y-114432100D01*
X143263000Y-113863222D01*
X143263000Y-113212778D01*
X143014086Y-112611847D01*
X142554153Y-112151914D01*
X142258861Y-112029600D01*
X160935499Y-112029600D01*
X163334371Y-114428473D01*
X163376771Y-114491929D01*
X163440227Y-114534329D01*
X163628162Y-114659904D01*
X163667170Y-114667663D01*
X163817526Y-114697571D01*
X164029375Y-115014625D01*
X164348478Y-115227843D01*
X164218642Y-115288817D01*
X163828355Y-115717076D01*
X163658524Y-116127110D01*
X163779845Y-116357000D01*
X164973000Y-116357000D01*
X164973000Y-116337000D01*
X165227000Y-116337000D01*
X165227000Y-116357000D01*
X166420155Y-116357000D01*
X166541476Y-116127110D01*
X166371645Y-115717076D01*
X165981358Y-115288817D01*
X165851522Y-115227843D01*
X166170625Y-115014625D01*
X166498839Y-114523418D01*
X166614092Y-113944000D01*
X166498839Y-113364582D01*
X166170625Y-112873375D01*
X166152381Y-112861184D01*
X166197765Y-112852157D01*
X166407809Y-112711809D01*
X166548157Y-112501765D01*
X166597440Y-112254000D01*
X166597440Y-110554000D01*
X166548157Y-110306235D01*
X166407809Y-110096191D01*
X166197765Y-109955843D01*
X165950000Y-109906560D01*
X164958641Y-109906560D01*
X167057200Y-107808001D01*
X167057201Y-120198396D01*
X167057201Y-120198396D01*
G37*
X167057201Y-120198396D02*
X166407586Y-120848012D01*
X166170625Y-120493375D01*
X165872239Y-120294000D01*
X166170625Y-120094625D01*
X166498839Y-119603418D01*
X166614092Y-119024000D01*
X166498839Y-118444582D01*
X166170625Y-117953375D01*
X165851522Y-117740157D01*
X165981358Y-117679183D01*
X166371645Y-117250924D01*
X166541476Y-116840890D01*
X166420155Y-116611000D01*
X165227000Y-116611000D01*
X165227000Y-116631000D01*
X164973000Y-116631000D01*
X164973000Y-116611000D01*
X163779845Y-116611000D01*
X163658524Y-116840890D01*
X163828355Y-117250924D01*
X164218642Y-117679183D01*
X164348478Y-117740157D01*
X164029375Y-117953375D01*
X163989121Y-118013619D01*
X160683131Y-114707630D01*
X160640729Y-114644171D01*
X160389337Y-114476196D01*
X160167652Y-114432100D01*
X160167647Y-114432100D01*
X160092800Y-114417212D01*
X160017953Y-114432100D01*
X143027363Y-114432100D01*
X143263000Y-113863222D01*
X143263000Y-113212778D01*
X143014086Y-112611847D01*
X142554153Y-112151914D01*
X142258861Y-112029600D01*
X160935499Y-112029600D01*
X163334371Y-114428473D01*
X163376771Y-114491929D01*
X163440227Y-114534329D01*
X163628162Y-114659904D01*
X163667170Y-114667663D01*
X163817526Y-114697571D01*
X164029375Y-115014625D01*
X164348478Y-115227843D01*
X164218642Y-115288817D01*
X163828355Y-115717076D01*
X163658524Y-116127110D01*
X163779845Y-116357000D01*
X164973000Y-116357000D01*
X164973000Y-116337000D01*
X165227000Y-116337000D01*
X165227000Y-116357000D01*
X166420155Y-116357000D01*
X166541476Y-116127110D01*
X166371645Y-115717076D01*
X165981358Y-115288817D01*
X165851522Y-115227843D01*
X166170625Y-115014625D01*
X166498839Y-114523418D01*
X166614092Y-113944000D01*
X166498839Y-113364582D01*
X166170625Y-112873375D01*
X166152381Y-112861184D01*
X166197765Y-112852157D01*
X166407809Y-112711809D01*
X166548157Y-112501765D01*
X166597440Y-112254000D01*
X166597440Y-110554000D01*
X166548157Y-110306235D01*
X166407809Y-110096191D01*
X166197765Y-109955843D01*
X165950000Y-109906560D01*
X164958641Y-109906560D01*
X167057200Y-107808001D01*
X167057201Y-120198396D01*
G36*
X133807580Y-117046181D02*
X133741914Y-117111847D01*
X133724868Y-117153000D01*
X124599579Y-117153000D01*
X124315000Y-116868422D01*
X124315000Y-116759016D01*
X124817119Y-116967000D01*
X125372881Y-116967000D01*
X125886337Y-116754320D01*
X126279320Y-116361337D01*
X126365000Y-116154487D01*
X126450680Y-116361337D01*
X126843663Y-116754320D01*
X127357119Y-116967000D01*
X127912881Y-116967000D01*
X128426337Y-116754320D01*
X128819320Y-116361337D01*
X128905000Y-116154487D01*
X128990680Y-116361337D01*
X129383663Y-116754320D01*
X129897119Y-116967000D01*
X130452881Y-116967000D01*
X130966337Y-116754320D01*
X131359320Y-116361337D01*
X131572000Y-115847881D01*
X131572000Y-115292119D01*
X131496854Y-115110700D01*
X131872099Y-115110700D01*
X133807580Y-117046181D01*
X133807580Y-117046181D01*
G37*
X133807580Y-117046181D02*
X133741914Y-117111847D01*
X133724868Y-117153000D01*
X124599579Y-117153000D01*
X124315000Y-116868422D01*
X124315000Y-116759016D01*
X124817119Y-116967000D01*
X125372881Y-116967000D01*
X125886337Y-116754320D01*
X126279320Y-116361337D01*
X126365000Y-116154487D01*
X126450680Y-116361337D01*
X126843663Y-116754320D01*
X127357119Y-116967000D01*
X127912881Y-116967000D01*
X128426337Y-116754320D01*
X128819320Y-116361337D01*
X128905000Y-116154487D01*
X128990680Y-116361337D01*
X129383663Y-116754320D01*
X129897119Y-116967000D01*
X130452881Y-116967000D01*
X130966337Y-116754320D01*
X131359320Y-116361337D01*
X131572000Y-115847881D01*
X131572000Y-115292119D01*
X131496854Y-115110700D01*
X131872099Y-115110700D01*
X133807580Y-117046181D01*
G36*
X134201847Y-112151914D02*
X133741914Y-112611847D01*
X133584632Y-112991558D01*
X133531552Y-112981000D01*
X133531547Y-112981000D01*
X133456700Y-112966112D01*
X133381853Y-112981000D01*
X126365503Y-112981000D01*
X126490000Y-112680439D01*
X126490000Y-112109561D01*
X126456879Y-112029600D01*
X134497139Y-112029600D01*
X134201847Y-112151914D01*
X134201847Y-112151914D01*
G37*
X134201847Y-112151914D02*
X133741914Y-112611847D01*
X133584632Y-112991558D01*
X133531552Y-112981000D01*
X133531547Y-112981000D01*
X133456700Y-112966112D01*
X133381853Y-112981000D01*
X126365503Y-112981000D01*
X126490000Y-112680439D01*
X126490000Y-112109561D01*
X126456879Y-112029600D01*
X134497139Y-112029600D01*
X134201847Y-112151914D01*
G36*
X139381000Y-101334452D02*
X139381000Y-101865548D01*
X139584242Y-102356217D01*
X139959783Y-102731758D01*
X140293528Y-102870000D01*
X139959783Y-103008242D01*
X139584242Y-103383783D01*
X139381000Y-103874452D01*
X139381000Y-104400199D01*
X138981630Y-104799569D01*
X138918171Y-104841971D01*
X138750196Y-105093364D01*
X138706100Y-105315049D01*
X138706100Y-105315053D01*
X138691212Y-105389900D01*
X138706100Y-105464747D01*
X138706101Y-109162648D01*
X138691212Y-109237500D01*
X138750197Y-109534037D01*
X138867207Y-109709154D01*
X138918172Y-109785429D01*
X138981627Y-109827829D01*
X139663398Y-110509600D01*
X133725153Y-110509600D01*
X134106217Y-110351758D01*
X134481758Y-109976217D01*
X134685000Y-109485548D01*
X134685000Y-108954452D01*
X134481758Y-108463783D01*
X134106217Y-108088242D01*
X133772472Y-107950000D01*
X134106217Y-107811758D01*
X134481758Y-107436217D01*
X134685000Y-106945548D01*
X134685000Y-106414452D01*
X134481758Y-105923783D01*
X134106217Y-105548242D01*
X133818429Y-105429036D01*
X133856000Y-105240152D01*
X133856000Y-105240148D01*
X133856544Y-105237411D01*
X134058481Y-105102481D01*
X134353542Y-104660891D01*
X134457154Y-104140000D01*
X134353542Y-103619109D01*
X134058481Y-103177519D01*
X133616891Y-102882458D01*
X133554261Y-102870000D01*
X133616891Y-102857542D01*
X134058481Y-102562481D01*
X134353542Y-102120891D01*
X134457154Y-101600000D01*
X134355708Y-101090000D01*
X139482255Y-101090000D01*
X139381000Y-101334452D01*
X139381000Y-101334452D01*
G37*
X139381000Y-101334452D02*
X139381000Y-101865548D01*
X139584242Y-102356217D01*
X139959783Y-102731758D01*
X140293528Y-102870000D01*
X139959783Y-103008242D01*
X139584242Y-103383783D01*
X139381000Y-103874452D01*
X139381000Y-104400199D01*
X138981630Y-104799569D01*
X138918171Y-104841971D01*
X138750196Y-105093364D01*
X138706100Y-105315049D01*
X138706100Y-105315053D01*
X138691212Y-105389900D01*
X138706100Y-105464747D01*
X138706101Y-109162648D01*
X138691212Y-109237500D01*
X138750197Y-109534037D01*
X138867207Y-109709154D01*
X138918172Y-109785429D01*
X138981627Y-109827829D01*
X139663398Y-110509600D01*
X133725153Y-110509600D01*
X134106217Y-110351758D01*
X134481758Y-109976217D01*
X134685000Y-109485548D01*
X134685000Y-108954452D01*
X134481758Y-108463783D01*
X134106217Y-108088242D01*
X133772472Y-107950000D01*
X134106217Y-107811758D01*
X134481758Y-107436217D01*
X134685000Y-106945548D01*
X134685000Y-106414452D01*
X134481758Y-105923783D01*
X134106217Y-105548242D01*
X133818429Y-105429036D01*
X133856000Y-105240152D01*
X133856000Y-105240148D01*
X133856544Y-105237411D01*
X134058481Y-105102481D01*
X134353542Y-104660891D01*
X134457154Y-104140000D01*
X134353542Y-103619109D01*
X134058481Y-103177519D01*
X133616891Y-102882458D01*
X133554261Y-102870000D01*
X133616891Y-102857542D01*
X134058481Y-102562481D01*
X134353542Y-102120891D01*
X134457154Y-101600000D01*
X134355708Y-101090000D01*
X139482255Y-101090000D01*
X139381000Y-101334452D01*
G36*
X162274690Y-106279507D02*
X162706493Y-106711310D01*
X163270670Y-106945000D01*
X163881330Y-106945000D01*
X164445507Y-106711310D01*
X164621861Y-106534956D01*
X164677673Y-106669699D01*
X164856302Y-106848327D01*
X165089691Y-106945000D01*
X165770598Y-106945000D01*
X164001599Y-108714000D01*
X161392651Y-108714000D01*
X161335944Y-108428918D01*
X161027179Y-107966820D01*
X160565081Y-107658056D01*
X160020000Y-107549632D01*
X159474918Y-107658056D01*
X159012820Y-107966821D01*
X158750000Y-108360159D01*
X158487179Y-107966820D01*
X158237663Y-107800099D01*
X158195904Y-107590163D01*
X158027929Y-107338771D01*
X157776537Y-107170796D01*
X157554852Y-107126700D01*
X157480000Y-107111811D01*
X157405148Y-107126700D01*
X147388046Y-107126700D01*
X147313199Y-107111812D01*
X147238352Y-107126700D01*
X147238348Y-107126700D01*
X147016663Y-107170796D01*
X146765271Y-107338771D01*
X146722871Y-107402227D01*
X144613699Y-109511400D01*
X142273191Y-109511400D01*
X142331154Y-109220000D01*
X142227542Y-108699109D01*
X141932481Y-108257519D01*
X141730544Y-108122589D01*
X141730000Y-108119853D01*
X141730000Y-108119848D01*
X141685904Y-107898163D01*
X141630482Y-107815218D01*
X141772663Y-107746764D01*
X142119797Y-107358396D01*
X142262716Y-107013329D01*
X142139374Y-106807000D01*
X141097000Y-106807000D01*
X141097000Y-106827000D01*
X140843000Y-106827000D01*
X140843000Y-106807000D01*
X140823000Y-106807000D01*
X140823000Y-106553000D01*
X140843000Y-106553000D01*
X140843000Y-106533000D01*
X141097000Y-106533000D01*
X141097000Y-106553000D01*
X142139374Y-106553000D01*
X142262716Y-106346671D01*
X142189543Y-106170000D01*
X162229331Y-106170000D01*
X162274690Y-106279507D01*
X162274690Y-106279507D01*
G37*
X162274690Y-106279507D02*
X162706493Y-106711310D01*
X163270670Y-106945000D01*
X163881330Y-106945000D01*
X164445507Y-106711310D01*
X164621861Y-106534956D01*
X164677673Y-106669699D01*
X164856302Y-106848327D01*
X165089691Y-106945000D01*
X165770598Y-106945000D01*
X164001599Y-108714000D01*
X161392651Y-108714000D01*
X161335944Y-108428918D01*
X161027179Y-107966820D01*
X160565081Y-107658056D01*
X160020000Y-107549632D01*
X159474918Y-107658056D01*
X159012820Y-107966821D01*
X158750000Y-108360159D01*
X158487179Y-107966820D01*
X158237663Y-107800099D01*
X158195904Y-107590163D01*
X158027929Y-107338771D01*
X157776537Y-107170796D01*
X157554852Y-107126700D01*
X157480000Y-107111811D01*
X157405148Y-107126700D01*
X147388046Y-107126700D01*
X147313199Y-107111812D01*
X147238352Y-107126700D01*
X147238348Y-107126700D01*
X147016663Y-107170796D01*
X146765271Y-107338771D01*
X146722871Y-107402227D01*
X144613699Y-109511400D01*
X142273191Y-109511400D01*
X142331154Y-109220000D01*
X142227542Y-108699109D01*
X141932481Y-108257519D01*
X141730544Y-108122589D01*
X141730000Y-108119853D01*
X141730000Y-108119848D01*
X141685904Y-107898163D01*
X141630482Y-107815218D01*
X141772663Y-107746764D01*
X142119797Y-107358396D01*
X142262716Y-107013329D01*
X142139374Y-106807000D01*
X141097000Y-106807000D01*
X141097000Y-106827000D01*
X140843000Y-106827000D01*
X140843000Y-106807000D01*
X140823000Y-106807000D01*
X140823000Y-106553000D01*
X140843000Y-106553000D01*
X140843000Y-106533000D01*
X141097000Y-106533000D01*
X141097000Y-106553000D01*
X142139374Y-106553000D01*
X142262716Y-106346671D01*
X142189543Y-106170000D01*
X162229331Y-106170000D01*
X162274690Y-106279507D01*
G36*
X86505044Y-107090861D02*
X86465000Y-107107447D01*
X86465000Y-107050817D01*
X86505044Y-107090861D01*
X86505044Y-107090861D01*
G37*
X86505044Y-107090861D02*
X86465000Y-107107447D01*
X86465000Y-107050817D01*
X86505044Y-107090861D01*
G36*
X166243000Y-105283000D02*
X166263000Y-105283000D01*
X166263000Y-105537000D01*
X166243000Y-105537000D01*
X166243000Y-105557000D01*
X165989000Y-105557000D01*
X165989000Y-105537000D01*
X165969000Y-105537000D01*
X165969000Y-105283000D01*
X165989000Y-105283000D01*
X165989000Y-105263000D01*
X166243000Y-105263000D01*
X166243000Y-105283000D01*
X166243000Y-105283000D01*
G37*
X166243000Y-105283000D02*
X166263000Y-105283000D01*
X166263000Y-105537000D01*
X166243000Y-105537000D01*
X166243000Y-105557000D01*
X165989000Y-105557000D01*
X165989000Y-105537000D01*
X165969000Y-105537000D01*
X165969000Y-105283000D01*
X165989000Y-105283000D01*
X165989000Y-105263000D01*
X166243000Y-105263000D01*
X166243000Y-105283000D01*
G36*
X112717901Y-102664403D02*
X112717901Y-104747399D01*
X112414256Y-104687000D01*
X112121744Y-104687000D01*
X111688582Y-104773161D01*
X111197375Y-105101375D01*
X110998000Y-105399761D01*
X110798625Y-105101375D01*
X110307418Y-104773161D01*
X109874256Y-104687000D01*
X109581744Y-104687000D01*
X109148582Y-104773161D01*
X108657375Y-105101375D01*
X108458000Y-105399761D01*
X108258625Y-105101375D01*
X107767418Y-104773161D01*
X107334256Y-104687000D01*
X107041744Y-104687000D01*
X106608582Y-104773161D01*
X106117375Y-105101375D01*
X105918000Y-105399761D01*
X105718625Y-105101375D01*
X105227418Y-104773161D01*
X104794256Y-104687000D01*
X104501744Y-104687000D01*
X104068582Y-104773161D01*
X103577375Y-105101375D01*
X103378000Y-105399761D01*
X103178625Y-105101375D01*
X102687418Y-104773161D01*
X102254256Y-104687000D01*
X101961744Y-104687000D01*
X101528582Y-104773161D01*
X101037375Y-105101375D01*
X100838000Y-105399761D01*
X100638625Y-105101375D01*
X100609418Y-105081860D01*
X104967956Y-100723323D01*
X105041849Y-100673949D01*
X105237452Y-100381210D01*
X105247173Y-100332338D01*
X105398452Y-100395000D01*
X105929548Y-100395000D01*
X106420217Y-100191758D01*
X106795758Y-99816217D01*
X106999000Y-99325548D01*
X106999000Y-98794452D01*
X106795758Y-98303783D01*
X106420217Y-97928242D01*
X105929548Y-97725000D01*
X105398452Y-97725000D01*
X105288800Y-97770419D01*
X105288800Y-97301581D01*
X105398452Y-97347000D01*
X105929548Y-97347000D01*
X106420217Y-97143758D01*
X106795758Y-96768217D01*
X106803361Y-96749862D01*
X112717901Y-102664403D01*
X112717901Y-102664403D01*
G37*
X112717901Y-102664403D02*
X112717901Y-104747399D01*
X112414256Y-104687000D01*
X112121744Y-104687000D01*
X111688582Y-104773161D01*
X111197375Y-105101375D01*
X110998000Y-105399761D01*
X110798625Y-105101375D01*
X110307418Y-104773161D01*
X109874256Y-104687000D01*
X109581744Y-104687000D01*
X109148582Y-104773161D01*
X108657375Y-105101375D01*
X108458000Y-105399761D01*
X108258625Y-105101375D01*
X107767418Y-104773161D01*
X107334256Y-104687000D01*
X107041744Y-104687000D01*
X106608582Y-104773161D01*
X106117375Y-105101375D01*
X105918000Y-105399761D01*
X105718625Y-105101375D01*
X105227418Y-104773161D01*
X104794256Y-104687000D01*
X104501744Y-104687000D01*
X104068582Y-104773161D01*
X103577375Y-105101375D01*
X103378000Y-105399761D01*
X103178625Y-105101375D01*
X102687418Y-104773161D01*
X102254256Y-104687000D01*
X101961744Y-104687000D01*
X101528582Y-104773161D01*
X101037375Y-105101375D01*
X100838000Y-105399761D01*
X100638625Y-105101375D01*
X100609418Y-105081860D01*
X104967956Y-100723323D01*
X105041849Y-100673949D01*
X105237452Y-100381210D01*
X105247173Y-100332338D01*
X105398452Y-100395000D01*
X105929548Y-100395000D01*
X106420217Y-100191758D01*
X106795758Y-99816217D01*
X106999000Y-99325548D01*
X106999000Y-98794452D01*
X106795758Y-98303783D01*
X106420217Y-97928242D01*
X105929548Y-97725000D01*
X105398452Y-97725000D01*
X105288800Y-97770419D01*
X105288800Y-97301581D01*
X105398452Y-97347000D01*
X105929548Y-97347000D01*
X106420217Y-97143758D01*
X106795758Y-96768217D01*
X106803361Y-96749862D01*
X112717901Y-102664403D01*
G36*
X98309401Y-88155611D02*
X98171000Y-88237794D01*
X98171000Y-89281000D01*
X98191000Y-89281000D01*
X98191000Y-89535000D01*
X98171000Y-89535000D01*
X98171000Y-90578206D01*
X98309401Y-90660390D01*
X98309401Y-90715435D01*
X98292063Y-90802600D01*
X98360748Y-91147909D01*
X98506976Y-91366754D01*
X98506978Y-91366756D01*
X98556352Y-91440649D01*
X98630245Y-91490023D01*
X103518800Y-96378579D01*
X103518801Y-99669320D01*
X99003845Y-104184277D01*
X98929952Y-104233651D01*
X98880578Y-104307544D01*
X98880576Y-104307546D01*
X98734348Y-104526391D01*
X98665663Y-104871700D01*
X98683001Y-104958865D01*
X98683001Y-104977344D01*
X98497375Y-105101375D01*
X98373344Y-105287000D01*
X94902533Y-105287000D01*
X94870157Y-105124235D01*
X94729809Y-104914191D01*
X94519765Y-104773843D01*
X94272000Y-104724560D01*
X92672000Y-104724560D01*
X92424235Y-104773843D01*
X92289893Y-104863608D01*
X97111193Y-100042309D01*
X97523109Y-100317542D01*
X97912515Y-100395000D01*
X98175485Y-100395000D01*
X98564891Y-100317542D01*
X99006481Y-100022481D01*
X99301542Y-99580891D01*
X99405154Y-99060000D01*
X99301542Y-98539109D01*
X99006481Y-98097519D01*
X98564891Y-97802458D01*
X98175485Y-97725000D01*
X97912515Y-97725000D01*
X97523109Y-97802458D01*
X97081519Y-98097519D01*
X96946589Y-98299455D01*
X96943852Y-98300000D01*
X96943848Y-98300000D01*
X96770305Y-98334520D01*
X96722162Y-98344096D01*
X96540972Y-98465164D01*
X96470771Y-98512071D01*
X96428371Y-98575527D01*
X89718899Y-105285000D01*
X88976669Y-105285000D01*
X88931310Y-105175493D01*
X88499507Y-104743690D01*
X87935330Y-104510000D01*
X87324670Y-104510000D01*
X86760493Y-104743690D01*
X86613209Y-104890974D01*
X86610000Y-104874839D01*
X86610000Y-99915478D01*
X86822765Y-99873157D01*
X87032809Y-99732809D01*
X87173157Y-99522765D01*
X87222440Y-99275000D01*
X87222440Y-97575000D01*
X87173157Y-97327235D01*
X87032809Y-97117191D01*
X86822765Y-96976843D01*
X86719292Y-96956261D01*
X86996645Y-96651924D01*
X87166476Y-96241890D01*
X87045155Y-96012000D01*
X85852000Y-96012000D01*
X85852000Y-96032000D01*
X85598000Y-96032000D01*
X85598000Y-96012000D01*
X85578000Y-96012000D01*
X85578000Y-95758000D01*
X85598000Y-95758000D01*
X85598000Y-95738000D01*
X85852000Y-95738000D01*
X85852000Y-95758000D01*
X87045155Y-95758000D01*
X87166476Y-95528110D01*
X86996645Y-95118076D01*
X86606358Y-94689817D01*
X86476522Y-94628843D01*
X86795625Y-94415625D01*
X87123839Y-93924418D01*
X87239092Y-93345000D01*
X91779928Y-93345000D01*
X91899062Y-93943927D01*
X92238327Y-94451673D01*
X92482763Y-94615000D01*
X92238327Y-94778327D01*
X91899062Y-95286073D01*
X91779928Y-95885000D01*
X91899062Y-96483927D01*
X92195696Y-96927871D01*
X91987191Y-97067191D01*
X91846843Y-97277235D01*
X91797560Y-97525000D01*
X91797560Y-99325000D01*
X91846843Y-99572765D01*
X91987191Y-99782809D01*
X92197235Y-99923157D01*
X92445000Y-99972440D01*
X94245000Y-99972440D01*
X94492765Y-99923157D01*
X94702809Y-99782809D01*
X94843157Y-99572765D01*
X94892440Y-99325000D01*
X94892440Y-97525000D01*
X94843157Y-97277235D01*
X94702809Y-97067191D01*
X94494304Y-96927871D01*
X94790938Y-96483927D01*
X94884810Y-96012000D01*
X96682846Y-96012000D01*
X96786458Y-96532891D01*
X97081519Y-96974481D01*
X97523109Y-97269542D01*
X97912515Y-97347000D01*
X98175485Y-97347000D01*
X98564891Y-97269542D01*
X99006481Y-96974481D01*
X99301542Y-96532891D01*
X99405154Y-96012000D01*
X99301542Y-95491109D01*
X99006481Y-95049519D01*
X98564891Y-94754458D01*
X98175485Y-94677000D01*
X97912515Y-94677000D01*
X97523109Y-94754458D01*
X97081519Y-95049519D01*
X96786458Y-95491109D01*
X96682846Y-96012000D01*
X94884810Y-96012000D01*
X94910072Y-95885000D01*
X94790938Y-95286073D01*
X94451673Y-94778327D01*
X94207237Y-94615000D01*
X94451673Y-94451673D01*
X94790938Y-93943927D01*
X94910072Y-93345000D01*
X94790938Y-92746073D01*
X94759119Y-92698452D01*
X96709000Y-92698452D01*
X96709000Y-93229548D01*
X96912242Y-93720217D01*
X97287783Y-94095758D01*
X97778452Y-94299000D01*
X98309548Y-94299000D01*
X98800217Y-94095758D01*
X99175758Y-93720217D01*
X99379000Y-93229548D01*
X99379000Y-92698452D01*
X99175758Y-92207783D01*
X98800217Y-91832242D01*
X98309548Y-91629000D01*
X97778452Y-91629000D01*
X97287783Y-91832242D01*
X96912242Y-92207783D01*
X96709000Y-92698452D01*
X94759119Y-92698452D01*
X94451673Y-92238327D01*
X93943927Y-91899062D01*
X93496182Y-91810000D01*
X93193818Y-91810000D01*
X92746073Y-91899062D01*
X92238327Y-92238327D01*
X91899062Y-92746073D01*
X91779928Y-93345000D01*
X87239092Y-93345000D01*
X87123839Y-92765582D01*
X86795625Y-92274375D01*
X86392538Y-92005041D01*
X88656250Y-89741329D01*
X96751284Y-89741329D01*
X96894203Y-90086396D01*
X97241337Y-90474764D01*
X97710669Y-90700727D01*
X97917000Y-90578206D01*
X97917000Y-89535000D01*
X96874626Y-89535000D01*
X96751284Y-89741329D01*
X88656250Y-89741329D01*
X89343679Y-89053900D01*
X96097139Y-89053900D01*
X96184300Y-89071237D01*
X96271461Y-89053900D01*
X96271465Y-89053900D01*
X96529610Y-89002552D01*
X96822349Y-88806949D01*
X96871725Y-88733053D01*
X97054400Y-88550378D01*
X96894203Y-88729604D01*
X96751284Y-89074671D01*
X96874626Y-89281000D01*
X97917000Y-89281000D01*
X97917000Y-88237794D01*
X97710669Y-88115273D01*
X97284159Y-88320619D01*
X97706579Y-87898200D01*
X98055548Y-87898200D01*
X98309400Y-87793051D01*
X98309401Y-88155611D01*
X98309401Y-88155611D01*
G37*
X98309401Y-88155611D02*
X98171000Y-88237794D01*
X98171000Y-89281000D01*
X98191000Y-89281000D01*
X98191000Y-89535000D01*
X98171000Y-89535000D01*
X98171000Y-90578206D01*
X98309401Y-90660390D01*
X98309401Y-90715435D01*
X98292063Y-90802600D01*
X98360748Y-91147909D01*
X98506976Y-91366754D01*
X98506978Y-91366756D01*
X98556352Y-91440649D01*
X98630245Y-91490023D01*
X103518800Y-96378579D01*
X103518801Y-99669320D01*
X99003845Y-104184277D01*
X98929952Y-104233651D01*
X98880578Y-104307544D01*
X98880576Y-104307546D01*
X98734348Y-104526391D01*
X98665663Y-104871700D01*
X98683001Y-104958865D01*
X98683001Y-104977344D01*
X98497375Y-105101375D01*
X98373344Y-105287000D01*
X94902533Y-105287000D01*
X94870157Y-105124235D01*
X94729809Y-104914191D01*
X94519765Y-104773843D01*
X94272000Y-104724560D01*
X92672000Y-104724560D01*
X92424235Y-104773843D01*
X92289893Y-104863608D01*
X97111193Y-100042309D01*
X97523109Y-100317542D01*
X97912515Y-100395000D01*
X98175485Y-100395000D01*
X98564891Y-100317542D01*
X99006481Y-100022481D01*
X99301542Y-99580891D01*
X99405154Y-99060000D01*
X99301542Y-98539109D01*
X99006481Y-98097519D01*
X98564891Y-97802458D01*
X98175485Y-97725000D01*
X97912515Y-97725000D01*
X97523109Y-97802458D01*
X97081519Y-98097519D01*
X96946589Y-98299455D01*
X96943852Y-98300000D01*
X96943848Y-98300000D01*
X96770305Y-98334520D01*
X96722162Y-98344096D01*
X96540972Y-98465164D01*
X96470771Y-98512071D01*
X96428371Y-98575527D01*
X89718899Y-105285000D01*
X88976669Y-105285000D01*
X88931310Y-105175493D01*
X88499507Y-104743690D01*
X87935330Y-104510000D01*
X87324670Y-104510000D01*
X86760493Y-104743690D01*
X86613209Y-104890974D01*
X86610000Y-104874839D01*
X86610000Y-99915478D01*
X86822765Y-99873157D01*
X87032809Y-99732809D01*
X87173157Y-99522765D01*
X87222440Y-99275000D01*
X87222440Y-97575000D01*
X87173157Y-97327235D01*
X87032809Y-97117191D01*
X86822765Y-96976843D01*
X86719292Y-96956261D01*
X86996645Y-96651924D01*
X87166476Y-96241890D01*
X87045155Y-96012000D01*
X85852000Y-96012000D01*
X85852000Y-96032000D01*
X85598000Y-96032000D01*
X85598000Y-96012000D01*
X85578000Y-96012000D01*
X85578000Y-95758000D01*
X85598000Y-95758000D01*
X85598000Y-95738000D01*
X85852000Y-95738000D01*
X85852000Y-95758000D01*
X87045155Y-95758000D01*
X87166476Y-95528110D01*
X86996645Y-95118076D01*
X86606358Y-94689817D01*
X86476522Y-94628843D01*
X86795625Y-94415625D01*
X87123839Y-93924418D01*
X87239092Y-93345000D01*
X91779928Y-93345000D01*
X91899062Y-93943927D01*
X92238327Y-94451673D01*
X92482763Y-94615000D01*
X92238327Y-94778327D01*
X91899062Y-95286073D01*
X91779928Y-95885000D01*
X91899062Y-96483927D01*
X92195696Y-96927871D01*
X91987191Y-97067191D01*
X91846843Y-97277235D01*
X91797560Y-97525000D01*
X91797560Y-99325000D01*
X91846843Y-99572765D01*
X91987191Y-99782809D01*
X92197235Y-99923157D01*
X92445000Y-99972440D01*
X94245000Y-99972440D01*
X94492765Y-99923157D01*
X94702809Y-99782809D01*
X94843157Y-99572765D01*
X94892440Y-99325000D01*
X94892440Y-97525000D01*
X94843157Y-97277235D01*
X94702809Y-97067191D01*
X94494304Y-96927871D01*
X94790938Y-96483927D01*
X94884810Y-96012000D01*
X96682846Y-96012000D01*
X96786458Y-96532891D01*
X97081519Y-96974481D01*
X97523109Y-97269542D01*
X97912515Y-97347000D01*
X98175485Y-97347000D01*
X98564891Y-97269542D01*
X99006481Y-96974481D01*
X99301542Y-96532891D01*
X99405154Y-96012000D01*
X99301542Y-95491109D01*
X99006481Y-95049519D01*
X98564891Y-94754458D01*
X98175485Y-94677000D01*
X97912515Y-94677000D01*
X97523109Y-94754458D01*
X97081519Y-95049519D01*
X96786458Y-95491109D01*
X96682846Y-96012000D01*
X94884810Y-96012000D01*
X94910072Y-95885000D01*
X94790938Y-95286073D01*
X94451673Y-94778327D01*
X94207237Y-94615000D01*
X94451673Y-94451673D01*
X94790938Y-93943927D01*
X94910072Y-93345000D01*
X94790938Y-92746073D01*
X94759119Y-92698452D01*
X96709000Y-92698452D01*
X96709000Y-93229548D01*
X96912242Y-93720217D01*
X97287783Y-94095758D01*
X97778452Y-94299000D01*
X98309548Y-94299000D01*
X98800217Y-94095758D01*
X99175758Y-93720217D01*
X99379000Y-93229548D01*
X99379000Y-92698452D01*
X99175758Y-92207783D01*
X98800217Y-91832242D01*
X98309548Y-91629000D01*
X97778452Y-91629000D01*
X97287783Y-91832242D01*
X96912242Y-92207783D01*
X96709000Y-92698452D01*
X94759119Y-92698452D01*
X94451673Y-92238327D01*
X93943927Y-91899062D01*
X93496182Y-91810000D01*
X93193818Y-91810000D01*
X92746073Y-91899062D01*
X92238327Y-92238327D01*
X91899062Y-92746073D01*
X91779928Y-93345000D01*
X87239092Y-93345000D01*
X87123839Y-92765582D01*
X86795625Y-92274375D01*
X86392538Y-92005041D01*
X88656250Y-89741329D01*
X96751284Y-89741329D01*
X96894203Y-90086396D01*
X97241337Y-90474764D01*
X97710669Y-90700727D01*
X97917000Y-90578206D01*
X97917000Y-89535000D01*
X96874626Y-89535000D01*
X96751284Y-89741329D01*
X88656250Y-89741329D01*
X89343679Y-89053900D01*
X96097139Y-89053900D01*
X96184300Y-89071237D01*
X96271461Y-89053900D01*
X96271465Y-89053900D01*
X96529610Y-89002552D01*
X96822349Y-88806949D01*
X96871725Y-88733053D01*
X97054400Y-88550378D01*
X96894203Y-88729604D01*
X96751284Y-89074671D01*
X96874626Y-89281000D01*
X97917000Y-89281000D01*
X97917000Y-88237794D01*
X97710669Y-88115273D01*
X97284159Y-88320619D01*
X97706579Y-87898200D01*
X98055548Y-87898200D01*
X98309400Y-87793051D01*
X98309401Y-88155611D01*
G36*
X165789998Y-103875000D02*
X165089691Y-103875000D01*
X164856302Y-103971673D01*
X164677673Y-104150301D01*
X164621861Y-104285044D01*
X164445507Y-104108690D01*
X163881330Y-103875000D01*
X163270670Y-103875000D01*
X162706493Y-104108690D01*
X162274690Y-104540493D01*
X162229331Y-104650000D01*
X141949745Y-104650000D01*
X142051000Y-104405548D01*
X142051000Y-103874452D01*
X141847758Y-103383783D01*
X141535375Y-103071400D01*
X164986399Y-103071400D01*
X165789998Y-103875000D01*
X165789998Y-103875000D01*
G37*
X165789998Y-103875000D02*
X165089691Y-103875000D01*
X164856302Y-103971673D01*
X164677673Y-104150301D01*
X164621861Y-104285044D01*
X164445507Y-104108690D01*
X163881330Y-103875000D01*
X163270670Y-103875000D01*
X162706493Y-104108690D01*
X162274690Y-104540493D01*
X162229331Y-104650000D01*
X141949745Y-104650000D01*
X142051000Y-104405548D01*
X142051000Y-103874452D01*
X141847758Y-103383783D01*
X141535375Y-103071400D01*
X164986399Y-103071400D01*
X165789998Y-103875000D01*
G36*
X163097130Y-97810332D02*
X163017138Y-97843466D01*
X162613466Y-98247138D01*
X162395000Y-98774561D01*
X162395000Y-99345439D01*
X162613466Y-99872862D01*
X163017138Y-100276534D01*
X163544561Y-100495000D01*
X164115439Y-100495000D01*
X164320001Y-100410268D01*
X164320001Y-100664848D01*
X164305112Y-100739700D01*
X164320001Y-100814552D01*
X164364097Y-101036237D01*
X164532072Y-101287629D01*
X164595528Y-101330029D01*
X164816899Y-101551400D01*
X153746379Y-101551400D01*
X153928680Y-101111286D01*
X153928680Y-100361514D01*
X153641755Y-99668815D01*
X153111585Y-99138645D01*
X152418886Y-98851720D01*
X151669114Y-98851720D01*
X150976415Y-99138645D01*
X150446245Y-99668815D01*
X150159320Y-100361514D01*
X150159320Y-101111286D01*
X150341621Y-101551400D01*
X142051000Y-101551400D01*
X142051000Y-101334452D01*
X141949745Y-101090000D01*
X142215553Y-101090000D01*
X142290400Y-101104888D01*
X142365247Y-101090000D01*
X142365252Y-101090000D01*
X142586937Y-101045904D01*
X142838329Y-100877929D01*
X142880731Y-100814470D01*
X151361529Y-92333674D01*
X151669114Y-92461080D01*
X152418886Y-92461080D01*
X153111585Y-92174155D01*
X153641755Y-91643985D01*
X153928680Y-90951286D01*
X153928680Y-90201514D01*
X153641755Y-89508815D01*
X153111585Y-88978645D01*
X152418886Y-88691720D01*
X151669114Y-88691720D01*
X150976415Y-88978645D01*
X150446245Y-89508815D01*
X150159320Y-90201514D01*
X150159320Y-90951286D01*
X150286726Y-91258871D01*
X141975599Y-99570000D01*
X141949745Y-99570000D01*
X142051000Y-99325548D01*
X142051000Y-98794452D01*
X141847758Y-98303783D01*
X141472217Y-97928242D01*
X141138472Y-97790000D01*
X141472217Y-97651758D01*
X141847758Y-97276217D01*
X142051000Y-96785548D01*
X142051000Y-96254452D01*
X141847758Y-95763783D01*
X141472217Y-95388242D01*
X141138472Y-95250000D01*
X141472217Y-95111758D01*
X141847758Y-94736217D01*
X142051000Y-94245548D01*
X142051000Y-93714452D01*
X141847758Y-93223783D01*
X141472217Y-92848242D01*
X141138472Y-92710000D01*
X141472217Y-92571758D01*
X141847758Y-92196217D01*
X142051000Y-91705548D01*
X142051000Y-91174452D01*
X141847758Y-90683783D01*
X141472217Y-90308242D01*
X141138472Y-90170000D01*
X141472217Y-90031758D01*
X141847758Y-89656217D01*
X142051000Y-89165548D01*
X142051000Y-88634452D01*
X141847758Y-88143783D01*
X141472217Y-87768242D01*
X141138472Y-87630000D01*
X141472217Y-87491758D01*
X141843975Y-87120000D01*
X152406799Y-87120000D01*
X163097130Y-97810332D01*
X163097130Y-97810332D01*
G37*
X163097130Y-97810332D02*
X163017138Y-97843466D01*
X162613466Y-98247138D01*
X162395000Y-98774561D01*
X162395000Y-99345439D01*
X162613466Y-99872862D01*
X163017138Y-100276534D01*
X163544561Y-100495000D01*
X164115439Y-100495000D01*
X164320001Y-100410268D01*
X164320001Y-100664848D01*
X164305112Y-100739700D01*
X164320001Y-100814552D01*
X164364097Y-101036237D01*
X164532072Y-101287629D01*
X164595528Y-101330029D01*
X164816899Y-101551400D01*
X153746379Y-101551400D01*
X153928680Y-101111286D01*
X153928680Y-100361514D01*
X153641755Y-99668815D01*
X153111585Y-99138645D01*
X152418886Y-98851720D01*
X151669114Y-98851720D01*
X150976415Y-99138645D01*
X150446245Y-99668815D01*
X150159320Y-100361514D01*
X150159320Y-101111286D01*
X150341621Y-101551400D01*
X142051000Y-101551400D01*
X142051000Y-101334452D01*
X141949745Y-101090000D01*
X142215553Y-101090000D01*
X142290400Y-101104888D01*
X142365247Y-101090000D01*
X142365252Y-101090000D01*
X142586937Y-101045904D01*
X142838329Y-100877929D01*
X142880731Y-100814470D01*
X151361529Y-92333674D01*
X151669114Y-92461080D01*
X152418886Y-92461080D01*
X153111585Y-92174155D01*
X153641755Y-91643985D01*
X153928680Y-90951286D01*
X153928680Y-90201514D01*
X153641755Y-89508815D01*
X153111585Y-88978645D01*
X152418886Y-88691720D01*
X151669114Y-88691720D01*
X150976415Y-88978645D01*
X150446245Y-89508815D01*
X150159320Y-90201514D01*
X150159320Y-90951286D01*
X150286726Y-91258871D01*
X141975599Y-99570000D01*
X141949745Y-99570000D01*
X142051000Y-99325548D01*
X142051000Y-98794452D01*
X141847758Y-98303783D01*
X141472217Y-97928242D01*
X141138472Y-97790000D01*
X141472217Y-97651758D01*
X141847758Y-97276217D01*
X142051000Y-96785548D01*
X142051000Y-96254452D01*
X141847758Y-95763783D01*
X141472217Y-95388242D01*
X141138472Y-95250000D01*
X141472217Y-95111758D01*
X141847758Y-94736217D01*
X142051000Y-94245548D01*
X142051000Y-93714452D01*
X141847758Y-93223783D01*
X141472217Y-92848242D01*
X141138472Y-92710000D01*
X141472217Y-92571758D01*
X141847758Y-92196217D01*
X142051000Y-91705548D01*
X142051000Y-91174452D01*
X141847758Y-90683783D01*
X141472217Y-90308242D01*
X141138472Y-90170000D01*
X141472217Y-90031758D01*
X141847758Y-89656217D01*
X142051000Y-89165548D01*
X142051000Y-88634452D01*
X141847758Y-88143783D01*
X141472217Y-87768242D01*
X141138472Y-87630000D01*
X141472217Y-87491758D01*
X141843975Y-87120000D01*
X152406799Y-87120000D01*
X163097130Y-97810332D01*
G36*
X137068846Y-80645000D02*
X137172458Y-81165891D01*
X137467519Y-81607481D01*
X137909109Y-81902542D01*
X138298515Y-81980000D01*
X138561485Y-81980000D01*
X138869301Y-81918771D01*
X138869301Y-82739296D01*
X134904000Y-86704599D01*
X134904000Y-86028548D01*
X134918888Y-85953700D01*
X134904000Y-85878852D01*
X134904000Y-85878848D01*
X134859904Y-85657163D01*
X134859904Y-85657162D01*
X134734329Y-85469227D01*
X134691929Y-85405771D01*
X134628473Y-85363371D01*
X133267931Y-84002830D01*
X133225529Y-83939371D01*
X132974137Y-83771396D01*
X132752452Y-83727300D01*
X132752447Y-83727300D01*
X132677600Y-83712412D01*
X132602753Y-83727300D01*
X131479484Y-83727300D01*
X131562092Y-83312000D01*
X131479484Y-82896700D01*
X132972253Y-82896700D01*
X133047100Y-82911588D01*
X133121947Y-82896700D01*
X133121952Y-82896700D01*
X133343637Y-82852604D01*
X133595029Y-82684629D01*
X133637431Y-82621170D01*
X136123602Y-80135000D01*
X137170292Y-80135000D01*
X137068846Y-80645000D01*
X137068846Y-80645000D01*
G37*
X137068846Y-80645000D02*
X137172458Y-81165891D01*
X137467519Y-81607481D01*
X137909109Y-81902542D01*
X138298515Y-81980000D01*
X138561485Y-81980000D01*
X138869301Y-81918771D01*
X138869301Y-82739296D01*
X134904000Y-86704599D01*
X134904000Y-86028548D01*
X134918888Y-85953700D01*
X134904000Y-85878852D01*
X134904000Y-85878848D01*
X134859904Y-85657163D01*
X134859904Y-85657162D01*
X134734329Y-85469227D01*
X134691929Y-85405771D01*
X134628473Y-85363371D01*
X133267931Y-84002830D01*
X133225529Y-83939371D01*
X132974137Y-83771396D01*
X132752452Y-83727300D01*
X132752447Y-83727300D01*
X132677600Y-83712412D01*
X132602753Y-83727300D01*
X131479484Y-83727300D01*
X131562092Y-83312000D01*
X131479484Y-82896700D01*
X132972253Y-82896700D01*
X133047100Y-82911588D01*
X133121947Y-82896700D01*
X133121952Y-82896700D01*
X133343637Y-82852604D01*
X133595029Y-82684629D01*
X133637431Y-82621170D01*
X136123602Y-80135000D01*
X137170292Y-80135000D01*
X137068846Y-80645000D01*
G36*
X144715000Y-72759452D02*
X144715000Y-73285198D01*
X139662538Y-78337661D01*
X139599374Y-78232000D01*
X138557000Y-78232000D01*
X138557000Y-78252000D01*
X138303000Y-78252000D01*
X138303000Y-78232000D01*
X137260626Y-78232000D01*
X137137284Y-78438329D01*
X137210457Y-78615000D01*
X135883648Y-78615000D01*
X135808800Y-78600112D01*
X135733952Y-78615000D01*
X135733948Y-78615000D01*
X135512263Y-78659096D01*
X135260871Y-78827071D01*
X135218471Y-78890527D01*
X132732299Y-81376700D01*
X131533000Y-81376700D01*
X131533000Y-81057750D01*
X131374250Y-80899000D01*
X130175000Y-80899000D01*
X130175000Y-80919000D01*
X129921000Y-80919000D01*
X129921000Y-80899000D01*
X129901000Y-80899000D01*
X129901000Y-80645000D01*
X129921000Y-80645000D01*
X129921000Y-80625000D01*
X130175000Y-80625000D01*
X130175000Y-80645000D01*
X131374250Y-80645000D01*
X131533000Y-80486250D01*
X131533000Y-79795691D01*
X131436327Y-79562302D01*
X131380563Y-79506538D01*
X133115430Y-77771671D01*
X137137284Y-77771671D01*
X137260626Y-77978000D01*
X138303000Y-77978000D01*
X138303000Y-76934794D01*
X138557000Y-76934794D01*
X138557000Y-77978000D01*
X139599374Y-77978000D01*
X139722716Y-77771671D01*
X139579797Y-77426604D01*
X139232663Y-77038236D01*
X138763331Y-76812273D01*
X138557000Y-76934794D01*
X138303000Y-76934794D01*
X138096669Y-76812273D01*
X137627337Y-77038236D01*
X137280203Y-77426604D01*
X137137284Y-77771671D01*
X133115430Y-77771671D01*
X134637204Y-76249898D01*
X134658959Y-76302423D01*
X135034866Y-76717389D01*
X135540959Y-76956914D01*
X135763000Y-76835629D01*
X135763000Y-75692000D01*
X136017000Y-75692000D01*
X136017000Y-76835629D01*
X136239041Y-76956914D01*
X136745134Y-76717389D01*
X137121041Y-76302423D01*
X137281904Y-75914039D01*
X137159915Y-75692000D01*
X136017000Y-75692000D01*
X135763000Y-75692000D01*
X135743000Y-75692000D01*
X135743000Y-75438000D01*
X135763000Y-75438000D01*
X135763000Y-75418000D01*
X136017000Y-75418000D01*
X136017000Y-75438000D01*
X137159915Y-75438000D01*
X137281904Y-75215961D01*
X137121041Y-74827577D01*
X136745134Y-74412611D01*
X136561434Y-74325669D01*
X137240051Y-73647051D01*
X137467519Y-73987481D01*
X137909109Y-74282542D01*
X138298515Y-74360000D01*
X138561485Y-74360000D01*
X138950891Y-74282542D01*
X139392481Y-73987481D01*
X139687542Y-73545891D01*
X139791154Y-73025000D01*
X139735598Y-72745700D01*
X144720696Y-72745700D01*
X144715000Y-72759452D01*
X144715000Y-72759452D01*
G37*
X144715000Y-72759452D02*
X144715000Y-73285198D01*
X139662538Y-78337661D01*
X139599374Y-78232000D01*
X138557000Y-78232000D01*
X138557000Y-78252000D01*
X138303000Y-78252000D01*
X138303000Y-78232000D01*
X137260626Y-78232000D01*
X137137284Y-78438329D01*
X137210457Y-78615000D01*
X135883648Y-78615000D01*
X135808800Y-78600112D01*
X135733952Y-78615000D01*
X135733948Y-78615000D01*
X135512263Y-78659096D01*
X135260871Y-78827071D01*
X135218471Y-78890527D01*
X132732299Y-81376700D01*
X131533000Y-81376700D01*
X131533000Y-81057750D01*
X131374250Y-80899000D01*
X130175000Y-80899000D01*
X130175000Y-80919000D01*
X129921000Y-80919000D01*
X129921000Y-80899000D01*
X129901000Y-80899000D01*
X129901000Y-80645000D01*
X129921000Y-80645000D01*
X129921000Y-80625000D01*
X130175000Y-80625000D01*
X130175000Y-80645000D01*
X131374250Y-80645000D01*
X131533000Y-80486250D01*
X131533000Y-79795691D01*
X131436327Y-79562302D01*
X131380563Y-79506538D01*
X133115430Y-77771671D01*
X137137284Y-77771671D01*
X137260626Y-77978000D01*
X138303000Y-77978000D01*
X138303000Y-76934794D01*
X138557000Y-76934794D01*
X138557000Y-77978000D01*
X139599374Y-77978000D01*
X139722716Y-77771671D01*
X139579797Y-77426604D01*
X139232663Y-77038236D01*
X138763331Y-76812273D01*
X138557000Y-76934794D01*
X138303000Y-76934794D01*
X138096669Y-76812273D01*
X137627337Y-77038236D01*
X137280203Y-77426604D01*
X137137284Y-77771671D01*
X133115430Y-77771671D01*
X134637204Y-76249898D01*
X134658959Y-76302423D01*
X135034866Y-76717389D01*
X135540959Y-76956914D01*
X135763000Y-76835629D01*
X135763000Y-75692000D01*
X136017000Y-75692000D01*
X136017000Y-76835629D01*
X136239041Y-76956914D01*
X136745134Y-76717389D01*
X137121041Y-76302423D01*
X137281904Y-75914039D01*
X137159915Y-75692000D01*
X136017000Y-75692000D01*
X135763000Y-75692000D01*
X135743000Y-75692000D01*
X135743000Y-75438000D01*
X135763000Y-75438000D01*
X135763000Y-75418000D01*
X136017000Y-75418000D01*
X136017000Y-75438000D01*
X137159915Y-75438000D01*
X137281904Y-75215961D01*
X137121041Y-74827577D01*
X136745134Y-74412611D01*
X136561434Y-74325669D01*
X137240051Y-73647051D01*
X137467519Y-73987481D01*
X137909109Y-74282542D01*
X138298515Y-74360000D01*
X138561485Y-74360000D01*
X138950891Y-74282542D01*
X139392481Y-73987481D01*
X139687542Y-73545891D01*
X139791154Y-73025000D01*
X139735598Y-72745700D01*
X144720696Y-72745700D01*
X144715000Y-72759452D01*
G36*
X124923514Y-75208108D02*
X125044181Y-75438000D01*
X126238000Y-75438000D01*
X126238000Y-75418000D01*
X126492000Y-75418000D01*
X126492000Y-75438000D01*
X126512000Y-75438000D01*
X126512000Y-75692000D01*
X126492000Y-75692000D01*
X126492000Y-76885155D01*
X126721890Y-77006476D01*
X127131924Y-76836645D01*
X127560183Y-76446358D01*
X127621157Y-76316522D01*
X127834375Y-76635625D01*
X128325582Y-76963839D01*
X128758744Y-77050000D01*
X129051256Y-77050000D01*
X129484418Y-76963839D01*
X129975625Y-76635625D01*
X129987816Y-76617381D01*
X129996843Y-76662765D01*
X130137191Y-76872809D01*
X130347235Y-77013157D01*
X130595000Y-77062440D01*
X131675058Y-77062440D01*
X129900799Y-78836700D01*
X121946046Y-78836700D01*
X121871199Y-78821812D01*
X121796352Y-78836700D01*
X121796348Y-78836700D01*
X121574663Y-78880796D01*
X121323271Y-79048771D01*
X121280871Y-79112227D01*
X120798629Y-79594469D01*
X120467418Y-79373161D01*
X120034256Y-79287000D01*
X119741744Y-79287000D01*
X119308582Y-79373161D01*
X118817375Y-79701375D01*
X118618000Y-79999761D01*
X118418625Y-79701375D01*
X117927418Y-79373161D01*
X117494256Y-79287000D01*
X117201744Y-79287000D01*
X116768582Y-79373161D01*
X116277375Y-79701375D01*
X116078000Y-79999761D01*
X115878625Y-79701375D01*
X115387418Y-79373161D01*
X114954256Y-79287000D01*
X114661744Y-79287000D01*
X114228582Y-79373161D01*
X113737375Y-79701375D01*
X113538000Y-79999761D01*
X113338625Y-79701375D01*
X112847418Y-79373161D01*
X112414256Y-79287000D01*
X112121744Y-79287000D01*
X111688582Y-79373161D01*
X111663300Y-79390054D01*
X111663300Y-79181801D01*
X113514473Y-77330629D01*
X113577929Y-77288229D01*
X113745904Y-77036837D01*
X113783571Y-76847474D01*
X114100625Y-76635625D01*
X114300000Y-76337239D01*
X114499375Y-76635625D01*
X114990582Y-76963839D01*
X115423744Y-77050000D01*
X115716256Y-77050000D01*
X116149418Y-76963839D01*
X116640625Y-76635625D01*
X116840000Y-76337239D01*
X117039375Y-76635625D01*
X117530582Y-76963839D01*
X117963744Y-77050000D01*
X118256256Y-77050000D01*
X118689418Y-76963839D01*
X119180625Y-76635625D01*
X119393843Y-76316522D01*
X119454817Y-76446358D01*
X119883076Y-76836645D01*
X120293110Y-77006476D01*
X120523000Y-76885155D01*
X120523000Y-75692000D01*
X120777000Y-75692000D01*
X120777000Y-76885155D01*
X121006890Y-77006476D01*
X121416924Y-76836645D01*
X121845183Y-76446358D01*
X122091486Y-75921892D01*
X124923514Y-75921892D01*
X125169817Y-76446358D01*
X125598076Y-76836645D01*
X126008110Y-77006476D01*
X126238000Y-76885155D01*
X126238000Y-75692000D01*
X125044181Y-75692000D01*
X124923514Y-75921892D01*
X122091486Y-75921892D01*
X121970819Y-75692000D01*
X120777000Y-75692000D01*
X120523000Y-75692000D01*
X120503000Y-75692000D01*
X120503000Y-75438000D01*
X120523000Y-75438000D01*
X120523000Y-75418000D01*
X120777000Y-75418000D01*
X120777000Y-75438000D01*
X121970819Y-75438000D01*
X122091486Y-75208108D01*
X122049779Y-75119300D01*
X124965221Y-75119300D01*
X124923514Y-75208108D01*
X124923514Y-75208108D01*
G37*
X124923514Y-75208108D02*
X125044181Y-75438000D01*
X126238000Y-75438000D01*
X126238000Y-75418000D01*
X126492000Y-75418000D01*
X126492000Y-75438000D01*
X126512000Y-75438000D01*
X126512000Y-75692000D01*
X126492000Y-75692000D01*
X126492000Y-76885155D01*
X126721890Y-77006476D01*
X127131924Y-76836645D01*
X127560183Y-76446358D01*
X127621157Y-76316522D01*
X127834375Y-76635625D01*
X128325582Y-76963839D01*
X128758744Y-77050000D01*
X129051256Y-77050000D01*
X129484418Y-76963839D01*
X129975625Y-76635625D01*
X129987816Y-76617381D01*
X129996843Y-76662765D01*
X130137191Y-76872809D01*
X130347235Y-77013157D01*
X130595000Y-77062440D01*
X131675058Y-77062440D01*
X129900799Y-78836700D01*
X121946046Y-78836700D01*
X121871199Y-78821812D01*
X121796352Y-78836700D01*
X121796348Y-78836700D01*
X121574663Y-78880796D01*
X121323271Y-79048771D01*
X121280871Y-79112227D01*
X120798629Y-79594469D01*
X120467418Y-79373161D01*
X120034256Y-79287000D01*
X119741744Y-79287000D01*
X119308582Y-79373161D01*
X118817375Y-79701375D01*
X118618000Y-79999761D01*
X118418625Y-79701375D01*
X117927418Y-79373161D01*
X117494256Y-79287000D01*
X117201744Y-79287000D01*
X116768582Y-79373161D01*
X116277375Y-79701375D01*
X116078000Y-79999761D01*
X115878625Y-79701375D01*
X115387418Y-79373161D01*
X114954256Y-79287000D01*
X114661744Y-79287000D01*
X114228582Y-79373161D01*
X113737375Y-79701375D01*
X113538000Y-79999761D01*
X113338625Y-79701375D01*
X112847418Y-79373161D01*
X112414256Y-79287000D01*
X112121744Y-79287000D01*
X111688582Y-79373161D01*
X111663300Y-79390054D01*
X111663300Y-79181801D01*
X113514473Y-77330629D01*
X113577929Y-77288229D01*
X113745904Y-77036837D01*
X113783571Y-76847474D01*
X114100625Y-76635625D01*
X114300000Y-76337239D01*
X114499375Y-76635625D01*
X114990582Y-76963839D01*
X115423744Y-77050000D01*
X115716256Y-77050000D01*
X116149418Y-76963839D01*
X116640625Y-76635625D01*
X116840000Y-76337239D01*
X117039375Y-76635625D01*
X117530582Y-76963839D01*
X117963744Y-77050000D01*
X118256256Y-77050000D01*
X118689418Y-76963839D01*
X119180625Y-76635625D01*
X119393843Y-76316522D01*
X119454817Y-76446358D01*
X119883076Y-76836645D01*
X120293110Y-77006476D01*
X120523000Y-76885155D01*
X120523000Y-75692000D01*
X120777000Y-75692000D01*
X120777000Y-76885155D01*
X121006890Y-77006476D01*
X121416924Y-76836645D01*
X121845183Y-76446358D01*
X122091486Y-75921892D01*
X124923514Y-75921892D01*
X125169817Y-76446358D01*
X125598076Y-76836645D01*
X126008110Y-77006476D01*
X126238000Y-76885155D01*
X126238000Y-75692000D01*
X125044181Y-75692000D01*
X124923514Y-75921892D01*
X122091486Y-75921892D01*
X121970819Y-75692000D01*
X120777000Y-75692000D01*
X120523000Y-75692000D01*
X120503000Y-75692000D01*
X120503000Y-75438000D01*
X120523000Y-75438000D01*
X120523000Y-75418000D01*
X120777000Y-75418000D01*
X120777000Y-75438000D01*
X121970819Y-75438000D01*
X122091486Y-75208108D01*
X122049779Y-75119300D01*
X124965221Y-75119300D01*
X124923514Y-75208108D01*
G36*
X109273519Y-69542481D02*
X109369744Y-69606777D01*
X107724545Y-71251977D01*
X107650652Y-71301351D01*
X107601278Y-71375244D01*
X107601276Y-71375246D01*
X107455048Y-71594091D01*
X107386363Y-71939400D01*
X107403701Y-72026565D01*
X107403700Y-73542621D01*
X106088483Y-74857838D01*
X105845625Y-74494375D01*
X105526522Y-74281157D01*
X105656358Y-74220183D01*
X106046645Y-73791924D01*
X106216476Y-73381890D01*
X106095155Y-73152000D01*
X104902000Y-73152000D01*
X104902000Y-73172000D01*
X104648000Y-73172000D01*
X104648000Y-73152000D01*
X103454845Y-73152000D01*
X103333524Y-73381890D01*
X103503355Y-73791924D01*
X103893642Y-74220183D01*
X104023478Y-74281157D01*
X103704375Y-74494375D01*
X103376161Y-74985582D01*
X103260908Y-75565000D01*
X103348847Y-76007100D01*
X102103979Y-76007100D01*
X101097725Y-75000847D01*
X101048349Y-74926951D01*
X100755610Y-74731348D01*
X100497465Y-74680000D01*
X100497461Y-74680000D01*
X100410300Y-74662663D01*
X100323139Y-74680000D01*
X100314790Y-74680000D01*
X100166673Y-74458327D01*
X99922237Y-74295000D01*
X100166673Y-74131673D01*
X100505938Y-73623927D01*
X100625072Y-73025000D01*
X100505938Y-72426073D01*
X100209304Y-71982129D01*
X100417809Y-71842809D01*
X100558157Y-71632765D01*
X100607440Y-71385000D01*
X100607440Y-71245000D01*
X103277560Y-71245000D01*
X103277560Y-71335000D01*
X103326843Y-71582765D01*
X103467191Y-71792809D01*
X103677235Y-71933157D01*
X103780708Y-71953739D01*
X103503355Y-72258076D01*
X103333524Y-72668110D01*
X103454845Y-72898000D01*
X104648000Y-72898000D01*
X104648000Y-72878000D01*
X104902000Y-72878000D01*
X104902000Y-72898000D01*
X106095155Y-72898000D01*
X106216476Y-72668110D01*
X106046645Y-72258076D01*
X105769292Y-71953739D01*
X105872765Y-71933157D01*
X106082809Y-71792809D01*
X106223157Y-71582765D01*
X106272440Y-71335000D01*
X106272440Y-71183797D01*
X106498229Y-71032929D01*
X106540631Y-70969470D01*
X108170102Y-69340000D01*
X109138226Y-69340000D01*
X109273519Y-69542481D01*
X109273519Y-69542481D01*
G37*
X109273519Y-69542481D02*
X109369744Y-69606777D01*
X107724545Y-71251977D01*
X107650652Y-71301351D01*
X107601278Y-71375244D01*
X107601276Y-71375246D01*
X107455048Y-71594091D01*
X107386363Y-71939400D01*
X107403701Y-72026565D01*
X107403700Y-73542621D01*
X106088483Y-74857838D01*
X105845625Y-74494375D01*
X105526522Y-74281157D01*
X105656358Y-74220183D01*
X106046645Y-73791924D01*
X106216476Y-73381890D01*
X106095155Y-73152000D01*
X104902000Y-73152000D01*
X104902000Y-73172000D01*
X104648000Y-73172000D01*
X104648000Y-73152000D01*
X103454845Y-73152000D01*
X103333524Y-73381890D01*
X103503355Y-73791924D01*
X103893642Y-74220183D01*
X104023478Y-74281157D01*
X103704375Y-74494375D01*
X103376161Y-74985582D01*
X103260908Y-75565000D01*
X103348847Y-76007100D01*
X102103979Y-76007100D01*
X101097725Y-75000847D01*
X101048349Y-74926951D01*
X100755610Y-74731348D01*
X100497465Y-74680000D01*
X100497461Y-74680000D01*
X100410300Y-74662663D01*
X100323139Y-74680000D01*
X100314790Y-74680000D01*
X100166673Y-74458327D01*
X99922237Y-74295000D01*
X100166673Y-74131673D01*
X100505938Y-73623927D01*
X100625072Y-73025000D01*
X100505938Y-72426073D01*
X100209304Y-71982129D01*
X100417809Y-71842809D01*
X100558157Y-71632765D01*
X100607440Y-71385000D01*
X100607440Y-71245000D01*
X103277560Y-71245000D01*
X103277560Y-71335000D01*
X103326843Y-71582765D01*
X103467191Y-71792809D01*
X103677235Y-71933157D01*
X103780708Y-71953739D01*
X103503355Y-72258076D01*
X103333524Y-72668110D01*
X103454845Y-72898000D01*
X104648000Y-72898000D01*
X104648000Y-72878000D01*
X104902000Y-72878000D01*
X104902000Y-72898000D01*
X106095155Y-72898000D01*
X106216476Y-72668110D01*
X106046645Y-72258076D01*
X105769292Y-71953739D01*
X105872765Y-71933157D01*
X106082809Y-71792809D01*
X106223157Y-71582765D01*
X106272440Y-71335000D01*
X106272440Y-71183797D01*
X106498229Y-71032929D01*
X106540631Y-70969470D01*
X108170102Y-69340000D01*
X109138226Y-69340000D01*
X109273519Y-69542481D01*
G04 #@! TD*
M02*
